<?xml version="1.0" encoding="UTF-8" standalone="no"?>
<!-- Created with Inkscape (http://www.inkscape.org/) -->
<svg
   xmlns:dc="http://purl.org/dc/elements/1.1/"
   xmlns:cc="http://web.resource.org/cc/"
   xmlns:rdf="http://www.w3.org/1999/02/22-rdf-syntax-ns#"
   xmlns:svg="http://www.w3.org/2000/svg"
   xmlns="http://www.w3.org/2000/svg"
   xmlns:xlink="http://www.w3.org/1999/xlink"
   xmlns:sodipodi="http://sodipodi.sourceforge.net/DTD/sodipodi-0.dtd"
   xmlns:inkscape="http://www.inkscape.org/namespaces/inkscape"
   id="svg2"
   sodipodi:version="0.32"
   inkscape:version="0.45.1"
   version="1.0"
   sodipodi:docbase="/home/hbons/Desktop/Ubuntu Visual Refresh: Discovery Theme"
   sodipodi:docname="sound-file.svg"
   inkscape:output_extension="org.inkscape.output.svg.inkscape">
  <defs
     id="defs4">
    <linearGradient
       inkscape:collect="always"
       id="linearGradient5003">
      <stop
         style="stop-color:#000000;stop-opacity:1;"
         offset="0"
         id="stop5005" />
      <stop
         style="stop-color:#000000;stop-opacity:0;"
         offset="1"
         id="stop5007" />
    </linearGradient>
    <linearGradient
       inkscape:collect="always"
       id="linearGradient4840">
      <stop
         style="stop-color:#eeeeee;stop-opacity:1;"
         offset="0"
         id="stop4842" />
      <stop
         style="stop-color:#eeeeee;stop-opacity:0;"
         offset="1"
         id="stop4844" />
    </linearGradient>
    <linearGradient
       inkscape:collect="always"
       id="linearGradient4832">
      <stop
         style="stop-color:#eeeeee;stop-opacity:1;"
         offset="0"
         id="stop4834" />
      <stop
         style="stop-color:#eeeeee;stop-opacity:0;"
         offset="1"
         id="stop4836" />
    </linearGradient>
    <linearGradient
       inkscape:collect="always"
       id="linearGradient3217">
      <stop
         style="stop-color:#ffffff;stop-opacity:1;"
         offset="0"
         id="stop3219" />
      <stop
         style="stop-color:#ffffff;stop-opacity:0;"
         offset="1"
         id="stop3221" />
    </linearGradient>
    <linearGradient
       inkscape:collect="always"
       id="linearGradient3201">
      <stop
         style="stop-color:#ffffff;stop-opacity:1;"
         offset="0"
         id="stop3203" />
      <stop
         style="stop-color:#ffffff;stop-opacity:0;"
         offset="1"
         id="stop3205" />
    </linearGradient>
    <linearGradient
       inkscape:collect="always"
       xlink:href="#linearGradient3201"
       id="linearGradient3207"
       x1="23.013393"
       y1="-4.4776783"
       x2="40.941963"
       y2="34.357143"
       gradientUnits="userSpaceOnUse" />
    <linearGradient
       inkscape:collect="always"
       xlink:href="#linearGradient3217"
       id="linearGradient3223"
       x1="28.673544"
       y1="9.5386515"
       x2="41.784481"
       y2="36.095161"
       gradientUnits="userSpaceOnUse" />
    <linearGradient
       inkscape:collect="always"
       xlink:href="#linearGradient3217"
       id="linearGradient3852"
       gradientUnits="userSpaceOnUse"
       x1="28.673544"
       y1="9.5386515"
       x2="41.784481"
       y2="36.095161" />
    <linearGradient
       inkscape:collect="always"
       xlink:href="#linearGradient3201"
       id="linearGradient3859"
       gradientUnits="userSpaceOnUse"
       x1="23.013393"
       y1="-4.4776783"
       x2="40.941963"
       y2="34.357143" />
    <linearGradient
       inkscape:collect="always"
       xlink:href="#linearGradient4832"
       id="linearGradient4838"
       x1="36.229519"
       y1="11.782744"
       x2="43.541985"
       y2="25.798611"
       gradientUnits="userSpaceOnUse" />
    <linearGradient
       inkscape:collect="always"
       xlink:href="#linearGradient4840"
       id="linearGradient4846"
       x1="15.816167"
       y1="-4.904655"
       x2="32.460831"
       y2="14.906228"
       gradientUnits="userSpaceOnUse" />
    <filter
       inkscape:collect="always"
       x="-0.081522048"
       width="1.1630441"
       y="-0.3365332"
       height="1.6730664"
       id="filter4967">
      <feGaussianBlur
         inkscape:collect="always"
         stdDeviation="1.4022217"
         id="feGaussianBlur4969" />
    </filter>
    <radialGradient
       inkscape:collect="always"
       xlink:href="#linearGradient5003"
       id="radialGradient5011"
       cx="5.5691452"
       cy="33.739326"
       fx="5.5691452"
       fy="33.739326"
       r="39.470932"
       gradientTransform="matrix(0.5900194,-0.5823779,0.3585233,0.3538799,76.198214,14.072024)"
       gradientUnits="userSpaceOnUse" />
  </defs>
  <sodipodi:namedview
     id="base"
     pagecolor="#ffffff"
     bordercolor="#666666"
     borderopacity="1.0"
     gridtolerance="10000"
     guidetolerance="10"
     objecttolerance="10"
     inkscape:pageopacity="0.0"
     inkscape:pageshadow="2"
     inkscape:zoom="22.4"
     inkscape:cx="46.200317"
     inkscape:cy="23.148691"
     inkscape:document-units="px"
     inkscape:current-layer="layer1"
     showgrid="true"
     showguides="true"
     inkscape:guide-bbox="true"
     inkscape:window-width="1440"
     inkscape:window-height="846"
     inkscape:window-x="0"
     inkscape:window-y="24" />
  <metadata
     id="metadata7">
    <rdf:RDF>
      <cc:Work
         rdf:about="">
        <dc:format>image/svg+xml</dc:format>
        <dc:type
           rdf:resource="http://purl.org/dc/dcmitype/StillImage" />
      </cc:Work>
    </rdf:RDF>
  </metadata>
  <g
     inkscape:label="Layer 1"
     inkscape:groupmode="layer" transform="scale(12)"
     id="layer1">
    <path
       style="opacity:1;fill:url(#radialGradient5011);fill-opacity:1;stroke:none;stroke-width:0.48929414;stroke-miterlimit:4;stroke-dasharray:none;stroke-opacity:1"
       d="M 98.178629,-20 C 98.440767,-19.67462 98.715461,-19.374196 98.971467,-19.035437 C 100.42576,-17.998834 101.81077,-16.851686 103.12004,-15.559369 C 116.12732,-2.720558 116.32692,17.958635 103.50724,30.612279 C 90.687564,43.265926 69.700162,43.105303 56.69289,30.266491 C 55.530521,29.119178 53.957633,28.075956 53,26.813823 C 53,26.813823 53.919272,25.922056 53.919272,25.922056 C 64.471682,28.466141 76.54629,25.848441 84.663497,17.836364 C 93.37588,9.23682 95.891668,-3.1838195 92.278435,-14.176221 L 92.960646,-14.849595 C 96.826138,-3.4978647 94.273681,9.442607 85.216641,18.382344 C 77.460583,26.03795 66.720505,28.994886 56.563823,27.300004 C 68.952029,34.335163 84.892196,32.752452 95.283847,22.495386 C 106.46913,11.454967 107.45952,-5.8952569 98.344571,-18.416659 C 97.99655,-18.663077 97.648879,-18.895099 97.2936,-19.126433 L 98.178629,-20 z M 55.475975,27.68219 C 56.06033,28.361429 56.669874,29.006221 57.319785,29.647714 C 70.04208,42.20524 90.492037,42.366961 102.9541,30.066298 C 115.41616,17.765638 115.21544,-2.3830686 102.49315,-14.940593 C 101.86205,-15.563517 101.20574,-16.125636 100.53871,-16.687726 C 108.20935,-4.102484 106.68572,12.33314 95.836991,23.041366 C 84.968426,33.769169 68.243807,35.29217 55.475975,27.68219 z "
       id="path4977"
       sodipodi:nodetypes="ccsssccsccscsccccssscsc" />
    <path
       style="opacity:0.22916667;fill:#333333;fill-opacity:1;stroke:none;stroke-width:1;stroke-miterlimit:4;stroke-dasharray:none;stroke-opacity:1;filter:url(#filter4967)"
       d="M 15.34375,31 C 8.9168926,31 3.71875,33.239998 3.71875,36 C 3.71875,38.76 8.9168926,40.999998 15.34375,41 C 19.05368,41 22.367444,40.255737 24.5,39.09375 C 26.607139,40.248315 29.84925,41 33.5,41 C 39.848,41 45,38.76 45,36 C 45,33.24 39.848,31 33.5,31 C 29.84925,31 26.607139,31.751685 24.5,32.90625 C 22.367444,31.744263 19.05368,30.999999 15.34375,31 z "
       id="path4918"
       transform="matrix(0.9515519,0,0,0.8,0.1801645,6.2)" />
    <path
       style="fill:#333333;fill-opacity:1;stroke:#000000;stroke-width:0.99999994;stroke-miterlimit:4;stroke-dasharray:none;stroke-opacity:1"
       d="M 1.1784107,13.473214 L 9.4284107,27.762633 C 8.6446059,27.841528 7.8200499,28.113871 7.0133472,28.579621 C 4.862141,29.82162 3.7882329,31.993559 4.6162329,33.427697 C 5.4442329,34.861835 7.862141,35.017772 10.013347,33.775773 C 12.164553,32.533774 13.238462,30.361834 12.410462,28.927697 L 6.9104615,19.401417 L 18.988423,12.428203 L 23.238423,19.789419 C 22.454618,19.868313 21.630062,20.140656 20.82336,20.606406 C 18.672154,21.848406 17.598246,24.020345 18.426246,25.454482 C 19.254245,26.88862 21.672154,27.044559 23.82336,25.802558 C 25.974566,24.560559 27.048475,22.388621 26.220474,20.954482 L 16.720474,4.4999997 L 1.1784107,13.473214 z M 4.9104615,15.937316 L 16.988423,8.9641013 L 17.988423,10.696152 L 5.9104615,17.669367 L 4.9104615,15.937316 z "
       id="path3185"
       sodipodi:nodetypes="ccsssccccssscccccccc" />
    <path
       sodipodi:type="inkscape:offset"
       inkscape:radius="-0.95599169"
       inkscape:original="M 18.5625 0.5 L 18.5625 17 C 17.844257 16.676422 16.994 16.5 16.0625 16.5 C 13.5785 16.5 11.5625 17.844 11.5625 19.5 C 11.5625 21.156 13.578501 22.5 16.0625 22.5 C 18.546498 22.5 20.562501 21.156 20.5625 19.5 L 20.5625 8.5 L 34.5 8.5 L 34.5 17 C 33.781758 16.676422 32.9315 16.5 32 16.5 C 29.516001 16.5 27.5 17.844001 27.5 19.5 C 27.5 21.156 29.516001 22.500001 32 22.5 C 34.483999 22.5 36.500001 21.156001 36.5 19.5 L 36.5 0.5 L 18.5625 0.5 z M 20.5625 4.5 L 34.5 4.5 L 34.5 6.5 L 20.5625 6.5 L 20.5625 4.5 z "
       style="opacity:0.58333333;fill:url(#linearGradient4846);fill-opacity:1.0;stroke:url(#linearGradient3859);stroke-width:0.99999994;stroke-miterlimit:4;stroke-dasharray:none;stroke-opacity:1"
       id="path2194"
       d="M 19.53125,1.46875 L 19.53125,17 C 19.536687,17.332403 19.369063,17.643766 19.08859,17.822249 C 18.808118,18.000732 18.455065,18.020707 18.15625,17.875 C 17.576972,17.614028 16.873293,17.46875 16.0625,17.46875 C 14.992917,17.46875 14.034146,17.768903 13.40625,18.1875 C 12.778354,18.606097 12.53125,19.059939 12.53125,19.5 C 12.53125,19.940061 12.778354,20.393903 13.40625,20.8125 C 14.034146,21.231097 14.992918,21.53125 16.0625,21.53125 C 17.132082,21.53125 18.090853,21.231097 18.71875,20.8125 C 19.346647,20.393903 19.59375,19.940061 19.59375,19.5 L 19.59375,8.5 C 19.59031,8.2420324 19.69127,7.9936234 19.873696,7.8111965 C 20.056123,7.6287696 20.304532,7.5278102 20.5625,7.53125 L 34.5,7.53125 C 34.757968,7.5278102 35.006377,7.6287696 35.188804,7.8111965 C 35.37123,7.9936234 35.47219,8.2420324 35.46875,8.5 L 35.46875,17 C 35.474187,17.332403 35.306563,17.643766 35.02609,17.822249 C 34.745618,18.000732 34.392565,18.020707 34.09375,17.875 C 33.514474,17.614028 32.810793,17.46875 32,17.46875 C 30.930418,17.46875 29.971646,17.768902 29.34375,18.1875 C 28.715854,18.606098 28.46875,19.05994 28.46875,19.5 C 28.46875,19.940061 28.715854,20.393903 29.34375,20.8125 C 29.971646,21.231097 30.930418,21.53125 32,21.53125 C 33.069582,21.53125 34.028354,21.231097 34.65625,20.8125 C 35.284146,20.393903 35.53125,19.940062 35.53125,19.5 L 35.53125,1.46875 L 19.53125,1.46875 z M 20.5,3.53125 C 20.520828,3.5305689 20.541672,3.5305689 20.5625,3.53125 L 34.5,3.53125 C 34.757968,3.5278102 35.006377,3.6287696 35.188804,3.8111965 C 35.37123,3.9936234 35.47219,4.2420324 35.46875,4.5 L 35.46875,6.5 C 35.47219,6.7579676 35.37123,7.0063766 35.188804,7.1888035 C 35.006377,7.3712304 34.757968,7.4721898 34.5,7.46875 L 20.5625,7.46875 C 20.304532,7.4721898 20.056123,7.3712304 19.873696,7.1888035 C 19.69127,7.0063766 19.59031,6.7579676 19.59375,6.5 L 19.59375,4.5 C 19.586245,3.9859496 19.986591,3.5579936 20.5,3.53125 L 20.5,3.53125 z "
       transform="matrix(0.8660254,-0.5,0.5,0.8660254,-15.139453,22.316987)" />
    <path
       sodipodi:type="arc"
       style="opacity:0.32291667;fill:#eeeeee;fill-opacity:1;stroke:none;stroke-width:1;stroke-miterlimit:4;stroke-dasharray:none;stroke-opacity:1"
       id="path3209"
       sodipodi:cx="4.0178571"
       sodipodi:cy="20.008928"
       sodipodi:rx="2.9464285"
       sodipodi:ry="1.4732143"
       d="M 6.9642856 20.008928 A 2.9464285 1.4732143 0 1 1  1.0714285,20.008928 A 2.9464285 1.4732143 0 1 1  6.9642856 20.008928 z"
       transform="matrix(0.8765227,-0.5060606,0.509091,0.8817715,-6.6226444,15.237362)" />
    <path
       sodipodi:type="arc"
       style="opacity:0.32291667;fill:#eeeeee;fill-opacity:1;stroke:none;stroke-width:1;stroke-miterlimit:4;stroke-dasharray:none;stroke-opacity:1"
       id="path3211"
       sodipodi:cx="4.0178571"
       sodipodi:cy="20.008928"
       sodipodi:rx="2.9464285"
       sodipodi:ry="1.4732143"
       d="M 6.9642856 20.008928 A 2.9464285 1.4732143 0 1 1  1.0714285,20.008928 A 2.9464285 1.4732143 0 1 1  6.9642856 20.008928 z"
       transform="matrix(0.8765227,-0.5060606,0.509091,0.8817715,7.264692,7.2195052)" />
    <path
       style="fill:#333333;fill-opacity:1;stroke:#000000;stroke-width:0.99999982;stroke-miterlimit:4;stroke-dasharray:none;stroke-opacity:1"
       d="M 40.331693,16.566696 L 28.045979,33.343483 C 27.647328,32.664032 27.055774,32.007374 26.295979,31.468483 C 24.269863,30.031439 21.84776,29.961488 20.889729,31.312233 C 19.931698,32.662979 20.801112,34.937689 22.827229,36.374733 C 24.853347,37.81178 27.275447,37.881729 28.233479,36.530983 L 39.635265,21.26759 C 42.492408,32.071161 34.572652,35.83077 34.572652,35.83077 C 34.572652,35.83077 49.294325,31.144952 41.608479,17.687233 L 40.331693,16.566696 z "
       id="path2177"
       sodipodi:nodetypes="ccsssccccc" />
    <path
       sodipodi:type="inkscape:offset"
       inkscape:radius="-0.90493566"
       inkscape:original="M 40.34375 16.5625 L 28.03125 33.34375 C 27.632599 32.664299 27.041045 32.007641 26.28125 31.46875 C 24.255134 30.031706 21.833031 29.961755 20.875 31.3125 C 19.916969 32.663246 20.786383 34.937956 22.8125 36.375 C 24.838618 37.812047 27.260718 37.881996 28.21875 36.53125 L 39.625 21.28125 C 42.482142 32.084822 34.5625 35.84375 34.5625 35.84375 C 34.562501 35.843751 49.368882 30.966648 41.59375 17.6875 L 40.34375 16.5625 z "
       xlink:href="#path2177"
       style="fill:url(#linearGradient4838);fill-opacity:1.0;stroke:url(#linearGradient3852);stroke-width:0.99999982;stroke-miterlimit:4;stroke-dasharray:none;stroke-opacity:1"
       id="path3215"
       inkscape:href="#path2177"
       d="M 40.46875,17.90625 L 28.75,33.875 C 28.571557,34.11751 28.284195,34.255399 27.98337,34.242865 C 27.682545,34.230331 27.40765,34.069014 27.25,33.8125 C 26.920299,33.250566 26.407633,32.685182 25.75,32.21875 C 24.870084,31.594661 23.922598,31.272144 23.15625,31.25 C 22.389902,31.227856 21.89156,31.467922 21.625,31.84375 C 21.35939,32.218238 21.287268,32.780549 21.5625,33.5 C 21.837732,34.219451 22.464651,35.00149 23.34375,35.625 C 24.223667,36.249091 25.171153,36.571607 25.9375,36.59375 C 26.703847,36.615893 27.202189,36.37583 27.46875,36 C 27.479166,35.99982 27.489584,35.99982 27.5,36 L 37.9375,21.90625 C 38.222499,21.52335 38.755879,21.427615 39.15625,21.6875 C 39.15625,21.6875 42.325121,23.601845 43.125,26.8125 C 43.482481,28.247404 43.121496,29.941243 41.9375,31.59375 C 42.055275,31.512782 42.197913,31.458343 42.3125,31.375 C 44.324063,29.911922 45.700285,28.169422 45.8125,26.15625 C 45.924715,24.143078 44.781683,21.574965 41,18.375 L 40.46875,17.90625 z "
       transform="translate(0.112171,-9.516182e-2)" />
    <path
       sodipodi:type="arc"
       style="opacity:0.42708333;fill:#eeeeee;fill-opacity:1;stroke:none;stroke-width:1;stroke-miterlimit:4;stroke-dasharray:none;stroke-opacity:1"
       id="path3225"
       sodipodi:cx="4.0178571"
       sodipodi:cy="20.008928"
       sodipodi:rx="2.9464285"
       sodipodi:ry="1.4732143"
       d="M 6.9642856 20.008928 A 2.9464285 1.4732143 0 1 1  1.0714285,20.008928 A 2.9464285 1.4732143 0 1 1  6.9642856 20.008928 z"
       transform="matrix(0.6517201,0.3839011,-0.378524,0.6689181,28.97007,17.572938)" />
  </g>
</svg>
