<?xml version="1.0" encoding="UTF-8" standalone="no"?>
<!-- Created with Inkscape (http://www.inkscape.org/) -->
<svg
   xmlns:dc="http://purl.org/dc/elements/1.1/"
   xmlns:cc="http://web.resource.org/cc/"
   xmlns:rdf="http://www.w3.org/1999/02/22-rdf-syntax-ns#"
   xmlns:svg="http://www.w3.org/2000/svg"
   xmlns="http://www.w3.org/2000/svg"
   xmlns:xlink="http://www.w3.org/1999/xlink"
   xmlns:sodipodi="http://sodipodi.sourceforge.net/DTD/sodipodi-0.dtd"
   xmlns:inkscape="http://www.inkscape.org/namespaces/inkscape"
   id="svg2"
   sodipodi:version="0.32"
   inkscape:version="0.45"
   version="1.0"
   sodipodi:docbase="/home/lapo/Icone/tangerine-icon-theme/scalable/devices"
   sodipodi:docname="drive-optical.svg"
   inkscape:export-filename="/home/lapo/Desktop/drive-harddisk.png"
   inkscape:export-xdpi="90"
   inkscape:export-ydpi="90"
   inkscape:output_extension="org.inkscape.output.svg.inkscape">
  <defs
     id="defs4">
    <linearGradient
       inkscape:collect="always"
       id="linearGradient7945">
      <stop
         style="stop-color:#000000;stop-opacity:1;"
         offset="0"
         id="stop7947" />
      <stop
         style="stop-color:#000000;stop-opacity:0;"
         offset="1"
         id="stop7949" />
    </linearGradient>
    <linearGradient
       inkscape:collect="always"
       id="linearGradient7935">
      <stop
         style="stop-color:#000000;stop-opacity:1;"
         offset="0"
         id="stop7937" />
      <stop
         style="stop-color:#000000;stop-opacity:0;"
         offset="1"
         id="stop7939" />
    </linearGradient>
    <linearGradient
       inkscape:collect="always"
       id="linearGradient7866">
      <stop
         style="stop-color:#000000;stop-opacity:1;"
         offset="0"
         id="stop7868" />
      <stop
         style="stop-color:#000000;stop-opacity:0;"
         offset="1"
         id="stop7870" />
    </linearGradient>
    <linearGradient
       id="linearGradient7856">
      <stop
         style="stop-color:#888a85;stop-opacity:1"
         offset="0"
         id="stop7858" />
      <stop
         style="stop-color:#eeeeec;stop-opacity:1"
         offset="1"
         id="stop7860" />
    </linearGradient>
    <linearGradient
       inkscape:collect="always"
       id="linearGradient7848">
      <stop
         style="stop-color:#2e3436;stop-opacity:1"
         offset="0"
         id="stop7850" />
      <stop
         style="stop-color:#2e3436;stop-opacity:0;"
         offset="1"
         id="stop7852" />
    </linearGradient>
    <linearGradient
       id="linearGradient3338">
      <stop
         style="stop-color:#000000;stop-opacity:0;"
         offset="0"
         id="stop3340" />
      <stop
         id="stop3346"
         offset="0.5"
         style="stop-color:#000000;stop-opacity:1;" />
      <stop
         style="stop-color:#000000;stop-opacity:0;"
         offset="1"
         id="stop3342" />
    </linearGradient>
    <linearGradient
       inkscape:collect="always"
       id="linearGradient3324">
      <stop
         style="stop-color:#000000;stop-opacity:1;"
         offset="0"
         id="stop3326" />
      <stop
         style="stop-color:#000000;stop-opacity:0;"
         offset="1"
         id="stop3328" />
    </linearGradient>
    <linearGradient
       id="linearGradient3316"
       inkscape:collect="always">
      <stop
         id="stop3318"
         offset="0"
         style="stop-color:#000000;stop-opacity:1" />
      <stop
         id="stop3320"
         offset="1"
         style="stop-color:#ffffff;stop-opacity:0;" />
    </linearGradient>
    <linearGradient
       inkscape:collect="always"
       id="linearGradient3304">
      <stop
         style="stop-color:#ffffff;stop-opacity:1;"
         offset="0"
         id="stop3306" />
      <stop
         style="stop-color:#ffffff;stop-opacity:0;"
         offset="1"
         id="stop3308" />
    </linearGradient>
    <linearGradient
       inkscape:collect="always"
       id="linearGradient3296">
      <stop
         style="stop-color:#ffffff;stop-opacity:1;"
         offset="0"
         id="stop3298" />
      <stop
         style="stop-color:#ffffff;stop-opacity:0;"
         offset="1"
         id="stop3300" />
    </linearGradient>
    <linearGradient
       inkscape:collect="always"
       id="linearGradient3259">
      <stop
         style="stop-color:#ffffff;stop-opacity:1;"
         offset="0"
         id="stop3261" />
      <stop
         style="stop-color:#ffffff;stop-opacity:0;"
         offset="1"
         id="stop3263" />
    </linearGradient>
    <linearGradient
       id="linearGradient2568">
      <stop
         id="stop2570"
         offset="0"
         style="stop-color:#f7f7f6;stop-opacity:1;" />
      <stop
         id="stop2572"
         offset="1"
         style="stop-color:#babdb6" />
    </linearGradient>
    <linearGradient
       inkscape:collect="always"
       id="linearGradient2328">
      <stop
         style="stop-color:#babdb6"
         offset="0"
         id="stop2330" />
      <stop
         style="stop-color:#eeeeec"
         offset="1"
         id="stop2332" />
    </linearGradient>
    <linearGradient
       inkscape:collect="always"
       xlink:href="#linearGradient3259"
       id="linearGradient3265"
       x1="68.486435"
       y1="16.101585"
       x2="107.33999"
       y2="-9.9977188"
       gradientUnits="userSpaceOnUse"
       gradientTransform="matrix(1,0,0,-1,-50,44)" />
    <linearGradient
       inkscape:collect="always"
       xlink:href="#linearGradient3296"
       id="linearGradient3302"
       x1="56.3125"
       y1="19.1875"
       x2="61.239254"
       y2="20.50762"
       gradientUnits="userSpaceOnUse"
       gradientTransform="translate(-50,0)" />
    <linearGradient
       inkscape:collect="always"
       xlink:href="#linearGradient3316"
       id="linearGradient3314"
       gradientUnits="userSpaceOnUse"
       x1="56.3125"
       y1="19.1875"
       x2="61.239254"
       y2="20.50762"
       gradientTransform="matrix(-1,0,0,1,97.99971,0)" />
    <radialGradient
       inkscape:collect="always"
       xlink:href="#linearGradient3324"
       id="radialGradient3353"
       gradientUnits="userSpaceOnUse"
       gradientTransform="matrix(2,0,0,1.4,-155,-92.4)"
       cx="50"
       cy="38.5"
       fx="50"
       fy="38.5"
       r="2.5" />
    <radialGradient
       inkscape:collect="always"
       xlink:href="#linearGradient3324"
       id="radialGradient3355"
       gradientUnits="userSpaceOnUse"
       gradientTransform="matrix(2,0,0,1.4,-7,-15.4)"
       cx="50"
       cy="38.5"
       fx="50"
       fy="38.5"
       r="2.5" />
    <linearGradient
       inkscape:collect="always"
       xlink:href="#linearGradient3338"
       id="linearGradient3357"
       gradientUnits="userSpaceOnUse"
       x1="73.008774"
       y1="34.999859"
       x2="73.008774"
       y2="42.00893" />
    <linearGradient
       inkscape:collect="always"
       xlink:href="#linearGradient3304"
       id="linearGradient3477"
       gradientUnits="userSpaceOnUse"
       x1="73.999947"
       y1="11.851768"
       x2="103.33746"
       y2="46.087494"
       gradientTransform="translate(-50,0)" />
    <radialGradient
       inkscape:collect="always"
       xlink:href="#linearGradient2568"
       id="radialGradient3481"
       gradientUnits="userSpaceOnUse"
       gradientTransform="matrix(1.0379852,-1.0379852,-1.24052,-1.24052,-40.080359,101.66082)"
       cx="64.807335"
       cy="9.9807835"
       fx="64.807335"
       fy="9.9807835"
       r="22.000272" />
    <linearGradient
       inkscape:collect="always"
       xlink:href="#linearGradient2328"
       id="linearGradient5996"
       gradientUnits="userSpaceOnUse"
       gradientTransform="matrix(1,0,0,-1,-50,64)"
       x1="78.772972"
       y1="45.612438"
       x2="69.275124"
       y2="20.68099" />
    <linearGradient
       y2="14.2033"
       x2="35.391201"
       y1="32.4165"
       x1="12.2744"
       gradientUnits="userSpaceOnUse"
       id="aigrd2">
      <stop
         id="stop3043"
         style="stop-color:#FBFBFB"
         offset="0" />
      <stop
         id="stop3045"
         style="stop-color:#B6B6B6"
         offset="0.5" />
      <stop
         id="stop3047"
         style="stop-color:#E4E4E4"
         offset="1" />
    </linearGradient>
    <linearGradient
       id="linearGradient6036"
       inkscape:collect="always">
      <stop
         id="stop6038"
         offset="0"
         style="stop-color:#ffffff;stop-opacity:1;" />
      <stop
         id="stop6040"
         offset="1"
         style="stop-color:#ffffff;stop-opacity:0;" />
    </linearGradient>
    <linearGradient
       id="linearGradient6028"
       inkscape:collect="always">
      <stop
         id="stop6030"
         offset="0"
         style="stop-color:#ffffff;stop-opacity:1;" />
      <stop
         id="stop6032"
         offset="1"
         style="stop-color:#ffffff;stop-opacity:0;" />
    </linearGradient>
    <linearGradient
       id="linearGradient4409"
       inkscape:collect="always">
      <stop
         id="stop4411"
         offset="0"
         style="stop-color:#ffffff;stop-opacity:1;" />
      <stop
         id="stop4413"
         offset="1"
         style="stop-color:#ffffff;stop-opacity:0;" />
    </linearGradient>
    <linearGradient
       inkscape:collect="always"
       xlink:href="#linearGradient7848"
       id="linearGradient7854"
       x1="20.876432"
       y1="29.311777"
       x2="20.876432"
       y2="31.199688"
       gradientUnits="userSpaceOnUse"
       gradientTransform="translate(0,2)" />
    <linearGradient
       inkscape:collect="always"
       xlink:href="#linearGradient7856"
       id="linearGradient7862"
       x1="6.5625"
       y1="29.18334"
       x2="6.5625"
       y2="31.063263"
       gradientUnits="userSpaceOnUse"
       gradientTransform="translate(0,2)" />
    <linearGradient
       inkscape:collect="always"
       xlink:href="#linearGradient7866"
       id="linearGradient7900"
       gradientUnits="userSpaceOnUse"
       x1="16.6875"
       y1="28.982639"
       x2="16.6875"
       y2="31.001158"
       gradientTransform="translate(0,2)" />
    <radialGradient
       inkscape:collect="always"
       xlink:href="#linearGradient7935"
       id="radialGradient7941"
       cx="23.864855"
       cy="38.896"
       fx="23.864855"
       fy="38.896"
       r="21.566757"
       gradientTransform="matrix(1,0,0,0.3565574,0,25.027344)"
       gradientUnits="userSpaceOnUse" />
    <linearGradient
       inkscape:collect="always"
       xlink:href="#linearGradient7945"
       id="linearGradient7951"
       x1="23.9375"
       y1="27.93721"
       x2="23.9375"
       y2="34.687897"
       gradientUnits="userSpaceOnUse"
       gradientTransform="translate(0,4)" />
    <linearGradient
       inkscape:collect="always"
       xlink:href="#aigrd2"
       id="linearGradient7979"
       gradientUnits="userSpaceOnUse"
       gradientTransform="matrix(1.190476,0,0,1.190476,61.441056,8.895225)"
       x1="12.2744"
       y1="32.4165"
       x2="35.3912"
       y2="14.2033" />
    <linearGradient
       inkscape:collect="always"
       xlink:href="#linearGradient6028"
       id="linearGradient7985"
       gradientUnits="userSpaceOnUse"
       x1="28.702885"
       y1="31.494707"
       x2="17.742729"
       y2="18.366575" />
    <linearGradient
       inkscape:collect="always"
       xlink:href="#linearGradient6036"
       id="linearGradient7994"
       gradientUnits="userSpaceOnUse"
       gradientTransform="matrix(0.9903339,0,0,-0.9783605,65.900812,36.391745)"
       x1="7.4252987"
       y1="-8.7835331"
       x2="10.927073"
       y2="11.947701" />
    <linearGradient
       inkscape:collect="always"
       xlink:href="#linearGradient4409"
       id="linearGradient8004"
       gradientUnits="userSpaceOnUse"
       gradientTransform="matrix(0.8413283,0,0,0.6487695,-55.992055,16.414693)"
       x1="24.502001"
       y1="25.285137"
       x2="18.135227"
       y2="14.928518" />
  </defs>
  <sodipodi:namedview
     id="base"
     pagecolor="#ffffff"
     bordercolor="#666666"
     borderopacity="1.0"
     inkscape:pageopacity="0.0"
     inkscape:pageshadow="2"
     inkscape:zoom="1"
     inkscape:cx="35.654386"
     inkscape:cy="20.523143"
     inkscape:document-units="px"
     inkscape:current-layer="layer3"
     showgrid="false"
     gridempspacing="2"
     gridspacingx="0.5px"
     gridspacingy="0.5px"
     inkscape:window-width="930"
     inkscape:window-height="738"
     inkscape:window-x="173"
     inkscape:window-y="113"
     fill="#babdb6"
     stroke="#eeeeec"
     inkscape:grid-points="true"
     inkscape:grid-bbox="true"
     showguides="false"
     inkscape:guide-bbox="true"
     showborder="false"
     inkscape:showpageshadow="false">
    <sodipodi:guide
       orientation="horizontal"
       position="9.5"
       id="guide2264" />
  </sodipodi:namedview>
  <metadata
     id="metadata7">
    <rdf:RDF>
      <cc:Work
         rdf:about="">
        <dc:format>image/svg+xml</dc:format>
        <dc:type
           rdf:resource="http://purl.org/dc/dcmitype/StillImage" />
        <dc:creator>
          <cc:Agent>
            <dc:title>Lapo Calamandrei</dc:title>
          </cc:Agent>
        </dc:creator>
        <dc:title>Ubuntu Optical</dc:title>
        <dc:date />
        <dc:contributor>
          <cc:Agent>
            <dc:title>Jakub Steiner</dc:title>
          </cc:Agent>
        </dc:contributor>
        <cc:license
           rdf:resource="http://creativecommons.org/licenses/GPL/2.0/" />
        <dc:subject>
          <rdf:Bag>
            <rdf:li>media</rdf:li>
            <rdf:li>solid</rdf:li>
          </rdf:Bag>
        </dc:subject>
      </cc:Work>
      <cc:License
         rdf:about="http://creativecommons.org/licenses/GPL/2.0/">
        <cc:permits
           rdf:resource="http://web.resource.org/cc/Reproduction" />
        <cc:permits
           rdf:resource="http://web.resource.org/cc/Distribution" />
        <cc:requires
           rdf:resource="http://web.resource.org/cc/Notice" />
        <cc:permits
           rdf:resource="http://web.resource.org/cc/DerivativeWorks" />
        <cc:requires
           rdf:resource="http://web.resource.org/cc/ShareAlike" />
        <cc:requires
           rdf:resource="http://web.resource.org/cc/SourceCode" />
      </cc:License>
    </rdf:RDF>
  </metadata>
  <g transform="scale(12)"
     inkscape:groupmode="layer"
     id="layer3"
     inkscape:label="Work"
     style="display:inline">
    <path
       sodipodi:type="arc"
       style="opacity:0.3;fill:url(#radialGradient7941);fill-opacity:1;fill-rule:evenodd;stroke:none;stroke-width:1;stroke-linecap:round;stroke-linejoin:miter;stroke-miterlimit:4;stroke-dasharray:none;stroke-dashoffset:0.69999992;stroke-opacity:1"
       id="path7897"
       sodipodi:cx="23.864855"
       sodipodi:cy="38.896"
       sodipodi:rx="21.566757"
       sodipodi:ry="7.6897864"
       d="M 45.431612 38.896 A 21.566757 7.6897864 0 1 1  2.2980976,38.896 A 21.566757 7.6897864 0 1 1  45.431612 38.896 z"
       transform="matrix(1.0664561,0,0,1.5605116,-1.4508202,-23.697657)" />
    <path
       style="fill:none;fill-opacity:1;stroke:url(#linearGradient3477);stroke-width:1;stroke-linecap:round;stroke-linejoin:round;stroke-miterlimit:4;stroke-dashoffset:0;stroke-opacity:1;display:inline"
       d="M 11.75,9.5 C 10.179795,9.480135 9.7983768,10.243475 9.1875,11.5 C 7.649958,16.018996 5.826429,20.433351 4.25,24.9375 C 3.760388,26.428809 3.493785,27.720168 3.5,27.96875 C 3.500163,27.979166 3.500163,27.989584 3.5,28 L 3.5,30 C 3.5,30.857594 4.142406,31.5 5,31.5 L 43,31.5 C 43.857594,31.5 44.5,30.857594 44.5,30 L 44.5,28 C 44.5,27.733333 44.190087,26.394193 43.6875,24.84375 C 42.060802,20.187515 40.35611,15.559278 38.71875,10.90625 C 38.483374,10.391367 38.236206,9.996087 38.03125,9.78125 C 37.826294,9.566413 37.729394,9.5 37.40625,9.5 L 11.75,9.5 z "
       id="path3199"
       sodipodi:nodetypes="cccsccccccccscc" />
    <g
       id="g3348"
       style="opacity:0.3"
       transform="matrix(0.9895833,0,0,1.4285712,-48.979163,-17.499991)">
      <rect
         transform="scale(-1,-1)"
         ry="0"
         rx="0"
         y="-42"
         x="-55"
         height="7"
         width="5"
         id="rect3322"
         style="opacity:1;fill:url(#radialGradient3353);fill-opacity:1;stroke:none;stroke-width:1;stroke-linecap:round;stroke-linejoin:round;stroke-miterlimit:4;stroke-dasharray:none;stroke-dashoffset:0;stroke-opacity:1" />
      <rect
         ry="0"
         rx="0"
         y="35"
         x="93"
         height="7"
         width="5"
         id="rect3332"
         style="opacity:1;fill:url(#radialGradient3355);fill-opacity:1;stroke:none;stroke-width:1;stroke-linecap:round;stroke-linejoin:round;stroke-miterlimit:4;stroke-dasharray:none;stroke-dashoffset:0;stroke-opacity:1;display:inline" />
      <rect
         y="35"
         x="55"
         height="7"
         width="38"
         id="rect3336"
         style="opacity:1;fill:url(#linearGradient3357);fill-opacity:1;stroke:none;stroke-width:1;stroke-linecap:round;stroke-linejoin:round;stroke-miterlimit:4;stroke-dasharray:none;stroke-dashoffset:0;stroke-opacity:1" />
    </g>
    <path
       style="opacity:1;fill:url(#radialGradient3481);fill-opacity:1;stroke:#888a85;stroke-width:1;stroke-linecap:round;stroke-linejoin:round;stroke-miterlimit:4;stroke-dasharray:none;stroke-dashoffset:0;stroke-opacity:1;display:inline"
       d="M 11.46875,8.5 C 9.9909985,8.5 8.78125,10 8.28125,11.09375 C 7.7812501,12.1875 2.4375,25.5 2.5,28 L 2.5,36.5 C 2.5,37.5467 3.516267,39.5 6,39.5 L 42.03125,39.5 C 43.858733,39.5 45.5,38.264983 45.5,36.5 L 45.5,28 C 45.5,25.5 40.125,11.59375 39.625,10.5 C 39.124999,9.40625 38.009361,8.5 36.46875,8.5 L 11.46875,8.5 z "
       id="path3479"
       sodipodi:nodetypes="csccccccscc" />
    <path
       sodipodi:type="inkscape:offset"
       inkscape:radius="-1.016466"
       inkscape:original="M 11.46875 10.5 C 9.9909985 10.5 8.78125 12 8.28125 13.09375 C 7.7812501 14.1875 2.4375 27.5 2.5 30 L 2.5 32 C 2.5 33.389983 3.610017 34.5 5 34.5 L 43 34.5 C 44.389983 34.5 45.5 33.389983 45.5 32 L 45.5 30 C 45.5 27.5 40.125 13.59375 39.625 12.5 C 39.124999 11.40625 38.009361 10.5 36.46875 10.5 L 11.46875 10.5 z "
       style="opacity:1;fill:none;fill-opacity:1;stroke:#ffffff;stroke-width:1;stroke-linecap:round;stroke-linejoin:round;stroke-miterlimit:4;stroke-dasharray:none;stroke-dashoffset:0;stroke-opacity:1;display:inline"
       id="path2270"
       d="M 11.46875,11.53125 C 11.073797,11.53125 10.616068,11.726012 10.1875,12.125 C 9.7589322,12.523988 9.412924,13.106494 9.21875,13.53125 C 9.0477923,13.90522 7.5082552,17.617675 6.125,21.375 C 5.4333724,23.253663 4.772204,25.16255 4.28125,26.75 C 3.790296,28.33745 3.5252327,29.728059 3.53125,29.96875 C 3.5314101,29.979166 3.5314101,29.989584 3.53125,30 L 3.53125,32 C 3.53125,32.848828 4.1511721,33.46875 5,33.46875 L 43,33.46875 C 43.848828,33.46875 44.46875,32.848828 44.46875,32 L 44.46875,30 C 44.46875,29.739234 44.191257,28.302595 43.6875,26.65625 C 43.183743,25.009905 42.481139,23.016356 41.78125,21.0625 C 41.081361,19.108644 40.384241,17.208875 39.8125,15.71875 C 39.240759,14.228625 38.760186,13.0965 38.6875,12.9375 C 38.336931,12.170631 37.610743,11.53125 36.46875,11.53125 L 11.46875,11.53125 z "
       transform="translate(0,-2)" />
    <path
       style="opacity:0.13999999;fill:url(#linearGradient3314);fill-opacity:1;stroke:none;stroke-width:1;stroke-linecap:round;stroke-linejoin:round;stroke-miterlimit:4;stroke-dasharray:none;stroke-dashoffset:0;stroke-opacity:1;display:inline"
       d="M 36.477881,9 C 38.422798,9 38.974303,10.351915 39.426486,11.3125 C 40.834384,15.004228 44.809199,25.210969 44.999709,28 L 44.999709,30 C 44.999709,31.123789 44.123498,32 42.999709,32 L 31.999709,32 L 31.999709,9 L 36.477881,9 z "
       id="path3312"
       sodipodi:nodetypes="cccccccc" />
    <path
       style="opacity:0.75862068;fill:url(#linearGradient3302);fill-opacity:1;stroke:none;stroke-width:1;stroke-linecap:round;stroke-linejoin:round;stroke-miterlimit:4;stroke-dasharray:none;stroke-dashoffset:0;stroke-opacity:1;display:inline"
       d="M 11.28125,9 C 10.221038,9.347384 9.2021827,10.351915 8.75,11.3125 C 8.514926,11.826724 7.042687,16.170779 5.65625,19.6875 C 4.963032,21.44586 4.276056,23.274121 3.78125,24.78125 C 3.286444,26.288379 2.98908,27.563209 3,28 L 3,30 C 3,31.123789 3.876211,32 5,32 L 16,32 L 16,9 L 11.28125,9 z "
       id="path3294"
       sodipodi:nodetypes="ccsscccccc" />
    <path
       style="opacity:1;fill:url(#linearGradient5996);fill-opacity:1;stroke:none;stroke-width:1;stroke-linecap:round;stroke-linejoin:miter;stroke-miterlimit:4;stroke-dasharray:none;stroke-dashoffset:0;stroke-opacity:1;display:inline"
       d="M 6,26 C 4.880371,26 3,27.255371 3,28.375 L 3,36.5 C 3,37.619629 4.880371,39 6,39 L 42.25,39 C 43.369629,39 45,37.807129 45,36.6875 L 45,28.5 C 45,27.380372 43.869629,26 42,26 L 6,26 z "
       id="path3190"
       sodipodi:nodetypes="ccccccccc" />
    <rect
       style="opacity:1;fill:url(#linearGradient7854);fill-opacity:1;fill-rule:evenodd;stroke:url(#linearGradient7862);stroke-width:1;stroke-linecap:round;stroke-linejoin:miter;stroke-miterlimit:4;stroke-dasharray:none;stroke-dashoffset:0.69999992;stroke-opacity:1"
       id="rect7846"
       width="35"
       height="3"
       x="6.5"
       y="30.5"
       rx="0.875"
       ry="0.875" />
    <rect
       style="opacity:0.2;fill:url(#linearGradient7951);fill-opacity:1;fill-rule:evenodd;stroke:none;stroke-width:1;stroke-linecap:round;stroke-linejoin:miter;stroke-miterlimit:4;stroke-dasharray:none;stroke-dashoffset:0.69999992;stroke-opacity:1"
       id="rect7943"
       width="34"
       height="6.4375"
       x="7"
       y="33" />
    <path
       style="opacity:0.90804599;fill:none;fill-opacity:1;stroke:url(#linearGradient3265);stroke-width:1;stroke-linecap:round;stroke-linejoin:miter;stroke-miterlimit:4;stroke-dasharray:none;stroke-dashoffset:0;stroke-opacity:1;display:inline"
       d="M 6,26.5 C 4.5401165,26.5 3.5,27.516144 3.5,28.5 L 3.5,36.5 C 3.5,37.545094 4.4858335,38.5 6,38.5 L 42,38.5 C 43.482594,38.5 44.5,37.487056 44.5,36.5 L 44.5,28.5 C 44.5,27.52447 43.491105,26.5 42,26.5 L 6,26.5 z "
       id="path3203"
       sodipodi:nodetypes="ccccccccc" />
    <g
       style="display:inline"
       id="g7963"
       transform="matrix(0.8413283,0,0,0.5497024,-51.73005,15.069704)"
       mask="none">
      <path
         style="fill:url(#linearGradient7979);fill-rule:nonzero;stroke:#808080;stroke-width:1.47046101;stroke-miterlimit:4;stroke-opacity:1"
         d="M 70.968146,27.903957 C 69.817704,30.494395 69.179152,33.367038 69.179152,36.395226 C 69.179152,47.942846 78.464866,57.228561 90.012486,57.228561 C 101.56011,57.228561 110.84582,47.942846 110.84582,36.395226 C 110.84582,33.366113 110.20688,30.49264 109.05577,27.901584 M 90.012486,41.395227 C 87.274391,41.395227 85.012486,39.133322 85.012486,36.395226 C 85.012486,33.657131 87.274391,31.395226 90.012486,31.395226 C 92.750581,31.395226 95.012486,33.657131 95.012486,36.395226 C 95.012486,39.133322 92.750581,41.395227 90.012486,41.395227 z "
         id="path7967"
         inkscape:r_cx="true"
         inkscape:r_cy="true"
         sodipodi:nodetypes="csssccsssc" />
      <path
         style="fill:url(#linearGradient8004);fill-opacity:1;fill-rule:nonzero;stroke:none;stroke-miterlimit:4;stroke-opacity:1"
         d="M -51.65625,27 C -52.466174,28.518978 -52.96875,30.15821 -52.96875,31.90625 C -52.96875,35.101767 -51.487684,38.020879 -49.03125,40.28125 L -39.6875,34.1875 C -40.294386,33.640366 -40.5625,32.861256 -40.5625,32.09375 C -40.562501,29.894169 -38.620327,28.46875 -35.875,28.46875 C -34.626532,28.46875 -33.371577,28.897704 -32.625,29.59375 L -28.5,27 L -51.65625,27 z "
         transform="matrix(1.1885967,0,0,1.5413795,132.80196,-12.926275)"
         id="path7969" />
      <path
         style="opacity:0.51098902;fill:#eeeeec;fill-rule:nonzero;stroke:none;stroke-miterlimit:4"
         d="M -41.9375,27 C -43.521485,28.278018 -44.5,30.054969 -44.5,32 C -44.5,35.908135 -40.636865,39 -36,39 C -31.252731,39.000001 -27.5,35.817248 -27.5,32 C -27.5,30.031999 -28.466301,28.263016 -30.03125,27 L -41.9375,27 z M -36,28.1875 C -33.460763,28.1875 -31.375,29.909603 -31.375,32 C -31.375001,34.090399 -33.460764,35.8125 -36,35.8125 C -38.539234,35.8125 -40.625,34.090398 -40.625,32 C -40.624999,29.909603 -38.539236,28.1875 -36,28.1875 z "
         transform="matrix(1.1885967,0,0,1.5413795,132.80196,-12.926275)"
         id="path7971" />
      <path
         style="opacity:0.54644811;fill:none;fill-rule:nonzero;stroke:url(#linearGradient7994);stroke-width:1.47046101;stroke-miterlimit:4;stroke-opacity:1"
         d="M 72.332103,27.920281 C 71.105181,30.454774 70.400633,33.28765 70.400633,36.296079 C 70.400631,47.032159 79.145005,55.665111 90.012479,55.665111 C 100.87996,55.665112 109.62432,47.032159 109.62432,36.296079 C 109.62432,33.28765 108.91978,30.454774 107.69285,27.920281"
         id="path7973"
         sodipodi:nodetypes="csssc" />
      <path
         transform="matrix(1,0,0,1.0224049,65.753868,10.925047)"
         d="M 30.405591 24.930641 A 6.0987959 6.0987959 0 1 1  18.207999,24.930641 A 6.0987959 6.0987959 0 1 1  30.405591 24.930641 z"
         sodipodi:ry="6.0987959"
         sodipodi:rx="6.0987959"
         sodipodi:cy="24.930641"
         sodipodi:cx="24.306795"
         id="path7975"
         style="opacity:0.67213111;color:#000000;fill:none;fill-opacity:0.31638417;fill-rule:nonzero;stroke:url(#linearGradient7985);stroke-width:1.35324502;stroke-linecap:butt;stroke-linejoin:miter;marker:none;marker-start:none;marker-mid:none;marker-end:none;stroke-miterlimit:4;stroke-dashoffset:0;stroke-opacity:1;visibility:visible;display:inline;overflow:visible"
         sodipodi:type="arc"
         inkscape:r_cx="true"
         inkscape:r_cy="true" />
    </g>
    <path
       style="opacity:0.2;fill:url(#linearGradient7900);fill-opacity:1;fill-rule:evenodd;stroke:none;stroke-width:1;stroke-linecap:round;stroke-linejoin:miter;stroke-miterlimit:4;stroke-dashoffset:0.69999992;stroke-opacity:1"
       d="M 7,31 C 7.0390625,30.960937 41,31 41,31 L 42,33 L 6,33 L 7,31 z "
       id="rect7864"
       sodipodi:nodetypes="ccccc" />
    <path
       style="fill:none;fill-rule:evenodd;stroke:#888a85;stroke-width:1px;stroke-linecap:round;stroke-linejoin:miter;stroke-opacity:1"
       d="M 7.5,30.5 L 40.5,30.5"
       id="path8010"
       sodipodi:nodetypes="cc" />
  </g>
</svg>
