<?xml version="1.0" encoding="UTF-8" standalone="no"?>
<!-- Generator: Adobe Illustrator 11 Build 196, SVG Export Plug-In . SVG Version: 6.0.0 Build 78)  -->
<svg
   xmlns:i="http://ns.adobe.com/AdobeIllustrator/10.0/"
   xmlns:dc="http://purl.org/dc/elements/1.1/"
   xmlns:cc="http://creativecommons.org/ns#"
   xmlns:rdf="http://www.w3.org/1999/02/22-rdf-syntax-ns#"
   xmlns:svg="http://www.w3.org/2000/svg"
   xmlns="http://www.w3.org/2000/svg"
   xmlns:xlink="http://www.w3.org/1999/xlink"
   xmlns:sodipodi="http://sodipodi.sourceforge.net/DTD/sodipodi-0.dtd"
   xmlns:inkscape="http://www.inkscape.org/namespaces/inkscape"
   i:viewOrigin="109.6177 487.4321"
   i:rulerOrigin="123 -123.6133"
   i:pageBounds="-123 718.8887 718.8896 123.6133"
   viewBox="0 0 360.267 93.793"
   overflow="visible"
   enable-background="new 0 0 360.267 93.793"
   xml:space="preserve"
   id="svg2"
   sodipodi:version="0.32"
   inkscape:version="0.45+devel"
   sodipodi:docname="distributor-logo.svg"
   sodipodi:docbase="/home/lapo/Icone/tangerine-icon-theme/scalable/places"
   version="1.0"
   inkscape:export-filename="/home/lapo/Desktop/start-here.png"
   inkscape:export-xdpi="90"
   inkscape:export-ydpi="90"
   inkscape:output_extension="org.inkscape.output.svg.inkscape"><metadata
     id="metadata41"><rdf:RDF><cc:Work
         rdf:about=""><dc:format>image/svg+xml</dc:format><dc:type
           rdf:resource="http://purl.org/dc/dcmitype/StillImage" /><dc:title>The Great Ubuntu Logo</dc:title><dc:creator><cc:Agent><dc:title>Lapo Calamandrei</dc:title></cc:Agent></dc:creator><cc:license
           rdf:resource="http://creativecommons.org/licenses/by-sa/2.0/" /><dc:contributor><cc:Agent><dc:title>Original logo greator</dc:title></cc:Agent></dc:contributor><dc:subject><rdf:Bag><rdf:li>logo</rdf:li><rdf:li>menu</rdf:li><rdf:li>ubuntu</rdf:li></rdf:Bag></dc:subject><dc:date></dc:date><dc:rights><cc:Agent><dc:title></dc:title></cc:Agent></dc:rights><dc:publisher><cc:Agent><dc:title></dc:title></cc:Agent></dc:publisher><dc:identifier></dc:identifier><dc:source></dc:source><dc:relation></dc:relation><dc:language></dc:language><dc:coverage></dc:coverage><dc:description></dc:description></cc:Work><cc:License
         rdf:about="http://creativecommons.org/licenses/by-sa/2.0/"><cc:permits
           rdf:resource="http://web.resource.org/cc/Reproduction" /><cc:permits
           rdf:resource="http://web.resource.org/cc/Distribution" /><cc:requires
           rdf:resource="http://web.resource.org/cc/Notice" /><cc:requires
           rdf:resource="http://web.resource.org/cc/Attribution" /><cc:permits
           rdf:resource="http://web.resource.org/cc/DerivativeWorks" /><cc:requires
           rdf:resource="http://web.resource.org/cc/ShareAlike" /></cc:License></rdf:RDF></metadata><defs
     id="defs42"><inkscape:perspective
       sodipodi:type="inkscape:persp3d"
       id="perspective42"
       inkscape:vp_x="-50 : 600 : 1"
       inkscape:vp_y="0 : 1000 : 0"
       inkscape:vp_z="700 : 600 : 1"
       inkscape:persp3d-origin="300 : 400 : 1" /><linearGradient
       id="linearGradient1334"><stop
         style="stop-color:#ffffff;stop-opacity:1;"
         offset="0"
         id="stop1336" /><stop
         id="stop1346"
         offset="0.25"
         style="stop-color:#ffffff;stop-opacity:0;" /><stop
         id="stop1342"
         offset="0.3448838"
         style="stop-color:#ffffff;stop-opacity:1;" /><stop
         style="stop-color:#ffffff;stop-opacity:0;"
         offset="0.86309522"
         id="stop1344" /><stop
         style="stop-color:#ffffff;stop-opacity:1;"
         offset="1"
         id="stop1338" /></linearGradient><linearGradient
       inkscape:collect="always"
       id="linearGradient4187"><stop
         style="stop-color:#000000;stop-opacity:1;"
         offset="0"
         id="stop4189" /><stop
         style="stop-color:#000000;stop-opacity:0;"
         offset="1"
         id="stop4191" /></linearGradient><radialGradient
       inkscape:collect="always"
       xlink:href="#linearGradient4187"
       id="radialGradient4071"
       gradientUnits="userSpaceOnUse"
       gradientTransform="matrix(8.716285e-6,-0.665592,0.957576,4.651922e-16,178.4903,133.0866)"
       cx="191.41389"
       cy="7.7861371"
       fx="191.41389"
       fy="7.7861371"
       r="153.39676" /><linearGradient
       inkscape:collect="always"
       xlink:href="#linearGradient1334"
       id="linearGradient1340"
       x1="3.5197463"
       y1="16.549366"
       x2="45.43124"
       y2="31.877295"
       gradientUnits="userSpaceOnUse" /></defs><sodipodi:namedview
     inkscape:window-height="846"
     inkscape:window-width="1440"
     inkscape:pageshadow="2"
     inkscape:pageopacity="0.0"
     borderopacity="1.0"
     bordercolor="#666666"
     pagecolor="#ffffff"
     id="base"
     showgrid="true"
     inkscape:zoom="5.6568542"
     inkscape:cx="58.511383"
     inkscape:cy="19.382225"
     inkscape:window-x="0"
     inkscape:window-y="25"
     inkscape:current-layer="layer1"
     showguides="false"
     inkscape:guide-bbox="true"
     fill="#babdb6"
     stroke="#babdb6"
     showborder="false"
     inkscape:showpageshadow="false"><sodipodi:guide
       orientation="vertical"
       position="26.996089"
       id="guide2248" /><sodipodi:guide
       orientation="horizontal"
       position="24.005269"
       id="guide2250" /><inkscape:grid
       id="GridFromPre046Settings"
       type="xygrid"
       originx="0px"
       originy="0px"
       spacingx="0.5px"
       spacingy="0.5px"
       color="#0000ff"
       empcolor="#0000ff"
       opacity="0.2"
       empopacity="0.4"
       empspacing="2" /></sodipodi:namedview><g
     inkscape:groupmode="layer"
     id="layer5"
     inkscape:label="shadows"
     style="display:inline" /><g
     inkscape:groupmode="layer"
     id="layer3"
     inkscape:label="Main shape"
     style="display:inline"><g
       id="g11118"
       transform="translate(0,-6.567362)"
       style="fill:#333333;stroke:#333333"><path
         transform="matrix(0.883863,0,0,0.883863,4.731769,5.481332)"
         d="M 75.318237 46.856956 A 33.967049 33.967049 0 1 1  7.38414,46.856956 A 33.967049 33.967049 0 1 1  75.318237 46.856956 z"
         sodipodi:ry="33.967049"
         sodipodi:rx="33.967049"
         sodipodi:cy="46.856956"
         sodipodi:cx="41.351189"
         id="path2313"
         style="fill:#333333;fill-opacity:1;stroke:#333333;stroke-width:8.49177169999999926;stroke-miterlimit:4;stroke-dasharray:none;stroke-opacity:1;display:inline"
         sodipodi:type="arc" /><path
         id="path2338"
         transform="matrix(7.505562,0,0,7.505562,0,-133.237)"
         d="M 25.625,5.5 C 23.633818,5.6472149 21.735947,6.1454934 19.96875,6.875 L 23.53125,13 C 24.445343,12.710057 25.405372,12.550789 26.40625,12.5 C 26.602168,12.490058 26.801626,12.5 27,12.5 C 32.488317,12.5 37.075828,16.354393 38.21875,21.5 L 45.34375,21.5 C 44.837665,17.75945 43.210282,14.373205 40.8125,11.6875 C 39.827738,12.216508 38.695425,12.5 37.5,12.5 C 33.746694,12.5 30.672601,9.5546271 30.5,5.84375 C 29.370404,5.6279262 28.191731,5.5 27,5.5 C 26.760657,5.5000004 26.518398,5.4909766 26.28125,5.5 C 26.204053,5.5029375 26.139452,5.4961163 26.0625,5.5 C 25.989997,5.5036593 25.916063,5.4955008 25.84375,5.5 C 25.773697,5.5043586 25.694866,5.4948346 25.625,5.5 z "
         style="fill:#333333;fill-opacity:1;stroke:#333333;stroke-width:1.00000011999999994;stroke-linejoin:round;stroke-miterlimit:4;stroke-dasharray:none;stroke-opacity:1;display:inline" /></g><g
       id="g11122"
       transform="translate(0,-6.567362)"
       style="fill:#333333;stroke:#333333"><path
         id="path2241"
         transform="matrix(7.505562,0,0,7.505562,0,-133.237)"
         d="M 15.65625,9.375 C 12.784473,11.61097 10.603964,14.690693 9.4375,18.21875 C 11.280034,19.480058 12.5,21.600095 12.5,24 C 12.5,26.399904 11.280034,28.519943 9.4375,29.78125 C 10.603576,33.310165 12.783471,36.391241 15.65625,38.625 L 19.21875,32.46875 C 16.935186,30.367004 15.5,27.3451 15.5,24 C 15.5,20.656107 16.937962,17.638227 19.21875,15.53125 L 15.65625,9.375 z "
         style="fill:#333333;fill-opacity:1;stroke:#333333;stroke-width:1.00000011999999994;stroke-linejoin:round;stroke-miterlimit:4;stroke-dasharray:none;stroke-opacity:1;display:inline" /><path
         transform="matrix(0.883863,0,0,0.883863,244.9098,144.3342)"
         d="M 75.318237 46.856956 A 33.967049 33.967049 0 1 1  7.38414,46.856956 A 33.967049 33.967049 0 1 1  75.318237 46.856956 z"
         sodipodi:ry="33.967049"
         sodipodi:rx="33.967049"
         sodipodi:cy="46.856956"
         sodipodi:cx="41.351189"
         id="path2317"
         style="fill:#333333;fill-opacity:1;stroke:#333333;stroke-width:8.49177169999999926;stroke-miterlimit:4;stroke-dasharray:none;stroke-opacity:1;display:inline"
         sodipodi:type="arc" /></g><g
       id="g11114"
       transform="translate(0,-6.567362)"
       style="fill:#333333;stroke:#333333"><path
         transform="matrix(0.883863,0,0,0.883863,244.9098,-133.3715)"
         d="M 75.318237 46.856956 A 33.967049 33.967049 0 1 1  7.38414,46.856956 A 33.967049 33.967049 0 1 1  75.318237 46.856956 z"
         sodipodi:ry="33.967049"
         sodipodi:rx="33.967049"
         sodipodi:cy="46.856956"
         sodipodi:cx="41.351189"
         id="path2315"
         style="fill:#333333;fill-opacity:1;stroke:#333333;stroke-width:8.49177169999999926;stroke-miterlimit:4;stroke-dasharray:none;stroke-opacity:1;display:inline"
         sodipodi:type="arc" /><path
         id="path2334"
         transform="matrix(7.505562,0,0,7.505562,0,-133.237)"
         d="M 38.21875,26.5 C 37.075831,31.645606 32.488317,35.5 27,35.5 C 25.784953,35.500003 24.627998,35.316465 23.53125,34.96875 L 19.96875,41.09375 C 22.138902,41.989661 24.506903,42.5 27,42.5 C 28.19173,42.500002 29.370404,42.372074 30.5,42.15625 C 30.674004,38.601115 33.521841,35.724655 37.0625,35.5 C 37.211074,35.490575 37.349065,35.500001 37.5,35.5 C 38.695426,35.500001 39.827737,35.783492 40.8125,36.3125 C 43.210285,33.626796 44.837665,30.240551 45.34375,26.5 L 38.21875,26.5 z "
         style="fill:#333333;fill-opacity:1;stroke:#333333;stroke-width:1.00000011999999994;stroke-linejoin:round;stroke-miterlimit:4;stroke-dasharray:none;stroke-opacity:1;display:inline" /></g></g><g
     inkscape:groupmode="layer"
     id="layer1"
     inkscape:label="face"
     style="display:inline" /><g
     inkscape:groupmode="layer"
     id="layer4"
     inkscape:label="inner stroke"
     style="display:inline" /></svg>
