<?xml version="1.0" encoding="UTF-8" standalone="no"?>
<svg xmlns:dc="http://purl.org/dc/elements/1.1/" xmlns:cc="http://web.resource.org/cc/" xmlns:rdf="http://www.w3.org/1999/02/22-rdf-syntax-ns#" xmlns:svg="http://www.w3.org/2000/svg" xmlns="http://www.w3.org/2000/svg" xmlns:sodipodi="http://sodipodi.sourceforge.net/DTD/sodipodi-0.dtd" xmlns:inkscape="http://www.inkscape.org/namespaces/inkscape" version="1.0" width="620" height="620" viewBox="0 0 62 62" id="svg0" sodipodi:version="0.32" inkscape:version="0.45.1" sodipodi:docname="Ambox_grammar.svg" inkscape:output_extension="org.inkscape.output.svg.inkscape" sodipodi:docbase="C:\Documents and Settings\KevinDuke\Desktop">
  <metadata id="metadata19">
    <rdf:RDF>
      <cc:Work rdf:about="">
        <dc:format>image/svg+xml</dc:format>
        <dc:type rdf:resource="http://purl.org/dc/dcmitype/StillImage"/>
      </cc:Work>
    </rdf:RDF>
  </metadata>
  <sodipodi:namedview inkscape:window-height="746" inkscape:window-width="1280" inkscape:pageshadow="2" inkscape:pageopacity="0.0" guidetolerance="10.0" gridtolerance="10.0" objecttolerance="10.0" borderopacity="1.0" bordercolor="#666666" pagecolor="#ffffff" id="base" inkscape:zoom="0.056169369" inkscape:cx="-4328.0835" inkscape:cy="-1932.7853" inkscape:window-x="163" inkscape:window-y="358" inkscape:current-layer="svg0"/>
  <defs id="defs4">
    <radialGradient id="shadowGradient">
      <stop id="stop17" style="stop-color: rgb(192, 192, 192); stop-opacity: 1;" offset="0"/>
      <stop id="stop19" style="stop-color: rgb(192, 192, 192); stop-opacity: 1;" offset="0.88"/>
      <stop id="stop21" style="stop-color: rgb(192, 192, 192); stop-opacity: 0;" offset="1"/>
    </radialGradient>
    <linearGradient x1="52.778114" y1="-13.238551" x2="22.0144" y2="51.987099" id="fieldGradient" gradientUnits="userSpaceOnUse">
      <stop id="stop7" style="stop-color: rgb(246, 246, 172); stop-opacity: 1;" offset="0"/>
      <stop id="stop9" style="stop-color: rgb(255, 210, 0); stop-opacity: 1;" offset="1"/>
    </linearGradient>
    <linearGradient x1="54.509937" y1="41.179295" x2="9.5471001" y2="16.248501" id="edgeGradient" gradientUnits="userSpaceOnUse">
      <stop id="stop12" style="stop-color: rgb(220, 154, 38); stop-opacity: 1;" offset="0"/>
      <stop id="stop14" style="stop-color: rgb(243, 177, 62); stop-opacity: 1;" offset="1"/>
    </linearGradient>
  </defs>
  <circle cx="32.5" cy="29.5" r="26.5" transform="matrix(1.0648, 0, 0, 1.06482, -2.1, 1.0864)" id="shadow" style="fill: url(&quot;#shadowGradient&quot;) rgb(0, 0, 0); stroke: none;"/>
  <circle cx="31" cy="31" r="25.8" id="field" style="fill: url(&quot;#fieldGradient&quot;) rgb(0, 0, 0); fill-opacity: 1; stroke: url(&quot;#edgeGradient&quot;) rgb(0, 0, 0); stroke-width: 2;"/>
  <path sodipodi:nodetypes="ccsssccssccccsccssscssscsscccssssscscccssssccscssssssccccccccccccc" id="text1873" d="M 44.226202,14.201078 L 44.638063,15.198237 C 43.597544,15.704074 42.828017,16.206265 42.329478,16.704814 C 41.830883,17.203424 41.480441,17.759809 41.278151,18.373972 C 41.075807,18.988192 40.974648,19.902254 40.974675,21.116159 C 40.974648,21.506378 40.981874,22.026634 40.996353,22.67693 L 41.364859,38.869927 C 41.393734,40.647478 41.5816,41.810828 41.928456,42.359984 C 42.1741,42.75018 42.470349,42.945276 42.817207,42.945272 C 43.236264,42.945276 43.886568,42.526181 44.768123,41.687985 L 45.396752,42.490048 L 41.364859,45.93675 L 40.020894,47.042296 C 38.879222,46.507588 38.066341,45.799461 37.582249,44.917914 C 37.09811,44.03637 36.827149,42.627342 36.769367,40.690826 L 28.380428,47.042296 C 23.712672,43.964112 20.533404,42.425021 18.842616,42.425016 C 18.423526,42.425021 18.069472,42.555084 17.780452,42.815208 C 17.563679,43.003083 17.455295,43.270437 17.455299,43.617271 C 17.455295,43.993015 17.592582,44.404885 17.867159,44.852881 C 18.228436,45.45985 18.409075,45.857268 18.40908,46.045136 C 18.409075,46.319717 18.307917,46.554556 18.105604,46.749652 C 17.903283,46.944748 17.657612,47.042296 17.368591,47.042296 C 17.007307,47.042296 16.718283,46.89778 16.501517,46.608748 C 16.183589,46.218557 16.024625,45.712752 16.024627,45.091332 C 16.024625,44.397659 16.223329,43.620887 16.62074,42.761015 C 17.018146,41.901151 17.607033,40.965412 18.387402,39.953795 C 18.546362,39.737029 18.690874,39.534707 18.82094,39.346829 L 21.920729,35.119742 C 19.825295,33.544532 18.354883,32.034344 17.509491,30.589171 C 16.664091,29.144031 16.241393,27.525455 16.241395,25.733439 C 16.241393,23.652435 16.772475,21.723151 17.834644,19.945581 C 18.896804,18.168066 20.493664,16.766264 22.625226,15.740171 C 24.756772,14.714142 26.949744,14.201111 29.204148,14.201078 C 32.657974,14.201111 35.988979,15.400591 39.197174,17.799521 C 39.977515,16.975811 40.728978,16.300201 41.451566,15.772688 C 42.1741,15.245237 43.098977,14.721367 44.226202,14.201078 L 44.226202,14.201078 z M 33.561195,19.230228 C 31.740322,18.334259 29.926694,17.88626 28.120307,17.886231 C 26.198281,17.88626 24.391879,18.308968 22.701095,19.154357 C 21.010294,19.999802 19.745813,21.090895 18.907647,22.42764 C 18.069472,23.764435 17.650387,25.133721 17.65039,26.535502 C 17.650387,29.498094 19.254471,32.121053 22.46265,34.404388 L 29.702716,24.497829 C 28.61886,23.905338 27.643402,23.609081 26.776342,23.609058 C 25.576878,23.609081 24.594196,24.172692 23.828291,25.299892 C 23.683769,25.531139 23.539257,25.646751 23.394754,25.64673 C 23.308037,25.646751 23.224943,25.603397 23.145471,25.516666 C 23.06598,25.429978 23.026239,25.321591 23.026248,25.191506 C 23.026239,24.743529 23.253846,24.122111 23.709069,23.327251 C 24.164272,22.532438 24.836254,21.889344 25.725015,21.397965 C 26.613753,20.906638 27.549469,20.660961 28.532166,20.660935 C 29.543737,20.660961 30.692609,20.906638 31.978785,21.397965 L 33.561195,19.230228 z M 36.357507,21.462997 C 35.819579,20.769811 35.179417,20.241061 34.428268,19.772162 L 24.955487,32.691876 L 36.61763,32.691876 L 36.357507,21.462997 z M 22.614388,35.856772 L 20.663472,38.566443 L 31.675309,43.313788 L 36.791045,39.541926 L 36.704337,35.856772 L 22.614388,35.856772 z " style="font-size: 67.046px; font-style: normal; font-weight: normal; fill: rgb(255, 255, 255); fill-opacity: 1; stroke: rgb(208, 135, 0); stroke-width: 0.5; stroke-linecap: butt; stroke-linejoin: miter; stroke-miterlimit: 4; stroke-dasharray: none; stroke-opacity: 1; font-family: Bitstream Vera Sans; opacity: 1; marker: none; stroke-dashoffset: 0pt;"/>
</svg>