<?xml version="1.0"?>
<!DOCTYPE svg PUBLIC "-//W3C//DTD SVG 1.1//EN" 
         "http://www.w3.org/Graphics/SVG/1.1/DTD/svg11.dtd">
<svg xmlns="http://www.w3.org/2000/svg"
     xmlns:xlink="http://www.w3.org/1999/xlink"
     height="800">
 <g transform="translate(200,200),scale(10,-10)" style="fill-opacity:1; fill:none; fill-rule:nonzero;">
 <g style="fill: #000000; stroke:none; stroke-width:2.1">
<path

d=
"
M 9.07813,1.28125
Q 8.5625,0.6875 7.9375,0.335938
Q 7.3125,-0.015625 6.67188,-0.015625
Q 5.98438,-0.015625 5.32813,0.390625
Q 4.67188,0.796875 4.25781,1.64063
Q 3.84375,2.48438 3.84375,3.48438
Q 3.84375,4.73438 4.48438,5.97656
Q 5.125,7.21875 6.07031,7.84375
Q 7.01563,8.46875 7.90625,8.46875
Q 8.57813,8.46875 9.19531,8.11719
Q 9.8125,7.76563 10.2656,7.03125
L 10.5313,8.25
L 11.9219,8.25
L 10.7969,3
Q 10.5625,1.90625 10.5625,1.79688
Q 10.5625,1.57813 10.7266,1.42969
Q 10.8906,1.28125 11.1094,1.28125
Q 11.5313,1.28125 12.2031,1.75
Q 13.0938,2.375 13.6094,3.42969
Q 14.125,4.48438 14.125,5.59375
Q 14.125,6.90625 13.4609,8.03906
Q 12.7969,9.17188 11.4688,9.85156
Q 10.1406,10.5313 8.54688,10.5313
Q 6.71875,10.5313 5.20313,9.67188
Q 3.6875,8.8125 2.85938,7.21875
Q 2.03125,5.625 2.03125,3.79688
Q 2.03125,1.875 2.85938,0.492188
Q 3.6875,-0.890625 5.26563,-1.54688
Q 6.84375,-2.20313 8.75,-2.20313
Q 10.7969,-2.20313 12.1797,-1.51563
Q 13.5625,-0.828125 14.25,0.15625
L 15.6719,0.15625
Q 15.2656,-0.671875 14.2969,-1.52344
Q 13.3281,-2.375 11.9922,-2.86719
Q 10.6563,-3.35938 8.78125,-3.35938
Q 7.04688,-3.35938 5.57813,-2.91406
Q 4.10938,-2.46875 3.07813,-1.57813
Q 2.04688,-0.6875 1.53125,0.484375
Q 0.875,1.95313 0.875,3.67188
Q 0.875,5.57813 1.65625,7.29688
Q 2.60938,9.42188 4.35938,10.5469
Q 6.10938,11.6719 8.60938,11.6719
Q 10.5469,11.6719 12.0938,10.875
Q 13.6406,10.0781 14.5313,8.51563
Q 15.2813,7.15625 15.2813,5.57813
Q 15.2813,3.3125 13.6875,1.54688
Q 12.2656,-0.03125 10.5781,-0.03125
Q 10.0469,-0.03125 9.71094,0.132813
Q 9.375,0.296875 9.21875,0.609375
Q 9.125,0.796875 9.07813,1.28125
z
M 5.29688,3.39063
Q 5.29688,2.32813 5.80469,1.73438
Q 6.3125,1.14063 6.96875,1.14063
Q 7.40625,1.14063 7.89063,1.39844
Q 8.375,1.65625 8.8125,2.17188
Q 9.25,2.6875 9.53125,3.48438
Q 9.8125,4.28125 9.8125,5.07813
Q 9.8125,6.14063 9.28906,6.72656
Q 8.76563,7.3125 8,7.3125
Q 7.5,7.3125 7.0625,7.05469
Q 6.625,6.79688 6.21094,6.23438
Q 5.79688,5.67188 5.54688,4.86719
Q 5.29688,4.0625 5.29688,3.39063
z
"
/>
 </g>
</g>
</svg>

