<svg xmlns="http://www.w3.org/2000/svg"
     xmlns:xlink="http://www.w3.org/1999/xlink" xml:space="preserve"
         width="500" height="500"
         viewBox="0 0 500 500" > 
	
	
	<defs> 
    <!-- clip-merge is an attribute that we made up -->
     <clipPath id="sum" clip-merge="sumWindingNumbers" transform="translate(61 0) scale(.75 .75)"> 
			<ellipse cx="200" cy="120" rx="90" ry="90" /> 
			<ellipse cx="300" cy="120" rx="90" ry="90" /> 
      <path d="M150 20 v200 h200 v-200 h-200" />
    </clipPath> 
    
    <!-- even-odd combination -->
    <clipPath id="evenodd" clip-merge="sumWindingNumbersMod2" transform="translate(61 160) scale(.75 .75)"> 
			<ellipse cx="200" cy="120" rx="90" ry="90" /> 
			<ellipse cx="300" cy="120" rx="90" ry="90" /> 
      <path d="M150 20 v200 h200 v-200 h-200" />
      <rect x="80" y="80" width="340" height="80" />
    </clipPath> 
    
    <!-- clip-merge will default here to "sumWindingNumbers". This is the the spec-correct behavior -->
    <clipPath id="union" transform="translate(61 320) scale(.75 .75)"> 
			<ellipse cx="200" cy="120" rx="90" ry="90" /> 
			<ellipse cx="300" cy="120" rx="90" ry="90" /> 
      <path d="M150 20 v200 h200 v-200 h-200" />
    </clipPath> 
	</defs> 
	
	<rect width="100%" height="100%" fill="blanchedalmond" /> 
    
  <rect clip-path="url(#sum)" width="100%" height="100%" fill="midnightblue" /> 
  <rect clip-path="url(#evenodd)" width="100%" height="100%" fill="darkgreen" /> 
  <rect clip-path="url(#union)" width="100%" height="100%" fill="maroon" /> 
 
</svg>