<?xml version="1.0" encoding="UTF-8" standalone="no"?>
<svg
   xmlns:dc="http://purl.org/dc/elements/1.1/"
   xmlns:cc="http://creativecommons.org/ns#"
   xmlns:rdf="http://www.w3.org/1999/02/22-rdf-syntax-ns#"
   xmlns:svg="http://www.w3.org/2000/svg"
   xmlns="http://www.w3.org/2000/svg"
   xmlns:sodipodi="http://sodipodi.sourceforge.net/DTD/sodipodi-0.dtd"
   xmlns:inkscape="http://www.inkscape.org/namespaces/inkscape"
   version="1.1"
   width="612pt"
   height="792pt"
   id="svg2"
   sodipodi:version="0.32"
   inkscape:version="0.46"
   sodipodi:docname="frame.svg"
   inkscape:output_extension="org.inkscape.output.svg.inkscape">
  <metadata
     id="metadata8383">
    <rdf:RDF>
      <cc:Work
         rdf:about="">
        <dc:format>image/svg+xml</dc:format>
        <dc:type
           rdf:resource="http://purl.org/dc/dcmitype/StillImage" />
      </cc:Work>
    </rdf:RDF>
  </metadata>
  <defs
     id="defs8381">
    <inkscape:perspective
       sodipodi:type="inkscape:persp3d"
       inkscape:vp_x="0 : 495 : 1"
       inkscape:vp_y="0 : 1000 : 0"
       inkscape:vp_z="765 : 495 : 1"
       inkscape:persp3d-origin="382.5 : 330 : 1"
       id="perspective8385" />
  </defs>
  <sodipodi:namedview
     inkscape:window-height="667"
     inkscape:window-width="640"
     inkscape:pageshadow="2"
     inkscape:pageopacity="0.0"
     guidetolerance="10.0"
     gridtolerance="10.0"
     objecttolerance="10.0"
     borderopacity="1.0"
     bordercolor="#666666"
     pagecolor="#ffffff"
     id="base"
     showgrid="false"
     inkscape:zoom="0.46666667"
     inkscape:cx="382.5"
     inkscape:cy="522.1334"
     inkscape:window-x="273"
     inkscape:window-y="323"
     inkscape:current-layer="svg2" />
  <g
     style="fill:#070202;stroke:none"
     id="g532"
     transform="matrix(0.24,0,0,0.24,79.285714,36.428571)">
    <path
       id="path534"
       d="M 1758.332,2391.668 L 1675,2391.668 L 1687.5,2391.668" />
  </g>
  <g
     style="fill:#000100;stroke:none"
     id="g1996"
     transform="matrix(0.24,0,0,0.24,79.285714,36.428571)">
    <path
       id="path1998"
       d="M 979.16797,2137.5 L 995.83203,2137.5 L 1016.668,2137.5" />
  </g>
  <g
     style="fill:#000000;stroke:none"
     id="g2000"
     transform="matrix(0.24,0,0,0.24,79.285714,36.428571)">
    <path
       id="path2002"
       d="M 1004.168,2137.5 L 979.16797,2137.5 L 1016.668,2137.5" />
  </g>
  <g
     style="fill:#000000;stroke:none"
     id="g2272"
     transform="matrix(0.24,0,0,0.24,79.285714,36.428571)">
    <path
       id="path2274"
       d="M 770.83203,2045.832 L 770.83203,2083.332 L 770.83203,2045.832" />
  </g>
  <g
     style="fill:#010501;stroke:none"
     id="g2900"
     transform="matrix(0.24,0,0,0.24,79.285714,36.428571)">
    <path
       id="path2902"
       d="M 2045.832,1808.332 L 2004.168,1808.332 L 2029.168,1808.332" />
  </g>
  <g
     style="fill:#00b335;stroke:none"
     id="g3370"
     transform="matrix(0.24,0,0,0.24,79.285714,36.428571)">
    <path
       id="path3372"
       d="M 2066.668,1829.168 L 2066.668,1825 L 2066.668,1837.5" />
    <path
       id="path3374"
       d="M 2066.668,1829.168 L 2066.668,1820.832 L 2066.668,1825" />
    <path
       id="path3376"
       d="M 2066.668,1829.168 L 2066.668,1825 L 2066.668,1820.832" />
    <path
       id="path3378"
       d="M 2066.668,1829.168 L 2066.668,1837.5 L 2066.668,1825" />
    <path
       id="path3380"
       d="M 2066.668,1829.168 L 2066.668,1841.668 L 2066.668,1837.5" />
    <path
       id="path3382"
       d="M 2066.668,1829.168 L 2066.668,1837.5 L 2066.668,1841.668" />
  </g>
  <g
     style="fill:#00b235;stroke:none"
     id="g5706"
     transform="matrix(0.24,0,0,0.24,79.285714,36.428571)">
    <path
       id="path5708"
       d="M 612.5,1862.5 L 612.5,1858.332 L 612.5,1854.168" />
    <path
       id="path5710"
       d="M 612.5,1862.5 L 612.5,1866.668 L 612.5,1858.332" />
    <rect
       id="rect5712"
       height="4.1679692"
       width="0"
       y="1862.5"
       x="612.5" />
    <path
       id="path5714"
       d="M 612.5,1862.5 L 612.5,1862.5 L 612.5,1866.668" />
    <path
       id="path5716"
       d="M 612.5,1862.5 L 612.5,1858.332 L 612.5,1862.5" />
    <path
       id="path5718"
       d="M 612.5,1862.5 L 612.5,1854.168 L 612.5,1858.332" />
  </g>
  <g
     style="fill:#0b4510;stroke:none"
     id="g6034"
     transform="matrix(0.24,0,0,0.24,79.285714,36.428571)">
    <path
       id="path6036"
       d="M 470.83203,1695.832 L 470.83203,1679.168 L 470.83203,1716.668" />
  </g>
  <g
     style="fill:#152e0d;stroke:none"
     id="g7012"
     transform="matrix(0.24,0,0,0.24,79.285714,36.428571)">
    <path
       id="path7014"
       d="M 1245.832,1491.668 L 1262.5,1491.668 L 1295.832,1491.668" />
  </g>
  <g
     style="fill:#00b235;stroke:none"
     id="g7858"
     transform="matrix(0.24,0,0,0.24,79.285714,36.428571)">
    <path
       id="path7860"
       d="M 633.33203,1462.5 L 620.83203,1462.5 L 625,1462.5" />
    <path
       id="path7862"
       d="M 633.33203,1462.5 L 629.16797,1462.5 L 620.83203,1462.5" />
    <path
       id="path7864"
       d="M 633.33203,1462.5 L 637.5,1462.5 L 629.16797,1462.5" />
    <path
       id="path7866"
       d="M 633.33203,1462.5 L 641.66797,1462.5 L 637.5,1462.5" />
    <path
       id="path7868"
       d="M 633.33203,1462.5 L 633.33203,1462.5 L 641.66797,1462.5" />
    <path
       id="path7870"
       d="M 633.33203,1462.5 L 625,1462.5 L 633.33203,1462.5" />
  </g>
  <g
     style="fill:#000000;stroke:#333333;stroke-width:166.66665649"
     id="g8374"
     transform="matrix(0.24,0,0,0.24,72.857143,47.142857)">
    <rect
       style="fill:none"
       id="rect8376"
       height="2383.3359"
       width="2383.3359"
       y="833.33203"
       x="83.332031" />
    <path
       style="stroke:none"
       id="path8378"
       d="" />
<!-- svg_output_page --><!-- svg_close_device -->  </g>
</svg>
