<!-- Created with Inkscape (http://www.inkscape.org/) -->
<svg
   xmlns:svg="http://www.w3.org/2000/svg"
   xmlns="http://www.w3.org/2000/svg"
   xmlns:xlink="http://www.w3.org/1999/xlink"
   version="1.0"
   width="390"
   height="750"
   viewBox="0 0 390 500"
   preserveAspectRatio="xMidYMid"
   >
  <defs>
    <filter
       height="1.2"
       width="1.2"
       y="-0.1"
       x="-0.1"
       filterUnits="objectBoundingBox"
       id="glow">
      <feFlood
         id="feFlood7"
         result="colorFlood"
         flood-opacity="0.4"
         flood-color="#6876ff" />
      <feComposite
         id="feComposite9"
         result="colorImage"
         operator="in"
         in2="SourceAlpha"
         in="colorFlood" />
      <feGaussianBlur
         id="feGaussianBlur11"
         result="blur"
         stdDeviation="13"
         in="colorImage" />
      <feMerge
         id="feMerge13">
        <feMergeNode
           id="feMergeNode15"
           in="blur" />
        <feMergeNode
           id="feMergeNode17"
           in="blur" />
        <feMergeNode
           id="feMergeNode19"
           in="SourceGraphic" />
      </feMerge>
    </filter>
    <linearGradient
       id="linearGradient3238">
      <stop
         id="stop3240"
         style="stop-color:#000000;stop-opacity:1"
         offset="0" />
      <stop
         id="stop3242"
         style="stop-color:#ffffff;stop-opacity:1"
         offset="1" />
    </linearGradient>
    <linearGradient
       id="linearGradient3171">
      <stop
         id="stop3173"
         style="stop-color:#e4e4e4;stop-opacity:1"
         offset="0" />
      <stop
         id="stop3179"
         style="stop-color:#ffffff;stop-opacity:1"
         offset="0.5" />
      <stop
         id="stop3175"
         style="stop-color:#e4e4e4;stop-opacity:1"
         offset="1" />
    </linearGradient>
    <linearGradient
       x1="293.74612"
       y1="435.21674"
       x2="499.00626"
       y2="615.70764"
       id="linearGradient3222"
       xlink:href="#linearGradient3171"
       gradientUnits="userSpaceOnUse"
       gradientTransform="translate(15.999999,-104)" />
    <linearGradient
       x1="176.86301"
       y1="551.47388"
       x2="513.61664"
       y2="599.47388"
       id="linearGradient3224"
       xlink:href="#linearGradient3171"
       gradientUnits="userSpaceOnUse"
       gradientTransform="translate(16,-104)" />
    <linearGradient
       x1="176.86301"
       y1="551.47388"
       x2="513.61664"
       y2="599.47388"
       id="linearGradient3232"
       xlink:href="#linearGradient3171"
       gradientUnits="userSpaceOnUse"
       gradientTransform="translate(15.999999,-104)" />
    <linearGradient
       x1="176.86301"
       y1="551.47388"
       x2="513.61664"
       y2="599.47388"
       id="linearGradient3234"
       xlink:href="#linearGradient3171"
       gradientUnits="userSpaceOnUse"
       gradientTransform="translate(16,-104)" />
    <linearGradient
       x1="281.4285"
       y1="713.31653"
       x2="281.4285"
       y2="500.81891"
       id="linearGradient3278"
       xlink:href="#linearGradient3238"
       gradientUnits="userSpaceOnUse"
       gradientTransform="translate(190.46759,-1185.3425)" />
    <mask
       id="mask3274">
      <rect
         width="613.15851"
         height="459.61942"
         x="76.92848"
         y="-724.52362"
         transform="scale(1,-1)"
         id="rect3276"
         style="opacity:1;fill:url(#linearGradient3278);fill-opacity:1;stroke:none;stroke-width:5;stroke-linejoin:round;stroke-miterlimit:4;stroke-dasharray:none;stroke-dashoffset:0;stroke-opacity:1" />
    </mask>
  </defs>
  <rect width="100%" height="100%" fill="black" />
  <g
     transform="translate(40,-2.052389)"
     id="layer1">
    <g
       transform="translate(-190.46759,-195.16147)"
       
       id="g3218"
       style="stroke:none">
      <path
         d="M 373.8819,242.39182 C 404.99416,235.03749 441.1541,242.54321 461.34524,268.89146 C 491.77035,308.20812 496.51043,360.40966 497.11667,408.46561 C 495.23258,488.10081 470.73225,564.81416 446.77119,640.09816 C 438.40613,663.52798 350.42331,713.05416 365.46087,643.64719 C 326.0512,688.79151 281.12101,691.72377 286.38277,630.09745 C 250.32689,693.97431 187.39866,683.26731 193.363,655.22818 C 210.17471,611.47865 221.25518,565.53097 224.05052,518.67177 C 227.24236,469.04363 231.6852,418.78011 248.99195,371.73461 C 266.80549,320.85973 298.88448,269.69837 351.07148,249.1211 C 358.45562,246.20766 366.1015,243.96307 373.8819,242.39182 z"
         id="path2388"
         filter="url(#glow)"
         style="opacity:0.5;fill:url(#linearGradient3222);fill-opacity:1;fill-rule:evenodd;stroke:none;" />
      <path
         d="M 397.84375,239.71875 C 389.76311,239.6376 381.65307,240.56767 373.875,242.40625 C 366.0946,243.9775 358.44665,246.21157 351.0625,249.125 C 298.8755,269.70227 266.81355,320.87511 249,371.75 C 231.69325,418.7955 227.25434,469.02813 224.0625,518.65625 C 221.26716,565.51545 210.1867,611.46919 193.375,655.21875 C 189.17842,665.58021 230.98143,693.04032 252.08032,611.00187 C 242.75887,658.90657 267.18624,717.39278 322.77812,608.56651 C 315.43749,705.86187 365.76949,672.18141 397.67579,613.06547 C 372.02261,680.29046 419.32431,708.77841 446.78125,640.09375 C 470.74231,564.80975 495.24091,488.10395 497.125,408.46875 C 496.51876,360.4128 491.76885,308.22292 461.34375,268.90625 C 446.2004,249.14506 422.08568,239.9622 397.84375,239.71875 z M 416.84375,321.65625 C 427.24546,322.35235 439.09995,347.69893 432.4375,358.1875 C 425.58971,368.96784 411.9048,366.97279 401.0625,359.5 C 390.28004,352.06848 405.22621,322.65194 415.84375,321.6875 C 416.17555,321.65736 416.50821,321.6338 416.84375,321.65625 z M 460.0625,321.75 C 470.34155,321.07451 483.73593,351.93706 472.625,359.5 C 461.43529,367.11656 452.52182,366.42544 443.09375,358.6875 C 433.59919,350.89501 449.60743,322.43706 460.0625,321.75 z M 430.78125,410.21875 C 447.38654,410.25512 469.55445,411.28196 478.28125,421.75 C 486.14906,431.18763 486.95329,454.75988 475.6875,460.875 C 462.6565,467.9483 444.46243,443.02318 429.21875,442.46875 C 412.82053,441.87232 389.87601,465.34967 377.59375,458.5625 C 365.3115,451.77535 364.39516,432.21369 372.4375,421.75 C 380.47984,411.2863 408.09552,410.32996 424.0625,410.25 C 426.15243,410.23953 428.40907,410.21355 430.78125,410.21875 z"
         id="path3181"
         filter="url(#glow)"
         style="opacity:0.5;fill:url(#linearGradient3224);fill-opacity:1;fill-rule:evenodd;" />
    </g>
    <g
       transform="matrix(1,0,0,-1,-190.46759,1185.3425)"
       mask="url(#mask3274)"
       id="g3226"
       style="opacity:0.5">
      <path
         d="M 373.8819,242.39182 C 404.99416,235.03749 441.1541,242.54321 461.34524,268.89146 C 491.77035,308.20812 496.51043,360.40966 497.11667,408.46561 C 495.23258,488.10081 470.73225,564.81416 446.77119,640.09816 C 438.40613,663.52798 350.42331,713.05416 365.46087,643.64719 C 326.0512,688.79151 281.12101,691.72377 286.38277,630.09745 C 250.32689,693.97431 187.39866,683.26731 193.363,655.22818 C 210.17471,611.47865 221.25518,565.53097 224.05052,518.67177 C 227.24236,469.04363 231.6852,418.78011 248.99195,371.73461 C 266.80549,320.85973 298.88448,269.69837 351.07148,249.1211 C 358.45562,246.20766 366.1015,243.96307 373.8819,242.39182 z"
         id="path3228"
         style="opacity:0.5;fill:url(#linearGradient3232);fill-opacity:1;fill-rule:evenodd;stroke:none;filter:url(#glow)" />
      <path
         d="M 397.84375,239.71875 C 389.76311,239.6376 381.65307,240.56767 373.875,242.40625 C 366.0946,243.9775 358.44665,246.21157 351.0625,249.125 C 298.8755,269.70227 266.81355,320.87511 249,371.75 C 231.69325,418.7955 227.25434,469.02813 224.0625,518.65625 C 221.26716,565.51545 210.1867,611.46919 193.375,655.21875 C 189.17842,665.58021 230.98143,693.04032 252.08032,611.00187 C 242.75887,658.90657 267.18624,717.39278 322.77812,608.56651 C 315.43749,705.86187 365.76949,672.18141 397.67579,613.06547 C 372.02261,680.29046 419.32431,708.77841 446.78125,640.09375 C 470.74231,564.80975 495.24091,488.10395 497.125,408.46875 C 496.51876,360.4128 491.76885,308.22292 461.34375,268.90625 C 446.2004,249.14506 422.08568,239.9622 397.84375,239.71875 z M 416.84375,321.65625 C 427.24546,322.35235 439.09995,347.69893 432.4375,358.1875 C 425.58971,368.96784 411.9048,366.97279 401.0625,359.5 C 390.28004,352.06848 405.22621,322.65194 415.84375,321.6875 C 416.17555,321.65736 416.50821,321.6338 416.84375,321.65625 z M 460.0625,321.75 C 470.34155,321.07451 483.73593,351.93706 472.625,359.5 C 461.43529,367.11656 452.52182,366.42544 443.09375,358.6875 C 433.59919,350.89501 449.60743,322.43706 460.0625,321.75 z M 430.78125,410.21875 C 447.38654,410.25512 469.55445,411.28196 478.28125,421.75 C 486.14906,431.18763 486.95329,454.75988 475.6875,460.875 C 462.6565,467.9483 444.46243,443.02318 429.21875,442.46875 C 412.82053,441.87232 389.87601,465.34967 377.59375,458.5625 C 365.3115,451.77535 364.39516,432.21369 372.4375,421.75 C 380.47984,411.2863 408.09552,410.32996 424.0625,410.25 C 426.15243,410.23953 428.40907,410.21355 430.78125,410.21875 z"
         id="path3230"
         style="opacity:0.5;fill:url(#linearGradient3234);fill-opacity:1;fill-rule:evenodd;filter:url(#glow)" />
    </g>
  </g>
</svg>
