<svg style="transform: fit(0 0 612 792)"     >
<!-- Creator: Aladdin Ghostscript 510 (svg) -->
<!-- CreationDate: 1999/08/18 18:07:53 -->
<!-- Page: 1 1 -->

<path id="p0" style="fill:none; stroke-miterlimit:10;" d="M0 0 L612 0 L612 792 L0 792 "/>
<rect style="fill:#ffff00; stroke:none" x="0" y="692" width="100" height="100"/>
<rect style="fill:none; stroke:#0000ff" x="0" y="692" width="100" height="100"/>
<text x="0" y="792" style="font-family:Times-Roman; font-size:12; ">Square</text>

<g style="transform: matrix(1 0 0 1 110 0)">
<path id="p1" style="fill:none; stroke-width:5; stroke-miterlimit:10;" d="M-110 0 L502 0 L502 792 L-110 792 "/>
<path id="p2" style="fill:none; stroke:#ff0000; stroke-width:5; stroke-miterlimit:10;" d="M0 792 L100 792 L50 705.397 z"/>
<text x="0" y="792" style="font-family:Times-Roman; font-size:12; ">Triangle</text>

<g style="transform: matrix(1 0 0 1 -110 -110)">
<path id="p3" style="fill:none; stroke-width:5; stroke-miterlimit:10;" d="M110 110 L722 110 L722 902 L110 902 "/>
<path id="p4" style="fill:#00ff00; stroke-width:5; stroke-miterlimit:10;" d="M100 742 C100 714.386 77.614 692 50 692 C22.386 692 0 714.386 0 742 L0 742 C0 769.614 22.386 792 50 792 C77.614 792 100 769.614 100 742 "/>
<path id="p5" style="fill:none; stroke:#000000; stroke-width:3; stroke-miterlimit:10;" d="M100 742 C100 714.386 77.614 692 50 692 C22.386 692 0 714.386 0 742 L0 742 C0 769.614 22.386 792 50 792 C77.614 792 100 769.614 100 742 "/>
<text x="0" y="792" style="font-family:Times-Roman; font-size:12; ">Arcs</text>

<g style="transform: matrix(1 0 0 1 110 0)">
<path id="p6" style="fill:none; stroke-width:3; stroke-miterlimit:10;" d="M-110 0 L502 0 L502 792 L-110 792 "/>
<path id="p7" style="fill:none; stroke:#000000; stroke-width:3; stroke-miterlimit:10;" d="M0 792 L50 792 L30 762 L30 722 L30 722 C30 710.954 38.9543 702 50 702 C61.0457 702 70 710.954 70 722 "/>
<text x="0" y="792" style="font-family:Times-Roman; font-size:12; ">Polyline</text>
</g>
</g>
</g>
</svg>
