<?xml version="1.0" encoding="ISO-8859-1" standalone="no"?>
<!DOCTYPE svg PUBLIC "-//W3C//DTD SVG 1.0//EN" "http://www.w3.org/TR/SVG/DTD/svg10.dtd">
<svg viewBox="-3584 -600 7614 9682" xmlns="http://www.w3.org/2000/svg" xmlns:xlink="http://www.w3.org/1999/xlink" xml:space="preserve">
 <g id="Layer_1">
  <g>
   <path fill-rule="nonzero" fill="#FF0000" stroke="#000000" stroke-width="22" d="M-1695 2c603,0 1095,396 1095,881 0,485 -492,881 -1095,881 -602,0 -1094,-396 -1094,-881 0,-485 492,-881 1094,-881zm543 620c186,0 339,143 339,319 0,176 -153,320 -339,320 -187,0 -339,-144 -339,-320 0,-176 152,-319 339,-319z"/>
   <text text-rendering="optimizeLegibility" x="-2246" y="2113" font-size="333px">nonzero</text>             
  </g>
  <g>
   <path fill-rule="nonzero" fill="#66FFCC" stroke="#000000" stroke-width="22" d="M-2092 4049l562 -1665 891 1491 -1898 -1026 2130 -58 -1685 1258z"/>
   <text text-rendering="optimizeLegibility" x="-1512" y="4167" font-size="333px">nonzero</text>
  </g>
  <g>
   <path fill-rule="evenodd" fill="#FF0000" stroke="#000000" stroke-width="22" d="M1189 4c603,0 1094,395 1094,881 0,485 -491,881 -1094,881 -602,0 -1094,-396 -1094,-881 0,-486 492,-881 1094,-881zm543 619c186,0 338,144 338,320 0,176 -152,319 -338,319 -187,0 -339,-143 -339,-319 0,-176 152,-320 339,-320z"/>
   <text text-rendering="optimizeLegibility" x="717" y="2093" font-size="333px">evenodd</text>
  </g>
  <g>
   <path fill-rule="evenodd" fill="#33CC66" stroke="#000000" stroke-width="22" d="M579 4012l562 -1665 891 1491 -1898 -1026 2130 -58 -1685 1258z"/>
   <text text-rendering="optimizeLegibility" x="1180" y="4109" font-size="333px">evenodd</text>
  </g>
  <g>
   <path fill-rule="evenodd" onmousemove="window.status='this is the Pink county'" fill="#FF99CC" stroke="#000000" stroke-width="22" d="M-2822 5267l282 -183 282 -146 184 -133 478 63 -221 197 1068 -96 343 -82 159 -44 344 38 147 152 12 133 -331 279 1092 228 37 -279 147 374 -466 260 -577 -63 0 -45 -454 152 -135 140 -453 70 -528 -13 -515 25 -527 19 -528 -152 13 -234 61 -222 73 -184 -184 -127 -171 -146 -25 -241 111 -190 171 51 111 399zm993 406c12,-63 -24,-228 25,-266 49,-45 282,-19 355,-45 49,-12 62,-152 74,-177 123,-235 380,0 380,120 0,140 -171,134 -208,235 -25,76 12,89 98,152 147,114 37,260 -233,285 -86,7 -196,32 -233,70 -25,25 -49,108 -111,89 -147,-51 -306,-171 -110,-228 221,-70 -294,-191 -429,-241 -209,-76 159,-70 245,-64 98,7 61,83 147,70zm896 -101c-25,-57 36,-121 36,-178 0,-63 62,-51 135,-76 37,-13 86,-38 98,-63 49,-64 74,-83 184,-26 135,70 74,184 74,273 0,76 37,146 61,222 25,82 -61,69 -196,69 -110,0 -258,-69 -282,-120 -12,-19 -61,-89 -110,-101z"/>
   <path onmousemove="window.status='this is the Blue lake composed of two parts'" fill="#00CCFF" stroke="#000000" stroke-width="22" d="M-1829 5673c12,-63 -24,-228 25,-266 49,-45 282,-19 355,-45 49,-12 62,-152 74,-177 123,-235 380,0 380,120 0,140 -171,134 -208,235 -25,76 12,89 98,152 147,114 37,260 -233,285 -86,7 -196,32 -233,70 -25,25 -49,108 -111,89 -147,-51 -306,-171 -110,-228 221,-70 -294,-191 -429,-241 -209,-76 159,-70 245,-64 98,7 61,83 147,70zm896 -101c-25,-57 36,-121 36,-178 0,-63 62,-51 135,-76 37,-13 86,-38 98,-63 49,-64 74,-83 184,-26 135,70 74,184 74,273 0,76 37,146 61,222 25,82 -61,70 -196,70 -110,0 -258,-70 -282,-121 -12,-19 -61,-89 -110,-101z"/>
  </g>
  <g>
   <path fill-rule="evenodd" onmousemove="window.status='this is the DEMO Pink county'" fill="#FF99CC" stroke="#000000" stroke-width="22" d="M-2972 7259l314 -205 315 -162 205 -149 534 71 -246 219 1190 -106 383 -92 178 -50 383 43 165 170 13 148 -369 311 1218 255 41 -311 164 417 -520 290 -643 -71 0 -49 -506 169 -151 156 -506 78 -589 -14 -574 28 -589 21 -588 -170 13 -261 69 -248 82 -205 -205 -141 -192 -163 -27 -269 123 -212 192 57 123 445zm1108 453c14,-71 -27,-255 27,-297 55,-50 315,-21 397,-50 55,-14 69,-169 82,-198 137,-261 425,0 425,135 0,155 -192,148 -233,261 -27,85 14,99 109,170 165,127 41,290 -260,318 -95,7 -219,36 -260,78 -27,28 -54,120 -123,99 -164,-56 -342,-191 -123,-254 246,-78 -328,-213 -479,-269 -232,-85 178,-78 274,-71 109,7 68,92 164,78zm999 -113c-27,-64 41,-135 41,-198 0,-71 68,-57 151,-85 41,-14 95,-43 109,-71 55,-71 82,-92 205,-28 151,78 82,205 82,304 0,85 41,163 69,247 27,92 -69,78 -219,78 -123,0 -288,-78 -315,-134 -14,-21 -68,-99 -123,-113z"/>
   <path onmousemove="window.status='this is the DEMO Blue lake composed of two parts'" fill-opacity=".5" fill="#00CCFF" stroke="#000000" stroke-width="22" d="M-1723 7571c14,-71 -27,-255 28,-297 54,-50 314,-22 397,-50 54,-14 68,-170 82,-198 137,-262 424,0 424,134 0,156 -192,149 -233,262 -27,85 14,99 110,170 164,127 41,290 -260,318 -96,7 -219,35 -260,78 -28,28 -55,120 -123,99 -165,-57 -343,-191 -124,-255 247,-78 -328,-212 -479,-269 -232,-84 178,-77 274,-70 110,7 69,92 164,78zm999 -114c-27,-63 41,-134 41,-198 0,-70 69,-56 151,-84 41,-15 96,-43 109,-71 55,-71 82,-92 206,-28 150,77 82,205 82,304 0,84 41,162 68,247 27,92 -68,78 -219,78 -123,0 -287,-78 -315,-134 -13,-22 -68,-99 -123,-114z"/>
  </g>
  <text text-rendering="optimizeLegibility" x="1975" y="6063" font-size="333px">mouseover</text>
  <text text-rendering="optimizeLegibility" x="1975" y="6463" font-size="333px">and watch</text>
  <text text-rendering="optimizeLegibility" x="1975" y="6863" font-size="333px">the window</text>
  <text text-rendering="optimizeLegibility" x="1975" y="7262" font-size="333px">status line!</text>
 </g>
</svg>