<?xml version="1.0" standalone="no"?>
<!DOCTYPE svg PUBLIC "-//W3C//DTD SVG 1.1//EN"
"http://www.w3.org/Graphics/SVG/1.1/DTD/svg11.dtd">

<svg width="100%" height="100%" version="1.1"
xmlns="http://www.w3.org/2000/svg">

<path fill="#FFFFFF"
d="M0,218 L6,31 L12,218 L18,31 L24,218 L31,31 L37,218 L43,31 L49,218 L56,31 L62,218 L68,31 L75,218 L81,31 L87,218 L93,31 L100,218 L106,31 L112,218 L118,31 L125,218 L131,31 L137,218 L143,31 L150,218 L156,31 L162,218 L168,31 L175,218 L181,31 L187,218 L193,31 L200,218 L206,31 L212,218 L218,31 L225,218 L231,31 L237,218 L243,31 L250,218 L237,31 L231,218 L225,31 L218,218 L212,31 L206,218 L200,31 L193,218 L187,31 L181,218 L175,31 L168,218 L162,31 L156,218 L150,31 L143,218 L137,31 L131,218 L125,31 L118,218 L112,31 L106,218 L100,31 L93,218 L87,31 L81,218 L75,31 L68,218 L62,31 L56,218 L49,31 L43,218 L37,31 L31,218 L24,31 L18,218 L12,31 z" />

</svg> 
