<?xml version="1.0" encoding="UTF-8" standalone="no"?>
<!-- Created with Inkscape (http://www.inkscape.org/) -->
<svg xmlns:dc="http://purl.org/dc/elements/1.1/" xmlns:cc="http://creativecommons.org/ns#" xmlns:rdf="http://www.w3.org/1999/02/22-rdf-syntax-ns#" xmlns:svg="http://www.w3.org/2000/svg" xmlns="http://www.w3.org/2000/svg" xmlns:sodipodi="http://sodipodi.sourceforge.net/DTD/sodipodi-0.dtd" xmlns:inkscape="http://www.inkscape.org/namespaces/inkscape" width="450" height="450" id="svg2" sodipodi:version="0.32" inkscape:version="0.46" sodipodi:docname="anchorage_single.svg" inkscape:output_extension="org.inkscape.output.svg.inkscape" version="1.0">
  <defs id="defs4">
    <inkscape:perspective sodipodi:type="inkscape:persp3d" inkscape:vp_x="0 : 526.18109 : 1" inkscape:vp_y="0 : 1000 : 0" inkscape:vp_z="744.09448 : 526.18109 : 1" inkscape:persp3d-origin="372.04724 : 350.78739 : 1" id="perspective10"/>
  </defs>
  <sodipodi:namedview id="base" pagecolor="#ffffff" bordercolor="#666666" borderopacity="1.0" gridtolerance="10000" guidetolerance="10" objecttolerance="10" inkscape:pageopacity="0.0" inkscape:pageshadow="2" inkscape:zoom="1.3843579" inkscape:cx="225" inkscape:cy="225" inkscape:document-units="px" inkscape:current-layer="layer2" showgrid="false" inkscape:window-width="1202" inkscape:window-height="1078" inkscape:window-x="289" inkscape:window-y="11" units="in" borderlayer="true"/>
  <metadata id="metadata7">
    <rdf:RDF>
      <cc:Work rdf:about="">
        <dc:format>image/svg+xml</dc:format>
        <dc:type rdf:resource="http://purl.org/dc/dcmitype/StillImage"/>
      </cc:Work>
    </rdf:RDF>
  </metadata>
  <g inkscape:label="Layer 1" inkscape:groupmode="layer" id="layer1">
    <rect y="-0.59571213" x="-0.59846157" height="452.58527" width="452.58527" id="rect4876" style="opacity: 1; fill: rgb(55, 79, 96); fill-opacity: 1; stroke: none; stroke-width: 2.2; stroke-linecap: butt; stroke-linejoin: round; stroke-miterlimit: 4; stroke-dasharray: 4.4, 2.2; stroke-dashoffset: 0pt; stroke-opacity: 1;"/>
    <rect style="opacity: 1; fill: rgb(49, 70, 95); fill-opacity: 1; stroke: none; stroke-width: 2.2; stroke-linecap: butt; stroke-linejoin: round; stroke-miterlimit: 4; stroke-dasharray: 4.4, 2.2; stroke-dashoffset: 0pt; stroke-opacity: 1;" id="rect4878" width="465.73438" height="121.6189" x="-9.6757088" y="0.23593497"/>
    <path style="fill: rgb(109, 144, 173); fill-opacity: 1; fill-rule: evenodd; stroke: none; stroke-width: 1px; stroke-linecap: butt; stroke-linejoin: miter; stroke-opacity: 1;" d="M -3.0761617,74.63217 C -1.1842897,72.380287 7.4019744,71.013714 12.00833,69.073889 C 17.777233,66.644534 24.315119,65.876414 29.921212,63.515634 C 37.401175,60.365682 43.760899,57.690599 51.605194,56.369272 C 58.684422,55.1768 64.929778,54.781191 72.346409,54.781191 C 78.631625,54.781191 84.916837,54.781191 91.202033,54.781191 C 99.327508,54.781191 108.01938,52.43124 115.71438,50.81099 C 122.3249,49.419101 128.18732,46.327844 134.57002,45.252707 C 142.4666,43.922567 149.48595,41.57086 157.19681,40.488465 C 167.1069,39.097382 176.97739,38.900384 187.36582,38.900384 C 194.46512,38.900384 201.52427,40.967712 208.10703,42.076546 C 213.9679,43.063782 221.08131,46.897381 226.01989,50.016949 C 233.38156,54.667111 246.17535,58.429543 255.24613,60.339474 C 270.82507,63.619721 287.78978,65.897755 304.27083,65.897755 C 328.64849,65.897755 353.90189,65.047035 377.80783,69.073889 C 394.99121,71.968377 412.66937,73.835136 429.66082,76.220251 C 437.76539,77.357915 455.3212,78.480314 465.00602,81.800912 L 455.11596,222.62897 L -5.9045241,222.62897 L -3.0761617,74.63217 z" id="path4880" sodipodi:nodetypes="cssssssssssssssscccc"/>
    <path sodipodi:nodetypes="cssssssssssssssscccc" style="fill: rgb(197, 204, 210); fill-opacity: 1; fill-rule: evenodd; stroke: none; stroke-width: 1px; stroke-linecap: butt; stroke-linejoin: miter; stroke-opacity: 1;" d="M 456.05873,167.38337 C 453.80224,167.38337 450.68043,166.9261 448.51648,167.38337 C 443.88535,168.36211 438.87696,169.77428 432.48918,169.77428 C 424.63268,169.77428 416.77614,169.77428 408.91964,169.77428 C 398.59273,169.77428 387.80997,170.38647 377.80783,168.97729 C 365.50832,167.24446 350.68368,163.39868 338.21097,163.39868 C 322.84034,163.39868 307.81866,162.55453 292.95743,159.41391 C 283.59899,157.43618 275.13803,153.85107 265.61676,152.24136 C 257.4239,150.85624 250.21577,149.05353 241.1044,149.05353 C 229.85345,149.05353 219.62908,146.66266 208.10703,146.66266 C 199.30773,146.66266 190.50843,146.66266 181.70912,146.66266 C 169.45296,146.66266 157.19681,146.66266 144.94062,146.66266 C 134.8606,146.66266 128.12869,146.33107 119.48551,142.67792 C 110.70311,138.96597 99.654051,139.49012 89.316467,139.49012 C 82.323354,139.49012 73.35493,138.40899 66.689714,140.28706 C 54.585192,143.69778 42.507802,146.48329 29.921212,148.25659 C 16.626723,150.12962 6.7270826,150.32818 -7.7987577,154.92376 L -4.9617263,223.96688 L 456.05873,225.5608 L 456.05873,167.38337 z" id="path4882"/>
    <path style="fill: rgb(25, 31, 40); fill-opacity: 1; fill-rule: evenodd; stroke: none; stroke-width: 1px; stroke-linecap: butt; stroke-linejoin: miter; stroke-opacity: 1;" d="M -26.135244,336.89116 C -19.082425,336.89116 -3.0420614,331.39403 6.8621301,329.43609 C 8.4334485,329.12547 10.004739,328.81485 11.576057,328.5042 C 19.509635,326.93585 27.817854,326.64045 36.088401,326.64045 C 42.059343,326.64045 48.030284,326.64045 54.001254,326.64045 C 60.286471,326.64045 66.571688,326.64045 72.856905,326.64045 C 78.827846,326.64045 84.798791,326.64045 90.769757,326.64045 C 96.740703,326.64045 102.71167,326.64045 108.68262,326.64045 C 116.8534,326.64045 125.02418,326.64045 133.19496,326.64045 C 141.36574,326.64045 149.53652,326.64045 157.70727,326.64045 C 163.99249,326.64045 170.27771,326.64045 176.56293,326.64045 C 181.5911,326.64045 186.61927,326.64045 191.64744,326.64045 C 196.41546,326.64045 202.11417,328.5042 207.67474,328.5042 C 214.53974,328.5042 219.86966,328.53451 225.58761,325.70856 C 230.07269,323.49193 237.45384,324.77668 242.55767,324.77668 C 247.2716,324.77668 251.98549,324.77668 256.69942,324.77668 C 261.7276,324.77668 266.75577,324.77668 271.78391,324.77668 C 278.1005,324.77668 259.24484,326.64045 252.92829,326.64045 C 245.86214,326.64045 236.43756,328.03668 229.35874,329.43609 C 221.32822,331.02365 214.41693,331.64442 206.73197,333.16364 C 201.81992,334.13469 195.62833,334.09555 190.70468,334.09555 C 185.67651,334.09555 180.64833,334.09555 175.62016,334.09555 C 170.59198,334.09555 165.56381,334.09555 160.53564,334.09555 C 155.19322,334.09555 149.85077,334.09555 144.50834,334.09555 C 137.35125,334.09555 130.45187,335.02741 123.76713,335.02741 C 116.41306,335.02741 110.34025,337.5404 104.91149,339.68683 C 100.08825,341.5938 95.406984,343.47119 91.712525,346.20998 C 88.86219,348.32304 81.335421,347.14188 77.570803,347.14188 C 71.863706,347.14188 65.708727,346.81151 60.600718,348.07374 C 55.489252,349.33687 48.821992,349.00565 43.630633,349.00565 C 39.278156,349.00565 33.371327,352.62316 31.374474,354.59694 C 29.082213,356.8627 24.606239,357.39259 20.061085,357.39259 C 14.070098,357.39259 10.481941,357.04743 5.9193624,353.66503 C 1.9569652,350.72763 -2.9832216,349.62798 -6.3367958,347.14188 C -7.99518,345.91246 -16.284132,347.14188 -18.592983,347.14188 L -24.249678,340.61869 L -26.135244,336.89116 z" id="path4888"/>
    <path id="path4890" d="M -23.083876,235.57035 C -5.7783762,237.24642 22.919457,240.50535 44.823047,240.50535 C 93.258501,240.50535 142.49249,242.74866 190.33795,239.27158 C 233.63893,236.12477 278.8812,241.12097 322.51397,238.65469 C 340.95972,237.6121 369.11938,237.02517 386.78308,239.27158 C 407.93197,241.96127 435.33241,238.65469 457.11526,238.65469 C 478.88502,238.65469 456.22443,251.84878 451.47533,252.65409 C 401.33343,261.15665 335.443,266.41405 281.28474,266.41405 C 270.56408,266.41405 196.10792,274.08148 235.61147,274.08148 C 256.45418,274.08148 324.25634,265.07178 300.1404,277.33981 C 294.33746,280.29178 243.38195,278.80851 235.85332,281.58809 C 230.30226,283.63753 224.26957,285.34747 230.34229,288.58163 C 236.43878,291.82844 265.01744,293.07442 262.5524,295.58244 C 257.43607,300.78788 200.91643,303.22055 190.33795,304.56586 C 153.4918,309.25188 121.23559,311.96835 82.414395,311.96835 C 54.078038,311.96835 22.69435,306.15526 -4.9549876,306.15526 C -19.695913,306.15526 5.1977564,295.34736 9.6569678,292.32275 C 15.046534,288.66717 26.633734,288.63108 26.633734,283.06966 C 26.633734,275.97199 2.5611213,268.9502 -7.3197698,265.1803 C -12.755476,263.10642 -13.157392,260.47476 -15.808139,257.77779 C -18.992711,254.53778 -19.446008,253.12374 -19.446008,249.14156 C -19.446008,246.82277 -24.639441,242.27497 -25.509141,240.50535 C -26.332357,238.83024 -24.147061,236.92246 -23.083876,235.57035 z" style="fill: rgb(164, 175, 182); fill-opacity: 1; fill-rule: evenodd; stroke: none; stroke-width: 1px; stroke-linecap: butt; stroke-linejoin: miter; stroke-opacity: 1;" sodipodi:nodetypes="csssssssssssssssssssssc"/>
    <g transform="matrix(3.39515, 0, 0, 3.79883, -154.878, -262.694)" id="g4892" style="fill: rgb(236, 213, 193); fill-opacity: 1;">
      <path style="fill: rgb(236, 213, 193); fill-opacity: 1; fill-rule: evenodd; stroke: none; stroke-width: 1px; stroke-linecap: butt; stroke-linejoin: miter; stroke-opacity: 1;" d="M 79.187172,121.71122 C 77.591836,121.71122 82.343067,121.36884 83.938402,121.36884 C 84.850254,121.36884 85.762107,121.36884 86.673959,121.36884 C 87.489827,121.36884 88.305695,121.36884 89.121562,121.36884 C 89.985422,121.36884 90.849282,121.36884 91.713143,121.36884 C 92.162736,121.36884 93.23439,121.77824 93.584839,121.88241 C 94.182197,122.05997 95.076971,121.968 95.744489,121.968 C 96.281059,121.968 94.825271,122.31861 94.304723,122.39597 C 93.190759,122.56153 96.493161,122.57571 97.04028,122.73834 C 97.548768,122.88949 98.934747,122.73834 99.487883,122.73834 C 100.20777,122.73834 100.92765,122.73834 101.64753,122.73834 C 103.24487,122.73834 102.51351,122.82519 102.79935,122.99512 C 103.63322,123.49086 104.0637,123.7029 104.959,124.02225 C 105.89677,124.35675 106.67088,124.36462 107.83853,124.36462 C 108.60641,124.36462 109.37428,124.36462 110.14216,124.36462 C 111.07085,124.36462 111.92345,124.46614 112.15783,124.53581 C 112.74168,124.70936 110.86998,124.70463 110.28613,124.87819 C 109.7734,125.03059 109.2499,125.04937 108.41444,125.04937 C 107.69924,125.04937 107.02557,125.13497 106.25479,125.13497 C 105.4237,125.13497 104.873,125.30615 104.09514,125.30615 C 103.38553,125.30615 102.97601,125.73412 102.07946,125.73412 C 101.26358,125.73412 101.00354,125.57421 100.35174,125.47734 C 99.766432,125.39035 99.401302,124.90811 98.624023,124.79259 C 97.99619,124.69928 97.115358,124.79259 96.464373,124.79259 C 95.744489,124.79259 95.024606,124.79259 94.304723,124.79259 C 93.473715,124.79259 92.564777,124.74616 93.584839,125.04937 C 94.324622,125.26927 95.015295,125.30062 95.456536,125.56293 C 96.063021,125.92349 95.116309,125.81971 94.304723,125.81971 C 93.642735,125.81971 92.745544,125.44184 92.289049,125.30615 C 91.547356,125.08568 91.280671,125.00641 90.561329,124.79259 C 89.949587,124.61075 89.581494,124.53581 88.689632,124.53581 C 87.999904,124.53581 87.162425,124.6214 86.386006,124.6214 C 85.840782,124.6214 85.617185,125.12084 84.946239,125.22056 C 84.285093,125.31882 83.684358,125.39175 82.930565,125.39175 C 81.972237,125.39175 81.6286,125.13129 81.202845,124.87819 C 80.498268,124.45932 80.082126,124.21192 79.475125,123.85106 C 78.905155,123.51222 78.425611,123.4535 77.747405,123.25191 C 77.011968,123.0333 76.617673,122.93421 75.875708,122.82394 C 75.173739,122.71961 74.461761,122.73834 73.716058,122.73834 C 72.964861,122.73834 75.05984,122.33891 75.731731,122.13919 C 76.19648,122.00104 77.069035,122.0536 77.747405,122.0536 C 78.517818,122.0536 78.425209,122.07361 79.187172,121.71122 z" id="path4894"/>
      <path style="fill: rgb(236, 213, 193); fill-opacity: 1; fill-rule: evenodd; stroke: none; stroke-width: 1px; stroke-linecap: butt; stroke-linejoin: miter; stroke-opacity: 1;" d="M 79.475125,124.45021 C 80.195008,124.45021 78.035358,124.45021 77.315475,124.45021 C 76.595592,124.45021 75.875708,124.45021 75.155825,124.45021 C 74.343091,124.45021 73.68797,124.44187 73.140151,124.27903 C 72.438114,124.07035 71.681912,124.10784 70.836525,124.10784 C 70.116641,124.10784 69.396758,124.10784 68.676874,124.10784 C 67.436975,124.10784 68.621336,124.27078 69.252781,124.36462 C 69.880614,124.45794 70.761446,124.36462 71.412431,124.36462 C 72.382722,124.36462 72.781121,124.43992 73.572081,124.79259 C 74.289043,125.11226 73.831187,125.13497 72.852198,125.13497 C 72.201439,125.13497 71.699586,124.87819 70.836525,124.87819 C 69.860775,124.87819 68.950512,124.96377 67.956991,124.96377 C 67.141123,124.96377 66.325255,124.96377 65.509388,124.96377 C 64.789504,124.96377 64.069621,124.96377 63.349737,124.96377 C 62.629854,124.96377 61.909971,124.96377 61.190087,124.96377 C 60.414896,124.96377 59.719328,124.87358 59.174414,124.79259 C 57.954837,124.61133 57.935845,125.01535 57.878624,125.04937 C 57.769207,125.11442 60.054161,125.37271 60.182251,125.39175 C 61.215697,125.54534 62.405657,125.47734 63.493714,125.47734 C 64.417911,125.47734 65.392677,125.43859 66.229271,125.56293 C 66.96125,125.67172 67.735269,125.95794 68.532898,126.07649 C 69.28695,126.18856 70.142586,126.16209 70.980501,126.16209 C 71.748377,126.16209 72.516252,126.16209 73.284128,126.16209 C 74.147614,126.16209 74.744204,126.15303 75.299801,125.90531 C 75.846993,125.66133 76.648338,125.50446 77.027522,125.39175 C 77.591725,125.22404 78.094119,125.22056 78.899218,125.22056 C 79.619102,125.22056 80.338985,125.22056 81.058868,125.22056 C 81.795229,125.22056 82.281602,125.00721 82.642612,124.79259 C 83.340115,124.37793 82.574377,124.53581 81.778752,124.53581 C 80.98661,124.53581 80.256627,124.54313 79.475125,124.45021 z" id="path4896"/>
      <path style="fill: rgb(236, 213, 193); fill-opacity: 1; fill-rule: evenodd; stroke: none; stroke-width: 1px; stroke-linecap: butt; stroke-linejoin: miter; stroke-opacity: 1;" d="M 71.844361,120.25613 C 71.028493,120.25613 73.476097,120.25613 74.291965,120.25613 C 74.999576,120.25613 75.809998,120.26776 76.307638,120.34172 C 77.074186,120.45565 76.980574,120.74132 77.747405,120.85528 C 78.07332,120.90372 78.419296,120.85528 78.755242,120.85528 C 79.475125,120.85528 77.315475,120.85528 76.595592,120.85528 C 75.916739,120.85528 75.389426,121.14437 75.011848,121.36884 C 74.48478,121.68219 73.810079,121.62563 72.996175,121.62563 C 72.276291,121.62563 71.556408,121.62563 70.836525,121.62563 C 69.927733,121.62563 69.539444,121.62486 69.108804,121.36884 C 68.757596,121.16005 67.790868,121.10878 67.237108,121.02647 C 66.65168,120.93946 66.079436,120.76969 65.365411,120.76969 C 64.578111,120.76969 64.184113,120.85528 63.349737,120.85528 C 62.605407,120.85528 61.849743,120.84284 61.190087,120.94088 C 60.568706,121.03323 60.183979,121.41113 59.75032,121.54004 C 59.186117,121.70774 58.683723,121.71122 57.878624,121.71122 C 56.974586,121.71122 56.438857,121.8762 56.438857,121.28325 C 56.438857,121.02021 57.10484,120.91937 57.302717,120.6841 C 57.627508,120.29793 55.869321,120.85528 55.143067,120.85528 C 54.423183,120.85528 53.7033,120.85528 52.983417,120.85528 C 52.263533,120.85528 51.54365,120.85528 50.823767,120.85528 C 50.103883,120.85528 49.384,120.85528 48.664116,120.85528 C 47.824408,120.85528 47.303136,120.62193 46.648443,120.42732 C 46.065102,120.25392 45.388815,120.15451 44.920723,120.08494 C 44.194876,119.97706 44.311709,120.06526 43.912886,119.82816 L 44.200839,117.77391 C 43.409331,117.65628 45.832575,117.77391 46.648443,117.77391 C 47.368326,117.77391 48.08821,117.77391 48.808093,117.77391 C 49.671953,117.77391 50.535813,117.77391 51.399673,117.77391 C 52.597319,117.77391 52.442885,117.83848 51.831603,118.20189 C 51.166135,118.5975 51.682573,118.37307 52.695463,118.37307 C 53.415347,118.37307 54.13523,118.37307 54.855113,118.37307 C 55.910942,118.37307 56.966771,118.37307 58.0226,118.37307 C 59.278353,118.37307 59.231305,118.49249 59.462367,118.62985 C 59.99235,118.94492 61.343685,118.80104 62.053947,118.80104 C 62.821823,118.80104 63.589698,118.80104 64.357574,118.80104 C 65.0429,118.80104 64.658119,119.22901 65.797341,119.22901 C 66.156384,119.22901 67.091678,118.88685 67.669038,118.80104 C 67.963504,118.75728 68.229368,118.62985 68.532898,118.62985 C 68.847245,118.62985 69.907385,118.80104 70.548571,118.80104 C 71.2782,118.80104 72.056805,119.07817 72.564245,119.22901 C 73.52839,119.5156 73.683365,119.71222 72.708221,119.82816 C 71.995939,119.91285 71.844361,119.69615 71.844361,120.25613 z" id="path4898"/>
    </g>
    <path sodipodi:nodetypes="cccssssscc" id="path4900" d="M -1.212975,227.37953 L 450.55287,229.82267 L 450.55287,221.02725 C 427.41651,220.84255 398.56428,218.08444 365.48753,217.1182 C 341.62346,216.42107 320.43782,221.43447 296.13572,220.53862 C 283.97092,220.09019 264.48735,216.94839 252.52171,216.27777 C 211.81924,213.99659 157.97976,214.679 107.45674,218.10723 C 91.131608,219.21496 74.273332,220.41976 57.413123,220.04999 C 37.482163,219.61287 17.562694,218.53244 -2.3625047,217.1182 L -1.212975,227.37953 z" style="fill: rgb(28, 34, 40); fill-opacity: 1; fill-rule: evenodd; stroke: none; stroke-width: 1px; stroke-linecap: butt; stroke-linejoin: miter; stroke-opacity: 1;"/>
    <path sodipodi:nodetypes="csssssssssssssssssssssccccc" style="fill: rgb(25, 31, 40); fill-opacity: 1; fill-rule: evenodd; stroke: none; stroke-width: 1px; stroke-linecap: butt; stroke-linejoin: miter; stroke-opacity: 1;" d="M 451.34484,350.51903 C 449.14499,350.51903 446.94518,350.51903 444.74534,350.51903 C 440.03145,350.51903 435.31752,350.51903 430.60362,350.51903 C 425.88972,350.51903 421.17579,350.51903 416.4619,350.51903 C 411.95217,350.51903 407.01241,350.52986 403.26294,352.40459 C 400.01333,354.02939 393.3472,358.06129 389.12122,358.06129 C 388.4927,358.06129 387.8454,357.90884 387.23565,358.06129 C 380.4453,359.75886 372.29442,359.43964 366.49444,360.88964 C 360.87069,362.29556 356.04827,362.77521 349.52436,362.77521 C 343.45731,362.77521 340.88581,365.20891 336.3254,367.48911 C 332.23115,369.53625 327.97614,370.72097 323.12644,373.1458 C 318.98398,375.21705 313.55657,378.70766 309.40605,379.74527 C 301.54369,381.71086 295.93524,387.17696 287.30073,387.17696 C 278.50144,387.17696 269.70213,387.17696 260.90283,387.17696 C 253.87239,387.17696 244.13296,386.99134 237.33327,385.2914 C 231.80621,383.90965 224.546,382.19217 218.47763,383.40583 C 211.21263,384.85883 203.38565,384.82375 196.79365,388.11976 C 192.30975,390.3617 188.25001,393.08399 181.70912,394.71922 C 172.89672,396.92234 164.19628,399.23312 156.25401,403.20428 C 146.00943,408.32657 134.98928,410.28555 123.25664,412.63207 C 104.24359,416.43468 83.436102,423.0027 63.861352,423.0027 C 52.574603,423.0027 40.828364,424.98982 29.921212,427.71659 C 20.429275,430.08958 7.4637232,432.62389 0.69496839,434.31608 C 3.9759358,434.31608 -5.7982772,435.67713 -8.7328564,437.14442 L -3.2868405,451.72841 L 456.05873,450.88573 L 451.34484,350.51903 z" id="path4902"/>
    <path style="fill: rgb(25, 31, 40); fill-opacity: 1; fill-rule: evenodd; stroke: none; stroke-width: 1px; stroke-linecap: butt; stroke-linejoin: miter; stroke-opacity: 1;" d="M 449.37863,319.69439 C 449.39006,319.68938 430.77536,315.72606 426.65798,315.27204 C 416.53241,314.15543 403.30674,319.80533 394.84911,324.22448 C 389.65738,326.93715 374.72371,326.25014 368.72038,326.85443 C 364.886,327.24037 356.13456,323.29113 351.67987,321.86033 C 344.03053,319.40339 333.98496,321.56187 327.8232,324.26158 C 318.53273,328.33198 337.0523,321.20024 341.45559,320.01405 C 352.56895,317.02017 363.33602,315.53369 374.40051,312.8642 C 381.50402,311.15032 389.91379,311.30273 397.12115,310.57726 C 404.07351,309.87752 415.33486,304.87878 419.84185,300.62265 C 421.96301,298.61955 430.93785,297.22109 434.61023,295.30228 C 438.1906,293.43156 447.54222,294.00066 451.65071,293.58717 C 458.09613,292.93839 463.00974,292.9225 466.41914,294.0176 C 467.93386,294.50408 464.90444,296.72594 464.14709,298.08014" id="path4904"/>
    <path style="fill: rgb(164, 175, 182); fill-opacity: 1; fill-rule: evenodd; stroke: none; stroke-width: 1px; stroke-linecap: butt; stroke-linejoin: miter; stroke-opacity: 1;" d="M 268.2516,318.26042 C 278.68608,316.41586 288.80227,316.19871 299.22986,313.1265 C 315.7574,308.25707 335.22405,307.60369 352.47371,305.42563 C 360.61399,304.39778 369.95875,299.83748 376.67549,296.86912 C 381.88465,294.567 387.35149,294.46845 393.13269,293.4465 C 400.72564,292.10424 399.17256,296.54358 403.78148,298.5804 C 410.94676,301.747 409.19109,301.14734 398.94111,301.14734 C 385.34948,301.14734 373.44795,300.50606 362.15443,307.99259 C 352.89209,314.13265 341.58136,318.79589 331.17618,323.39433 C 323.23099,326.90561 315.94376,330.23954 306.97442,330.23954 C 297.29373,330.23954 287.61302,330.23954 277.9323,330.23954 C 273.00452,330.23954 266.84779,330.1433 263.41127,329.38389 C 259.63789,328.55011 259.66845,325.10564 252.76246,325.10564 C 244.61172,325.10564 252.15519,321.60331 255.66668,320.82739 C 260.52573,319.75366 261.86201,318.26042 268.2516,318.26042 z" id="path4906"/>
    <path style="fill: rgb(25, 31, 40); fill-opacity: 1; fill-rule: evenodd; stroke: none; stroke-width: 1px; stroke-linecap: butt; stroke-linejoin: miter; stroke-opacity: 1;" d="M 310.10592,356.45909 C 309.6785,356.08254 268.15575,360.17 256.40006,360.17 C 239.45596,360.17 223.83373,358.9146 207.95943,362.64393 C 203.57849,363.67311 197.9337,373.18356 195.32276,376.25051 C 189.12141,383.53489 164.50927,379.96145 156.35965,379.96145 C 146.66493,379.96145 138.37975,374.72721 128.98018,377.48751 C 123.2592,379.16749 117.66207,382.0481 112.13129,383.67227 C 106.99077,385.18183 101.00257,386.67315 97.388485,389.85709 C 92.720643,393.96939 82.681294,394.80493 93.176243,394.80493 C 105.4619,394.80493 117.74757,394.80493 130.03322,394.80493 C 137.07735,394.80493 144.42839,394.08442 151.09439,396.04192 C 152.49846,396.45425 153.90254,396.86656 155.3066,397.27887 C 162.68533,399.44573 172.91915,397.27887 180.57996,397.27887 C 186.26298,397.27887 192.5278,396.04192 198.48193,396.04192 C 204.42435,396.04192 215.06179,389.98352 220.59611,387.38314 C 226.96703,384.38975 232.8525,380.69157 239.55115,378.72444 C 246.56929,376.66351 253.58245,373.36705 260.61225,371.30266 C 266.9517,369.44104 273.64551,368.09378 279.56726,366.35482 C 285.62291,364.5765 289.7472,361.40694 296.41619,361.40694 C 302.14973,361.40694 304.89745,360.12999 310.10592,356.45909 z" id="path4908"/>
    <path style="fill: rgb(164, 175, 182); fill-opacity: 1; fill-rule: evenodd; stroke: none; stroke-width: 1px; stroke-linecap: butt; stroke-linejoin: miter; stroke-opacity: 1;" d="M 154.92595,338.24411 C 160.50922,337.07786 143.78611,341.21602 138.03103,341.21602 C 126.11345,341.21602 108.46134,347.71805 97.127523,350.87469 C 84.260442,354.45838 69.334268,354.62761 56.223962,356.81847 C 49.702262,357.90832 42.1562,358.30442 35.772226,358.30442 C 30.090733,358.30442 26.049653,360.49657 22.434134,362.76222 C 19.127072,364.83461 14.662878,364.2482 9.9852117,364.2482 C 4.2401265,364.2482 0.64335663,364.99118 8.2068146,364.99118 C 14.431232,364.99118 20.655708,364.99118 26.880155,364.99118 C 31.919014,364.99118 36.957814,364.99118 41.996701,364.99118 C 47.450695,364.99118 49.924576,365.53275 54.445566,366.47711 C 59.330628,367.49752 65.322824,366.89177 70.451282,367.96309 C 78.239991,369.59002 88.066108,370.19198 96.238293,370.19198 C 104.7764,370.19198 112.19194,369.30912 120.24689,367.96309 C 135.52939,365.40922 152.68302,367.18065 168.26406,365.73412 C 183.90046,364.28248 200.75739,358.1031 214.50282,352.36064 C 219.65541,350.20804 225.42734,347.00065 228.73014,344.9309 C 231.78315,343.01769 234.58801,341.959 239.40063,341.959 C 243.84666,341.959 248.29268,341.959 252.73869,341.959 C 257.32155,341.959 250.28244,336.9348 249.18188,336.01522 C 246.20242,333.52572 230.97306,337.06498 227.84091,337.50117 C 214.98981,339.2908 201.82489,341.959 188.71583,341.959 C 179.55499,341.959 168.56642,346.33262 160.26117,348.64575 C 154.03874,350.37879 145.87541,352.66589 141.58786,350.87469 C 134.72186,348.00627 149.15157,343.66692 150.47992,343.44495 C 154.11733,342.83711 154.18044,341.35859 154.92595,338.24411 z" id="path4910"/>
    <path style="fill: rgb(55, 79, 96); fill-opacity: 1; fill-rule: evenodd; stroke: none; stroke-width: 1px; stroke-linecap: butt; stroke-linejoin: miter; stroke-opacity: 1;" d="M 216.16714,303.85903 C 213.41469,302.49151 191.59946,300.82246 178.89225,300.82246 C 172.01999,300.82246 164.38566,299.79765 157.73625,298.54495 C 148.96502,296.89258 140.94631,293.29426 132.55048,291.7126 C 125.69002,290.42014 123.12856,289.43508 115.42419,289.43508 C 110.38705,289.43508 105.34989,289.43508 100.31275,289.43508 C 97.244887,289.43508 93.043265,293.6924 90.238467,294.74919 C 86.44343,296.17905 80.642153,295.50835 76.134445,295.50835 C 71.934383,295.50835 87.406504,298.90603 91.245864,300.0633 C 96.545342,301.66066 103.28334,301.58157 109.37963,301.58157 C 117.78606,301.58157 128.21967,302.284 136.58021,303.85903 C 142.05457,304.89038 148.46067,303.62998 153.70652,304.61822 C 158.6374,305.54713 162.95445,307.49917 167.81051,308.41397 C 173.97954,309.57618 180.90952,308.79403 186.95169,309.9323 C 193.33855,311.13554 202.57496,309.9323 209.11512,309.9323 C 216.78673,309.9323 219.22708,309.62367 216.16714,303.85903 z" id="path4912"/>
    <path style="fill: rgb(55, 79, 96); fill-opacity: 1; fill-rule: evenodd; stroke: none; stroke-width: 1px; stroke-linecap: butt; stroke-linejoin: miter; stroke-opacity: 1;" d="M 3.5233018,269.62501 C 5.2997114,269.62501 15.568608,268.52999 22.86007,268.52999 C 28.947568,268.52999 35.035067,268.52999 41.122565,268.52999 C 47.926255,268.52999 54.729917,268.52999 61.533578,268.52999 C 67.979187,268.52999 74.424767,268.52999 80.870375,268.52999 C 87.144128,268.52999 94.155362,267.1111 100.20714,266.34006 C 105.76195,265.6323 111.072,265.36636 116.3211,264.69758 C 121.64984,264.01865 126.46468,265.30559 130.28656,265.79253 C 138.82265,266.88014 132.53426,266.73803 127.06374,267.43504 C 121.70399,268.11788 115.94174,267.89396 110.94979,268.52999 C 104.90034,269.30076 98.31231,271.20277 93.761532,272.36244 C 89.054432,273.56191 84.446757,274.46229 79.796103,275.64739 C 75.078058,276.84959 70.947723,276.74231 64.756397,276.74231 C 58.946884,276.74231 53.585312,276.63315 49.716691,275.64739 C 45.20872,274.49863 39.047692,274.55235 33.602713,274.55235 C 28.231377,274.55235 22.86007,274.55235 17.488734,274.55235 C 14.099993,274.55235 11.98837,274.26218 9.9688816,274.00489 L 3.5233018,269.62501 z" id="path4914"/>
    <path style="fill: rgb(55, 79, 96); fill-opacity: 1; fill-rule: evenodd; stroke: none; stroke-width: 1px; stroke-linecap: butt; stroke-linejoin: miter; stroke-opacity: 1;" d="M 171.3385,262.63779 C 173.56642,262.63779 182.82415,262.63779 188.51028,262.63779 C 194.23423,262.63779 199.95811,262.63779 205.682,262.63779 C 211.94887,262.63779 216.74206,261.93258 222.85383,261.93258 C 230.11909,261.93258 233.87522,260.88186 235.44644,264.75339 C 235.85666,265.76413 218.35752,266.86894 215.98508,266.86894 C 209.81536,266.86894 204.82636,267.35327 198.81333,268.27929 C 193.82134,269.04809 186.81768,268.27929 181.64156,268.27929 C 173.31681,268.27929 174.53883,267.56631 171.3385,262.63779 z" id="path4916"/>
    <g transform="matrix(2.88009, 0, 0, 2.88009, -1284.29, -151.403)" id="g4918">
      <path sodipodi:nodetypes="cccccccc" style="fill: rgb(255, 255, 255); fill-opacity: 1; fill-rule: evenodd; stroke: none; stroke-width: 1px; stroke-linecap: butt; stroke-linejoin: miter; stroke-opacity: 1;" d="M 485.82177,131.91174 C 489.56522,133.23629 493.58524,134.23036 497.50583,135.96333 C 498.22924,136.32384 498.05931,136.82143 498.51371,137.3374 C 499.50255,137.91602 498.95544,137.19137 499.98586,136.9794 C 500.71781,136.57959 501.08905,135.84031 500.33933,135.69431 C 508.03353,135.13181 511.30684,134.10838 516.1557,133.28722 L 517.35309,131.56787 L 485.82177,131.91174 z" id="path4920"/>
      <path style="fill: rgb(255, 255, 255); fill-opacity: 1; fill-rule: evenodd; stroke: none; stroke-width: 1px; stroke-linecap: butt; stroke-linejoin: miter; stroke-opacity: 1;" d="M 499.34215,143.14266 C 498.31648,143.4623 497.11398,144.85691 498.57426,147.13397 C 499.99588,149.35073 500.11004,147.23878 500.11004,149.52875 C 500.11004,151.55764 498.1456,151.12527 497.03848,151.12527 C 495.66063,151.12527 494.4475,152.14753 493.71095,152.7218 C 492.1457,153.94217 495.32236,154.54737 495.75866,154.71745 C 496.9015,155.16296 498.007,156.2924 499.08619,156.7131 C 500.51196,157.26891 501.41119,155.08332 502.15776,153.91919 C 502.81796,152.8897 501.73678,149.69692 501.64583,149.12962 C 501.30005,146.97293 502.6745,147.14148 500.87793,144.34005 C 500.08504,143.10368 501.53035,143.82508 499.34215,143.14266 z" id="path4922"/>
      <path style="fill: rgb(255, 255, 255); fill-opacity: 1; fill-rule: evenodd; stroke: none; stroke-width: 1px; stroke-linecap: butt; stroke-linejoin: miter; stroke-opacity: 1;" d="M 498.38288,160.33326 C 498.22773,160.06651 494.17142,163.06373 498.74028,164.63484 C 501.42732,165.55883 500.88472,162.66343 500.88472,159.10424 C 500.88472,154.81411 501.09801,155.96975 499.8125,155.41719 C 498.77874,154.97284 498.77862,158.6322 498.38288,160.33326 z" id="path4924"/>
      <path style="fill: rgb(255, 255, 255); fill-opacity: 1; fill-rule: evenodd; stroke: none; stroke-width: 1px; stroke-linecap: butt; stroke-linejoin: miter; stroke-opacity: 1;" d="M 496.76162,192.52341 C 499.43174,193.18081 499.80335,192.18062 502.00004,190.7055 C 503.73466,189.54066 503.0873,187.31563 503.00056,185.61417 C 502.92103,184.05421 500.80976,184.34307 501.42035,181.23599 C 501.86044,178.99651 503.70666,179.95118 504.22515,177.31277 C 504.24066,177.23385 500.56071,177.33087 501.0852,174.6619 C 501.56846,172.20277 502.60971,170.89385 499.89664,170.36069 C 496.88131,169.76813 499.91791,168.7118 501.45637,168.63338 C 503.53088,168.52761 506.02723,168.71808 502.39358,168.00402 C 500.15142,167.5634 499.22634,166.97484 496.98758,166.53489 C 494.01884,165.95149 494.41055,167.93159 494.80531,169.36016 C 495.04622,170.23197 495.41733,170.27155 495.74934,170.76597 C 496.47676,173.39839 494.36605,173.66529 493.88857,176.095 C 493.57339,177.69883 496.37852,178.65453 497.73484,179.29144 C 499.74838,180.23697 499.029,181.57959 496.56674,181.09572 C 493.4961,180.49229 496.21162,184.11062 496.65736,184.7744 C 497.4866,186.00928 494.21634,186.84643 493.92952,188.30599 C 493.38324,191.08583 490.71101,188.57562 492.53054,191.28518 C 492.69082,191.52386 494.51333,191.67483 494.88037,191.74696" id="path4926"/>
      <path style="fill: rgb(255, 255, 255); fill-opacity: 1; fill-rule: evenodd; stroke: none; stroke-width: 1px; stroke-linecap: butt; stroke-linejoin: miter; stroke-opacity: 1;" d="M 505.8571,194.72586 C 509.22527,192.42364 508.08271,197.38863 507.90479,197.87506 C 507.23562,199.70463 505.96676,200.65561 503.8094,201.02425 C 500.41798,201.60378 498.86397,201.49297 496.64246,199.97452 C 494.52487,198.52709 495.70185,197.32174 498.17824,196.47541 C 500.8773,195.55299 502.75698,194.72586 505.8571,194.72586 z" id="path4928"/>
    </g>
    <path sodipodi:nodetypes="cccccccccccccc" id="path4930" d="M 185.30592,231.30822 L 189.26996,237.0241 L 226.55737,237.17459 L 230.85746,229.14228 L 213.86462,229.63213 L 210.55629,225.47173 L 208.16956,225.45678 L 208.32125,186.0957 L 206.53162,186.3506 L 206.26781,225.44189 L 202.22958,225.44189 L 200.11412,228.79408 L 189.37715,229.3673 L 185.30592,231.30822 z" style="fill: rgb(39, 47, 55); fill-opacity: 1; fill-rule: evenodd; stroke: none; stroke-width: 1px; stroke-linecap: butt; stroke-linejoin: miter; stroke-opacity: 1;"/>
    <g style="fill: rgb(39, 47, 55); fill-opacity: 1;" transform="matrix(2.88009, 0, 0, 2.88009, -132.26, -152.61)" id="g4932">
      <path style="fill: rgb(39, 47, 55); fill-opacity: 1; fill-rule: evenodd; stroke: none; stroke-width: 1px; stroke-linecap: butt; stroke-linejoin: miter; stroke-opacity: 1;" d="M 85.410184,134.1657 L 92.417141,134.34073 L 93.541206,132.50001 L 90.618634,132.05038 L 89.944195,130.4767 L 89.857238,119.8705 L 89.484654,119.84616 L 89.309497,131.16143 L 87.726963,131.2759 L 87.471249,132.18767 L 84.998303,132.41249 L 85.410184,134.1657 z" id="path4934" sodipodi:nodetypes="cccccccccccc"/>
      <path style="fill: rgb(39, 47, 55); fill-opacity: 1; fill-rule: evenodd; stroke: none; stroke-width: 1px; stroke-linecap: butt; stroke-linejoin: miter; stroke-opacity: 1;" d="M 89.862292,120.83814 L 93.292157,132.52508 L 92.879303,132.65211 L 89.73526,121.34626 L 89.862292,120.83814 z" id="path4936"/>
    </g>
    <g style="fill: rgb(39, 47, 55); fill-opacity: 1;" transform="matrix(2.5738, 0, 0, 2.5738, -118.756, -109.871)" id="g4938">
      <path sodipodi:nodetypes="ccccccccccccc" id="path4940" transform="matrix(1.119, 0, 0, 1.119, -452.848, -16.1366)" d="M 471.24385,119.81198 L 470.90625,131.25 L 469.3125,131.3125 L 469.3125,132.3125 L 467.875,132.59375 L 468.875,134.15625 L 473.72541,134.18187 L 474,132.71875 L 473.15625,132.4375 L 472.59375,131.15625 L 471.45594,131.2874 L 471.78838,119.8376 L 471.24385,119.81198 z" style="fill: rgb(39, 47, 55); fill-opacity: 1; fill-rule: evenodd; stroke: none; stroke-width: 1px; stroke-linecap: butt; stroke-linejoin: miter; stroke-opacity: 1;"/>
    </g>
    <path sodipodi:nodetypes="ccccccccccc" id="path4942" d="M 50.446044,190.84335 L 49.63602,226.50191 L 43.875844,226.86191 L 42.255794,231.28827 L 45.135882,236.45532 L 64.846486,236.59843 L 65.024994,228.91576 L 52.713826,228.66347 L 51.436075,226.50191 L 52.038042,190.95553 L 50.446044,190.84335 z" style="fill: rgb(39, 47, 55); fill-opacity: 1; fill-rule: evenodd; stroke: none; stroke-width: 1px; stroke-linecap: butt; stroke-linejoin: miter; stroke-opacity: 1;"/>
    <g style="fill: rgb(39, 47, 55); fill-opacity: 1;" transform="matrix(2.5738, 0, 0, 2.5738, -84.6743, -110.518)" id="g4944">
      <path sodipodi:nodetypes="ccccccccc" style="fill: rgb(39, 47, 55); fill-opacity: 1; fill-rule: evenodd; stroke: none; stroke-width: 1px; stroke-linecap: butt; stroke-linejoin: miter; stroke-opacity: 1;" d="M 165.98738,131.35685 L 166.34262,134.38134 L 170.95125,134.38134 L 171.02807,131.50087 L 169.24223,131.03036 L 169.22301,117.81909 L 168.64694,117.81909 L 168.43572,130.97277 L 165.98738,131.35685 z" id="path4946"/>
    </g>
    <g style="fill: rgb(39, 47, 55); fill-opacity: 1;" transform="matrix(2.5738, 0, 0, 2.5738, -84.6743, -109.871)" id="g4948">
      <path sodipodi:nodetypes="ccccccccc" id="path4950" transform="matrix(1.119, 0, 0, 1.119, -466.09, -16.1366)" d="M 573.00613,122.44447 L 573.69724,131.49643 L 571.625,131.47799 L 572.5,133.53331 L 576.625,133.78331 L 577,131.59581 L 574.125,131.46518 L 573.46514,122.46413 L 573.00613,122.44447 z" style="fill: rgb(39, 47, 55); fill-opacity: 1; fill-rule: evenodd; stroke: none; stroke-width: 1px; stroke-linecap: butt; stroke-linejoin: miter; stroke-opacity: 1;"/>
    </g>
    <path sodipodi:nodetypes="ccccccccccccccccc" id="path4952" d="M 388.40886,211.90547 L 387.39578,227.2265 L 383.14536,227.57246 L 384.82579,232.73741 L 391.64622,232.58918 L 392.38756,235.06043 L 400.1718,235.25815 L 400.74018,228.33854 L 396.66273,227.77015 L 397.20635,202.88552 L 396.09431,203.08324 L 395.18,228.33854 L 391.84394,227.2265 L 390.73188,225.37314 L 388.47484,224.1485 L 389.16672,212.4187 L 388.40886,211.90547 z" style="fill: rgb(39, 47, 55); fill-opacity: 1; fill-rule: evenodd; stroke: none; stroke-width: 1px; stroke-linecap: butt; stroke-linejoin: miter; stroke-opacity: 1;"/>
    <g style="fill: rgb(39, 47, 55); fill-opacity: 1;" transform="matrix(2.5738, 0, 0, 2.5738, -96.1375, -109.871)" id="g4954">
      <path sodipodi:nodetypes="cccccccccccccc" id="path4956" transform="matrix(1.119, 0, 0, 1.119, -461.636, -16.1366)" d="M 557.58146,119.44979 L 556.99108,119.4375 L 556.6704,132.23822 L 554.66387,132.29657 L 554.11338,132.80229 L 552.79969,132.85707 L 552.59375,131.40625 L 548.03125,131.21875 L 546.25,132.5625 L 547.21875,134.9375 L 558.21875,134.75 L 559.2751,132.36374 L 557.34375,132.35759 L 557.58146,119.44979 z" style="fill: rgb(39, 47, 55); fill-opacity: 1; fill-rule: evenodd; stroke: none; stroke-width: 1px; stroke-linecap: butt; stroke-linejoin: miter; stroke-opacity: 1;"/>
      <path sodipodi:nodetypes="ccccc" style="fill: rgb(39, 47, 55); fill-opacity: 1; fill-rule: evenodd; stroke: none; stroke-width: 1px; stroke-linecap: butt; stroke-linejoin: miter; stroke-opacity: 1;" d="M 153.42673,131.58628 L 154.26741,124.30098 L 154.69626,124.39593 L 153.88012,131.98099 L 153.42673,131.58628 z" id="path4958"/>
    </g>
    <path sodipodi:nodetypes="ccccccccc" id="path4960" d="M 410.3267,230.15057 L 410.66267,238.10103 L 437.84595,238.70968 L 438.71006,227.61955 L 432.35748,227.46829 L 431.10288,221.33341 L 421.42656,220.82755 L 417.22581,228.57954 L 410.3267,230.15057 z" style="fill: rgb(39, 47, 55); fill-opacity: 1; fill-rule: evenodd; stroke: none; stroke-width: 1px; stroke-linecap: butt; stroke-linejoin: miter; stroke-opacity: 1;"/>
    <path id="path4962" d="M -5.1775322,392.94909 C 10.242432,391.02948 25.184503,392.48369 40.39373,390.59033 C 47.042904,389.76262 54.137569,388.4796 60.279386,388.9434 C 67.460166,389.48564 72.915658,390.68462 80.993616,389.679 C 86.069566,389.04712 91.415593,387.55304 96.736411,386.89068 C 103.31819,386.07133 88.926589,389.52002 85.136445,389.99187 C 75.75701,391.15949 66.49741,394.7979 56.965124,395.98453 C 52.54609,396.53466 48.127055,397.08475 43.708021,397.63488 C 39.565157,398.15062 35.422324,398.66635 31.27949,399.18206 C 26.661009,399.75701 22.818827,403.72454 20.508103,406.32295 C 17.573524,409.62284 15.236217,410.2935 10.565261,410.87496 C 6.4224269,411.3907 2.2795645,411.90644 -1.8632698,412.42214 C -2.9680146,412.55966 -4.0727874,412.69722 -5.1775322,412.83474 L -5.1775322,392.94909 z" style="fill: rgb(164, 175, 182); fill-opacity: 1; fill-rule: evenodd; stroke: none; stroke-width: 1px; stroke-linecap: butt; stroke-linejoin: miter; stroke-opacity: 1;"/>
    <path sodipodi:nodetypes="ccccccccc" id="path4964" d="M 243.90947,231.21876 L 259.25288,231.21876 L 261.0941,226.30888 L 252.50178,226.02871 L 251.88803,202.98687 L 250.78479,203.08218 L 251.3578,226.06272 L 245.88656,226.20583 L 243.90947,231.21876 z" style="fill: rgb(39, 47, 55); fill-opacity: 1; fill-rule: evenodd; stroke: none; stroke-width: 1px; stroke-linecap: butt; stroke-linejoin: miter; stroke-opacity: 1;"/>
    <path sodipodi:nodetypes="cccccccccccc" id="path4966" d="M 256.99564,233.0806 L 272.38029,233.03936 L 275.01232,227.0791 L 271.31066,227.02124 L 269.92513,225.26064 L 264.83835,224.84246 L 265.23376,200.02965 L 263.62586,200.26577 L 263.18921,225.23506 L 260.22079,225.08142 L 255.79825,227.92801 L 256.99564,233.0806 z" style="fill: rgb(39, 47, 55); fill-opacity: 1; fill-rule: evenodd; stroke: none; stroke-width: 1px; stroke-linecap: butt; stroke-linejoin: miter; stroke-opacity: 1;"/>
    <path sodipodi:nodetypes="ccccccccccccccc" id="path4968" d="M 24.253542,226.44476 L 27.145123,229.85542 L 43.872532,230.0119 L 44.267938,225.23789 L 39.535147,224.68601 L 40.919087,206.6693 L 40.202261,206.55124 L 38.697445,222.15141 L 34.486064,222.4896 L 32.973241,224.72622 L 30.329089,223.7715 L 30.131371,200.4907 L 29.157844,200.60876 L 28.980718,224.40021 L 24.253542,226.44476 z" style="fill: rgb(39, 47, 55); fill-opacity: 1; fill-rule: evenodd; stroke: none; stroke-width: 1px; stroke-linecap: butt; stroke-linejoin: miter; stroke-opacity: 1;"/>
    <path sodipodi:nodetypes="ccccc" id="path4970" d="M 207.39433,203.10681 L 204.98024,204.17857 L 207.22472,205.28383 L 209.66462,204.17857 L 207.39433,203.10681 z" style="fill: rgb(39, 47, 55); fill-opacity: 1; fill-rule: evenodd; stroke: none; stroke-width: 1px; stroke-linecap: butt; stroke-linejoin: miter; stroke-opacity: 1;"/>
    <g transform="matrix(2.88009, 0, 0, 2.88009, -1284.29, -151.403)" style="fill: rgb(209, 204, 218); fill-opacity: 0.505814;" id="g4972">
      <path sodipodi:nodetypes="ccccccc" style="fill: rgb(209, 204, 218); fill-opacity: 0.505814; fill-rule: evenodd; stroke: none; stroke-width: 1px; stroke-linecap: butt; stroke-linejoin: miter; stroke-opacity: 1;" d="M 588.61495,134.80065 L 588.5685,132.63539 L 589.69415,132.30859 L 589.70395,133.50394 L 588.80893,133.81635 L 588.78899,134.8386 L 588.61495,134.80065 z" id="path4974"/>
      <path sodipodi:nodetypes="cccccc" style="fill: rgb(209, 204, 218); fill-opacity: 0.505814; fill-rule: evenodd; stroke: none; stroke-width: 1px; stroke-linecap: butt; stroke-linejoin: miter; stroke-opacity: 1;" d="M 579.1639,131.83654 L 579.51949,132.98345 L 579.6311,132.81211 L 579.38281,131.97858 L 579.67225,131.6913 L 579.1639,131.83654 z" id="path4976"/>
      <path sodipodi:nodetypes="cccccc" style="fill: rgb(209, 204, 218); fill-opacity: 0.505814; fill-rule: evenodd; stroke: none; stroke-width: 1px; stroke-linecap: butt; stroke-linejoin: miter; stroke-opacity: 1;" d="M 571.87196,131.75068 L 572.47086,133.05771 L 572.5438,132.96408 L 572.15605,131.98521 L 572.59157,131.87285 L 571.87196,131.75068 z" id="path4978"/>
      <path sodipodi:nodetypes="cccccccc" style="fill: rgb(209, 204, 218); fill-opacity: 0.505814; fill-rule: evenodd; stroke: none; stroke-width: 1px; stroke-linecap: butt; stroke-linejoin: miter; stroke-opacity: 1;" d="M 554.58359,132.49571 L 554.05085,133.02845 L 553.63868,133.08546 L 554.26896,133.62306 L 554.52097,133.6182 L 554.55993,133.29804 L 554.87052,132.8976 L 554.58359,132.49571 z" id="path4980"/>
      <path sodipodi:nodetypes="cccc" style="fill: rgb(209, 204, 218); fill-opacity: 0.505814; fill-rule: evenodd; stroke: none; stroke-width: 1px; stroke-linecap: butt; stroke-linejoin: miter; stroke-opacity: 1;" d="M 531.32056,131.34144 L 530.95864,132.26639 L 531.49759,131.66663 L 531.32056,131.34144 z" id="path4982"/>
      <path sodipodi:nodetypes="ccccc" style="fill: rgb(209, 204, 218); fill-opacity: 0.505814; fill-rule: evenodd; stroke: none; stroke-width: 1px; stroke-linecap: butt; stroke-linejoin: miter; stroke-opacity: 1;" d="M 485.10759,131.98353 L 485.64033,132.13114 L 487.23856,132.04235 L 487.32735,131.80595 L 485.10759,131.98353 z" id="path4984"/>
      <path sodipodi:nodetypes="ccccc" style="fill: rgb(209, 204, 218); fill-opacity: 0.505814; fill-rule: evenodd; stroke: none; stroke-width: 1px; stroke-linecap: butt; stroke-linejoin: miter; stroke-opacity: 1;" d="M 490.56586,131.62837 L 493.5221,132.04615 L 491.95737,132.10118 L 490.98068,131.9236 L 490.56586,131.62837 z" id="path4986"/>
      <path sodipodi:nodetypes="cccccc" style="fill: rgb(209, 204, 218); fill-opacity: 0.505814; fill-rule: evenodd; stroke: none; stroke-width: 1px; stroke-linecap: butt; stroke-linejoin: miter; stroke-opacity: 1;" d="M 472.06665,131.31527 L 472.68818,131.31527 L 473.12186,132.36486 L 473.60693,132.76208 L 472.40125,132.41253 L 472.06665,131.31527 z" id="path4988"/>
      <path sodipodi:nodetypes="cccccc" style="fill: rgb(209, 204, 218); fill-opacity: 0.505814; fill-rule: evenodd; stroke: none; stroke-width: 1px; stroke-linecap: butt; stroke-linejoin: miter; stroke-opacity: 1;" d="M 466.09438,132.07232 L 467.96547,132.22934 L 467.90846,133.38828 L 467.7688,133.22981 L 467.57766,132.45365 L 466.09438,132.07232 z" id="path4990"/>
      <path sodipodi:nodetypes="ccccc" style="fill: rgb(209, 204, 218); fill-opacity: 0.505814; fill-rule: evenodd; stroke: none; stroke-width: 1px; stroke-linecap: butt; stroke-linejoin: miter; stroke-opacity: 1;" d="M 457.45084,130.80497 L 457.71661,131.27387 L 459.2846,131.27415 L 457.80754,131.14215 L 457.45084,130.80497 z" id="path4992"/>
      <path sodipodi:nodetypes="ccccc" style="fill: rgb(209, 204, 218); fill-opacity: 0.505814; fill-rule: evenodd; stroke: none; stroke-width: 1px; stroke-linecap: butt; stroke-linejoin: miter; stroke-opacity: 1;" d="M 520.8641,132.30254 L 525.81692,132.19733 L 525.11058,132.37993 L 523.46154,132.41093 L 520.8641,132.30254 z" id="path4994"/>
    </g>
    <path sodipodi:nodetypes="cccccccc" id="path4998" d="M 428.01672,221.95177 L 428.41957,215.44908 L 427.41245,214.84477 L 429.09393,214.18849 L 430.31691,215.47448 L 429.38526,215.66214 L 429.02619,222.71237 L 428.01672,221.95177 z" style="fill: rgb(39, 47, 55); fill-opacity: 1; fill-rule: evenodd; stroke: none; stroke-width: 1px; stroke-linecap: butt; stroke-linejoin: miter; stroke-opacity: 1;"/>
    <path sodipodi:nodetypes="ccccc" id="path5000" d="M 388.55002,212.36735 L 384.12775,227.79382 L 385.05332,227.58813 L 388.75567,213.80716 L 388.55002,212.36735 z" style="fill: rgb(39, 47, 55); fill-opacity: 1; fill-rule: evenodd; stroke: none; stroke-width: 1px; stroke-linecap: butt; stroke-linejoin: miter; stroke-opacity: 1;"/>
    <path id="path5026" d="M 123.1672,44.173049 C 117.91535,41.375936 122.68166,61.670535 120.05573,67.264732 C 117.60723,72.48086 117.36596,75.485973 117.36596,81.590263 C 117.36596,84.434091 104.99696,75.165592 112.88295,86.365477 C 116.57336,91.606806 122.01993,87.547207 120.05573,95.915822 C 118.67811,101.78548 115.20452,101.5951 116.46935,108.3313 C 116.98623,111.08441 122.56506,114.6321 123.64213,116.92667 C 125.36678,120.60068 130.81625,114.06438 133.50478,119.79175 C 136.2894,125.7241 136.71347,131.57702 141.30664,135.24636 C 145.67273,138.73438 149.64765,138.51677 154.7557,137.15643 C 159.45721,135.90455 161.6909,136.61568 167.30811,138.11154 C 173.13093,139.66208 171.79111,141.36649 171.79111,148.61697 C 171.79111,153.91029 177.21311,156.34751 178.96391,160.07739 C 181.50342,165.48741 178.96391,147.98024 178.96391,141.93165 C 178.96391,136.24817 180.39457,133.52943 184.34354,131.42627 C 185.86958,130.61352 194.83556,134.69776 196.89597,135.24636 C 209.70197,138.65656 199.42913,126.64066 195.29193,124.12419 C 186.15186,118.56469 186.18614,111.95425 192.12761,107.18915 C 196.84191,103.40819 203.81322,97.564816 209.002,94.801285 C 213.23693,92.54583 210.75729,84.117482 209.71585,79.680245 C 210.09507,75.326848 206.43295,72.333371 203.93646,71.6198 C 200.33961,67.788476 191.67233,70.704019 188.0766,66.844613 C 183.35158,61.773066 178.80704,63.344039 172.83436,64.93451 C 165.44339,66.902734 169.70264,71.635554 162.19598,67.637617 C 157.27736,65.018033 155.39355,54.091468 151.43681,51.984136 C 149.64687,51.030856 143.11668,54.849277 140.67758,54.849277 C 137.75088,54.849277 134.04959,45.128114 128.54684,45.128114 C 126.72889,45.128114 124.96039,44.491442 123.1672,44.173049 z" style="fill: rgb(250, 163, 200); fill-opacity: 0.790698; fill-rule: evenodd; stroke: none; stroke-width: 1px; stroke-linecap: butt; stroke-linejoin: miter; stroke-opacity: 1;" sodipodi:nodetypes="cssssssssssssssssssccssssssc"/>
    <path id="path5028" d="M 138.55604,90.207948 C 141.4601,89.010723 146.2132,85.337949 149.78791,83.458317 C 154.38958,81.038668 156.70063,83.978374 158.61292,85.989424 C 161.26577,88.779222 164.00606,85.989424 169.0425,85.989424 C 173.78894,85.989424 177.69717,90.335017 178.6698,94.42647 C 179.74727,98.958865 177.83238,103.19403 176.26299,105.39463 C 174.29866,108.149 175.46069,114.69622 175.46069,118.05019 C 175.46069,122.85132 175.64547,124.65412 172.2516,127.33096 C 169.12823,129.79447 165.63475,132.07579 163.42655,133.2369 C 159.18663,135.46632 157.63018,137.53998 156.20609,131.54948 C 155.39341,128.13085 149.75045,128.979 147.38109,126.48726 C 144.26567,123.21096 144.93614,121.2241 137.75379,123.11244 C 134.97745,123.84237 134.89775,114.03403 135.34695,112.14426 C 136.34836,107.93184 131.79132,107.6961 132.94012,102.86355 C 133.77438,99.354271 136.13672,94.448445 138.55604,90.207948 z" style="fill: rgb(255, 255, 255); fill-opacity: 1; fill-rule: evenodd; stroke: none; stroke-width: 1px; stroke-linecap: butt; stroke-linejoin: miter; stroke-opacity: 1;"/>
    <path style="fill: rgb(255, 255, 255); fill-opacity: 1; fill-rule: evenodd; stroke: none; stroke-width: 1px; stroke-linecap: butt; stroke-linejoin: miter; stroke-opacity: 1;" d="M 133.75911,92.306351 C 133.73683,87.471633 123.24439,79.18415 128.94544,82.18189 C 131.86852,83.718907 143.25584,92.404504 144.99095,94.837459 C 148.11508,99.218044 149.45834,101.40504 153.01373,103.2745 C 156.15721,104.92745 159.84609,107.28895 163.44332,109.18044 C 167.98398,111.56803 170.51146,113.23878 173.87287,116.77376 C 176.96927,120.03011 183.81416,131.4835 183.50017,132.80417 C 182.56474,136.73911 166.49275,123.56536 163.0431,121.75145 C 159.41067,119.84146 160.57164,115.44124 157.0251,111.71158 C 153.19341,107.68202 150.66042,106.70565 147.39779,103.2745 C 144.78373,100.52546 143.03611,97.843897 140.97957,95.681181 C 138.06561,92.616709 139.70746,92.306351 133.75911,92.306351 z" id="path5030" sodipodi:nodetypes="cssssssssssc"/>
    <path id="path5032" d="M 158.93718,108.08143 C 157.16086,108.17978 155.40169,108.35478 153.78132,108.73533 C 149.81514,109.66672 146.97781,110.59644 144.67127,111.96208 C 142.52396,113.23339 139.71103,113.69316 136.55573,114.18635 C 133.98343,115.34331 126.82429,118.20554 123.27828,121.04871 C 121.46548,122.50218 115.22076,125.06442 120.85231,126.10992 C 125.89647,127.04638 129.02407,128.99211 133.23502,127.22166 C 135.75904,126.16049 137.33048,123.19202 140.00277,121.60981 C 143.63054,119.46195 148.60934,119.48082 152.67331,117.77215 C 154.07281,117.18375 155.65035,116.69361 157.29692,116.2563 L 158.93718,108.08143 z" style="fill: rgb(255, 255, 255); fill-opacity: 1; fill-rule: evenodd; stroke: none; stroke-width: 1px; stroke-linecap: butt; stroke-linejoin: miter; stroke-opacity: 1;"/>
    <path id="path5034" d="M 207.58738,89.879242 C 203.60566,90.509291 198.73669,90.248845 194.47967,91.865294 C 188.75082,94.040539 182.65717,93.780524 179.99337,97.192824 C 178.62686,97.108438 172.03347,99.152583 170.79388,100.14158 C 168.45349,101.0302 167.0834,102.38586 164.29597,104.60975 C 161.65674,106.71537 158.92898,109.0729 154.65501,110.32663 C 153.29798,110.72471 152.15928,111.12214 151.06838,111.45779 L 150.89089,114.3324 C 151.89978,113.96943 152.9102,113.57235 153.76441,113.06703 C 159.39126,109.73843 164.67248,107.20303 170.49435,104.99248 C 174.88122,103.32672 181.05851,99.603982 186.37141,97.586647 C 189.9585,96.224624 192.41957,95.656671 196.59789,94.070089 C 199.19397,93.084349 205.37902,91.203161 207.55965,90.328422 L 207.58738,89.879242 z" style="fill: rgb(255, 255, 255); fill-opacity: 1; fill-rule: evenodd; stroke: none; stroke-width: 1px; stroke-linecap: butt; stroke-linejoin: miter; stroke-opacity: 1;"/>
  </g>
  <g inkscape:groupmode="layer" id="layer2" inkscape:label="mask" style="opacity: 0.836538;">
    <rect style="opacity: 1; fill: rgb(255, 255, 255); fill-opacity: 1; stroke: none; stroke-width: 2.2; stroke-linecap: butt; stroke-linejoin: round; stroke-miterlimit: 4; stroke-dasharray: 4.4, 2.2; stroke-dashoffset: 0pt; stroke-opacity: 1;" id="rect5006" width="32.997375" height="487.58118" x="-34.188038" y="-16.734156"/>
    <rect style="opacity: 1; fill: rgb(255, 255, 255); fill-opacity: 1; stroke: none; stroke-width: 2.2; stroke-linecap: butt; stroke-linejoin: round; stroke-miterlimit: 4; stroke-dasharray: 4.4, 2.2; stroke-dashoffset: 0pt; stroke-opacity: 1;" id="rect5008" width="35.825718" height="497.72021" x="452.2876" y="-23.333626"/>
  </g>
</svg>