<?xml version="1.0" encoding="UTF-8" standalone="no"?>
<!-- Created with Inkscape (http://www.inkscape.org/) -->
<svg xmlns:dc="http://purl.org/dc/elements/1.1/" xmlns:cc="http://web.resource.org/cc/" xmlns:rdf="http://www.w3.org/1999/02/22-rdf-syntax-ns#" xmlns:svg="http://www.w3.org/2000/svg" xmlns="http://www.w3.org/2000/svg" xmlns:sodipodi="http://sodipodi.sourceforge.net/DTD/sodipodi-0.dtd" xmlns:inkscape="http://www.inkscape.org/namespaces/inkscape" width="250" height="250" id="svg2568" sodipodi:version="0.32" inkscape:version="0.45.1" version="1.0" sodipodi:docbase="C:\Documents and Settings\JJB\My Documents\My Pictures\Electronics\Illustrations\Packages\USB\Type A Receptacle" sodipodi:docname="Type A Receptacle Dual BW.svg" inkscape:output_extension="org.inkscape.output.svg.inkscape">
  <defs id="defs2570"/>
  <sodipodi:namedview id="base" pagecolor="#ffffff" bordercolor="#666666" borderopacity="1.0" gridtolerance="10000" guidetolerance="10" objecttolerance="10" inkscape:pageopacity="0.0" inkscape:pageshadow="2" inkscape:zoom="1" inkscape:cx="125" inkscape:cy="125" inkscape:document-units="px" inkscape:current-layer="layer1" width="250px" height="250px" inkscape:window-width="1382" inkscape:window-height="874" inkscape:window-x="54" inkscape:window-y="-4"/>
  <metadata id="metadata2573">
    <rdf:RDF>
      <cc:Work rdf:about="">
        <dc:format>image/svg+xml</dc:format>
        <dc:type rdf:resource="http://purl.org/dc/dcmitype/StillImage"/>
      </cc:Work>
    </rdf:RDF>
  </metadata>
  <g inkscape:label="Layer 1" inkscape:groupmode="layer" id="layer1">
    <g style="overflow: visible;" id="g3444" transform="translate(10.6448, 1.52854)">
      <path id="path3029" d="M 133.89,26.861 C 133.176,27.411 131.869,27.48 131.07,27.041 M 143.31,20.501 L 133.83,26.861 M 131.069,27.042 L 125.309,23.682 M 10.17,73.122 C 10.099,71.439 10.751,69.301 12.569,68.802 M 143.729,18.162 L 143.129,18.522 M 134.67,13.602 L 135.21,13.242" stroke-miterlimit="10" style="fill: none; stroke: rgb(0, 0, 0); stroke-width: 1.02; stroke-linecap: round; stroke-linejoin: round; stroke-miterlimit: 10;"/>
      <path id="path3031" d="M 140.61,17.082 L 137.069,14.982 M 131.01,26.381 L 130.95,25.601 M 133.829,26.262 L 133.769,25.422" stroke-miterlimit="10" style="fill: none; stroke: rgb(0, 0, 0); stroke-width: 0.48; stroke-linecap: round; stroke-linejoin: round; stroke-miterlimit: 10;"/>
      <polyline id="polyline3033" points="125.37,23.742 124.95,23.381 124.77,22.961" stroke-miterlimit="10" style="fill: none; stroke: rgb(0, 0, 0); stroke-width: 1.02; stroke-linecap: round; stroke-linejoin: round; stroke-miterlimit: 10;"/>
      <line id="line3035" y2="22.302" x2="125.249" y1="23.142" x1="125.31" stroke-miterlimit="10" style="fill: none; stroke: rgb(0, 0, 0); stroke-width: 0.48; stroke-linecap: round; stroke-linejoin: round; stroke-miterlimit: 10;"/>
      <path id="path3037" d="M 132.39,11.622 L 119.55,19.002 M 119.61,19.001 C 118.876,19.458 118.839,20.16 119.61,20.621 M 119.61,20.622 L 130.95,27.162 M 130.95,27.162 C 131.7,27.634 133.034,27.687 133.769,27.162 M 135.21,13.302 L 135.63,12.942 L 135.81,12.582 L 135.749,12.162 L 135.45,11.802 L 134.97,11.502 L 134.31,11.322 L 133.59,11.322 L 132.93,11.382 L 132.39,11.622 M 133.71,24.941 C 132.956,25.464 131.651,25.545 130.89,25.061 M 130.89,25.062 L 125.19,21.762 M 125.249,21.822 L 124.829,21.522 L 124.649,21.162 L 124.649,20.742 L 124.829,20.382 L 125.249,20.022 M 143.189,18.521 L 133.649,24.941 M 125.249,20.021 L 134.67,13.541" stroke-miterlimit="10" style="fill: none; stroke: rgb(0, 0, 0); stroke-width: 1.02; stroke-linecap: round; stroke-linejoin: round; stroke-miterlimit: 10;"/>
      <line id="line3039" y2="18.702" x2="143.729" y1="19.542" x1="143.729" stroke-miterlimit="10" style="fill: none; stroke: rgb(0, 0, 0); stroke-width: 0.48; stroke-linecap: round; stroke-linejoin: round; stroke-miterlimit: 10;"/>
      <path id="path3041" d="M 133.77,27.162 L 146.55,19.782 M 146.55,19.842 L 146.97,19.482 L 147.15,19.122 L 147.09,18.702 L 146.79,18.342 C 145.796,17.64 144.811,17.762 143.729,18.162" stroke-miterlimit="10" style="fill: none; stroke: rgb(0, 0, 0); stroke-width: 1.02; stroke-linecap: round; stroke-linejoin: round; stroke-miterlimit: 10;"/>
      <line id="line3043" y2="12.162" x2="132.39" y1="13.001" x1="132.39" stroke-miterlimit="10" style="fill: none; stroke: rgb(0, 0, 0); stroke-width: 0.48; stroke-linecap: round; stroke-linejoin: round; stroke-miterlimit: 10;"/>
      <polyline id="polyline3045" points="146.13,20.082 145.53,19.901 144.87,19.901 144.27,20.021 143.729,20.202" stroke-miterlimit="10" style="fill: none; stroke: rgb(0, 0, 0); stroke-width: 1.02; stroke-linecap: round; stroke-linejoin: round; stroke-miterlimit: 10;"/>
      <line id="line3047" y2="19.421" x2="119.61" y1="20.082001" x1="119.61" stroke-miterlimit="10" style="fill: none; stroke: rgb(0, 0, 0); stroke-width: 0.48; stroke-linecap: round; stroke-linejoin: round; stroke-miterlimit: 10;"/>
      <path id="path3049" d="M 46.05,75.762 L 37.83,70.962 M 44.85,77.921 L 36.57,73.121 M 52.649,79.542 L 49.889,77.922 M 50.189,80.981 L 48.629,80.081 M 37.89,71.021 L 36.63,70.241 M 36.63,73.182 L 35.37,72.462 M 39.93,72.222 L 40.53,72.402 L 41.19,72.342 L 41.97,71.982 L 42.69,71.502 L 43.35,70.782 L 43.95,69.882 M 134.85,13.542 L 134.19,13.362 L 133.531,13.362 L 132.93,13.482 L 132.39,13.662 M 132.39,13.662 L 119.91,20.862" stroke-miterlimit="10" style="fill: none; stroke: rgb(0, 0, 0); stroke-width: 1.02; stroke-linecap: round; stroke-linejoin: round; stroke-miterlimit: 10;"/>
      <line id="line3051" y2="71.561996" x2="37.470001" y1="72.460999" x1="36.988998" stroke-miterlimit="10" style="fill: none; stroke: rgb(0, 0, 0); stroke-width: 0.48; stroke-linecap: round; stroke-linejoin: round; stroke-miterlimit: 10;"/>
      <line id="line3053" y2="77.861" x2="44.790001" y1="80.141998" x1="48.688999" stroke-miterlimit="10" style="fill: none; stroke: rgb(0, 0, 0); stroke-width: 1.02; stroke-linecap: round; stroke-linejoin: round; stroke-miterlimit: 10;"/>
      <line id="line3055" y2="78.582001" x2="49.59" y1="79.481003" x1="49.109001" stroke-miterlimit="10" style="fill: none; stroke: rgb(0, 0, 0); stroke-width: 0.48; stroke-linecap: round; stroke-linejoin: round; stroke-miterlimit: 10;"/>
      <line id="line3057" y2="75.702003" x2="45.988998" y1="77.981003" x1="49.949001" stroke-miterlimit="10" style="fill: none; stroke: rgb(0, 0, 0); stroke-width: 1.02; stroke-linecap: round; stroke-linejoin: round; stroke-miterlimit: 10;"/>
      <line id="line3059" y2="76.302002" x2="45.688999" y1="77.262001" x1="45.209999" stroke-miterlimit="10" style="fill: none; stroke: rgb(0, 0, 0); stroke-width: 0.48; stroke-linecap: round; stroke-linejoin: round; stroke-miterlimit: 10;"/>
      <path id="path3061" d="M 48.63,63.941 L 47.609,64.781 L 46.649,65.801 L 45.75,66.941 L 44.97,68.141 M 48.63,63.941 L 49.35,63.341 M 57.689,75.521 L 58.469,74.261 L 59.429,73.121 L 60.389,72.161 L 61.41,71.321 M 62.25,72.881 L 61.529,73.181 M 59.25,75.762 L 59.97,74.802 L 60.75,73.902 L 61.59,73.182" stroke-miterlimit="10" style="fill: none; stroke: rgb(0, 0, 0); stroke-width: 1.02; stroke-linecap: round; stroke-linejoin: round; stroke-miterlimit: 10;"/>
      <line id="line3063" y2="71.802002" x2="61.470001" y1="72.582001" x1="61.528999" stroke-miterlimit="10" style="fill: none; stroke: rgb(0, 0, 0); stroke-width: 0.48; stroke-linecap: round; stroke-linejoin: round; stroke-miterlimit: 10;"/>
      <line id="line3065" y2="68.082001" x2="44.970001" y1="69.880997" x1="43.949001" stroke-miterlimit="10" style="fill: none; stroke: rgb(0, 0, 0); stroke-width: 1.02; stroke-linecap: round; stroke-linejoin: round; stroke-miterlimit: 10;"/>
      <line id="line3067" y2="73.361" x2="53.970001" y1="70.361" x1="48.75" stroke-miterlimit="10" style="fill: none; stroke: rgb(0, 0, 0); stroke-width: 0.48; stroke-linecap: round; stroke-linejoin: round; stroke-miterlimit: 10;"/>
      <path id="path3069" d="M 66.33,47.142 L 53.85,54.342 M 53.91,54.342 L 53.309,54.702 M 53.37,54.702 L 46.41,61.782 M 46.47,61.782 L 45.93,62.142 M 49.35,63.401 L 56.19,56.321 M 56.189,56.381 L 56.729,55.901 M 56.729,55.961 L 69.149,48.701 M 69.149,48.762 L 69.569,48.462 L 69.75,48.042 L 69.689,47.682 L 69.389,47.322 C 68.667,46.694 67.137,46.601 66.329,47.142 M 29.069,71.921 L 28.469,72.341 M 57.689,75.521 L 56.669,77.201" stroke-miterlimit="10" style="fill: none; stroke: rgb(0, 0, 0); stroke-width: 1.02; stroke-linecap: round; stroke-linejoin: round; stroke-miterlimit: 10;"/>
      <path id="path3071" d="M 29.069,72.401 L 29.069,72.101 M 45.989,63.582 L 45.989,62.682 M 46.47,63.162 L 46.47,62.322 M 53.37,56.082 L 53.37,55.242" stroke-miterlimit="10" style="fill: none; stroke: rgb(0, 0, 0); stroke-width: 0.48; stroke-linecap: round; stroke-linejoin: round; stroke-miterlimit: 10;"/>
      <line id="line3073" y2="71.920998" x2="29.01" y1="62.141998" x1="45.988998" stroke-miterlimit="10" style="fill: none; stroke: rgb(0, 0, 0); stroke-width: 1.02; stroke-linecap: round; stroke-linejoin: round; stroke-miterlimit: 10;"/>
      <path id="path3075" d="M 53.91,55.722 L 53.91,54.882 M 66.33,48.521 L 66.33,47.681" stroke-miterlimit="10" style="fill: none; stroke: rgb(0, 0, 0); stroke-width: 0.48; stroke-linecap: round; stroke-linejoin: round; stroke-miterlimit: 10;"/>
      <path id="path3077" d="M 77.97,68.202 L 90.39,61.002 M 90.39,61.062 L 90.81,60.702 L 90.99,60.342 L 90.93,59.922 L 90.63,59.562 C 89.727,58.818 88.581,59.038 87.569,59.382 M 87.569,59.381 L 75.09,66.581 M 75.149,66.582 L 74.37,66.882 M 47.489,82.542 L 64.41,72.762 M 64.41,72.822 L 65.069,72.462 M 65.069,72.521 L 77.25,68.441 M 77.25,68.501 L 77.97,68.141 M 46.77,82.901 L 47.49,82.481 M 45.989,64.242 L 30.149,73.302 M 46.47,63.822 L 45.93,64.242 M 53.37,56.742 L 46.41,63.822 M 53.91,56.381 L 53.309,56.741 M 66.33,49.182 L 53.85,56.382 M 68.729,49.001 L 68.129,48.881 L 67.469,48.881 L 66.869,48.941 L 66.329,49.181" stroke-miterlimit="10" style="fill: none; stroke: rgb(0, 0, 0); stroke-width: 1.02; stroke-linecap: round; stroke-linejoin: round; stroke-miterlimit: 10;"/>
      <line id="line3079" y2="67.420998" x2="74.43" y1="68.262001" x1="74.43" stroke-miterlimit="10" style="fill: none; stroke: rgb(0, 0, 0); stroke-width: 0.48; stroke-linecap: round; stroke-linejoin: round; stroke-miterlimit: 10;"/>
      <path id="path3081" d="M 52.71,190.002 L 53.25,189.102 L 53.97,188.382 L 54.69,187.842 L 55.411,187.542 L 56.131,187.481 L 56.671,187.661 M 51.449,189.281 C 52.423,187.365 55.482,184.178 57.929,185.502 M 45.21,178.121 C 42.867,176.858 39.636,179.987 38.67,181.901 M 75.149,68.622 L 74.37,68.922 M 87.569,61.481 L 75.09,68.621 M 90.029,61.302 L 89.37,61.122 L 88.77,61.122 L 88.11,61.242 L 87.57,61.482 M 74.43,68.921 L 62.19,72.881 M 74.43,66.881 L 62.19,70.841 M 62.25,72.881 L 62.25,70.781" stroke-miterlimit="10" style="fill: none; stroke: rgb(0, 0, 0); stroke-width: 1.02; stroke-linecap: round; stroke-linejoin: round; stroke-miterlimit: 10;"/>
      <line id="line3083" y2="184.002" x2="42.389999" y1="187.062" x1="47.669998" stroke-miterlimit="10" style="fill: none; stroke: rgb(0, 0, 0); stroke-width: 0.48; stroke-linecap: round; stroke-linejoin: round; stroke-miterlimit: 10;"/>
      <path id="path3085" d="M 44.85,195.462 L 46.05,196.182 M 46.05,196.182 C 47.517,196.976 49.196,196.09 49.949,194.742 M 44.85,195.462 C 46.245,196.282 47.991,195.314 48.69,194.022 M 35.97,186.642 C 35.156,187.885 35.186,189.94 36.63,190.722 M 38.67,181.901 L 35.91,186.641 M 49.949,194.741 L 52.71,189.941 M 46.229,178.722 L 47.009,178.962 L 47.909,178.962 L 48.869,178.661 M 36.63,190.722 L 44.85,195.462" stroke-miterlimit="10" style="fill: none; stroke: rgb(0, 0, 0); stroke-width: 1.02; stroke-linecap: round; stroke-linejoin: round; stroke-miterlimit: 10;"/>
      <line id="line3087" y2="194.502" x2="49.59" y1="194.26199" x1="49.109001" stroke-miterlimit="10" style="fill: none; stroke: rgb(0, 0, 0); stroke-width: 0.48; stroke-linecap: round; stroke-linejoin: round; stroke-miterlimit: 10;"/>
      <path id="path3089" d="M 61.41,188.201 L 60.389,188.561 L 59.429,188.681 L 58.469,188.561 L 57.689,188.261 M 49.35,178.361 L 48.81,178.661 M 48.689,194.021 L 51.449,189.221" stroke-miterlimit="10" style="fill: none; stroke: rgb(0, 0, 0); stroke-width: 1.02; stroke-linecap: round; stroke-linejoin: round; stroke-miterlimit: 10;"/>
      <line id="line3091" y2="186.521" x2="61.59" y1="186.28101" x1="61.59" stroke-miterlimit="10" style="fill: none; stroke: rgb(0, 0, 0); stroke-width: 0.48; stroke-linecap: round; stroke-linejoin: round; stroke-miterlimit: 10;"/>
      <path id="path3093" d="M 54.51,173.021 L 49.29,178.361 M 46.47,178.781 L 52.949,172.061 M 28.649,189.222 L 29.069,188.862 M 29.069,188.922 L 37.41,184.062 M 46.41,178.842 L 46.47,178.722 M 56.67,187.661 L 57.69,188.262 M 57.93,185.502 L 58.95,186.102" stroke-miterlimit="10" style="fill: none; stroke: rgb(0, 0, 0); stroke-width: 1.02; stroke-linecap: round; stroke-linejoin: round; stroke-miterlimit: 10;"/>
      <line id="line3095" y2="180.46201" x2="53.069" y1="183.582" x1="58.41" stroke-miterlimit="10" style="fill: none; stroke: rgb(0, 0, 0); stroke-width: 0.48; stroke-linecap: round; stroke-linejoin: round; stroke-miterlimit: 10;"/>
      <path id="path3097" d="M 15.33,77.861 L 16.949,78.941 M 16.949,78.941 L 16.47,79.121 M 15.93,78.762 L 15.21,78.342 M 16.529,98.742 L 16.949,98.382 M 42.93,197.502 L 29.01,189.462 M 47.489,197.502 C 46.324,198.222 44.093,198.222 42.929,197.502 M 74.31,184.422 L 65.01,187.422 M 64.41,187.722 L 47.43,197.502 M 65.069,187.422 L 64.349,187.722 M 62.25,185.802 L 71.489,182.802 M 62.25,185.802 L 62.25,187.842" stroke-miterlimit="10" style="fill: none; stroke: rgb(0, 0, 0); stroke-width: 1.02; stroke-linecap: round; stroke-linejoin: round; stroke-miterlimit: 10;"/>
      <line id="line3099" y2="83.380997" x2="16.948999" y1="93.880997" x1="16.948999" stroke-miterlimit="10" style="fill: none; stroke: rgb(0, 0, 0); stroke-width: 0.48; stroke-linecap: round; stroke-linejoin: round; stroke-miterlimit: 10;"/>
      <path id="path3101" d="M 16.949,78.941 L 22.529,76.841 M 20.729,75.881 L 15.269,77.861 M 26.67,92.562 L 15.27,100.602 M 30.39,90.342 L 16.89,98.442" stroke-miterlimit="10" style="fill: none; stroke: rgb(0, 0, 0); stroke-width: 1.02; stroke-linecap: round; stroke-linejoin: round; stroke-miterlimit: 10;"/>
      <line id="line3103" y2="101.082" x2="15.689" y1="101.501" x1="16.290001" stroke-miterlimit="10" style="fill: none; stroke: rgb(0, 0, 0); stroke-width: 0.48; stroke-linecap: round; stroke-linejoin: round; stroke-miterlimit: 10;"/>
      <path id="path3105" d="M 15.33,145.422 L 16.949,146.562 M 16.949,146.562 L 16.47,146.682 M 15.93,146.382 L 15.21,145.962 M 16.529,166.302 L 16.949,165.942 M 34.229,98.562 L 35.79,97.602 M 16.529,79.122 L 15.87,78.702" stroke-miterlimit="10" style="fill: none; stroke: rgb(0, 0, 0); stroke-width: 1.02; stroke-linecap: round; stroke-linejoin: round; stroke-miterlimit: 10;"/>
      <line id="line3107" y2="151.002" x2="16.948999" y1="161.44099" x1="16.948999" stroke-miterlimit="10" style="fill: none; stroke: rgb(0, 0, 0); stroke-width: 0.48; stroke-linecap: round; stroke-linejoin: round; stroke-miterlimit: 10;"/>
      <path id="path3109" d="M 24.09,139.962 L 16.77,143.262 M 16.83,143.262 L 16.35,143.621 L 15.871,144.101 L 15.511,144.701 L 15.331,145.302 C 15.105,146.157 15.472,147.152 16.53,146.682 M 26.67,160.182 L 15.27,168.161 M 16.529,146.682 L 15.87,146.322 M 16.949,146.562 L 26.429,142.962 M 26.43,141.342 L 15.27,145.422 M 29.43,158.502 L 16.89,166.002" stroke-miterlimit="10" style="fill: none; stroke: rgb(0, 0, 0); stroke-width: 1.02; stroke-linecap: round; stroke-linejoin: round; stroke-miterlimit: 10;"/>
      <line id="line3111" y2="168.642" x2="15.689" y1="169.062" x1="16.290001" stroke-miterlimit="10" style="fill: none; stroke: rgb(0, 0, 0); stroke-width: 0.48; stroke-linecap: round; stroke-linejoin: round; stroke-miterlimit: 10;"/>
      <path id="path3113" d="M 68.79,186.222 L 68.55,185.742 M 16.83,169.361 L 30.989,159.341 M 16.529,166.302 L 16.05,166.722 L 15.63,167.262 L 15.39,167.922 L 15.27,168.522 C 15.278,169.621 15.871,169.994 16.831,169.362" stroke-miterlimit="10" style="fill: none; stroke: rgb(0, 0, 0); stroke-width: 1.02; stroke-linecap: round; stroke-linejoin: round; stroke-miterlimit: 10;"/>
      <line id="line3115" y2="151.121" x2="16.528999" y1="161.741" x1="16.528999" stroke-miterlimit="10" style="fill: none; stroke: rgb(0, 0, 0); stroke-width: 0.48; stroke-linecap: round; stroke-linejoin: round; stroke-miterlimit: 10;"/>
      <path id="path3117" d="M 16.529,98.742 L 16.05,99.162 L 15.63,99.702 L 15.39,100.362 L 15.27,100.962 L 15.331,101.502 L 15.511,101.862 L 15.871,102.042 L 16.35,102.042 L 16.83,101.802 M 18.87,74.802 L 16.769,75.702 M 49.17,61.062 L 49.23,61.122 M 16.83,75.702 L 16.35,76.002 L 15.871,76.542 L 15.511,77.082 L 15.331,77.742 C 15.105,78.598 15.472,79.593 16.53,79.122 M 34.229,95.682 L 36.929,94.062 M 34.229,99.461 L 34.229,95.621" stroke-miterlimit="10" style="fill: none; stroke: rgb(0, 0, 0); stroke-width: 1.02; stroke-linecap: round; stroke-linejoin: round; stroke-miterlimit: 10;"/>
      <line id="line3119" y2="83.561996" x2="16.528999" y1="94.181999" x1="16.528999" stroke-miterlimit="10" style="fill: none; stroke: rgb(0, 0, 0); stroke-width: 0.48; stroke-linecap: round; stroke-linejoin: round; stroke-miterlimit: 10;"/>
      <path id="path3121" d="M 61.529,188.142 L 62.25,187.782 M 57.93,185.502 L 45.15,178.062 M 62.25,187.842 L 73.71,184.121 M 16.83,101.802 L 31.89,91.182" stroke-miterlimit="10" style="fill: none; stroke: rgb(0, 0, 0); stroke-width: 1.02; stroke-linecap: round; stroke-linejoin: round; stroke-miterlimit: 10;"/>
      <line id="line3123" y2="187.78101" x2="61.470001" y1="187.241" x1="61.470001" stroke-miterlimit="10" style="fill: none; stroke: rgb(0, 0, 0); stroke-width: 0.48; stroke-linecap: round; stroke-linejoin: round; stroke-miterlimit: 10;"/>
      <path id="path3125" d="M 61.59,186.042 L 60.63,186.342 L 59.73,186.342 L 58.95,186.102 M 61.41,188.201 L 61.529,188.082 M 61.59,186.042 L 62.25,185.741" stroke-miterlimit="10" style="fill: none; stroke: rgb(0, 0, 0); stroke-width: 1.02; stroke-linecap: round; stroke-linejoin: round; stroke-miterlimit: 10;"/>
      <line id="line3127" y2="68.681999" x2="58.470001" y1="65.622002" x1="53.130001" stroke-miterlimit="10" style="fill: none; stroke: rgb(0, 0, 0); stroke-width: 0.48; stroke-linecap: round; stroke-linejoin: round; stroke-miterlimit: 10;"/>
      <path id="path3129" d="M 105.63,96.822 L 104.609,97.662 L 103.649,98.682 L 102.75,99.822 L 101.97,101.082 M 105.87,98.742 L 105.029,99.462 L 104.189,100.302 L 103.469,101.322 M 105.87,98.742 L 106.47,98.382 M 93.569,88.961 L 92.849,89.501 M 105.63,96.822 L 106.47,96.342 M 89.189,93.702 L 89.969,92.442 L 90.869,91.302 L 91.889,90.342 L 92.91,89.502 M 70.17,185.802 L 69.93,185.262" stroke-miterlimit="10" style="fill: none; stroke: rgb(0, 0, 0); stroke-width: 1.02; stroke-linecap: round; stroke-linejoin: round; stroke-miterlimit: 10;"/>
      <line id="line3131" y2="91.061996" x2="97.290001" y1="94.181999" x1="102.63" stroke-miterlimit="10" style="fill: none; stroke: rgb(0, 0, 0); stroke-width: 0.48; stroke-linecap: round; stroke-linejoin: round; stroke-miterlimit: 10;"/>
      <path id="path3133" d="M 176.67,206.621 L 182.67,225.941 M 162.39,211.481 L 160.59,210.401 M 176.31,203.502 L 176.371,205.062 L 176.671,206.622 M 163.229,214.361 L 162.689,212.981 L 162.389,211.481 M 214.17,207.042 L 205.59,189.042 M 163.229,214.361 L 161.669,214.481 M 161.729,214.481 L 161.009,212.502 L 160.649,210.462 M 220.229,178.121 L 220.29,179.682 L 220.59,181.242 M 207.208,188.981 L 206.61,187.601 L 206.368,186.161 M 210.868,218.021 L 214.59,211.901 M 166.95,243.342 L 170.67,237.281 M 207.208,188.981 L 205.59,189.101 M 205.648,189.102 L 204.929,187.182 L 204.569,185.142 M 216.148,213.882 C 217.386,211.991 216.545,208.74 215.669,206.861 M 214.59,211.962 L 215.129,212.621 M 214.59,211.962 C 215.507,210.633 214.767,208.359 214.17,207.042 M 226.59,200.621 C 227.311,203.016 227.657,205.965 226.111,208.121 M 160.59,192.462 L 160.65,193.002 M 172.229,239.262 C 173.42,237.221 172.646,234.245 171.749,232.241 M 170.67,237.342 L 171.21,238.002 M 170.67,237.342 C 171.551,236.246 170.84,233.442 170.19,232.362 M 182.67,225.941 C 183.374,228.333 183.741,231.349 182.19,233.502 M 105.81,198.222 L 106.831,198.882 M 106.83,218.441 L 107.37,218.021 M 135.569,144.401 L 137.309,145.422 M 107.37,198.582 L 106.77,198.882 M 140.43,180.401 L 142.111,179.741 M 142.11,189.762 L 140.37,190.782 M 105.689,130.602 L 106.83,131.262 M 106.83,150.882 L 107.37,150.402 M 107.37,131.021 L 106.77,131.261 M 140.43,112.842 L 142.111,112.122 M 142.11,122.201 L 140.37,123.222 M 93.09,204.222 L 92.13,204.522 L 91.23,204.522 L 90.45,204.282 M 89.43,203.682 L 98.85,209.142 M 93.09,204.222 L 93.569,203.862" stroke-miterlimit="10" style="fill: none; stroke: rgb(0, 0, 0); stroke-width: 1.02; stroke-linecap: round; stroke-linejoin: round; stroke-miterlimit: 10;"/>
      <line id="line3135" y2="212.082" x2="167.069" y1="208.901" x1="172.71001" stroke-miterlimit="10" style="fill: none; stroke: rgb(0, 0, 0); stroke-width: 0.48; stroke-linecap: round; stroke-linejoin: round; stroke-miterlimit: 10;"/>
      <path id="path3137" d="M 170.189,232.361 L 161.669,214.422 M 215.67,206.861 L 207.149,188.922 M 171.749,232.241 L 163.17,214.302" stroke-miterlimit="10" style="fill: none; stroke: rgb(0, 0, 0); stroke-width: 1.02; stroke-linecap: round; stroke-linejoin: round; stroke-miterlimit: 10;"/>
      <line id="line3139" y2="230.382" x2="174.87" y1="227.802" x1="179.368" stroke-miterlimit="10" style="fill: none; stroke: rgb(0, 0, 0); stroke-width: 0.48; stroke-linecap: round; stroke-linejoin: round; stroke-miterlimit: 10;"/>
      <line id="line3141" y2="183.04201" x2="204.569" y1="185.142" x1="204.569" stroke-miterlimit="10" style="fill: none; stroke: rgb(0, 0, 0); stroke-width: 1.02; stroke-linecap: round; stroke-linejoin: round; stroke-miterlimit: 10;"/>
      <line id="line3143" y2="193.241" x2="161.13" y1="193.661" x1="161.85001" stroke-miterlimit="10" style="fill: none; stroke: rgb(0, 0, 0); stroke-width: 0.48; stroke-linecap: round; stroke-linejoin: round; stroke-miterlimit: 10;"/>
      <path id="path3145" d="M 162.39,211.481 L 162.39,193.961 M 156.03,200.682 L 156.689,200.202 L 157.169,199.543 L 157.589,198.702 L 157.828,197.742 L 157.889,196.602 M 139.71,191.382 L 143.67,193.661 M 206.368,186.161 L 204.509,185.082 M 206.368,186.161 L 206.368,182.021 M 206.368,182.082 L 176.249,199.422 M 176.31,199.422 L 176.31,203.502" stroke-miterlimit="10" style="fill: none; stroke: rgb(0, 0, 0); stroke-width: 1.02; stroke-linecap: round; stroke-linejoin: round; stroke-miterlimit: 10;"/>
      <line id="line3147" y2="229.842" x2="96.75" y1="229.18201" x1="97.948997" stroke-miterlimit="10" style="fill: none; stroke: rgb(0, 0, 0); stroke-width: 0.48; stroke-linecap: round; stroke-linejoin: round; stroke-miterlimit: 10;"/>
      <path id="path3149" d="M 213.93,47.262 C 217.389,49.333 220.268,54.135 220.23,58.182" stroke-miterlimit="10" style="fill: none; stroke: rgb(0, 0, 0); stroke-width: 1.02; stroke-linecap: round; stroke-linejoin: round; stroke-miterlimit: 10;"/>
      <line id="line3151" y2="49.480999" x2="210.03" y1="113.082" x1="99.93" stroke-miterlimit="10" style="fill: none; stroke: rgb(0, 0, 0); stroke-width: 0.48; stroke-linecap: round; stroke-linejoin: round; stroke-miterlimit: 10;"/>
      <line id="line3153" y2="1.302" x2="134.37" y1="47.262001" x1="213.92999" stroke-miterlimit="10" style="fill: none; stroke: rgb(0, 0, 0); stroke-width: 1.02; stroke-linecap: round; stroke-linejoin: round; stroke-miterlimit: 10;"/>
      <line id="line3155" y2="198.821" x2="153.989" y1="224.382" x1="109.77" stroke-miterlimit="10" style="fill: none; stroke: rgb(0, 0, 0); stroke-width: 0.48; stroke-linecap: round; stroke-linejoin: round; stroke-miterlimit: 10;"/>
      <line id="line3157" y2="178.121" x2="220.229" y1="58.181999" x1="220.229" stroke-miterlimit="10" style="fill: none; stroke: rgb(0, 0, 0); stroke-width: 1.02; stroke-linecap: round; stroke-linejoin: round; stroke-miterlimit: 10;"/>
      <path id="path3159" d="M 223.35,202.481 L 218.79,205.061 M 172.35,205.781 L 166.23,209.261 M 216.269,60.461 L 106.11,124.061" stroke-miterlimit="10" style="fill: none; stroke: rgb(0, 0, 0); stroke-width: 0.48; stroke-linecap: round; stroke-linejoin: round; stroke-miterlimit: 10;"/>
      <line id="line3161" y2="192.94099" x2="160.649" y1="210.46201" x1="160.649" stroke-miterlimit="10" style="fill: none; stroke: rgb(0, 0, 0); stroke-width: 1.02; stroke-linecap: round; stroke-linejoin: round; stroke-miterlimit: 10;"/>
      <line id="line3163" y2="183.882" x2="210.20799" y1="180.401" x1="216.269" stroke-miterlimit="10" style="fill: none; stroke: rgb(0, 0, 0); stroke-width: 0.48; stroke-linecap: round; stroke-linejoin: round; stroke-miterlimit: 10;"/>
      <line id="line3165" y2="212.562" x2="215.069" y1="213.882" x1="216.14799" stroke-miterlimit="10" style="fill: none; stroke: rgb(0, 0, 0); stroke-width: 1.02; stroke-linecap: round; stroke-linejoin: round; stroke-miterlimit: 10;"/>
      <line id="line3167" y2="186.701" x2="211.05" y1="183.521" x1="216.629" stroke-miterlimit="10" style="fill: none; stroke: rgb(0, 0, 0); stroke-width: 0.48; stroke-linecap: round; stroke-linejoin: round; stroke-miterlimit: 10;"/>
      <path id="path3169" d="M 215.67,206.861 L 214.59,206.981 M 220.59,181.241 L 226.59,200.621" stroke-miterlimit="10" style="fill: none; stroke: rgb(0, 0, 0); stroke-width: 1.02; stroke-linecap: round; stroke-linejoin: round; stroke-miterlimit: 10;"/>
      <path id="path3171" d="M 141.149,16.722 L 137.61,14.682 M 11.91,172.002 L 11.91,78.582 M 51.569,204.701 L 20.309,186.641 M 47.729,72.102 L 52.949,75.102" stroke-miterlimit="10" style="fill: none; stroke: rgb(0, 0, 0); stroke-width: 0.48; stroke-linecap: round; stroke-linejoin: round; stroke-miterlimit: 10;"/>
      <path id="path3173" d="M 56.91,207.762 C 54.84,208.897 52.945,212.184 53.01,214.542" stroke-miterlimit="10" style="fill: none; stroke: rgb(0, 0, 0); stroke-width: 1.02; stroke-linecap: round; stroke-linejoin: round; stroke-miterlimit: 10;"/>
      <line id="line3175" y2="216.701" x2="56.849998" y1="234.821" x1="88.109001" stroke-miterlimit="10" style="fill: none; stroke: rgb(0, 0, 0); stroke-width: 0.48; stroke-linecap: round; stroke-linejoin: round; stroke-miterlimit: 10;"/>
      <path id="path3177" d="M 100.47,232.182 L 99.81,231.702 L 99.27,231.162 L 98.97,230.562 L 98.85,229.962 M 102.27,126.281 C 101.077,126.996 101.08,128.028 102.27,128.741 M 92.069,241.182 L 93.809,240.102 M 53.01,218.621 L 92.07,241.182 M 92.069,241.182 L 92.069,237.042 M 93.81,240.161 L 93.81,236.021 M 53.01,214.542 L 53.01,218.621 M 95.97,232.361 L 95.97,230.261 M 92.069,237.102 C 91.978,234.783 93.924,231.427 95.969,230.322 M 93.81,236.082 C 93.911,234.593 94.714,233.179 95.97,232.361" stroke-miterlimit="10" style="fill: none; stroke: rgb(0, 0, 0); stroke-width: 1.02; stroke-linecap: round; stroke-linejoin: round; stroke-miterlimit: 10;"/>
      <line id="line3179" y2="227.68201" x2="100.47" y1="134.321" x1="100.47" stroke-miterlimit="10" style="fill: none; stroke: rgb(0, 0, 0); stroke-width: 0.48; stroke-linecap: round; stroke-linejoin: round; stroke-miterlimit: 10;"/>
      <path id="path3181" d="M 93.81,110.082 L 14.25,64.122 M 104.01,234.281 L 105.81,233.141 M 93.81,114.162 C 93.919,115.588 94.729,116.034 95.97,115.362 M 95.97,230.321 L 96.81,230.741 L 97.59,230.922 L 98.37,230.922 L 99.029,230.741 M 95.97,232.361 C 97.378,233.264 99.518,233.674 100.89,232.481 M 104.01,131.802 L 105.81,130.722 M 104.01,131.802 L 100.41,129.701 M 105.81,130.781 L 102.21,128.681 M 104.01,234.281 L 104.01,131.741 M 100.47,232.182 L 104.01,234.282 M 105.81,233.201 L 105.81,130.722 M 100.47,125.262 C 98.312,126.531 98.315,128.494 100.47,129.762 M 102.27,126.281 L 100.411,125.201" stroke-miterlimit="10" style="fill: none; stroke: rgb(0, 0, 0); stroke-width: 1.02; stroke-linecap: round; stroke-linejoin: round; stroke-miterlimit: 10;"/>
      <line id="line3183" y2="112.901" x2="88.169998" y1="71.561996" x1="16.528999" stroke-miterlimit="10" style="fill: none; stroke: rgb(0, 0, 0); stroke-width: 0.48; stroke-linecap: round; stroke-linejoin: round; stroke-miterlimit: 10;"/>
      <path id="path3185" d="M 174.989,52.361 L 180.63,55.661 M 174.39,51.582 L 174.57,52.002 L 174.99,52.362 M 192.749,47.142 L 193.29,46.782 M 192.929,49.122 L 193.29,48.822 M 184.829,41.921 L 184.17,42.281 M 92.069,111.102 L 93.809,110.022 M 92.069,115.182 L 92.069,111.042 M 102.27,126.281 C 102.124,121.967 99.592,117.687 95.97,115.361 M 100.47,125.262 C 100.56,122.361 98.42,118.901 95.97,117.402 M 85.83,191.082 L 56.85,207.762 M 93.81,114.162 L 93.81,110.022 M 95.97,115.361 L 95.97,117.401 M 92.069,115.182 C 92.065,117.609 93.77,118.713 95.969,117.402 M 92.069,111.102 L 12.509,65.142" stroke-miterlimit="10" style="fill: none; stroke: rgb(0, 0, 0); stroke-width: 1.02; stroke-linecap: round; stroke-linejoin: round; stroke-miterlimit: 10;"/>
      <line id="line3187" y2="50.921001" x2="174.87" y1="51.762001" x1="174.92999" stroke-miterlimit="10" style="fill: none; stroke: rgb(0, 0, 0); stroke-width: 0.48; stroke-linecap: round; stroke-linejoin: round; stroke-miterlimit: 10;"/>
      <line id="line3189" y2="49.062" x2="192.929" y1="55.542" x1="183.448" stroke-miterlimit="10" style="fill: none; stroke: rgb(0, 0, 0); stroke-width: 1.02; stroke-linecap: round; stroke-linejoin: round; stroke-miterlimit: 10;"/>
      <path id="path3191" d="M 186.81,43.722 L 190.29,45.702 M 180.569,55.001 L 180.508,54.221 M 183.448,54.881 L 183.388,54.101" stroke-miterlimit="10" style="fill: none; stroke: rgb(0, 0, 0); stroke-width: 0.48; stroke-linecap: round; stroke-linejoin: round; stroke-miterlimit: 10;"/>
      <path id="path3193" d="M 169.229,47.622 L 181.948,40.242 M 169.229,49.302 C 168.387,48.705 168.387,48.219 169.229,47.622 M 180.569,55.842 L 169.17,49.242 M 183.389,55.842 C 182.46,56.265 181.497,56.265 180.57,55.842 M 196.17,48.461 L 183.329,55.841 M 174.81,50.441 L 180.509,53.681 M 174.81,48.642 C 174.099,49.167 174.01,49.96 174.81,50.442 M 193.29,46.842 L 193.889,46.602 L 194.549,46.482 L 195.269,46.542 L 195.869,46.662 C 196.807,47.131 197.063,47.75 196.171,48.462 M 183.329,53.562 L 192.749,47.082 M 180.509,53.682 C 181.357,54.218 182.495,54.041 183.329,53.562 M 184.229,42.282 L 174.749,48.642 M 180.63,55.662 C 181.518,56.07 182.607,56.053 183.448,55.542" stroke-miterlimit="10" style="fill: none; stroke: rgb(0, 0, 0); stroke-width: 1.02; stroke-linecap: round; stroke-linejoin: round; stroke-miterlimit: 10;"/>
      <path id="path3195" d="M 193.29,48.222 L 193.29,47.382 M 169.229,48.762 L 169.229,48.042 M 181.948,41.682 L 181.948,40.842" stroke-miterlimit="10" style="fill: none; stroke: rgb(0, 0, 0); stroke-width: 0.48; stroke-linecap: round; stroke-linejoin: round; stroke-miterlimit: 10;"/>
      <path id="path3197" d="M 92.97,105.702 L 94.41,106.542 M 80.91,95.861 L 82.109,96.581 M 79.71,98.021 L 80.85,98.741 M 90.33,101.322 L 94.17,103.542 M 82.109,96.582 L 90.33,101.322 M 80.85,98.742 L 89.07,103.482 M 94.17,103.542 L 96.93,105.102 M 88.17,95.441 L 87.63,96.281 L 86.91,97.001 L 86.189,97.541 L 85.469,97.841 L 84.749,97.961 L 84.209,97.781 M 193.29,48.881 L 193.829,48.641 L 194.489,48.521 L 195.148,48.521 L 195.749,48.701 M 169.59,49.481 L 181.948,42.281 M 181.948,42.342 L 182.489,42.102 L 183.148,41.982 L 183.809,41.982 L 184.409,42.162 M 181.948,40.302 L 182.549,40.062 L 183.208,39.942 L 183.929,40.002 L 184.531,40.122 C 185.467,40.591 185.723,41.21 184.83,41.922" stroke-miterlimit="10" style="fill: none; stroke: rgb(0, 0, 0); stroke-width: 1.02; stroke-linecap: round; stroke-linejoin: round; stroke-miterlimit: 10;"/>
      <line id="line3199" y2="97.122002" x2="81.75" y1="98.021004" x1="81.269997" stroke-miterlimit="10" style="fill: none; stroke: rgb(0, 0, 0); stroke-width: 0.48; stroke-linecap: round; stroke-linejoin: round; stroke-miterlimit: 10;"/>
      <line id="line3201" y2="105.702" x2="92.970001" y1="103.481" x1="89.069" stroke-miterlimit="10" style="fill: none; stroke: rgb(0, 0, 0); stroke-width: 1.02; stroke-linecap: round; stroke-linejoin: round; stroke-miterlimit: 10;"/>
      <path id="path3203" d="M 89.489,102.762 L 89.969,101.862 M 93.33,105.042 L 93.809,104.082" stroke-miterlimit="10" style="fill: none; stroke: rgb(0, 0, 0); stroke-width: 0.48; stroke-linecap: round; stroke-linejoin: round; stroke-miterlimit: 10;"/>
      <line id="line3205" y2="95.441002" x2="88.109001" y1="93.702003" x1="89.189003" stroke-miterlimit="10" style="fill: none; stroke: rgb(0, 0, 0); stroke-width: 1.02; stroke-linecap: round; stroke-linejoin: round; stroke-miterlimit: 10;"/>
      <path id="path3207" d="M 105.81,98.142 L 105.69,97.362 M 98.13,98.861 L 92.85,95.801" stroke-miterlimit="10" style="fill: none; stroke: rgb(0, 0, 0); stroke-width: 0.48; stroke-linecap: round; stroke-linejoin: round; stroke-miterlimit: 10;"/>
      <path id="path3209" d="M 108.63,98.322 L 91.65,108.102 M 109.35,98.021 L 108.57,98.321 M 121.53,94.062 L 109.289,98.022 M 122.189,93.762 L 121.469,94.062 M 134.67,86.562 L 122.13,93.762 M 131.85,84.941 L 132.39,84.701 L 133.05,84.641 L 133.77,84.641 L 134.371,84.821 L 134.91,85.121 L 135.15,85.481 L 135.211,85.901 L 135.031,86.261 L 134.671,86.561 M 106.47,96.401 L 118.71,92.441 M 91.71,108.102 L 90.93,108.402 M 119.37,92.142 L 131.849,84.882 M 118.71,92.441 L 119.37,92.081 M 100.949,102.762 L 101.97,101.022" stroke-miterlimit="10" style="fill: none; stroke: rgb(0, 0, 0); stroke-width: 1.02; stroke-linecap: round; stroke-linejoin: round; stroke-miterlimit: 10;"/>
      <path id="path3211" d="M 118.71,93.822 L 118.71,92.982 M 119.37,93.521 L 119.37,92.681 M 131.85,86.322 L 131.85,85.482" stroke-miterlimit="10" style="fill: none; stroke: rgb(0, 0, 0); stroke-width: 0.48; stroke-linecap: round; stroke-linejoin: round; stroke-miterlimit: 10;"/>
      <path id="path3213" d="M 98.85,213.462 L 98.19,214.002 L 97.53,214.661 L 96.93,215.502 M 98.85,211.422 L 98.01,212.022 L 97.17,212.802 L 96.39,213.762 L 95.67,214.782 M 82.949,207.462 C 83.923,205.546 86.982,202.358 89.429,203.682 M 74.43,98.861 L 90.21,89.681 M 90.75,89.381 L 97.59,82.241 M 97.59,82.302 L 98.13,81.882 M 98.13,81.941 L 110.55,74.681 M 110.55,74.742 L 111.09,74.502 L 111.749,74.382 L 112.409,74.442 L 113.01,74.562 M 90.21,89.742 L 90.75,89.322 M 100.41,81.881 L 93.51,88.961 M 100.949,81.521 L 100.349,81.881 M 113.43,74.322 L 100.89,81.522 M 110.55,72.702 L 111.15,72.462 L 111.81,72.342 L 112.531,72.402 L 113.131,72.582 C 114.099,72.921 114.291,73.673 113.431,74.322 M 98.13,79.842 L 110.55,72.642 M 97.59,80.262 L 98.13,79.782 M 90.75,87.342 L 97.59,80.202 M 90.21,87.702 L 90.75,87.282 M 73.29,97.481 L 90.21,87.641 M 72.75,97.901 L 73.29,97.421 M 106.47,98.441 L 106.47,96.341 M 106.47,98.441 L 118.71,94.481 M 118.71,94.481 L 119.37,94.121 M 119.37,94.182 L 131.849,86.922 M 131.85,86.981 L 132.329,86.801 L 132.989,86.681 L 133.649,86.681 L 134.249,86.801" stroke-miterlimit="10" style="fill: none; stroke: rgb(0, 0, 0); stroke-width: 1.02; stroke-linecap: round; stroke-linejoin: round; stroke-miterlimit: 10;"/>
      <line id="line3215" y2="212.621" x2="91.948997" y1="209.621" x1="86.728996" stroke-miterlimit="10" style="fill: none; stroke: rgb(0, 0, 0); stroke-width: 0.48; stroke-linecap: round; stroke-linejoin: round; stroke-miterlimit: 10;"/>
      <path id="path3217" d="M 89.069,221.021 L 90.33,221.741 M 94.17,220.302 C 93.426,221.623 91.78,222.535 90.33,221.741 M 89.069,221.021 L 80.79,216.221" stroke-miterlimit="10" style="fill: none; stroke: rgb(0, 0, 0); stroke-width: 1.02; stroke-linecap: round; stroke-linejoin: round; stroke-miterlimit: 10;"/>
      <line id="line3219" y2="220.062" x2="93.809998" y1="219.76199" x1="93.389999" stroke-miterlimit="10" style="fill: none; stroke: rgb(0, 0, 0); stroke-width: 0.48; stroke-linecap: round; stroke-linejoin: round; stroke-miterlimit: 10;"/>
      <path id="path3221" d="M 118.71,209.441 L 117.21,209.861 M 119.37,209.142 L 118.649,209.442 M 131.729,202.002 L 119.309,209.142 M 80.189,212.201 L 82.949,207.401 M 95.67,214.781 L 92.91,219.521 M 92.97,219.521 C 92.126,220.889 90.657,221.838 89.07,221.021 M 80.85,216.281 C 79.456,215.502 79.415,213.425 80.19,212.201 M 96.93,215.502 L 94.11,220.302" stroke-miterlimit="10" style="fill: none; stroke: rgb(0, 0, 0); stroke-width: 1.02; stroke-linecap: round; stroke-linejoin: round; stroke-miterlimit: 10;"/>
      <path id="path3223" d="M 201.269,122.262 L 201.269,118.362 M 95.189,204.821 L 97.349,206.082 M 118.71,209.021 L 118.71,209.201" stroke-miterlimit="10" style="fill: none; stroke: rgb(0, 0, 0); stroke-width: 0.48; stroke-linecap: round; stroke-linejoin: round; stroke-miterlimit: 10;"/>
      <path id="path3225" d="M 107.37,150.462 L 140.43,123.161 M 142.11,112.182 L 141.929,112.062 M 180.569,133.962 L 180.569,128.382 M 148.829,152.262 L 180.569,133.902 M 148.829,153.342 L 148.769,154.121 L 148.53,154.962 L 148.11,155.802 M 183.269,126.042 L 182.73,126.762 L 182.13,127.422 L 181.47,127.901 M 148.11,146.321 L 148.829,146.741 M 180.569,133.962 L 183.268,135.522 M 206.79,118.842 L 201.93,121.602 M 206.79,113.262 L 206.79,118.842 M 209.43,120.342 L 206.73,118.782 M 73.29,212.441 C 72.019,213.126 72.093,214.344 73.29,215.021 M 73.29,215.021 L 87.21,223.061 M 201.989,116.021 L 201.208,115.541 M 207.688,112.782 L 208.349,112.302 L 208.948,111.642 L 209.429,110.862 M 201.269,125.082 L 201.629,124.302 L 201.868,123.462 L 201.989,122.621 M 95.91,196.901 L 90.689,202.241 M 90.75,202.241 L 90.149,202.661 M 83.55,206.502 L 73.23,212.441 M 90.21,202.661 L 88.77,203.441 M 93.569,203.922 L 98.79,198.522" stroke-miterlimit="10" style="fill: none; stroke: rgb(0, 0, 0); stroke-width: 1.02; stroke-linecap: round; stroke-linejoin: round; stroke-miterlimit: 10;"/>
      <line id="line3227" y2="120.162" x2="140.42999" y1="115.901" x1="140.42999" stroke-miterlimit="10" style="fill: none; stroke: rgb(0, 0, 0); stroke-width: 0.48; stroke-linecap: round; stroke-linejoin: round; stroke-miterlimit: 10;"/>
      <path id="path3229" d="M 105.63,130.002 L 120.21,121.901 M 140.43,112.842 L 107.31,131.022" stroke-miterlimit="10" style="fill: none; stroke: rgb(0, 0, 0); stroke-width: 1.02; stroke-linecap: round; stroke-linejoin: round; stroke-miterlimit: 10;"/>
      <line id="line3231" y2="135.46201" x2="107.37" y1="145.901" x1="107.37" stroke-miterlimit="10" style="fill: none; stroke: rgb(0, 0, 0); stroke-width: 0.48; stroke-linecap: round; stroke-linejoin: round; stroke-miterlimit: 10;"/>
      <path id="path3233" d="M 157.89,116.142 C 157.695,117.744 157.228,118.654 155.97,119.682" stroke-miterlimit="10" style="fill: none; stroke: rgb(0, 0, 0); stroke-width: 1.02; stroke-linecap: round; stroke-linejoin: round; stroke-miterlimit: 10;"/>
      <path id="path3235" d="M 209.43,113.742 L 209.43,117.582 M 203.729,114.222 L 207.03,112.242 M 206.97,121.781 L 203.611,123.701 M 179.31,137.802 L 151.951,153.522 M 183.269,128.861 L 183.269,132.701 M 148.11,152.922 L 148.11,149.022 M 152.069,144.042 L 179.368,128.201" stroke-miterlimit="10" style="fill: none; stroke: rgb(0, 0, 0); stroke-width: 0.48; stroke-linecap: round; stroke-linejoin: round; stroke-miterlimit: 10;"/>
      <path id="path3237" d="M 90.75,204.281 L 90.63,204.342 M 97.229,197.682 L 90.689,204.282" stroke-miterlimit="10" style="fill: none; stroke: rgb(0, 0, 0); stroke-width: 1.02; stroke-linecap: round; stroke-linejoin: round; stroke-miterlimit: 10;"/>
      <line id="line3239" y2="203.68201" x2="90.75" y1="202.901" x1="90.75" stroke-miterlimit="10" style="fill: none; stroke: rgb(0, 0, 0); stroke-width: 0.48; stroke-linecap: round; stroke-linejoin: round; stroke-miterlimit: 10;"/>
      <line id="line3241" y2="214.481" x2="73.228996" y1="209.621" x1="81.689003" stroke-miterlimit="10" style="fill: none; stroke: rgb(0, 0, 0); stroke-width: 1.02; stroke-linecap: round; stroke-linejoin: round; stroke-miterlimit: 10;"/>
      <line id="line3243" y2="203.68201" x2="90.209999" y1="203.142" x1="90.209999" stroke-miterlimit="10" style="fill: none; stroke: rgb(0, 0, 0); stroke-width: 0.48; stroke-linecap: round; stroke-linejoin: round; stroke-miterlimit: 10;"/>
      <line id="line3245" y2="214.78101" x2="72.809998" y1="214.481" x1="73.290001" stroke-miterlimit="10" style="fill: none; stroke: rgb(0, 0, 0); stroke-width: 1.02; stroke-linecap: round; stroke-linejoin: round; stroke-miterlimit: 10;"/>
      <line id="line3247" y2="213.882" x2="73.290001" y1="213.10201" x1="73.290001" stroke-miterlimit="10" style="fill: none; stroke: rgb(0, 0, 0); stroke-width: 0.48; stroke-linecap: round; stroke-linejoin: round; stroke-miterlimit: 10;"/>
      <path id="path3249" d="M 91.71,223.062 L 98.85,218.862 M 116.249,210.762 L 121.53,208.962 M 121.53,209.021 L 122.009,208.781 M 134.67,199.901 L 134.19,199.721 L 133.59,199.601 L 132.93,199.601 L 132.329,199.661 L 131.85,199.901 M 131.85,199.901 L 123.63,204.582 M 87.21,223.062 C 88.388,223.781 90.531,223.78 91.71,223.062" stroke-miterlimit="10" style="fill: none; stroke: rgb(0, 0, 0); stroke-width: 1.02; stroke-linecap: round; stroke-linejoin: round; stroke-miterlimit: 10;"/>
      <path id="path3251" d="M 119.37,208.481 L 119.37,208.841 M 131.85,200.562 L 131.85,201.342" stroke-miterlimit="10" style="fill: none; stroke: rgb(0, 0, 0); stroke-width: 0.48; stroke-linecap: round; stroke-linejoin: round; stroke-miterlimit: 10;"/>
      <path id="path3253" d="M 105.81,152.621 L 154.23,118.601 M 154.229,118.662 C 155.157,118.073 156.185,116.218 156.089,115.122 M 156.09,106.062 L 156.09,105.642 M 135.569,141.521 L 135.569,144.401 M 156.09,115.122 L 156.09,106.002 M 190.47,95.921 L 204.269,87.881 M 204.269,87.941 L 204.269,87.581 M 204.269,147.642 L 204.269,147.162" stroke-miterlimit="10" style="fill: none; stroke: rgb(0, 0, 0); stroke-width: 1.02; stroke-linecap: round; stroke-linejoin: round; stroke-miterlimit: 10;"/>
      <path id="path3255" d="M 102.27,127.962 L 102.27,126.941 M 60.87,210.042 L 92.069,228.102 M 106.83,146.321 L 106.83,135.701" stroke-miterlimit="10" style="fill: none; stroke: rgb(0, 0, 0); stroke-width: 0.48; stroke-linecap: round; stroke-linejoin: round; stroke-miterlimit: 10;"/>
      <path id="path3257" d="M 162.39,194.021 C 162.053,190.172 157.697,193.862 157.89,196.601" stroke-miterlimit="10" style="fill: none; stroke: rgb(0, 0, 0); stroke-width: 1.02; stroke-linecap: round; stroke-linejoin: round; stroke-miterlimit: 10;"/>
      <path id="path3259" d="M 95.31,115.001 L 94.411,114.461 M 158.97,29.381 L 165.51,33.101 M 150.989,29.441 L 153.329,28.001" stroke-miterlimit="10" style="fill: none; stroke: rgb(0, 0, 0); stroke-width: 0.48; stroke-linecap: round; stroke-linejoin: round; stroke-miterlimit: 10;"/>
      <path id="path3261" d="M 134.43,1.361 C 133.085,0.542 131.441,0.149 129.99,0.941" stroke-miterlimit="10" style="fill: none; stroke: rgb(0, 0, 0); stroke-width: 1.02; stroke-linecap: round; stroke-linejoin: round; stroke-miterlimit: 10;"/>
      <path id="path3263" d="M 41.43,170.021 L 20.31,182.201 M 15.87,174.281 L 32.43,164.681 M 13.949,73.001 L 12.75,73.661 M 23.97,65.142 L 130.53,3.582" stroke-miterlimit="10" style="fill: none; stroke: rgb(0, 0, 0); stroke-width: 0.48; stroke-linecap: round; stroke-linejoin: round; stroke-miterlimit: 10;"/>
      <line id="line3265" y2="71.321999" x2="61.349998" y1="70.842003" x1="62.25" stroke-miterlimit="10" style="fill: none; stroke: rgb(0, 0, 0); stroke-width: 1.02; stroke-linecap: round; stroke-linejoin: round; stroke-miterlimit: 10;"/>
      <path id="path3267" d="M 73.29,97.961 L 73.29,97.601 M 90.21,89.082 L 90.21,88.242 M 90.75,88.722 L 90.75,87.822 M 97.59,81.642 L 97.59,80.802 M 98.13,81.282 L 98.13,80.382 M 110.55,74.082 L 110.55,73.242 M 187.35,43.361 L 190.829,45.401 M 97.17,100.602 L 91.89,97.542 M 75.149,67.961 L 75.149,67.121 M 87.569,60.822 L 87.569,59.922" stroke-miterlimit="10" style="fill: none; stroke: rgb(0, 0, 0); stroke-width: 0.48; stroke-linecap: round; stroke-linejoin: round; stroke-miterlimit: 10;"/>
      <path id="path3269" d="M 148.35,176.802 L 149.43,176.562 M 149.43,176.562 L 150.15,176.502 L 150.81,176.621 L 151.29,176.981 M 171.749,232.241 L 170.67,232.361 M 172.229,239.262 L 171.149,237.942 M 170.189,232.361 L 170.729,232.361" stroke-miterlimit="10" style="fill: none; stroke: rgb(0, 0, 0); stroke-width: 1.02; stroke-linecap: round; stroke-linejoin: round; stroke-miterlimit: 10;"/>
      <line id="line3271" y2="177.46201" x2="150.32899" y1="176.981" x1="149.85001" stroke-miterlimit="10" style="fill: none; stroke: rgb(0, 0, 0); stroke-width: 0.48; stroke-linecap: round; stroke-linejoin: round; stroke-miterlimit: 10;"/>
      <path id="path3273" d="M 150.689,177.821 L 142.049,179.801 M 142.11,179.802 L 141.929,179.621" stroke-miterlimit="10" style="fill: none; stroke: rgb(0, 0, 0); stroke-width: 1.02; stroke-linecap: round; stroke-linejoin: round; stroke-miterlimit: 10;"/>
      <line id="line3275" y2="186.821" x2="142.11" y1="182.741" x1="142.11" stroke-miterlimit="10" style="fill: none; stroke: rgb(0, 0, 0); stroke-width: 0.48; stroke-linecap: round; stroke-linejoin: round; stroke-miterlimit: 10;"/>
      <path id="path3277" d="M 105.81,197.441 L 120.21,189.462 M 153.03,179.441 C 152.946,177.994 151.999,177.587 150.689,177.821 M 153.03,182.802 L 153.03,179.382 M 150.689,185.981 C 152.002,185.446 152.952,184.242 153.03,182.801 M 142.11,189.762 L 150.689,185.922" stroke-miterlimit="10" style="fill: none; stroke: rgb(0, 0, 0); stroke-width: 1.02; stroke-linecap: round; stroke-linejoin: round; stroke-miterlimit: 10;"/>
      <line id="line3279" y2="187.722" x2="140.42999" y1="183.521" x1="140.42999" stroke-miterlimit="10" style="fill: none; stroke: rgb(0, 0, 0); stroke-width: 0.48; stroke-linecap: round; stroke-linejoin: round; stroke-miterlimit: 10;"/>
      <path id="path3281" d="M 124.59,147.882 L 124.59,152.741 M 137.31,140.502 L 124.531,147.882 M 105.81,196.962 L 106.17,196.302 L 106.649,195.762 L 107.129,195.462 M 106.83,198.882 L 106.47,198.942 L 106.11,198.942 L 105.81,198.702 M 125.069,150.401 L 124.53,150.701 M 135.569,144.401 L 132.389,146.201 M 140.43,180.401 L 107.31,198.582 M 107.37,198.582 L 105.75,197.741 M 107.37,218.082 L 140.43,190.722" stroke-miterlimit="10" style="fill: none; stroke: rgb(0, 0, 0); stroke-width: 1.02; stroke-linecap: round; stroke-linejoin: round; stroke-miterlimit: 10;"/>
      <path id="path3283" d="M 223.11,209.861 L 219.03,212.201 M 106.83,213.882 L 106.83,203.321 M 107.37,213.521 L 107.37,203.021" stroke-miterlimit="10" style="fill: none; stroke: rgb(0, 0, 0); stroke-width: 0.48; stroke-linecap: round; stroke-linejoin: round; stroke-miterlimit: 10;"/>
      <path id="path3285" d="M 212.368,219.882 L 216.148,213.821 M 220.769,215.082 C 219.281,216.835 217.054,218.8 215.07,219.941 C 214.447,220.325 211.058,222.355 212.369,219.881 M 214.17,207.042 L 214.649,206.981" stroke-miterlimit="10" style="fill: none; stroke: rgb(0, 0, 0); stroke-width: 1.02; stroke-linecap: round; stroke-linejoin: round; stroke-miterlimit: 10;"/>
      <line id="line3287" y2="218.502" x2="211.229" y1="219.28101" x1="211.88901" stroke-miterlimit="10" style="fill: none; stroke: rgb(0, 0, 0); stroke-width: 0.48; stroke-linecap: round; stroke-linejoin: round; stroke-miterlimit: 10;"/>
      <path id="path3289" d="M 190.47,165.882 L 190.47,155.142 M 155.97,187.241 L 107.07,221.502 M 157.89,183.701 C 157.749,185.229 157.169,186.284 155.97,187.241 M 157.89,174.701 L 157.89,183.701 M 206.069,156.882 L 190.409,165.882 M 206.069,146.201 L 206.069,156.882 M 190.47,155.201 L 206.07,146.141 M 156.09,182.682 L 156.09,173.621 M 124.59,181.422 L 137.31,173.982 M 137.31,174.042 L 137.31,169.062 M 137.31,169.121 L 124.531,176.502 M 124.59,176.502 L 124.59,181.422 M 166.649,244.422 L 166.589,244.182 L 166.709,243.822 L 166.949,243.343 M 210.629,219.042 L 210.509,218.802 L 210.629,218.442 L 210.868,218.022 M 226.11,208.121 L 220.708,215.082" stroke-miterlimit="10" style="fill: none; stroke: rgb(0, 0, 0); stroke-width: 1.02; stroke-linecap: round; stroke-linejoin: round; stroke-miterlimit: 10;"/>
      <line id="line3291" y2="174.401" x2="157.35001" y1="173.981" x1="156.689" stroke-miterlimit="10" style="fill: none; stroke: rgb(0, 0, 0); stroke-width: 0.48; stroke-linecap: round; stroke-linejoin: round; stroke-miterlimit: 10;"/>
      <path id="path3293" d="M 190.47,87.342 L 206.07,78.282 M 190.47,97.961 L 190.47,87.281 M 206.069,88.961 L 190.409,97.961 M 105.63,130.722 C 105.468,129.595 106.182,128.412 107.13,127.842 M 106.83,131.262 L 106.47,131.382 L 106.11,131.321 L 105.81,131.141 M 105.63,130.542 L 105.69,130.602 M 206.069,78.342 L 206.069,88.962 M 130.89,149.142 L 137.31,145.362 M 124.59,152.741 L 127.89,150.762 M 137.31,145.422 L 137.31,140.442 M 204.269,87.941 L 206.07,88.961 M 155.97,173.321 C 157.23,172.94 157.779,173.441 157.89,174.701 M 107.13,195.462 L 155.97,173.262 M 105.81,219.821 L 106.11,219.281 L 106.47,218.802 L 106.83,218.442 M 107.13,221.502 L 106.65,221.802 L 106.171,221.802 L 105.811,221.562" stroke-miterlimit="10" style="fill: none; stroke: rgb(0, 0, 0); stroke-width: 1.02; stroke-linecap: round; stroke-linejoin: round; stroke-miterlimit: 10;"/>
      <path id="path3295" d="M 156.689,106.421 L 157.349,106.781 M 156.689,115.421 L 157.349,115.841" stroke-miterlimit="10" style="fill: none; stroke: rgb(0, 0, 0); stroke-width: 0.48; stroke-linecap: round; stroke-linejoin: round; stroke-miterlimit: 10;"/>
      <path id="path3297" d="M 157.89,107.082 L 157.89,116.142 M 155.97,105.762 C 157.222,105.234 157.757,105.867 157.89,107.082 M 107.13,127.842 L 155.97,105.702" stroke-miterlimit="10" style="fill: none; stroke: rgb(0, 0, 0); stroke-width: 1.02; stroke-linecap: round; stroke-linejoin: round; stroke-miterlimit: 10;"/>
      <line id="line3299" y2="153.701" x2="106.77" y1="153.401" x1="106.229" stroke-miterlimit="10" style="fill: none; stroke: rgb(0, 0, 0); stroke-width: 0.48; stroke-linecap: round; stroke-linejoin: round; stroke-miterlimit: 10;"/>
      <path id="path3301" d="M 155.97,119.682 L 107.07,153.942 M 105.81,152.262 L 106.11,151.722 L 106.47,151.242 L 106.83,150.883 M 107.13,153.941 L 106.65,154.181 L 106.171,154.181 L 105.811,153.941" stroke-miterlimit="10" style="fill: none; stroke: rgb(0, 0, 0); stroke-width: 1.02; stroke-linecap: round; stroke-linejoin: round; stroke-miterlimit: 10;"/>
      <line id="line3303" y2="119.381" x2="155.489" y1="118.961" x1="154.77" stroke-miterlimit="10" style="fill: none; stroke: rgb(0, 0, 0); stroke-width: 0.48; stroke-linecap: round; stroke-linejoin: round; stroke-miterlimit: 10;"/>
      <path id="path3305" d="M 150.689,110.202 L 142.049,112.182 M 148.35,109.242 L 149.43,108.942 M 149.43,108.941 L 150.15,108.881 L 150.81,109.061 L 151.29,109.361" stroke-miterlimit="10" style="fill: none; stroke: rgb(0, 0, 0); stroke-width: 1.02; stroke-linecap: round; stroke-linejoin: round; stroke-miterlimit: 10;"/>
      <path id="path3307" d="M 142.11,115.182 L 142.11,119.262 M 149.85,109.361 L 150.329,109.841" stroke-miterlimit="10" style="fill: none; stroke: rgb(0, 0, 0); stroke-width: 0.48; stroke-linecap: round; stroke-linejoin: round; stroke-miterlimit: 10;"/>
      <path id="path3309" d="M 168.45,245.262 L 172.229,239.201 M 176.85,240.462 C 175.218,242.367 173.251,243.962 171.15,245.321 C 170.561,245.72 167.132,247.645 168.451,245.261 M 135.569,173.021 L 124.53,179.381 M 135.569,173.021 L 137.309,174.042 M 135.569,170.142 L 135.569,173.022 M 204.81,156.161 L 206.07,156.882 M 190.47,163.842 L 200.43,158.022 M 107.37,131.021 L 105.57,130.061 M 153.03,111.881 C 153.019,110.548 151.889,109.925 150.689,110.201 M 153.03,115.242 L 153.03,111.822 M 150.689,118.421 C 151.854,117.985 153.032,116.563 153.03,115.241 M 142.11,122.201 L 150.689,118.361" stroke-miterlimit="10" style="fill: none; stroke: rgb(0, 0, 0); stroke-width: 1.02; stroke-linecap: round; stroke-linejoin: round; stroke-miterlimit: 10;"/>
      <line id="line3311" y2="237.582" x2="175.05" y1="235.241" x1="179.189" stroke-miterlimit="10" style="fill: none; stroke: rgb(0, 0, 0); stroke-width: 0.48; stroke-linecap: round; stroke-linejoin: round; stroke-miterlimit: 10;"/>
      <line id="line3313" y2="240.46201" x2="176.78999" y1="233.502" x1="182.189" stroke-miterlimit="10" style="fill: none; stroke: rgb(0, 0, 0); stroke-width: 1.02; stroke-linecap: round; stroke-linejoin: round; stroke-miterlimit: 10;"/>
      <line id="line3315" y2="243.882" x2="167.31" y1="244.661" x1="167.97" stroke-miterlimit="10" style="fill: none; stroke: rgb(0, 0, 0); stroke-width: 0.48; stroke-linecap: round; stroke-linejoin: round; stroke-miterlimit: 10;"/>
      <path id="path3317" d="M 154.229,186.222 C 155.213,185.59 156.178,183.824 156.089,182.682" stroke-miterlimit="10" style="fill: none; stroke: rgb(0, 0, 0); stroke-width: 1.02; stroke-linecap: round; stroke-linejoin: round; stroke-miterlimit: 10;"/>
      <line id="line3319" y2="183.401" x2="157.35001" y1="182.981" x1="156.689" stroke-miterlimit="10" style="fill: none; stroke: rgb(0, 0, 0); stroke-width: 0.48; stroke-linecap: round; stroke-linejoin: round; stroke-miterlimit: 10;"/>
      <line id="line3321" y2="186.161" x2="154.229" y1="220.18201" x1="105.81" stroke-miterlimit="10" style="fill: none; stroke: rgb(0, 0, 0); stroke-width: 1.02; stroke-linecap: round; stroke-linejoin: round; stroke-miterlimit: 10;"/>
      <path id="path3323" d="M 154.77,186.521 L 155.49,186.941 M 106.229,221.021 L 106.769,221.261" stroke-miterlimit="10" style="fill: none; stroke: rgb(0, 0, 0); stroke-width: 0.48; stroke-linecap: round; stroke-linejoin: round; stroke-miterlimit: 10;"/>
      <path id="path3325" d="M 44.609,177.882 L 45.989,177.042 M 29.069,186.882 L 39.269,180.882 M 29.069,189.521 C 27.837,188.866 27.779,187.501 29.069,186.881 M 156.09,173.682 L 156.09,173.262" stroke-miterlimit="10" style="fill: none; stroke: rgb(0, 0, 0); stroke-width: 1.02; stroke-linecap: round; stroke-linejoin: round; stroke-miterlimit: 10;"/>
      <path id="path3327" d="M 29.069,187.542 L 29.069,188.321 M 45.989,177.582 L 45.989,178.121 M 46.47,177.401 L 46.47,178.181" stroke-miterlimit="10" style="fill: none; stroke: rgb(0, 0, 0); stroke-width: 0.48; stroke-linecap: round; stroke-linejoin: round; stroke-miterlimit: 10;"/>
      <path id="path3329" d="M 105.81,229.722 L 156.031,200.621 M 100.41,232.842 L 100.949,232.422 M 36.689,70.302 L 35.37,72.522 M 98.85,127.542 L 98.85,229.962 M 13.71,71.802 L 93.21,117.702 M 148.829,146.741 L 181.47,127.842 M 148.829,153.342 L 148.829,146.682 M 201.989,116.021 L 207.688,112.721 M 201.989,122.621 L 201.989,115.961 M 12.569,68.742 L 11.969,69.042 M 129.989,0.941 L 17.31,65.921 M 46.47,176.741 L 51.69,171.342 M 45.989,177.102 L 46.469,176.682" stroke-miterlimit="10" style="fill: none; stroke: rgb(0, 0, 0); stroke-width: 1.02; stroke-linecap: round; stroke-linejoin: round; stroke-miterlimit: 10;"/>
      <path id="path3331" d="M 167.61,36.401 L 165.21,37.781 M 159.63,36.461 L 153.03,32.621" stroke-miterlimit="10" style="fill: none; stroke: rgb(0, 0, 0); stroke-width: 0.48; stroke-linecap: round; stroke-linejoin: round; stroke-miterlimit: 10;"/>
      <path id="path3333" d="M 12.569,191.201 C 12.478,188.883 14.424,185.526 16.469,184.422 M 151.53,30.941 L 155.069,28.841 M 163.53,37.901 L 151.469,30.881 M 167.069,35.861 L 163.469,37.901 M 155.069,28.901 L 167.069,35.861 M 151.53,30.941 L 150.809,30.701 L 150.03,30.521 L 149.189,30.461 M 163.53,38.742 L 163.53,37.842 M 169.409,35.381 L 168.569,35.441 L 167.79,35.561 L 167.069,35.861 M 155.069,28.901 L 155.069,27.041 M 84.39,190.302 L 55.47,206.982 M 55.29,209.142 C 54.18,209.876 53.587,211.167 53.37,212.442 M 143.729,20.202 L 143.249,20.502 M 174.21,49.662 L 174.39,51.582 M 80.91,95.861 L 79.649,98.021 M 152.55,178.182 L 151.23,176.922 M 152.55,110.622 L 151.23,109.302 M 166.649,244.422 L 168.21,246.281 M 210.629,219.042 L 212.129,220.962 M 124.649,20.981 L 124.769,22.961" stroke-miterlimit="10" style="fill: none; stroke: rgb(0, 0, 0); stroke-width: 1.02; stroke-linecap: round; stroke-linejoin: round; stroke-miterlimit: 10;"/>
      <line id="line3335" y2="211.481" x2="47.729" y1="193.481" x1="16.528999" stroke-miterlimit="10" style="fill: none; stroke: rgb(0, 0, 0); stroke-width: 0.48; stroke-linecap: round; stroke-linejoin: round; stroke-miterlimit: 10;"/>
      <path id="path3337" d="M 10.17,73.122 L 9.51,73.422 L 8.79,73.602 L 7.229,73.602 L 6.509,73.422 L 5.909,73.122 M 11.91,74.142 C 9.847,75.423 6.172,75.423 4.109,74.142 M 51.63,217.781 L 53.01,216.941 M 51.63,217.781 L 12.51,195.221 M 51.63,213.701 L 51.63,217.781 M 12.569,195.281 L 12.569,191.141 M 55.529,206.981 C 53.274,208.34 51.652,211.06 51.63,213.701" stroke-miterlimit="10" style="fill: none; stroke: rgb(0, 0, 0); stroke-width: 1.02; stroke-linecap: round; stroke-linejoin: round; stroke-miterlimit: 10;"/>
      <line id="line3339" y2="172.062" x2="4.1090002" y1="78.702003" x1="4.1090002" stroke-miterlimit="10" style="fill: none; stroke: rgb(0, 0, 0); stroke-width: 0.48; stroke-linecap: round; stroke-linejoin: round; stroke-miterlimit: 10;"/>
      <path id="path3341" d="M 43.05,143.621 L 43.23,143.741 M 57.569,149.021 L 57.87,148.721 L 58.05,148.361 L 58.11,147.821 M 52.89,149.142 L 53.19,149.322 M 62.85,148.241 L 60.99,149.262 M 17.01,135.882 L 98.85,183.161 M 41.25,119.082 L 41.97,120.522 M 35.79,95.742 L 35.79,97.782 M 48.09,107.142 L 48.09,104.982 M 85.71,144.762 L 86.489,146.201 M 55.83,150.042 L 57.569,148.962 M 63.93,148.241 L 63.33,148.121 L 62.85,148.241 M 76.41,154.002 L 76.41,154.062 M 62.13,149.262 C 61.239,148.875 60.51,149.451 60.569,150.402 M 75.689,152.741 L 76.049,153.101 L 76.289,153.521 L 76.409,154.001 M 43.109,133.962 L 75.689,152.741 M 75.75,152.802 L 65.55,148.962 M 76.109,154.062 L 76.41,153.822 M 75.569,154.422 L 76.109,154.002 M 75.75,154.542 L 75.51,154.361 M 12.569,69.282 L 12.569,65.142 M 12.569,65.202 L 14.309,64.122 M 11.91,74.142 L 12.029,73.242 L 12.21,72.402 L 12.63,71.742 L 13.109,71.262 M 12.569,69.282 L 12.63,70.122 L 12.87,70.842 L 13.229,71.382 L 13.709,71.802 M 16.47,184.422 C 13.775,182.789 12.068,179.687 11.91,176.562 M 15.09,185.502 C 12.766,183.506 10.802,180.255 10.29,177.222 M 0.569,72.102 L 4.109,74.142 M 0.569,72.102 L 2.37,71.022 M 4.109,176.562 L 0.509,174.462 M 0.569,174.521 L 0.569,72.042 M 10.17,73.122 L 11.91,74.142 M 2.37,71.082 L 5.91,73.122 M 4.109,176.562 C 6.172,177.843 9.846,177.843 11.91,176.562" stroke-miterlimit="10" style="fill: none; stroke: rgb(0, 0, 0); stroke-width: 1.02; stroke-linecap: round; stroke-linejoin: round; stroke-miterlimit: 10;"/>
      <line id="line3343" y2="148.60201" x2="56.790001" y1="148.18201" x1="57.509998" stroke-miterlimit="10" style="fill: none; stroke: rgb(0, 0, 0); stroke-width: 0.48; stroke-linecap: round; stroke-linejoin: round; stroke-miterlimit: 10;"/>
      <path id="path3345" d="M 65.43,148.962 L 64.77,149.321 M 64.05,150.161 L 63.63,149.922 M 63.689,149.981 L 64.83,149.261 M 65.609,149.021 L 65.37,148.901 M 54.75,149.981 C 55.769,150.377 56.281,149.953 56.31,148.901 M 53.189,149.321 L 54.75,149.981" stroke-miterlimit="10" style="fill: none; stroke: rgb(0, 0, 0); stroke-width: 1.02; stroke-linecap: round; stroke-linejoin: round; stroke-miterlimit: 10;"/>
      <line id="line3347" y2="153.76199" x2="63.688999" y1="151.60201" x1="63.688999" stroke-miterlimit="10" style="fill: none; stroke: rgb(0, 0, 0); stroke-width: 0.48; stroke-linecap: round; stroke-linejoin: round; stroke-miterlimit: 10;"/>
      <path id="path3349" d="M 98.67,147.342 C 97.041,149.171 94.148,150.109 91.89,148.902 M 86.97,146.021 C 84.765,144.809 85.111,142.016 86.61,140.381 M 86.609,146.382 L 86.429,146.142 M 98.85,147.102 L 98.61,147.342 M 86.609,140.382 L 96.989,128.741" stroke-miterlimit="10" style="fill: none; stroke: rgb(0, 0, 0); stroke-width: 1.02; stroke-linecap: round; stroke-linejoin: round; stroke-miterlimit: 10;"/>
      <path id="path3351" d="M 98.79,147.582 L 98.67,147.401 M 91.949,148.962 L 91.83,148.842 M 92.069,149.201 L 92.069,149.082 M 87.21,146.562 L 87.029,146.202" stroke-miterlimit="10" style="fill: none; stroke: rgb(0, 0, 0); stroke-width: 0.48; stroke-linecap: round; stroke-linejoin: round; stroke-miterlimit: 10;"/>
      <path id="path3353" d="M 52.89,143.682 L 54.81,142.722 M 91.89,148.901 L 86.911,145.962" stroke-miterlimit="10" style="fill: none; stroke: rgb(0, 0, 0); stroke-width: 1.02; stroke-linecap: round; stroke-linejoin: round; stroke-miterlimit: 10;"/>
      <path id="path3355" d="M 43.05,138.042 L 43.05,141.281 M 52.89,145.361 L 52.89,147.521" stroke-miterlimit="10" style="fill: none; stroke: rgb(0, 0, 0); stroke-width: 0.48; stroke-linecap: round; stroke-linejoin: round; stroke-miterlimit: 10;"/>
      <path id="path3357" d="M 34.949,116.021 L 35.55,115.241 L 36.449,114.581 M 19.77,107.802 L 35.67,98.562 M 15.87,133.361 L 15.87,114.521 M 45.93,100.722 L 46.35,100.362 M 46.35,100.421 L 47.07,99.941 M 36.449,114.582 L 47.189,108.282 M 47.189,108.342 L 47.669,107.982 L 47.969,107.562 L 48.089,107.142" stroke-miterlimit="10" style="fill: none; stroke: rgb(0, 0, 0); stroke-width: 1.02; stroke-linecap: round; stroke-linejoin: round; stroke-miterlimit: 10;"/>
      <line id="line3359" y2="110.021" x2="23.608999" y1="115.122" x1="32.488998" stroke-miterlimit="10" style="fill: none; stroke: rgb(0, 0, 0); stroke-width: 0.48; stroke-linecap: round; stroke-linejoin: round; stroke-miterlimit: 10;"/>
      <path id="path3361" d="M 15.87,114.582 C 15.995,111.882 17.491,109.257 19.769,107.802" stroke-miterlimit="10" style="fill: none; stroke: rgb(0, 0, 0); stroke-width: 1.02; stroke-linecap: round; stroke-linejoin: round; stroke-miterlimit: 10;"/>
      <path id="path3363" d="M 36.449,113.921 L 36.449,113.081 M 47.189,107.682 L 47.189,106.842 M 46.35,100.122 L 46.35,99.762" stroke-miterlimit="10" style="fill: none; stroke: rgb(0, 0, 0); stroke-width: 0.48; stroke-linecap: round; stroke-linejoin: round; stroke-miterlimit: 10;"/>
      <path id="path3365" d="M 70.29,113.441 L 54.09,122.741 M 45.63,122.741 L 36.39,117.342 M 54.149,122.741 C 51.716,124.145 48.081,124.09 45.629,122.741 M 36.449,112.542 L 47.189,106.242 M 36.449,117.401 C 34.096,116.322 34.1,113.618 36.449,112.541 M 45.63,100.122 L 45.449,99.642 L 45.569,99.162 M 47.97,104.562 L 45.57,100.062 M 47.189,106.302 L 47.729,105.942 L 48.029,105.462 L 48.09,105.042 L 47.97,104.562" stroke-miterlimit="10" style="fill: none; stroke: rgb(0, 0, 0); stroke-width: 1.02; stroke-linecap: round; stroke-linejoin: round; stroke-miterlimit: 10;"/>
      <path id="path3367" d="M 36.27,97.662 L 36.27,97.062 M 36.09,97.722 L 36.09,96.942" stroke-miterlimit="10" style="fill: none; stroke: rgb(0, 0, 0); stroke-width: 0.48; stroke-linecap: round; stroke-linejoin: round; stroke-miterlimit: 10;"/>
      <path id="path3369" d="M 35.67,98.622 L 36.21,98.202 L 36.51,97.722 L 36.51,97.182 L 36.27,96.702 M 36.27,96.702 L 36.03,96.402 M 36.09,96.461 C 35.306,95.301 36.172,94.731 37.17,94.241 M 36.029,98.381 L 35.729,97.721" stroke-miterlimit="10" style="fill: none; stroke: rgb(0, 0, 0); stroke-width: 1.02; stroke-linecap: round; stroke-linejoin: round; stroke-miterlimit: 10;"/>
      <line id="line3371" y2="134.321" x2="42.569" y1="134.142" x1="42.869999" stroke-miterlimit="10" style="fill: none; stroke: rgb(0, 0, 0); stroke-width: 0.48; stroke-linecap: round; stroke-linejoin: round; stroke-miterlimit: 10;"/>
      <line id="line3373" y2="135.642" x2="42.988998" y1="134.741" x1="44.488998" stroke-miterlimit="10" style="fill: none; stroke: rgb(0, 0, 0); stroke-width: 1.02; stroke-linecap: round; stroke-linejoin: round; stroke-miterlimit: 10;"/>
      <line id="line3375" y2="134.26199" x2="42.569" y1="134.082" x1="42.869999" stroke-miterlimit="10" style="fill: none; stroke: rgb(0, 0, 0); stroke-width: 0.48; stroke-linecap: round; stroke-linejoin: round; stroke-miterlimit: 10;"/>
      <path id="path3377" d="M 43.05,135.642 L 43.23,135.762 M 43.109,133.962 L 42.75,133.842 L 42.51,134.022 L 42.39,134.382 M 42.39,134.382 L 42.39,134.442 M 43.229,135.762 L 52.889,143.682 M 46.29,135.821 L 54.81,142.781 M 42.39,134.441 L 42.45,134.861 L 42.69,135.281 L 43.05,135.641" stroke-miterlimit="10" style="fill: none; stroke: rgb(0, 0, 0); stroke-width: 1.02; stroke-linecap: round; stroke-linejoin: round; stroke-miterlimit: 10;"/>
      <line id="line3379" y2="141.401" x2="43.229" y1="138.161" x1="43.229" stroke-miterlimit="10" style="fill: none; stroke: rgb(0, 0, 0); stroke-width: 0.48; stroke-linecap: round; stroke-linejoin: round; stroke-miterlimit: 10;"/>
      <path id="path3381" d="M 53.189,143.922 L 54.389,143.201 M 54.989,142.901 L 56.489,143.981 M 56.31,147.941 L 56.31,148.901 M 43.229,135.762 L 43.83,135.402 M 43.83,135.462 L 44.85,134.922" stroke-miterlimit="10" style="fill: none; stroke: rgb(0, 0, 0); stroke-width: 1.02; stroke-linecap: round; stroke-linejoin: round; stroke-miterlimit: 10;"/>
      <line id="line3383" y2="144.701" x2="55.229" y1="144.342" x1="55.949001" stroke-miterlimit="10" style="fill: none; stroke: rgb(0, 0, 0); stroke-width: 0.48; stroke-linecap: round; stroke-linejoin: round; stroke-miterlimit: 10;"/>
      <path id="path3385" d="M 56.489,143.981 L 57.029,144.401 L 57.449,145.002 L 57.809,145.602 L 58.049,146.322 L 58.109,146.923 M 58.109,146.922 L 58.109,147.821 M 53.189,143.922 L 54.75,145.002" stroke-miterlimit="10" style="fill: none; stroke: rgb(0, 0, 0); stroke-width: 1.02; stroke-linecap: round; stroke-linejoin: round; stroke-miterlimit: 10;"/>
      <path id="path3387" d="M 53.189,145.542 L 53.189,147.701 M 57.51,147.281 L 56.79,147.641" stroke-miterlimit="10" style="fill: none; stroke: rgb(0, 0, 0); stroke-width: 0.48; stroke-linecap: round; stroke-linejoin: round; stroke-miterlimit: 10;"/>
      <path id="path3389" d="M 65.91,111.102 L 66.51,111.222 M 54.989,142.901 L 54.33,143.261 M 52.89,143.682 L 53.19,143.922 M 54.81,142.781 L 54.99,142.901 M 54.75,145.002 C 55.605,145.551 56.316,146.953 56.31,147.941" stroke-miterlimit="10" style="fill: none; stroke: rgb(0, 0, 0); stroke-width: 1.02; stroke-linecap: round; stroke-linejoin: round; stroke-miterlimit: 10;"/>
      <line id="line3391" y2="121.842" x2="54.27" y1="122.201" x1="54.449001" stroke-miterlimit="10" style="fill: none; stroke: rgb(0, 0, 0); stroke-width: 0.48; stroke-linecap: round; stroke-linejoin: round; stroke-miterlimit: 10;"/>
      <path id="path3393" d="M 41.97,120.521 L 42.09,120.701 M 54.149,121.661 L 64.529,110.021 M 47.43,123.222 C 49.681,124.401 52.508,123.444 54.15,121.661 M 52.47,103.122 L 42.09,114.702" stroke-miterlimit="10" style="fill: none; stroke: rgb(0, 0, 0); stroke-width: 1.02; stroke-linecap: round; stroke-linejoin: round; stroke-miterlimit: 10;"/>
      <path id="path3395" d="M 47.489,123.281 L 47.37,123.161 M 47.55,123.462 L 47.61,123.522" stroke-miterlimit="10" style="fill: none; stroke: rgb(0, 0, 0); stroke-width: 0.48; stroke-linecap: round; stroke-linejoin: round; stroke-miterlimit: 10;"/>
      <path id="path3397" d="M 42.149,114.702 C 40.503,116.311 40.326,119.108 42.449,120.342 M 56.37,121.481 L 65.55,111.161" stroke-miterlimit="10" style="fill: none; stroke: rgb(0, 0, 0); stroke-width: 1.02; stroke-linecap: round; stroke-linejoin: round; stroke-miterlimit: 10;"/>
      <line id="line3399" y2="120.521" x2="42.509998" y1="120.882" x1="42.75" stroke-miterlimit="10" style="fill: none; stroke: rgb(0, 0, 0); stroke-width: 0.48; stroke-linecap: round; stroke-linejoin: round; stroke-miterlimit: 10;"/>
      <path id="path3401" d="M 53.97,149.621 L 62.91,154.781 M 65.55,111.222 L 65.73,111.102 L 65.911,111.102 M 42.449,120.342 L 47.429,123.222" stroke-miterlimit="10" style="fill: none; stroke: rgb(0, 0, 0); stroke-width: 1.02; stroke-linecap: round; stroke-linejoin: round; stroke-miterlimit: 10;"/>
      <path id="path3403" d="M 126.09,175.901 L 126.09,176.141 M 126.45,175.781 L 126.45,176.141 M 130.59,173.981 L 130.59,174.821 M 94.949,179.021 L 19.71,135.582" stroke-miterlimit="10" style="fill: none; stroke: rgb(0, 0, 0); stroke-width: 0.48; stroke-linecap: round; stroke-linejoin: round; stroke-miterlimit: 10;"/>
      <path id="path3405" d="M 125.069,176.201 L 126.09,176.382 M 126.45,176.441 C 127.762,176.867 129.756,176.658 130.59,175.421 M 126.09,176.382 L 126.45,176.442 M 130.59,175.422 L 132.45,171.882 M 130.59,173.321 L 130.89,172.781 M 127.89,174.582 L 128.79,174.462 L 129.569,174.222 L 130.229,173.802 L 130.589,173.322" stroke-miterlimit="10" style="fill: none; stroke: rgb(0, 0, 0); stroke-width: 1.02; stroke-linecap: round; stroke-linejoin: round; stroke-miterlimit: 10;"/>
      <line id="line3407" y2="164.082" x2="75.870003" y1="163.96201" x1="76.169998" stroke-miterlimit="10" style="fill: none; stroke: rgb(0, 0, 0); stroke-width: 0.48; stroke-linecap: round; stroke-linejoin: round; stroke-miterlimit: 10;"/>
      <path id="path3409" d="M 15.87,133.361 L 15.989,134.201 L 16.17,134.922 L 16.529,135.522 L 17.009,135.882 M 64.05,155.562 L 63.63,155.262 M 63.689,155.321 L 62.069,154.181 M 75.75,162.521 L 75.51,162.341 M 62.13,154.241 L 61.65,153.821 L 61.23,153.281 L 60.871,152.621 L 60.631,151.962 L 60.57,151.302 M 43.109,145.422 L 75.689,164.201 M 75.689,164.201 L 76.049,164.321 L 76.289,164.141 L 76.409,163.841 M 75.569,162.401 L 63.989,155.502 M 76.41,163.842 L 76.41,163.661 M 76.41,163.722 L 76.29,163.302 L 76.109,162.882 L 75.75,162.522" stroke-miterlimit="10" style="fill: none; stroke: rgb(0, 0, 0); stroke-width: 1.02; stroke-linecap: round; stroke-linejoin: round; stroke-miterlimit: 10;"/>
      <path id="path3411" d="M 44.13,144.821 L 43.47,145.121 M 42.87,143.861 L 42.569,143.981 M 42.87,143.861 L 42.569,144.042" stroke-miterlimit="10" style="fill: none; stroke: rgb(0, 0, 0); stroke-width: 0.48; stroke-linecap: round; stroke-linejoin: round; stroke-miterlimit: 10;"/>
      <path id="path3413" d="M 65.43,148.962 L 63.87,148.182 M 63.689,149.981 L 62.069,149.201 M 60.569,150.401 L 60.569,151.301 M 42.39,144.102 L 42.45,143.742 L 42.69,143.622 L 43.05,143.622 M 42.39,144.161 L 42.39,144.042 M 43.109,145.422 L 42.75,145.062 L 42.51,144.642 L 42.39,144.162 M 43.229,143.741 L 52.889,149.141" stroke-miterlimit="10" style="fill: none; stroke: rgb(0, 0, 0); stroke-width: 1.02; stroke-linecap: round; stroke-linejoin: round; stroke-miterlimit: 10;"/>
      <path id="path3415" d="M 75.569,156.821 L 75.569,160.061 M 64.05,151.781 L 64.05,153.941 M 63.33,148.602 L 62.609,148.962" stroke-miterlimit="10" style="fill: none; stroke: rgb(0, 0, 0); stroke-width: 0.48; stroke-linecap: round; stroke-linejoin: round; stroke-miterlimit: 10;"/>
      <path id="path3417" d="M 75.569,154.422 L 63.989,150.102 M 64.05,150.161 L 65.61,148.962" stroke-miterlimit="10" style="fill: none; stroke: rgb(0, 0, 0); stroke-width: 1.02; stroke-linecap: round; stroke-linejoin: round; stroke-miterlimit: 10;"/>
      <line id="line3419" y2="160.18201" x2="75.75" y1="156.94099" x1="75.75" stroke-miterlimit="10" style="fill: none; stroke: rgb(0, 0, 0); stroke-width: 0.48; stroke-linecap: round; stroke-linejoin: round; stroke-miterlimit: 10;"/>
      <path id="path3421" d="M 116.97,142.602 L 119.49,143.022 M 143.249,126.342 C 141.489,125.462 138.868,125.408 137.01,125.982 M 80.91,143.142 L 90.149,148.422 M 90.149,148.422 C 92.582,149.825 96.218,149.77 98.67,148.422 M 98.67,148.422 L 98.85,148.241 M 96.81,129.042 L 80.85,138.222 M 80.91,138.222 C 78.544,139.565 78.649,141.751 80.91,143.142 M 135.569,128.741 L 131.189,130.781" stroke-miterlimit="10" style="fill: none; stroke: rgb(0, 0, 0); stroke-width: 1.02; stroke-linecap: round; stroke-linejoin: round; stroke-miterlimit: 10;"/>
      <path id="path3423" d="M 80.91,139.602 L 80.91,138.762 M 135.93,128.021 L 135.93,127.361" stroke-miterlimit="10" style="fill: none; stroke: rgb(0, 0, 0); stroke-width: 0.48; stroke-linecap: round; stroke-linejoin: round; stroke-miterlimit: 10;"/>
      <polyline id="polyline3425" points="80.91,140.262 80.01,140.922 79.47,141.701" stroke-miterlimit="10" style="fill: none; stroke: rgb(0, 0, 0); stroke-width: 1.02; stroke-linecap: round; stroke-linejoin: round; stroke-miterlimit: 10;"/>
      <path id="path3427" d="M 92.729,149.922 L 96.33,152.022 M 49.59,125.021 L 77.01,140.861" stroke-miterlimit="10" style="fill: none; stroke: rgb(0, 0, 0); stroke-width: 0.48; stroke-linecap: round; stroke-linejoin: round; stroke-miterlimit: 10;"/>
      <path id="path3429" d="M 141.21,127.781 C 139.333,127.478 137.616,127.65 135.93,128.561 M 133.649,144.582 L 135.569,143.441" stroke-miterlimit="10" style="fill: none; stroke: rgb(0, 0, 0); stroke-width: 1.02; stroke-linecap: round; stroke-linejoin: round; stroke-miterlimit: 10;"/>
      <line id="line3431" y2="116.742" x2="19.709999" y1="160.18201" x1="94.948997" stroke-miterlimit="10" style="fill: none; stroke: rgb(0, 0, 0); stroke-width: 0.48; stroke-linecap: round; stroke-linejoin: round; stroke-miterlimit: 10;"/>
      <path id="path3433" d="M 132.87,145.302 L 133.17,144.942 L 133.649,144.583 M 132.87,143.262 L 133.17,142.842 M 124.59,150.401 L 125.31,150.462 L 126.09,150.582 M 126.45,150.701 C 127.827,150.958 129.739,150.967 130.59,149.621 M 126.09,150.582 L 126.45,150.701 M 130.59,149.621 L 132.87,145.241 M 130.59,147.582 L 132.87,143.201 M 126.45,148.661 C 127.827,148.918 129.739,148.927 130.59,147.582 M 126.09,148.542 L 126.45,148.661 M 124.59,148.361 L 125.31,148.422 L 126.09,148.542 M 76.41,154.182 L 75.689,154.542 M 76.41,154.062 L 76.29,154.422 L 76.109,154.602 L 75.75,154.542 M 92.97,133.302 L 80.85,140.262" stroke-miterlimit="10" style="fill: none; stroke: rgb(0, 0, 0); stroke-width: 1.02; stroke-linecap: round; stroke-linejoin: round; stroke-miterlimit: 10;"/>
      <path id="path3435" d="M 126.09,149.922 L 126.09,149.082 M 130.59,148.962 L 130.59,148.121 M 126.45,150.042 L 126.45,149.201 M 132.87,144.642 L 132.87,143.802 M 133.649,143.981 L 133.649,143.141" stroke-miterlimit="10" style="fill: none; stroke: rgb(0, 0, 0); stroke-width: 0.48; stroke-linecap: round; stroke-linejoin: round; stroke-miterlimit: 10;"/>
      <path id="path3437" d="M 192.03,190.302 L 192.03,193.602 M 191.13,197.142 L 192.929,196.062 M 192.03,193.602 L 191.13,197.142 M 191.13,197.142 L 189.329,196.062 M 189.389,196.121 L 188.611,192.222 M 193.829,189.281 L 193.829,192.582 M 192.03,193.602 L 193.829,192.522 M 193.829,192.582 L 192.929,196.121 M 156.21,203.741 C 158.077,204.898 160.269,204.469 160.649,202.002 M 83.01,139.062 L 83.07,139.122 M 56.31,149.741 L 60.75,152.321 M 98.729,120.821 L 93.569,117.821 M 26.43,88.122 L 98.73,129.822 M 26.43,79.182 L 26.43,88.122 M 26.43,142.901 L 98.85,184.721 M 98.729,189.521 L 26.37,147.761 M 26.43,156.821 L 98.73,198.521 M 26.43,147.821 L 26.43,156.821 M 149.189,119.082 L 151.589,120.462 M 153.45,202.182 L 156.21,203.742 M 54.75,57.881 L 49.109,61.061 M 48.63,107.441 L 47.609,107.981 M 26.43,142.901 L 27.81,142.061 M 41.43,115.722 L 37.35,118.002 M 26.43,147.821 L 26.43,142.842 M 137.67,24.941 L 137.67,24.221 M 98.729,120.821 L 98.729,129.821 M 98.729,189.521 L 98.729,198.521 M 80.25,142.602 L 83.069,139.062 M 138.09,127.781 L 127.35,133.962 M 92.85,133.481 L 83.01,139.121 M 85.77,141.642 L 81.99,143.742 M 98.729,120.821 L 99.029,120.581 M 98.729,189.521 L 98.849,189.401 M 98.729,198.521 L 98.849,198.641 M 98.729,129.821 L 98.849,129.882 M 206.009,149.082 L 206.009,155.621 M 206.009,86.921 L 206.009,80.321 M 190.47,155.621 L 204.269,147.582 M 204.269,147.642 L 206.009,149.082 M 206.009,149.082 L 190.409,155.861 M 206.009,155.621 L 190.409,162.401 M 206.009,80.381 L 204.509,79.121 M 191.61,86.622 L 206.008,80.322 M 190.47,93.702 L 206.009,86.862 M 159.39,204.042 L 160.65,203.262 M 135.93,128.562 L 135.51,128.742" stroke-miterlimit="10" style="fill: none; stroke: rgb(0, 0, 0); stroke-width: 1.02; stroke-linecap: round; stroke-linejoin: round; stroke-miterlimit: 10;"/>
    </g>
  </g>
</svg>