<?xml version="1.0" encoding="UTF-8" standalone="no"?>
<!-- Created with Inkscape (http://www.inkscape.org/) -->
<svg xmlns:dc="http://purl.org/dc/elements/1.1/" xmlns:cc="http://creativecommons.org/ns#" xmlns:rdf="http://www.w3.org/1999/02/22-rdf-syntax-ns#" xmlns:svg="http://www.w3.org/2000/svg" xmlns="http://www.w3.org/2000/svg" xmlns:xlink="http://www.w3.org/1999/xlink" xmlns:sodipodi="http://sodipodi.sourceforge.net/DTD/sodipodi-0.dtd" xmlns:inkscape="http://www.inkscape.org/namespaces/inkscape" width="211.63565" height="181.81259" id="svg2" sodipodi:version="0.32" inkscape:version="0.46" sodipodi:docname="eye.svg" inkscape:output_extension="org.inkscape.output.svg.inkscape" version="1.0">
  <defs id="defs4">
    <linearGradient inkscape:collect="always" id="linearGradient4494">
      <stop style="stop-color: rgb(0, 0, 0); stop-opacity: 1;" offset="0" id="stop4496"/>
      <stop style="stop-color: rgb(0, 0, 0); stop-opacity: 0;" offset="1" id="stop4498"/>
    </linearGradient>
    <linearGradient id="linearGradient3801">
      <stop style="stop-color: rgb(220, 46, 46); stop-opacity: 1;" offset="0" id="stop3803"/>
      <stop style="stop-color: rgb(180, 53, 53); stop-opacity: 0.576159;" offset="1" id="stop3805"/>
    </linearGradient>
    <linearGradient id="linearGradient3787">
      <stop style="stop-color: rgb(255, 255, 255); stop-opacity: 1;" offset="0" id="stop3789"/>
      <stop id="stop3799" offset="0.79080558" style="stop-color: rgb(255, 255, 255); stop-opacity: 1;"/>
      <stop style="stop-color: rgb(222, 222, 222); stop-opacity: 1;" offset="1" id="stop3791"/>
    </linearGradient>
    <inkscape:perspective sodipodi:type="inkscape:persp3d" inkscape:vp_x="0 : 526.18109 : 1" inkscape:vp_y="0 : 1000 : 0" inkscape:vp_z="744.09448 : 526.18109 : 1" inkscape:persp3d-origin="372.04724 : 350.78739 : 1" id="perspective10"/>
    <filter inkscape:collect="always" id="filter3428">
      <feGaussianBlur inkscape:collect="always" stdDeviation="1.3012827" id="feGaussianBlur3430"/>
    </filter>
    <filter inkscape:collect="always" id="filter3606" x="-0.20136987" width="1.4027396" y="-0.20136987" height="1.4027396">
      <feGaussianBlur inkscape:collect="always" stdDeviation="0.62928082" id="feGaussianBlur3608"/>
    </filter>
    <linearGradient inkscape:collect="always" xlink:href="#linearGradient3801" id="linearGradient3814" gradientUnits="userSpaceOnUse" x1="138.66415" y1="462.43311" x2="148.50481" y2="393.49017"/>
    <radialGradient inkscape:collect="always" xlink:href="#linearGradient3787" id="radialGradient3816" gradientUnits="userSpaceOnUse" gradientTransform="matrix(1.19631, -0.0870941, 0.0417428, 0.573371, -48.5774, 195.186)" cx="167.57689" cy="417.58206" fx="167.57689" fy="417.58206" r="75.791908"/>
    <filter inkscape:collect="always" id="filter3926">
      <feGaussianBlur inkscape:collect="always" stdDeviation="1.12341" id="feGaussianBlur3928"/>
    </filter>
    <filter inkscape:collect="always" id="filter4474" x="-0.053354073" width="1.1067082" y="-0.14553235" height="1.2910647">
      <feGaussianBlur inkscape:collect="always" stdDeviation="3.5495541" id="feGaussianBlur4476"/>
    </filter>
    <linearGradient inkscape:collect="always" xlink:href="#linearGradient4494" id="linearGradient4500" x1="166.67891" y1="382.91821" x2="172.7717" y2="433.94049" gradientUnits="userSpaceOnUse"/>
  </defs>
  <sodipodi:namedview id="base" pagecolor="#ffffff" bordercolor="#666666" borderopacity="1.0" inkscape:pageopacity="0.0" inkscape:pageshadow="2" inkscape:zoom="1.4" inkscape:cx="68.331787" inkscape:cy="126.50655" inkscape:document-units="px" inkscape:current-layer="layer1" showgrid="false" inkscape:window-width="1280" inkscape:window-height="727" inkscape:window-x="0" inkscape:window-y="25"/>
  <metadata id="metadata7">
    <rdf:RDF>
      <cc:Work rdf:about="">
        <dc:format>image/svg+xml</dc:format>
        <dc:type rdf:resource="http://purl.org/dc/dcmitype/StillImage"/>
      </cc:Work>
    </rdf:RDF>
  </metadata>
  <g inkscape:label="Capa 1" inkscape:groupmode="layer" id="layer1" transform="translate(-62.549, -341.872)">
    <path sodipodi:type="arc" style="opacity: 1; fill: rgb(237, 187, 130); fill-opacity: 1; stroke: none; stroke-width: 2; stroke-miterlimit: 4; stroke-dasharray: none; stroke-opacity: 1;" id="path3985" sodipodi:cx="160.86679" sodipodi:cy="448.79605" sodipodi:rx="120.46069" sodipodi:ry="81.317284" d="M 281.32748,448.79605 A 120.46069,81.317284 0 1 1 40.406097,448.79605 A 120.46069,81.317284 0 1 1 281.32748,448.79605 z" transform="matrix(0.832077, 0, 0, 1.03407, 34.5133, -32.0657)"/>
    <g id="g3809" transform="translate(8.92857, 5.71429)">
      <path sodipodi:nodetypes="cssssc" id="path3987" d="M 239.72574,427.3638 C 240.01392,434.95481 199.93337,472.76776 157.4443,472.76776 C 125.61263,472.76776 99.857768,448.62525 82.926865,443.14411 C 74.848507,440.52883 75.802064,435.74476 76.158198,433.60251 C 77.710907,424.26247 114.95524,377.8007 157.4443,377.8007 C 199.93337,377.8007 240.2433,418.49702 239.72574,427.3638 z" style="opacity: 0.229167; fill: rgb(0, 0, 0); fill-opacity: 1; stroke: none; stroke-width: 1.78466; stroke-miterlimit: 4; stroke-opacity: 1;"/>
      <path sodipodi:nodetypes="cssssc" id="path3785" d="M 238.26071,427.3868 C 238.54504,434.39343 198.99943,469.29546 157.07743,469.29546 C 125.67061,469.29546 100.25948,447.01149 83.554548,441.9523 C 75.584008,439.53835 76.524839,435.12257 76.876219,433.14524 C 78.408205,424.52421 115.15545,381.63917 157.07743,381.63917 C 198.99943,381.63917 238.77137,419.2026 238.26071,427.3868 z" style="fill: rgb(0, 0, 0); fill-opacity: 1; stroke: none; stroke-width: 1.78466; stroke-miterlimit: 4; stroke-opacity: 1;"/>
      <path sodipodi:nodetypes="cssssc" id="path3779" d="M 237.39342,427.44466 C 237.67465,434.31495 198.56159,468.53785 157.09814,468.53785 C 126.03485,468.53785 100.90165,446.68749 84.379454,441.72674 C 76.496097,439.35977 77.426636,435.02991 77.774172,433.09105 C 79.289401,424.63777 115.6347,382.5872 157.09814,382.5872 C 198.56159,382.5872 237.8985,419.41971 237.39342,427.44466 z" style="fill: url(&quot;#linearGradient3814&quot;) rgb(0, 0, 0); fill-opacity: 1; stroke: none; stroke-width: 1.78466; stroke-miterlimit: 4; stroke-opacity: 1;"/>
      <path sodipodi:nodetypes="cssssc" id="path3781" d="M 232.7398,427.44854 C 233.00647,434.28174 195.91565,468.31995 156.59596,468.31995 C 127.1387,468.31995 103.30494,446.58751 87.636981,441.65353 C 80.161212,439.29933 81.043638,434.99285 81.373206,433.06445 C 82.810094,424.65681 117.27627,382.83319 156.59596,382.83319 C 195.91565,382.83319 233.21875,419.4669 232.7398,427.44854 z" style="fill: url(&quot;#radialGradient3816&quot;) rgb(0, 0, 0); fill-opacity: 1; stroke: none; stroke-width: 1.71542; stroke-miterlimit: 4; stroke-opacity: 1;"/>
    </g>
    <g id="g3828" transform="matrix(1.23541, 0, 0, 1.23541, -151.038, 21.6377)">
      <g transform="translate(-1.07143, -11.0714)" id="g3210">
        <path sodipodi:type="arc" style="opacity: 1; fill: rgb(93, 156, 127); fill-opacity: 1; stroke: none; stroke-width: 2; stroke-miterlimit: 4; stroke-dasharray: none; stroke-opacity: 1;" id="path3156" sodipodi:cx="257.32144" sodipodi:cy="340.04074" sodipodi:rx="29.821428" sodipodi:ry="29.821428" d="M 287.14287,340.04074 A 29.821428,29.821428 0 1 1 227.50001,340.04074 A 29.821428,29.821428 0 1 1 287.14287,340.04074 z" transform="translate(0, 0.0892857)"/>
        <path sodipodi:type="star" style="opacity: 1; fill: rgb(64, 110, 87); fill-opacity: 1; stroke: none; stroke-width: 2; stroke-miterlimit: 4; stroke-dasharray: none; stroke-opacity: 1;" id="path3158" sodipodi:sides="41" sodipodi:cx="112.5" sodipodi:cy="278.79074" sodipodi:r1="26.000393" sodipodi:r2="13.000196" sodipodi:arg1="1.2055949" sodipodi:arg2="1.2822191" inkscape:flatsided="false" inkscape:rounded="0" inkscape:randomized="0" d="M 121.78571,303.07646 L 116.19971,291.25338 L 117.96969,304.2093 L 114.25394,291.67208 L 114.02547,304.74635 L 112.26705,291.78885 L 110.04548,304.67502 L 110.28563,291.60096 L 106.12303,303.99698 L 108.35611,291.11281 L 102.35005,302.72814 L 106.52372,290.33584 L 98.81498,300.89822 L 104.83141,289.28826 L 95.600671,298.55012 L 103.31885,287.99463 L 92.782469,295.73888 L 102.02148,286.48526 L 90.426429,292.53039 L 100.96972,284.79555 L 88.587775,288.99985 L 100.18822,282.96509 L 87.309603,285.23002 L 99.695297,281.03678 L 86.621872,281.30926 L 99.502507,279.05583 L 86.540703,277.32946 L 99.614366,277.06866 L 87.067998,273.38392 L 100.02825,275.12186 L 88.191397,269.56511 L 100.73447,273.26106 L 89.88457,265.96254 L 101.71646,271.52986 L 92.107829,262.66065 L 102.9512,269.96886 L 94.809063,259.73684 L 104.40977,268.61463 L 97.924958,257.25963 L 106.05796,267.49892 L 101.38248,255.2871 L 107.85714,266.64788 L 105.10059,253.86547 L 109.76515,266.08146 L 108.99213,253.02807 L 111.73727,265.81294 L 112.96589,252.79452 L 113.72726,265.8486 L 116.92874,253.17031 L 115.68848,266.18762 L 120.78777,254.14661 L 117.57497,266.82204 L 124.45255,255.70055 L 119.34251,267.737 L 127.83718,257.79571 L 120.94966,268.91105 L 130.86231,260.38297 L 122.35877,270.31667 L 133.45704,263.40169 L 123.53679,271.92092 L 135.56056,266.78112 L 124.45611,273.68619 L 137.12356,270.44205 L 125.0952,275.5711 L 138.10941,274.29866 L 125.43906,277.53148 L 138.49499,278.26057 L 125.47965,279.52138 L 138.27127,282.23489 L 125.216,281.49415 L 137.44349,286.1285 L 124.6543,283.40356 L 136.03106,289.85011 L 123.80772,285.20484 L 134.06708,293.3125 L 122.69609,286.85579 L 131.59759,296.43451 L 121.34547,288.31769 L 128.68047,299.14296 L 119.78752,289.55629 L 125.38409,301.37438 L 118.05876,290.54256 L 121.78571,303.07646 z" transform="translate(144.821, 61.9643)" inkscape:transform-center-y="1.7857143"/>
        <path sodipodi:type="arc" style="opacity: 0.401389; fill: rgb(0, 0, 0); fill-opacity: 1; stroke: none; stroke-width: 2; stroke-miterlimit: 4; stroke-dasharray: none; stroke-opacity: 1; filter: url(&quot;#filter3926&quot;);" id="path3208" sodipodi:cx="257.32144" sodipodi:cy="340.04074" sodipodi:rx="29.821428" sodipodi:ry="29.821428" d="M 287.14287,340.04074 A 29.821428,29.821428 0 1 1 227.50001,340.04074 A 29.821428,29.821428 0 1 1 287.14287,340.04074 z" transform="matrix(0.367599, 0, 0, 0.367599, 162.418, 215.418)"/>
        <path sodipodi:type="arc" style="opacity: 1; fill: rgb(0, 0, 0); fill-opacity: 1; stroke: none; stroke-width: 2; stroke-miterlimit: 4; stroke-dasharray: none; stroke-opacity: 1;" id="path3612" sodipodi:cx="257.32144" sodipodi:cy="340.04074" sodipodi:rx="29.821428" sodipodi:ry="29.821428" d="M 287.14287,340.04074 A 29.821428,29.821428 0 1 1 227.50001,340.04074 A 29.821428,29.821428 0 1 1 287.14287,340.04074 z" transform="matrix(0.341317, 0, 0, 0.341317, 169.149, 224.336)"/>
      </g>
      <path id="path3351" d="M 257.37791,303.56833 C 253.01407,303.56833 248.88725,304.60859 245.23306,306.441 C 248.11053,305.22326 251.29956,304.53537 254.61901,304.53537 C 267.89684,304.53538 278.65273,315.31971 278.65273,328.59753 C 278.65274,341.87535 267.89684,352.63125 254.61901,352.63125 C 241.34118,352.63125 230.55685,341.87536 230.55685,328.59753 C 230.55685,327.462 230.63193,326.33511 230.78439,325.24134 C 230.42263,327.0077 230.21554,328.82946 230.21554,330.70226 C 230.21554,345.68468 242.3955,357.8362 257.37791,357.83619 C 272.36033,357.83619 284.51184,345.68467 284.51184,330.70226 C 284.51184,315.71985 272.36033,303.56834 257.37791,303.56833 z" style="opacity: 0.361111; fill: rgb(251, 251, 251); fill-opacity: 1; stroke: none; stroke-width: 2; stroke-miterlimit: 4; stroke-dasharray: none; stroke-opacity: 1; filter: url(&quot;#filter3428&quot;);"/>
      <path transform="matrix(0.736639, 0, 0, 0.736639, 149.078, 76.948)" d="M 140.71428,330.04074 A 3.75,3.75 0 1 1 133.21428,330.04074 A 3.75,3.75 0 1 1 140.71428,330.04074 z" sodipodi:ry="3.75" sodipodi:rx="3.75" sodipodi:cy="330.04074" sodipodi:cx="136.96428" id="path3432" style="opacity: 0.972222; fill: rgb(251, 251, 251); fill-opacity: 1; stroke: none; stroke-width: 2; stroke-miterlimit: 4; stroke-dasharray: none; stroke-opacity: 1; filter: url(&quot;#filter3606&quot;);" sodipodi:type="arc"/>
    </g>
    <path style="fill: rgb(0, 0, 0); fill-opacity: 1; stroke: none; stroke-width: 2; stroke-miterlimit: 4; stroke-opacity: 1;" d="M 114.37018,392.63156 C 114.84475,402.81506 120.75306,402.91124 118.64135,404.20567 C 117.91385,404.65161 112.82782,402.17207 112.59053,392.73874 C 112.4611,387.59345 117.38479,380.52161 117.6922,380.52161 C 118.04227,380.52161 114.37018,386.73478 114.37018,392.63156 z" id="path3932" sodipodi:nodetypes="csssc"/>
    <path style="fill: rgb(0, 0, 0); fill-opacity: 1; stroke: none; stroke-width: 2; stroke-miterlimit: 4; stroke-opacity: 1;" d="M 104.77508,400.40412 C 105.81573,410.09965 111.07351,409.87441 109.27505,411.22337 C 108.65547,411.68809 103.98379,409.59408 103.19965,400.60192 C 102.77195,395.69725 106.71893,388.6824 106.99219,388.6659 C 107.30337,388.64712 104.41677,394.77514 104.77508,400.40412 z" id="path3935" sodipodi:nodetypes="csssc"/>
    <path style="fill: rgb(0, 0, 0); fill-opacity: 1; stroke: none; stroke-width: 2; stroke-miterlimit: 4; stroke-opacity: 1;" d="M 134.93152,382.60577 C 135.40609,391.80009 141.3144,391.88693 139.20269,393.05562 C 138.47518,393.45825 133.38915,391.21955 133.15186,382.70252 C 133.02244,378.05702 137.94613,371.67212 138.25353,371.67212 C 138.60361,371.67212 134.93152,377.28176 134.93152,382.60577 z" id="path3939" sodipodi:nodetypes="csssc"/>
    <path style="fill: rgb(0, 0, 0); fill-opacity: 1; stroke: none; stroke-width: 2; stroke-miterlimit: 4; stroke-opacity: 1;" d="M 96.239171,408.58872 C 96.713741,417.78304 102.80062,417.95917 100.68891,419.12786 C 99.961401,419.53049 94.875375,417.29179 94.638085,408.77477 C 94.508665,404.12927 96.843061,398.1015 97.150461,398.1015 C 97.500541,398.1015 96.239171,403.26472 96.239171,408.58872 z" id="path3941" sodipodi:nodetypes="csssc"/>
    <path style="fill: rgb(0, 0, 0); fill-opacity: 1; stroke: none; stroke-width: 2; stroke-miterlimit: 4; stroke-opacity: 1;" d="M 146.48956,378.36171 C 146.89174,388.59314 150.49466,388.68977 148.70511,389.9903 C 148.0886,390.43834 145.1825,387.94711 144.98141,378.46938 C 144.87173,373.29988 147.64025,366.19477 147.90076,366.19477 C 148.19742,366.19477 146.48956,372.43717 146.48956,378.36171 z" id="path3943" sodipodi:nodetypes="csssc"/>
    <path style="fill: rgb(0, 0, 0); fill-opacity: 1; stroke: none; stroke-width: 2; stroke-miterlimit: 4; stroke-opacity: 1;" d="M 161.56744,376.6979 C 162.07419,387.46798 163.61383,387.32377 161.90627,388.1203 C 161.0654,388.51253 160.546,387.24169 160.29264,377.26498 C 160.15443,371.82332 161.81546,364.01761 162.1437,364.01761 C 162.5175,364.01761 161.56744,370.46144 161.56744,376.6979 z" id="path3945" sodipodi:nodetypes="csssc"/>
    <path style="fill: rgb(0, 0, 0); fill-opacity: 1; stroke: none; stroke-width: 2; stroke-miterlimit: 4; stroke-opacity: 1;" d="M 215.71395,391.55377 C 214.11709,400.93815 211.01393,400.63114 212.58751,402.05161 C 213.12961,402.54097 215.84313,400.55382 217.15685,391.83954 C 217.87342,387.08645 216.42636,380.24209 216.17492,380.20988 C 215.88859,380.17319 216.41385,386.09091 215.71395,391.55377 z" id="path3967" sodipodi:nodetypes="csssc"/>
    <path style="fill: rgb(0, 0, 0); fill-opacity: 1; stroke: none; stroke-width: 2; stroke-miterlimit: 4; stroke-opacity: 1;" d="M 205.12358,385.98296 C 204.73223,395.48105 201.61521,395.57075 203.35655,396.77806 C 203.95644,397.19398 206.39543,394.88132 206.59109,386.08291 C 206.69782,381.28394 204.39271,374.68809 204.13922,374.68809 C 203.85055,374.68809 205.12358,380.48306 205.12358,385.98296 z" id="path3969" sodipodi:nodetypes="csssc"/>
    <path style="fill: rgb(0, 0, 0); fill-opacity: 1; stroke: none; stroke-width: 2; stroke-miterlimit: 4; stroke-opacity: 1;" d="M 174.44928,376.85897 C 173.08737,386.87241 169.97234,386.73577 171.58389,388.1416 C 172.13906,388.62591 174.80596,386.36182 175.9013,377.07364 C 176.49875,372.00752 174.87689,364.86242 174.62431,364.84359 C 174.33667,364.82215 175.0121,371.04382 174.44928,376.85897 z" id="path3971" sodipodi:nodetypes="csssc"/>
    <path style="fill: rgb(0, 0, 0); fill-opacity: 1; stroke: none; stroke-width: 2; stroke-miterlimit: 4; stroke-opacity: 1;" d="M 225.28081,397.40678 C 224.92348,406.60112 220.47479,406.68795 222.06481,407.85665 C 222.61259,408.25927 226.44216,406.02057 226.62082,397.50354 C 226.71827,392.85804 223.01095,386.47314 222.77948,386.47314 C 222.51589,386.47314 225.28081,392.08278 225.28081,397.40678 z" id="path3973" sodipodi:nodetypes="csssc"/>
    <path style="fill: rgb(0, 0, 0); fill-opacity: 1; stroke: none; stroke-width: 2; stroke-miterlimit: 4; stroke-opacity: 1;" d="M 185.45211,379.61591 C 185.06077,389.11399 181.94375,389.20369 183.68509,390.411 C 184.28498,390.82693 186.72396,388.51426 186.91963,379.71585 C 187.02636,374.91688 184.72125,368.32103 184.46777,368.32103 C 184.1791,368.32103 185.45211,374.116 185.45211,379.61591 z" id="path3975" sodipodi:nodetypes="csssc"/>
    <path style="fill: rgb(0, 0, 0); fill-opacity: 1; stroke: none; stroke-width: 2; stroke-miterlimit: 4; stroke-opacity: 1;" d="M 234.19142,404.59167 C 234.86548,414.36849 231.77597,414.78144 233.6427,415.83974 C 234.28579,416.20432 236.45222,413.58243 235.6619,404.543 C 235.23084,399.61256 232.20032,393.08851 231.94824,393.11462 C 231.6612,393.14434 233.57577,398.95369 234.19142,404.59167 z" id="path3977" sodipodi:nodetypes="csssc"/>
    <path style="fill: rgb(0, 0, 0); fill-opacity: 1; stroke: none; stroke-width: 2; stroke-miterlimit: 4; stroke-opacity: 1;" d="M 196.90414,381.49556 C 196.52122,391.34989 191.75384,391.44296 193.45777,392.69556 C 194.04479,393.12708 198.14868,390.72768 198.34014,381.59927 C 198.44457,376.62029 194.47168,369.77705 194.22364,369.77705 C 193.94116,369.77705 196.90414,375.78937 196.90414,381.49556 z" id="path3979" sodipodi:nodetypes="csssc"/>
    <path style="fill: rgb(0, 0, 0); fill-opacity: 1; stroke: none; stroke-width: 2; stroke-miterlimit: 4; stroke-opacity: 1;" d="M 125.84629,386.68981 C 126.99302,396.76614 131.02538,396.65579 129.11444,398.04171 C 128.45612,398.51916 125.03914,396.22605 124.16848,386.88221 C 123.69359,381.78573 126.30277,374.61429 126.59386,374.59942 C 126.92534,374.58248 125.44249,380.84178 125.84629,386.68981 z" id="path3983" sodipodi:nodetypes="csssc"/>
    <path style="fill: rgb(0, 0, 0); fill-opacity: 1; stroke: none; stroke-width: 2; stroke-miterlimit: 4; stroke-opacity: 1;" d="M 244.88816,415.53196 C 243.2913,423.08077 240.18814,422.83381 241.76172,423.97644 C 242.30382,424.37008 245.01734,422.77162 246.33106,415.76184 C 247.04763,411.93844 245.60057,406.43283 245.34913,406.40692 C 245.0628,406.37741 245.58806,411.13763 244.88816,415.53196 z" id="path4129" sodipodi:nodetypes="csssc"/>
    <path style="fill: rgb(0, 0, 0); fill-opacity: 1; stroke: none; stroke-width: 2; stroke-miterlimit: 4; stroke-opacity: 1;" d="M 87.950521,420.88608 C 89.863004,428.46104 93.423054,427.95231 91.854704,429.21194 C 91.314394,429.64589 88.085134,428.25422 86.482274,421.20963 C 85.608019,417.36725 87.27934,411.61552 87.535715,411.57352 C 87.827665,411.52569 87.072278,416.46223 87.950521,420.88608 z" id="path4131" sodipodi:nodetypes="csssc"/>
    <path style="fill: rgb(0, 0, 0); fill-opacity: 1; stroke: none; stroke-width: 2; stroke-miterlimit: 4; stroke-opacity: 1;" d="M 120.24354,471.05093 C 120.73007,463.85967 126.78726,463.79174 124.62234,462.87766 C 123.87651,462.56275 118.66231,464.31372 118.41904,470.97524 C 118.28635,474.60868 123.33411,479.60258 123.64927,479.60258 C 124.00816,479.60258 120.24354,475.21505 120.24354,471.05093 z" id="path4133" sodipodi:nodetypes="csssc"/>
    <path style="fill: rgb(0, 0, 0); fill-opacity: 1; stroke: none; stroke-width: 2; stroke-miterlimit: 4; stroke-opacity: 1;" d="M 111.87121,466.18256 C 112.93809,459.33588 118.32836,459.49493 116.48458,458.54235 C 115.84939,458.21417 111.05998,459.6929 110.25608,466.04288 C 109.81761,469.50639 113.86405,474.46006 114.14419,474.47171 C 114.46322,474.48497 111.50387,470.15756 111.87121,466.18256 z" id="path4135" sodipodi:nodetypes="csssc"/>
    <path style="fill: rgb(0, 0, 0); fill-opacity: 1; stroke: none; stroke-width: 2; stroke-miterlimit: 4; stroke-opacity: 1;" d="M 137.84016,477.80411 C 138.32669,471.31138 144.38388,471.25005 142.21896,470.42476 C 141.47312,470.14044 136.25892,471.72134 136.01565,477.73579 C 135.88297,481.01629 140.93073,485.5251 141.24588,485.5251 C 141.60478,485.5251 137.84016,481.56375 137.84016,477.80411 z" id="path4137" sodipodi:nodetypes="csssc"/>
    <path style="fill: rgb(0, 0, 0); fill-opacity: 1; stroke: none; stroke-width: 2; stroke-miterlimit: 4; stroke-opacity: 1;" d="M 103.28978,461.46412 C 103.77631,454.97139 110.01658,454.84701 107.85165,454.02172 C 107.10581,453.73739 101.89162,455.31829 101.64835,461.33274 C 101.51566,464.61325 103.90889,468.86986 104.22404,468.86986 C 104.58294,468.86986 103.28978,465.22376 103.28978,461.46412 z" id="path4139" sodipodi:nodetypes="csssc"/>
    <path style="fill: rgb(0, 0, 0); fill-opacity: 1; stroke: none; stroke-width: 2; stroke-miterlimit: 4; stroke-opacity: 1;" d="M 148.05082,481.26322 C 148.46313,474.03811 152.15684,473.96987 150.3222,473.05148 C 149.69015,472.73509 146.71082,474.49431 146.50466,481.18719 C 146.39222,484.83772 149.2305,489.85512 149.49758,489.85512 C 149.80171,489.85512 148.05082,485.44694 148.05082,481.26322 z" id="path4141" sodipodi:nodetypes="csssc"/>
    <path style="fill: rgb(0, 0, 0); fill-opacity: 1; stroke: none; stroke-width: 2; stroke-miterlimit: 4; stroke-opacity: 1;" d="M 160.03029,481.93374 C 160.54981,474.32826 162.12825,474.43009 160.37766,473.86761 C 159.5156,473.59062 158.98311,474.48806 158.72337,481.53328 C 158.58168,485.37601 160.28456,490.88815 160.62107,490.88815 C 161.00429,490.88815 160.03029,486.33773 160.03029,481.93374 z" id="path4143" sodipodi:nodetypes="csssc"/>
    <path style="fill: rgb(0, 0, 0); fill-opacity: 1; stroke: none; stroke-width: 2; stroke-miterlimit: 4; stroke-opacity: 1;" d="M 214.54942,469.94167 C 212.91232,463.31472 209.73096,463.53152 211.34419,462.52843 C 211.89995,462.18286 214.68185,463.58612 216.02868,469.73986 C 216.7633,473.09634 215.27978,477.92962 215.022,477.95236 C 214.72846,477.97827 215.26695,473.79936 214.54942,469.94167 z" id="path4145" sodipodi:nodetypes="csssc"/>
    <path style="fill: rgb(0, 0, 0); fill-opacity: 1; stroke: none; stroke-width: 2; stroke-miterlimit: 4; stroke-opacity: 1;" d="M 203.70568,474.42145 C 203.30447,467.7142 200.1089,467.65086 201.89412,466.79829 C 202.50913,466.50458 205.00958,468.13771 205.21017,474.35086 C 205.31959,477.73975 202.9564,482.39753 202.69652,482.39753 C 202.40057,482.39753 203.70568,478.3053 203.70568,474.42145 z" id="path4147" sodipodi:nodetypes="csssc"/>
    <path style="fill: rgb(0, 0, 0); fill-opacity: 1; stroke: none; stroke-width: 2; stroke-miterlimit: 4; stroke-opacity: 1;" d="M 173.23675,481.82 C 171.84052,474.74882 168.64699,474.84532 170.29915,473.85256 C 170.86831,473.51056 173.60242,475.10939 174.72536,481.6684 C 175.33787,485.24594 173.67514,490.29158 173.41619,490.30487 C 173.1213,490.32002 173.81375,485.92647 173.23675,481.82 z" id="path4149" sodipodi:nodetypes="csssc"/>
    <path style="fill: rgb(0, 0, 0); fill-opacity: 1; stroke: none; stroke-width: 2; stroke-miterlimit: 4; stroke-opacity: 1;" d="M 224.33487,464.29611 C 223.96853,457.80336 219.40774,457.74205 221.03783,456.91674 C 221.59941,456.63243 225.52548,458.21333 225.70865,464.22778 C 225.80855,467.50829 222.00781,472.0171 221.77051,472.0171 C 221.50027,472.0171 224.33487,468.05575 224.33487,464.29611 z" id="path4151" sodipodi:nodetypes="csssc"/>
    <path style="fill: rgb(0, 0, 0); fill-opacity: 1; stroke: none; stroke-width: 2; stroke-miterlimit: 4; stroke-opacity: 1;" d="M 182.68614,480.50364 C 182.28494,473.7964 179.08937,473.73306 180.87459,472.8805 C 181.4896,472.58678 183.99004,474.21991 184.19064,480.43306 C 184.30006,483.82195 181.93686,488.47973 181.67699,488.47973 C 181.38105,488.47973 182.68614,484.38751 182.68614,480.50364 z" id="path4153" sodipodi:nodetypes="csssc"/>
    <path style="fill: rgb(0, 0, 0); fill-opacity: 1; stroke: none; stroke-width: 2; stroke-miterlimit: 4; stroke-opacity: 1;" d="M 232.34459,457.39519 C 233.03564,450.49112 229.86827,450.1995 231.78204,449.45217 C 232.44134,449.19471 234.66236,451.04621 233.85213,457.42956 C 233.41021,460.91128 230.30332,465.51835 230.04489,465.49992 C 229.75061,465.47893 231.71343,461.37656 232.34459,457.39519 z" id="path4155" sodipodi:nodetypes="csssc"/>
    <path style="fill: rgb(0, 0, 0); fill-opacity: 1; stroke: none; stroke-width: 2; stroke-miterlimit: 4; stroke-opacity: 1;" d="M 194.20768,478.58811 C 193.81511,471.62929 188.92759,471.56357 190.67446,470.67902 C 191.27627,470.3743 195.48358,472.06868 195.67986,478.51486 C 195.78692,482.03087 191.71392,486.86334 191.45963,486.86334 C 191.17003,486.86334 194.20768,482.61763 194.20768,478.58811 z" id="path4157" sodipodi:nodetypes="csssc"/>
    <path style="fill: rgb(0, 0, 0); fill-opacity: 1; stroke: none; stroke-width: 2; stroke-miterlimit: 4; stroke-opacity: 1;" d="M 128.83539,474.98359 C 129.97947,467.868 134.00253,467.94592 132.096,466.96724 C 131.43919,466.63007 128.03011,468.2494 127.16145,474.84771 C 126.68766,478.44669 129.29082,483.51093 129.58123,483.52143 C 129.91195,483.53339 128.43252,479.11327 128.83539,474.98359 z" id="path4159" sodipodi:nodetypes="csssc"/>
    <path style="fill: rgb(0, 0, 0); fill-opacity: 1; stroke: none; stroke-width: 2; stroke-miterlimit: 4; stroke-opacity: 1;" d="M 241.68124,450.41597 C 240.04414,445.08524 236.86278,445.25964 238.47601,444.45275 C 239.03177,444.17477 241.81367,445.30355 243.1605,450.25363 C 243.89512,452.95359 242.4116,456.84148 242.15382,456.85978 C 241.86028,456.88062 242.39877,453.51911 241.68124,450.41597 z" id="path4161" sodipodi:nodetypes="csssc"/>
    <path style="fill: rgb(0, 0, 0); fill-opacity: 1; stroke: none; stroke-width: 2; stroke-miterlimit: 4; stroke-opacity: 1;" d="M 94.471104,456.07865 C 96.431778,450.19011 100.08155,450.58559 98.473667,449.60639 C 97.919747,449.26906 94.609106,450.35089 92.965854,455.82714 C 92.069574,458.81408 93.78301,463.2853 94.045841,463.31795 C 94.345148,463.35513 93.570732,459.51761 94.471104,456.07865 z" id="path4163" sodipodi:nodetypes="csssc"/>
    <path style="opacity: 0.510417; fill: url(&quot;#linearGradient4500&quot;) rgb(0, 0, 0); fill-opacity: 1; stroke: none; stroke-width: 1.71542; stroke-miterlimit: 4; stroke-opacity: 1; filter: url(&quot;#filter4474&quot;);" d="M 166.29182,387.86234 C 124.87596,387.86234 88.576578,430.06887 87.06309,438.5497 C 86.752689,440.28902 86.005086,443.94633 91.473828,446.39867 C 102.51934,431.38146 132.71908,403.65486 166.29182,403.65486 C 198.93522,403.65486 230.24296,426.61625 241.80104,440.2834 C 244.87055,436.98723 246.56702,434.32334 246.50803,432.87574 C 247.01251,424.82463 207.70768,387.86235 166.29182,387.86234 z" id="path4423" transform="matrix(1, 0, 0, 1.02157, 0, -9.62929)"/>
  </g>
</svg>