<?xml version="1.0" encoding="UTF-8" standalone="no"?>
<svg
   xmlns:dc="http://purl.org/dc/elements/1.1/"
   xmlns:cc="http://web.resource.org/cc/"
   xmlns:rdf="http://www.w3.org/1999/02/22-rdf-syntax-ns#"
   xmlns:svg="http://www.w3.org/2000/svg"
   xmlns="http://www.w3.org/2000/svg"
   xmlns:sodipodi="http://sodipodi.sourceforge.net/DTD/sodipodi-0.dtd"
   xmlns:inkscape="http://www.inkscape.org/namespaces/inkscape"
   width="122pt"
   height="120pt"
   viewBox="0 0 122 120"
   version="1.1"
   id="svg2559"
   sodipodi:version="0.32"
   inkscape:version="0.45.1"
   sodipodi:docname="Burmapeacockforhistory.svg"
   inkscape:output_extension="org.inkscape.output.svg.inkscape"
   sodipodi:docbase="C:\Users\Stephen\Desktop">
  <metadata
     id="metadata2920">
    <rdf:RDF>
      <cc:Work
         rdf:about="">
        <dc:format>image/svg+xml</dc:format>
        <dc:type
           rdf:resource="http://purl.org/dc/dcmitype/StillImage" />
      </cc:Work>
    </rdf:RDF>
  </metadata>
  <defs
     id="defs2918" />
  <sodipodi:namedview
     inkscape:window-height="850"
     inkscape:window-width="1440"
     inkscape:pageshadow="2"
     inkscape:pageopacity="0.0"
     guidetolerance="10.0"
     gridtolerance="10.0"
     objecttolerance="10.0"
     borderopacity="1.0"
     bordercolor="#666666"
     pagecolor="#ffffff"
     id="base"
     inkscape:zoom="2.5133333"
     inkscape:cx="76.25"
     inkscape:cy="98.24778"
     inkscape:window-x="-8"
     inkscape:window-y="-8"
     inkscape:current-layer="svg2559" />
  <path
     d=" M 59.3 0.0 L 61.6 0.0 C 63.8 1.8 65.9 3.7 68.3 5.4 C 71.4 5.0 74.2 3.2 77.4 3.1 C 80.2 5.3 82.3 10.2 86.5 9.5 C 88.8 10.5 93.6 7.5 95.2 10.8 C 96.4 13.2 97.5 15.7 98.7 18.2 C 100.9 18.8 103.1 19.2 105.3 19.6 C 105.5 22.6 105.9 25.6 106.3 28.6 C 106.8 28.6 107.7 28.8 108.1 28.9 C 110.5 29.4 114.1 29.0 115.1 31.9 C 115.5 34.8 114.6 37.7 114.3 40.6 C 117.0 43.2 119.8 45.8 122.0 48.9 L 122.0 49.7 C 120.2 52.7 118.4 55.7 116.6 58.8 C 117.7 61.7 120.5 64.4 120.6 67.7 C 118.6 70.5 114.9 71.4 112.2 73.3 C 111.9 77.1 114.0 81.5 111.9 84.9 C 108.9 86.0 105.7 86.5 102.5 87.4 C 102.6 90.2 102.1 93.0 101.9 95.8 C 99.2 96.3 96.3 96.7 93.6 97.7 C 91.9 99.3 90.9 101.6 89.0 103.2 C 84.4 104.7 78.8 103.3 75.7 99.4 C 79.0 99.6 82.3 100.5 85.5 99.7 C 89.1 98.4 88.8 94.0 89.3 91.0 C 90.6 92.3 92.1 93.4 93.9 93.7 L 94.6 93.9 C 98.4 93.4 100.9 90.2 99.7 86.4 L 99.5 85.6 C 99.4 85.2 99.1 84.5 99.0 84.1 L 98.7 83.4 C 102.1 83.1 105.4 83.0 108.7 82.6 C 108.6 79.3 108.9 76.0 108.3 72.8 C 108.2 72.4 108.0 71.6 107.9 71.2 C 110.6 70.1 113.4 69.2 115.7 67.4 C 116.8 64.0 113.6 61.2 111.8 58.7 C 112.3 57.6 112.8 56.6 113.4 55.5 C 114.6 53.5 117.4 51.8 117.0 49.2 C 116.0 46.3 113.3 44.6 111.1 42.8 C 110.8 42.6 110.3 42.3 110.0 42.1 C 111.1 39.2 111.7 36.2 112.2 33.2 C 109.6 31.4 106.5 31.2 103.5 30.8 C 103.2 28.0 102.8 25.2 102.7 22.4 C 101.0 22.3 99.3 22.2 97.6 22.1 L 96.8 22.3 C 93.1 18.4 94.0 9.8 85.7 13.3 C 85.3 13.2 84.5 13.2 84.1 13.1 C 83.7 13.1 82.8 13.1 82.4 13.0 C 80.8 11.1 79.2 9.1 77.5 7.3 C 76.3 7.5 73.9 7.8 72.7 8.0 L 72.0 8.1 C 70.7 8.5 69.5 8.9 68.3 9.4 C 65.5 7.8 63.2 2.8 59.5 4.5 C 57.1 5.5 54.8 6.9 52.4 8.2 C 51.8 7.9 50.6 7.5 50.0 7.2 C 45.2 5.5 42.4 10.7 39.2 13.3 C 38.8 13.2 38.0 12.9 37.7 12.7 C 35.0 12.2 32.5 13.4 29.9 13.8 C 29.5 15.8 29.1 17.7 28.5 19.7 C 24.9 19.6 21.3 19.9 17.8 20.8 C 17.6 22.2 17.2 23.6 16.9 25.0 C 16.8 27.5 16.7 30.0 16.6 32.4 C 14.1 33.6 10.9 34.1 9.3 36.4 C 9.5 39.2 9.8 42.1 10.1 44.9 C 8.0 47.5 5.4 49.8 4.1 53.0 C 4.9 55.3 6.5 57.2 8.0 59.2 C 8.3 59.5 8.9 60.3 9.2 60.7 C 7.9 62.3 6.5 64.0 5.9 66.0 C 6.0 68.7 8.9 69.9 10.6 71.5 C 10.6 72.9 11.1 73.2 12.4 72.4 C 12.8 72.2 13.8 71.7 14.2 71.5 L 13.6 72.3 C 13.0 73.1 12.5 73.9 12.0 74.7 C 10.4 76.7 7.7 79.6 9.6 82.2 C 11.7 83.7 14.1 84.6 16.4 85.6 C 16.8 88.1 16.5 90.9 17.7 93.2 C 19.7 95.1 22.7 94.7 25.1 95.1 C 25.3 96.1 25.5 97.1 25.8 98.1 C 22.1 98.4 17.3 99.7 14.7 96.2 C 13.7 93.8 13.6 91.1 13.2 88.5 C 10.4 87.0 7.6 85.6 5.1 83.7 C 5.1 80.3 7.2 77.3 8.5 74.2 C 6.2 72.2 3.9 70.1 2.0 67.8 C 2.2 65.3 4.1 63.2 5.4 61.1 C 3.6 58.3 1.7 55.7 0.0 52.9 L 0.0 52.0 C 1.9 49.3 4.4 47.1 6.3 44.4 C 6.8 41.1 6.1 37.7 6.0 34.3 C 8.6 33.1 11.3 32.0 13.8 30.7 C 14.2 28.1 14.5 25.5 14.9 22.8 C 14.9 20.2 17.1 18.7 18.9 17.1 C 19.9 19.1 22.4 18.8 24.0 17.9 C 24.6 17.7 25.7 17.4 26.2 17.2 C 27.7 14.0 29.0 9.6 33.2 9.3 C 37.6 9.1 41.0 6.8 43.6 3.5 C 46.9 3.7 50.2 4.4 53.5 4.1 C 55.6 3.1 57.4 1.4 59.3 0.0 Z"
     id="path2563"
     stroke-width="0.09375"
     stroke="#100e5b"
     fill="#100e5b" />
  <path
     fill="#43b68c"
     stroke="#43b68c"
     stroke-width="0.09375"
     d=" M 59.5 4.5 C 63.2 2.8 65.5 7.8 68.3 9.4 C 69.5 8.9 70.7 8.5 72.0 8.1 C 71.9 9.3 71.8 10.5 71.7 11.7 C 71.7 14.5 72.4 17.2 72.7 20.0 C 74.6 17.8 76.7 15.8 79.2 14.2 C 79.3 13.0 79.2 11.8 79.1 10.6 C 77.3 10.1 75.5 9.5 73.9 8.6 C 73.6 8.5 73.0 8.2 72.7 8.0 C 73.9 7.8 76.3 7.5 77.5 7.3 C 79.2 9.1 80.8 11.1 82.4 13.0 C 82.8 13.1 83.7 13.1 84.1 13.1 C 83.6 14.1 83.1 15.1 82.7 16.2 C 82.1 18.7 81.8 21.3 81.0 23.9 C 83.7 23.0 86.4 22.3 89.0 21.4 C 89.7 20.5 90.4 19.6 91.0 18.7 C 90.7 18.5 90.1 17.9 89.8 17.7 C 88.6 16.6 87.4 15.5 86.3 14.4 C 86.1 14.1 85.8 13.6 85.7 13.3 C 94.0 9.8 93.1 18.4 96.8 22.3 C 96.0 22.8 95.3 23.5 94.7 24.1 C 93.4 26.3 92.4 28.6 91.2 30.9 C 93.9 30.7 96.5 30.8 99.1 30.5 C 100.1 30.0 101.0 29.4 102.0 28.9 C 101.6 28.5 100.7 27.9 100.3 27.5 C 100.3 26.7 100.2 25.8 100.1 24.9 C 99.6 24.6 98.6 23.9 98.1 23.6 C 98.0 23.2 97.8 22.5 97.6 22.1 C 99.3 22.2 101.0 22.3 102.7 22.4 C 102.8 25.2 103.2 28.0 103.5 30.8 C 100.4 32.4 97.5 34.1 94.6 36.0 C 95.2 36.2 96.3 36.6 96.8 36.7 C 96.8 37.8 96.8 38.9 96.8 40.0 C 96.6 40.4 96.4 41.3 96.2 41.8 C 95.8 42.9 95.4 44.1 95.0 45.3 C 93.6 44.4 92.2 43.6 90.9 42.8 C 91.4 39.7 92.7 36.8 94.2 34.0 C 92.8 34.6 91.4 35.2 89.9 35.6 C 89.9 38.3 90.0 40.9 90.5 43.5 C 91.9 44.6 93.3 45.6 94.6 46.7 C 93.9 48.5 93.1 50.3 92.4 52.1 C 93.5 53.8 94.7 55.4 95.8 57.0 C 94.7 58.5 93.6 59.9 92.6 61.4 C 93.7 63.3 94.7 65.3 95.9 67.1 C 94.1 68.7 92.5 70.4 90.5 71.7 C 94.0 70.3 97.7 69.1 101.6 69.2 C 103.7 69.8 105.8 70.4 107.9 71.2 C 108.0 71.6 108.2 72.4 108.3 72.8 C 107.1 72.6 106.0 72.5 104.9 72.3 C 104.0 72.1 103.1 72.0 102.2 71.9 C 99.7 71.7 97.2 72.3 94.8 72.8 C 94.7 73.2 94.5 74.1 94.4 74.6 C 94.4 75.0 94.2 75.8 94.2 76.2 C 93.6 75.3 93.1 74.4 92.5 73.4 C 90.6 77.4 86.6 79.8 85.1 84.0 C 86.3 84.0 87.6 84.0 88.9 84.0 C 89.8 86.0 90.8 87.8 91.8 89.7 C 92.5 91.1 93.2 92.4 93.9 93.7 C 92.1 93.4 90.6 92.3 89.3 91.0 L 88.8 90.4 C 86.8 88.3 84.8 86.2 82.7 84.3 C 82.3 83.9 81.6 83.3 81.2 83.0 C 82.2 79.3 83.7 75.2 81.3 71.8 C 82.9 72.9 84.3 74.4 85.8 75.6 C 86.9 76.2 87.9 76.8 89.0 77.3 C 89.5 75.3 90.0 73.2 90.2 71.1 C 89.7 71.0 88.7 70.8 88.2 70.7 C 84.5 70.5 80.9 70.6 77.3 69.8 C 76.5 66.5 75.8 63.3 74.8 60.1 C 75.7 60.0 77.3 59.8 78.1 59.7 C 81.6 60.1 85.1 60.6 88.7 60.8 C 89.2 60.8 90.2 60.8 90.7 60.8 C 92.2 59.1 92.0 56.8 90.7 55.0 C 90.2 55.2 89.3 55.4 88.9 55.5 C 85.1 57.1 81.2 58.2 77.3 59.3 C 76.8 59.0 75.8 58.5 75.3 58.2 C 75.3 55.9 75.2 53.5 75.5 51.2 C 78.2 48.5 81.6 47.0 85.1 45.9 C 85.6 45.7 86.7 45.2 87.2 45.0 C 86.2 43.1 85.0 41.4 83.8 39.7 C 82.8 41.1 81.7 42.5 80.6 43.8 C 79.8 45.0 78.9 46.1 78.1 47.2 C 76.6 46.3 75.0 45.5 73.4 44.7 C 75.1 43.2 76.9 41.7 78.7 40.4 C 79.9 39.3 81.1 38.3 82.2 37.3 C 80.1 36.1 77.9 34.3 75.4 35.8 C 74.9 37.8 74.4 39.8 73.8 41.8 C 72.4 42.3 71.0 42.7 69.7 43.0 C 70.6 42.2 71.6 41.3 72.6 40.5 C 71.9 39.9 71.1 39.4 70.3 38.8 C 71.1 37.7 71.9 36.5 72.7 35.4 C 73.5 34.2 74.4 33.0 75.2 31.8 C 72.9 31.5 70.6 31.2 68.3 31.6 L 68.0 31.1 C 66.9 28.4 64.8 26.6 61.9 27.3 C 61.4 29.2 61.5 31.2 63.0 32.7 C 61.7 32.8 60.4 32.9 59.1 33.0 C 59.3 31.3 59.4 29.6 59.4 27.8 C 61.4 26.0 63.4 24.1 65.4 22.2 C 66.4 24.1 67.4 25.9 68.4 27.8 C 70.5 27.3 72.5 26.9 74.5 26.4 C 73.7 34.3 84.4 32.7 87.7 28.5 C 83.9 29.2 80.1 29.9 76.3 30.7 C 76.4 28.1 76.5 25.5 76.6 22.9 C 74.3 24.5 71.8 25.8 69.2 26.8 C 65.1 22.4 67.0 16.5 68.7 11.4 C 66.1 16.6 63.5 21.8 59.9 26.4 C 58.8 25.2 56.5 22.8 55.4 21.6 C 55.2 17.6 55.0 13.5 54.6 9.5 C 53.6 15.3 55.6 22.6 50.8 27.2 C 45.8 26.4 45.0 20.8 42.5 17.3 C 43.4 20.7 44.2 24.0 44.6 27.5 C 48.6 28.7 52.7 27.4 55.3 24.1 C 56.3 25.0 57.4 25.9 58.5 26.8 C 56.3 27.2 54.3 28.0 53.0 29.8 C 54.1 31.0 55.2 32.1 56.3 33.3 C 56.6 34.8 56.9 36.3 57.2 37.9 C 57.2 38.2 57.3 39.0 57.3 39.4 C 56.5 39.0 55.6 38.6 54.7 38.2 C 54.2 39.8 53.5 41.2 52.9 42.7 L 52.7 41.9 C 52.7 41.8 52.7 41.7 52.6 41.6 C 51.7 38.9 51.5 35.9 51.7 33.0 C 51.7 32.4 51.8 31.2 51.8 30.5 C 49.3 30.2 46.9 30.7 44.6 31.7 C 45.5 32.9 46.4 34.1 47.3 35.3 C 48.4 36.8 49.4 38.4 50.3 40.0 C 50.1 40.6 49.6 41.7 49.4 42.2 C 48.8 42.5 47.7 43.0 47.2 43.3 C 45.9 41.0 45.0 38.4 44.2 35.8 C 44.1 35.3 43.9 34.4 43.8 33.9 C 41.5 34.6 39.5 36.0 37.9 37.8 C 39.2 38.6 40.5 39.5 41.8 40.4 C 42.5 40.9 43.3 41.3 44.0 41.7 C 43.9 43.3 44.6 44.1 46.1 44.2 C 46.2 44.8 46.5 45.9 46.6 46.4 C 46.6 49.7 46.6 52.9 46.4 56.2 C 46.3 56.5 46.1 57.3 46.0 57.6 C 46.0 57.7 45.9 57.8 45.9 57.8 C 45.2 61.7 45.3 65.8 44.7 69.8 C 42.0 73.4 40.8 78.2 36.9 80.9 C 36.4 81.2 35.6 81.8 35.2 82.1 C 33.0 83.7 30.7 85.2 28.3 86.4 C 28.9 85.3 29.5 84.2 30.2 83.1 C 31.1 82.4 32.1 81.6 33.0 80.9 C 27.5 78.9 22.5 82.4 17.9 85.2 C 21.8 82.2 25.8 79.2 28.2 74.8 C 28.3 75.4 28.5 76.6 28.6 77.2 C 29.0 76.0 29.4 74.8 29.7 73.6 C 30.3 74.8 30.8 75.9 31.4 77.1 C 32.4 76.4 33.3 75.6 34.4 75.0 C 37.0 72.5 40.2 70.8 43.4 69.3 C 39.7 69.8 35.9 70.2 32.1 70.6 C 31.6 70.7 30.6 70.8 30.0 70.8 C 29.7 70.5 29.2 70.0 28.9 69.7 L 29.6 68.9 C 33.1 66.5 37.5 65.9 41.5 64.6 C 37.7 64.1 33.9 63.8 30.3 62.7 C 29.0 62.4 27.8 62.2 26.5 61.9 C 25.9 60.3 25.0 58.7 24.2 57.1 C 26.8 54.4 28.0 50.9 26.7 47.2 C 27.9 46.3 29.2 45.3 30.5 44.4 C 30.1 42.4 29.8 40.4 29.4 38.4 C 32.9 37.7 36.3 36.1 37.8 32.7 C 39.5 32.5 41.1 32.5 42.7 32.2 C 43.4 31.3 44.0 30.5 44.6 29.6 C 42.2 29.9 39.7 30.3 37.3 30.7 C 34.2 27.2 31.3 23.5 28.5 19.7 C 29.1 17.7 29.5 15.8 29.9 13.8 C 32.5 13.4 35.0 12.2 37.7 12.7 L 37.4 13.5 C 35.1 14.2 33.2 15.6 32.2 17.8 C 31.9 18.0 31.3 18.5 31.1 18.7 C 31.7 19.4 32.3 20.0 32.9 20.6 C 36.3 21.4 39.9 22.0 42.7 24.3 C 42.0 21.1 42.1 17.6 40.4 14.7 C 40.1 14.3 39.5 13.6 39.2 13.3 C 42.4 10.7 45.2 5.5 50.0 7.2 C 49.9 7.6 49.6 8.4 49.4 8.8 C 48.4 8.6 47.5 8.5 46.5 8.4 C 45.8 9.2 45.0 9.9 44.3 10.6 C 43.9 10.9 43.2 11.4 42.9 11.7 C 43.2 12.1 43.9 12.8 44.2 13.1 C 46.5 15.3 48.9 17.4 50.9 19.9 C 50.7 16.8 51.4 13.7 52.2 10.7 C 52.3 10.1 52.4 8.8 52.4 8.2 C 54.8 6.9 57.1 5.5 59.5 4.5 Z"
     id="path2567" />
  <path
     fill="#c39834"
     stroke="#c39834"
     stroke-width="0.09375"
     d=" M 50.0 7.2 C 50.6 7.5 51.8 7.9 52.4 8.2 C 52.4 8.8 52.3 10.1 52.2 10.7 C 50.3 13.4 47.3 14.5 44.2 13.1 C 43.9 12.8 43.2 12.1 42.9 11.7 C 43.2 11.4 43.9 10.9 44.3 10.6 C 45.7 10.6 47.2 10.5 48.7 10.5 C 48.8 10.1 49.2 9.2 49.4 8.8 C 49.6 8.4 49.9 7.6 50.0 7.2 Z"
     id="path2569" />
  <path
     fill="#60441b"
     stroke="#60441b"
     stroke-width="0.09375"
     d=" M 57.7 9.2 C 58.6 6.4 61.4 6.5 62.3 9.1 C 60.8 9.9 59.2 9.9 57.7 9.2 Z"
     id="path2571" />
  <path
     fill="#694918"
     stroke="#694918"
     stroke-width="0.09375"
     d=" M 46.5 8.4 C 47.5 8.5 48.4 8.6 49.4 8.8 C 49.2 9.2 48.8 10.1 48.7 10.5 C 47.2 10.5 45.7 10.6 44.3 10.6 C 45.0 9.9 45.8 9.2 46.5 8.4 Z"
     id="path2573" />
  <path
     fill="#c39733"
     stroke="#c39733"
     stroke-width="0.09375"
     d=" M 55.7 8.3 C 56.2 8.5 57.2 8.9 57.7 9.2 C 59.2 9.9 60.8 9.9 62.3 9.1 C 63.2 8.8 64.1 8.3 65.0 7.9 C 64.7 8.9 64.4 10.0 64.0 11.1 C 61.6 13.5 58.3 13.0 55.7 11.1 C 55.7 10.4 55.7 9.0 55.7 8.3 Z"
     id="path2575" />
  <path
     fill="#c49c36"
     stroke="#c49c36"
     stroke-width="0.09375"
     d=" M 72.0 8.1 L 72.7 8.0 C 73.0 8.2 73.6 8.5 73.9 8.6 C 74.4 9.6 75.0 10.5 75.6 11.4 C 76.8 11.1 77.9 10.8 79.1 10.6 C 79.2 11.8 79.3 13.0 79.2 14.2 C 76.5 14.2 73.9 13.3 71.7 11.7 C 71.8 10.5 71.9 9.3 72.0 8.1 Z"
     id="path2577" />
  <path
     fill="#6b4412"
     stroke="#6b4412"
     stroke-width="0.09375"
     d=" M 73.9 8.6 C 75.5 9.5 77.3 10.1 79.1 10.6 C 77.9 10.8 76.8 11.1 75.6 11.4 C 75.0 10.5 74.4 9.6 73.9 8.6 Z"
     id="path2579" />
  <path
     fill="#28765c"
     stroke="#28765c"
     stroke-width="0.09375"
     d=" M 54.6 9.5 C 55.0 13.5 55.2 17.6 55.4 21.6 C 56.5 22.8 58.8 25.2 59.9 26.4 C 63.5 21.8 66.1 16.6 68.7 11.4 C 67.0 16.5 65.1 22.4 69.2 26.8 C 71.8 25.8 74.3 24.5 76.6 22.9 C 76.5 25.5 76.4 28.1 76.3 30.7 C 80.1 29.9 83.9 29.2 87.7 28.5 C 84.4 32.7 73.7 34.3 74.5 26.4 C 72.5 26.9 70.5 27.3 68.4 27.8 C 67.4 25.9 66.4 24.1 65.4 22.2 C 63.4 24.1 61.4 26.0 59.4 27.8 C 59.2 27.6 58.7 27.0 58.5 26.8 C 57.4 25.9 56.3 25.0 55.3 24.1 C 52.7 27.4 48.6 28.7 44.6 27.5 C 44.2 24.0 43.4 20.7 42.5 17.3 C 45.0 20.8 45.8 26.4 50.8 27.2 C 55.6 22.6 53.6 15.3 54.6 9.5 Z"
     id="path2581" />
  <path
     fill="#675120"
     stroke="#675120"
     stroke-width="0.09375"
     d=" M 44.2 13.1 C 47.3 14.5 50.3 13.4 52.2 10.7 C 51.4 13.7 50.7 16.8 50.9 19.9 C 48.9 17.4 46.5 15.3 44.2 13.1 Z"
     id="path2583" />
  <path
     fill="#69521d"
     stroke="#69521d"
     stroke-width="0.09375"
     d=" M 55.7 11.1 C 58.3 13.0 61.6 13.5 64.0 11.1 L 64.7 10.6 C 62.9 13.4 62.1 16.9 59.6 19.1 C 58.7 16.3 57.4 13.5 55.7 11.1 Z"
     id="path2585" />
  <path
     fill="#6b4c19"
     stroke="#6b4c19"
     stroke-width="0.09375"
     d=" M 72.7 20.0 C 72.4 17.2 71.7 14.5 71.7 11.7 C 73.9 13.3 76.5 14.2 79.2 14.2 C 76.7 15.8 74.6 17.8 72.7 20.0 Z"
     id="path2587" />
  <path
     fill="#c29734"
     stroke="#c29734"
     stroke-width="0.09375"
     d=" M 37.7 12.7 C 38.0 12.9 38.8 13.2 39.2 13.3 C 39.5 13.6 40.1 14.3 40.4 14.7 C 39.7 18.5 36.7 20.5 32.9 20.6 C 32.3 20.0 31.7 19.4 31.1 18.7 C 31.3 18.5 31.9 18.0 32.2 17.8 C 34.8 17.5 37.2 16.5 37.4 13.5 L 37.7 12.7 Z"
     id="path2589" />
  <path
     fill="#ba9535"
     stroke="#ba9535"
     stroke-width="0.09375"
     d=" M 84.1 13.1 C 84.5 13.2 85.3 13.2 85.7 13.3 C 85.8 13.6 86.1 14.1 86.3 14.4 C 86.4 15.1 86.6 16.4 86.8 17.1 C 87.5 17.3 89.0 17.5 89.8 17.7 C 90.1 17.9 90.7 18.5 91.0 18.7 C 90.4 19.6 89.7 20.5 89.0 21.4 C 86.2 20.7 83.9 18.9 82.7 16.2 C 83.1 15.1 83.6 14.1 84.1 13.1 Z"
     id="path2591" />
  <path
     fill="#654d1c"
     stroke="#654d1c"
     stroke-width="0.09375"
     d=" M 32.2 17.8 C 33.2 15.6 35.1 14.2 37.4 13.5 C 37.2 16.5 34.8 17.5 32.2 17.8 Z"
     id="path2593" />
  <path
     fill="#614d1e"
     stroke="#614d1e"
     stroke-width="0.09375"
     d=" M 40.4 14.7 C 42.1 17.6 42.0 21.1 42.7 24.3 C 39.9 22.0 36.3 21.4 32.9 20.6 C 36.7 20.5 39.7 18.5 40.4 14.7 Z"
     id="path2595" />
  <path
     fill="#653409"
     stroke="#653409"
     stroke-width="0.09375"
     d=" M 86.3 14.4 C 87.4 15.5 88.6 16.6 89.8 17.7 C 89.0 17.5 87.5 17.3 86.8 17.1 C 86.6 16.4 86.4 15.1 86.3 14.4 Z"
     id="path2597" />
  <path
     fill="#634e1c"
     stroke="#634e1c"
     stroke-width="0.09375"
     d=" M 81.0 23.9 C 81.8 21.3 82.1 18.7 82.7 16.2 C 83.9 18.9 86.2 20.7 89.0 21.4 C 86.4 22.3 83.7 23.0 81.0 23.9 Z"
     id="path2599" />
  <path
     fill="#8c0031"
     stroke="#8c0031"
     stroke-width="0.09375"
     d=" M 19.3 16.7 C 20.5 17.0 22.9 17.6 24.0 17.9 C 22.4 18.8 19.9 19.1 18.9 17.1 L 19.3 16.7 Z"
     id="path2601" />
  <path
     fill="#2a765f"
     stroke="#2a765f"
     stroke-width="0.09375"
     d=" M 17.8 20.8 C 21.3 19.9 24.9 19.6 28.5 19.7 C 31.3 23.5 34.2 27.2 37.3 30.7 C 39.7 30.3 42.2 29.9 44.6 29.6 C 44.0 30.5 43.4 31.3 42.7 32.2 C 41.1 32.5 39.5 32.5 37.8 32.7 C 36.3 36.1 32.9 37.7 29.4 38.4 C 29.8 40.4 30.1 42.4 30.5 44.4 C 29.2 45.3 27.9 46.3 26.7 47.2 C 28.0 50.9 26.8 54.4 24.2 57.1 C 25.0 58.7 25.9 60.3 26.5 61.9 L 26.7 62.5 C 26.3 64.2 25.8 65.9 25.2 67.5 C 26.3 68.0 27.3 68.5 28.3 69.1 L 28.9 69.7 C 29.2 70.0 29.7 70.5 30.0 70.8 C 30.0 71.5 29.8 72.9 29.7 73.6 C 29.4 74.8 29.0 76.0 28.6 77.2 C 28.5 76.6 28.3 75.4 28.2 74.8 C 27.9 73.3 27.8 71.7 27.8 70.1 C 25.2 68.5 22.3 69.3 19.6 70.4 C 19.6 70.4 19.4 70.4 19.4 70.5 L 18.7 70.7 C 18.3 70.6 17.3 70.5 16.8 70.4 C 18.2 69.8 19.6 69.1 20.9 68.3 C 21.0 68.3 21.0 68.3 21.1 68.2 L 21.9 67.7 C 21.9 67.7 22.0 67.6 22.0 67.6 C 24.4 66.1 25.7 63.4 24.7 60.6 C 23.3 58.8 21.3 57.7 19.0 57.3 C 21.6 56.0 25.0 54.9 26.1 51.9 C 26.7 49.0 24.2 46.7 21.6 46.3 C 21.5 46.3 21.5 46.3 21.5 46.3 C 19.6 46.2 17.7 46.5 15.8 46.8 L 15.4 46.5 C 14.2 45.6 13.0 44.7 11.7 43.9 C 15.6 44.1 19.4 44.6 23.2 45.1 C 23.5 46.7 25.6 46.8 26.3 45.4 L 27.1 44.8 C 27.6 44.5 28.5 43.8 29.0 43.5 C 28.7 40.2 27.3 37.1 24.7 35.1 L 25.3 35.3 C 28.4 36.8 32.4 37.6 35.1 35.0 C 37.2 32.5 35.0 29.5 33.2 27.7 C 32.1 26.7 31.0 25.8 29.9 25.0 C 29.7 24.3 29.3 23.1 29.1 22.4 C 25.0 19.3 19.3 20.6 16.9 25.0 C 17.2 23.6 17.6 22.2 17.8 20.8 Z"
     id="path2603" />
  <path
     fill="#590044"
     stroke="#590044"
     stroke-width="0.09375"
     d=" M 105.3 19.6 C 107.1 22.4 107.5 25.7 108.1 28.9 C 107.7 28.8 106.8 28.6 106.3 28.6 C 105.9 25.6 105.5 22.6 105.3 19.6 Z"
     id="path2605" />
  <path
     fill="#4ecd9f"
     stroke="#4ecd9f"
     stroke-width="0.09375"
     d=" M 16.9 25.0 C 19.3 20.6 25.0 19.3 29.1 22.4 C 28.7 22.8 27.8 23.5 27.3 23.8 C 26.4 23.3 25.5 22.7 24.6 22.2 C 24.4 22.5 23.9 23.0 23.6 23.2 C 22.4 24.3 21.3 25.6 20.3 27.0 C 20.4 28.3 20.9 29.6 21.7 30.7 C 24.2 30.6 26.8 30.7 29.4 30.8 C 28.7 32.4 28.1 34.0 27.5 35.6 C 27.4 34.1 27.4 32.7 27.4 31.2 C 26.8 32.6 26.1 34.0 25.3 35.3 L 24.7 35.1 C 24.1 34.8 22.8 34.3 22.2 34.0 C 21.9 33.8 21.2 33.5 20.9 33.3 C 20.9 33.3 20.8 33.3 20.7 33.2 C 20.1 33.0 19.0 32.4 18.5 32.1 C 18.5 33.0 18.5 33.9 18.6 34.8 C 17.6 35.1 16.7 35.3 15.8 35.6 C 15.8 36.5 15.8 37.5 15.9 38.5 C 15.3 39.0 14.7 39.5 14.1 40.0 C 15.1 40.5 16.0 41.0 17.0 41.5 C 19.5 41.5 22.1 41.8 24.7 41.9 C 23.6 42.1 22.5 42.4 21.4 42.7 C 23.3 43.4 25.2 44.1 27.1 44.8 L 26.3 45.4 C 25.5 45.3 24.0 45.2 23.2 45.1 C 19.4 44.6 15.6 44.1 11.7 43.9 C 13.0 44.7 14.2 45.6 15.4 46.5 C 14.1 46.2 12.8 46.0 11.5 45.7 C 11.5 46.2 11.6 47.0 11.6 47.4 C 11.3 49.1 10.8 50.7 10.6 52.4 C 10.5 53.3 10.4 54.3 10.3 55.3 C 10.9 55.2 12.1 54.9 12.7 54.8 C 15.9 54.4 19.1 53.5 22.2 52.7 C 20.2 50.7 18.1 48.6 15.8 46.8 C 17.7 46.5 19.6 46.2 21.5 46.3 C 21.5 46.3 21.5 46.3 21.6 46.3 C 24.2 46.7 26.7 49.0 26.1 51.9 C 25.0 54.9 21.6 56.0 19.0 57.3 C 15.4 58.0 11.7 58.7 8.0 59.2 C 6.5 57.2 4.9 55.3 4.1 53.0 C 5.4 49.8 8.0 47.5 10.1 44.9 C 9.8 42.1 9.5 39.2 9.3 36.4 C 10.9 34.1 14.1 33.6 16.6 32.4 C 16.7 30.0 16.8 27.5 16.9 25.0 Z"
     id="path2607" />
  <path
     fill="#bf9432"
     stroke="#bf9432"
     stroke-width="0.09375"
     d=" M 24.6 22.2 C 25.5 22.7 26.4 23.3 27.3 23.8 C 27.4 27.5 24.9 29.7 21.7 30.7 C 20.9 29.6 20.4 28.3 20.3 27.0 C 21.1 26.9 22.7 26.7 23.5 26.6 C 23.5 25.7 23.6 24.0 23.6 23.2 C 23.9 23.0 24.4 22.5 24.6 22.2 Z"
     id="path2609" />
  <path
     fill="#c29531"
     stroke="#c29531"
     stroke-width="0.09375"
     d=" M 96.8 22.3 L 97.6 22.1 C 97.8 22.5 98.0 23.2 98.1 23.6 C 98.6 25.1 99.2 26.5 100.3 27.5 C 100.7 27.9 101.6 28.5 102.0 28.9 C 101.0 29.4 100.1 30.0 99.1 30.5 C 96.4 29.5 94.9 27.0 94.7 24.1 C 95.3 23.5 96.0 22.8 96.8 22.3 Z"
     id="path2611" />
  <path
     fill="#67003e"
     stroke="#67003e"
     stroke-width="0.09375"
     d=" M 13.8 30.7 C 14.1 28.1 14.5 25.4 14.9 22.8 C 14.5 25.5 14.2 28.1 13.8 30.7 Z"
     id="path2613" />
  <path
     fill="#4bb187"
     stroke="#4bb187"
     stroke-width="0.09375"
     d=" M 27.3 23.8 C 27.8 23.5 28.7 22.8 29.1 22.4 C 29.3 23.1 29.7 24.3 29.9 25.0 L 29.1 25.3 C 28.6 25.0 27.8 24.2 27.3 23.8 Z"
     id="path2615" />
  <path
     fill="#66370b"
     stroke="#66370b"
     stroke-width="0.09375"
     d=" M 20.3 27.0 C 21.3 25.6 22.4 24.3 23.6 23.2 C 23.6 24.0 23.5 25.7 23.5 26.6 C 22.7 26.7 21.1 26.9 20.3 27.0 Z"
     id="path2617" />
  <path
     fill="#63501f"
     stroke="#63501f"
     stroke-width="0.09375"
     d=" M 27.3 23.8 C 27.8 24.2 28.6 25.0 29.1 25.3 C 29.8 26.7 30.4 28.0 31.0 29.4 C 30.4 29.8 29.9 30.3 29.4 30.8 C 26.8 30.7 24.2 30.6 21.7 30.7 C 24.9 29.7 27.4 27.5 27.3 23.8 Z"
     id="path2619" />
  <path
     fill="#634818"
     stroke="#634818"
     stroke-width="0.09375"
     d=" M 91.2 30.9 C 92.4 28.6 93.4 26.3 94.7 24.1 C 94.9 27.0 96.4 29.5 99.1 30.5 C 96.5 30.8 93.9 30.7 91.2 30.9 Z"
     id="path2621" />
  <path
     fill="#63370c"
     stroke="#63370c"
     stroke-width="0.09375"
     d=" M 98.1 23.6 C 98.6 23.9 99.6 24.6 100.1 24.9 C 100.2 25.8 100.3 26.7 100.3 27.5 C 99.2 26.5 98.6 25.1 98.1 23.6 Z"
     id="path2623" />
  <path
     fill="#47ca9c"
     stroke="#47ca9c"
     stroke-width="0.09375"
     d=" M 29.1 25.3 L 29.9 25.0 C 31.0 25.8 32.1 26.7 33.2 27.7 C 32.6 28.1 31.6 28.9 31.0 29.4 C 30.4 28.0 29.8 26.7 29.1 25.3 Z"
     id="path2625" />
  <path
     fill="#957227"
     stroke="#957227"
     stroke-width="0.09375"
     d=" M 53.0 29.8 C 54.3 28.0 56.3 27.2 58.5 26.8 C 58.7 27.0 59.2 27.6 59.4 27.8 C 59.4 29.6 59.3 31.3 59.1 33.0 C 58.1 33.1 57.2 33.2 56.3 33.3 C 55.2 32.1 54.1 31.0 53.0 29.8 Z"
     id="path2627" />
  <path
     fill="#98782b"
     stroke="#98782b"
     stroke-width="0.09375"
     d=" M 61.9 27.3 C 64.8 26.6 66.9 28.4 68.0 31.1 C 67.0 31.5 66.3 32.1 65.8 33.0 L 65.0 32.8 C 64.5 32.8 63.5 32.8 63.0 32.7 C 61.5 31.2 61.4 29.2 61.9 27.3 Z"
     id="path2629" />
  <path
     fill="#41b68e"
     stroke="#41b68e"
     stroke-width="0.09375"
     d=" M 31.0 29.4 C 31.6 28.9 32.6 28.1 33.2 27.7 C 35.0 29.5 37.2 32.5 35.1 35.0 C 32.4 37.6 28.4 36.8 25.3 35.3 C 26.1 34.0 26.8 32.6 27.4 31.2 C 27.4 32.7 27.4 34.1 27.5 35.6 C 28.1 34.0 28.7 32.4 29.4 30.8 C 29.9 30.3 30.4 29.8 31.0 29.4 Z"
     id="path2631" />
  <path
     fill="#a4802e"
     stroke="#a4802e"
     stroke-width="0.09375"
     d=" M 44.6 31.7 C 46.9 30.7 49.3 30.2 51.8 30.5 C 51.8 31.2 51.7 32.4 51.7 33.0 C 50.2 33.8 48.7 34.5 47.3 35.3 C 46.4 34.1 45.5 32.9 44.6 31.7 Z"
     id="path2633" />
  <path
     fill="#419c73"
     stroke="#419c73"
     stroke-width="0.09375"
     d=" M 65.8 33.0 C 66.3 32.1 67.0 31.5 68.0 31.1 L 68.3 31.6 L 68.4 32.6 L 68.2 33.4 C 67.6 33.3 66.4 33.1 65.8 33.0 Z"
     id="path2635" />
  <path
     fill="#ab832c"
     stroke="#ab832c"
     stroke-width="0.09375"
     d=" M 68.3 31.6 C 70.6 31.2 72.9 31.5 75.2 31.8 C 74.4 33.0 73.5 34.2 72.7 35.4 C 71.2 34.5 69.8 33.6 68.4 32.6 L 68.3 31.6 Z"
     id="path2637" />
  <path
     fill="#4fcd9f"
     stroke="#4fcd9f"
     stroke-width="0.09375"
     d=" M 103.5 30.8 C 106.5 31.2 109.6 31.4 112.2 33.2 C 111.7 36.2 111.1 39.2 110.0 42.1 C 105.0 43.1 100.1 44.6 95.0 45.3 C 95.4 44.1 95.8 42.9 96.2 41.8 C 98.9 41.7 101.5 41.5 104.1 41.5 C 105.1 40.8 106.0 40.1 107.0 39.5 C 106.5 39.2 105.5 38.6 105.0 38.3 C 106.9 36.9 105.4 34.4 103.4 34.4 C 102.5 34.2 101.6 33.9 100.7 33.7 C 99.2 33.3 98.4 35.1 98.1 36.2 C 97.9 37.0 97.4 38.4 97.1 39.1 C 97.1 39.1 97.1 39.2 97.1 39.3 L 96.8 40.0 C 96.8 38.9 96.8 37.8 96.8 36.7 C 96.3 36.6 95.2 36.2 94.6 36.0 C 97.5 34.1 100.4 32.4 103.5 30.8 Z"
     id="path2639" />
  <path
     fill="#bf9432"
     stroke="#bf9432"
     stroke-width="0.09375"
     d=" M 18.5 32.1 C 19.0 32.4 20.1 33.0 20.7 33.2 C 20.8 33.3 20.9 33.3 20.9 33.3 C 23.2 37.0 20.3 40.1 17.0 41.5 C 16.0 41.0 15.1 40.5 14.1 40.0 C 14.7 39.5 15.3 39.0 15.9 38.5 C 16.8 37.8 17.6 37.1 18.5 36.4 C 18.5 36.0 18.5 35.2 18.6 34.8 C 18.5 33.9 18.5 33.0 18.5 32.1 Z"
     id="path2641" />
  <path
     fill="#1a1c0e"
     stroke="#1a1c0e"
     stroke-width="0.09375"
     d=" M 56.3 33.3 C 57.2 33.2 58.1 33.1 59.1 33.0 C 60.4 32.9 61.7 32.8 63.0 32.7 C 63.5 32.8 64.5 32.8 65.0 32.8 C 63.4 33.4 64.7 35.8 66.0 34.7 L 66.1 35.6 C 65.1 36.4 64.0 37.2 63.6 38.4 C 63.3 38.9 62.9 39.8 62.7 40.2 C 60.3 40.9 58.1 40.3 57.2 37.9 C 56.9 36.3 56.6 34.8 56.3 33.3 Z"
     id="path2643" />
  <path
     fill="#6ba563"
     stroke="#6ba563"
     stroke-width="0.09375"
     d=" M 20.7 33.2 C 20.8 33.3 20.9 33.3 20.9 33.3 C 20.9 33.3 20.8 33.3 20.7 33.2 Z"
     id="path2645" />
  <path
     fill="#595326"
     stroke="#595326"
     stroke-width="0.09375"
     d=" M 47.3 35.3 C 48.7 34.5 50.2 33.8 51.7 33.0 C 51.5 35.9 51.7 38.9 52.6 41.6 C 52.7 41.7 52.7 41.8 52.7 41.9 L 52.9 42.7 C 52.7 43.0 52.5 43.7 52.4 44.1 C 51.7 42.7 51.0 41.3 50.3 40.0 C 49.4 38.4 48.4 36.8 47.3 35.3 Z"
     id="path2647" />
  <path
     fill="#398c6d"
     stroke="#398c6d"
     stroke-width="0.09375"
     d=" M 66.0 34.7 C 64.7 35.8 63.4 33.4 65.0 32.8 L 65.8 33.0 C 65.8 33.4 66.0 34.3 66.0 34.7 Z"
     id="path2649" />
  <path
     fill="#3bad85"
     stroke="#3bad85"
     stroke-width="0.09375"
     d=" M 65.8 33.0 C 66.4 33.1 67.6 33.3 68.2 33.4 C 68.3 34.8 68.3 36.1 68.4 37.5 C 68.4 37.6 68.4 37.6 68.4 37.6 C 68.3 38.1 68.2 39.2 68.2 39.7 C 66.6 41.5 64.6 41.3 62.7 40.2 C 62.9 39.8 63.3 38.9 63.6 38.4 C 65.9 39.5 67.8 37.8 66.1 35.6 L 66.0 34.7 C 66.0 34.3 65.8 33.4 65.8 33.0 Z"
     id="path2651" />
  <path
     fill="#5d4c1d"
     stroke="#5d4c1d"
     stroke-width="0.09375"
     d=" M 68.4 32.6 C 69.8 33.6 71.2 34.5 72.7 35.4 C 71.9 36.5 71.1 37.7 70.3 38.8 C 69.2 40.7 68.2 42.5 67.1 44.4 C 67.5 42.8 67.9 41.3 68.2 39.7 C 68.2 39.2 68.3 38.1 68.4 37.6 C 68.4 37.6 68.4 37.6 68.4 37.5 C 68.3 36.1 68.3 34.8 68.2 33.4 L 68.4 32.6 Z"
     id="path2653" />
  <path
     fill="#c1912f"
     stroke="#c1912f"
     stroke-width="0.09375"
     d=" M 100.7 33.7 C 101.6 33.9 102.5 34.2 103.4 34.4 C 102.8 35.9 103.6 37.7 105.0 38.3 C 105.5 38.6 106.5 39.2 107.0 39.5 C 106.0 40.1 105.1 40.8 104.1 41.5 C 102.1 40.3 100.6 38.4 99.4 36.3 C 99.7 35.7 100.4 34.4 100.7 33.7 Z"
     id="path2655" />
  <path
     fill="#604c1f"
     stroke="#604c1f"
     stroke-width="0.09375"
     d=" M 20.9 33.3 C 21.2 33.5 21.9 33.8 22.2 34.0 C 23.1 36.7 24.1 39.4 25.8 41.8 C 25.5 41.8 25.0 41.9 24.7 41.9 C 22.1 41.8 19.5 41.5 17.0 41.5 C 20.3 40.1 23.2 37.0 20.9 33.3 Z"
     id="path2657" />
  <path
     fill="#42b288"
     stroke="#42b288"
     stroke-width="0.09375"
     d=" M 22.2 34.0 C 22.8 34.3 24.1 34.8 24.7 35.1 C 27.3 37.1 28.7 40.2 29.0 43.5 C 28.5 43.8 27.6 44.5 27.1 44.8 C 25.2 44.1 23.3 43.4 21.4 42.7 C 22.5 42.4 23.6 42.1 24.7 41.9 C 25.0 41.9 25.5 41.8 25.8 41.8 C 24.1 39.4 23.1 36.7 22.2 34.0 Z"
     id="path2659" />
  <path
     fill="#a9822e"
     stroke="#a9822e"
     stroke-width="0.09375"
     d=" M 37.9 37.8 C 39.5 36.0 41.5 34.6 43.8 33.9 C 43.9 34.4 44.1 35.3 44.2 35.8 C 43.5 37.4 42.7 38.9 41.8 40.4 C 40.5 39.5 39.2 38.6 37.9 37.8 Z"
     id="path2661" />
  <path
     fill="#2b7860"
     stroke="#2b7860"
     stroke-width="0.09375"
     d=" M 89.9 35.6 C 91.4 35.2 92.8 34.6 94.2 34.0 C 92.7 36.8 91.4 39.7 90.9 42.8 C 92.2 43.6 93.6 44.4 95.0 45.3 C 100.1 44.6 105.0 43.1 110.0 42.1 C 110.3 42.3 110.8 42.6 111.1 42.8 C 107.3 43.7 103.6 44.7 99.9 45.8 C 95.9 46.8 92.2 51.6 96.0 55.0 C 96.4 55.4 97.2 56.0 97.6 56.3 C 97.7 56.3 97.8 56.4 97.8 56.4 C 103.0 57.5 108.4 57.0 113.4 55.5 C 112.8 56.6 112.3 57.6 111.8 58.7 C 109.2 58.5 106.6 58.3 104.0 58.0 C 102.6 57.9 99.6 57.7 98.1 57.6 C 97.9 57.9 97.3 58.5 97.0 58.8 C 96.0 59.6 95.1 60.4 94.1 61.3 C 95.3 64.5 97.6 67.1 100.6 68.7 C 100.6 68.8 100.8 68.8 100.8 68.9 L 101.6 69.2 C 97.7 69.1 94.0 70.3 90.5 71.7 C 92.5 70.4 94.1 68.7 95.9 67.1 C 94.7 65.3 93.7 63.3 92.6 61.4 C 93.6 59.9 94.7 58.5 95.8 57.0 C 94.7 55.4 93.5 53.8 92.4 52.1 C 93.1 50.3 93.9 48.5 94.6 46.7 C 93.3 45.6 91.9 44.6 90.5 43.5 C 90.0 40.9 89.9 38.3 89.9 35.6 Z"
     id="path2663" />
  <path
     fill="#568556"
     stroke="#568556"
     stroke-width="0.09375"
     d=" M 98.1 36.2 C 98.4 35.1 99.2 33.3 100.7 33.7 C 100.4 34.4 99.7 35.7 99.4 36.3 C 99.1 36.3 98.4 36.3 98.1 36.2 Z"
     id="path2665" />
  <path
     fill="#6a360b"
     stroke="#6a360b"
     stroke-width="0.09375"
     d=" M 15.8 35.6 C 16.7 35.3 17.6 35.1 18.6 34.8 C 18.5 35.2 18.5 36.0 18.5 36.4 C 17.6 37.1 16.8 37.8 15.9 38.5 C 15.8 37.5 15.8 36.5 15.8 35.6 Z"
     id="path2667" />
  <path
     fill="#a7822c"
     stroke="#a7822c"
     stroke-width="0.09375"
     d=" M 75.4 35.8 C 77.9 34.3 80.1 36.1 82.2 37.3 C 81.1 38.3 79.9 39.3 78.7 40.4 C 77.1 39.3 76.1 37.6 75.4 35.8 Z"
     id="path2669" />
  <path
     fill="#663208"
     stroke="#663208"
     stroke-width="0.09375"
     d=" M 103.4 34.4 C 105.4 34.4 106.9 36.9 105.0 38.3 C 103.6 37.7 102.8 35.9 103.4 34.4 Z"
     id="path2671" />
  <path
     fill="#614d1d"
     stroke="#614d1d"
     stroke-width="0.09375"
     d=" M 44.2 35.8 C 45.0 38.4 45.9 41.0 47.2 43.3 C 47.7 44.0 48.2 44.7 48.7 45.4 L 49.2 46.0 C 48.4 46.1 47.5 46.3 46.6 46.4 C 46.5 45.9 46.2 44.8 46.1 44.2 C 46.0 42.9 45.3 42.1 44.0 41.7 C 43.3 41.3 42.5 40.9 41.8 40.4 C 42.7 38.9 43.5 37.4 44.2 35.8 Z"
     id="path2673" />
  <path
     fill="#398664"
     stroke="#398664"
     stroke-width="0.09375"
     d=" M 60.2 36.7 C 61.6 36.3 61.9 38.8 60.8 39.3 C 59.4 39.7 59.1 37.2 60.2 36.7 Z"
     id="path2675" />
  <path
     fill="#2e906f"
     stroke="#2e906f"
     stroke-width="0.09375"
     d=" M 63.6 38.4 C 64.0 37.2 65.1 36.4 66.1 35.6 C 67.8 37.8 65.9 39.5 63.6 38.4 Z"
     id="path2677" />
  <path
     fill="#5e4f20"
     stroke="#5e4f20"
     stroke-width="0.09375"
     d=" M 73.8 41.8 C 74.4 39.8 74.9 37.8 75.4 35.8 C 76.1 37.6 77.1 39.3 78.7 40.4 C 76.9 41.7 75.1 43.2 73.4 44.7 C 72.6 45.5 71.7 46.3 70.8 47.1 C 71.8 45.3 72.9 43.6 73.8 41.8 Z"
     id="path2679" />
  <path
     fill="#625324"
     stroke="#625324"
     stroke-width="0.09375"
     d=" M 98.1 36.2 C 98.4 36.3 99.1 36.3 99.4 36.3 C 100.6 38.4 102.1 40.3 104.1 41.5 C 101.5 41.5 98.9 41.7 96.2 41.8 C 96.4 41.3 96.6 40.4 96.8 40.0 L 97.1 39.3 C 97.1 39.2 97.1 39.1 97.1 39.1 C 97.4 38.4 97.9 37.0 98.1 36.2 Z"
     id="path2681" />
  <path
     fill="#42845a"
     stroke="#42845a"
     stroke-width="0.09375"
     d=" M 68.4 37.6 C 68.4 37.6 68.4 37.6 68.4 37.5 C 68.4 37.6 68.4 37.6 68.4 37.6 Z"
     id="path2683" />
  <path
     fill="#349572"
     stroke="#349572"
     stroke-width="0.09375"
     d=" M 54.7 38.2 C 55.6 38.6 56.5 39.0 57.3 39.4 C 57.3 39.0 57.2 38.2 57.2 37.9 C 58.1 40.3 60.3 40.9 62.7 40.2 C 64.6 41.3 66.6 41.5 68.2 39.7 C 67.9 41.3 67.5 42.8 67.1 44.4 C 68.2 42.5 69.2 40.7 70.3 38.8 C 71.1 39.4 71.9 39.9 72.6 40.5 C 71.6 41.3 70.6 42.2 69.7 43.0 C 71.0 42.7 72.4 42.3 73.8 41.8 C 72.9 43.6 71.8 45.3 70.8 47.1 C 71.7 46.3 72.6 45.5 73.4 44.7 C 75.0 45.5 76.6 46.3 78.1 47.2 C 77.1 48.4 76.2 49.8 75.5 51.2 C 75.2 53.5 75.3 55.9 75.3 58.2 C 75.8 58.5 76.8 59.0 77.3 59.3 L 78.1 59.7 C 77.3 59.8 75.7 60.0 74.8 60.1 C 72.8 54.8 67.8 52.0 62.5 50.7 C 64.4 48.2 64.3 45.9 62.4 44.0 C 61.5 43.3 60.5 42.5 59.7 41.8 C 58.4 42.0 57.2 42.4 56.0 42.8 C 56.0 42.8 55.9 42.8 55.9 42.8 C 54.0 44.2 52.6 46.2 50.9 47.9 C 52.4 48.0 55.3 48.2 56.8 48.3 C 56.8 48.6 56.7 49.3 56.7 49.7 C 52.9 51.2 49.4 53.3 46.4 56.2 C 46.6 52.9 46.6 49.7 46.6 46.4 C 47.5 46.3 48.4 46.1 49.2 46.0 C 51.8 46.2 49.5 43.0 48.7 45.4 C 48.2 44.7 47.7 44.0 47.2 43.3 C 47.7 43.0 48.8 42.5 49.4 42.2 C 49.6 41.7 50.1 40.6 50.3 40.0 C 51.0 41.3 51.7 42.7 52.4 44.1 C 52.5 43.7 52.7 43.0 52.9 42.7 C 53.5 41.2 54.2 39.8 54.7 38.2 Z"
     id="path2685" />
  <path
     fill="#4a8c5a"
     stroke="#4a8c5a"
     stroke-width="0.09375"
     d=" M 97.1 39.3 C 97.1 39.2 97.1 39.1 97.1 39.1 C 97.1 39.1 97.1 39.2 97.1 39.3 Z"
     id="path2687" />
  <path
     fill="#b08027"
     stroke="#b08027"
     stroke-width="0.09375"
     d=" M 32.8 45.1 C 33.8 43.0 35.0 41.0 37.0 39.7 C 37.2 40.3 37.7 41.4 37.9 41.9 C 37.7 43.3 37.4 44.6 37.1 45.9 C 35.6 45.9 34.2 45.7 32.8 45.1 Z"
     id="path2689" />
  <path
     fill="#a57e29"
     stroke="#a57e29"
     stroke-width="0.09375"
     d=" M 80.6 43.8 C 81.7 42.5 82.8 41.1 83.8 39.7 C 85.0 41.4 86.2 43.1 87.2 45.0 C 86.7 45.2 85.6 45.7 85.1 45.9 C 83.6 45.2 82.1 44.5 80.6 43.8 Z"
     id="path2691" />
  <path
     fill="#399c73"
     stroke="#399c73"
     stroke-width="0.09375"
     d=" M 52.6 41.6 C 52.7 41.7 52.7 41.8 52.7 41.9 C 52.7 41.8 52.7 41.7 52.6 41.6 Z"
     id="path2693" />
  <path
     fill="#624917"
     stroke="#624917"
     stroke-width="0.09375"
     d=" M 37.9 41.9 C 40.4 45.0 42.7 48.1 45.0 51.2 C 42.2 49.8 39.7 47.8 37.1 45.9 C 37.4 44.6 37.7 43.3 37.9 41.9 Z"
     id="path2695" />
  <path
     fill="#44916a"
     stroke="#44916a"
     stroke-width="0.09375"
     d=" M 44.0 41.7 C 45.3 42.1 46.0 42.9 46.1 44.2 C 44.6 44.1 43.9 43.3 44.0 41.7 Z"
     id="path2697" />
  <path
     fill="#848c84"
     stroke="#848c84"
     stroke-width="0.09375"
     d=" M 55.9 42.8 C 55.9 42.8 56.0 42.8 56.0 42.8 C 56.0 42.8 55.9 42.8 55.9 42.8 Z"
     id="path2699" />
  <path
     fill="#e8f7f2"
     stroke="#e8f7f2"
     stroke-width="0.09375"
     d=" M 56.0 42.8 C 57.2 42.4 58.4 42.0 59.7 41.8 C 60.5 42.5 61.5 43.3 62.4 44.0 C 62.3 45.6 62.0 48.9 61.8 50.5 L 61.7 51.7 C 61.6 52.9 61.4 54.0 61.2 55.2 C 59.8 55.3 58.4 55.4 57.0 55.7 C 56.9 54.3 56.8 53.0 56.7 51.6 C 56.7 51.1 56.7 50.2 56.7 49.7 C 56.7 49.3 56.8 48.6 56.8 48.3 C 55.3 48.2 52.4 48.0 50.9 47.9 C 52.6 46.2 54.0 44.2 55.9 42.8 C 55.9 42.8 56.0 42.8 56.0 42.8 Z"
     id="path2701" />
  <path
     fill="#4d504b"
     stroke="#4d504b"
     stroke-width="0.09375"
     d=" M 57.3 43.3 C 58.6 42.2 60.1 44.6 58.9 45.5 C 57.6 46.5 56.1 44.2 57.3 43.3 Z"
     id="path2703" />
  <path
     fill="#42b994"
     stroke="#42b994"
     stroke-width="0.09375"
     d=" M 97.3 43.1 C 100.3 41.5 97.4 46.4 97.3 43.1 Z"
     id="path2705" />
  <path
     fill="#4ecda0"
     stroke="#4ecda0"
     stroke-width="0.09375"
     d=" M 99.9 45.8 C 103.6 44.7 107.3 43.7 111.1 42.8 C 113.3 44.6 116.0 46.3 117.0 49.2 C 117.4 51.8 114.6 53.5 113.4 55.5 C 108.4 57.0 103.0 57.5 97.8 56.4 C 97.8 56.4 97.7 56.3 97.6 56.3 C 97.2 56.0 96.4 55.4 96.0 55.0 C 97.6 52.1 98.9 49.0 99.9 45.8 Z"
     id="path2707" />
  <path
     fill="#39ad84"
     stroke="#39ad84"
     stroke-width="0.09375"
     d=" M 48.7 45.4 C 49.5 43.0 51.8 46.2 49.2 46.0 L 48.7 45.4 Z"
     id="path2709" />
  <path
     fill="#b7b2b1"
     stroke="#b7b2b1"
     stroke-width="0.09375"
     d=" M 62.4 44.0 C 64.3 45.9 64.4 48.2 62.5 50.7 L 61.8 50.5 C 62.0 48.9 62.3 45.6 62.4 44.0 Z"
     id="path2711" />
  <path
     fill="#634f1e"
     stroke="#634f1e"
     stroke-width="0.09375"
     d=" M 80.6 43.8 C 82.1 44.5 83.6 45.2 85.1 45.9 C 81.6 47.0 78.2 48.5 75.5 51.2 C 76.2 49.8 77.1 48.4 78.1 47.2 C 78.9 46.1 79.8 45.0 80.6 43.8 Z"
     id="path2713" />
  <path
     fill="#42b591"
     stroke="#42b591"
     stroke-width="0.09375"
     d=" M 23.2 45.1 C 24.0 45.2 25.5 45.3 26.3 45.4 C 25.6 46.8 23.5 46.7 23.2 45.1 Z"
     id="path2715" />
  <path
     fill="#c09a38"
     stroke="#c09a38"
     stroke-width="0.09375"
     d=" M 11.5 45.7 C 12.8 46.0 14.1 46.2 15.4 46.5 C 15.3 48.6 15.3 50.8 15.2 53.0 C 14.4 53.6 13.5 54.2 12.7 54.8 C 12.1 54.9 10.9 55.2 10.3 55.3 C 10.4 54.3 10.5 53.3 10.6 52.4 C 11.1 51.9 12.3 51.1 12.9 50.7 C 12.5 49.6 12.0 48.5 11.6 47.4 C 11.6 47.0 11.5 46.2 11.5 45.7 Z"
     id="path2717" />
  <path
     fill="#39ad84"
     stroke="#39ad84"
     stroke-width="0.09375"
     d=" M 21.5 46.3 C 21.5 46.3 21.5 46.3 21.6 46.3 C 21.5 46.3 21.5 46.3 21.5 46.3 Z"
     id="path2719" />
  <path
     fill="#41be95"
     stroke="#41be95"
     stroke-width="0.09375"
     d=" M 96.0 55.0 C 92.2 51.6 95.9 46.8 99.9 45.8 C 98.9 49.0 97.6 52.1 96.0 55.0 Z"
     id="path2721" />
  <path
     fill="#615021"
     stroke="#615021"
     stroke-width="0.09375"
     d=" M 100.5 51.6 C 102.0 49.4 104.0 47.8 105.8 45.9 L 105.7 46.7 C 104.5 49.6 105.6 52.4 107.6 54.6 L 108.1 55.3 C 106.4 54.2 104.6 53.3 102.9 52.2 C 101.8 52.5 100.7 52.7 99.6 52.9 C 99.8 52.6 100.3 51.9 100.5 51.6 Z"
     id="path2723" />
  <path
     fill="#c29532"
     stroke="#c29532"
     stroke-width="0.09375"
     d=" M 105.7 46.7 C 107.0 46.4 108.4 46.0 109.7 45.6 C 109.5 46.2 109.1 47.3 108.9 47.9 C 108.7 48.3 108.3 49.3 108.1 49.8 C 108.6 50.7 109.2 51.5 109.8 52.4 C 110.1 52.8 110.6 53.7 110.9 54.2 C 110.1 54.3 108.4 54.5 107.6 54.6 C 105.6 52.4 104.5 49.6 105.7 46.7 Z"
     id="path2725" />
  <path
     fill="#665522"
     stroke="#665522"
     stroke-width="0.09375"
     d=" M 15.4 46.5 L 15.8 46.8 C 18.1 48.6 20.2 50.7 22.2 52.7 C 19.1 53.5 15.9 54.4 12.7 54.8 C 13.5 54.2 14.4 53.6 15.2 53.0 C 15.3 50.8 15.3 48.6 15.4 46.5 Z"
     id="path2727" />
  <path
     fill="#aa7f29"
     stroke="#aa7f29"
     stroke-width="0.09375"
     d=" M 29.9 53.0 C 29.5 50.4 31.1 45.6 34.5 47.9 C 34.2 49.6 33.9 51.2 33.5 52.9 C 32.6 52.9 30.8 53.0 29.9 53.0 Z"
     id="path2729" />
  <path
     fill="#39ad84"
     stroke="#39ad84"
     stroke-width="0.09375"
     d=" M 74.3 47.3 C 74.8 47.8 74.8 47.8 74.3 47.3 Z"
     id="path2731" />
  <path
     fill="#a57c29"
     stroke="#a57c29"
     stroke-width="0.09375"
     d=" M 84.9 49.5 C 85.8 48.4 86.8 47.4 88.4 47.2 C 89.6 48.9 90.1 50.7 90.0 52.8 C 88.9 53.1 87.9 53.6 86.9 54.1 C 86.7 53.7 86.2 53.1 86.0 52.8 C 85.6 51.7 85.2 50.6 84.9 49.5 Z"
     id="path2733" />
  <path
     fill="#673c0c"
     stroke="#673c0c"
     stroke-width="0.09375"
     d=" M 10.6 52.4 C 10.8 50.7 11.3 49.1 11.6 47.4 C 12.0 48.5 12.5 49.6 12.9 50.7 C 12.3 51.1 11.1 51.9 10.6 52.4 Z"
     id="path2735" />
  <path
     fill="#605322"
     stroke="#605322"
     stroke-width="0.09375"
     d=" M 34.5 47.9 C 36.5 51.4 40.1 53.5 43.1 56.1 C 39.9 55.0 36.8 53.8 33.5 52.9 C 33.9 51.2 34.2 49.6 34.5 47.9 Z"
     id="path2737" />
  <path
     fill="#673b0a"
     stroke="#673b0a"
     stroke-width="0.09375"
     d=" M 108.1 49.8 C 108.3 49.3 108.7 48.3 108.9 47.9 C 109.4 48.2 110.6 48.9 111.2 49.2 C 110.7 50.2 110.2 51.3 109.8 52.4 C 109.2 51.5 108.6 50.7 108.1 49.8 Z"
     id="path2739" />
  <path
     fill="#585026"
     stroke="#585026"
     stroke-width="0.09375"
     d=" M 84.7 49.1 L 84.9 49.5 C 85.2 50.6 85.6 51.7 86.0 52.8 C 83.1 54.3 80.2 55.7 77.2 56.9 L 77.0 56.1 C 77.3 55.8 78.1 55.1 78.5 54.8 C 78.5 54.8 78.6 54.7 78.7 54.7 C 81.2 53.3 83.5 51.7 84.7 49.1 Z"
     id="path2741" />
  <path
     fill="#63360d"
     stroke="#63360d"
     stroke-width="0.09375"
     d=" M 46.4 56.2 C 49.4 53.3 52.9 51.2 56.7 49.7 C 56.7 50.2 56.7 51.1 56.7 51.6 C 56.6 52.1 56.4 53.3 56.2 53.8 C 48.8 53.5 46.3 62.1 47.8 68.1 C 46.8 68.6 45.7 69.2 44.7 69.8 C 45.3 65.8 45.2 61.7 45.9 57.8 L 46.0 57.6 C 46.1 57.3 46.3 56.5 46.4 56.2 Z"
     id="path2743" />
  <path
     fill="#613e12"
     stroke="#613e12"
     stroke-width="0.09375"
     d=" M 61.8 50.5 L 62.5 50.7 C 67.8 52.0 72.8 54.8 74.8 60.1 C 75.8 63.3 76.5 66.5 77.3 69.8 C 80.9 70.6 84.5 70.5 88.2 70.7 C 87.1 72.2 86.4 73.9 85.8 75.6 C 84.3 74.4 82.9 72.9 81.3 71.8 C 78.7 71.5 76.1 71.4 73.5 70.9 C 72.9 66.9 73.2 62.5 70.9 59.1 C 68.2 56.2 64.4 54.7 61.7 51.7 L 61.8 50.5 Z"
     id="path2747" />
  <path
     fill="#52946b"
     stroke="#52946b"
     stroke-width="0.09375"
     d=" M 99.6 52.9 C 98.5 51.7 98.8 51.2 100.5 51.6 C 100.3 51.9 99.8 52.6 99.6 52.9 Z"
     id="path2749" />
  <path
     fill="#71d0ab"
     stroke="#71d0ab"
     stroke-width="0.09375"
     d=" M 56.2 53.8 C 56.4 53.3 56.6 52.1 56.7 51.6 C 56.8 53.0 56.9 54.3 57.0 55.7 C 58.4 55.4 59.8 55.3 61.2 55.2 L 61.1 55.8 C 61.1 56.5 61.0 57.9 61.0 58.6 C 60.9 59.2 60.9 60.3 60.9 60.9 C 60.1 59.5 59.0 58.3 58.0 57.1 C 57.3 58.1 56.6 59.1 55.8 60.1 C 55.6 60.1 55.0 60.3 54.8 60.3 C 54.9 59.8 55.1 58.6 55.3 58.0 C 55.6 56.6 55.9 55.2 56.2 53.8 Z"
     id="path2751" />
  <path
     fill="#38906d"
     stroke="#38906d"
     stroke-width="0.09375"
     d=" M 61.2 55.2 C 61.4 54.0 61.6 52.9 61.7 51.7 C 64.4 54.7 68.2 56.2 70.9 59.1 C 73.2 62.5 72.9 66.9 73.5 70.9 C 72.9 70.8 71.7 70.4 71.1 70.2 C 70.8 64.0 67.8 57.1 61.1 55.8 L 61.2 55.2 Z"
     id="path2753" />
  <path
     fill="#329577"
     stroke="#329577"
     stroke-width="0.09375"
     d=" M 47.8 68.1 C 46.3 62.1 48.8 53.5 56.2 53.8 C 55.9 55.2 55.6 56.6 55.3 58.0 C 54.7 57.9 53.7 57.6 53.1 57.5 C 52.0 58.6 50.8 59.7 49.6 60.8 C 51.3 60.7 53.0 60.6 54.8 60.3 C 55.0 60.3 55.6 60.1 55.8 60.1 C 56.6 59.1 57.3 58.1 58.0 57.1 C 59.0 58.3 60.1 59.5 60.9 60.9 C 60.7 64.4 60.4 68.4 62.6 71.3 C 64.6 73.3 67.1 74.8 69.1 76.7 C 63.9 77.4 61.8 72.5 58.0 70.2 C 58.0 73.1 58.6 76.4 61.5 77.8 C 65.8 78.8 69.7 77.0 73.7 76.1 C 73.8 77.7 73.9 79.3 74.1 80.9 C 68.4 82.0 61.6 83.2 56.8 79.3 C 52.5 76.4 53.4 70.8 52.6 66.4 C 51.0 66.9 49.4 67.5 47.8 68.1 Z"
     id="path2755" />
  <path
     fill="#42845a"
     stroke="#42845a"
     stroke-width="0.09375"
     d=" M 78.5 54.8 C 78.5 54.8 78.6 54.7 78.7 54.7 C 78.6 54.7 78.5 54.8 78.5 54.8 Z"
     id="path2757" />
  <path
     fill="#af8429"
     stroke="#af8429"
     stroke-width="0.09375"
     d=" M 28.5 54.7 C 29.1 54.8 30.5 55.0 31.2 55.1 C 31.2 57.0 31.2 58.9 31.1 60.8 C 30.4 60.9 29.1 61.2 28.5 61.3 C 28.2 59.1 28.2 56.9 28.5 54.7 Z"
     id="path2759" />
  <path
     fill="#684c17"
     stroke="#684c17"
     stroke-width="0.09375"
     d=" M 31.2 55.1 C 34.3 57.9 38.6 57.6 42.4 58.6 C 38.6 58.9 34.4 58.5 31.1 60.8 C 31.2 58.9 31.2 57.0 31.2 55.1 Z"
     id="path2761" />
  <path
     fill="#318c7b"
     stroke="#318c7b"
     stroke-width="0.09375"
     d=" M 45.3 55.3 C 45.8 55.8 45.8 55.8 45.3 55.3 Z"
     id="path2763" />
  <path
     fill="#5e5625"
     stroke="#5e5625"
     stroke-width="0.09375"
     d=" M 77.3 59.3 C 81.2 58.2 85.1 57.1 88.9 55.5 C 88.8 57.3 88.7 59.0 88.7 60.8 C 85.1 60.6 81.6 60.1 78.1 59.7 L 77.3 59.3 Z"
     id="path2765" />
  <path
     fill="#b17d24"
     stroke="#b17d24"
     stroke-width="0.09375"
     d=" M 90.7 55.0 C 92.0 56.8 92.2 59.1 90.7 60.8 C 90.2 60.8 89.2 60.8 88.7 60.8 C 88.7 59.0 88.8 57.3 88.9 55.5 C 89.3 55.4 90.2 55.2 90.7 55.0 Z"
     id="path2767" />
  <path
     fill="#5e340c"
     stroke="#5e340c"
     stroke-width="0.09375"
     d=" M 61.1 55.8 C 67.8 57.1 70.8 64.0 71.1 70.2 C 69.7 69.6 68.3 69.1 66.9 68.4 C 66.2 64.8 65.3 60.8 61.7 59.1 L 61.0 58.6 C 61.0 57.9 61.1 56.5 61.1 55.8 Z"
     id="path2769" />
  <path
     fill="#35a077"
     stroke="#35a077"
     stroke-width="0.09375"
     d=" M 77.2 56.9 C 76.4 59.3 74.5 55.3 77.0 56.1 L 77.2 56.9 Z"
     id="path2771" />
  <path
     fill="#39ad84"
     stroke="#39ad84"
     stroke-width="0.09375"
     d=" M 97.6 56.3 C 97.7 56.3 97.8 56.4 97.8 56.4 C 97.8 56.4 97.7 56.3 97.6 56.3 Z"
     id="path2773" />
  <path
     fill="#43ae86"
     stroke="#43ae86"
     stroke-width="0.09375"
     d=" M 8.0 59.2 C 11.7 58.7 15.4 58.0 19.0 57.3 C 21.3 57.7 23.3 58.8 24.7 60.6 C 23.3 60.5 21.9 60.3 20.6 60.1 C 22.1 61.2 23.3 62.6 23.9 64.4 C 22.6 64.5 21.2 64.6 19.9 64.8 C 20.3 64.4 21.3 63.7 21.8 63.4 C 19.6 62.1 17.4 60.9 15.0 59.9 C 13.6 60.0 12.1 60.2 10.7 60.4 C 10.3 60.5 9.5 60.6 9.2 60.7 C 8.9 60.3 8.3 59.5 8.0 59.2 Z"
     id="path2775" />
  <path
     fill="#31a57b"
     stroke="#31a57b"
     stroke-width="0.09375"
     d=" M 45.9 57.8 C 45.9 57.8 46.0 57.7 46.0 57.6 L 45.9 57.8 Z"
     id="path2777" />
  <path
     fill="#534218"
     stroke="#534218"
     stroke-width="0.09375"
     d=" M 53.1 57.5 C 53.7 57.6 54.7 57.9 55.3 58.0 C 55.1 58.6 54.9 59.8 54.8 60.3 C 53.0 60.6 51.3 60.7 49.6 60.8 C 50.8 59.7 52.0 58.6 53.1 57.5 Z"
     id="path2779" />
  <path
     fill="#3cb088"
     stroke="#3cb088"
     stroke-width="0.09375"
     d=" M 97.0 58.8 C 97.3 58.5 97.9 57.9 98.1 57.6 C 99.6 57.7 102.6 57.9 104.0 58.0 C 102.1 59.7 99.8 60.0 97.0 58.8 Z"
     id="path2781" />
  <path
     fill="#4fd2a3"
     stroke="#4fd2a3"
     stroke-width="0.09375"
     d=" M 104.0 58.0 C 106.6 58.3 109.2 58.5 111.8 58.7 C 113.6 61.2 116.8 64.0 115.7 67.4 C 113.4 69.2 110.6 70.1 107.9 71.2 C 105.8 70.4 103.7 69.8 101.6 69.2 L 100.8 68.9 C 100.8 68.8 100.6 68.8 100.6 68.7 C 97.6 67.1 95.3 64.5 94.1 61.3 C 95.1 60.4 96.0 59.6 97.0 58.8 C 99.8 60.0 102.1 59.7 104.0 58.0 Z"
     id="path2783" />
  <path
     fill="#090c64"
     stroke="#090c64"
     stroke-width="0.09375"
     d=" M 61.0 58.6 L 61.7 59.1 C 62.8 62.5 63.2 66.7 66.9 68.4 C 68.3 69.1 69.7 69.6 71.1 70.2 C 71.7 70.4 72.9 70.8 73.5 70.9 C 76.1 71.4 78.7 71.5 81.3 71.8 C 83.7 75.2 82.2 79.3 81.2 83.0 C 80.5 82.7 79.1 82.1 78.5 81.9 C 78.5 80.8 78.4 79.7 78.4 78.6 C 77.9 78.4 76.8 78.1 76.3 78.0 C 76.3 78.7 76.1 80.3 76.1 81.0 C 74.0 82.4 70.3 83.2 70.3 86.3 C 70.6 86.8 71.3 87.9 71.6 88.4 C 71.6 88.4 71.6 88.5 71.7 88.5 L 72.2 89.4 C 71.0 90.0 69.8 90.5 68.5 91.1 C 67.7 90.8 66.8 90.6 65.9 90.4 C 65.9 92.9 65.8 95.5 65.8 98.1 C 65.3 98.1 64.3 98.3 63.8 98.3 C 62.1 95.8 60.1 93.4 58.3 91.0 C 57.6 93.6 57.0 96.4 56.5 99.1 C 56.1 98.3 55.6 97.5 55.3 96.7 C 54.2 93.7 53.2 90.6 51.2 88.0 C 50.3 87.0 49.3 86.1 48.4 85.1 C 48.0 84.8 47.4 84.2 47.1 83.9 C 46.4 83.2 45.8 82.5 45.1 81.7 C 44.7 81.4 44.0 80.8 43.7 80.5 C 43.7 80.4 43.6 80.4 43.6 80.4 C 41.5 78.7 38.9 79.8 36.9 80.9 C 40.8 78.2 42.0 73.4 44.7 69.8 C 45.7 69.2 46.8 68.6 47.8 68.1 C 49.4 67.5 51.0 66.9 52.6 66.4 C 53.4 70.8 52.5 76.4 56.8 79.3 C 61.6 83.2 68.4 82.0 74.1 80.9 C 73.9 79.3 73.8 77.7 73.7 76.1 C 69.7 77.0 65.8 78.8 61.5 77.8 C 58.6 76.4 58.0 73.1 58.0 70.2 C 61.8 72.5 63.9 77.4 69.1 76.7 C 67.1 74.8 64.6 73.3 62.6 71.3 C 60.4 68.4 60.7 64.4 60.9 60.9 C 60.9 60.3 60.9 59.2 61.0 58.6 Z"
     id="path2785" />
  <path
     fill="#35936e"
     stroke="#35936e"
     stroke-width="0.09375"
     d=" M 61.7 59.1 C 65.3 60.8 66.2 64.8 66.9 68.4 C 63.2 66.7 62.8 62.5 61.7 59.1 Z"
     id="path2787" />
  <path
     fill="#66511f"
     stroke="#66511f"
     stroke-width="0.09375"
     d=" M 99.0 62.5 C 101.7 61.5 104.5 60.5 106.9 58.8 L 106.5 59.5 C 104.2 62.0 104.5 65.3 106.2 68.0 C 104.1 65.6 101.4 64.1 98.5 63.0 L 99.0 62.5 Z"
     id="path2789" />
  <path
     fill="#bb9839"
     stroke="#bb9839"
     stroke-width="0.09375"
     d=" M 106.5 59.5 C 107.8 59.3 109.0 59.2 110.3 59.0 C 109.8 59.9 109.2 60.8 108.6 61.6 C 108.3 62.1 107.7 63.0 107.4 63.5 C 107.9 64.4 108.3 65.3 108.8 66.2 C 109.0 66.7 109.5 67.7 109.8 68.2 C 108.6 68.1 107.4 68.0 106.2 68.0 C 104.5 65.3 104.2 62.0 106.5 59.5 Z"
     id="path2791" />
  <path
     fill="#bf9532"
     stroke="#bf9532"
     stroke-width="0.09375"
     d=" M 10.7 60.4 C 12.1 60.2 13.6 60.0 15.0 59.9 C 17.4 62.4 16.8 65.6 15.0 68.2 C 14.3 68.2 13.0 68.1 12.4 68.0 C 12.3 67.7 11.9 67.0 11.8 66.6 C 12.5 65.7 13.3 64.8 14.0 63.9 C 13.2 63.1 12.4 62.2 11.6 61.4 C 11.4 61.2 10.9 60.7 10.7 60.4 Z"
     id="path2793" />
  <path
     fill="#694111"
     stroke="#694111"
     stroke-width="0.09375"
     d=" M 15.0 59.9 C 17.4 60.9 19.6 62.1 21.8 63.4 C 21.3 63.7 20.3 64.4 19.9 64.8 C 18.2 65.9 16.6 67.1 15.0 68.2 C 16.8 65.6 17.4 62.4 15.0 59.9 Z"
     id="path2795" />
  <path
     fill="#52d4a5"
     stroke="#52d4a5"
     stroke-width="0.09375"
     d=" M 20.6 60.1 C 21.9 60.3 23.3 60.5 24.7 60.6 C 25.7 63.4 24.4 66.1 22.0 67.6 C 22.0 67.6 21.9 67.7 21.9 67.7 L 21.1 68.2 C 21.0 68.3 21.0 68.3 20.9 68.3 C 19.6 69.1 18.2 69.8 16.8 70.4 C 15.9 70.7 15.1 71.1 14.2 71.5 C 13.8 71.7 12.8 72.2 12.4 72.4 C 11.9 72.2 11.1 71.7 10.6 71.5 C 8.9 69.9 6.0 68.7 5.9 66.0 C 6.5 64.0 7.9 62.3 9.2 60.7 C 9.5 60.6 10.3 60.5 10.7 60.4 C 10.9 60.7 11.4 61.2 11.6 61.4 C 11.6 63.2 11.6 64.9 11.8 66.6 C 11.9 67.0 12.3 67.7 12.4 68.0 C 13.0 68.1 14.3 68.2 15.0 68.2 C 16.6 67.1 18.2 65.9 19.9 64.8 C 21.2 64.6 22.6 64.5 23.9 64.4 C 23.3 62.6 22.1 61.2 20.6 60.1 Z"
     id="path2797" />
  <path
     fill="#44bf96"
     stroke="#44bf96"
     stroke-width="0.09375"
     d=" M 98.5 63.0 C 94.7 64.6 97.6 58.6 99.0 62.5 L 98.5 63.0 Z"
     id="path2799" />
  <path
     fill="#694413"
     stroke="#694413"
     stroke-width="0.09375"
     d=" M 11.8 66.6 C 11.6 64.9 11.6 63.2 11.6 61.4 C 12.4 62.2 13.2 63.1 14.0 63.9 C 13.3 64.8 12.5 65.7 11.8 66.6 Z"
     id="path2801" />
  <path
     fill="#ad8932"
     stroke="#ad8932"
     stroke-width="0.09375"
     d=" M 26.5 61.9 C 27.8 62.2 29.0 62.4 30.3 62.7 C 30.5 64.8 30.5 67.0 29.6 68.9 L 28.9 69.7 L 28.3 69.1 C 27.7 66.9 27.3 64.7 26.7 62.5 L 26.5 61.9 Z"
     id="path2803" />
  <path
     fill="#625a27"
     stroke="#625a27"
     stroke-width="0.09375"
     d=" M 30.3 62.7 C 33.9 63.8 37.7 64.1 41.5 64.6 C 37.5 65.9 33.1 66.5 29.6 68.9 C 30.5 67.0 30.5 64.8 30.3 62.7 Z"
     id="path2805" />
  <path
     fill="#6a3f10"
     stroke="#6a3f10"
     stroke-width="0.09375"
     d=" M 107.4 63.5 C 107.7 63.0 108.3 62.1 108.6 61.6 C 109.3 62.0 110.5 62.7 111.2 63.1 C 110.3 64.1 109.5 65.1 108.8 66.2 C 108.3 65.3 107.9 64.4 107.4 63.5 Z"
     id="path2807" />
  <path
     fill="#50bd8e"
     stroke="#50bd8e"
     stroke-width="0.09375"
     d=" M 25.2 67.5 C 25.8 65.9 26.3 64.2 26.7 62.5 C 27.3 64.7 27.7 66.9 28.3 69.1 C 27.3 68.5 26.3 68.0 25.2 67.5 Z"
     id="path2809" />
  <path
     fill="#7e6828"
     stroke="#7e6828"
     stroke-width="0.09375"
     d=" M 78.9 64.3 C 83.2 64.0 87.5 63.6 91.8 63.0 C 93.0 65.0 92.9 67.1 91.8 69.1 C 88.4 68.4 85.8 65.4 81.9 66.2 C 80.6 65.9 78.7 66.1 78.9 64.3 Z"
     id="path2811" />
  <path
     fill="#42b58c"
     stroke="#42b58c"
     stroke-width="0.09375"
     d=" M 21.9 67.7 C 21.9 67.7 22.0 67.6 22.0 67.6 C 22.0 67.6 21.9 67.7 21.9 67.7 Z"
     id="path2813" />
  <path
     fill="#4ab58c"
     stroke="#4ab58c"
     stroke-width="0.09375"
     d=" M 20.9 68.3 C 21.0 68.3 21.0 68.3 21.1 68.2 C 21.0 68.3 21.0 68.3 20.9 68.3 Z"
     id="path2815" />
  <path
     fill="#42b594"
     stroke="#42b594"
     stroke-width="0.09375"
     d=" M 100.6 68.7 C 100.6 68.8 100.8 68.8 100.8 68.9 C 100.8 68.8 100.6 68.8 100.6 68.7 Z"
     id="path2817" />
  <path
     fill="#51d5a6"
     stroke="#51d5a6"
     stroke-width="0.09375"
     d=" M 19.6 70.4 C 22.3 69.3 25.2 68.5 27.8 70.1 C 27.8 71.7 27.9 73.3 28.2 74.8 C 25.8 79.2 21.8 82.2 17.9 85.2 C 22.5 82.4 27.5 78.9 33.0 80.9 C 32.1 81.6 31.1 82.4 30.2 83.1 C 27.5 83.7 24.8 84.0 22.1 84.6 C 21.1 85.5 20.0 86.5 19.0 87.4 C 19.3 87.6 20.0 88.1 20.3 88.3 C 21.6 89.3 22.9 90.3 24.2 91.3 C 24.3 91.8 24.6 93.0 24.8 93.5 C 24.9 93.9 25.1 94.7 25.1 95.1 C 22.7 94.7 19.7 95.1 17.7 93.2 C 16.5 90.9 16.8 88.1 16.4 85.6 C 14.1 84.6 11.7 83.7 9.6 82.2 C 7.7 79.6 10.4 76.7 12.0 74.7 C 12.4 74.9 13.2 75.2 13.6 75.4 C 13.8 76.9 14.0 78.5 14.6 80.0 C 14.9 80.6 15.4 81.7 15.6 82.3 C 16.8 81.5 18.0 80.7 19.2 79.9 C 20.9 77.8 22.7 75.8 24.8 74.2 C 22.4 74.2 19.9 73.8 17.5 73.2 C 17.8 72.6 18.4 71.3 18.7 70.7 L 19.4 70.5 C 19.4 70.4 19.6 70.4 19.6 70.4 Z"
     id="path2819" />
  <path
     fill="#67501e"
     stroke="#67501e"
     stroke-width="0.09375"
     d=" M 32.1 70.6 C 35.9 70.2 39.7 69.8 43.4 69.3 C 40.2 70.8 37.0 72.5 34.4 75.0 C 33.6 73.6 32.9 72.1 32.1 70.6 Z"
     id="path2821" />
  <path
     fill="#40a17f"
     stroke="#40a17f"
     stroke-width="0.09375"
     d=" M 14.2 71.5 C 15.1 71.1 15.9 70.7 16.8 70.4 C 17.3 70.5 18.3 70.6 18.7 70.7 C 18.4 71.3 17.8 72.6 17.5 73.2 C 17.1 73.1 16.2 72.9 15.8 72.8 C 15.2 72.7 14.1 72.4 13.6 72.3 L 14.2 71.5 Z"
     id="path2823" />
  <path
     fill="#42bd94"
     stroke="#42bd94"
     stroke-width="0.09375"
     d=" M 19.4 70.5 C 19.4 70.4 19.6 70.4 19.6 70.4 C 19.6 70.4 19.4 70.4 19.4 70.5 Z"
     id="path2825" />
  <path
     fill="#a8832d"
     stroke="#a8832d"
     stroke-width="0.09375"
     d=" M 30.0 70.8 C 30.6 70.8 31.6 70.7 32.1 70.6 C 32.9 72.1 33.6 73.6 34.4 75.0 C 33.3 75.6 32.4 76.4 31.4 77.1 C 30.8 75.9 30.3 74.8 29.7 73.6 C 29.8 72.9 30.0 71.5 30.0 70.8 Z"
     id="path2827" />
  <path
     fill="#246f67"
     stroke="#246f67"
     stroke-width="0.09375"
     d=" M 10.6 71.5 C 11.1 71.7 11.9 72.2 12.4 72.4 C 11.1 73.2 10.6 72.9 10.6 71.5 Z"
     id="path2829" />
  <path
     fill="#359d89"
     stroke="#359d89"
     stroke-width="0.09375"
     d=" M 44.9 78.3 C 44.8 75.4 45.6 72.5 48.0 70.7 C 47.5 73.4 47.0 76.3 44.9 78.3 Z"
     id="path2831" />
  <path
     fill="#35a98f"
     stroke="#35a98f"
     stroke-width="0.09375"
     d=" M 48.0 79.6 C 47.0 76.1 48.5 73.0 50.8 70.5 C 50.7 74.1 50.3 77.7 49.8 81.2 C 49.4 80.8 48.4 80.0 48.0 79.6 Z"
     id="path2833" />
  <path
     fill="#af842b"
     stroke="#af842b"
     stroke-width="0.09375"
     d=" M 88.2 70.7 C 88.7 70.8 89.7 71.0 90.2 71.1 C 90.0 73.2 89.5 75.3 89.0 77.3 C 87.9 76.8 86.9 76.2 85.8 75.6 C 86.4 73.9 87.1 72.2 88.2 70.7 Z"
     id="path2835" />
  <path
     fill="#694f1c"
     stroke="#694f1c"
     stroke-width="0.09375"
     d=" M 94.8 72.8 C 97.2 72.3 99.7 71.7 102.2 71.9 C 99.9 73.8 98.6 76.3 99.5 79.2 C 97.8 77.7 96.2 76.1 94.4 74.6 C 94.5 74.1 94.7 73.2 94.8 72.8 Z"
     id="path2837" />
  <path
     fill="#bc9939"
     stroke="#bc9939"
     stroke-width="0.09375"
     d=" M 102.2 71.9 C 103.1 72.0 104.0 72.1 104.9 72.3 C 104.7 72.7 104.3 73.6 104.1 74.0 C 103.1 75.5 102.8 77.2 103.1 78.9 C 102.9 79.5 102.6 80.7 102.5 81.3 C 101.5 80.6 100.5 79.9 99.5 79.2 C 98.6 76.3 99.9 73.8 102.2 71.9 Z"
     id="path2839" />
  <path
     fill="#52d5a8"
     stroke="#52d5a8"
     stroke-width="0.09375"
     d=" M 104.9 72.3 C 106.0 72.5 107.1 72.6 108.3 72.8 C 108.9 76.0 108.6 79.3 108.7 82.6 C 105.4 83.0 102.1 83.1 98.7 83.4 C 97.3 81.0 95.7 78.6 94.2 76.2 C 94.2 75.8 94.4 75.0 94.4 74.6 C 96.2 76.1 97.8 77.7 99.5 79.2 C 100.5 79.9 101.5 80.6 102.5 81.3 C 102.6 80.7 102.9 79.5 103.1 78.9 C 103.6 77.4 103.9 75.7 104.1 74.0 C 104.3 73.6 104.7 72.7 104.9 72.3 Z"
     id="path2841" />
  <path
     fill="#bb9737"
     stroke="#bb9737"
     stroke-width="0.09375"
     d=" M 12.0 74.7 C 12.5 73.9 13.0 73.1 13.6 72.3 C 14.1 72.4 15.2 72.7 15.8 72.8 C 18.4 74.3 19.2 77.0 19.2 79.9 C 18.0 80.7 16.8 81.5 15.6 82.3 C 15.4 81.7 14.9 80.6 14.6 80.0 C 15.0 78.7 15.3 77.5 15.6 76.2 C 15.1 76.0 14.1 75.6 13.6 75.4 C 13.2 75.2 12.4 74.9 12.0 74.7 Z"
     id="path2843" />
  <path
     fill="#664917"
     stroke="#664917"
     stroke-width="0.09375"
     d=" M 15.8 72.8 C 16.2 72.9 17.1 73.1 17.5 73.2 C 19.9 73.8 22.4 74.2 24.8 74.2 C 22.7 75.8 20.9 77.8 19.2 79.9 C 19.2 77.0 18.4 74.3 15.8 72.8 Z"
     id="path2845" />
  <path
     fill="#2c795d"
     stroke="#2c795d"
     stroke-width="0.09375"
     d=" M 92.5 73.4 C 93.1 74.4 93.6 75.3 94.2 76.2 C 95.7 78.6 97.3 81.0 98.7 83.4 L 99.0 84.1 C 96.8 81.9 94.5 79.5 91.5 78.4 L 91.4 78.3 L 91.3 78.4 C 90.2 79.0 89.2 79.5 88.1 80.1 C 88.3 81.1 88.5 82.1 88.7 83.1 L 88.9 84.0 C 87.6 84.0 86.3 84.0 85.1 84.0 C 86.6 79.8 90.6 77.4 92.5 73.4 Z"
     id="path2847" />
  <path
     fill="#67350a"
     stroke="#67350a"
     stroke-width="0.09375"
     d=" M 103.1 78.9 C 102.8 77.2 103.1 75.5 104.1 74.0 C 103.9 75.7 103.6 77.4 103.1 78.9 Z"
     id="path2849" />
  <path
     fill="#643e12"
     stroke="#643e12"
     stroke-width="0.09375"
     d=" M 14.6 80.0 C 14.0 78.5 13.8 76.9 13.6 75.4 C 14.1 75.6 15.1 76.0 15.6 76.2 C 15.3 77.5 15.0 78.7 14.6 80.0 Z"
     id="path2851" />
  <path
     fill="#38777d"
     stroke="#38777d"
     stroke-width="0.09375"
     d=" M 76.3 78.0 C 76.8 78.1 77.9 78.4 78.4 78.6 C 78.4 79.7 78.5 80.8 78.5 81.9 L 77.4 81.5 C 77.3 81.5 77.3 81.5 77.3 81.5 L 76.1 81.0 C 76.1 80.3 76.3 78.7 76.3 78.0 Z"
     id="path2853" />
  <path
     fill="#4aa57b"
     stroke="#4aa57b"
     stroke-width="0.09375"
     d=" M 91.4 78.3 L 91.5 78.4 C 91.5 78.4 91.3 78.4 91.3 78.4 L 91.4 78.3 Z"
     id="path2855" />
  <path
     fill="#4fcd9d"
     stroke="#4fcd9d"
     stroke-width="0.09375"
     d=" M 91.5 78.4 C 94.5 79.5 96.8 81.9 99.0 84.1 C 99.1 84.5 99.4 85.2 99.5 85.6 C 98.3 85.2 97.1 84.9 95.9 84.6 C 94.4 84.2 92.8 83.9 91.3 83.7 C 91.3 82.2 89.0 81.3 88.7 83.1 C 88.5 82.1 88.3 81.1 88.1 80.1 C 89.2 79.5 90.2 79.0 91.3 78.4 C 91.3 78.4 91.5 78.4 91.5 78.4 Z"
     id="path2857" />
  <path
     fill="#ed9090"
     stroke="#ed9090"
     stroke-width="0.09375"
     d=" M 36.9 80.9 C 38.9 79.8 41.5 78.7 43.6 80.4 C 43.6 80.4 43.7 80.4 43.7 80.5 C 44.0 80.8 44.7 81.4 45.1 81.7 C 40.5 84.4 37.7 88.9 35.2 93.4 C 39.1 90.1 42.9 86.8 47.1 83.9 C 47.4 84.2 48.0 84.8 48.4 85.1 C 43.1 88.2 38.4 92.3 34.9 97.3 C 38.1 95.1 40.9 92.2 44.4 90.7 C 44.8 90.9 45.4 91.4 45.7 91.7 C 42.4 93.7 39.3 96.2 36.8 99.3 C 40.2 97.2 43.0 94.5 45.7 91.7 C 46.5 91.1 47.3 90.5 48.1 89.9 C 47.5 91.7 46.8 93.4 46.0 95.2 C 43.7 97.6 41.1 99.7 38.3 101.6 C 35.7 101.5 32.9 101.8 30.6 100.5 C 27.5 98.0 28.1 93.6 28.9 90.2 C 29.1 89.8 29.6 89.1 29.8 88.7 C 31.5 86.5 33.3 84.2 35.2 82.1 C 35.6 81.8 36.4 81.2 36.9 80.9 Z"
     id="path2859" />
  <path
     fill="#37a993"
     stroke="#37a993"
     stroke-width="0.09375"
     d=" M 50.9 78.8 C 54.5 80.9 56.2 85.3 60.2 87.1 C 55.1 90.0 50.1 83.7 50.9 78.8 Z"
     id="path2861" />
  <path
     fill="#8c5252"
     stroke="#8c5252"
     stroke-width="0.09375"
     d=" M 43.6 80.4 C 43.6 80.4 43.7 80.4 43.7 80.5 C 43.7 80.4 43.6 80.4 43.6 80.4 Z"
     id="path2863" />
  <path
     fill="#a66362"
     stroke="#a66362"
     stroke-width="0.09375"
     d=" M 30.9 96.7 C 30.7 89.7 36.1 83.7 42.1 80.8 C 38.5 85.8 29.0 91.5 33.8 98.5 C 32.8 97.9 31.9 97.3 30.9 96.7 Z"
     id="path2865" />
  <path
     fill="#ac6868"
     stroke="#ac6868"
     stroke-width="0.09375"
     d=" M 70.3 86.3 C 70.3 83.2 74.0 82.4 76.1 81.0 C 78.9 85.1 84.0 87.6 85.6 92.5 C 88.2 96.8 83.9 98.4 81.1 99.7 C 82.4 98.1 83.9 96.6 84.9 94.8 C 84.8 91.1 81.3 88.9 79.0 86.5 C 79.0 86.5 78.9 86.3 78.8 86.3 C 78.9 86.3 79.0 86.5 79.0 86.5 C 79.4 87.8 79.8 89.0 80.2 90.3 C 78.3 88.2 76.1 86.4 73.9 84.6 C 76.7 88.8 80.3 92.5 82.3 97.2 C 78.5 93.9 75.7 89.6 72.6 85.6 C 72.1 85.8 70.9 86.1 70.3 86.3 Z"
     id="path2867" />
  <path
     fill="#ef9191"
     stroke="#ef9191"
     stroke-width="0.09375"
     d=" M 76.1 81.0 L 77.3 81.5 C 77.3 81.5 77.3 81.5 77.4 81.5 L 78.5 81.9 C 79.1 82.1 80.5 82.7 81.2 83.0 C 81.6 83.3 82.3 83.9 82.7 84.3 C 84.7 86.3 86.7 88.3 88.8 90.4 L 89.3 91.0 C 88.8 94.0 89.1 98.4 85.5 99.7 C 82.3 100.5 79.0 99.6 75.7 99.4 C 74.3 97.1 72.9 94.8 71.4 92.6 C 72.0 92.3 73.0 91.8 73.6 91.6 C 73.1 90.9 72.6 90.1 72.2 89.4 L 71.7 88.5 C 71.6 88.5 71.6 88.4 71.6 88.4 C 71.3 87.9 70.6 86.8 70.3 86.3 C 70.9 86.1 72.1 85.8 72.6 85.6 C 75.7 89.6 78.5 93.9 82.3 97.2 C 80.3 92.5 76.7 88.8 73.9 84.6 C 76.1 86.4 78.3 88.2 80.2 90.3 C 79.8 89.0 79.4 87.8 79.0 86.5 C 81.3 88.9 84.8 91.1 84.9 94.8 C 83.9 96.6 82.4 98.1 81.1 99.7 C 83.9 98.4 88.2 96.8 85.6 92.5 C 84.0 87.6 78.9 85.1 76.1 81.0 Z"
     id="path2869" />
  <path
     fill="#8c5252"
     stroke="#8c5252"
     stroke-width="0.09375"
     d=" M 77.3 81.5 C 77.3 81.5 77.3 81.5 77.4 81.5 C 77.3 81.5 77.3 81.5 77.3 81.5 Z"
     id="path2871" />
  <path
     fill="#7b7364"
     stroke="#7b7364"
     stroke-width="0.09375"
     d=" M 28.3 86.4 C 30.7 85.2 33.0 83.7 35.2 82.1 C 33.3 84.2 31.5 86.5 29.8 88.7 C 29.3 87.9 28.8 87.2 28.3 86.4 Z"
     id="path2873" />
  <path
     fill="#a86866"
     stroke="#a86866"
     stroke-width="0.09375"
     d=" M 45.1 81.7 C 45.8 82.5 46.4 83.2 47.1 83.9 C 42.9 86.8 39.1 90.1 35.2 93.4 C 37.7 88.9 40.5 84.4 45.1 81.7 Z"
     id="path2875" />
  <path
     fill="#4faf86"
     stroke="#4faf86"
     stroke-width="0.09375"
     d=" M 88.7 83.1 C 89.0 81.3 91.3 82.2 91.3 83.7 C 90.7 83.5 89.3 83.2 88.7 83.1 Z"
     id="path2877" />
  <path
     fill="#674b1b"
     stroke="#674b1b"
     stroke-width="0.09375"
     d=" M 22.1 84.6 C 24.8 84.0 27.5 83.7 30.2 83.1 C 29.5 84.2 28.9 85.3 28.3 86.4 C 28.8 87.2 29.3 87.9 29.8 88.7 C 29.6 89.1 29.1 89.8 28.9 90.2 C 28.6 90.1 28.1 89.9 27.8 89.8 C 26.5 87.4 24.7 85.5 22.1 84.6 Z"
     id="path2879" />
  <path
     fill="#694012"
     stroke="#694012"
     stroke-width="0.09375"
     d=" M 88.7 83.1 C 89.3 83.2 90.7 83.5 91.3 83.7 C 92.8 83.9 94.4 84.2 95.9 84.6 C 93.8 85.7 92.2 87.3 91.8 89.7 C 90.8 87.8 89.8 86.0 88.9 84.0 L 88.7 83.1 Z"
     id="path2881" />
  <path
     fill="#8a6360"
     stroke="#8a6360"
     stroke-width="0.09375"
     d=" M 82.7 84.3 C 84.8 86.2 86.8 88.3 88.8 90.4 C 86.7 88.3 84.7 86.3 82.7 84.3 Z"
     id="path2883" />
  <path
     fill="#bd9737"
     stroke="#bd9737"
     stroke-width="0.09375"
     d=" M 22.1 84.6 C 24.7 85.5 26.5 87.4 27.8 89.8 C 26.8 91.0 25.8 92.3 24.8 93.5 C 24.6 93.0 24.3 91.8 24.2 91.3 C 24.0 90.6 23.6 89.3 23.4 88.6 C 22.6 88.5 21.1 88.4 20.3 88.3 C 20.0 88.1 19.3 87.6 19.0 87.4 C 20.0 86.5 21.1 85.5 22.1 84.6 Z"
     id="path2885" />
  <path
     fill="#a86968"
     stroke="#a86968"
     stroke-width="0.09375"
     d=" M 48.4 85.1 C 49.3 86.1 50.3 87.0 51.2 88.0 C 49.8 90.6 48.1 93.1 46.0 95.2 C 46.8 93.4 47.5 91.7 48.1 89.9 C 47.3 90.5 46.5 91.1 45.7 91.7 C 45.4 91.4 44.8 90.9 44.4 90.7 C 40.9 92.2 38.1 95.1 34.9 97.3 C 38.4 92.3 43.1 88.2 48.4 85.1 Z"
     id="path2887" />
  <path
     fill="#c19a36"
     stroke="#c19a36"
     stroke-width="0.09375"
     d=" M 91.8 89.7 C 92.2 87.3 93.8 85.7 95.9 84.6 C 97.1 84.9 98.3 85.2 99.5 85.6 L 99.7 86.4 L 98.9 86.9 C 98.1 87.1 96.5 87.6 95.7 87.8 C 95.5 89.1 95.3 90.5 95.1 91.8 C 95.0 92.3 94.8 93.4 94.6 93.9 L 93.9 93.7 C 93.2 92.4 92.5 91.1 91.8 89.7 Z"
     id="path2889" />
  <path
     fill="#ff9c9c"
     stroke="#ff9c9c"
     stroke-width="0.09375"
     d=" M 78.8 86.3 C 78.9 86.3 79.0 86.5 79.0 86.5 C 79.0 86.5 78.9 86.3 78.8 86.3 Z"
     id="path2891" />
  <path
     fill="#644a1c"
     stroke="#644a1c"
     stroke-width="0.09375"
     d=" M 95.7 87.8 C 96.5 87.6 98.1 87.1 98.9 86.9 C 97.6 88.5 96.3 90.2 95.1 91.8 C 95.3 90.5 95.5 89.1 95.7 87.8 Z"
     id="path2893" />
  <path
     fill="#4dc79d"
     stroke="#4dc79d"
     stroke-width="0.09375"
     d=" M 98.9 86.9 L 99.7 86.4 C 100.9 90.2 98.4 93.4 94.6 93.9 C 94.8 93.4 95.0 92.3 95.1 91.8 C 96.3 90.2 97.6 88.5 98.9 86.9 Z"
     id="path2895" />
  <path
     fill="#613007"
     stroke="#613007"
     stroke-width="0.09375"
     d=" M 20.3 88.3 C 21.1 88.4 22.6 88.5 23.4 88.6 C 23.6 89.3 24.0 90.6 24.2 91.3 C 22.9 90.3 21.6 89.3 20.3 88.3 Z"
     id="path2897" />
  <path
     fill="#ff9c9c"
     stroke="#ff9c9c"
     stroke-width="0.09375"
     d=" M 47.3 88.3 C 47.8 88.8 47.8 88.8 47.3 88.3 Z"
     id="path2899" />
  <path
     fill="#4a3142"
     stroke="#4a3142"
     stroke-width="0.09375"
     d=" M 71.6 88.4 C 71.6 88.4 71.6 88.5 71.7 88.5 C 71.6 88.5 71.6 88.4 71.6 88.4 Z"
     id="path2901" />
  <path
     fill="#447c64"
     stroke="#447c64"
     stroke-width="0.09375"
     d=" M 27.8 89.8 C 28.1 89.9 28.6 90.1 28.9 90.2 C 28.1 93.6 27.5 98.0 30.6 100.5 C 32.9 101.8 35.7 101.5 38.3 101.6 C 34.3 104.7 26.2 104.4 25.8 98.1 C 25.5 97.1 25.3 96.1 25.1 95.1 C 25.1 94.7 24.9 93.9 24.8 93.5 C 25.8 92.3 26.8 91.0 27.8 89.8 Z"
     id="path2903" />
  <path
     fill="#a56365"
     stroke="#a56365"
     stroke-width="0.09375"
     d=" M 68.5 91.1 C 69.8 90.5 71.0 90.0 72.2 89.4 C 72.6 90.1 73.1 90.9 73.6 91.6 C 73.0 91.8 72.0 92.3 71.4 92.6 C 72.9 94.8 74.3 97.1 75.7 99.4 C 73.3 96.7 71.0 93.8 68.5 91.1 Z"
     id="path2905" />
  <path
     fill="#ab6666"
     stroke="#ab6666"
     stroke-width="0.09375"
     d=" M 36.8 99.3 C 39.3 96.2 42.4 93.7 45.7 91.7 C 43.0 94.5 40.2 97.2 36.8 99.3 Z"
     id="path2907" />
  <path
     fill="#937370"
     stroke="#937370"
     stroke-width="0.09375"
     d=" M 55.3 96.7 C 55.6 97.5 56.1 98.3 56.5 99.1 C 55.8 102.8 54.8 106.4 54.1 110.1 C 53.8 109.7 53.2 108.8 52.9 108.4 C 53.4 104.4 54.6 100.6 55.3 96.7 Z"
     id="path2909" />
  <path
     fill="#9c7978"
     stroke="#9c7978"
     stroke-width="0.09375"
     d=" M 63.8 98.3 C 64.3 98.3 65.3 98.1 65.8 98.1 C 66.0 101.9 66.9 105.6 67.0 109.4 C 66.7 109.9 66.1 110.8 65.8 111.3 C 65.3 106.9 64.4 102.6 63.8 98.3 Z"
     id="path2911" />
  <path
     fill="#906b0c"
     stroke="#906b0c"
     stroke-width="0.09375"
     d=" M 46.7 118.2 C 47.5 114.2 49.5 110.7 52.9 108.4 C 53.2 108.8 53.8 109.7 54.1 110.1 C 54.6 112.8 54.9 115.5 55.3 118.3 C 54.2 116.5 53.2 114.7 52.2 112.9 C 52.1 114.2 52.1 115.6 52.0 117.0 C 51.4 116.1 50.8 115.1 50.3 114.1 C 49.1 115.5 47.9 116.9 46.7 118.2 Z"
     id="path2913" />
  <path
     fill="#906b0c"
     stroke="#906b0c"
     stroke-width="0.09375"
     d=" M 67.0 109.4 C 70.5 111.6 72.5 115.2 73.3 119.2 C 72.1 117.9 70.9 116.5 69.7 115.1 C 69.2 116.1 68.6 117.1 68.0 118.0 C 67.9 116.6 67.8 115.2 67.8 113.8 C 66.8 115.6 65.8 117.4 64.8 119.2 C 65.3 116.5 65.5 113.9 65.8 111.3 C 66.1 110.8 66.7 109.9 67.0 109.4 Z"
     id="path2915" />
</svg>
