<?xml version="1.0" encoding="UTF-8" standalone="no"?>
<!-- Created with Inkscape (http://www.inkscape.org/) -->

<svg
   xmlns:dc="http://purl.org/dc/elements/1.1/"
   xmlns:cc="http://creativecommons.org/ns#"
   xmlns:rdf="http://www.w3.org/1999/02/22-rdf-syntax-ns#"
   xmlns:svg="http://www.w3.org/2000/svg"
   xmlns="http://www.w3.org/2000/svg"
   xmlns:sodipodi="http://sodipodi.sourceforge.net/DTD/sodipodi-0.dtd"
   xmlns:inkscape="http://www.inkscape.org/namespaces/inkscape"
   width="184.61342"
   height="181.98647"
   id="svg306"
   sodipodi:version="0.32"
   inkscape:version="0.46+devel"
   version="1.0"
   sodipodi:docname="celtish_ornament.svg"
   inkscape:output_extension="org.inkscape.output.svg.inkscape">
  <title
     id="title1732">celtic ornament</title>
  <defs
     id="defs308">
    <inkscape:perspective
       sodipodi:type="inkscape:persp3d"
       inkscape:vp_x="0 : 526.18109 : 1"
       inkscape:vp_y="0 : 1000 : 0"
       inkscape:vp_z="744.09448 : 526.18109 : 1"
       inkscape:persp3d-origin="372.04724 : 350.78739 : 1"
       id="perspective314" />
    <inkscape:perspective
       id="perspective276"
       inkscape:persp3d-origin="0.5 : 0.33333333 : 1"
       inkscape:vp_z="1 : 0.5 : 1"
       inkscape:vp_y="0 : 1000 : 0"
       inkscape:vp_x="0 : 0.5 : 1"
       sodipodi:type="inkscape:persp3d" />
  </defs>
  <sodipodi:namedview
     id="base"
     pagecolor="#ffffff"
     bordercolor="#666666"
     borderopacity="1.0"
     inkscape:pageopacity="0.0"
     inkscape:pageshadow="2"
     inkscape:zoom="0.98994949"
     inkscape:cx="118.92026"
     inkscape:cy="53.364398"
     inkscape:document-units="px"
     inkscape:current-layer="layer1"
     showgrid="false"
     inkscape:window-width="667"
     inkscape:window-height="567"
     inkscape:window-x="576"
     inkscape:window-y="361" />
  <metadata
     id="metadata311">
    <rdf:RDF>
      <cc:Work
         rdf:about="">
        <dc:format>image/svg+xml</dc:format>
        <dc:type
           rdf:resource="http://purl.org/dc/dcmitype/StillImage" />
        <dc:title>celtic ornament</dc:title>
        <cc:license
           rdf:resource="http://creativecommons.org/licenses/publicdomain/" />
        <dc:creator>
          <cc:Agent>
            <dc:title>hrum</dc:title>
          </cc:Agent>
        </dc:creator>
      </cc:Work>
      <cc:License
         rdf:about="http://creativecommons.org/licenses/publicdomain/">
        <cc:permits
           rdf:resource="http://creativecommons.org/ns#Reproduction" />
        <cc:permits
           rdf:resource="http://creativecommons.org/ns#Distribution" />
        <cc:permits
           rdf:resource="http://creativecommons.org/ns#DerivativeWorks" />
      </cc:License>
    </rdf:RDF>
  </metadata>
  <g
     inkscape:label="Layer 1"
     inkscape:groupmode="layer"
     id="layer1"
     transform="translate(-282.69329,-441.36895)">
    <path
       d="m 307.82472,612.01394 c 0,0 2.98,-4.149 4.821,-8.91 1.842,-4.761 2.486,-11.948 5.87,-15.96 l -3.333,-5.017 c 0,0 -14.912,-1.025 -20.827,-12.685 -5.916,-11.659 -8.812,-22.293 4.246,-37.607 l 0.732,-10.747 c 0,0 -17.479,-10.65 -16.609,-21.80099 l 0.303,-0.118 c 0,0 4.888,1.487 9.988,1.7 5.1,0.213 12.113,-1.488 17,0.425 l 2.975,-2.55 c 0,0 -3.825,-14.45 5.312,-23.8 9.137,-9.35 18.276,-15.512 36.975,-8.075 l 10.412,-2.763 c 0,0 4.46199,-19.975 15.29999,-22.737 l -0.315,0.203 c 0,0 0.191,5.105 1.657,9.995 1.465,4.89 5.363,10.962 5.152,16.206 l 3.381,1.979 c 0,0 12.408,-8.336 24.229,-2.754 11.823,5.581 20.632,12.204 19.712,32.308 l 6.013,8.93799 c 0,0 20.337,-2.308 26.488,7.032 l -0.286,-0.194 c 0,0 -4.763,1.847 -8.906,4.828 -4.145,2.98 -8.612,8.647 -13.637,10.159 l -0.767,3.842 c 0,0 11.928,9.008 10.511,22.004 -1.417,12.997 -4.803,23.485 -24.106,29.176 l -6.487,8.601 c 0,0 7.956,18.804 1.135,27.66701 l -0.685,0.564 c 0,0 -3.125,-4.041 -7.161,-7.16701 -4.036,-3.126 -10.739,-5.797 -13.617,-10.186 l -5.925,1.404 c 0,0 -5.245,13.99801 -18.108,16.33301 -12.86299,2.336 -23.88099,2.072 -34.82599,-14.81601 l -10.089,-3.773 c 0,0 -15.201,13.70601 -25.638,9.686 l -0.89,-1.39 z"
       id="path236" />
    <g
       id="g254"
       transform="translate(282.69372,441.36896)">
      <path
         d="m 138.74,154.284 c -0.803,0.977 -1.938,2.458 -2.418,3.552 1.594,3.738 2.014,7.484 2.045,10.111 -0.475,-0.303 -0.965,-0.593 -1.471,-0.882 -2.667,-1.501 -5.719,-2.879 -7.966,-4.485 -0.706,-0.5 -1.327,-1.017 -1.834,-1.545 -1.053,-1.176 -1.615,-2.95 -1.615,-2.95 -0.038,-0.238 -0.058,-0.487 -0.059,-0.749 -0.013,-1.568 0.785,-3.846 3.235,-6.92 -0.587,-0.751 -1.726,-2.083 -2.737,-2.539 -2.864,3.538 -4.211,6.594 -4.224,9.458 0,0.091 0.002,0.18 0.005,0.269 0,0 0.331,1.991 0.688,3.06 l 0,0 c 0.463,1.063 1.125,2.009 1.892,2.818 2.25,2.381 5.35,3.944 8.142,5.415 1.395,0.726 2.714,1.417 3.791,2.096 1.078,0.675 1.894,1.35 2.316,1.915 l 2.617,3.441 0.703,-4.267 c 0.013,-0.078 0.245,-1.51 0.245,-3.753 -0.003,-3.37 -0.517,-8.594 -3.206,-13.772 -0.046,-0.092 -0.1,-0.183 -0.149,-0.273 z"
         id="path256"
         style="fill:#ffffff" />
      <path
         d="m 126.037,146.923 c 0,0 2.763,1.185 3.882,2.503 1.016,0.804 1.908,1.655 2.693,2.539 0.507,-0.757 1.373,-2.437 1.877,-3.439 -0.75,-0.757 -1.571,-1.488 -2.469,-2.185 0.008,-0.011 0.019,-0.021 0.026,-0.033 -1.116,-0.788 -3.13,-2.046 -3.13,-2.046 -1.791,-1.034 -3.813,-1.941 -6.085,-2.68 -5.628,-1.841 -9.376,-4.201 -11.778,-6.674 -1.613,0.735 -2.999,1.05 -3.929,1.179 0.144,0.179 0.291,0.357 0.444,0.534 2.92,3.387 7.477,6.334 14.105,8.502 1.602,0.528 3.044,1.135 4.346,1.806 0.011,-0.005 0.018,-0.006 0.018,-0.006 z"
         id="path258"
         style="fill:#ffffff" />
      <path
         d="m 60.215,128.827 c -1.167,-1.295 -1.88,-2.507 -2.295,-3.369 -2.59,3.799 -4.242,9.183 -4.403,16.48 -0.038,1.672 -0.204,3.211 -0.466,4.64 0.011,0.018 0.018,0.028 0.018,0.028 0,0 -0.335,3.14 -1.322,4.553 -0.464,1.161 -0.999,2.229 -1.594,3.206 0.851,0.261 2.715,0.596 3.838,0.788 0.5,-0.927 0.956,-1.907 1.355,-2.954 0.02,0.009 0.04,0.016 0.06,0.024 0.39,-1.183 0.95,-3.261 1.04,-3.599 -0.003,-0.001 -0.006,-0.001 -0.009,-0.002 0.469,-2.014 0.752,-4.211 0.804,-6.599 0.136,-5.917 1.302,-10.176 2.974,-13.196 z"
         id="path260"
         style="fill:#ffffff" />
      <path
         d="m 39.412,163.43 c -1.049,0.461 -2.038,0.82 -2.908,1.097 0.204,-0.726 0.375,-1.475 0.542,-2.238 0.689,-3.307 1.19,-6.957 2.31,-9.532 0.125,-0.292 0.257,-0.565 0.395,-0.826 0.114,0.294 0.142,-0.165 0.142,-0.165 0.644,-1.066 1.728,-1.948 2.159,-2.273 -0.005,-0.022 -0.012,-0.042 -0.017,-0.065 0.695,-0.381 1.536,-0.606 2.708,-0.614 0.006,0 0.013,0 0.018,0 1.417,0 3.31,0.383 5.724,1.347 0.538,-0.77 1.482,-2.249 1.635,-3.358 -2.839,-1.157 -5.248,-1.711 -7.376,-1.715 -1.135,0 -2.188,0.168 -3.145,0.489 -0.007,0.016 -0.011,0.025 -0.011,0.025 0,0 -2.264,1.128 -3.01,1.779 l -0.004,-0.012 c -0.96,0.89 -1.699,1.969 -2.263,3.104 -1.392,2.811 -1.941,6.083 -2.509,9.022 -0.527,2.929 -1.161,5.539 -1.997,6.622 l -2.534,3.5 4.285,-0.559 c 0.154,-0.027 5.776,-0.753 11.61,-4.492 1.543,-0.992 3.1,-2.203 4.561,-3.672 -1.196,-0.488 -2.963,-1.14 -4.137,-1.256 -2.034,1.702 -4.206,2.925 -6.178,3.792 z"
         id="path262"
         style="fill:#ffffff" />
      <path
         d="m 37.881,79.242 c 3.518,-0.97 6.557,-1.384 9.156,-1.384 1.639,0.007 3.095,0.17 4.399,0.457 0.921,-1.492 1.89,-2.518 2.597,-3.153 -2.05,-0.664 -4.382,-1.036 -6.997,-1.029 -2.993,0.001 -6.36,0.474 -10.146,1.517 -1.73,0.475 -3.36,0.772 -4.898,0.923 -0.779,0.118 -2.693,0.35 -4.012,0.065 0,10e-4 0,10e-4 0,0.003 -1.566,-0.109 -3.019,-0.38 -4.375,-0.767 0.001,0.949 0.213,2.851 0.343,3.936 1.121,0.252 2.296,0.433 3.526,0.53 1.171,0.04 3.739,-0.02 4.777,-0.047 1.79,-0.171 3.666,-0.511 5.63,-1.051 z"
         id="path264"
         style="fill:#ffffff" />
      <path
         d="m 17.278,77.25 c 0.132,-1.289 0.26,-3.19 0.035,-4.353 -1.42,-0.974 -2.665,-2.055 -3.741,-3.146 -1.344,-1.37 -2.409,-2.748 -3.203,-3.914 3.29,-0.055 6.989,-0.756 10.154,-0.746 1.538,-0.006 2.882,0.165 3.968,0.544 -0.039,0.022 -0.078,0.046 -0.117,0.07 0.951,0.485 2.012,1.339 2.636,1.876 0.01,-0.005 0.02,-0.011 0.028,-0.016 0.018,0.027 0.035,0.057 0.053,0.085 0.284,0.247 0.46,0.413 0.46,0.413 l -0.159,0.138 c 0.073,0.15 0.143,0.307 0.208,0.477 0.391,1.016 0.648,2.405 0.646,4.256 0,0.641 -0.032,1.339 -0.095,2.091 0.86,0.292 2.554,0.792 3.682,0.643 0.093,-0.968 0.141,-1.879 0.141,-2.734 0,-2.187 -0.297,-4.03 -0.894,-5.591 C 30.898,66.859 30.679,66.409 30.434,65.986 29.792,65.24 28.715,64.008 27.972,63.259 27.54,62.954 27.087,62.693 26.617,62.48 24.7,61.596 22.607,61.369 20.522,61.365 16.767,61.376 12.869,62.126 10.06,62.113 8.979,62.117 8.084,62 7.495,61.792 l -4.079,-1.421 1.767,3.942 c 0.059,0.125 1.819,4.05 5.728,8.045 1.686,1.728 3.81,3.469 6.367,4.892 z"
         id="path266"
         style="fill:#ffffff" />
      <path
         d="m 92.197,14.315 c 0.483,-0.789 0.968,-1.494 1.419,-2.104 0.052,0.146 0.107,0.29 0.162,0.436 0.861,2.225 2.068,4.517 3.031,6.748 0.973,2.223 1.661,4.366 1.649,6.063 -0.002,0.129 -0.008,0.252 -0.016,0.376 -0.014,-0.013 -0.03,-0.025 -0.043,-0.038 -0.163,1.485 -0.918,2.945 -0.918,2.945 l -0.366,-0.162 c 0.058,0.055 0.118,0.108 0.176,0.163 -0.121,0.14 -0.252,0.28 -0.396,0.419 -1.081,1.037 -3.003,2.079 -6.107,2.87 0.002,0.942 0.083,2.7 0.6,3.691 3.661,-0.898 6.271,-2.156 8.073,-3.859 0.196,-0.183 0.376,-0.371 0.549,-0.564 0.019,0.016 0.039,0.03 0.059,0.046 0.363,-0.521 1.201,-1.753 1.559,-2.521 -0.019,-0.016 -0.035,-0.03 -0.054,-0.046 0.43,-1.082 0.623,-2.216 0.61,-3.32 -0.028,-3.492 -1.605,-6.825 -3.023,-9.893 -0.717,-1.527 -1.413,-2.977 -1.906,-4.26 -0.5,-1.279 -0.772,-2.393 -0.765,-3.138 l 0,-4.322 -3.142,2.968 c -0.08,0.078 -2.195,2.081 -4.326,5.555 -1.552,2.534 -3.119,5.875 -3.855,9.821 1.279,-0.196 3.032,-0.533 4.046,-1.015 0.712,-2.667 1.84,-4.994 2.984,-6.859 z"
         id="path268"
         style="fill:#ffffff" />
      <path
         d="m 89.214,32.397 c 0,0 0,0 -0.001,0.001 -0.429,-1.572 -0.653,-3.086 -0.727,-4.539 -0.946,0.256 -2.658,0.9 -3.643,1.28 0.118,1.236 0.334,2.505 0.664,3.801 0.353,1.235 1.306,3.82 1.306,3.82 l -0.077,0.042 c 0.022,-0.005 0.042,-0.011 0.063,-0.016 0.802,1.906 1.86,3.851 3.22,5.815 3.374,4.888 4.926,9.042 5.335,12.473 1.714,0.392 3.001,0.979 3.833,1.448 -0.106,-4.629 -1.921,-9.981 -6.103,-16.038 -0.96,-1.395 -1.743,-2.755 -2.374,-4.081 -0.106,-0.19 -1.282,-2.37 -1.496,-4.006 z"
         id="path270"
         style="fill:#ffffff" />
      <path
         d="m 154.609,73.354 c -0.745,-0.881 -2.071,-2.23 -2.686,-2.846 -0.968,0.49 -1.933,1.056 -2.888,1.711 -0.008,-0.013 -0.017,-0.025 -0.025,-0.037 -0.858,0.602 -2.394,1.844 -2.949,2.296 0.015,0.023 0.027,0.045 0.044,0.068 -1.53,1.392 -3.009,3.039 -4.406,4.976 -2.959,4.091 -5.868,6.774 -8.573,8.423 -0.47,0.285 -0.932,0.533 -1.388,0.76 0.186,1.773 0.039,3.196 -0.136,4.125 1.146,-0.433 2.304,-0.998 3.462,-1.705 3.227,-1.967 6.469,-5.021 9.653,-9.42 1.111,-1.535 2.258,-2.847 3.427,-3.967 0.012,0.019 0.024,0.038 0.035,0.057 0.523,-0.546 1.756,-1.762 2.902,-2.385 -0.012,-0.018 -0.022,-0.036 -0.033,-0.054 1.024,-0.71 2.056,-1.299 3.086,-1.786 0.159,-0.076 0.318,-0.147 0.475,-0.216 z"
         id="path272"
         style="fill:#ffffff" />
      <path
         d="m 176.546,70.712 c -0.149,-0.066 -5.637,-2.896 -13.034,-2.909 -1.521,0 -3.124,0.126 -4.773,0.424 0.708,1.123 1.767,2.672 2.638,3.4 0.724,-0.065 1.437,-0.098 2.135,-0.098 3.16,-10e-4 5.992,0.612 8.036,1.238 -0.295,0.244 -0.587,0.498 -0.88,0.757 -2.052,1.849 -4.077,4.085 -6.108,5.792 -1.01,0.853 -2.015,1.567 -2.968,2.044 -0.027,0.013 -0.052,0.025 -0.079,0.037 l -0.058,0.133 c -1.464,0.592 -3.324,0.518 -3.324,0.518 l -0.004,-0.193 c -0.019,0.05 -0.039,0.099 -0.058,0.148 -0.744,-0.136 -1.534,-0.469 -2.451,-1.139 -1.099,-0.809 -2.345,-2.129 -3.676,-4.113 -0.962,0.345 -2.573,1.017 -3.249,1.841 1.554,2.355 3.101,4.077 4.713,5.27 0.991,0.738 2.025,1.256 3.065,1.573 -0.056,0.118 3.043,0.419 3.08,0.344 1.84,-0.146 3.509,-0.876 5.005,-1.825 2.513,-1.604 4.68,-3.869 6.682,-5.832 0.996,-0.982 1.942,-1.889 2.813,-2.591 0.868,-0.708 1.662,-1.197 2.266,-1.405 l 4.077,-1.443 -3.848,-1.971 z"
         id="path274"
         style="fill:#ffffff" />
      <path
         d="m 95.479,123.064 c 1.983,0.646 4.17,1.155 6.572,1.488 0.056,-0.848 0.202,-2.161 0.29,-2.921 -2.152,-0.304 -4.102,-0.753 -5.861,-1.318 0.019,-0.028 0.039,-0.054 0.058,-0.082 -1.053,-0.376 -4.798,-1.752 -6.474,-2.875 l 0.001,-0.004 c -1.923,-1.209 -3.495,-2.544 -4.775,-3.874 -2.041,-2.131 -3.339,-4.262 -4.122,-5.848 -0.291,-0.589 -0.51,-1.102 -0.671,-1.51 2.062,-0.808 3.876,-1.827 5.387,-2.835 1.368,-0.914 2.494,-1.822 3.351,-2.578 1.012,2.245 2.364,6.046 2.351,10.213 0,1.695 -0.222,3.447 -0.755,5.205 0.96,0.478 4.583,2.255 6.652,2.959 1.289,-1.334 3.119,-2.522 5,-3.372 2.025,-0.934 4.144,-1.467 5.482,-1.556 -1.794,2.013 -3.282,4.667 -4.02,7.672 -0.019,-0.002 -0.037,-0.004 -0.055,-0.006 -0.242,1.052 -0.358,2.278 -0.405,2.907 0.001,0 0.003,0 0.005,0 -0.026,0.379 -0.045,0.759 -0.046,1.145 -0.003,0.982 0.088,1.986 0.283,2.996 0.924,0.097 2.637,-0.374 3.664,-0.694 -0.148,-0.772 -0.219,-1.541 -0.221,-2.301 -0.001,-0.17 0.004,-0.339 0.012,-0.508 0,-1.044 0.363,-2.536 0.575,-3.315 -0.004,0 -0.007,0 -0.011,0 0.02,-0.066 0.043,-0.128 0.064,-0.192 0.058,-0.205 0.095,-0.331 0.095,-0.331 0,0 0.008,-0.002 0.016,-0.004 0.67,-1.955 1.727,-3.701 2.928,-5.001 0.434,-0.473 0.783,-0.93 1.052,-1.425 0.266,-0.493 0.471,-1.044 0.475,-1.705 0.005,-0.53 -0.168,-1.117 -0.49,-1.564 -0.489,-0.681 -1.14,-1 -1.715,-1.177 -0.588,-0.177 -1.171,-0.232 -1.785,-0.234 -1.428,0.005 -3.055,0.321 -4.797,0.876 -2.603,0.842 -5.422,2.234 -7.718,4.198 -0.477,0.408 -0.93,0.846 -1.351,1.309 0.426,-1.517 0.66,-3.02 0.748,-4.476 2.474,-0.163 7.691,-0.963 13.146,-4.678 1.006,-0.684 2.014,-1.466 3.011,-2.359 l -0.019,-0.04 c 1.878,-1.693 4.775,-5.392 4.775,-5.392 l 0.039,-0.003 c 1.141,-1.622 2.221,-3.45 3.209,-5.501 -0.862,-0.352 -2.621,-1.249 -3.349,-1.625 -0.878,1.831 -1.828,3.446 -2.824,4.87 l 0.015,0.032 c 0,0 -2.45,3.701 -4.286,5.182 l -0.306,-0.079 c -0.79,0.688 -1.582,1.3 -2.365,1.837 -4.588,3.136 -9.028,3.867 -11.121,4.028 -0.386,-4.053 -1.659,-7.467 -2.642,-9.597 0.995,-0.131 2.25,-0.242 3.663,-0.241 3.114,-0.003 6.943,0.54 10.391,2.463 0.446,0.25 0.885,0.527 1.318,0.826 0.957,-1.015 3.501,-3.789 4.477,-5.519 -0.271,-0.539 -0.513,-1.12 -0.72,-1.736 -0.668,-1.974 -0.975,-4.247 -0.973,-6.213 -0.002,-1.286 0.136,-2.453 0.337,-3.266 1.293,2.2 3.214,4.297 5.645,5.895 0.022,0.015 0.044,0.028 0.066,0.042 -0.003,0.007 -0.006,0.013 -0.008,0.018 1.082,0.703 2.733,1.416 3.335,1.667 0,0 0,0 0,-10e-4 1.13,0.423 2.332,0.728 3.589,0.889 0.435,-0.725 0.56,-2.519 0.594,-3.681 -0.983,-0.115 -1.927,-0.346 -2.82,-0.676 0.002,-0.005 0.005,-0.012 0.006,-0.018 -1.172,-0.374 -2.82,-1.479 -3.319,-1.826 -0.005,0.012 -0.009,0.027 -0.015,0.042 -1.691,-1.242 -3.059,-2.819 -3.942,-4.376 -0.386,-0.671 -0.781,-1.224 -1.291,-1.685 -0.497,-0.45 -1.199,-0.854 -2.065,-0.856 -0.494,-0.003 -0.983,0.147 -1.361,0.37 -0.671,0.399 -1.05,0.927 -1.344,1.454 -0.431,0.799 -0.683,1.688 -0.865,2.696 -0.177,1.005 -0.268,2.124 -0.269,3.313 0.009,3.117 0.599,6.726 2.169,9.783 0.008,0.016 0.017,0.032 0.026,0.047 -0.252,-0.154 -0.504,-0.301 -0.76,-0.441 -1.025,-0.57 -2.063,-1.034 -3.103,-1.414 0.376,-1.49 0.754,-3.643 0.757,-6.267 10e-4,-3.136 -0.557,-6.949 -2.313,-11.04 0.069,-0.026 0.141,-0.05 0.21,-0.076 l -0.335,0.017 c -0.852,-2.204 -2.645,-5.134 -2.874,-5.506 -0.016,0.022 -0.033,0.044 -0.048,0.065 -1.181,-1.717 -2.604,-3.45 -4.303,-5.175 -0.464,0.549 -1.38,1.503 -2.002,2.14 1.452,1.484 2.671,2.961 3.696,4.417 l 0.102,-0.008 c 0,0 2.039,3.063 2.767,5.308 l -0.259,0.363 c 0.136,-0.086 0.273,-0.173 0.414,-0.257 1.542,3.641 2.017,6.987 2.018,9.753 0,2.268 -0.32,4.143 -0.638,5.438 -2.244,-0.517 -4.401,-0.69 -6.291,-0.692 -1.676,10e-4 -3.145,0.137 -4.299,0.293 0.374,-2.037 1.168,-5.09 2.818,-8.026 1.228,-2.197 2.91,-4.321 5.225,-5.994 -0.48,-1.009 -1.981,-4.112 -2.946,-5.533 -0.738,0.15 -1.541,0.226 -2.382,0.224 -2.554,0.006 -5.386,-0.678 -7.453,-1.562 -0.77,-0.323 -1.437,-0.679 -1.928,-1.002 2.721,-0.529 5.581,-1.796 8.034,-3.831 0.013,0.011 0.023,0.023 0.036,0.035 0.919,-0.792 1.796,-1.768 2.066,-2.076 -0.006,-0.004 -0.011,-0.01 -0.016,-0.015 0.816,-0.958 1.538,-2.036 2.131,-3.22 -0.698,-0.643 -2.333,-1.31 -3.322,-1.677 -0.302,0.604 -0.652,1.169 -1.037,1.698 -0.069,0.119 -0.162,0.271 -0.162,0.271 l -0.025,-0.016 c -0.024,0.032 -0.051,0.064 -0.076,0.096 -0.019,0.029 -0.035,0.054 -0.057,0.086 -0.514,0.782 -1.671,1.742 -2.414,2.316 0.007,0.005 0.015,0.01 0.021,0.016 -1.884,1.426 -4.074,2.339 -6.046,2.688 -0.9,0.167 -1.651,0.392 -2.344,0.851 -0.343,0.231 -0.676,0.54 -0.929,0.954 -0.255,0.41 -0.4,0.924 -0.396,1.403 0.006,0.764 0.299,1.361 0.619,1.823 0.578,0.808 1.331,1.38 2.232,1.94 2.693,1.617 6.875,2.927 11.066,2.948 0.482,-0.001 0.968,-0.021 1.45,-0.061 -0.974,0.877 -1.834,1.813 -2.587,2.783 -2.564,-1.604 -7.483,-3.968 -14.24,-3.976 -0.696,0 -1.414,0.025 -2.147,0.078 -2.522,0.159 -6.162,1.095 -6.162,1.095 -1.981,0.553 -4.055,1.329 -6.207,2.361 0.435,0.769 1.037,1.943 1.364,2.59 1.916,-0.913 3.749,-1.601 5.491,-2.093 0,0 3.535,-1.021 5.896,-1.039 0.603,-0.042 1.191,-0.062 1.765,-0.063 4.526,0 8.127,1.193 10.598,2.382 0.781,0.376 1.446,0.75 1.99,1.085 -1.094,1.836 -1.885,3.692 -2.455,5.383 -0.578,1.722 -0.935,3.285 -1.156,4.519 -1.336,-0.773 -3.107,-1.944 -4.827,-3.53 -2.305,-2.133 -4.485,-4.928 -5.581,-8.519 -1.398,0.198 -5.052,0.747 -6.379,1.253 -0.408,2.22 -1.604,4.705 -3.034,6.684 -0.883,1.237 -1.845,2.288 -2.654,2.971 -0.116,0.098 -0.228,0.188 -0.335,0.271 0.116,-0.801 0.176,-1.628 0.176,-2.477 -0.001,-1.959 -0.322,-4.036 -1.032,-6.055 0.045,-0.024 0.09,-0.045 0.135,-0.07 -0.362,-0.987 -0.927,-2.061 -1.253,-2.647 -0.028,0.016 -0.058,0.03 -0.086,0.043 -0.546,-0.975 -1.199,-1.916 -1.974,-2.796 -0.178,-0.204 -0.364,-0.402 -0.556,-0.599 -0.843,0.486 -1.999,1.826 -2.646,2.627 0.14,0.143 0.275,0.288 0.407,0.435 0.379,0.428 0.719,0.883 1.027,1.354 l 0.048,-0.039 c -0.652,-0.845 0.031,-0.024 0.031,-0.024 l -0.031,0.024 c 0.042,0.053 0.087,0.111 0.139,0.179 0.88,1.128 1.679,3.827 1.679,3.827 0,0 -0.031,0.035 -0.081,0.086 0.316,1.227 0.467,2.468 0.466,3.655 0,0.733 -0.057,1.441 -0.163,2.104 -0.072,0.452 -0.112,0.875 -0.112,1.286 0.007,0.752 0.114,1.507 0.619,2.242 0.25,0.359 0.621,0.681 1.034,0.876 0.415,0.2 0.847,0.273 1.232,0.272 0.784,-0.009 1.398,-0.253 1.983,-0.552 1.014,-0.54 1.974,-1.348 2.949,-2.361 1.451,-1.521 2.887,-3.51 4,-5.733 0.623,-1.253 1.147,-2.581 1.488,-3.947 0.522,1.268 1.15,2.442 1.848,3.521 -1.119,0.906 -2.646,2.327 -4.182,4.336 -1.745,2.281 -3.481,5.333 -4.589,9.203 l 0.021,0.013 c -0.921,4.098 -1.123,7.85 -1.123,7.85 l -0.075,0.06 c -0.007,0.279 -0.012,0.559 -0.011,0.843 -0.001,1.793 0.14,3.699 0.438,5.713 0.75,-0.186 2.044,-0.436 2.872,-0.589 -0.261,-1.817 -0.381,-3.526 -0.381,-5.124 0,-0.292 0.01,-0.572 0.019,-0.856 0.048,0.013 0.096,0.031 0.145,0.045 0.035,-0.739 0.227,-4.127 0.836,-6.727 -0.015,-0.001 -0.029,-0.001 -0.045,-0.002 0.988,-3.688 2.608,-6.529 4.223,-8.652 1.291,-1.692 2.581,-2.916 3.538,-3.707 0.021,-0.018 0.039,-0.031 0.059,-0.049 0.888,1.062 1.825,2.002 2.753,2.824 1.941,1.723 3.861,2.971 5.31,3.794 -0.784,0.677 -1.802,1.479 -3.014,2.268 -2.866,1.869 -6.765,3.622 -11.149,3.617 -0.113,0 -0.228,-0.006 -0.343,-0.01 -0.272,1.729 -0.805,5.354 -0.808,7.177 0.264,0.127 0.528,0.264 0.792,0.421 2.009,1.177 3.962,3.142 5.339,5.063 0.691,0.955 1.242,1.901 1.599,2.693 0.085,0.182 0.157,0.359 0.218,0.524 -2.205,-1.027 -4.824,-1.651 -7.582,-1.654 -0.407,0 -0.818,0.013 -1.232,0.041 -0.011,-0.056 -0.02,-0.111 -0.03,-0.167 -1.149,0.105 -2.394,0.38 -2.886,0.496 0.008,0.041 0.014,0.083 0.021,0.125 -1.249,0.31 -2.489,0.775 -3.686,1.412 0.248,0.957 1.206,2.437 1.781,3.269 0.688,-0.364 1.395,-0.652 2.112,-0.871 l -0.033,-0.084 c -0.995,0.387 -0.015,-0.036 -0.015,-0.036 l 0.015,0.036 c 0.062,-0.023 0.13,-0.051 0.21,-0.083 1.333,-0.524 4.146,-0.528 4.146,-0.528 0,0 0.03,0.05 0.076,0.13 2.078,0.069 4.077,0.586 5.674,1.36 0.867,0.411 1.636,0.676 2.516,0.687 0.724,0.021 1.655,-0.287 2.218,-0.98 0.563,-0.684 0.687,-1.439 0.688,-2.063 -0.028,-1.421 -0.571,-2.744 -1.363,-4.237 -1.208,-2.204 -3.096,-4.618 -5.421,-6.577 -1.134,-0.945 -2.38,-1.797 -3.722,-2.424 1.775,-0.027 3.457,-0.278 5.03,-0.682 0.658,1.732 2.231,5.096 5.467,8.481 1.538,1.613 3.462,3.218 5.831,4.637 -0.011,0.017 -0.022,0.034 -0.032,0.05 1.819,1.046 5.258,2.493 6.5,3.006 0.005,-0.052 0.006,-0.096 0.008,-0.14 z"
         id="path276"
         style="fill:#ffffff" />
      <path
         d="m 63.533,141.459 c -1.326,2.269 -2.148,4.789 -2.536,7.415 0.791,0.435 2.631,0.844 3.621,1.043 0.292,-2.394 0.994,-4.635 2.13,-6.577 3.131,-5.347 5.984,-7.993 8.034,-9.305 0.788,-0.502 1.459,-0.814 1.996,-1.008 0.448,-0.087 0.898,-0.192 1.353,-0.317 0.061,-0.005 0.102,-0.005 0.123,-0.006 l 0.007,0 0.001,-0.03 c 2.265,-0.641 4.606,-1.759 6.962,-3.42 2.794,-1.967 4.905,-4.138 6.451,-6.397 -1.578,-0.68 -2.969,-1.42 -3.392,-1.649 -1.251,1.715 -2.937,3.4 -5.204,5 -1.997,1.403 -3.889,2.312 -5.659,2.832 -0.428,0.06 -0.961,0.172 -1.579,0.372 -0.661,0.116 -1.299,0.176 -1.92,0.191 -0.948,-2.216 -1.707,-4.318 -2.308,-6.314 -0.908,0.076 -2.246,0.239 -2.96,0.329 0.521,1.791 1.159,3.652 1.934,5.591 -2.132,-0.579 -3.962,-1.748 -5.409,-3.271 -0.28,-0.295 -0.543,-0.605 -0.791,-0.925 l -0.007,0.004 c -2.181,-2.604 -2.309,-4.519 -2.309,-4.519 l 0.107,-0.058 c -0.188,-0.793 -0.29,-1.59 -0.288,-2.371 0.008,-2.168 0.71,-4.18 2.307,-5.849 0.484,-0.494 0.949,-0.865 1.407,-1.144 -0.099,-1.083 0.018,-2.614 0.206,-4.122 -1.527,0.439 -3.012,1.326 -4.299,2.683 -2.304,2.387 -3.354,5.433 -3.346,8.432 0.004,1.906 0.406,3.804 1.148,5.583 -0.053,0.06 -0.102,0.125 -0.155,0.186 0.383,1.075 1.575,2.67 2.098,3.342 0.017,-0.021 0.03,-0.045 0.047,-0.066 0.362,0.481 0.751,0.943 1.168,1.384 1.983,2.104 4.613,3.726 7.666,4.439 -2.043,1.863 -4.295,4.576 -6.604,8.522 z"
         id="path278"
         style="fill:#ffffff" />
      <path
         d="m 64.472,151.682 c 0,-0.007 0.001,-0.014 0.001,-0.02 -1.615,-0.303 -3.652,-1.312 -3.652,-1.312 -0.801,-0.304 -1.619,-0.622 -2.452,-0.952 l -1.261,3.507 c 1.264,0.5 2.494,0.972 3.687,1.413 0,0 2.781,0.861 3.886,1.4 0,-0.009 -0.003,-0.019 -0.003,-0.026 3.978,1.345 7.523,2.338 10.692,3.051 l -1.051,-4.008 c -3,-0.738 -6.072,-1.733 -9.847,-3.053 z"
         id="path280"
         style="fill:#ffffff" />
      <path
         d="m 119.236,157.394 c -0.565,0.001 -1.129,0.046 -1.695,0.19 -1.515,0.384 -2.815,0.624 -3.729,0.764 -0.251,0.039 -0.469,0.069 -0.658,0.096 0.02,-0.396 0.033,-0.793 0.033,-1.188 -0.003,-5.142 -1.705,-10.199 -5.021,-14.034 -3.306,-3.836 -8.293,-6.372 -14.447,-6.356 -1.567,0 -3.211,0.16 -4.922,0.495 -4.702,0.912 -8.178,3.013 -10.417,5.766 -2.241,2.75 -3.21,6.071 -3.207,9.279 0,0.848 0.067,1.688 0.195,2.515 0,0 0.514,2.52 1.071,4.057 0.034,0.008 0.068,0.016 0.103,0.023 0.386,0.892 0.85,1.74 1.383,2.534 1.746,2.591 4.31,4.611 7.458,5.195 1.034,0.191 2.026,0.284 2.974,0.284 4.126,0.02 7.362,-1.832 9.455,-4.354 2.112,-2.522 3.23,-5.634 3.707,-8.498 l -3.248,-0.969 -0.27,-0.139 0,0 c 0,0 -0.001,0.002 -0.002,0.003 -0.013,0.025 -0.12,0.215 -0.386,0.504 -0.857,0.91 -3.358,2.957 -10.198,2.978 -1.706,0.001 -4.428,-0.134 -6.697,-0.455 l 2.176,3.93 c 1.643,0.172 3.146,0.25 4.521,0.25 3.665,10e-4 6.434,-0.554 8.5,-1.337 -0.289,0.474 -0.607,0.92 -0.956,1.332 -1.563,1.819 -3.559,3.005 -6.604,3.027 -0.706,0 -1.469,-0.069 -2.298,-0.221 -1.819,-0.332 -3.492,-1.493 -4.783,-3.245 0.02,0.003 0.038,0.005 0.058,0.008 -1.078,-1.27 -1.988,-4.081 -1.988,-4.081 -0.291,-1.08 -0.448,-2.212 -0.446,-3.342 0.003,-2.479 0.733,-4.914 2.371,-6.925 1.644,-2.007 4.226,-3.671 8.244,-4.462 1.492,-0.293 2.893,-0.427 4.206,-0.427 5.146,0.014 8.959,2.011 11.631,5.072 2.661,3.064 4.112,7.271 4.11,11.593 0,3.337 -0.86,6.724 -2.634,9.691 -1.775,2.968 -4.448,5.531 -8.182,7.279 -4.235,1.976 -8.118,2.81 -11.625,2.811 -6.869,-0.008 -12.426,-3.188 -16.389,-7.896 -2.844,-3.381 -4.794,-7.557 -5.662,-11.765 -0.978,-0.315 -3.056,-1.008 -4.021,-1.499 0.192,1.527 0.511,3.055 0.947,4.56 -1.448,-0.938 -3.542,-2.068 -6.241,-2.949 -0.651,-0.212 -1.263,-0.388 -1.847,-0.545 -2.197,-0.388 -5.154,-1.085 -5.154,-1.085 0,0 0.021,-0.051 0.056,-0.131 -1.601,-0.45 -2.918,-1.015 -4.53,-2.349 -0.726,-0.608 -1.235,-1.379 -1.625,-2.316 l 0,0 c -0.993,0.713 -1.629,1.962 -1.918,2.64 0.439,0.696 0.98,1.35 1.667,1.923 1.625,1.367 3.202,2.146 4.763,2.664 -0.097,0.097 2.747,0.544 4.048,1.091 0.02,-0.024 0.04,-0.044 0.059,-0.067 1.099,0.247 2.262,0.529 3.575,0.958 2.467,0.805 4.367,1.847 5.638,2.678 0.635,0.416 1.114,0.779 1.427,1.032 0.157,0.125 0.271,0.226 0.344,0.289 0.036,0.033 0.182,0.108 0.197,0.122 0.012,0.011 -0.109,-0.042 -0.109,-0.042 l 1.453,0.714 c 1.171,2.853 2.07,4.072 4.079,6.473 4.509,5.397 11.157,9.228 19.221,9.228 0.008,0 0.016,0 0.023,0 4.104,0 8.541,-0.984 13.202,-3.162 4.396,-2.05 7.668,-5.16 9.805,-8.743 1.39,-2.33 2.305,-4.853 2.777,-7.423 0.558,-0.058 2.653,-0.301 5.459,-1.013 0.243,-0.063 0.575,-0.1 0.973,-0.098 0.561,-0.009 1.23,0.066 1.976,0.17 -0.263,-0.821 -0.712,-2.266 -0.862,-3.042 -0.375,-0.036 -0.747,-0.057 -1.114,-0.06 z"
         id="path282"
         style="fill:#ffffff" />
      <path
         d="m 118.709,111.103 c -0.976,-2.963 -2.289,-5.424 -3.815,-7.453 -1.09,1.269 -2.116,2.31 -2.587,2.773 1.106,1.59 2.081,3.509 2.864,5.852 0.752,2.269 1.074,4.311 1.074,6.128 0,0.039 0,0.077 -0.001,0.116 -0.058,0.376 -0.104,0.841 -0.103,1.391 -0.001,0.07 0,0.14 0,0.212 -0.06,0.508 -0.148,0.992 -0.259,1.462 -2.355,0.293 -4.557,0.444 -6.613,0.472 -0.183,0.771 -0.424,2.094 -0.573,2.931 1.887,-0.003 3.883,-0.107 5.988,-0.321 -0.611,1.078 -1.375,2.013 -2.246,2.813 -1.2,1.097 -2.622,1.917 -4.121,2.448 -2.881,1.113 -4.587,0.716 -4.587,0.716 l -0.006,-0.026 c -1.463,-0.073 -2.858,-0.431 -4.068,-1.067 -1.366,-0.722 -2.509,-1.777 -3.339,-3.251 -0.453,-0.811 -0.694,-1.534 -0.794,-2.201 -1.094,-0.156 -2.486,-0.656 -3.766,-1.203 -0.009,0.154 -0.018,0.31 -0.018,0.467 -0.002,1.556 0.436,3.176 1.33,4.761 1.182,2.112 2.897,3.7 4.855,4.725 1.959,1.029 4.153,1.513 6.362,1.513 0.519,0 1.041,-0.027 1.56,-0.081 0.027,0.044 0.057,0.089 0.085,0.134 1.076,0 2.961,-0.656 3.843,-0.989 -0.011,-0.014 -0.024,-0.028 -0.035,-0.044 1.883,-0.691 3.663,-1.743 5.208,-3.145 1.128,-1.022 2.122,-2.239 2.92,-3.629 1.19,2.498 3.137,5.446 6.245,8.792 1.842,1.979 4.081,3.53 6.559,4.67 0.727,-0.662 1.812,-2.116 2.447,-3.002 -2.457,-0.989 -4.615,-2.401 -6.273,-4.2 -5.824,-6.297 -6.858,-10.534 -6.968,-12.584 0.046,-0.457 0.076,-0.922 0.088,-1.396 0.014,-0.059 0.025,-0.096 0.03,-0.113 0.002,-0.007 0.002,-0.007 0.002,-0.007 l -0.029,-0.011 c 10e-4,-0.116 0.002,-0.232 0.002,-0.35 0.001,-2.26 -0.399,-4.701 -1.261,-7.303 z"
         id="path284"
         style="fill:#ffffff" />
      <path
         d="m 134.172,137.457 -2.332,3.111 c -0.523,0.679 -1.065,1.372 -1.624,2.073 l 2.979,2.234 c 0.849,-1.071 1.661,-2.118 2.432,-3.137 l 2.439,-3.318 c 2.427,-3.401 4.398,-6.491 5.992,-9.306 l -4.316,0 c -1.518,2.531 -3.355,5.305 -5.57,8.343 z"
         id="path286"
         style="fill:#ffffff" />
      <path
         d="m 161.246,96.437 c -1.123,-0.894 -2.32,-1.666 -3.568,-2.322 0.167,-0.964 0.414,-2.64 0.537,-4.752 0.02,-0.425 0.203,-1.069 0.524,-1.828 0.063,-0.152 0.133,-0.311 0.206,-0.472 -0.908,-0.016 -2.379,-0.057 -3.102,-0.166 -0.282,0.74 -0.5,1.492 -0.551,2.296 -0.088,1.51 -0.245,2.782 -0.381,3.689 -2.543,-0.937 -5.222,-1.422 -7.88,-1.422 -4.605,-0.002 -9.183,1.453 -12.78,4.557 -3.603,3.097 -6.134,7.827 -6.748,14.01 -0.082,0.805 -0.122,1.585 -0.122,2.341 -0.016,5.248 1.97,9.327 4.941,11.94 2.33,2.062 5.187,3.241 8.084,3.653 l 4.331,0.051 c 1.731,-0.208 3.403,-0.687 4.918,-1.447 2.077,-1.042 3.872,-2.637 4.971,-4.767 1.165,-2.258 1.705,-4.453 1.704,-6.506 0.003,-3.095 -1.228,-5.774 -2.948,-7.855 -1.727,-2.09 -3.935,-3.646 -6.114,-4.722 l -1.869,2.831 -0.206,0.219 c 0.067,0.096 1.31,1.313 1.327,4.854 0.015,2.71 -0.791,6.851 -3.65,12.755 1.572,-0.092 3.676,-0.62 4.481,-0.834 2.162,-5.057 2.883,-8.941 2.896,-11.921 0.002,-0.404 -0.012,-0.79 -0.035,-1.158 0.1,0.114 0.199,0.229 0.294,0.345 1.298,1.585 2.094,3.384 2.098,5.486 -0.001,1.405 -0.358,2.986 -1.29,4.797 -0.682,1.324 -1.832,2.39 -3.333,3.146 -0.365,0.184 -0.752,0.348 -1.154,0.492 -1.957,0.782 -4.464,0.67 -4.464,0.67 -2.736,-0.085 -5.507,-1.04 -7.569,-2.876 -2.16,-1.937 -3.67,-4.808 -3.688,-9.153 0,-0.624 0.034,-1.28 0.102,-1.966 0.555,-5.394 2.641,-9.108 5.476,-11.563 2.837,-2.449 6.512,-3.651 10.347,-3.652 4.168,-0.003 8.479,1.44 11.893,4.166 3.415,2.732 5.955,6.696 6.716,11.921 0.237,1.641 0.348,3.2 0.348,4.679 -0.018,7.816 -3.056,13.363 -7.528,17.136 -4.477,3.76 -10.495,5.656 -16.299,5.652 -0.991,0.002 -1.973,-0.055 -2.938,-0.164 l -2.366,3.415 c 1.593,0.289 3.226,0.445 4.871,0.469 -1.262,1.117 -2.812,2.72 -4.303,4.88 -0.643,0.932 -1.171,1.797 -1.636,2.6 -0.003,-0.003 -0.005,-0.005 -0.007,-0.008 -0.985,1.857 -2.201,3.933 -2.201,3.933 0,0 -0.016,-0.013 -0.038,-0.032 -0.825,1.249 -1.728,2.268 -3.324,3.339 -0.885,0.588 -1.911,0.855 -3.07,0.927 0.316,1.156 1.277,2.149 1.887,2.685 0.957,-0.214 1.908,-0.578 2.804,-1.173 1.625,-1.073 2.766,-2.247 3.669,-3.475 0.025,0.048 0.052,0.095 0.077,0.144 0,0 1.206,-2.71 2.114,-3.77 0.604,-1.087 1.255,-2.234 2.134,-3.508 1.473,-2.136 3.014,-3.661 4.172,-4.643 0.58,-0.492 1.063,-0.847 1.395,-1.074 0.166,-0.115 0.292,-0.197 0.376,-0.248 0.04,-0.025 0.07,-0.044 0.086,-0.054 0.016,-0.009 0.016,-0.009 0.016,-0.009 l -0.397,-0.694 c 5.516,-0.595 10.984,-2.667 15.371,-6.336 5.272,-4.395 8.879,-11.175 8.86,-19.992 0,-1.666 -0.126,-3.403 -0.386,-5.21 -0.884,-6.164 -3.976,-11.042 -8.081,-14.306 z"
         id="path288"
         style="fill:#ffffff" />
      <path
         d="m 141.229,67.464 c 0,0 1.655,1.974 2.357,3.327 0.443,0.64 0.889,1.297 1.342,1.973 l 3.071,-2.108 c -0.761,-1.136 -1.511,-2.229 -2.246,-3.274 0.024,-0.041 0.045,-0.082 0.069,-0.122 -1.188,-1.281 -2.486,-3.216 -2.486,-3.216 -2.403,-3.221 -4.664,-5.951 -6.786,-8.27 -0.221,1.043 -0.702,2.898 -1.486,3.926 1.922,2.202 3.978,4.769 6.165,7.764 z"
         id="path290"
         style="fill:#ffffff" />
      <path
         d="m 102.244,32.726 c 1.167,0.461 2.161,0.914 2.933,1.291 -3.065,3.882 -4.834,8.663 -4.839,13.496 -0.002,3.517 0.957,7.063 3.055,10.2 2.094,3.137 5.31,5.834 9.678,7.732 2.737,1.191 5.333,1.742 7.733,1.741 4.68,0.01 8.514,-2.123 11.043,-5.114 0.902,-1.063 1.653,-2.232 2.249,-3.46 0.041,0.044 0.081,0.09 0.12,0.135 0.165,-0.562 0.72,-2.427 1.325,-4.056 -0.032,-0.034 -0.064,-0.071 -0.097,-0.103 0.198,-1.005 0.3,-2.019 0.302,-3.022 0.002,-3.073 -0.969,-6.13 -3.19,-8.361 -2.876,-2.903 -6.145,-4.177 -9.224,-4.162 -2.291,10e-4 -4.433,0.663 -6.318,1.65 -1.887,0.99 -3.531,2.304 -4.876,3.7 l 2.123,2.639 0.144,0.268 c 0.002,0 0.032,-0.016 0.105,-0.045 0.226,-0.09 0.809,-0.284 1.793,-0.286 1.928,0.003 5.513,0.752 10.875,5.021 0.958,0.763 1.973,1.642 3.04,2.646 0.291,-0.818 0.966,-2.826 1.076,-4.054 -0.611,-0.538 -1.209,-1.039 -1.792,-1.504 -4.018,-3.21 -7.38,-4.771 -10.047,-5.429 1.255,-0.558 2.566,-0.88 3.877,-0.879 2.091,0.015 4.257,0.76 6.587,3.069 1.225,1.222 1.924,2.971 2.066,4.973 l 0.141,0.112 c 0,0 0.002,0.11 0,0.3 -0.008,0.886 -0.107,3.512 -0.98,4.922 l -0.025,-0.027 c -0.505,1.275 -1.216,2.491 -2.111,3.538 -1.954,2.274 -4.659,3.793 -8.207,3.803 -1.831,0 -3.91,-0.417 -6.245,-1.432 -3.809,-1.661 -6.4,-3.894 -8.068,-6.386 -1.665,-2.495 -2.425,-5.28 -2.427,-8.13 -0.006,-4.468 1.916,-9.084 5.208,-12.539 3.297,-3.457 7.889,-5.746 13.302,-5.75 1.073,0 2.178,0.091 3.318,0.282 7.42,1.259 12.403,4.399 15.619,8.42 3.212,4.022 4.67,9.021 4.67,14.072 0.001,3.88 -0.871,7.772 -2.432,11.179 0.604,0.628 1.999,1.849 2.875,2.601 0.641,-1.261 1.196,-2.579 1.657,-3.94 0.686,1.497 1.718,3.354 3.237,5.311 0.764,0.982 1.495,1.813 2.173,2.547 -0.012,0.005 -0.023,0.011 -0.035,0.015 0.966,1.005 2.046,2.211 2.708,2.96 0.017,-0.006 0.032,-0.011 0.048,-0.017 0.186,0.224 0.361,0.446 0.528,0.672 0.028,0.033 0.049,0.055 0.049,0.055 0,0 -0.005,0.003 -0.007,0.003 0.723,0.988 1.285,2.057 1.736,3.599 0.137,0.475 0.198,0.949 0.198,1.438 0.004,0.655 -0.116,1.345 -0.315,2.051 1.16,0.132 2.401,-0.388 3.151,-0.788 0.058,-0.412 0.09,-0.833 0.092,-1.264 0,-0.735 -0.095,-1.491 -0.312,-2.249 -0.498,-1.751 -1.208,-3.125 -2.031,-4.302 0.21,-0.037 0.024,-0.168 0.024,-0.168 0,0 -1.98,-1.826 -2.783,-3.037 0,0.001 0,0.001 -0.002,0.001 -0.917,-0.967 -1.885,-1.993 -2.912,-3.315 -1.592,-2.048 -2.583,-3.977 -3.169,-5.378 -0.293,-0.701 -0.487,-1.27 -0.604,-1.654 -0.059,-0.192 -0.1,-0.338 -0.122,-0.432 -0.012,-0.046 -0.029,-0.115 -0.029,-0.115 l -0.577,0.124 c 0.378,-1.932 0.579,-3.912 0.579,-5.898 0.002,-5.757 -1.668,-11.613 -5.483,-16.397 -3.807,-4.786 -9.747,-8.405 -17.913,-9.77 -1.339,-0.226 -2.654,-0.334 -3.936,-0.334 -6.149,-0.003 -11.488,2.5 -15.361,6.264 -0.896,-0.462 -2.23,-1.103 -3.892,-1.76 -0.233,-0.089 -0.521,-0.258 -0.844,-0.49 -0.237,0.47 -0.875,1.717 -1.393,2.595 0.366,0.243 0.75,0.453 1.161,0.622 z"
         id="path292"
         style="fill:#ffffff" />
      <path
         d="m 31.288,65.095 c 0.02,0.062 0.03,0.133 0.033,0.208 0.543,-0.357 1.048,-0.761 1.491,-1.253 0.784,-0.896 1.511,-1.651 2.11,-2.24 0.801,1.276 1.717,2.467 2.736,3.55 3.784,4.019 8.979,6.622 14.584,6.626 5.076,0.014 10.394,-2.193 14.953,-7.096 3.523,-3.761 5.084,-7.81 5.078,-11.578 -0.003,-4.165 -1.853,-7.847 -4.5,-10.523 0.038,-0.016 0.079,-0.032 0.116,-0.048 -1.434,-1.364 -3.688,-2.663 -3.688,-2.663 l 0.025,-0.021 c -2.148,-1.236 -4.53,-1.951 -6.932,-1.959 -1.552,0 -3.112,0.313 -4.56,1.003 -2.749,1.304 -4.731,3.093 -5.975,5.142 -1.248,2.046 -1.742,4.3 -1.74,6.468 0.004,2.916 0.858,5.705 2.02,8.033 l 3.195,-1.122 0.303,-0.05 c -10e-4,0 -10e-4,-0.002 -10e-4,-0.002 -0.001,-0.006 -0.001,-0.015 -0.003,-0.037 -0.003,-0.036 -0.006,-0.095 -0.006,-0.176 0.003,-0.403 0.079,-1.333 0.772,-2.694 1.037,-2.034 3.517,-5.091 9.454,-8.473 0.58,-0.331 1.195,-0.664 1.841,-1 -0.947,-0.71 -2.595,-1.91 -3.488,-2.35 -2.215,1.25 -4.039,2.487 -5.542,3.688 -2.235,1.79 -3.758,3.508 -4.783,5.067 -0.024,-0.297 -0.036,-0.592 -0.035,-0.886 0.002,-1.619 0.356,-3.148 1.197,-4.531 0.845,-1.379 2.19,-2.662 4.395,-3.715 0.905,-0.431 1.898,-0.64 2.957,-0.641 0.013,0 0.026,0 0.039,0 0.813,0 1.666,0.139 2.521,0.388 l 0.052,-0.019 c 0,0 0.069,0.032 0.188,0.087 0.007,0.002 0.012,0.004 0.019,0.006 -10e-4,0 -10e-4,0 -0.003,10e-4 0.661,0.309 2.777,1.326 3.95,2.168 0.002,-0.001 0.005,-0.002 0.008,-0.003 0.034,0.027 0.066,0.056 0.1,0.084 0.201,0.15 0.367,0.293 0.486,0.425 0.08,0.074 0.161,0.145 0.239,0.222 2.197,2.114 3.657,4.988 3.653,8.129 -0.007,2.746 -1.076,5.808 -4.074,9.036 -3.997,4.26 -8.222,5.901 -12.229,5.913 -4.422,0.004 -8.692,-2.079 -11.872,-5.455 -3.177,-3.373 -5.205,-7.989 -5.202,-12.888 0.002,-2.969 0.733,-6.054 2.429,-9.111 2.663,-4.791 5.85,-8.024 9.253,-10.083 3.405,-2.056 7.046,-2.953 10.696,-2.955 0.008,-0.001 0.016,-0.001 0.025,-0.001 5.792,0 11.604,2.325 16.042,5.947 0.459,0.374 0.902,0.762 1.33,1.161 1.08,-0.402 2.746,-0.919 3.973,-1.288 -0.913,-0.979 -1.899,-1.904 -2.95,-2.761 -0.098,-0.08 -0.2,-0.155 -0.297,-0.233 1.319,-0.233 2.829,-0.601 4.458,-1.181 1.467,-0.523 2.687,-1.071 3.764,-1.575 l -0.03,-0.246 c 1.486,-0.577 3.54,-1.252 4.609,-1.598 0.001,-0.009 0,-0.019 0.001,-0.027 0.091,-0.023 0.186,-0.041 0.278,-0.062 0.273,-0.086 0.435,-0.137 0.435,-0.137 0,0 0.002,0.02 0.006,0.047 0.611,-0.109 1.262,-0.173 2.005,-0.175 0.171,0 0.344,0.003 0.522,0.011 0.95,0.037 1.824,0.336 2.705,0.839 0.598,0.341 1.187,0.778 1.767,1.267 0.643,-0.953 0.728,-2.279 0.696,-3.164 C 95.479,23.6 93.81,22.799 91.835,22.723 91.618,22.714 91.403,22.71 91.198,22.71 c -0.855,-0.002 -1.64,0.072 -2.378,0.197 0.037,-0.199 -0.204,-0.042 -0.204,-0.042 0,0 -2.381,1.05 -3.821,1.326 -1.717,0.764 -3.37,1.65 -5.648,2.462 -3.135,1.118 -5.772,1.355 -7.224,1.383 -4.304,-2.49 -9.275,-3.989 -14.375,-3.995 -4.264,-0.002 -8.615,1.068 -12.624,3.493 C 40.912,29.96 37.267,33.725 34.34,39 c -1.999,3.594 -2.9,7.333 -2.896,10.919 0,3.265 0.74,6.394 2.033,9.218 -0.731,0.689 -1.744,1.7 -2.87,2.986 -0.234,0.277 -0.667,0.605 -1.235,0.946 0.821,0.769 1.821,1.744 1.916,2.026 z"
         id="path294"
         style="fill:#ffffff" />
      <path
         d="m 78.496,39.021 c 0.014,0.021 0.027,0.044 0.042,0.065 0.688,-0.244 2.449,-0.833 3.798,-0.96 -0.033,-0.056 -0.065,-0.113 -0.1,-0.169 0.833,-0.226 1.69,-0.45 2.566,-0.672 l -0.986,-3.592 c -1.343,0.342 -2.641,0.688 -3.888,1.037 l -3.952,1.164 c -3.597,1.115 -6.743,2.257 -9.508,3.405 l 2.225,3.115 c 2.816,-1.137 6.06,-2.275 9.803,-3.393 z"
         id="path296"
         style="fill:#ffffff" />
      <path
         d="m 31.143,82.391 -3.721,-0.218 c -0.118,1.377 -0.219,2.713 -0.3,4.001 -0.058,0.022 -0.115,0.046 -0.172,0.067 l -0.16,4.062 -0.065,0.084 c 0.065,-0.03 0.13,-0.064 0.197,-0.095 -0.052,1.509 -0.078,2.952 -0.078,4.332 0,2.059 0.058,3.976 0.161,5.766 l 3.672,-1.113 c -0.069,-1.456 -0.107,-3.002 -0.107,-4.653 0,-1.69 0.041,-3.49 0.124,-5.396 l -0.051,-0.02 c 0,0 -0.096,-2.515 0.292,-4.188 0.061,-0.855 0.131,-1.733 0.208,-2.629 z"
         id="path298"
         style="fill:#ffffff" />
      <path
         d="m 32.751,138.178 c 0.821,0 1.635,-0.051 2.444,-0.138 0.285,0.674 1.098,2.503 2.465,4.802 0.256,0.417 0.49,1.198 0.66,2.179 0.062,0.343 0.119,0.709 0.175,1.093 0.608,-0.426 1.889,-1.312 2.679,-1.759 -0.193,-1.06 -0.46,-2.077 -0.998,-3.011 -0.801,-1.346 -1.4,-2.523 -1.795,-3.358 -0.081,-0.171 -0.152,-0.323 -0.214,-0.464 3.475,-0.844 6.707,-2.474 9.358,-4.752 3.99,-3.419 6.67,-8.384 6.665,-14.161 0.001,-3.313 -0.876,-6.856 -2.781,-10.476 -1.72,-3.273 -3.894,-5.643 -6.312,-7.177 -2.416,-1.537 -5.056,-2.217 -7.604,-2.214 -2.389,0.005 -4.694,0.581 -6.763,1.566 -0.003,-0.056 -0.005,-0.114 -0.009,-0.17 -1.759,0.918 -3.734,2.66 -3.734,2.66 l -0.014,-0.033 c -2.788,2.423 -4.726,5.76 -4.737,9.436 0,0.363 0.019,0.727 0.06,1.094 0.457,4.4 2.489,7.594 5.2,9.471 2.702,1.889 5.914,2.537 8.878,2.541 0.887,0 1.756,-0.061 2.591,-0.167 l -0.003,-3.391 0.05,-0.297 0,0 c -0.119,-0.048 -2.044,-0.409 -4.157,-3.901 -1.354,-2.258 -2.746,-5.888 -3.562,-11.578 -0.998,0.686 -2.688,1.882 -3.361,2.577 0.997,5.529 2.569,9.221 4.239,11.724 0.205,0.308 0.41,0.596 0.616,0.866 -1.149,-0.303 -2.228,-0.77 -3.151,-1.422 -1.839,-1.317 -3.228,-3.3 -3.635,-6.828 -0.025,-0.231 -0.038,-0.458 -0.038,-0.687 -0.01,-1.615 0.631,-3.31 1.77,-4.827 0.002,0.013 0.005,0.026 0.007,0.039 0.569,-0.595 2.952,-3.045 4.051,-3.496 l 0.005,0.027 c 1.744,-0.93 3.723,-1.481 5.699,-1.476 1.901,0.003 3.799,0.489 5.606,1.633 1.806,1.147 3.542,2.973 5.011,5.766 1.66,3.156 2.352,6.086 2.354,8.741 -0.006,4.609 -2.084,8.499 -5.369,11.335 -3.281,2.829 -7.768,4.513 -12.344,4.508 -4.9,-0.01 -9.867,-1.874 -13.828,-6.304 -4.987,-5.606 -6.911,-11.153 -6.92,-16.288 -0.004,-6.396 3.064,-12.297 7.616,-16.619 1.778,-1.692 3.778,-3.12 5.879,-4.239 -0.04,-1.136 0.003,-2.883 0.049,-4.177 -1.287,0.578 -2.544,1.252 -3.755,2.02 0.27,-1.421 0.469,-3.131 0.47,-5.074 -0.002,-1.74 -0.131,-3.199 -0.257,-4.481 0.028,0.008 0.058,0.017 0.086,0.024 -0.207,-2.1 -0.34,-4.536 -0.34,-4.536 0,0 0.027,0.003 0.068,0.008 0.089,-0.987 0.313,-1.993 0.793,-3.2 0.353,-0.879 0.929,-1.602 1.698,-2.262 0.388,-0.335 0.826,-0.646 1.294,-0.94 -0.887,-0.663 -2.118,-1.147 -3.009,-1.441 -1.11,0.91 -2.1,2.055 -2.702,3.556 -0.491,1.222 -0.777,2.357 -0.925,3.436 -0.088,-0.051 -0.171,-0.103 -0.259,-0.154 l 0.095,0.093 c 0,0 0.49,2.926 0.318,4.31 l -0.162,0.035 c 0.148,1.676 0.377,3.392 0.374,5.553 0,2.595 -0.401,4.724 -0.798,6.191 -0.199,0.733 -0.396,1.301 -0.539,1.676 -0.008,0.024 -0.017,0.046 -0.025,0.068 -0.311,0.272 -0.618,0.548 -0.918,0.833 -5.155,4.892 -8.771,11.707 -8.777,19.321 -0.008,6.099 2.364,12.614 7.864,18.768 4.65,5.227 10.728,7.55 16.571,7.55 0.011,-0.002 0.024,-0.002 0.037,-0.002 z"
         id="path300"
         style="fill:#ffffff" />
      <path
         d="m 39.346,88.727 c 6.593,1.603 9.985,3.813 11.708,5.464 0.459,0.442 0.803,0.845 1.059,1.192 0.21,0.4 0.438,0.799 0.686,1.194 0.008,0.022 0.015,0.042 0.021,0.057 0.015,0.044 0.021,0.07 0.022,0.073 l 0.032,-0.009 c 1.262,1.986 3.002,3.91 5.271,5.681 2.59,2.041 5.184,3.415 7.706,4.256 0.189,-1.444 0.434,-2.83 0.605,-3.736 -1.919,-0.712 -3.924,-1.817 -6.01,-3.449 -1.914,-1.514 -3.329,-3.061 -4.337,-4.603 -0.182,-0.399 -0.446,-0.886 -0.824,-1.432 -0.202,-0.405 -0.375,-0.81 -0.527,-1.21 1.829,-1.582 3.605,-2.945 5.33,-4.123 -0.254,-0.705 -0.785,-1.952 -1.139,-2.77 -1.608,1.071 -3.25,2.29 -4.922,3.672 -0.027,-0.312 -0.044,-0.623 -0.046,-0.93 -0.003,-2.782 1.038,-5.4 2.692,-7.446 0.009,0.006 0.018,0.013 0.026,0.02 1.708,-2.289 3.23,-2.856 3.23,-2.856 l 0.016,0.016 c 1.499,-0.87 3.138,-1.357 4.748,-1.353 1.255,0.001 2.501,0.281 3.73,0.911 0.721,0.372 1.268,0.778 1.697,1.208 2.152,-0.904 5.777,-1.357 6.979,-1.488 0.071,-1.965 0.454,-4.123 1.269,-6.503 0.793,-2.307 1.794,-4.152 2.921,-5.612 0.314,-0.301 0.684,-0.706 1.069,-1.236 0.441,-0.454 0.897,-0.857 1.362,-1.217 2.028,1.208 3.847,2.433 5.482,3.667 0.7,-0.584 1.705,-1.492 2.236,-1.977 -1.462,-1.128 -3.061,-2.246 -4.809,-3.343 1.357,-0.528 2.757,-0.771 4.151,-0.773 1.419,-0.002 2.826,0.256 4.135,0.726 -0.001,0.008 -0.004,0.015 -0.007,0.021 2.175,0.715 3.255,1.665 3.588,2.003 0.039,0.032 0.079,0.063 0.118,0.096 2.072,1.768 3.33,4.11 3.33,6.734 0,0.382 -0.025,0.771 -0.081,1.167 -0.095,0.626 -0.236,1.159 -0.417,1.625 1.564,1.792 3.16,5.298 3.622,6.353 1.837,-0.559 3.938,-0.898 6.381,-0.927 0.088,0 0.168,-0.002 0.251,-0.002 2.33,0.005 4.319,0.327 6.01,0.881 0.389,0.195 0.896,0.408 1.526,0.596 0.307,0.141 0.598,0.29 0.881,0.448 -0.428,2.313 -0.943,4.432 -1.531,6.379 0.617,0.435 2.574,1.506 3.316,1.91 0.559,-1.755 1.059,-3.631 1.488,-5.64 1.668,1.952 2.563,4.346 2.749,6.761 l 0.061,0.005 c 0.188,2.586 -0.358,4.145 -0.626,4.738 0,0 0.001,0 0.002,0 -0.32,0.966 -0.761,1.867 -1.313,2.661 -1.237,1.774 -2.956,3.029 -5.212,3.497 -0.529,0.105 -1.011,0.154 -1.453,0.154 -0.059,0 -0.114,-0.005 -0.172,-0.007 -0.692,1.136 -1.606,2.308 -2.485,3.335 0.82,0.253 1.698,0.397 2.622,0.397 0.012,0 0.023,0 0.035,0 0.71,0 1.441,-0.077 2.196,-0.229 3.248,-0.657 5.837,-2.563 7.534,-5.029 1.002,-1.453 1.712,-3.097 2.13,-4.83 l -0.072,-0.006 c 0.04,-0.045 0.077,-0.101 0.112,-0.165 0.02,-0.087 0.043,-0.174 0.061,-0.262 0.021,-0.005 0.042,-0.012 0.061,-0.017 0.355,-1.01 0.336,-3.023 0.303,-3.975 -0.011,0.004 -0.022,0.009 -0.034,0.013 -0.145,-3.464 -1.412,-6.995 -3.97,-9.808 2.741,-0.372 6.134,-1.328 10.276,-3.265 2.425,-1.137 4.567,-2.78 6.398,-4.773 -0.345,-0.985 -1.06,-2.802 -1.884,-3.515 -1.728,2.139 -3.794,3.84 -6.093,4.913 -5.272,2.465 -8.99,3.107 -11.437,3.107 -1.162,0 -2.042,-0.143 -2.682,-0.313 -0.416,-0.182 -0.846,-0.35 -1.289,-0.504 -0.004,-0.004 -0.008,-0.006 -0.012,-0.009 -0.051,-0.03 -0.082,-0.051 -0.095,-0.06 -0.004,-0.002 -0.004,-0.003 -0.004,-0.003 l -0.019,0.027 c -2.152,-0.736 -4.618,-1.143 -7.381,-1.139 -0.098,0 -0.197,10e-4 -0.299,0.003 -2.646,0.023 -5.025,0.386 -7.152,1.004 0.656,-1.088 1.116,-2.37 1.306,-3.815 0.08,-0.568 0.117,-1.13 0.117,-1.683 0.002,-3.866 -1.889,-7.244 -4.646,-9.575 -0.465,-0.393 -0.957,-0.76 -1.469,-1.098 l -0.011,0.026 c -0.011,-0.02 -0.025,-0.038 -0.039,-0.057 -0.129,-0.086 -0.261,-0.17 -0.393,-0.251 0.003,-0.039 0.005,-0.08 0.009,-0.12 -0.901,-0.662 -2.804,-1.29 -3.651,-1.549 0,0.01 0,0.02 0,0.028 -1.498,-0.46 -3.079,-0.708 -4.689,-0.71 -1.956,-0.002 -3.96,0.372 -5.88,1.178 0.359,-1.728 0.585,-3.789 0.585,-6.232 0,-1.387 -0.074,-2.897 -0.233,-4.542 -0.235,-2.36 -0.912,-4.643 -1.94,-6.793 -1.002,-0.078 -2.568,-0.104 -4.074,0.264 1.272,2.201 2.082,4.543 2.306,6.892 0.149,1.534 0.214,2.924 0.214,4.181 -0.002,4.902 -0.987,7.759 -1.857,9.349 -0.147,0.268 -0.292,0.501 -0.429,0.702 -0.314,0.336 -0.621,0.689 -0.918,1.061 -0.026,0.021 -0.046,0.038 -0.063,0.05 l 0.012,0.015 c -1.472,1.853 -2.721,4.144 -3.659,6.888 -0.884,2.576 -1.343,5.001 -1.455,7.266 -0.823,-1.02 -1.919,-1.902 -3.263,-2.589 -1.754,-0.902 -3.616,-1.324 -5.434,-1.323 -2.995,0.005 -5.842,1.107 -8.206,2.914 l 0.002,0.001 c -0.002,10e-4 -0.005,0.002 -0.007,0.002 -0.14,0.106 -0.277,0.215 -0.414,0.326 -0.042,-0.019 -0.088,-0.036 -0.132,-0.055 -0.912,0.645 -2.105,2.228 -2.622,2.947 0.004,10e-4 0.007,0.003 0.011,0.004 -1.889,2.565 -3.067,5.756 -3.07,9.205 -10e-4,0.308 0.008,0.619 0.026,0.93 -2.37,-1.423 -5.617,-2.801 -10.056,-3.879 -1.516,-0.369 -3.07,-0.543 -4.63,-0.543 -0.881,0.002 -1.763,0.064 -2.644,0.17 -0.396,0.941 -0.904,2.403 -1.024,3.926 1.235,-0.246 2.464,-0.372 3.668,-0.37 1.286,0.001 2.543,0.145 3.752,0.438 z m 77.403,-10.581 0,0 0,0 0,0 z M 78.5,62.455 l 0.006,0.01 0,0 -0.006,-0.01 z"
         id="path302"
         style="fill:#ffffff" />
    </g>
  </g>
</svg>
