<?xml version="1.0" encoding="UTF-8" standalone="no"?>
<!-- Created with Inkscape (http://www.inkscape.org/) -->
<svg xmlns:dc="http://purl.org/dc/elements/1.1/" xmlns:cc="http://web.resource.org/cc/" xmlns:rdf="http://www.w3.org/1999/02/22-rdf-syntax-ns#" xmlns:svg="http://www.w3.org/2000/svg" xmlns="http://www.w3.org/2000/svg" xmlns:xlink="http://www.w3.org/1999/xlink" xmlns:sodipodi="http://sodipodi.sourceforge.net/DTD/sodipodi-0.dtd" xmlns:inkscape="http://www.inkscape.org/namespaces/inkscape" width="350" height="400" id="svg2" sodipodi:version="0.32" inkscape:version="0.45" sodipodi:docbase="/home/evans/Desktop" sodipodi:docname="Chrisdesign_Photorealistic_Green_Apple.svg" inkscape:output_extension="org.inkscape.output.svg.inkscape" sodipodi:modified="true" version="1.0">
  <defs id="defs4">
    <linearGradient inkscape:collect="always" id="linearGradient37696">
      <stop style="stop-color: rgb(248, 248, 248); stop-opacity: 1;" offset="0" id="stop37698"/>
      <stop style="stop-color: rgb(248, 248, 248); stop-opacity: 0;" offset="1" id="stop37700"/>
    </linearGradient>
    <linearGradient id="linearGradient33714">
      <stop style="stop-color: rgb(0, 0, 0); stop-opacity: 1;" offset="0" id="stop33716"/>
      <stop style="stop-color: rgb(0, 0, 0); stop-opacity: 0;" offset="1" id="stop33718"/>
    </linearGradient>
    <pattern inkscape:collect="always" xlink:href="#pattern30609" id="pattern30614" patternTransform="matrix(0.589994, 0, 0, 0.413556, 1.72435, 5.43911)"/>
    <pattern inkscape:collect="always" xlink:href="#pattern26663" id="pattern30609" patternTransform="matrix(0.589994, 0, 0, 0.413556, 162.616, -160.559)"/>
    <linearGradient inkscape:collect="always" id="linearGradient30593">
      <stop style="stop-color: rgb(0, 0, 0); stop-opacity: 1;" offset="0" id="stop30595"/>
      <stop style="stop-color: rgb(0, 0, 0); stop-opacity: 0;" offset="1" id="stop30597"/>
    </linearGradient>
    <linearGradient inkscape:collect="always" id="linearGradient28622">
      <stop style="stop-color: rgb(255, 255, 255); stop-opacity: 1;" offset="0" id="stop28624"/>
      <stop style="stop-color: rgb(255, 255, 255); stop-opacity: 0;" offset="1" id="stop28626"/>
    </linearGradient>
    <linearGradient inkscape:collect="always" id="linearGradient21653">
      <stop style="stop-color: rgb(255, 255, 255); stop-opacity: 1;" offset="0" id="stop21655"/>
      <stop style="stop-color: rgb(255, 255, 255); stop-opacity: 0;" offset="1" id="stop21657"/>
    </linearGradient>
    <linearGradient id="linearGradient15314">
      <stop id="stop15316" offset="0" style="stop-color: rgb(29, 51, 0); stop-opacity: 1;"/>
      <stop style="stop-color: rgb(104, 160, 44); stop-opacity: 0.236842;" offset="0.49645391" id="stop15318"/>
      <stop id="stop15320" offset="1" style="stop-color: rgb(97, 163, 52); stop-opacity: 0;"/>
    </linearGradient>
    <linearGradient inkscape:collect="always" id="linearGradient13303">
      <stop style="stop-color: rgb(255, 255, 255); stop-opacity: 1;" offset="0" id="stop13305"/>
      <stop style="stop-color: rgb(255, 255, 255); stop-opacity: 0;" offset="1" id="stop13307"/>
    </linearGradient>
    <linearGradient id="linearGradient13291">
      <stop style="stop-color: rgb(179, 255, 75); stop-opacity: 1;" offset="0" id="stop13293"/>
      <stop id="stop15283" offset="0.73758864" style="stop-color: rgb(104, 160, 44); stop-opacity: 1;"/>
      <stop style="stop-color: rgb(60, 99, 32); stop-opacity: 1;" offset="1" id="stop13295"/>
    </linearGradient>
    <linearGradient id="linearGradient8740">
      <stop style="stop-color: rgb(122, 168, 39); stop-opacity: 1;" offset="0" id="stop8742"/>
      <stop style="stop-color: rgb(163, 168, 39); stop-opacity: 0;" offset="1" id="stop8744"/>
    </linearGradient>
    <filter inkscape:collect="always" x="-0.092223659" width="1.1844473" y="-0.11882053" height="1.2376411" id="filter7541">
      <feGaussianBlur inkscape:collect="always" stdDeviation="10.987584" id="feGaussianBlur7543"/>
    </filter>
    <linearGradient inkscape:collect="always" xlink:href="#linearGradient8740" id="linearGradient8746" x1="-24.923763" y1="174.78334" x2="-28.859095" y2="272.92316" gradientUnits="userSpaceOnUse"/>
    <filter inkscape:collect="always" id="filter12154">
      <feGaussianBlur inkscape:collect="always" stdDeviation="2.9395372" id="feGaussianBlur12156"/>
    </filter>
    <filter inkscape:collect="always" id="filter13287">
      <feGaussianBlur inkscape:collect="always" stdDeviation="5.8071908" id="feGaussianBlur13289"/>
    </filter>
    <radialGradient inkscape:collect="always" xlink:href="#linearGradient13291" id="radialGradient13301" cx="-55.114441" cy="281.67221" fx="-55.114441" fy="281.67221" r="121.719" gradientTransform="matrix(0.183211, 0.969938, -0.949456, 0.179342, 248.674, 249.873)" gradientUnits="userSpaceOnUse"/>
    <linearGradient inkscape:collect="always" xlink:href="#linearGradient13303" id="linearGradient13311" x1="-47.223972" y1="206.26599" x2="-51.159306" y2="295.46683" gradientUnits="userSpaceOnUse"/>
    <clipPath clipPathUnits="userSpaceOnUse" id="clipPath14282">
      <path sodipodi:nodetypes="csssssc" id="path14284" d="M 100.84271,272.89235 C 79.36216,377.49483 35.88312,391.59016 -4.98119,389.88503 C -12.86563,389.55605 -12.51266,391.11713 -21.43087,389.98682 C -29.20653,389.00131 -42.75744,383.96677 -50.60311,384.54863 C -97.57757,388.03238 -142.59529,326.06819 -142.59529,267.06848 C -142.59529,200.52255 -98.56192,156.84221 -29.46256,155.24783 C 65.84235,153.06556 100.84271,206.34642 100.84271,272.89235 z " style="opacity: 1; color: rgb(0, 0, 0); fill: rgb(110, 168, 39); fill-opacity: 1; fill-rule: nonzero; stroke: none; stroke-width: 1px; stroke-linecap: butt; stroke-linejoin: miter; marker: none; stroke-miterlimit: 4; stroke-dashoffset: 0pt; stroke-opacity: 1; visibility: visible; display: inline; overflow: visible;"/>
    </clipPath>
    <clipPath clipPathUnits="userSpaceOnUse" id="clipPath14286">
      <path sodipodi:nodetypes="csssssc" id="path14288" d="M 95.241756,274.24608 C 74.747508,373.18713 33.264854,386.51958 -5.7231283,384.90674 C -13.245546,384.59556 -12.908783,386.07215 -21.417504,385.00302 C -28.836136,384.07085 -41.764842,379.30879 -49.25027,379.85916 C -94.067848,383.15436 -137.01853,324.54387 -137.01853,268.73742 C -137.01853,205.79317 -95.007,164.47695 -29.08041,162.96886 C 61.848474,160.90471 95.241756,211.30183 95.241756,274.24608 z " style="opacity: 1; color: rgb(0, 0, 0); fill: rgb(110, 168, 39); fill-opacity: 1; fill-rule: nonzero; stroke: none; stroke-width: 1px; stroke-linecap: butt; stroke-linejoin: miter; marker: none; stroke-miterlimit: 4; stroke-dashoffset: 0pt; stroke-opacity: 1; visibility: visible; display: inline; overflow: visible;"/>
    </clipPath>
    <clipPath clipPathUnits="userSpaceOnUse" id="clipPath14290">
      <path sodipodi:nodetypes="csssssc" id="path14292" d="M 97.161922,268.95702 C 76.144197,373.5595 33.601966,387.65483 -6.3818716,385.9497 C -14.096432,385.62072 -13.751067,387.1818 -22.477123,386.05149 C -30.085247,385.06598 -43.344186,380.03144 -51.020811,380.6133 C -96.983148,384.09705 -141.03091,322.13286 -141.03091,263.13315 C -141.03091,196.58722 -97.946289,152.90688 -30.33576,151.3125 C 62.915688,149.13023 97.161922,202.41109 97.161922,268.95702 z " style="opacity: 1; color: rgb(0, 0, 0); fill: rgb(110, 168, 39); fill-opacity: 1; fill-rule: nonzero; stroke: none; stroke-width: 1px; stroke-linecap: butt; stroke-linejoin: miter; marker: none; stroke-miterlimit: 4; stroke-dashoffset: 0pt; stroke-opacity: 1; visibility: visible; display: inline; overflow: visible;"/>
    </clipPath>
    <clipPath clipPathUnits="userSpaceOnUse" id="clipPath14294">
      <path sodipodi:nodetypes="csssssc" id="path14296" d="M 100.84271,272.89235 C 79.36216,377.49483 35.88312,391.59016 -4.98119,389.88503 C -12.86563,389.55605 -12.51266,391.11713 -21.43087,389.98682 C -29.20653,389.00131 -42.75744,383.96677 -50.60311,384.54863 C -97.57757,388.03238 -142.59529,326.06819 -142.59529,267.06848 C -142.59529,200.52255 -98.56192,156.84221 -29.46256,155.24783 C 65.84235,153.06556 100.84271,206.34642 100.84271,272.89235 z " style="opacity: 1; color: rgb(0, 0, 0); fill: rgb(110, 168, 39); fill-opacity: 1; fill-rule: nonzero; stroke: none; stroke-width: 1px; stroke-linecap: butt; stroke-linejoin: miter; marker: none; stroke-miterlimit: 4; stroke-dashoffset: 0pt; stroke-opacity: 1; visibility: visible; display: inline; overflow: visible;"/>
    </clipPath>
    <radialGradient inkscape:collect="always" xlink:href="#linearGradient13291" id="radialGradient14304" gradientUnits="userSpaceOnUse" gradientTransform="matrix(0.183211, 0.969938, -0.949456, 0.179342, 248.674, 249.873)" cx="-55.114441" cy="281.67221" fx="-55.114441" fy="281.67221" r="121.719"/>
    <linearGradient inkscape:collect="always" xlink:href="#linearGradient8740" id="linearGradient14306" gradientUnits="userSpaceOnUse" x1="-24.923763" y1="174.78334" x2="-28.859095" y2="272.92316"/>
    <linearGradient inkscape:collect="always" xlink:href="#linearGradient13303" id="linearGradient14308" gradientUnits="userSpaceOnUse" x1="-47.223972" y1="206.26599" x2="-51.159306" y2="295.46683"/>
    <radialGradient inkscape:collect="always" xlink:href="#linearGradient13291" id="radialGradient15285" gradientUnits="userSpaceOnUse" gradientTransform="matrix(0.187522, 0.978122, -0.909029, 0.174276, 237.704, 251.613)" cx="-44.642391" cy="283.90643" fx="-44.642391" fy="283.90643" r="121.719"/>
    <radialGradient inkscape:collect="always" xlink:href="#linearGradient15314" id="radialGradient15312" cx="-81.081718" cy="44.942459" fx="-81.081718" fy="44.942459" r="44.555969" gradientTransform="matrix(-0.017898, -1.17689, 2.37216, -0.03448, 134.989, 46.1346)" gradientUnits="userSpaceOnUse"/>
    <filter inkscape:collect="always" x="-0.02533951" width="1.050679" y="-0.13370194" height="1.2674038" id="filter18604">
      <feGaussianBlur inkscape:collect="always" stdDeviation="0.99192556" id="feGaussianBlur18606"/>
    </filter>
    <radialGradient inkscape:collect="always" xlink:href="#linearGradient21653" id="radialGradient21659" cx="203.99533" cy="148.6814" fx="203.99533" fy="148.6814" r="41.193069" gradientTransform="matrix(-1.33662, -0.103508, 0.0270529, -0.217599, 472.637, 188.555)" gradientUnits="userSpaceOnUse"/>
    <filter inkscape:collect="always" id="filter24623">
      <feGaussianBlur inkscape:collect="always" stdDeviation="0.21459882" id="feGaussianBlur24625"/>
    </filter>
    <pattern patternUnits="userSpaceOnUse" width="66.951949" height="59.811197" patternTransform="translate(160.892, -165.998)" id="pattern25626">
      <path sodipodi:type="arc" style="opacity: 1; color: rgb(0, 0, 0); fill: rgb(215, 235, 144); fill-opacity: 1; fill-rule: evenodd; stroke: none; stroke-width: 1.58397px; stroke-linecap: butt; stroke-linejoin: miter; marker: none; stroke-miterlimit: 4; stroke-dasharray: none; stroke-dashoffset: 0pt; stroke-opacity: 1; visibility: visible; display: inline; overflow: visible;" id="path25620" sodipodi:cx="-281.60489" sodipodi:cy="-209.70604" sodipodi:rx="2.8861411" sodipodi:ry="7.8338113" d="M -278.71875 -209.70604 A 2.8861411 7.8338113 0 1 1  -284.49103,-209.70604 A 2.8861411 7.8338113 0 1 1  -278.71875 -209.70604 z" transform="matrix(0.740922, 0, 0, 0.459741, 273.461, 101.149)"/>
      <path transform="matrix(0.740922, 0, 0, 0.459741, 210.786, 100.012)" d="M -278.71875 -209.70604 A 2.8861411 7.8338113 0 1 1  -284.49103,-209.70604 A 2.8861411 7.8338113 0 1 1  -278.71875 -209.70604 z" sodipodi:ry="7.8338113" sodipodi:rx="2.8861411" sodipodi:cy="-209.70604" sodipodi:cx="-281.60489" id="path25618" style="opacity: 1; color: rgb(0, 0, 0); fill: rgb(215, 235, 144); fill-opacity: 1; fill-rule: evenodd; stroke: none; stroke-width: 1.58397px; stroke-linecap: butt; stroke-linejoin: miter; marker: none; stroke-miterlimit: 4; stroke-dasharray: none; stroke-dashoffset: 0pt; stroke-opacity: 1; visibility: visible; display: inline; overflow: visible;" sodipodi:type="arc"/>
      <path sodipodi:type="arc" style="opacity: 1; color: rgb(0, 0, 0); fill: rgb(215, 235, 144); fill-opacity: 1; fill-rule: evenodd; stroke: none; stroke-width: 1.58397px; stroke-linecap: butt; stroke-linejoin: miter; marker: none; stroke-miterlimit: 4; stroke-dasharray: none; stroke-dashoffset: 0pt; stroke-opacity: 1; visibility: visible; display: inline; overflow: visible;" id="path25616" sodipodi:cx="-281.60489" sodipodi:cy="-209.70604" sodipodi:rx="2.8861411" sodipodi:ry="7.8338113" d="M -278.71875 -209.70604 A 2.8861411 7.8338113 0 1 1  -284.49103,-209.70604 A 2.8861411 7.8338113 0 1 1  -278.71875 -209.70604 z" transform="matrix(0.740922, 0, 0, 0.459741, 213.708, 138.656)"/>
      <path transform="matrix(0.740922, 0, 0, 0.459741, 213.708, 138.656)" d="M -278.71875 -209.70604 A 2.8861411 7.8338113 0 1 1  -284.49103,-209.70604 A 2.8861411 7.8338113 0 1 1  -278.71875 -209.70604 z" sodipodi:ry="7.8338113" sodipodi:rx="2.8861411" sodipodi:cy="-209.70604" sodipodi:cx="-281.60489" id="path25614" style="opacity: 1; color: rgb(0, 0, 0); fill: rgb(215, 235, 144); fill-opacity: 1; fill-rule: evenodd; stroke: none; stroke-width: 1.58397px; stroke-linecap: butt; stroke-linejoin: miter; marker: none; stroke-miterlimit: 4; stroke-dasharray: none; stroke-dashoffset: 0pt; stroke-opacity: 1; visibility: visible; display: inline; overflow: visible;" sodipodi:type="arc"/>
      <path sodipodi:type="arc" style="opacity: 1; color: rgb(0, 0, 0); fill: rgb(215, 235, 144); fill-opacity: 1; fill-rule: evenodd; stroke: none; stroke-width: 1.58397px; stroke-linecap: butt; stroke-linejoin: miter; marker: none; stroke-miterlimit: 4; stroke-dasharray: none; stroke-dashoffset: 0pt; stroke-opacity: 1; visibility: visible; display: inline; overflow: visible;" id="path25612" sodipodi:cx="-281.60489" sodipodi:cy="-209.70604" sodipodi:rx="2.8861411" sodipodi:ry="7.8338113" d="M -278.71875 -209.70604 A 2.8861411 7.8338113 0 1 1  -284.49103,-209.70604 A 2.8861411 7.8338113 0 1 1  -278.71875 -209.70604 z" transform="matrix(0.740922, 0, 0, 0.459741, 239.363, 152.62)"/>
      <path transform="matrix(0.740922, 0, 0, 0.459741, 222.152, 113.164)" d="M -278.71875 -209.70604 A 2.8861411 7.8338113 0 1 1  -284.49103,-209.70604 A 2.8861411 7.8338113 0 1 1  -278.71875 -209.70604 z" sodipodi:ry="7.8338113" sodipodi:rx="2.8861411" sodipodi:cy="-209.70604" sodipodi:cx="-281.60489" id="path25610" style="opacity: 1; color: rgb(0, 0, 0); fill: rgb(215, 235, 144); fill-opacity: 1; fill-rule: evenodd; stroke: none; stroke-width: 1.58397px; stroke-linecap: butt; stroke-linejoin: miter; marker: none; stroke-miterlimit: 4; stroke-dasharray: none; stroke-dashoffset: 0pt; stroke-opacity: 1; visibility: visible; display: inline; overflow: visible;" sodipodi:type="arc"/>
      <path sodipodi:type="arc" style="opacity: 1; color: rgb(0, 0, 0); fill: rgb(215, 235, 144); fill-opacity: 1; fill-rule: evenodd; stroke: none; stroke-width: 1.58397px; stroke-linecap: butt; stroke-linejoin: miter; marker: none; stroke-miterlimit: 4; stroke-dasharray: none; stroke-dashoffset: 0pt; stroke-opacity: 1; visibility: visible; display: inline; overflow: visible;" id="path25608" sodipodi:cx="-281.60489" sodipodi:cy="-209.70604" sodipodi:rx="2.8861411" sodipodi:ry="7.8338113" d="M -278.71875 -209.70604 A 2.8861411 7.8338113 0 1 1  -284.49103,-209.70604 A 2.8861411 7.8338113 0 1 1  -278.71875 -209.70604 z" transform="matrix(0.740922, 0, 0, 0.459741, 228.159, 135.734)"/>
      <path transform="matrix(0.740922, 0, 0, 0.459741, 238.551, 107.156)" d="M -278.71875 -209.70604 A 2.8861411 7.8338113 0 1 1  -284.49103,-209.70604 A 2.8861411 7.8338113 0 1 1  -278.71875 -209.70604 z" sodipodi:ry="7.8338113" sodipodi:rx="2.8861411" sodipodi:cy="-209.70604" sodipodi:cx="-281.60489" id="path25606" style="opacity: 1; color: rgb(0, 0, 0); fill: rgb(215, 235, 144); fill-opacity: 1; fill-rule: evenodd; stroke: none; stroke-width: 1.58397px; stroke-linecap: butt; stroke-linejoin: miter; marker: none; stroke-miterlimit: 4; stroke-dasharray: none; stroke-dashoffset: 0pt; stroke-opacity: 1; visibility: visible; display: inline; overflow: visible;" sodipodi:type="arc"/>
      <path sodipodi:type="arc" style="opacity: 1; color: rgb(0, 0, 0); fill: rgb(215, 235, 144); fill-opacity: 1; fill-rule: evenodd; stroke: none; stroke-width: 1.58397px; stroke-linecap: butt; stroke-linejoin: miter; marker: none; stroke-miterlimit: 4; stroke-dasharray: none; stroke-dashoffset: 0pt; stroke-opacity: 1; visibility: visible; display: inline; overflow: visible;" id="path25604" sodipodi:cx="-281.60489" sodipodi:cy="-209.70604" sodipodi:rx="2.8861411" sodipodi:ry="7.8338113" d="M -278.71875 -209.70604 A 2.8861411 7.8338113 0 1 1  -284.49103,-209.70604 A 2.8861411 7.8338113 0 1 1  -278.71875 -209.70604 z" transform="matrix(0.740922, 0, 0, 0.459741, 244.559, 124.368)"/>
      <path transform="matrix(0.740922, 0, 0, 0.459741, 256.087, 139.955)" d="M -278.71875 -209.70604 A 2.8861411 7.8338113 0 1 1  -284.49103,-209.70604 A 2.8861411 7.8338113 0 1 1  -278.71875 -209.70604 z" sodipodi:ry="7.8338113" sodipodi:rx="2.8861411" sodipodi:cy="-209.70604" sodipodi:cx="-281.60489" id="path25602" style="opacity: 1; color: rgb(0, 0, 0); fill: rgb(215, 235, 144); fill-opacity: 1; fill-rule: evenodd; stroke: none; stroke-width: 1.58397px; stroke-linecap: butt; stroke-linejoin: miter; marker: none; stroke-miterlimit: 4; stroke-dasharray: none; stroke-dashoffset: 0pt; stroke-opacity: 1; visibility: visible; display: inline; overflow: visible;" sodipodi:type="arc"/>
      <path sodipodi:type="arc" style="opacity: 1; color: rgb(0, 0, 0); fill: rgb(215, 235, 144); fill-opacity: 1; fill-rule: evenodd; stroke: none; stroke-width: 1.58397px; stroke-linecap: butt; stroke-linejoin: miter; marker: none; stroke-miterlimit: 4; stroke-dasharray: none; stroke-dashoffset: 0pt; stroke-opacity: 1; visibility: visible; display: inline; overflow: visible;" id="path25600" sodipodi:cx="-281.60489" sodipodi:cy="-209.70604" sodipodi:rx="2.8861411" sodipodi:ry="7.8338113" d="M -278.71875 -209.70604 A 2.8861411 7.8338113 0 1 1  -284.49103,-209.70604 A 2.8861411 7.8338113 0 1 1  -278.71875 -209.70604 z" transform="matrix(0.740922, 0, 0, 0.459741, 269.239, 131.187)"/>
      <path transform="matrix(0.740922, 0, 0, 0.459741, 261.77, 113.976)" d="M -278.71875 -209.70604 A 2.8861411 7.8338113 0 1 1  -284.49103,-209.70604 A 2.8861411 7.8338113 0 1 1  -278.71875 -209.70604 z" sodipodi:ry="7.8338113" sodipodi:rx="2.8861411" sodipodi:cy="-209.70604" sodipodi:cx="-281.60489" id="path20550" style="opacity: 1; color: rgb(0, 0, 0); fill: rgb(215, 235, 144); fill-opacity: 1; fill-rule: evenodd; stroke: none; stroke-width: 1.58397px; stroke-linecap: butt; stroke-linejoin: miter; marker: none; stroke-miterlimit: 4; stroke-dasharray: none; stroke-dashoffset: 0pt; stroke-opacity: 1; visibility: visible; display: inline; overflow: visible;" sodipodi:type="arc"/>
    </pattern>
    <pattern patternUnits="userSpaceOnUse" width="55.732779" height="46.659165" patternTransform="translate(163.814, -152.846)" id="pattern26663">
      <path transform="matrix(0.740922, 0, 0, 0.459741, 262.242, 100.965)" d="M -278.71875 -209.70604 A 2.8861411 7.8338113 0 1 1  -284.49103,-209.70604 A 2.8861411 7.8338113 0 1 1  -278.71875 -209.70604 z" sodipodi:ry="7.8338113" sodipodi:rx="2.8861411" sodipodi:cy="-209.70604" sodipodi:cx="-281.60489" id="path26661" style="opacity: 1; color: rgb(0, 0, 0); fill: rgb(215, 235, 144); fill-opacity: 1; fill-rule: evenodd; stroke: none; stroke-width: 1.58397px; stroke-linecap: butt; stroke-linejoin: miter; marker: none; stroke-miterlimit: 4; stroke-dasharray: none; stroke-dashoffset: 0pt; stroke-opacity: 1; visibility: visible; display: inline; overflow: visible;" sodipodi:type="arc"/>
      <path transform="matrix(0.740922, 0, 0, 0.459741, 253.164, 126.803)" d="M -278.71875 -209.70604 A 2.8861411 7.8338113 0 1 1  -284.49103,-209.70604 A 2.8861411 7.8338113 0 1 1  -278.71875 -209.70604 z" sodipodi:ry="7.8338113" sodipodi:rx="2.8861411" sodipodi:cy="-209.70604" sodipodi:cx="-281.60489" id="path26657" style="opacity: 1; color: rgb(0, 0, 0); fill: rgb(215, 235, 144); fill-opacity: 1; fill-rule: evenodd; stroke: none; stroke-width: 1.58397px; stroke-linecap: butt; stroke-linejoin: miter; marker: none; stroke-miterlimit: 4; stroke-dasharray: none; stroke-dashoffset: 0pt; stroke-opacity: 1; visibility: visible; display: inline; overflow: visible;" sodipodi:type="arc"/>
      <path sodipodi:type="arc" style="opacity: 1; color: rgb(0, 0, 0); fill: rgb(215, 235, 144); fill-opacity: 1; fill-rule: evenodd; stroke: none; stroke-width: 1.58397px; stroke-linecap: butt; stroke-linejoin: miter; marker: none; stroke-miterlimit: 4; stroke-dasharray: none; stroke-dashoffset: 0pt; stroke-opacity: 1; visibility: visible; display: inline; overflow: visible;" id="path26655" sodipodi:cx="-281.60489" sodipodi:cy="-209.70604" sodipodi:rx="2.8861411" sodipodi:ry="7.8338113" d="M -278.71875 -209.70604 A 2.8861411 7.8338113 0 1 1  -284.49103,-209.70604 A 2.8861411 7.8338113 0 1 1  -278.71875 -209.70604 z" transform="matrix(0.740922, 0, 0, 0.459741, 241.636, 111.216)"/>
      <path transform="matrix(0.740922, 0, 0, 0.459741, 219.229, 100.012)" d="M -278.71875 -209.70604 A 2.8861411 7.8338113 0 1 1  -284.49103,-209.70604 A 2.8861411 7.8338113 0 1 1  -278.71875 -209.70604 z" sodipodi:ry="7.8338113" sodipodi:rx="2.8861411" sodipodi:cy="-209.70604" sodipodi:cx="-281.60489" id="path26649" style="opacity: 1; color: rgb(0, 0, 0); fill: rgb(215, 235, 144); fill-opacity: 1; fill-rule: evenodd; stroke: none; stroke-width: 1.58397px; stroke-linecap: butt; stroke-linejoin: miter; marker: none; stroke-miterlimit: 4; stroke-dasharray: none; stroke-dashoffset: 0pt; stroke-opacity: 1; visibility: visible; display: inline; overflow: visible;" sodipodi:type="arc"/>
      <path sodipodi:type="arc" style="opacity: 1; color: rgb(0, 0, 0); fill: rgb(215, 235, 144); fill-opacity: 1; fill-rule: evenodd; stroke: none; stroke-width: 1.58397px; stroke-linecap: butt; stroke-linejoin: miter; marker: none; stroke-miterlimit: 4; stroke-dasharray: none; stroke-dashoffset: 0pt; stroke-opacity: 1; visibility: visible; display: inline; overflow: visible;" id="path26647" sodipodi:cx="-281.60489" sodipodi:cy="-209.70604" sodipodi:rx="2.8861411" sodipodi:ry="7.8338113" d="M -278.71875 -209.70604 A 2.8861411 7.8338113 0 1 1  -284.49103,-209.70604 A 2.8861411 7.8338113 0 1 1  -278.71875 -209.70604 z" transform="matrix(0.740922, 0, 0, 0.459741, 236.44, 139.468)"/>
      <path transform="matrix(0.740922, 0, 0, 0.459741, 210.786, 125.504)" d="M -278.71875 -209.70604 A 2.8861411 7.8338113 0 1 1  -284.49103,-209.70604 A 2.8861411 7.8338113 0 1 1  -278.71875 -209.70604 z" sodipodi:ry="7.8338113" sodipodi:rx="2.8861411" sodipodi:cy="-209.70604" sodipodi:cx="-281.60489" id="path26645" style="opacity: 1; color: rgb(0, 0, 0); fill: rgb(215, 235, 144); fill-opacity: 1; fill-rule: evenodd; stroke: none; stroke-width: 1.58397px; stroke-linecap: butt; stroke-linejoin: miter; marker: none; stroke-miterlimit: 4; stroke-dasharray: none; stroke-dashoffset: 0pt; stroke-opacity: 1; visibility: visible; display: inline; overflow: visible;" sodipodi:type="arc"/>
      <path sodipodi:type="arc" style="opacity: 1; color: rgb(0, 0, 0); fill: rgb(215, 235, 144); fill-opacity: 1; fill-rule: evenodd; stroke: none; stroke-width: 1.58397px; stroke-linecap: butt; stroke-linejoin: miter; marker: none; stroke-miterlimit: 4; stroke-dasharray: none; stroke-dashoffset: 0pt; stroke-opacity: 1; visibility: visible; display: inline; overflow: visible;" id="path26643" sodipodi:cx="-281.60489" sodipodi:cy="-209.70604" sodipodi:rx="2.8861411" sodipodi:ry="7.8338113" d="M -278.71875 -209.70604 A 2.8861411 7.8338113 0 1 1  -284.49103,-209.70604 A 2.8861411 7.8338113 0 1 1  -278.71875 -209.70604 z" transform="matrix(0.740922, 0, 0, 0.459741, 210.786, 125.504)"/>
    </pattern>
    <clipPath clipPathUnits="userSpaceOnUse" id="clipPath29604">
      <path sodipodi:nodetypes="ccscssc" id="path29606" d="M 214.7035,131.11718 L 220.7805,131.36252 C 218.24621,133.08292 225.61431,96.01338 236.79475,88.623123 C 241.62695,85.429034 235.59151,76.308077 232.97417,77.689778 C 232.97417,77.689778 226.50397,82.360861 225.74403,85.783757 C 224.9841,89.206643 219.02497,103.38716 217.6128,113.62948 C 216.20062,123.8718 215.05025,128.51732 214.7035,131.11718 z " style="fill: rgb(55, 42, 7); fill-opacity: 1; fill-rule: evenodd; stroke: none; stroke-width: 1px; stroke-linecap: butt; stroke-linejoin: miter; stroke-opacity: 1;"/>
    </clipPath>
    <linearGradient inkscape:collect="always" xlink:href="#linearGradient28622" id="linearGradient29608" gradientUnits="userSpaceOnUse" x1="220.90099" y1="99.833923" x2="225.37206" y2="101.95313"/>
    <filter inkscape:collect="always" id="filter30589">
      <feGaussianBlur inkscape:collect="always" stdDeviation="0.5767807" id="feGaussianBlur30591"/>
    </filter>
    <linearGradient inkscape:collect="always" xlink:href="#linearGradient30593" id="linearGradient30599" x1="211.02544" y1="147.26143" x2="243.94995" y2="109.28474" gradientUnits="userSpaceOnUse" gradientTransform="translate(-0.134796, -0.808775)"/>
    <clipPath clipPathUnits="userSpaceOnUse" id="clipPath30603">
      <path sodipodi:nodetypes="cscc" id="path30605" d="M 172.54666,119.65383 C 172.54666,119.65383 192.66287,134.89283 226.62458,131.41512 C 260.77261,127.89569 267.40899,121.36033 267.40899,121.36033 C 295.93157,89.77874 131.21095,96.219036 172.54666,119.65383 z " style="fill: url(&quot;#radialGradient30607&quot;) rgb(0, 0, 0); fill-opacity: 1; fill-rule: evenodd; stroke: none; stroke-width: 1px; stroke-linecap: butt; stroke-linejoin: miter; stroke-opacity: 1;"/>
    </clipPath>
    <radialGradient inkscape:collect="always" xlink:href="#linearGradient15314" id="radialGradient30607" gradientUnits="userSpaceOnUse" gradientTransform="matrix(-0.0146025, -0.960198, 1.93539, -0.0281315, 127.596, 52.0179)" cx="-81.081718" cy="44.942459" fx="-81.081718" fy="44.942459" r="44.555969"/>
    <pattern patternUnits="userSpaceOnUse" width="39.501228" height="24.735281" patternTransform="translate(160.892, -165.998)" id="pattern30611">
      <rect id="rect26672" y="5.4391022" x="1.72435" height="19.296179" width="32.881989" style="fill: url(&quot;#pattern30614&quot;) rgb(0, 0, 0); stroke: none;"/>
      <rect id="rect25640" y="0" x="0" height="24.735281" width="39.501228" style="fill: none; stroke: none;"/>
    </pattern>
    <filter inkscape:collect="always" x="-0.062531874" width="1.1250638" y="-0.43876535" height="1.8775307" id="filter35726">
      <feGaussianBlur inkscape:collect="always" stdDeviation="5.1544931" id="feGaussianBlur35728"/>
    </filter>
    <linearGradient inkscape:collect="always" xlink:href="#linearGradient37696" id="linearGradient37702" x1="-134.76347" y1="343.27988" x2="-66.758102" y2="311.95261" gradientUnits="userSpaceOnUse"/>
    <filter inkscape:collect="always" x="-0.074089833" width="1.1481797" y="-0.59655094" height="2.1931019" id="filter38751">
      <feGaussianBlur inkscape:collect="always" stdDeviation="9.8808712" id="feGaussianBlur38753"/>
    </filter>
    <filter inkscape:collect="always" id="filter3417">
      <feGaussianBlur inkscape:collect="always" stdDeviation="0.95731779" id="feGaussianBlur3419"/>
    </filter>
  </defs>
  <sodipodi:namedview id="base" pagecolor="#ffffff" bordercolor="#666666" borderopacity="1.0" inkscape:pageopacity="0.0" inkscape:pageshadow="2" inkscape:zoom="1.0914067" inkscape:cx="187.48553" inkscape:cy="215.42566" inkscape:document-units="px" inkscape:current-layer="layer1" inkscape:window-width="1013" inkscape:window-height="689" inkscape:window-x="0" inkscape:window-y="25" showborder="false" height="400px" width="350px"/>
  <metadata id="metadata7">
    <rdf:RDF>
      <cc:Work rdf:about="">
        <dc:format>image/svg+xml</dc:format>
        <dc:type rdf:resource="http://purl.org/dc/dcmitype/StillImage"/>
      </cc:Work>
    </rdf:RDF>
  </metadata>
  <g inkscape:label="Ebene 1" inkscape:groupmode="layer" id="layer1" transform="translate(-72.3837, -62.7234)">
    <g id="g3421">
      <path transform="matrix(1.04786, 0, 0, 4.07545, -28.3156, -978.339)" d="M 411.79872 322.43326 A 133.36339 16.563332 0 1 1  145.07195,322.43326 A 133.36339 16.563332 0 1 1  411.79872 322.43326 z" sodipodi:ry="16.563332" sodipodi:rx="133.36339" sodipodi:cy="322.43326" sodipodi:cx="278.43533" id="path32567" style="opacity: 0.676923; color: rgb(0, 0, 0); fill: rgb(77, 77, 77); fill-opacity: 1; fill-rule: evenodd; stroke: none; stroke-width: 1.58397px; stroke-linecap: butt; stroke-linejoin: miter; marker: none; stroke-miterlimit: 4; stroke-dasharray: none; stroke-dashoffset: 0pt; stroke-opacity: 1; visibility: visible; display: inline; overflow: visible; filter: url(&quot;#filter38751&quot;);" sodipodi:type="arc"/>
      <path transform="matrix(1.22567, 0, 0, 1.55252, -21.4021, -116.738)" d="M 304.26598 314.99686 A 82.429848 11.747722 0 1 1  139.40629,314.99686 A 82.429848 11.747722 0 1 1  304.26598 314.99686 z" sodipodi:ry="11.747722" sodipodi:rx="82.429848" sodipodi:cy="314.99686" sodipodi:cx="221.83614" id="path34711" style="opacity: 1; color: rgb(0, 0, 0); fill: rgb(0, 0, 0); fill-opacity: 0.95339; fill-rule: evenodd; stroke: none; stroke-width: 1.58397px; stroke-linecap: butt; stroke-linejoin: miter; marker: none; stroke-miterlimit: 4; stroke-dasharray: none; stroke-dashoffset: 0pt; stroke-opacity: 1; visibility: visible; display: inline; overflow: visible; filter: url(&quot;#filter35726&quot;);" sodipodi:type="arc"/>
      <path transform="matrix(1.22567, 0, 0, 1.22567, 269.612, -94.7973)" clip-path="url(#clipPath14294)" sodipodi:nodetypes="csssssc" id="path2416" d="M 100.84271,272.89235 C 79.362165,377.49483 35.883125,391.59016 -4.9811852,389.88503 C -12.865625,389.55605 -12.512655,391.11713 -21.430865,389.98682 C -29.206525,389.00131 -42.757435,383.96677 -50.603105,384.54863 C -97.577565,388.03238 -142.59529,326.06819 -142.59529,267.06848 C -142.59529,200.52255 -98.561915,156.84221 -29.462555,155.24783 C 65.842355,153.06556 100.84271,206.34642 100.84271,272.89235 z " style="color: rgb(0, 0, 0); fill: url(&quot;#radialGradient15285&quot;) rgb(0, 0, 0); fill-opacity: 1; fill-rule: nonzero; stroke: url(&quot;#linearGradient37702&quot;) rgb(0, 0, 0); stroke-width: 2.1; stroke-linecap: butt; stroke-linejoin: miter; marker: none; stroke-miterlimit: 4; stroke-dasharray: none; stroke-dashoffset: 0pt; stroke-opacity: 0.300848; visibility: visible; display: inline; overflow: visible;"/>
      <path style="opacity: 0.0923077; color: rgb(0, 0, 0); fill: url(&quot;#pattern30611&quot;) rgb(0, 0, 0); fill-opacity: 1; fill-rule: nonzero; stroke: url(&quot;#pattern26663&quot;) rgb(0, 0, 0); stroke-width: 1px; stroke-linecap: butt; stroke-linejoin: miter; marker: none; stroke-miterlimit: 4; stroke-dashoffset: 0pt; stroke-opacity: 1; visibility: visible; display: inline; overflow: visible; filter: url(&quot;#filter3417&quot;);" d="M 100.84271,272.89235 C 79.362165,377.49483 35.883125,391.59016 -4.9811852,389.88503 C -12.865625,389.55605 -12.512655,391.11713 -21.430865,389.98682 C -29.206525,389.00131 -42.757435,383.96677 -50.603105,384.54863 C -97.577565,388.03238 -142.59529,326.06819 -142.59529,267.06848 C -142.59529,200.52255 -98.561915,156.84221 -29.462555,155.24783 C 65.842355,153.06556 100.84271,206.34642 100.84271,272.89235 z " id="path30619" sodipodi:nodetypes="csssssc" clip-path="url(#clipPath14294)" transform="matrix(1.22567, 0, 0, 1.22567, 269.612, -94.7973)"/>
      <path clip-path="url(#clipPath14290)" transform="matrix(1.25266, 0, 0, 1.22567, 271.501, -89.9739)" id="path6441" d="M 92.377658,214.65037 C 95.477942,226.71923 96.908908,239.69573 96.908908,253.21287 C 75.42836,357.81537 31.960718,371.918 -8.9035917,370.21287 C -16.788032,369.88392 -16.454132,371.43693 -25.372342,370.30662 C -33.148002,369.32112 -46.682922,364.28726 -54.528592,364.86912 C -83.752722,367.03645 -112.21907,343.85985 -129.55984,311.83787 C -116.43899,357.63042 -80.222062,396.52335 -42.747342,393.74412 C -34.901672,393.16226 -21.335492,398.19614 -13.559842,399.18162 C -4.6416317,400.31193 -5.0067917,398.72763 2.8776583,399.05662 C 43.741968,400.76175 87.240865,386.69033 108.72141,282.08787 C 108.72141,256.96283 103.71825,233.72235 92.377658,214.65037 z " style="opacity: 0.476923; color: rgb(0, 0, 0); fill: rgb(36, 31, 28); fill-opacity: 1; fill-rule: nonzero; stroke: none; stroke-width: 1px; stroke-linecap: butt; stroke-linejoin: miter; marker: none; stroke-miterlimit: 4; stroke-dashoffset: 0pt; stroke-opacity: 1; visibility: visible; display: inline; overflow: visible; filter: url(&quot;#filter7541&quot;);"/>
      <path clip-path="url(#clipPath14286)" transform="matrix(1.28466, 0, 0, 1.29581, 270.859, -115.69)" id="path7549" d="M -86.577286,173.47156 C -93.278028,172.55938 -97.599302,179.24646 -102.31861,183.96578 C -107.94537,189.59254 -114.41872,193.73645 -118.05993,201.01888 C -121.5423,207.98361 -125.03335,209.7186 -128.55415,216.7602 C -131.10964,221.87119 -129.86593,230.34979 -129.86593,236.43686 C -129.86593,242.99574 -129.86593,249.55463 -129.86593,256.11351 C -129.86593,264.31481 -130.53755,268.55966 -125.9306,273.16662 C -119.06171,280.03551 -120.68349,264.36044 -120.68349,258.73707 C -120.68349,250.24196 -120.2015,246.44909 -115.43638,241.68397 C -109.64874,235.89632 -101.08556,232.81643 -103.63039,242.99574 C -105.52283,250.56553 -105.20355,255.59074 -102.31861,261.36062 C -99.247792,267.50225 -96.179342,269.6509 -90.512617,263.98418 C -85.17858,258.65014 -91.909054,253.4053 -83.953731,261.36062 C -78.698481,266.61587 -75.540212,272.37501 -68.212407,270.54306 C -61.244854,268.80117 -63.115879,261.36062 -51.159305,261.36062 C -42.194365,261.36062 -43.109689,265.29595 -35.417981,265.29595 C -24.084927,265.29595 -24.597716,265.94805 -20.988433,273.16662 C -17.036074,281.07133 -13.686532,281.78029 -9.1824398,286.28439 C -3.5186371,291.94819 -0.4738832,289.03501 2.6235541,296.7786 C 4.4608316,301.3718 10.905395,290.70914 13.117771,286.28439 C 16.659243,279.20144 24.508269,274.79001 30.170872,270.54306 C 33.806482,267.81635 37.836244,273.37191 44.60042,266.60773 C 51.122616,260.08553 57.93601,265.51377 61.653521,269.23128 C 63.613827,271.19159 78.213281,269.23128 81.330177,269.23128 C 86.43268,269.23128 87.889062,260.08513 87.889062,254.80174 C 87.889062,249.11826 84.894656,242.25404 82.641954,237.74864 C 79.827039,232.11881 78.679938,224.5775 76.083069,219.38376 C 73.236943,213.6915 70.491752,208.20112 68.212406,203.64243 C 64.834638,196.88689 59.994293,194.11254 56.406413,190.52466 C 52.654479,186.77273 50.512991,182.00769 47.223974,178.71867 C 41.822716,173.31741 39.815543,172.15978 31.482649,172.15978 C 25.216405,172.15978 17.398899,171.91829 13.117771,170.84801 C 5.9495798,169.05596 3.5833287,168.70434 -2.6235541,165.6009 C -8.3519338,162.73671 -8.2967418,160.35379 -17.053102,160.35379 C -23.611987,160.35379 -30.170872,160.35379 -36.729758,160.35379 C -43.288643,160.35379 -49.847528,160.35379 -56.406413,160.35379 C -64.213911,160.35379 -67.09586,165.79613 -70.835961,169.53623 C -74.181521,172.88179 -82.165548,173.47156 -86.577286,173.47156 z " style="color: rgb(0, 0, 0); fill: url(&quot;#linearGradient14306&quot;) rgb(0, 0, 0); fill-opacity: 1; fill-rule: nonzero; stroke: none; stroke-width: 1px; stroke-linecap: butt; stroke-linejoin: miter; marker: none; stroke-miterlimit: 4; stroke-dasharray: none; stroke-dashoffset: 0pt; stroke-opacity: 1; visibility: visible; display: inline; overflow: visible; filter: url(&quot;#filter13287&quot;);"/>
      <path transform="matrix(1.22567, 0, 0, 1.22567, 269.612, -94.7973)" clip-path="url(#clipPath14282)" d="M -97.071505,237.74864 C -99.507635,240.63871 -102.43206,249.10085 -101.00684,254.80174 C -98.519205,264.75226 -99.444035,264.82834 -91.824395,270.54306 C -86.936285,274.20915 -87.174015,279.42714 -81.330175,282.34906 C -78.898515,283.56489 -78.706625,267.72821 -78.706625,265.29596 C -78.706625,261.16785 -73.459515,258.7576 -73.459515,250.86641 C -73.459515,242.03149 -73.263605,239.25632 -77.394845,235.12508 C -80.269695,232.25024 -95.139865,236.97598 -97.071505,237.74864 z M -44.600415,233.81331 C -48.251295,230.16243 -49.306045,249.09699 -48.535755,252.17819 C -46.059695,262.08239 -40.665085,258.91089 -40.665085,270.54306 C -40.665085,279.98299 -39.775635,280.61495 -35.417985,284.97261 C -31.007675,289.38291 -25.311625,288.48303 -18.364875,290.21972 C -11.034815,292.05223 -6.1549153,295.46683 1.3117747,295.46683 C 9.8459147,295.46683 14.639285,291.42663 22.300215,287.59617 C 24.558775,286.46688 28.673575,273.35214 30.170875,271.85484 C 33.509315,268.5164 27.547315,256.72267 27.547315,253.48996 C 27.547315,245.97997 28.859095,242.62368 28.859095,235.12508 C 28.859095,230.47763 17.986035,225.84793 13.117775,224.63087 C 7.4946247,223.22508 -2.4885553,225.94264 -9.1824353,225.94264 C -16.256665,225.94264 -21.634255,228.5662 -28.859095,228.5662 C -37.516515,228.5662 -37.293405,230.1598 -44.600415,233.81331 z " style="opacity: 0.357692; fill: url(&quot;#linearGradient14308&quot;) rgb(0, 0, 0); fill-opacity: 1; fill-rule: evenodd; stroke: none; stroke-width: 1px; stroke-linecap: butt; stroke-linejoin: miter; stroke-opacity: 1; filter: url(&quot;#filter12154&quot;);" id="path10686"/>
      <path sodipodi:nodetypes="cscc" id="path15302" d="M 190.08388,129.03427 C 190.08388,129.03427 214.7398,147.71232 256.3658,143.44978 C 298.22016,139.13611 306.3542,131.12588 306.3542,131.12588 C 341.31359,92.417141 139.41976,100.31085 190.08388,129.03427 z " style="fill: url(&quot;#radialGradient15312&quot;) rgb(0, 0, 0); fill-opacity: 1; fill-rule: evenodd; stroke: none; stroke-width: 1px; stroke-linecap: butt; stroke-linejoin: miter; stroke-opacity: 1;"/>
      <path transform="matrix(1.43899, 0.167911, -0.13347, 1.81032, -51.0177, -113.181)" sodipodi:nodetypes="cccc" id="path18608" d="M 207.50217,98.428603 C 207.50217,98.428603 176.95324,109.3801 189.05753,108.22731 C 211.84639,100.436 241.10071,102.09665 263.98887,109.9565 C 246.93781,95.472659 230.38212,97.191851 207.50217,98.428603 z " style="opacity: 0.184615; color: rgb(0, 0, 0); fill: rgb(255, 255, 255); fill-opacity: 1; fill-rule: evenodd; stroke: none; stroke-width: 1.58397px; stroke-linecap: butt; stroke-linejoin: miter; marker: none; stroke-miterlimit: 4; stroke-dasharray: none; stroke-dashoffset: 0pt; stroke-opacity: 1; visibility: visible; display: inline; overflow: visible; filter: url(&quot;#filter18604&quot;);"/>
      <path transform="matrix(1.72473, 0, 0, 2.18535, -131.681, -142.843)" id="path16291" d="M 186.03125,121.65625 C 179.32534,120.6125 170.65235,128.64714 178.625,133.71875 C 189.52886,139.63107 202.25532,140.84567 214.53072,140.42096 C 229.159,140.85079 244.68645,139.30649 257.15625,131.34375 C 259.97095,125.27512 253.14128,128.6125 249.5625,129.8125 C 236.58844,133.25059 222.80332,133.58985 209.37911,133.34696 C 202.35512,132.60673 194.14647,131.36332 188.28125,128.15625 C 189.55502,125.80064 189.24111,121.67724 186.03125,121.65625 z " style="opacity: 0.465385; fill: url(&quot;#radialGradient21659&quot;) rgb(0, 0, 0); fill-opacity: 1; fill-rule: evenodd; stroke: none; stroke-width: 1px; stroke-linecap: butt; stroke-linejoin: miter; stroke-opacity: 1; filter: url(&quot;#filter18604&quot;);"/>
      <path transform="matrix(1.22307, -0.0798802, 0.0798802, 1.22307, -36.6659, 0.489255)" clip-path="url(#clipPath30603)" sodipodi:nodetypes="ccsccscc" id="path29610" d="M 223.08699,127.66322 C 229.69198,116.47517 229.69198,116.47517 229.69198,116.47517 C 229.69198,116.47517 232.65749,108.65701 239.80167,105.42192 C 246.94584,102.18682 252.60727,103.13039 252.60727,103.13039 L 260.02103,109.46579 C 260.02103,109.46579 249.23737,106.76987 237.51014,118.7667 C 225.78291,130.76352 218.50394,134.94219 218.50394,134.94219 C 216.64678,132.12497 214.99542,139.8222 223.08699,127.66322 z " style="fill: url(&quot;#linearGradient30599&quot;) rgb(0, 0, 0); fill-opacity: 1; fill-rule: evenodd; stroke: none; stroke-width: 1px; stroke-linecap: butt; stroke-linejoin: miter; stroke-opacity: 1; filter: url(&quot;#filter30589&quot;);"/>
      <g transform="matrix(1.22567, 0, 0, 1.22567, -24.0456, -16.9615)" clip-path="url(#clipPath29604)" id="g29599">
        <path style="fill: rgb(55, 42, 7); fill-opacity: 1; fill-rule: evenodd; stroke: none; stroke-width: 1px; stroke-linecap: butt; stroke-linejoin: miter; stroke-opacity: 1;" d="M 214.7035,131.11718 L 220.7805,131.36252 C 218.24621,133.08292 225.61431,96.01338 236.79475,88.623123 C 241.62695,85.429034 235.59151,76.308077 232.97417,77.689778 C 232.97417,77.689778 226.50397,82.360861 225.74403,85.783757 C 224.9841,89.206643 219.02497,103.38716 217.6128,113.62948 C 216.20062,123.8718 215.05025,128.51732 214.7035,131.11718 z " id="path2419" sodipodi:nodetypes="ccscssc"/>
        <path style="fill: rgb(219, 155, 30); fill-opacity: 0.411017; fill-rule: evenodd; stroke: none; stroke-width: 1px; stroke-linecap: butt; stroke-linejoin: miter; stroke-opacity: 1; filter: url(&quot;#filter24623&quot;);" d="M 233.12929,78.205201 C 233.00104,78.299137 231.615,79.306053 230.03968,80.781983 C 228.39204,82.325684 226.75643,84.356027 226.49649,85.526865 C 226.05381,87.520744 224.40214,91.805859 222.64545,97.036177 C 220.88876,102.26649 219.03517,108.32475 218.3484,113.30585 C 217.02981,122.8695 215.85644,128.19389 215.44569,130.78489 L 218.08742,130.92374 C 218.07913,129.94349 218.87096,127.43689 219.11789,125.80676 C 219.63527,122.39116 220.65975,117.63904 222.13181,112.60672 C 223.60387,107.57439 225.51324,102.25674 227.77739,97.683623 C 230.04155,93.110509 232.64965,89.276719 235.76555,87.21711 C 236.67117,86.618492 237.01248,85.861594 237.07065,84.84058 C 237.12882,83.819566 237.06505,82.00874 236.51314,80.883298 C 235.96123,79.757857 234.92039,79.294491 234.22758,78.719554 C 233.88117,78.432086 233.55015,78.258553 233.35293,78.198409 C 233.15571,78.138264 233.14248,78.198246 233.12929,78.205201 z " id="path5464" sodipodi:nodetypes="cssssccssssssssc"/>
        <path style="opacity: 0.261538; fill: url(&quot;#linearGradient29608&quot;) rgb(0, 0, 0); fill-opacity: 1; fill-rule: evenodd; stroke: none; stroke-width: 1px; stroke-linecap: butt; stroke-linejoin: miter; stroke-opacity: 1;" d="M 233.00867,80.086464 C 231.07509,81.654488 228.76318,83.086983 227.72188,85.435419 C 223.63733,96.219912 223.76985,97.698476 221.61259,103.76166 C 220.3903,108.69017 219.53224,113.70377 218.54448,118.68423 C 217.80996,122.56054 217.0972,126.44094 216.39301,130.32287 C 217.62972,131.11865 217.20993,127.26011 217.93552,125.91339 C 219.77595,111.73178 223.26662,98.257465 228.79564,86.286484 C 230.08551,83.976629 232.40205,82.505311 234.3511,80.832431 C 234.21261,80.324188 233.34307,80.446502 233.00867,80.086464 z " id="path24627" sodipodi:nodetypes="ccccccccc"/>
      </g>
    </g>
  </g>
</svg>