<?xml version="1.0" encoding="UTF-8" standalone="no"?>
<!-- Generator: Adobe Illustrator 13.0.1, SVG Export Plug-In . SVG Version: 6.00 Build 14948)  -->
<svg xmlns:dc="http://purl.org/dc/elements/1.1/" xmlns:cc="http://web.resource.org/cc/" xmlns:rdf="http://www.w3.org/1999/02/22-rdf-syntax-ns#" xmlns:svg="http://www.w3.org/2000/svg" xmlns="http://www.w3.org/2000/svg" xmlns:sodipodi="http://sodipodi.sourceforge.net/DTD/sodipodi-0.dtd" xmlns:inkscape="http://www.inkscape.org/namespaces/inkscape" version="1.0" id="svg1923" sodipodi:docbase="/Users/johnolsen/Desktop" sodipodi:docname="emeza_Cangrejo.svg" sodipodi:version="0.32" inkscape:version="0.45.1" x="0px" y="0px" width="345.08475" height="273.85339" viewBox="29.637 -89.399 344.851 273.854" enable-background="new 29.637 -89.399 344.851 273.854" xml:space="preserve" inkscape:output_extension="org.inkscape.output.svg.inkscape"><metadata id="metadata257"><rdf:RDF><cc:Work rdf:about=""><dc:format>image/svg+xml</dc:format><dc:type rdf:resource="http://purl.org/dc/dcmitype/StillImage"/></cc:Work></rdf:RDF></metadata><defs id="defs255"/>
<sodipodi:namedview id="base" objecttolerance="10.0" gridtolerance="10.0" guidetolerance="10.0" inkscape:pageopacity="0.0" borderopacity="1.0" pagecolor="#ffffff" inkscape:zoom="1" inkscape:cx="301.05996" inkscape:cy="290.55339" inkscape:window-y="68" inkscape:window-x="120" inkscape:window-height="796" bordercolor="#666666" inkscape:window-width="1012" inkscape:current-layer="svg1923" inkscape:pageshadow="2">
	</sodipodi:namedview>
<g id="g1443" transform="translate(27.0466, -92.9022)">
	<g id="path2947" sodipodi:nodetypes="cssssss">
		<path enable-background="new    " d="M 76.491,242.766 C 73.773,243.578 71.136,248.73 70.466,257.208 C 69.797,265.688 71.638,267.191 74.148,271.491 C 76.658,275.792 79.001,277.375 79.672,277.011 C 80.341,276.646 77.623,276.117 77.831,271.004 C 78.039,265.893 80.676,269.221 80.676,261.106 C 80.675,252.989 79.212,241.954 76.491,242.766 z " id="path6" style="opacity: 0.9753; fill: rgb(115, 121, 90);"/>
		<path d="M 76.491,242.766 C 73.773,243.578 71.136,248.73 70.466,257.208 C 69.797,265.688 71.638,267.191 74.148,271.491 C 76.658,275.792 79.001,277.375 79.672,277.011 C 80.341,276.646 77.623,276.117 77.831,271.004 C 78.039,265.893 80.676,269.221 80.676,261.106 C 80.675,252.989 79.212,241.954 76.491,242.766 z " id="path8" style="fill: none; stroke: rgb(0, 0, 0); stroke-width: 0.5904;"/>
	</g>
	<g id="path2945" sodipodi:nodetypes="csssss">
		<path enable-background="new    " d="M 89.546,222.317 C 84.232,221.627 76.365,229.62 72.475,236.276 C 68.583,242.928 72.976,248.447 73.981,248.932 C 74.985,249.419 76.826,252.664 81.178,250.557 C 85.53,248.447 88.584,246.173 90.886,239.033 C 93.186,231.892 94.859,223.007 89.546,222.317 z " id="path11" style="opacity: 0.963; fill: rgb(115, 121, 90);"/>
		<path d="M 89.546,222.317 C 84.232,221.627 76.365,229.62 72.475,236.276 C 68.583,242.928 72.976,248.447 73.981,248.932 C 74.985,249.419 76.826,252.664 81.178,250.557 C 85.53,248.447 88.584,246.173 90.886,239.033 C 93.186,231.892 94.859,223.007 89.546,222.317 z " id="path13" style="fill: none; stroke: rgb(0, 0, 0); stroke-width: 0.5904;"/>
	</g>
	<g id="path2943" sodipodi:nodetypes="cssss">
		<path enable-background="new    " d="M 76.994,226.537 C 85.628,226.258 89.797,230.959 95.405,228.972 C 101.012,226.984 88.207,226.742 112.477,217.123 C 117.24,215.235 119.088,199.068 110.133,201.544 C 101.179,204.02 72.964,226.667 76.994,226.537 z " id="path16" style="opacity: 0.9835; fill: rgb(115, 121, 90);"/>
		<path d="M 76.994,226.537 C 85.628,226.258 89.797,230.959 95.405,228.972 C 101.012,226.984 88.207,226.742 112.477,217.123 C 117.24,215.235 119.088,199.068 110.133,201.544 C 101.179,204.02 72.964,226.667 76.994,226.537 z " id="path18" style="fill: none; stroke: rgb(0, 0, 0); stroke-width: 0.5904;"/>
	</g>
	<g id="path2939" sodipodi:nodetypes="cssss">
		<path enable-background="new    " d="M 106.283,220.369 C 107.4,222.178 117.203,215.5 126.2,213.228 C 135.196,210.957 140.553,212.376 142.267,211.281 C 149.568,206.618 156.453,199.23 150.804,195.214 C 145.154,191.199 91.989,197.248 106.283,220.369 z " id="path21" style="opacity: 0.9835; fill: rgb(115, 121, 90);"/>
		<path d="M 106.283,220.369 C 107.4,222.178 117.203,215.5 126.2,213.228 C 135.196,210.957 140.553,212.376 142.267,211.281 C 149.568,206.618 156.453,199.23 150.804,195.214 C 145.154,191.199 91.989,197.248 106.283,220.369 z " id="path23" style="fill: none; stroke: rgb(0, 0, 0); stroke-width: 0.5904;"/>
	</g>
	<g id="path2937" sodipodi:nodetypes="csssss">
		<path enable-background="new    " d="M 43.446,226.454 C 40.484,226.712 37.382,225.722 33.678,230.697 C 29.974,235.67 28.231,240.563 27.965,243.435 C 27.701,246.305 33.92,236.295 40.319,233.26 C 45.634,230.739 42.988,232.305 45.526,228.046 C 48.065,223.789 46.408,226.199 43.446,226.454 z " id="path26" style="opacity: 0.9918; fill: rgb(115, 121, 90);"/>
		<path d="M 43.446,226.454 C 40.484,226.712 37.382,225.722 33.678,230.697 C 29.974,235.67 28.231,240.563 27.965,243.435 C 27.701,246.305 33.92,236.295 40.319,233.26 C 45.634,230.739 42.988,232.305 45.526,228.046 C 48.065,223.789 46.408,226.199 43.446,226.454 z " id="path28" style="fill: none; stroke: rgb(0, 0, 0); stroke-width: 0.5904;"/>
	</g>
	<g id="path2935" sodipodi:nodetypes="cssss">
		<path enable-background="new    " d="M 66.051,212.249 C 64.2,209.224 58.381,212.403 51.664,215.123 C 44.947,217.84 43.095,218.098 41.085,222.303 C 39.076,226.509 37.536,234.033 41.72,232.767 C 66.632,225.227 67.902,215.275 66.051,212.249 z " id="path31" style="opacity: 0.9835; fill: rgb(115, 121, 90);"/>
		<path d="M 66.051,212.249 C 64.2,209.224 58.381,212.403 51.664,215.123 C 44.947,217.84 43.095,218.098 41.085,222.303 C 39.076,226.509 37.536,234.033 41.72,232.767 C 66.632,225.227 67.902,215.275 66.051,212.249 z " id="path33" style="fill: none; stroke: rgb(0, 0, 0); stroke-width: 0.5904;"/>
	</g>
	<g id="path2933" sodipodi:nodetypes="csssss">
		<path enable-background="new    " d="M 52.72,211.635 C 60.598,207.879 82.131,198.606 91.018,198.709 C 99.904,198.811 92.417,214.115 88.267,212.045 C 77.476,206.658 81.231,216.251 66.263,219.841 C 62.187,220.82 65.628,216.56 62.242,214.507 C 58.857,212.454 49.599,213.122 52.72,211.635 z " id="path36" style="opacity: 0.9835; fill: rgb(115, 121, 90);"/>
		<path d="M 52.72,211.635 C 60.598,207.879 82.131,198.606 91.018,198.709 C 99.904,198.811 92.417,214.115 88.267,212.045 C 77.476,206.658 81.231,216.251 66.263,219.841 C 62.187,220.82 65.628,216.56 62.242,214.507 C 58.857,212.454 49.599,213.122 52.72,211.635 z " id="path38" style="fill: none; stroke: rgb(0, 0, 0); stroke-width: 0.5904;"/>
	</g>
	<g id="path2931" sodipodi:nodetypes="csssss">
		<path enable-background="new    " d="M 81.073,197.887 C 78.9,201.786 86.922,198.083 86.574,211.018 C 86.476,214.58 109.584,206.045 124.448,200.965 C 139.312,195.887 149.097,194.5 147.088,191.937 C 143.22,187.006 114.883,197.015 97.365,195.427 C 86.814,194.47 82.131,195.989 81.073,197.887 z " id="path41" style="opacity: 0.9835; fill: rgb(115, 121, 90);"/>
		<path d="M 81.073,197.887 C 78.9,201.786 86.922,198.083 86.574,211.018 C 86.476,214.58 109.584,206.045 124.448,200.965 C 139.312,195.887 149.097,194.5 147.088,191.937 C 143.22,187.006 114.883,197.015 97.365,195.427 C 86.814,194.47 82.131,195.989 81.073,197.887 z " id="path43" style="fill: none; stroke: rgb(0, 0, 0); stroke-width: 0.5904;"/>
	</g>
	<path id="path2927" sodipodi:nodetypes="csssss" d="M 269.49,240.151 C 267.537,243.658 272.348,244.507 269.876,254.175 C 268.431,259.834 271.13,260.255 271.032,276.06 C 271.012,279.259 275.056,269.914 277.591,268.205 C 279.819,266.703 280.227,254.149 277.3,244.077 C 275.265,237.068 271.443,236.644 269.49,240.151 z " style="fill: rgb(115, 121, 90); stroke: rgb(0, 0, 0); stroke-width: 0.5904;"/>
	<g id="path2925" sodipodi:nodetypes="cssss">
		<path enable-background="new    " d="M 251.26,218.829 C 251.322,225.032 258.141,240.232 263.989,246.602 C 269.849,252.985 275.346,250.882 275.853,243.235 C 276.265,237.004 269.199,223.037 267.173,222.476 C 265.15,221.916 251.253,217.949 251.26,218.829 z " id="path47" style="opacity: 0.9671; fill: rgb(115, 121, 90);"/>
		<path d="M 251.26,218.829 C 251.322,225.032 258.141,240.232 263.989,246.602 C 269.849,252.985 275.346,250.882 275.853,243.235 C 276.265,237.004 269.199,223.037 267.173,222.476 C 265.15,221.916 251.253,217.949 251.26,218.829 z " id="path49" style="fill: none; stroke: rgb(0, 0, 0); stroke-width: 0.5904;"/>
	</g>
	<g id="path2923" sodipodi:nodetypes="cssss">
		<path enable-background="new    " d="M 240.266,202.839 C 247.427,204.733 276.121,226.486 270.934,227.246 C 257.627,229.199 260.597,228.269 254.441,228.366 C 250.721,228.428 249.451,216.584 244.027,219.388 C 240.061,221.442 233.107,200.945 240.266,202.839 z " id="path52" style="opacity: 0.9671; fill: rgb(115, 121, 90);"/>
		<path d="M 240.266,202.839 C 247.427,204.733 276.121,226.486 270.934,227.246 C 257.627,229.199 260.597,228.269 254.441,228.366 C 250.721,228.428 249.451,216.584 244.027,219.388 C 240.061,221.442 233.107,200.945 240.266,202.839 z " id="path54" style="fill: none; stroke: rgb(0, 0, 0); stroke-width: 0.5904;"/>
	</g>
	<g id="path2921" sodipodi:nodetypes="cssssss">
		<path enable-background="new    " d="M 206.707,191.336 C 207.763,191.781 251.003,205.232 245.475,211.255 C 243.159,213.781 248.153,219.252 244.03,219.952 C 239.909,220.653 236.796,216.306 226.382,213.781 C 215.97,211.253 209.312,214.13 202.658,208.45 C 193.242,200.411 189.13,186.216 189.64,181.235 C 190.14,176.257 190.113,184.347 206.707,191.336 z " id="path57" style="opacity: 0.9794; fill: rgb(115, 121, 90);"/>
		<path d="M 206.707,191.336 C 207.763,191.781 251.003,205.232 245.475,211.255 C 243.159,213.781 248.153,219.252 244.03,219.952 C 239.909,220.653 236.796,216.306 226.382,213.781 C 215.97,211.253 209.312,214.13 202.658,208.45 C 193.242,200.411 189.13,186.216 189.64,181.235 C 190.14,176.257 190.113,184.347 206.707,191.336 z " id="path59" style="fill: none; stroke: rgb(0, 0, 0); stroke-width: 0.5904;"/>
	</g>
	<g id="path2919" sodipodi:nodetypes="csss">
		<path enable-background="new    " d="M 194.918,195.934 C 196.772,202.403 205.154,211.929 207.104,210.766 C 209.054,209.604 207.048,187.782 202.713,191.283 C 198.626,194.58 193.456,190.838 194.918,195.934 z " id="path62" style="opacity: 0.9424; fill: rgb(115, 121, 90);"/>
		<path d="M 194.918,195.934 C 196.772,202.403 205.154,211.929 207.104,210.766 C 209.054,209.604 207.048,187.782 202.713,191.283 C 198.626,194.58 193.456,190.838 194.918,195.934 z " id="path64" style="fill: none; stroke: rgb(0, 0, 0); stroke-width: 0.5904;"/>
	</g>
	<g id="path2917" sodipodi:nodetypes="cssssss">
		<path enable-background="new    " d="M 37.671,195.684 C 33.911,188.774 16.795,192.767 10.51,193.603 C 4.225,194.44 13.518,194.93 11.94,195.45 C 10.361,195.968 2.826,195.132 2.886,195.795 C 2.946,196.46 7.626,197.622 17.181,198.913 C 26.799,200.213 41.111,199.204 41.363,198.684 C 43.032,195.221 38.162,196.585 37.671,195.684 z " id="path67" style="opacity: 0.9877; fill: rgb(115, 121, 90);"/>
		<path d="M 37.671,195.684 C 33.911,188.774 16.795,192.767 10.51,193.603 C 4.225,194.44 13.518,194.93 11.94,195.45 C 10.361,195.968 2.826,195.132 2.886,195.795 C 2.946,196.46 7.626,197.622 17.181,198.913 C 26.799,200.213 41.111,199.204 41.363,198.684 C 43.032,195.221 38.162,196.585 37.671,195.684 z " id="path69" style="fill: none; stroke: rgb(0, 0, 0); stroke-width: 0.5904;"/>
	</g>
	<g id="path2915" sodipodi:nodetypes="csssss">
		<path enable-background="new    " d="M 33.622,191.178 C 24.148,191.059 34.723,193.143 35.051,195.336 C 35.378,197.531 28.112,199.034 31.835,200.072 C 35.558,201.11 39.697,201.46 49.942,199.494 C 60.187,197.527 75.544,196.616 72.815,192.214 C 68.672,185.547 45.086,191.32 33.622,191.178 z " id="path72" style="opacity: 0.9877; fill: rgb(115, 121, 90);"/>
		<path d="M 33.622,191.178 C 24.148,191.059 34.723,193.143 35.051,195.336 C 35.378,197.531 28.112,199.034 31.835,200.072 C 35.558,201.11 39.697,201.46 49.942,199.494 C 60.187,197.527 75.544,196.616 72.815,192.214 C 68.672,185.547 45.086,191.32 33.622,191.178 z " id="path74" style="fill: none; stroke: rgb(0, 0, 0); stroke-width: 0.5904;"/>
	</g>
	<g id="path2913" sodipodi:nodetypes="cssss">
		<path enable-background="new    " d="M 55.3,189.331 C 48.647,186.157 80.049,182.255 87.94,183.786 C 95.833,185.315 91.877,190.236 84.606,191.64 C 76.087,193.285 69.074,199.329 62.686,196.838 C 54.631,193.692 62.39,192.707 55.3,189.331 z " id="path77" style="opacity: 0.9877; fill: rgb(115, 121, 90);"/>
		<path d="M 55.3,189.331 C 48.647,186.157 80.049,182.255 87.94,183.786 C 95.833,185.315 91.877,190.236 84.606,191.64 C 76.087,193.285 69.074,199.329 62.686,196.838 C 54.631,193.692 62.39,192.707 55.3,189.331 z " id="path79" style="fill: none; stroke: rgb(0, 0, 0); stroke-width: 0.5904;"/>
	</g>
	<g id="path2889" sodipodi:nodetypes="csssss">
		<path enable-background="new    " d="M 309.777,225.145 C 313.367,227.89 319.271,235.817 321.302,239.802 C 323.334,243.788 316.344,235.313 321.68,244.932 C 322.923,247.175 313.075,236.061 311.668,235.775 C 308.35,235.099 311.526,231.287 306.001,231.007 C 303.851,230.899 306.186,222.396 309.777,225.145 z " id="path82" style="opacity: 0.9794; fill: rgb(115, 121, 90);"/>
		<path d="M 309.777,225.145 C 313.367,227.89 319.271,235.817 321.302,239.802 C 323.334,243.788 316.344,235.313 321.68,244.932 C 322.923,247.175 313.075,236.061 311.668,235.775 C 308.35,235.099 311.526,231.287 306.001,231.007 C 303.851,230.899 306.186,222.396 309.777,225.145 z " id="path84" style="fill: none; stroke: rgb(0, 0, 0); stroke-width: 0.5904;"/>
	</g>
	<g id="path2887" sodipodi:nodetypes="csssss">
		<path enable-background="new    " d="M 290.883,211.402 C 297.259,214.838 302.221,218.135 309.586,223.129 C 315.814,227.348 308.312,221.708 309.586,233.205 C 310.039,237.274 300.473,230.826 293.716,225.88 C 286.96,220.933 282.709,218.873 282.001,215.253 C 281.292,211.632 284.3,207.856 290.883,211.402 z " id="path87" style="opacity: 0.9794; fill: rgb(115, 121, 90);"/>
		<path d="M 290.883,211.402 C 297.259,214.838 302.221,218.135 309.586,223.129 C 315.814,227.348 308.312,221.708 309.586,233.205 C 310.039,237.274 300.473,230.826 293.716,225.88 C 286.96,220.933 282.709,218.873 282.001,215.253 C 281.292,211.632 284.3,207.856 290.883,211.402 z " id="path89" style="fill: none; stroke: rgb(0, 0, 0); stroke-width: 0.5904;"/>
	</g>
	<g id="path2885" sodipodi:nodetypes="csssss">
		<path enable-background="new    " d="M 293.528,211.402 C 298.2,215.686 289.121,212.798 284.08,219.647 C 281.439,223.239 272.907,209.853 268.775,210.669 C 263.078,211.795 260.981,209.936 259.327,207.188 C 257.677,204.441 254.515,200.109 263.674,200.409 C 274.631,200.775 289.065,207.311 293.528,211.402 z " id="path92" style="opacity: 0.9794; fill: rgb(115, 121, 90);"/>
		<path d="M 293.528,211.402 C 298.2,215.686 289.121,212.798 284.08,219.647 C 281.439,223.239 272.907,209.853 268.775,210.669 C 263.078,211.795 260.981,209.936 259.327,207.188 C 257.677,204.441 254.515,200.109 263.674,200.409 C 274.631,200.775 289.065,207.311 293.528,211.402 z " id="path94" style="fill: none; stroke: rgb(0, 0, 0); stroke-width: 0.5904;"/>
	</g>
	<g id="path2881" sodipodi:nodetypes="csssssssss">
		<path enable-background="new    " d="M 203.966,187.399 C 204.107,184.926 208.263,185.659 211.146,187.399 C 214.027,189.14 214.686,192.772 217.378,192.347 C 222.899,191.478 231.124,195.047 243.831,195.462 C 256.491,195.874 267.627,195.067 268.017,196.926 C 268.249,198.028 265.137,200.228 264.05,203.888 C 262.965,207.553 265.443,211.749 260.65,211.214 C 259.86,211.126 238.965,208.373 225.694,204.802 C 212.422,201.228 216.153,202.51 210.581,197.29 C 205.004,192.073 203.824,189.874 203.966,187.399 z " id="path97" style="opacity: 0.9877; fill: rgb(115, 121, 90);"/>
		<path d="M 203.966,187.399 C 204.107,184.926 208.263,185.659 211.146,187.399 C 214.027,189.14 214.686,192.772 217.378,192.347 C 222.899,191.478 231.124,195.047 243.831,195.462 C 256.491,195.874 267.627,195.067 268.017,196.926 C 268.249,198.028 265.137,200.228 264.05,203.888 C 262.965,207.553 265.443,211.749 260.65,211.214 C 259.86,211.126 238.965,208.373 225.694,204.802 C 212.422,201.228 216.153,202.51 210.581,197.29 C 205.004,192.073 203.824,189.874 203.966,187.399 z " id="path99" style="fill: none; stroke: rgb(0, 0, 0); stroke-width: 0.5904;"/>
	</g>
	<g id="path2879">
		<path enable-background="new    " d="M 333.773,195.463 C 336.04,194.549 347.38,196.927 347.38,196.927 L 334.72,197.295 L 333.773,195.463 z " id="path102" style="opacity: 0.9177; fill: rgb(115, 121, 90);"/>
		<path d="M 333.773,195.463 C 336.04,194.549 347.38,196.927 347.38,196.927 L 334.72,197.295 L 333.773,195.463 z " id="path104" style="fill: none; stroke: rgb(0, 0, 0); stroke-width: 0.5904;"/>
	</g>
	<g id="path2875" sodipodi:nodetypes="csssssss">
		<path enable-background="new    " d="M 288.423,187.95 C 288.89,186.713 297.491,190.195 305.618,190.884 C 313.743,191.571 319.717,189.364 320.166,191.615 C 320.267,192.116 317.589,192.895 317.332,195.463 C 316.953,199.266 321.728,200.135 318.653,200.777 C 315.585,201.418 311.944,201.097 303.348,199.863 C 294.751,198.626 287.994,198.626 284.262,195.83 C 280.537,193.035 286.534,192.944 288.423,187.95 z " id="path107" style="opacity: 0.963; fill: rgb(115, 121, 90);"/>
		<path d="M 288.423,187.95 C 288.89,186.713 297.491,190.195 305.618,190.884 C 313.743,191.571 319.717,189.364 320.166,191.615 C 320.267,192.116 317.589,192.895 317.332,195.463 C 316.953,199.266 321.728,200.135 318.653,200.777 C 315.585,201.418 311.944,201.097 303.348,199.863 C 294.751,198.626 287.994,198.626 284.262,195.83 C 280.537,193.035 286.534,192.944 288.423,187.95 z " id="path109" style="fill: none; stroke: rgb(0, 0, 0); stroke-width: 0.5904;"/>
	</g>
	<path id="path2873" sodipodi:nodetypes="csssssss" d="M 263.863,184.471 C 269.247,182.592 279.172,186.197 283.323,185.02 C 287.863,183.73 290.221,188.818 295.417,189.784 C 298.081,190.277 291.781,191.981 288.992,193.997 C 286.205,196.013 288.992,198.761 284.834,198.578 C 280.676,198.394 277.843,195.599 271.987,193.997 C 266.128,192.393 264.289,196.104 262.35,193.63 C 260.415,191.157 258.478,186.348 263.863,184.471 z " style="fill: rgb(115, 121, 90); stroke: rgb(0, 0, 0); stroke-width: 0.5904;"/>
	<g id="path2871" sodipodi:nodetypes="cssssss">
		<path enable-background="new    " d="M 257.438,184.286 C 260.603,181.904 265.515,180.805 267.452,181.72 C 269.387,182.633 265.702,183.599 266.128,186.665 C 266.554,189.734 269.342,192.485 268.397,194.547 C 267.453,196.606 265.94,195.6 262.351,194.913 C 258.759,194.226 255.785,194.226 254.791,191.248 C 253.8,188.271 254.273,186.667 257.438,184.286 z " id="path113" style="opacity: 0.9547; fill: rgb(115, 121, 90);"/>
		<path d="M 257.438,184.286 C 260.603,181.904 265.515,180.805 267.452,181.72 C 269.387,182.633 265.702,183.599 266.128,186.665 C 266.554,189.734 269.342,192.485 268.397,194.547 C 267.453,196.606 265.94,195.6 262.351,194.913 C 258.759,194.226 255.785,194.226 254.791,191.248 C 253.8,188.271 254.273,186.667 257.438,184.286 z " id="path115" style="fill: none; stroke: rgb(0, 0, 0); stroke-width: 0.5904;"/>
	</g>
	<g id="path2859" sodipodi:nodetypes="cssssssssssss">
		<path enable-background="new    " d="M 130.42,178.953 C 139.616,172.124 158.398,162.543 178.939,163.397 C 199.482,164.25 208.254,172.643 212.589,182.365 C 215.352,188.564 211.331,195.202 207.693,195.083 C 204.925,194.994 205.066,192.761 200.625,197.238 C 197,200.893 194.664,200.628 188.951,199.966 C 186.173,199.644 183.616,202.851 182.784,202.053 C 177.955,197.419 175.101,199.596 172.114,199.59 C 169.125,199.582 167.046,202.875 164.805,201.299 C 160.39,198.194 159.485,200.515 157.222,199.909 C 151.222,198.305 149.49,196.486 148.318,194.411 C 147.146,192.335 146.533,189.997 142.767,187.34 C 135.232,182.028 121.226,185.78 130.42,178.953 z " id="path118" style="opacity: 0.9877; fill: rgb(115, 121, 90);"/>
		<path d="M 130.42,178.953 C 139.616,172.124 158.398,162.543 178.939,163.397 C 199.482,164.25 208.254,172.643 212.589,182.365 C 215.352,188.564 211.331,195.202 207.693,195.083 C 204.925,194.994 205.066,192.761 200.625,197.238 C 197,200.893 194.664,200.628 188.951,199.966 C 186.173,199.644 183.616,202.851 182.784,202.053 C 177.955,197.419 175.101,199.596 172.114,199.59 C 169.125,199.582 167.046,202.875 164.805,201.299 C 160.39,198.194 159.485,200.515 157.222,199.909 C 151.222,198.305 149.49,196.486 148.318,194.411 C 147.146,192.335 146.533,189.997 142.767,187.34 C 135.232,182.028 121.226,185.78 130.42,178.953 z " id="path120" style="fill: none; stroke: rgb(0, 0, 0); stroke-width: 0.5904;"/>
	</g>
	<g id="path2857" sodipodi:nodetypes="csssss">
		<path enable-background="new    " d="M 40.787,144.3 C 30.965,120.356 30.855,127.979 29.444,121.765 C 27.645,113.85 27.231,121.227 26.678,124.714 C 26.125,128.202 24.672,130.751 28.614,137.593 C 32.557,144.433 38.366,148.793 41.618,150.739 C 44.867,152.684 43.677,151.349 40.787,144.3 z " id="path123" style="opacity: 0.9918; fill: rgb(115, 121, 90);"/>
		<path d="M 40.787,144.3 C 30.965,120.356 30.855,127.979 29.444,121.765 C 27.645,113.85 27.231,121.227 26.678,124.714 C 26.125,128.202 24.672,130.751 28.614,137.593 C 32.557,144.433 38.366,148.793 41.618,150.739 C 44.867,152.684 43.677,151.349 40.787,144.3 z " id="path125" style="fill: none; stroke: rgb(0, 0, 0); stroke-width: 0.5904;"/>
	</g>
	<g id="path2855" sodipodi:nodetypes="csssssss">
		<path enable-background="new    " d="M 62.643,165.494 C 60.152,159.929 53.997,153.958 47.703,147.787 C 41.409,141.617 41.063,142.154 38.295,141.617 C 35.528,141.079 37.81,144.5 36.634,145.641 C 35.458,146.783 32.691,143.496 32.76,145.374 C 32.829,147.253 32.068,148.324 38.293,154.495 C 44.518,160.665 51.229,166.971 57.66,170.054 C 64.096,173.142 65.133,171.062 62.643,165.494 z " id="path128" style="opacity: 0.9835; fill: rgb(115, 121, 90);"/>
		<path d="M 62.643,165.494 C 60.152,159.929 53.997,153.958 47.703,147.787 C 41.409,141.617 41.063,142.154 38.295,141.617 C 35.528,141.079 37.81,144.5 36.634,145.641 C 35.458,146.783 32.691,143.496 32.76,145.374 C 32.829,147.253 32.068,148.324 38.293,154.495 C 44.518,160.665 51.229,166.971 57.66,170.054 C 64.096,173.142 65.133,171.062 62.643,165.494 z " id="path130" style="fill: none; stroke: rgb(0, 0, 0); stroke-width: 0.5904;"/>
	</g>
	<g id="path2853" sodipodi:nodetypes="csssss">
		<path enable-background="new    " d="M 79.244,178.643 C 72.051,177.365 66.932,176.161 60.985,173.009 C 55.038,169.856 54.277,169.119 55.175,166.301 C 56.073,163.481 57.32,158.436 65.412,162.276 C 78.416,168.445 83.188,168.108 89.483,172.2 C 95.774,176.294 86.437,179.916 79.244,178.643 z " id="path133" style="opacity: 0.9712; fill: rgb(115, 121, 90);"/>
		<path d="M 79.244,178.643 C 72.051,177.365 66.932,176.161 60.985,173.009 C 55.038,169.856 54.277,169.119 55.175,166.301 C 56.073,163.481 57.32,158.436 65.412,162.276 C 78.416,168.445 83.188,168.108 89.483,172.2 C 95.774,176.294 86.437,179.916 79.244,178.643 z " id="path135" style="fill: none; stroke: rgb(0, 0, 0); stroke-width: 0.5904;"/>
	</g>
	<g id="path2851" sodipodi:nodetypes="cssss">
		<path enable-background="new    " d="M 81.89,167.241 C 91.498,173.183 115.268,165.056 126.613,170.395 C 143.41,178.304 109.784,179.887 96.479,179.502 C 85.432,179.185 84.773,181.423 82.284,178.7 C 80.228,176.454 80.739,166.529 81.89,167.241 z " id="path138" style="opacity: 0.9835; fill: rgb(115, 121, 90);"/>
		<path d="M 81.89,167.241 C 91.498,173.183 115.268,165.056 126.613,170.395 C 143.41,178.304 109.784,179.887 96.479,179.502 C 85.432,179.185 84.773,181.423 82.284,178.7 C 80.228,176.454 80.739,166.529 81.89,167.241 z " id="path140" style="fill: none; stroke: rgb(0, 0, 0); stroke-width: 0.5904;"/>
	</g>
	<g id="path2849" sodipodi:nodetypes="cssssssssssss">
		<path enable-background="new    " d="M 310.912,141.628 C 312.947,136.78 312.634,133.919 314.16,131.697 C 315.686,129.48 316.849,134.476 317.017,132.75 C 317.19,131.023 315.959,127.223 316.342,126.514 C 317.1,125.091 317.636,129.263 318.165,128.876 C 319.629,127.802 318.089,123.839 318.509,123.017 C 318.936,122.195 320.135,126.255 320.813,124.529 C 321.492,122.804 320.896,116.147 321.221,116.508 C 322.876,118.343 322.001,124.223 323.463,125.65 C 325.12,127.261 323.325,134.926 321.767,139.328 C 320.913,141.732 316.619,140.64 317.152,147.62 C 317.496,152.103 309.219,152.237 307.521,150.841 C 305.826,149.438 308.878,146.479 310.912,141.628 z " id="path143" style="opacity: 0.9671; fill: rgb(115, 121, 90);"/>
		<path d="M 310.912,141.628 C 312.947,136.78 312.634,133.919 314.16,131.697 C 315.686,129.48 316.849,134.476 317.017,132.75 C 317.19,131.023 315.959,127.223 316.342,126.514 C 317.1,125.091 317.636,129.263 318.165,128.876 C 319.629,127.802 318.089,123.839 318.509,123.017 C 318.936,122.195 320.135,126.255 320.813,124.529 C 321.492,122.804 320.896,116.147 321.221,116.508 C 322.876,118.343 322.001,124.223 323.463,125.65 C 325.12,127.261 323.325,134.926 321.767,139.328 C 320.913,141.732 316.619,140.64 317.152,147.62 C 317.496,152.103 309.219,152.237 307.521,150.841 C 305.826,149.438 308.878,146.479 310.912,141.628 z " id="path145" style="fill: none; stroke: rgb(0, 0, 0); stroke-width: 0.5904;"/>
	</g>
	<g id="path2845" sodipodi:nodetypes="cssss">
		<path enable-background="new    " d="M 264.789,170.238 C 273.184,167.526 283.812,161.04 291.582,162.345 C 301.841,164.072 287.769,175.254 279.373,176.813 C 270.979,178.375 266.403,178.457 262.759,176.813 C 259.108,175.171 257.038,172.744 264.789,170.238 z " id="path148" style="opacity: 0.9877; fill: rgb(115, 121, 90);"/>
		<path d="M 264.789,170.238 C 273.184,167.526 283.812,161.04 291.582,162.345 C 301.841,164.072 287.769,175.254 279.373,176.813 C 270.979,178.375 266.403,178.457 262.759,176.813 C 259.108,175.171 257.038,172.744 264.789,170.238 z " id="path150" style="fill: none; stroke: rgb(0, 0, 0); stroke-width: 0.5904;"/>
	</g>
	<g id="path2841" sodipodi:nodetypes="csssss">
		<path enable-background="new    " d="M 221.041,167.607 C 234.353,166.373 233.254,174.14 268.181,167.608 C 271.384,167.009 267.078,176.324 268.181,179.446 C 269.52,183.239 249.359,176.734 234.266,179.446 C 223.973,181.294 223.839,173.938 214.936,172.54 C 209.609,171.705 207.73,168.84 221.041,167.607 z " id="path153" style="opacity: 0.9877; fill: rgb(115, 121, 90);"/>
		<path d="M 221.041,167.607 C 234.353,166.373 233.254,174.14 268.181,167.608 C 271.384,167.009 267.078,176.324 268.181,179.446 C 269.52,183.239 249.359,176.734 234.266,179.446 C 223.973,181.294 223.839,173.938 214.936,172.54 C 209.609,171.705 207.73,168.84 221.041,167.607 z " id="path155" style="fill: none; stroke: rgb(0, 0, 0); stroke-width: 0.5904;"/>
	</g>
	<g id="path2833" sodipodi:nodetypes="cssss">
		<path enable-background="new    " d="M 243.625,40.964 C 237.438,38.413 235.925,38.119 219.42,33.14 C 202.914,28.16 162.771,9.643 184.943,34.561 C 191.838,42.314 202.547,41.498 229.688,53.769 C 243.068,59.816 250.963,43.988 243.625,40.964 z " id="path158" style="opacity: 0.9877; fill: rgb(115, 121, 90);"/>
		<path d="M 243.625,40.964 C 237.438,38.413 235.925,38.119 219.42,33.14 C 202.914,28.16 162.771,9.643 184.943,34.561 C 191.838,42.314 202.547,41.498 229.688,53.769 C 243.068,59.816 250.963,43.988 243.625,40.964 z " id="path160" style="fill: none; stroke: rgb(0, 0, 0); stroke-width: 0.5904;"/>
	</g>
	<g id="path1932" sodipodi:nodetypes="csssss">
		<path enable-background="new    " d="M 107.182,124.189 C 96.368,142.509 118.87,120.325 91.043,118.499 C 80.685,117.819 81.307,141.39 85.708,151.529 C 90.11,161.663 95.812,164.316 108.648,166.448 C 121.486,168.584 125.704,154.244 129.921,145.53 C 134.14,136.814 116.775,107.936 107.182,124.189 z " id="path163" style="opacity: 0.9671; fill: rgb(115, 121, 90);"/>
		<path d="M 107.182,124.189 C 96.368,142.509 118.87,120.325 91.043,118.499 C 80.685,117.819 81.307,141.39 85.708,151.529 C 90.11,161.663 95.812,164.316 108.648,166.448 C 121.486,168.584 125.704,154.244 129.921,145.53 C 134.14,136.814 116.775,107.936 107.182,124.189 z " id="path165" style="fill: none; stroke: rgb(0, 0, 0); stroke-width: 0.5904;"/>
	</g>
	<g id="path2821" sodipodi:nodetypes="csssss">
		<path enable-background="new    " d="M 90.308,117.788 C 92.296,115.146 88.754,102.22 72.702,107.117 C 58.749,111.373 63.716,100.36 58.763,102.847 C 53.812,105.339 44.483,107.825 45.559,117.788 C 48.86,148.373 82.934,158.65 87.371,154.775 C 98.377,145.172 77.154,135.248 90.308,117.788 z " id="path168" style="opacity: 0.9959; fill: rgb(115, 121, 90);"/>
		<path d="M 90.308,117.788 C 92.296,115.146 88.754,102.22 72.702,107.117 C 58.749,111.373 63.716,100.36 58.763,102.847 C 53.812,105.339 44.483,107.825 45.559,117.788 C 48.86,148.373 82.934,158.65 87.371,154.775 C 98.377,145.172 77.154,135.248 90.308,117.788 z " id="path170" style="fill: none; stroke: rgb(0, 0, 0); stroke-width: 0.5904;"/>
	</g>
	<g id="path2823" sodipodi:nodetypes="cssssssss">
		<path enable-background="new    " d="M 49.228,109.251 C 46.109,101.604 45.01,102.672 51.428,85.777 C 57.847,68.882 59.315,61.413 80.038,43.096 C 101.207,24.385 141.843,27.98 148.995,32.426 C 156.147,36.87 113.783,42.384 103.514,59.456 C 95.135,73.387 105.349,66.748 99.112,75.106 C 92.878,83.463 89.576,86.13 80.039,96.447 C 70.502,106.76 68.303,112.272 60.966,116.363 C 53.629,120.454 52.347,116.897 49.228,109.251 z " id="path173" style="opacity: 0.9959; fill: rgb(115, 121, 90);"/>
		<path d="M 49.228,109.251 C 46.109,101.604 45.01,102.672 51.428,85.777 C 57.847,68.882 59.315,61.413 80.038,43.096 C 101.207,24.385 141.843,27.98 148.995,32.426 C 156.147,36.87 113.783,42.384 103.514,59.456 C 95.135,73.387 105.349,66.748 99.112,75.106 C 92.878,83.463 89.576,86.13 80.039,96.447 C 70.502,106.76 68.303,112.272 60.966,116.363 C 53.629,120.454 52.347,116.897 49.228,109.251 z " id="path175" style="fill: none; stroke: rgb(0, 0, 0); stroke-width: 0.5904;"/>
	</g>
	<g id="path2825" sodipodi:nodetypes="csssssss">
		<path enable-background="new    " d="M 83.706,42.387 C 83.889,48.255 91.591,52.346 96.91,55.189 C 102.229,58.036 97.46,61.414 104.98,53.769 C 112.501,46.121 112.866,34.385 125.521,27.449 C 138.175,20.513 155.964,27.804 155.598,26.027 C 155.231,24.249 141.11,18.914 126.255,20.337 C 111.401,21.759 107.365,28.338 96.913,34.562 C 86.459,40.786 83.524,36.517 83.706,42.387 z " id="path178" style="opacity: 0.9794; fill: rgb(115, 121, 90);"/>
		<path d="M 83.706,42.387 C 83.889,48.255 91.591,52.346 96.91,55.189 C 102.229,58.036 97.46,61.414 104.98,53.769 C 112.501,46.121 112.866,34.385 125.521,27.449 C 138.175,20.513 155.964,27.804 155.598,26.027 C 155.231,24.249 141.11,18.914 126.255,20.337 C 111.401,21.759 107.365,28.338 96.913,34.562 C 86.459,40.786 83.524,36.517 83.706,42.387 z " id="path180" style="fill: none; stroke: rgb(0, 0, 0); stroke-width: 0.5904;"/>
	</g>
	<g id="path2827" sodipodi:nodetypes="cssssss">
		<path enable-background="new    " d="M 226.018,144.105 C 228.4,133.792 222.076,121.683 238.491,120.633 C 255.179,119.565 275.718,112.275 286.906,119.923 C 298.094,127.57 291.309,138.951 285.44,147.664 C 279.571,156.379 273.384,149.034 263.43,154.78 C 253.629,160.438 245.96,172.968 228.955,161.894 C 222.816,157.894 223.636,154.422 226.018,144.105 z " id="path183" style="opacity: 0.9918; fill: rgb(115, 121, 90);"/>
		<path d="M 226.018,144.105 C 228.4,133.792 222.076,121.683 238.491,120.633 C 255.179,119.565 275.718,112.275 286.906,119.923 C 298.094,127.57 291.309,138.951 285.44,147.664 C 279.571,156.379 273.384,149.034 263.43,154.78 C 253.629,160.438 245.96,172.968 228.955,161.894 C 222.816,157.894 223.636,154.422 226.018,144.105 z " id="path185" style="fill: none; stroke: rgb(0, 0, 0); stroke-width: 0.5904;"/>
	</g>
	<g id="path2829" sodipodi:nodetypes="cssssss">
		<path enable-background="new    " d="M 262.698,146.952 C 265.083,127.569 257.444,112.169 268.566,101.427 C 280.605,89.796 276.451,71.907 286.17,72.974 C 295.888,74.041 304.328,87.556 310.377,100.005 C 316.429,112.452 312.394,112.098 308.911,122.766 C 305.425,133.436 306.161,132.546 296.436,142.685 C 286.569,152.979 261.149,159.56 262.698,146.952 z " id="path188" style="opacity: 0.9712; fill: rgb(115, 121, 90);"/>
		<path d="M 262.698,146.952 C 265.083,127.569 257.444,112.169 268.566,101.427 C 280.605,89.796 276.451,71.907 286.17,72.974 C 295.888,74.041 304.328,87.556 310.377,100.005 C 316.429,112.452 312.394,112.098 308.911,122.766 C 305.425,133.436 306.161,132.546 296.436,142.685 C 286.569,152.979 261.149,159.56 262.698,146.952 z " id="path190" style="fill: none; stroke: rgb(0, 0, 0); stroke-width: 0.5904;"/>
	</g>
	<g id="path2831" sodipodi:nodetypes="csssss">
		<path enable-background="new    " d="M 293.508,99.292 C 286.305,92.789 255.029,97.142 241.425,72.972 C 228.869,50.67 208.049,48.432 213.549,45.942 C 219.052,43.45 234.09,47.364 244.361,43.096 C 254.632,38.826 241.676,27.93 254.632,28.87 C 281.589,30.827 346.327,146.952 293.508,99.292 z " id="path193" style="opacity: 0.9877; fill: rgb(115, 121, 90);"/>
		<path d="M 293.508,99.292 C 286.305,92.789 255.029,97.142 241.425,72.972 C 228.869,50.67 208.049,48.432 213.549,45.942 C 219.052,43.45 234.09,47.364 244.361,43.096 C 254.632,38.826 241.676,27.93 254.632,28.87 C 281.589,30.827 346.327,146.952 293.508,99.292 z " id="path195" style="fill: none; stroke: rgb(0, 0, 0); stroke-width: 0.5904;"/>
	</g>
	<g id="path2835" sodipodi:nodetypes="csssss">
		<path enable-background="new    " d="M 169.535,8.243 C 174.251,11.763 191.175,13.755 203.28,17.49 C 226.182,24.557 241.608,50.034 253.161,52.346 C 264.717,54.658 260.865,41.497 250.962,30.294 C 241.057,19.092 230.053,13.045 213.548,7.533 C 197.044,2.021 162.381,2.908 169.535,8.243 z " id="path198" style="opacity: 0.9753; fill: rgb(115, 121, 90);"/>
		<path d="M 169.535,8.243 C 174.251,11.763 191.175,13.755 203.28,17.49 C 226.182,24.557 241.608,50.034 253.161,52.346 C 264.717,54.658 260.865,41.497 250.962,30.294 C 241.057,19.092 230.053,13.045 213.548,7.533 C 197.044,2.021 162.381,2.908 169.535,8.243 z " id="path200" style="fill: none; stroke: rgb(0, 0, 0); stroke-width: 0.5904;"/>
	</g>
	<g id="path2837" sodipodi:nodetypes="csssssss">
		<path enable-background="new    " d="M 222.523,25.547 C 215.962,27.835 226.34,28.886 226.753,49.5 C 226.781,50.901 230.111,42.862 235.556,49.5 C 238.123,52.629 233.996,47.572 239.936,43.741 C 257.134,32.654 249.886,30.89 256.398,30.148 C 265.993,29.055 244.585,24.688 244.014,23.46 C 243.004,21.296 232.283,13.899 225.817,11.586 C 222.018,10.223 236.262,20.758 222.523,25.547 z " id="path203" style="opacity: 0.9835; fill: rgb(115, 121, 90);"/>
		<path d="M 222.523,25.547 C 215.962,27.835 226.34,28.886 226.753,49.5 C 226.781,50.901 230.111,42.862 235.556,49.5 C 238.123,52.629 233.996,47.572 239.936,43.741 C 257.134,32.654 249.886,30.89 256.398,30.148 C 265.993,29.055 244.585,24.688 244.014,23.46 C 243.004,21.296 232.283,13.899 225.817,11.586 C 222.018,10.223 236.262,20.758 222.523,25.547 z " id="path205" style="fill: none; stroke: rgb(0, 0, 0); stroke-width: 0.5904;"/>
	</g>
	<g id="path2839" sodipodi:nodetypes="cssssssssssssssssssssssssssssssssssssssssss">
		<path enable-background="new    " d="M 96.749,135.82 C 102.217,146.992 120.805,188.397 139.58,182.855 C 201.367,164.62 190.379,185.733 209.565,183.356 C 215.978,182.561 245.739,154.995 253.928,137.288 C 262.111,119.579 249.607,121.187 245.701,115.812 C 241.798,110.437 240.448,117.379 238.309,115.792 C 236.167,114.205 240.073,111.273 236.795,107.489 C 233.523,103.702 228.984,101.139 225.21,100.651 C 221.43,100.162 223.32,106.149 221.683,105.537 C 220.046,104.925 221.432,100.894 218.661,98.209 C 215.892,95.522 209.65,93.568 206.067,97.233 C 204.697,98.633 204.554,91.982 203.045,92.347 C 201.532,92.712 202.54,98.331 200.024,98.696 C 197.503,99.062 191.712,99.062 192.972,93.81 C 194.23,88.558 204.797,79.579 204.044,79.334 C 203.287,79.09 194.857,89.658 189.945,92.834 C 185.035,96.008 186.544,91.733 185.411,90.391 C 184.277,89.047 183.145,88.681 185.411,87.459 C 187.678,86.239 193.47,86.727 194.479,85.505 C 195.485,84.284 193.306,83.401 189.781,83.89 C 186.256,84.377 183.775,85.505 180.373,87.459 C 176.975,89.414 177.855,90.391 175.841,90.391 C 173.826,90.391 173.952,87.949 172.315,87.459 C 170.677,86.971 173.321,89.901 169.293,88.437 C 165.263,86.972 158.966,82.576 156.194,81.599 C 153.423,80.622 158.84,83.797 158.21,84.531 C 157.581,85.264 151.031,83.31 153.676,84.531 C 156.321,85.752 166.648,87.218 168.789,89.416 C 170.93,91.613 165.02,88.645 162.24,93.325 C 158.66,99.35 145.364,75.008 144.103,75.251 C 142.845,75.494 155.061,89.662 157.202,94.302 C 159.343,98.943 154.808,94.913 152.667,93.814 C 150.527,92.715 149.645,89.66 148.637,89.905 C 147.631,90.15 149.645,94.302 148.637,94.791 C 147.631,95.28 146.371,91.126 144.607,91.86 C 142.845,92.592 142.958,99.156 141.585,97.722 C 138.552,94.555 131.258,95.646 128.99,98.211 C 126.724,100.774 129.116,101.874 127.479,102.606 C 125.842,103.339 120.894,97.044 108.838,112.377 C 105.704,116.364 111.609,117.384 110.854,117.751 C 110.098,118.117 107.958,112.865 105.816,113.841 C 103.674,114.818 102.983,117.346 102.29,121.657 C 100.567,132.383 94.336,130.892 96.749,135.82 z " id="path208" style="opacity: 0.9835; fill: rgb(115, 121, 90);"/>
		<path d="M 96.749,135.82 C 102.217,146.992 120.805,188.397 139.58,182.855 C 201.367,164.62 190.379,185.733 209.565,183.356 C 215.978,182.561 245.739,154.995 253.928,137.288 C 262.111,119.579 249.607,121.187 245.701,115.812 C 241.798,110.437 240.448,117.379 238.309,115.792 C 236.167,114.205 240.073,111.273 236.795,107.489 C 233.523,103.702 228.984,101.139 225.21,100.651 C 221.43,100.162 223.32,106.149 221.683,105.537 C 220.046,104.925 221.432,100.894 218.661,98.209 C 215.892,95.522 209.65,93.568 206.067,97.233 C 204.697,98.633 204.554,91.982 203.045,92.347 C 201.532,92.712 202.54,98.331 200.024,98.696 C 197.503,99.062 191.712,99.062 192.972,93.81 C 194.23,88.558 204.797,79.579 204.044,79.334 C 203.287,79.09 194.857,89.658 189.945,92.834 C 185.035,96.008 186.544,91.733 185.411,90.391 C 184.277,89.047 183.145,88.681 185.411,87.459 C 187.678,86.239 193.47,86.727 194.479,85.505 C 195.485,84.284 193.306,83.401 189.781,83.89 C 186.256,84.377 183.775,85.505 180.373,87.459 C 176.975,89.414 177.855,90.391 175.841,90.391 C 173.826,90.391 173.952,87.949 172.315,87.459 C 170.677,86.971 173.321,89.901 169.293,88.437 C 165.263,86.972 158.966,82.576 156.194,81.599 C 153.423,80.622 158.84,83.797 158.21,84.531 C 157.581,85.264 151.031,83.31 153.676,84.531 C 156.321,85.752 166.648,87.218 168.789,89.416 C 170.93,91.613 165.02,88.645 162.24,93.325 C 158.66,99.35 145.364,75.008 144.103,75.251 C 142.845,75.494 155.061,89.662 157.202,94.302 C 159.343,98.943 154.808,94.913 152.667,93.814 C 150.527,92.715 149.645,89.66 148.637,89.905 C 147.631,90.15 149.645,94.302 148.637,94.791 C 147.631,95.28 146.371,91.126 144.607,91.86 C 142.845,92.592 142.958,99.156 141.585,97.722 C 138.552,94.555 131.258,95.646 128.99,98.211 C 126.724,100.774 129.116,101.874 127.479,102.606 C 125.842,103.339 120.894,97.044 108.838,112.377 C 105.704,116.364 111.609,117.384 110.854,117.751 C 110.098,118.117 107.958,112.865 105.816,113.841 C 103.674,114.818 102.983,117.346 102.29,121.657 C 100.567,132.383 94.336,130.892 96.749,135.82 z " id="path210" style="fill: none; stroke: rgb(0, 0, 0); stroke-width: 0.5904;"/>
	</g>
	<g id="path2847" sodipodi:nodetypes="csssss">
		<path enable-background="new    " d="M 288.868,166.949 C 289.802,162.426 289.972,160.371 295.652,153.794 C 301.334,147.216 303.113,146.888 308.879,142.285 C 313.196,138.836 317.584,147.919 316.341,149.522 C 309.355,158.492 299.043,166.045 291.922,170.897 C 284.801,175.745 287.934,171.472 288.868,166.949 z " id="path213" style="opacity: 0.9918; fill: rgb(115, 121, 90);"/>
		<path d="M 288.868,166.949 C 289.802,162.426 289.972,160.371 295.652,153.794 C 301.334,147.216 303.113,146.888 308.879,142.285 C 313.196,138.836 317.584,147.919 316.341,149.522 C 309.355,158.492 299.043,166.045 291.922,170.897 C 284.801,175.745 287.934,171.472 288.868,166.949 z " id="path215" style="fill: none; stroke: rgb(0, 0, 0); stroke-width: 0.5904;"/>
	</g>
	<path id="path2861" d="M 211.216,181.907 C 211.216,181.787 211.216,181.669 211.216,181.907 z " style="fill: none; stroke: rgb(0, 0, 0); stroke-width: 0.5904;"/>
	<path id="path2863" d="M 223.397,182.622 L 226.349,192.284" style="fill: none; stroke: rgb(0, 0, 0); stroke-width: 0.5904;"/>
	<g id="path2867" sodipodi:nodetypes="csss">
		<path enable-background="new    " d="M 208.254,184.604 C 210.489,183.424 225.956,179.43 224.15,183.74 C 222.671,187.263 229.239,192.078 222.647,192.119 C 217.794,192.147 205.257,186.187 208.254,184.604 z " id="path220" style="opacity: 0.9794; fill: rgb(115, 121, 90);"/>
		<path d="M 208.254,184.604 C 210.489,183.424 225.956,179.43 224.15,183.74 C 222.671,187.263 229.239,192.078 222.647,192.119 C 217.794,192.147 205.257,186.187 208.254,184.604 z " id="path222" style="fill: none; stroke: rgb(0, 0, 0); stroke-width: 0.5904;"/>
	</g>
	<path id="path2869" sodipodi:nodetypes="csssss" d="M 221.537,183.003 C 222.258,182.622 228.669,184.535 241.188,184.652 C 245.022,184.688 262.278,179.406 261.029,184.103 C 258.861,192.238 259.766,188.83 262.163,193.997 C 262.8,195.373 238.921,193.081 223.052,192.165 C 212.527,191.559 217.342,185.233 221.537,183.003 z " style="fill: rgb(115, 121, 90); stroke: rgb(0, 0, 0); stroke-width: 0.5904;"/>
	<g id="path2877" sodipodi:nodetypes="csssss">
		<path enable-background="new    " d="M 316.958,193.08 C 322.908,191.433 335.286,193.262 340.386,193.995 C 345.489,194.728 337.22,193.812 337.365,195.094 C 337.508,196.376 344.546,196.927 339.255,198.208 C 333.961,199.49 322.296,201.141 316.393,199.49 C 310.484,197.844 311.005,194.729 316.958,193.08 z " id="path226" style="opacity: 0.9835; fill: rgb(115, 121, 90);"/>
		<path d="M 316.958,193.08 C 322.908,191.433 335.286,193.262 340.386,193.995 C 345.489,194.728 337.22,193.812 337.365,195.094 C 337.508,196.376 344.546,196.927 339.255,198.208 C 333.961,199.49 322.296,201.141 316.393,199.49 C 310.484,197.844 311.005,194.729 316.958,193.08 z " id="path228" style="fill: none; stroke: rgb(0, 0, 0); stroke-width: 0.5904;"/>
	</g>
	<g id="path2883" sodipodi:nodetypes="csssss">
		<path enable-background="new    " d="M 260.65,196.194 C 258.949,197.11 262.113,196.701 261.029,200.594 C 259.941,204.489 256.093,212.717 256.87,210.118 C 257.391,208.391 264.284,214.703 263.671,210.303 C 262.243,200.023 268.441,201.599 267.829,197.658 C 267.217,193.722 262.35,195.279 260.65,196.194 z " id="path231" style="opacity: 0.9918; fill: rgb(115, 121, 90);"/>
		<path d="M 260.65,196.194 C 258.949,197.11 262.113,196.701 261.029,200.594 C 259.941,204.489 256.093,212.717 256.87,210.118 C 257.391,208.391 264.284,214.703 263.671,210.303 C 262.243,200.023 268.441,201.599 267.829,197.658 C 267.217,193.722 262.35,195.279 260.65,196.194 z " id="path233" style="fill: none; stroke: rgb(0, 0, 0); stroke-width: 0.5904;"/>
	</g>
	<g id="path2909" sodipodi:nodetypes="czzzzzzzz">
		<path enable-background="new    " d="M 130.016,183.301 C 111.986,186.009 78.283,181.364 77.412,181.291 C 76.658,181.23 84.911,183.305 85.013,185.958 C 85.115,188.61 82.178,188.287 82.583,190.739 C 82.988,193.193 81.01,196.135 86.276,195.546 C 91.542,194.958 95.353,193.547 103.049,193.351 C 110.743,193.154 114.868,195.11 118.011,193.951 C 121.115,192.807 130.478,191.457 135.236,190.672 C 139.877,189.903 148.165,180.591 130.016,183.301 z " id="path236" style="opacity: 0.9794; fill: rgb(115, 121, 90);"/>
		<path d="M 130.016,183.301 C 111.986,186.009 78.283,181.364 77.412,181.291 C 76.658,181.23 84.911,183.305 85.013,185.958 C 85.115,188.61 82.178,188.287 82.583,190.739 C 82.988,193.193 81.01,196.135 86.276,195.546 C 91.542,194.958 95.353,193.547 103.049,193.351 C 110.743,193.154 114.868,195.11 118.011,193.951 C 121.115,192.807 130.478,191.457 135.236,190.672 C 139.877,189.903 148.165,180.591 130.016,183.301 z " id="path238" style="fill: none; stroke: rgb(0, 0, 0); stroke-width: 0.5904;"/>
	</g>
	<g id="path2911" sodipodi:nodetypes="csss">
		<path enable-background="new    " d="M 124.631,191.986 C 122.528,194.209 137.049,190.586 137.139,189.907 C 138.402,180.246 132.492,185.025 127.728,183.092 C 124.056,181.601 131.946,184.253 124.631,191.986 z " id="path241" style="opacity: 0.9712; fill: rgb(115, 121, 90);"/>
		<path d="M 124.631,191.986 C 122.528,194.209 137.049,190.586 137.139,189.907 C 138.402,180.246 132.492,185.025 127.728,183.092 C 124.056,181.601 131.946,184.253 124.631,191.986 z " id="path243" style="fill: none; stroke: rgb(0, 0, 0); stroke-width: 0.5904;"/>
	</g>
	<g id="path2929" sodipodi:nodetypes="csssss">
		<path enable-background="new    " d="M 130.211,192.96 C 127.618,196.263 130.173,196.825 134.45,198.183 C 137.63,199.195 143.195,196.839 145.154,194.745 C 150.486,189.041 148.711,190.22 147.252,187.545 C 145.794,184.871 143.686,185.347 138.685,189.189 C 133.301,193.325 132.806,189.661 130.211,192.96 z " id="path246" style="opacity: 0.9835; fill: rgb(115, 121, 90);"/>
		<path d="M 130.211,192.96 C 127.618,196.263 130.173,196.825 134.45,198.183 C 137.63,199.195 143.195,196.839 145.154,194.745 C 150.486,189.041 148.711,190.22 147.252,187.545 C 145.794,184.871 143.686,185.347 138.685,189.189 C 133.301,193.325 132.806,189.661 130.211,192.96 z " id="path248" style="fill: none; stroke: rgb(0, 0, 0); stroke-width: 0.5904;"/>
	</g>
	<g id="path2941" sodipodi:nodetypes="cssss">
		<path enable-background="new    " d="M 141.431,196.025 C 138.837,197.284 143.48,200.611 143.272,204.465 C 143.064,208.319 138.67,212.863 141.264,211.606 C 143.858,210.349 153.106,203.775 153.314,199.92 C 153.522,196.067 144.024,194.768 141.431,196.025 z " id="path251" style="opacity: 0.9588; fill: rgb(115, 121, 90);"/>
		<path d="M 141.431,196.025 C 138.837,197.284 143.48,200.611 143.272,204.465 C 143.064,208.319 138.67,212.863 141.264,211.606 C 143.858,210.349 153.106,203.775 153.314,199.92 C 153.522,196.067 144.024,194.768 141.431,196.025 z " id="path253" style="fill: none; stroke: rgb(0, 0, 0); stroke-width: 0.5904;"/>
	</g>
</g>
</svg>