<?xml version="1.0" encoding="UTF-8" standalone="no"?>
<!-- Created with clker.com Crayon tracing tool http://www.clker.com) -->
<svg xmlns="http://www.w3.org/2000/svg" width="1020" height="1181.5">
<path style="opacity: 1; fill: rgb(148, 67, 67); fill-rule: evenodd; stroke: rgb(0, 0, 0); stroke-width: 3px; stroke-linecap: butt; stroke-linejoin: miter; stroke-opacity: 1;" d="M 531.5 393.75 L 528 394 L 527.75 387 Q 527.5 380  528 365 L 528.5 350 L 531.25 347.5 L 534 345 L 537.75 341 Q 541.5 337  542.5 333 L 543.5 329 L 547.75 324.75 Q 552 320.5  553.5 316.75 L 555 313 L 557 312 L 559 311 L 563.25 301 Q 567.5 291  570 275.5 Q 572.5 260  572.75 256.25 L 573 252.5 L 571.75 249.25 Q 570.5 246  570 244.5 Q 569.5 243  565 229 Q 560.5 215  558.75 213 L 557 211 L 557.75 208.5 Q 558.5 206  554.75 197 L 551 188 L 545.5 185.75 L 540 183.5 L 539.75 183.25 Q 539.5 183  533.5 177.5 Q 527.5 172  523.75 167 L 520 162 L 519 161.75 Q 518 161.5  515.5 158.75 L 513 156 L 510.75 155.5 Q 508.5 155  502.25 150.75 Q 496 146.5  493.5 144.25 L 491 142 L 487 141.25 Q 483 140.5  478.25 138.25 L 473.5 136 L 470 139 L 466.5 142 L 462.25 139.75 Q 458 137.5  455 136.5 Q 452 135.5  446 132 L 440 128.5 L 435.5 128.5 Q 431 128.5  429 127.25 Q 427 126  423.25 127 L 419.5 128 L 412.75 126 L 406 124 L 405.75 123 Q 405.5 122  395.75 119.75 Q 386 117.5  383.25 118.75 L 380.5 120 L 374.25 117.25 L 368 114.5 L 362.5 115 Q 357 115.5  354 116 Q 351 116.5  347.25 116.25 L 343.5 116 L 338.25 118.75 Q 333 121.5  322 125.5 Q 311 129.5  299 136 Q 287 142.5  284.5 143.25 L 282 144 L 278.5 147.25 Q 275 150.5  272.25 153.75 L 269.5 157 L 268.25 157.5 Q 267 158  258.5 161 L 250 164 L 249 168.5 L 248 173 L 244 174 Q 240 175  236.25 181 L 232.5 187 L 229.25 187.5 Q 226 188  222.75 194.5 Q 219.5 201  216.25 205.25 L 213 209.5 L 212.25 214.25 L 211.5 219 L 208.25 222.25 L 205 225.5 L 204.5 232.25 Q 204 239  201.5 241.25 Q 199 243.5  196.75 251.75 L 194.5 260 L 195.5 277.5 Q 196.5 295  196.25 298.25 L 196 301.5 L 198.75 311.25 Q 201.5 321  201.25 324.75 L 201 328.5 L 207.25 341.75 Q 213.5 355  214.25 356.75 L 215 358.5 L 218 360.25 Q 221 362  224 368 Q 227 374  230.5 376.5 L 234 379 L 236.75 385 Q 239.5 391  243.25 393 L 247 395 L 247.5 397.25 Q 248 399.5  252 403.5 Q 256 407.5  258.75 411.25 L 261.5 415 L 267.25 415.75 Q 273 416.5  277.5 417.5 L 282 418.5 L 284.5 420.25 L 287 422 L 287.25 423 L 287.5 424 L 290.25 428 L 293 432 L 288 433.75 Q 283 435.5  279.5 439.25 L 276 443 L 265 442.25 L 254 441.5 L 252.5 442.25 L 251 443 L 248 439.25 L 245 435.5 L 238 435.75 L 231 436 L 218.5 432.5 Q 206 429  205 427.75 Q 204 426.5  194 422.5 Q 184 418.5  180.75 416.25 L 177.5 414 L 175.75 415 L 174 416 L 172 411.75 Q 170 407.5  166.75 404.75 Q 163.5 402  159.25 397.75 Q 155 393.5  149 389 Q 143 384.5  137 379.25 L 131 374 L 125.5 371.5 L 120 369 L 117.5 364.75 Q 115 360.5  110.25 355.25 Q 105.5 350  97 334 Q 88.5 318  84 301 Q 79.5 284  78.5 272 Q 77.5 260  79.75 248.5 L 82 237 L 82.25 231 Q 82.5 225  87.75 211.25 Q 93 197.5  99.75 190.25 L 106.5 183 L 113.25 168 L 120 153 L 123.75 149.5 Q 127.5 146  138.25 134.75 Q 149 123.5  153.5 119.5 Q 158 115.5  164.5 111.75 L 171 108 L 173 105.25 Q 175 102.5  178.5 100.25 L 182 98 L 186 91.5 Q 190 85  194.25 81.5 Q 198.5 78  212.25 67.75 Q 226 57.5  241.5 50 Q 257 42.5  262.5 40 Q 268 37.5  270.5 36.5 Q 273 35.5  275 35.5 L 277 35.5 L 282 32 Q 287 28.5  310.5 23 Q 334 17.5  339.25 16.75 L 344.5 16 L 346.25 16.25 Q 348 16.5  350.5 18.25 L 353 20 L 360 19.25 Q 367 18.5  384 18.25 Q 401 18  403.5 17.75 Q 406 17.5  415 16.5 L 424 15.5 L 427 17.25 Q 430 19  455.25 21 L 480.5 23 L 486.75 26.25 Q 493 29.5  512.25 36.75 Q 531.5 44  536.75 45.75 Q 542 47.5  557.5 58 Q 573 68.5  573.75 69.25 L 574.5 70 L 576.25 70.75 Q 578 71.5  584.75 76.25 Q 591.5 81  592.5 82 L 593.5 83 L 595.75 84.25 Q 598 85.5  602.5 87.5 L 607 89.5 L 611.5 95.5 Q 616 101.5  617.5 103.5 L 619 105.5 L 625.5 107.25 L 632 109 L 636 115.25 Q 640 121.5  644 126.5 L 648 131.5 L 646.75 135.25 Q 645.5 139  653.25 152 L 661 165 L 662.25 175 Q 663.5 185  665.5 205.5 Q 667.5 226  662.75 249.75 L 658 273.5 L 654.75 279.25 Q 651.5 285  649.25 289 L 647 293 L 646.5 298 L 646 303 L 643.5 305 Q 641 307  639 314.75 L 637 322.5 L 628.5 334.5 Q 620 346.5  616.5 349.25 Q 613 352  611 354.75 Q 609 357.5  604.5 360.75 Q 600 364  597 367.5 Q 594 371  591.5 373.5 L 589 376 L 582.5 378.5 Q 576 381  573.5 383.75 Q 571 386.5  569 385.75 L 567 385 L 564.5 387.75 Q 562 390.5  554.25 392.25 L 546.5 394 L 542.5 393 Q 538.5 392  536.75 392.75 Q 535 393.5  531.5 393.75  Z  " id="path2"/>
<path style="opacity: 1; fill: rgb(38, 26, 17); fill-rule: evenodd; stroke: rgb(0, 0, 0); stroke-width: 3px; stroke-linecap: butt; stroke-linejoin: miter; stroke-opacity: 1;" d="M 563.25 301 L 559 311 L 556.5 303 L 554 295 L 550.75 295.5 Q 547.5 296  545 297 Q 542.5 298  538.75 297.5 L 535 297 L 534.75 298 Q 534.5 299  529.75 301 Q 525 303  521.5 302.5 L 518 302 L 517.75 301.5 L 517.5 301 L 515.5 297 Q 513.5 293  507 282.5 L 500.5 272 L 499.5 266.5 Q 498.5 261  498.75 258.75 L 499 256.5 L 495.75 251.25 Q 492.5 246  492.25 243.75 L 492 241.5 L 490.25 239.75 Q 488.5 238  487.25 234.75 L 486 231.5 L 485.25 231.75 Q 484.5 232  475 222 Q 465.5 212  462.75 209.5 Q 460 207  457 202.5 L 454 198 L 450.5 196.25 Q 447 194.5  444.5 192.25 Q 442 190  433.5 185.75 Q 425 181.5  421.25 180.75 L 417.5 180 L 417 181 Q 416.5 182  418.75 185 Q 421 188  424.5 190.75 Q 428 193.5  435.25 198.25 Q 442.5 203  449.75 210.25 Q 457 217.5  460 223.75 L 463 230 L 469.25 238.5 Q 475.5 247  478.5 252.5 Q 481.5 258  482.25 262.25 L 483 266.5 L 479.5 266.5 Q 476 266.5  470.5 264.5 Q 465 262.5  461 256.75 L 457 251 L 449.5 244.25 Q 442 237.5  422.5 225 Q 403 212.5  387 207 L 371 201.5 L 367 197.5 L 363 193.5 L 359.5 193 Q 356 192.5  344 188.5 Q 332 184.5  321.5 182 Q 311 179.5  304.5 180.25 L 298 181 L 294.5 183.25 Q 291 185.5  287 188 L 283 190.5 L 285.25 194.25 Q 287.5 198  288.5 208.5 Q 289.5 219  290.25 223.25 L 291 227.5 L 287 227.75 Q 283 228  283.5 232 L 284 236 L 278 235.25 L 272 234.5 L 269.25 232.25 Q 266.5 230  263.25 223.5 L 260 217 L 258.5 217.25 Q 257 217.5  250.25 221.75 L 243.5 226 L 242 234 Q 240.5 242  240.75 242.75 L 241 243.5 L 239.75 244.75 Q 238.5 246  234.25 249.5 L 230 253 L 228.5 265 Q 227 277  229 278.75 L 231 280.5 L 229.5 286.75 L 228 293 L 229 293 Q 230 293  233 302 Q 236 311  239 320 L 242 329 L 245.5 333.75 Q 249 338.5  250.5 340.25 Q 252 342  252.75 345.5 Q 253.5 349  255.25 351.5 Q 257 354  259.75 360.5 Q 262.5 367  264.25 369.25 Q 266 371.5  270 380.75 Q 274 390  278.75 396.5 L 283.5 403 L 284 407 Q 284.5 411  286.75 416.25 L 289 421.5 L 288 421.75 L 287 422 L 284.5 420.25 L 282 418.5 L 277.5 417.5 Q 273 416.5  267.25 415.75 L 261.5 415 L 258.75 411.25 Q 256 407.5  252 403.5 Q 248 399.5  247.5 397.25 L 247 395 L 243.25 393 Q 239.5 391  236.75 385 L 234 379 L 230.5 376.5 Q 227 374  224 368 Q 221 362  218 360.25 L 215 358.5 L 214.25 356.75 Q 213.5 355  207.25 341.75 L 201 328.5 L 201.25 324.75 Q 201.5 321  198.75 311.25 L 196 301.5 L 196.25 298.25 Q 196.5 295  195.5 277.5 L 194.5 260 L 196.75 251.75 Q 199 243.5  201.5 241.25 Q 204 239  204.5 232.25 L 205 225.5 L 208.25 222.25 L 211.5 219 L 212.25 214.25 L 213 209.5 L 216.25 205.25 Q 219.5 201  222.75 194.5 Q 226 188  229.25 187.5 L 232.5 187 L 236.25 181 Q 240 175  244 174 L 248 173 L 249 168.5 L 250 164 L 258.5 161 Q 267 158  268.25 157.5 L 269.5 157 L 272.25 153.75 Q 275 150.5  278.5 147.25 L 282 144 L 284.5 143.25 Q 287 142.5  299 136 Q 311 129.5  322 125.5 Q 333 121.5  338.25 118.75 L 343.5 116 L 347.25 116.25 Q 351 116.5  354 116 Q 357 115.5  362.5 115 L 368 114.5 L 374.25 117.25 L 380.5 120 L 383.25 118.75 Q 386 117.5  395.75 119.75 Q 405.5 122  405.75 123 L 406 124 L 412.75 126 L 419.5 128 L 423.25 127 Q 427 126  429 127.25 Q 431 128.5  435.5 128.5 L 440 128.5 L 446 132 Q 452 135.5  455 136.5 Q 458 137.5  462.25 139.75 L 466.5 142 L 470 139 L 473.5 136 L 478.25 138.25 Q 483 140.5  487 141.25 L 491 142 L 493.5 144.25 Q 496 146.5  502.25 150.75 Q 508.5 155  510.75 155.5 L 513 156 L 515.5 158.75 Q 518 161.5  519 161.75 L 520 162 L 523.75 167 Q 527.5 172  533.5 177.5 Q 539.5 183  539.75 183.25 L 540 183.5 L 545.5 185.75 L 551 188 L 554.75 197 Q 558.5 206  557.75 208.5 L 557 211 L 558.75 213 Q 560.5 215  565 229 Q 569.5 243  570 244.5 Q 570.5 246  571.75 249.25 L 573 252.5 L 572.75 256.25 Q 572.5 260  570 275.5 Q 567.5 291  563.25 301  Z  " id="path4"/>
<path style="opacity: 1; fill: rgb(255, 232, 148); fill-rule: evenodd; stroke: rgb(0, 0, 0); stroke-width: 3px; stroke-linecap: butt; stroke-linejoin: miter; stroke-opacity: 1;" d="M 517.25 300.5 L 518 302 L 519.5 304.25 L 521 306.5 L 520.75 306.75 Q 520.5 307  521.75 317.75 Q 523 328.5  524.5 328.75 L 526 329 L 526.25 334.5 Q 526.5 340  527.25 342 L 528 344 L 531 344.5 L 534 345 L 531.25 347.5 L 528.5 350 L 528 365 Q 527.5 380  527.75 387 L 528 394 L 528 394.5 L 528 395 L 526.5 395 L 525 395 L 522.25 400.5 Q 519.5 406  518.25 407.5 Q 517 409  515.75 415 Q 514.5 421  510 433 L 505.5 445 L 503.75 445.25 Q 502 445.5  487.5 463 Q 473 480.5  470.5 482.75 Q 468 485  459.5 489.75 Q 451 494.5  438.5 496.5 Q 426 498.5  425.5 498.5 Q 425 498.5  405.5 493.5 Q 386 488.5  375 485 Q 364 481.5  353 476.25 L 342 471 L 342 470.5 L 342 470 L 339.5 468.25 Q 337 466.5  333 463 Q 329 459.5  326.5 456.75 L 324 454 L 321 452.5 L 318 451 L 318 451.5 L 318 452 L 315 449.25 L 312 446.5 L 303.5 445.25 L 295 444 L 295 443.5 L 295 443 L 295.75 442 Q 296.5 441  294.75 438.5 L 293 436 L 293 434 L 293 432 L 290.25 428 L 287.5 424 L 287.25 423 L 287 422 L 288 421.75 L 289 421.5 L 286.75 416.25 Q 284.5 411  284 407 L 283.5 403 L 278.75 396.5 Q 274 390  270 380.75 Q 266 371.5  264.25 369.25 Q 262.5 367  259.75 360.5 Q 257 354  255.25 351.5 Q 253.5 349  252.75 345.5 Q 252 342  250.5 340.25 Q 249 338.5  245.5 333.75 L 242 329 L 239 320 Q 236 311  233 302 Q 230 293  229 293 L 228 293 L 229.5 286.75 L 231 280.5 L 229 278.75 Q 227 277  228.5 265 L 230 253 L 234.25 249.5 Q 238.5 246  239.75 244.75 L 241 243.5 L 240.75 242.75 Q 240.5 242  242 234 L 243.5 226 L 250.25 221.75 Q 257 217.5  258.5 217.25 L 260 217 L 263.25 223.5 Q 266.5 230  269.25 232.25 L 272 234.5 L 278 235.25 L 284 236 L 283.5 232 Q 283 228  287 227.75 L 291 227.5 L 290.25 223.25 Q 289.5 219  288.5 208.5 Q 287.5 198  285.25 194.25 L 283 190.5 L 287 188 Q 291 185.5  294.5 183.25 L 298 181 L 304.5 180.25 Q 311 179.5  321.5 182 Q 332 184.5  344 188.5 Q 356 192.5  359.5 193 L 363 193.5 L 367 197.5 L 371 201.5 L 387 207 Q 403 212.5  422.5 225 Q 442 237.5  449.5 244.25 L 457 251 L 461 256.75 Q 465 262.5  470.5 264.5 Q 476 266.5  479.5 266.5 L 483 266.5 L 482.25 262.25 Q 481.5 258  478.5 252.5 Q 475.5 247  469.25 238.5 L 463 230 L 460 223.75 Q 457 217.5  449.75 210.25 Q 442.5 203  435.25 198.25 Q 428 193.5  424.5 190.75 Q 421 188  418.75 185 Q 416.5 182  417 181 L 417.5 180 L 421.25 180.75 Q 425 181.5  433.5 185.75 Q 442 190  444.5 192.25 Q 447 194.5  450.5 196.25 L 454 198 L 457 202.5 Q 460 207  462.75 209.5 Q 465.5 212  475 222 Q 484.5 232  485.25 231.75 L 486 231.5 L 487.25 234.75 Q 488.5 238  490.25 239.75 L 492 241.5 L 492.25 243.75 Q 492.5 246  495.75 251.25 L 499 256.5 L 498.75 258.75 Q 498.5 261  499.5 266.5 L 500.5 272 L 507 282.5 Q 513.5 293  515 296 L 516.5 299 L 517.25 300.5  Z  " id="path6"/>
<path style="opacity: 1; fill: rgb(255, 232, 150); fill-rule: evenodd; stroke: rgb(0, 0, 0); stroke-width: 3px; stroke-linecap: butt; stroke-linejoin: miter; stroke-opacity: 1;" d="M 556.5 303 L 559 311 L 557 312 L 555 313 L 553.5 316.75 Q 552 320.5  547.75 324.75 L 543.5 329 L 542.5 333 Q 541.5 337  537.75 341 L 534 345 L 531 344.5 L 528 344 L 527.25 342 Q 526.5 340  526.25 334.5 L 526 329 L 524.5 328.75 Q 523 328.5  521.75 317.75 Q 520.5 307  520.75 306.75 L 521 306.5 L 519.5 304.25 L 518 302 L 521.5 302.5 Q 525 303  529.75 301 Q 534.5 299  534.75 298 L 535 297 L 538.75 297.5 Q 542.5 298  545 297 Q 547.5 296  550.75 295.5 L 554 295 L 556.5 303  Z  " id="path8"/>
<path style="opacity: 1; fill: rgb(242, 220, 141); fill-rule: evenodd; stroke: rgb(0, 0, 0); stroke-width: 3px; stroke-linecap: butt; stroke-linejoin: miter; stroke-opacity: 1;" d="M 526.5 395 L 528 395 L 531 407.5 L 534 420 L 536.75 440 Q 539.5 460  535.5 472.5 Q 531.5 485  528.25 493 L 525 501 L 522 508 L 519 515 L 517.75 518 L 516.5 521 L 516.75 523.5 L 517 526 L 517 527 L 517 528 L 513.75 530 Q 510.5 532  508.75 536 L 507 540 L 503 545.5 L 499 551 L 500 551 L 501 551 L 501 552 L 501 553 L 496 555.5 Q 491 558  489 561.25 L 487 564.5 L 487.5 565.75 L 488 567 L 486.25 567.5 Q 484.5 568  481 573 L 477.5 578 L 472.75 576 L 468 574 L 466.5 572.25 Q 465 570.5  457.5 567.75 L 450 565 L 444 563 L 438 561 L 432.5 558.5 L 427 556 L 425 554.25 L 423 552.5 L 419 550.75 L 415 549 L 414.5 548.75 L 414 548.5 L 411 547.25 L 408 546 L 408 545.5 L 408 545 L 407 544.75 Q 406 544.5  403.5 541.75 Q 401 539  396.5 536.25 Q 392 533.5  377 523.5 Q 362 513.5  353.75 501.25 Q 345.5 489  343.75 486.5 Q 342 484  341.5 477.5 L 341 471 L 341.5 471 L 342 471 L 353 476.25 Q 364 481.5  375 485 Q 386 488.5  405.5 493.5 Q 425 498.5  425.5 498.5 Q 426 498.5  438.5 496.5 Q 451 494.5  459.5 489.75 Q 468 485  470.5 482.75 Q 473 480.5  487.5 463 Q 502 445.5  503.75 445.25 L 505.5 445 L 510 433 Q 514.5 421  515.75 415 Q 517 409  518.25 407.5 Q 519.5 406  522.25 400.5 L 525 395 L 526.5 395  Z  " id="path10"/>
<path style="opacity: 1; fill: rgb(168, 47, 47); fill-rule: evenodd; stroke: rgb(0, 0, 0); stroke-width: 3px; stroke-linecap: butt; stroke-linejoin: miter; stroke-opacity: 1;" d="M 218.5 432.5 L 231 436 L 232 437.25 L 233 438.5 L 221.75 443.75 Q 210.5 449  207.75 447.5 Q 205 446  203.25 446 L 201.5 446 L 198.25 449.25 Q 195 452.5  194 452.75 L 193 453 L 192.5 466.5 L 192 480 L 191.75 480.5 L 191.5 481 L 193.25 497 L 195 513 L 192.5 512.75 Q 190 512.5  185.25 508.25 Q 180.5 504  177.75 501.5 Q 175 499  171.25 493 Q 167.5 487  163 467.5 Q 158.5 448  160.75 438 L 163 428 L 166 425 Q 169 422  171.5 419 L 174 416 L 175.75 415 L 177.5 414 L 180.75 416.25 Q 184 418.5  194 422.5 Q 204 426.5  205 427.75 Q 206 429  218.5 432.5  Z  " id="path12"/>
<path style="opacity: 1; fill: rgb(168, 47, 47); fill-rule: evenodd; stroke: rgb(0, 0, 0); stroke-width: 3px; stroke-linecap: butt; stroke-linejoin: miter; stroke-opacity: 1;" d="M 268.5 551 L 269 550 L 269.25 550.5 L 269.5 551 L 268.5 554 L 267.5 557 L 260.75 560.25 Q 254 563.5  239.5 571.75 L 225 580 L 216.5 582.5 Q 208 585  206.5 587 L 205 589 L 199 591.75 Q 193 594.5  182.5 594.75 L 172 595 L 173 594.25 Q 174 593.5  182.5 590.25 L 191 587 L 194 586.75 L 197 586.5 L 202.5 582.5 Q 208 578.5  219.25 570.75 Q 230.5 563  230 552.5 L 229.5 542 L 237.75 547.75 L 246 553.5 L 257 552.75 L 268 552 L 268.5 551  Z  " id="path14"/>
<path style="opacity: 1; fill: rgb(168, 47, 47); fill-rule: evenodd; stroke: rgb(0, 0, 0); stroke-width: 3px; stroke-linecap: butt; stroke-linejoin: miter; stroke-opacity: 1;" d="M 271 600.5 L 273 600 L 278.5 602.5 Q 284 605  283.25 609 Q 282.5 613  284.25 621.5 Q 286 630  284.75 632.5 L 283.5 635 L 285.75 644.75 Q 288 654.5  292.75 655.25 L 297.5 656 L 299.25 661.5 Q 301 667  302.25 668 L 303.5 669 L 309.25 666.75 Q 315 664.5  317 664.75 L 319 665 L 319.5 667.5 L 320 670 L 320.5 670 L 321 670 L 319.75 675 L 318.5 680 L 320.25 682.5 Q 322 685  326.25 691.5 L 330.5 698 L 330.5 700 Q 330.5 702  332.5 707 Q 334.5 712  335.25 720.5 Q 336 729  334 729.25 L 332 729.5 L 329.5 728.75 Q 327 728  318 725.5 L 309 723 L 308.5 722.25 Q 308 721.5  304.5 716.75 L 301 712 L 297 709.5 L 293 707 L 292.75 706 Q 292.5 705  290.25 700.75 L 288 696.5 L 288 690.75 L 288 685 L 285 679.75 L 282 674.5 L 281.75 669.25 Q 281.5 664  281.25 662.25 L 281 660.5 L 278.75 657.25 Q 276.5 654  275.25 644 L 274 634 L 271.5 632 L 269 630 L 270.25 628.5 L 271.5 627 L 271.75 623 L 272 619 L 271.75 618.5 L 271.5 618 L 270.75 615.5 L 270 613 L 269.5 609.5 L 269 606 L 269 603.5 L 269 601 L 271 600.5  Z  " id="path16"/>
<path style="opacity: 1; fill: rgb(168, 47, 47); fill-rule: evenodd; stroke: rgb(0, 0, 0); stroke-width: 3px; stroke-linecap: butt; stroke-linejoin: miter; stroke-opacity: 1;" d="M 325.5 667.25 L 323 666 L 328 666.25 Q 333 666.5  341.5 669.5 Q 350 672.5  354.5 672.5 L 359 672.5 L 370.5 667.75 L 382 663 L 386 662.75 Q 390 662.5  390.75 662.75 L 391.5 663 L 391.5 664 Q 391.5 665  385.25 668.75 Q 379 672.5  366.5 675 Q 354 677.5  341 673 Q 328 668.5  325.5 667.25  Z  " id="path18"/>
<path style="opacity: 1; fill: rgb(255, 74, 74); fill-rule: evenodd; stroke: rgb(0, 0, 0); stroke-width: 3px; stroke-linecap: butt; stroke-linejoin: miter; stroke-opacity: 1;" d="M 288 433.75 L 293 432 L 293 434 L 293 436 L 294.75 438.5 Q 296.5 441  295.75 442 L 295 443 L 290.75 447.5 Q 286.5 452  284 456.5 L 281.5 461 L 282.75 468 L 284 475 L 284 475.5 L 284 476 L 274 477.25 Q 264 478.5  262 479.75 Q 260 481  248.5 483.25 L 237 485.5 L 236.25 486.75 Q 235.5 488  233.25 491.5 L 231 495 L 224 497.75 L 217 500.5 L 216.5 501.25 Q 216 502  214 504.75 Q 212 507.5  210 509.75 L 208 512 L 201.5 512.5 L 195 513 L 193.25 497 L 191.5 481 L 191.75 480.5 L 192 480 L 193 480.25 Q 194 480.5  196.5 479.25 Q 199 478  204 475 Q 209 472  211 469 L 213 466 L 215 465.75 Q 217 465.5  218.5 464 Q 220 462.5  222.5 459.75 L 225 457 L 230.5 455.75 L 236 454.5 L 235.75 452.75 Q 235.5 451  243.25 447 L 251 443 L 252.5 442.25 L 254 441.5 L 265 442.25 L 276 443 L 279.5 439.25 Q 283 435.5  288 433.75  Z  " id="path20"/>
<path style="opacity: 1; fill: rgb(255, 74, 74); fill-rule: evenodd; stroke: rgb(0, 0, 0); stroke-width: 3px; stroke-linecap: butt; stroke-linejoin: miter; stroke-opacity: 1;" d="M 331.75 520.5 L 334 521 L 338.75 526 L 343.5 531 L 341 542 Q 338.5 553  338 557 Q 337.5 561  333 569 Q 328.5 577  328.25 577.5 L 328 578 L 327.75 579 L 327.5 580 L 327.25 583.5 L 327 587 L 327.25 589 L 327.5 591 L 329.25 594 L 331 597 L 331 598.5 L 331 600 L 331 602.25 L 331 604.5 L 331 606.75 L 331 609 L 331.25 611 L 331.5 613 L 332.75 615 L 334 617 L 334.75 618 L 335.5 619 L 339.25 619.75 Q 343 620.5  343.5 620.25 L 344 620 L 346 624.5 Q 348 629  349 631.5 L 350 634 L 356.25 638 Q 362.5 642  366 647 L 369.5 652 L 375.75 657.5 L 382 663 L 370.5 667.75 L 359 672.5 L 354.5 672.5 Q 350 672.5  341.5 669.5 Q 333 666.5  328 666.25 L 323 666 L 322.5 666 L 322 666 L 321.5 668 L 321 670 L 320.5 670 L 320 670 L 319.5 667.5 L 319 665 L 317 664.75 Q 315 664.5  309.25 666.75 L 303.5 669 L 302.25 668 Q 301 667  299.25 661.5 L 297.5 656 L 292.75 655.25 Q 288 654.5  285.75 644.75 L 283.5 635 L 284.75 632.5 Q 286 630  284.25 621.5 Q 282.5 613  283.25 609 Q 284 605  278.5 602.5 L 273 600 L 272 599 L 271 598 L 280.25 578 Q 289.5 558  294 550 Q 298.5 542  297.75 537.5 L 297 533 L 298.5 531 L 300 529 L 314.75 524.5 L 329.5 520 L 331.75 520.5  Z  " id="path22"/>
<path style="opacity: 1; fill: rgb(217, 63, 63); fill-rule: evenodd; stroke: rgb(0, 0, 0); stroke-width: 3px; stroke-linecap: butt; stroke-linejoin: miter; stroke-opacity: 1;" d="M 274 476.75 L 284 475 L 284.5 475 L 285 475 L 285.5 476.5 L 286 478 L 286.75 482.5 Q 287.5 487  287.75 490 L 288 493 L 287.5 494.75 L 287 496.5 L 283.5 501 L 280 505.5 L 279.25 507.75 Q 278.5 510  276.75 525 L 275 540 L 274.5 540 L 274 540 L 271.5 545 L 269 550 L 268.5 551 L 268 552 L 257 552.75 L 246 553.5 L 237.75 547.75 L 229.5 542 L 230 552.5 Q 230.5 563  219.25 570.75 Q 208 578.5  202.5 582.5 L 197 586.5 L 194 586.75 L 191 587 L 194 584.25 Q 197 581.5  200.5 577 Q 204 572.5  208.25 563.25 Q 212.5 554  219.5 533 Q 226.5 512  229.5 506 Q 232.5 500  231.75 497.5 L 231 495 L 233.25 491.5 Q 235.5 488  236.25 486.75 L 237 485.5 L 248.5 483.25 Q 260 481  262 479.75 Q 264 478.5  274 476.75  Z  " id="path24"/>
<path style="opacity: 1; fill: rgb(219, 61, 61); fill-rule: evenodd; stroke: rgb(0, 0, 0); stroke-width: 3px; stroke-linecap: butt; stroke-linejoin: miter; stroke-opacity: 1;" d="M 330.25 516 L 334 521 L 331.75 520.5 L 329.5 520 L 314.75 524.5 L 300 529 L 298.5 531 L 297 533 L 286 536.5 L 275 540 L 276.75 525 Q 278.5 510  279.25 507.75 L 280 505.5 L 283.5 501 L 287 496.5 L 287.5 494.75 L 288 493 L 289.25 492.5 L 290.5 492 L 295.25 493.75 Q 300 495.5  303.25 495.75 L 306.5 496 L 312.5 499 L 318.5 502 L 322.5 506.5 Q 326.5 511  330.25 516  Z  " id="path26"/>
<path style="opacity: 1; fill: rgb(186, 186, 255); fill-rule: evenodd; stroke: rgb(0, 0, 0); stroke-width: 3px; stroke-linecap: butt; stroke-linejoin: miter; stroke-opacity: 1;" d="M 286 536.5 L 297 533 L 297.75 537.5 Q 298.5 542  294 550 Q 289.5 558  280.25 578 L 271 598 L 272 599 L 273 600 L 271 600.5 L 269 601 L 265.5 600.25 Q 262 599.5  247 595.5 Q 232 591.5  221.5 591.75 Q 211 592  208.75 591 L 206.5 590 L 205.75 589.5 L 205 589 L 206.5 587 Q 208 585  216.5 582.5 L 225 580 L 239.5 571.75 Q 254 563.5  260.75 560.25 L 267.5 557 L 268.5 554 L 269.5 551 L 269.25 550.5 L 269 550 L 271.5 545 L 274 540 L 274.5 540 L 275 540 L 286 536.5  Z  " id="path28"/>
<path style="opacity: 1; fill: rgb(186, 186, 255); fill-rule: evenodd; stroke: rgb(0, 0, 0); stroke-width: 3px; stroke-linecap: butt; stroke-linejoin: miter; stroke-opacity: 1;" d="M 264 606.25 L 269 606 L 269.5 609.5 L 270 613 L 267.5 612.75 L 265 612.5 L 264 613 Q 263 613.5  245.5 608.5 Q 228 603.5  226.5 601.25 L 225 599 L 242 602.75 Q 259 606.5  264 606.25  Z  " id="path30"/>
<path style="opacity: 1; fill: rgb(186, 186, 255); fill-rule: evenodd; stroke: rgb(0, 0, 0); stroke-width: 3px; stroke-linecap: butt; stroke-linejoin: miter; stroke-opacity: 1;" d="M 342 470.5 L 342 471 L 341.75 473.5 Q 341.5 476  343 481.5 Q 344.5 487  353.25 500.25 Q 362 513.5  377 523.5 Q 392 533.5  396.5 536.25 Q 401 539  403.5 541.75 Q 406 544.5  407 544.75 L 408 545 L 408 545.5 L 408 546 L 405.5 546.75 Q 403 547.5  380 553.5 L 357 559.5 L 356.25 561.25 Q 355.5 563  353.25 565.75 Q 351 568.5  349 570.25 Q 347 572  337.5 575 L 328 578 L 328.25 577.5 Q 328.5 577  333 569 Q 337.5 561  338 557 Q 338.5 553  341 542 L 343.5 531 L 338.75 526 L 334 521 L 330.25 516 Q 326.5 511  322.5 506.5 L 318.5 502 L 312.5 499 L 306.5 496 L 303.25 495.75 Q 300 495.5  295.25 493.75 L 290.5 492 L 289.25 492.5 L 288 493 L 287.75 490 Q 287.5 487  286.75 482.5 L 286 478 L 291 474.75 Q 296 471.5  305.75 464.75 Q 315.5 458  316.75 455 L 318 452 L 318 451.5 L 318 451 L 321 452.5 L 324 454 L 326.5 456.75 Q 329 459.5  333 463 Q 337 466.5  339.5 468.25 L 342 470 L 342 470.5  Z  " id="path32"/>
<path style="opacity: 1; fill: rgb(186, 186, 255); fill-rule: evenodd; stroke: rgb(0, 0, 0); stroke-width: 3px; stroke-linecap: butt; stroke-linejoin: miter; stroke-opacity: 1;" d="M 415 551 L 415 549 L 419 550.75 L 423 552.5 L 425 554.25 L 427 556 L 412.5 558.75 Q 398 561.5  387 565 L 376 568.5 L 373 573.75 Q 370 579  365 583.75 L 360 588.5 L 349 591 Q 338 593.5  334.5 595.25 L 331 597 L 329.25 594 L 327.5 591 L 327.25 589 L 327 587 L 342 583.5 L 357 580 L 359.5 577 Q 362 574  364.25 571.5 Q 366.5 569  369.25 565 L 372 561 L 393.5 557 Q 415 553  415 551  Z  " id="path34"/>
<path style="opacity: 1; fill: rgb(186, 186, 255); fill-rule: evenodd; stroke: rgb(0, 0, 0); stroke-width: 3px; stroke-linecap: butt; stroke-linejoin: miter; stroke-opacity: 1;" d="M 392 571.5 L 392 572 L 389.5 573.25 L 387 574.5 L 384.25 578.75 Q 381.5 583  378.25 585.75 Q 375 588.5  371 594.25 L 367 600 L 356.5 602.25 Q 346 604.5  338.5 606.75 L 331 609 L 331 606.75 L 331 604.5 L 331 602.25 L 331 600 L 333.5 600.75 Q 336 601.5  351.5 597.75 L 367 594 L 370.25 589 Q 373.5 584  379.25 578.25 Q 385 572.5  388.5 571.75 L 392 571 L 392 571.5  Z  " id="path36"/>
<path style="opacity: 1; fill: rgb(186, 186, 255); fill-rule: evenodd; stroke: rgb(0, 0, 0); stroke-width: 3px; stroke-linecap: butt; stroke-linejoin: miter; stroke-opacity: 1;" d="M 630.5 518.25 L 660 508 L 657.5 510 L 655 512 L 638.5 519.75 Q 622 527.5  605.5 530.75 L 589 534 L 584.5 531.25 Q 580 528.5  548 534 Q 516 539.5  511.5 539.75 L 507 540 L 508.75 536 Q 510.5 532  513.75 530 L 517 528 L 518.5 529.75 Q 520 531.5  550 526.5 Q 580 521.5  590.5 525 Q 601 528.5  630.5 518.25  Z  " id="path38"/>
<path style="opacity: 1; fill: rgb(186, 186, 255); fill-rule: evenodd; stroke: rgb(0, 0, 0); stroke-width: 3px; stroke-linecap: butt; stroke-linejoin: miter; stroke-opacity: 1;" d="M 642.75 505 L 644 505 L 627.5 512.75 Q 611 520.5  605.75 522.25 L 600.5 524 L 595.75 521.75 Q 591 519.5  580 517 Q 569 514.5  543 520.25 L 517 526 L 516.75 523.5 L 516.5 521 L 517.75 518 L 519 515 L 528 514.25 Q 537 513.5  543.5 512.5 Q 550 511.5  564.5 509.5 L 579 507.5 L 586.25 511.75 Q 593.5 516  594.75 516.75 Q 596 517.5  606 515 Q 616 512.5  625.5 508.5 Q 635 504.5  638.25 504.75 L 641.5 505 L 642.75 505  Z  " id="path40"/>
<path style="opacity: 1; fill: rgb(186, 186, 255); fill-rule: evenodd; stroke: rgb(0, 0, 0); stroke-width: 3px; stroke-linecap: butt; stroke-linejoin: miter; stroke-opacity: 1;" d="M 715.75 460.5 L 714 463 L 713.5 461 L 713 459 L 711.5 457.5 L 710 456 L 711.5 449 L 713 442 L 707 446.75 Q 701 451.5  697 457.25 L 693 463 L 690.75 466 Q 688.5 469  687.75 470.5 L 687 472 L 683 475.75 Q 679 479.5  675.5 483.75 L 672 488 L 666.5 492.25 L 661 496.5 L 652 497.5 Q 643 498.5  627 503.25 Q 611 508  603 509.5 L 595 511 L 593.5 509.5 Q 592 508  589.5 505 L 587 502 L 585.5 501.75 Q 584 501.5  563 502.5 Q 542 503.5  536.25 505.75 L 530.5 508 L 530 507.5 Q 529.5 507  527.25 504 L 525 501 L 528.25 493 Q 531.5 485  535.5 472.5 Q 539.5 460  536.75 440 L 534 420 L 534.5 419 L 535 418 L 544 417.75 L 553 417.5 L 560.5 420.25 L 568 423 L 570 425.5 Q 572 428  577 429.75 L 582 431.5 L 582.5 434 Q 583 436.5  588 440.75 L 593 445 L 599 445.25 L 605 445.5 L 610.5 449 Q 616 452.5  619.25 452.75 L 622.5 453 L 622.75 455.5 Q 623 458  625.75 459.5 L 628.5 461 L 629.75 460.75 Q 631 460.5  636.5 462 Q 642 463.5  650.25 466.75 L 658.5 470 L 664 468 Q 669.5 466  672.25 465.75 L 675 465.5 L 681 461.25 L 687 457 L 690 449.75 Q 693 442.5  695 439.5 Q 697 436.5  698.25 434.25 L 699.5 432 L 702.75 431.25 Q 706 430.5  712.5 427.5 Q 719 424.5  721 423.75 L 723 423 L 720.25 440.5 Q 717.5 458  715.75 460.5  Z  " id="path42"/>
<path style="opacity: 1; fill: rgb(255, 255, 255); fill-rule: evenodd; stroke: rgb(0, 0, 0); stroke-width: 3px; stroke-linecap: butt; stroke-linejoin: miter; stroke-opacity: 1;" d="M 199 591.75 L 205 589 L 205.75 589.5 L 206.5 590 L 208.75 591 Q 211 592  221.5 591.75 Q 232 591.5  247 595.5 Q 262 599.5  265.5 600.25 L 269 601 L 269 603.5 L 269 606 L 264 606.25 Q 259 606.5  242 602.75 L 225 599 L 226.5 601.25 Q 228 603.5  245.5 608.5 Q 263 613.5  264 613 L 265 612.5 L 267.5 612.75 L 270 613 L 270.75 615.5 L 271.5 618 L 271.75 618.5 L 272 619 L 267 619.25 Q 262 619.5  260 619.75 Q 258 620  242 614.25 Q 226 608.5  213.5 609 Q 201 609.5  190.5 613.5 L 180 617.5 L 175 616.5 Q 170 615.5  167.25 614.75 L 164.5 614 L 166.25 608.5 L 168 603 L 166 602 L 164 601 L 166 598.75 L 168 596.5 L 170 595.75 L 172 595 L 182.5 594.75 Q 193 594.5  199 591.75  Z  " id="path44"/>
<path style="opacity: 1; fill: rgb(255, 255, 255); fill-rule: evenodd; stroke: rgb(0, 0, 0); stroke-width: 3px; stroke-linecap: butt; stroke-linejoin: miter; stroke-opacity: 1;" d="M 405.5 546.75 L 408 546 L 411 547.25 L 414 548.5 L 414.5 548.75 L 415 549 L 415 551 Q 415 553  393.5 557 L 372 561 L 369.25 565 Q 366.5 569  364.25 571.5 Q 362 574  359.5 577 L 357 580 L 342 583.5 L 327 587 L 327.25 583.5 L 327.5 580 L 327.75 579 L 328 578 L 337.5 575 Q 347 572  349 570.25 Q 351 568.5  353.25 565.75 Q 355.5 563  356.25 561.25 L 357 559.5 L 380 553.5 Q 403 547.5  405.5 546.75  Z  " id="path46"/>
<path style="opacity: 1; fill: rgb(255, 255, 255); fill-rule: evenodd; stroke: rgb(0, 0, 0); stroke-width: 3px; stroke-linecap: butt; stroke-linejoin: miter; stroke-opacity: 1;" d="M 412.5 558.75 L 427 556 L 432.5 558.5 L 438 561 L 438 561.5 L 438 562 L 415 567 L 392 572 L 392 571.5 L 392 571 L 388.5 571.75 Q 385 572.5  379.25 578.25 Q 373.5 584  370.25 589 L 367 594 L 351.5 597.75 Q 336 601.5  333.5 600.75 L 331 600 L 331 598.5 L 331 597 L 334.5 595.25 Q 338 593.5  349 591 L 360 588.5 L 365 583.75 Q 370 579  373 573.75 L 376 568.5 L 387 565 Q 398 561.5  412.5 558.75  Z  " id="path48"/>
<path style="opacity: 1; fill: rgb(255, 255, 255); fill-rule: evenodd; stroke: rgb(0, 0, 0); stroke-width: 3px; stroke-linecap: butt; stroke-linejoin: miter; stroke-opacity: 1;" d="M 683 475.75 L 687 472 L 687.5 472 L 688 472 L 686.75 477.5 Q 685.5 483  681.25 490 L 677 497 L 668 499.75 Q 659 502.5  651.5 503.75 L 644 505 L 642.75 505 L 641.5 505 L 638.25 504.75 Q 635 504.5  625.5 508.5 Q 616 512.5  606 515 Q 596 517.5  594.75 516.75 Q 593.5 516  586.25 511.75 L 579 507.5 L 564.5 509.5 Q 550 511.5  543.5 512.5 Q 537 513.5  528 514.25 L 519 515 L 522 508 L 525 501 L 527.25 504 Q 529.5 507  530 507.5 L 530.5 508 L 536.25 505.75 Q 542 503.5  563 502.5 Q 584 501.5  585.5 501.75 L 587 502 L 589.5 505 Q 592 508  593.5 509.5 L 595 511 L 603 509.5 Q 611 508  627 503.25 Q 643 498.5  652 497.5 L 661 496.5 L 666.5 492.25 L 672 488 L 675.5 483.75 Q 679 479.5  683 475.75  Z  " id="path50"/>
<path style="opacity: 1; fill: rgb(255, 255, 255); fill-rule: evenodd; stroke: rgb(0, 0, 0); stroke-width: 3px; stroke-linecap: butt; stroke-linejoin: miter; stroke-opacity: 1;" d="M 662 506 L 660 508 L 630.5 518.25 Q 601 528.5  590.5 525 Q 580 521.5  550 526.5 Q 520 531.5  518.5 529.75 L 517 528 L 517 527 L 517 526 L 543 520.25 Q 569 514.5  580 517 Q 591 519.5  595.75 521.75 L 600.5 524 L 605.75 522.25 Q 611 520.5  627.5 512.75 L 644 505 L 651.5 503.75 Q 659 502.5  668 499.75 L 677 497 L 681.25 490 Q 685.5 483  686.75 477.5 L 688 472 L 687.5 472 L 687 472 L 687.75 470.5 Q 688.5 469  690.75 466 L 693 463 L 696.25 460.5 L 699.5 458 L 693.5 475.5 Q 687.5 493  679.25 497.75 Q 671 502.5  667.5 503.25 L 664 504 L 662 506  Z  " id="path52"/>
<path style="opacity: 1; fill: rgb(255, 255, 255); fill-rule: evenodd; stroke: rgb(0, 0, 0); stroke-width: 3px; stroke-linecap: butt; stroke-linejoin: miter; stroke-opacity: 1;" d="M 156.25 606 L 164 601 L 166 602 L 168 603 L 166.25 608.5 L 164.5 614 L 167.25 614.75 Q 170 615.5  175 616.5 L 180 617.5 L 190.5 613.5 Q 201 609.5  213.5 609 Q 226 608.5  242 614.25 Q 258 620  260 619.75 Q 262 619.5  267 619.25 L 272 619 L 271.75 623 L 271.5 627 L 270.25 628.5 L 269 630 L 267.5 629.25 Q 266 628.5  257.5 626.75 L 249 625 L 249 624.5 L 249 624 L 245.5 623.25 Q 242 622.5  227.5 620 Q 213 617.5  205 619 Q 197 620.5  195.5 622.75 L 194 625 L 181.5 625.25 Q 169 625.5  168.75 625.75 L 168.5 626 L 167.75 625.5 L 167 625 L 160.25 620.5 Q 153.5 616  151 613.5 L 148.5 611 L 156.25 606  Z  " id="path54"/>
<path style="opacity: 1; fill: rgb(255, 255, 255); fill-rule: evenodd; stroke: rgb(0, 0, 0); stroke-width: 3px; stroke-linecap: butt; stroke-linejoin: miter; stroke-opacity: 1;" d="M 438 561.5 L 438 561 L 444 563 L 450 565 L 449.75 565.5 Q 449.5 566  433.75 571.25 Q 418 576.5  403.5 579.75 L 389 583 L 388.5 584.25 Q 388 585.5  378 596 L 368 606.5 L 362 608 Q 356 609.5  347.5 612 Q 339 614.5  336.5 615.75 L 334 617 L 332.75 615 L 331.5 613 L 331.25 611 L 331 609 L 338.5 606.75 Q 346 604.5  356.5 602.25 L 367 600 L 371 594.25 Q 375 588.5  378.25 585.75 Q 381.5 583  384.25 578.75 L 387 574.5 L 389.5 573.25 L 392 572 L 415 567 L 438 562 L 438 561.5  Z  " id="path56"/>
<path style="opacity: 1; fill: rgb(255, 255, 255); fill-rule: evenodd; stroke: rgb(0, 0, 0); stroke-width: 3px; stroke-linecap: butt; stroke-linejoin: miter; stroke-opacity: 1;" d="M 711.5 449 L 710 456 L 708.25 459.5 L 706.5 463 L 705 470 L 703.5 477 L 703 478 Q 702.5 479  698.25 486 L 694 493 L 693 494 Q 692 495  677.5 503.25 Q 663 511.5  655 516 Q 647 520.5  632.5 528.5 Q 618 536.5  616 538.25 L 614 540 L 604.5 540.75 Q 595 541.5  592.75 541.25 L 590.5 541 L 585.75 538.25 L 581 535.5 L 575 535.5 Q 569 535.5  564 536.5 Q 559 537.5  557.5 538.75 L 556 540 L 549 540.25 Q 542 540.5  529.5 543.5 Q 517 546.5  509 548.75 L 501 551 L 500 551 L 499 551 L 503 545.5 L 507 540 L 511.5 539.75 Q 516 539.5  548 534 Q 580 528.5  584.5 531.25 L 589 534 L 605.5 530.75 Q 622 527.5  638.5 520.75 L 655 514 L 657.5 511 L 660 508 L 662 506 L 664 504 L 667.5 503.25 Q 671 502.5  679.25 497.75 Q 687.5 493  693.5 475.5 L 699.5 458 L 696.25 460.5 L 693 463 L 697 457.25 Q 701 451.5  707 446.75 L 713 442 L 711.5 449  Z  " id="path58"/>
<path style="opacity: 1; fill: rgb(255, 255, 255); fill-rule: evenodd; stroke: rgb(0, 0, 0); stroke-width: 3px; stroke-linecap: butt; stroke-linejoin: miter; stroke-opacity: 1;" d="M 449.75 565.5 L 450 565 L 457.5 567.75 Q 465 570.5  466.5 572.25 L 468 574 L 442 580.75 Q 416 587.5  399.5 593.25 L 383 599 L 381.5 601.5 L 380 604 L 377 607.5 Q 374 611  359 615.5 L 344 620 L 343.5 620.25 Q 343 620.5  339.25 619.75 L 335.5 619 L 334.75 618 L 334 617 L 336.5 615.75 Q 339 614.5  347.5 612 Q 356 609.5  362 608 L 368 606.5 L 378 596 Q 388 585.5  388.5 584.25 L 389 583 L 403.5 579.75 Q 418 576.5  433.75 571.25 Q 449.5 566  449.75 565.5  Z  " id="path60"/>
<path style="opacity: 1; fill: rgb(255, 255, 255); fill-rule: evenodd; stroke: rgb(0, 0, 0); stroke-width: 3px; stroke-linecap: butt; stroke-linejoin: miter; stroke-opacity: 1;" d="M 708.25 459.5 L 710 456 L 711.5 457.5 L 713 459 L 713.5 461 L 714 463 L 711.75 471 Q 709.5 479  708.25 482.5 L 707 486 L 704.75 487.5 Q 702.5 489  697.75 496.75 L 693 504.5 L 690.5 504.5 Q 688 504.5  681.75 508.25 Q 675.5 512  667.25 517.25 Q 659 522.5  657.5 524.5 L 656 526.5 L 650 528.5 Q 644 530.5  633 538 Q 622 545.5  593 547.25 L 564 549 L 564 549.5 L 564 550 L 537 555.25 Q 510 560.5  499 563.75 L 488 567 L 487.5 565.75 L 487 564.5 L 489 561.25 Q 491 558  496 555.5 L 501 553 L 501 552 L 501 551 L 509 548.75 Q 517 546.5  529.5 543.5 Q 542 540.5  549 540.25 L 556 540 L 557.5 538.75 Q 559 537.5  564 536.5 Q 569 535.5  575 535.5 L 581 535.5 L 585.75 538.25 L 590.5 541 L 592.75 541.25 Q 595 541.5  604.5 540.75 L 614 540 L 616 538.25 Q 618 536.5  632.5 528.5 Q 647 520.5  655 516 Q 663 511.5  677.5 503.25 Q 692 495  693 494 L 694 493 L 698.25 486 Q 702.5 479  703 478 L 703.5 477 L 705 470 L 706.5 463 L 708.25 459.5  Z  " id="path62"/>
<path style="opacity: 1; fill: rgb(133, 89, 45); fill-rule: evenodd; stroke: rgb(0, 0, 0); stroke-width: 3px; stroke-linecap: butt; stroke-linejoin: miter; stroke-opacity: 1;" d="M 537 555.25 L 564 550 L 564.5 550 L 565 550 L 560.75 559.5 Q 556.5 569  556.25 571.5 L 556 574 L 553.25 576 Q 550.5 578  550.25 579 L 550 580 L 547.5 582.25 Q 545 584.5  544.25 585.25 L 543.5 586 L 542.75 590.5 L 542 595 L 536.5 597.75 Q 531 600.5  528.5 603.75 L 526 607 L 525 608.25 L 524 609.5 L 518.5 605.5 Q 513 601.5  510.5 598.25 L 508 595 L 502 593.25 Q 496 591.5  489.5 588.5 L 483 585.5 L 474 587.5 Q 465 589.5  460 591.75 L 455 594 L 454.75 595.5 Q 454.5 597  451.75 599.25 Q 449 601.5  447.5 605.25 L 446 609 L 420.5 611 L 395 613 L 387.5 608.5 L 380 604 L 381.5 601.5 L 383 599 L 399.5 593.25 Q 416 587.5  442 580.75 L 468 574 L 472.75 576 L 477.5 578 L 481 573 Q 484.5 568  486.25 567.5 L 488 567 L 499 563.75 Q 510 560.5  537 555.25  Z  " id="path64"/>
<path style="opacity: 1; fill: rgb(133, 92, 52); fill-rule: evenodd; stroke: rgb(0, 0, 0); stroke-width: 3px; stroke-linecap: butt; stroke-linejoin: miter; stroke-opacity: 1;" d="M 525 608.25 L 526 607 L 528.5 608.5 L 531 610 L 529.75 612.5 Q 528.5 615  525.25 618.75 Q 522 622.5  519.25 625.75 Q 516.5 629  512.25 634.75 L 508 640.5 L 504.5 641.75 L 501 643 L 492 645.5 L 483 648 L 480 645.25 Q 477 642.5  473.75 639.25 Q 470.5 636  466.25 633.5 L 462 631 L 462 630 L 462 629 L 460 624.75 Q 458 620.5  454 617.75 L 450 615 L 448.5 612 L 447 609 L 446.5 609 L 446 609 L 447.5 605.25 Q 449 601.5  451.75 599.25 Q 454.5 597  454.75 595.5 L 455 594 L 460 591.75 Q 465 589.5  474 587.5 L 483 585.5 L 489.5 588.5 Q 496 591.5  502 593.25 L 508 595 L 510.5 598.25 Q 513 601.5  518.5 605.5 L 524 609.5 L 525 608.25  Z  " id="path66"/>
<path style="opacity: 1; fill: rgb(133, 93, 53); fill-rule: evenodd; stroke: rgb(0, 0, 0); stroke-width: 3px; stroke-linecap: butt; stroke-linejoin: miter; stroke-opacity: 1;" d="M 529.75 612.5 L 531 610 L 533 610.5 L 535 611 L 535 612 L 535 613 L 535 613.5 L 535 614 L 534.25 615.5 Q 533.5 617  533.25 618.5 L 533 620 L 540.75 621.5 L 548.5 623 L 548.75 622.75 Q 549 622.5  553.5 622.25 L 558 622 L 560.5 623.25 Q 563 624.5  569 627 Q 575 629.5  591.5 635.5 Q 608 641.5  613.25 646.25 Q 618.5 651  624.75 666.5 L 631 682 L 631 683 L 631 684 L 624.75 685.5 L 618.5 687 L 618 689.5 L 617.5 692 L 619.25 694.5 L 621 697 L 619.25 699.75 L 617.5 702.5 L 614.75 705.75 L 612 709 L 610.5 707.5 L 609 706 L 609 708.5 Q 609 711  603.5 714.25 Q 598 717.5  592.75 723.75 L 587.5 730 L 586.25 730.5 L 585 731 L 576.5 729.25 Q 568 727.5  566.75 727.25 Q 565.5 727  554.75 724.25 Q 544 721.5  536.5 717.5 L 529 713.5 L 524.25 707.75 Q 519.5 702  516.75 698.75 Q 514 695.5  512.75 692.25 Q 511.5 689  508.75 686.25 L 506 683.5 L 507.75 677.75 Q 509.5 672  509.5 669 L 509.5 666 L 506 659.5 Q 502.5 653  501.25 648.75 L 500 644.5 L 500.5 643.75 L 501 643 L 504.5 641.75 L 508 640.5 L 512.25 634.75 Q 516.5 629  519.25 625.75 Q 522 622.5  525.25 618.75 Q 528.5 615  529.75 612.5  Z  M 610.5 697 L 610.5 697 L 610.5 697  Z  M 610.5 703.5 L 610.5 702 L 610.5 703.5 L 610.5 705 L 610.5 703.5  Z  M 614 696.5 L 616 696.5 L 614 696.5 L 612 696.5 L 614 696.5  Z  " id="path71"/>
<path style="opacity: 1; fill: rgb(133, 93, 54); fill-rule: evenodd; stroke: rgb(0, 0, 0); stroke-width: 3px; stroke-linecap: butt; stroke-linejoin: miter; stroke-opacity: 1;" d="M 643.5 726 L 653 726 L 658 727.5 L 663 729 L 663.5 730.25 L 664 731.5 L 653.25 742.25 Q 642.5 753  640.75 754.25 Q 639 755.5  636 757.5 L 633 759.5 L 629 766.25 Q 625 773  623 773.75 L 621 774.5 L 620.5 774.75 L 620 775 L 610 769.75 Q 600 764.5  597 762.25 Q 594 760  588 757.5 L 582 755 L 585.5 748.25 Q 589 741.5  590 739.75 L 591 738 L 599 734.75 Q 607 731.5  607.5 729.25 L 608 727 L 612 728.25 Q 616 729.5  620 730 Q 624 730.5  629 729.25 Q 634 728  634 727 L 634 726 L 643.5 726  Z  " id="path73"/>
<path style="opacity: 1; fill: rgb(133, 93, 54); fill-rule: evenodd; stroke: rgb(0, 0, 0); stroke-width: 3px; stroke-linecap: butt; stroke-linejoin: miter; stroke-opacity: 1;" d="M 729 796.5 L 729 797 L 730 799.75 Q 731 802.5  733.25 804.75 Q 735.5 807  738.5 826 Q 741.5 845  735.5 860.5 Q 729.5 876  728.75 879.5 L 728 883 L 727.25 884 Q 726.5 885  721.25 889.25 Q 716 893.5  713.5 896.75 L 711 900 L 701.5 901.5 L 692 903 L 691.5 902.75 L 691 902.5 L 688 898.75 Q 685 895  681 892.5 L 677 890 L 675.5 885 L 674 880 L 673.5 880 L 673 880 L 672.75 879.5 Q 672.5 879  670.25 876.25 L 668 873.5 L 667 870.5 L 666 867.5 L 666.25 865.75 Q 666.5 864  666.75 857.5 L 667 851 L 670.25 847.5 Q 673.5 844  680.75 837.25 Q 688 830.5  691.5 826.25 L 695 822 L 704.5 815.25 L 714 808.5 L 715.25 805.75 Q 716.5 803  718.75 801 L 721 799 L 725 797.5 L 729 796 L 729 796.5  Z  " id="path75"/>
<path style="opacity: 1; fill: rgb(133, 93, 54); fill-rule: evenodd; stroke: rgb(0, 0, 0); stroke-width: 3px; stroke-linecap: butt; stroke-linejoin: miter; stroke-opacity: 1;" d="M 731 916.5 L 736 921 L 734.5 921.5 L 733 922 L 734 927.25 Q 735 932.5  737.25 936.25 Q 739.5 940  742.75 943.5 L 746 947 L 749 951.5 L 752 956 L 755 967.75 L 758 979.5 L 760 981.25 L 762 983 L 759 983 L 756 983 L 755.25 985.5 Q 754.5 988  755.75 994.5 Q 757 1001  761.5 1004.75 Q 766 1008.5  771 1016.5 L 776 1024.5 L 773.75 1026.75 Q 771.5 1029  767.25 1030.5 Q 763 1032  761.5 1031.5 Q 760 1031  755 1028 Q 750 1025  749 1022.75 Q 748 1020.5  746 1016.75 L 744 1013 L 743 1012 Q 742 1011  737.5 1008.5 Q 733 1006  731.25 1003.5 Q 729.5 1001  722.75 997 L 716 993 L 712.5 989 L 709 985 L 707.5 982.5 L 706 980 L 701.25 963.5 Q 696.5 947  695.5 943 Q 694.5 939  692 934 L 689.5 929 L 693.5 920.5 L 697.5 912 L 704.75 908.5 L 712 905 L 719 908.5 L 726 912 L 731 916.5  Z  " id="path77"/>
<path style="opacity: 1; fill: rgb(135, 95, 55); fill-rule: evenodd; stroke: rgb(0, 0, 0); stroke-width: 3px; stroke-linecap: butt; stroke-linejoin: miter; stroke-opacity: 1;" d="M 734.5 921.5 L 736 921 L 738.5 922.75 L 741 924.5 L 750.5 924.5 Q 760 924.5  761 924.75 L 762 925 L 764 925.75 L 766 926.5 L 768.75 932.25 Q 771.5 938  775.25 943.25 Q 779 948.5  782.25 952.75 L 785.5 957 L 786 963.5 L 786.5 970 L 795.5 978.5 Q 804.5 987  806.5 993 Q 808.5 999  809.25 1000.25 L 810 1001.5 L 805.25 1004.25 L 800.5 1007 L 796.75 1004.75 Q 793 1002.5  783 998 Q 773 993.5  771 990.5 Q 769 987.5  765.5 985.25 L 762 983 L 760 981.25 L 758 979.5 L 755 967.75 L 752 956 L 749 951.5 L 746 947 L 742.75 943.5 Q 739.5 940  737.25 936.25 Q 735 932.5  734 927.25 L 733 922 L 734.5 921.5  Z  " id="path79"/>
<path style="opacity: 1; fill: rgb(255, 150, 150); fill-rule: evenodd; stroke: rgb(0, 0, 0); stroke-width: 3px; stroke-linecap: butt; stroke-linejoin: miter; stroke-opacity: 1;" d="M 451.5 620 L 450 615 L 454 617.75 Q 458 620.5  460 624.75 L 462 629 L 461.25 632 Q 460.5 635  456.75 638.25 Q 453 641.5  451 643.75 L 449 646 L 440.5 647.75 L 432 649.5 L 428.75 653.25 Q 425.5 657  423 672 Q 420.5 687  419 695.5 Q 417.5 704  416.75 708.25 L 416 712.5 L 415 712.5 Q 414 712.5  412.25 705.25 Q 410.5 698  411.75 684.5 L 413 671 L 411.5 671.25 Q 410 671.5  407.75 677.25 Q 405.5 683  407 687 Q 408.5 691  403.5 696 L 398.5 701 L 399.5 688.5 Q 400.5 676  403 668 L 405.5 660 L 410.25 655.25 Q 415 650.5  419 644.75 L 423 639 L 424.5 638.75 Q 426 638.5  429.25 638.75 L 432.5 639 L 433.75 636.75 Q 435 634.5  444 629.75 L 453 625 L 451.5 620  Z  M 448.25 633.75 L 455.5 629 L 453 633 Q 450.5 637  444.25 640.25 Q 438 643.5  438 641.5 Q 438 639.5  439.5 639 L 441 638.5 L 448.25 633.75  Z  " id="path82"/>
<path style="opacity: 1; fill: rgb(255, 150, 150); fill-rule: evenodd; stroke: rgb(0, 0, 0); stroke-width: 3px; stroke-linecap: butt; stroke-linejoin: miter; stroke-opacity: 1;" d="M 631 683 L 631 682 L 631.5 682 L 632 682 L 632.5 683.25 Q 633 684.5  647.25 689.25 Q 661.5 694  663.5 697 Q 665.5 700  665.5 703 L 665.5 706 L 659.25 709.25 Q 653 712.5  644 715.5 L 635 718.5 L 644 722.25 L 653 726 L 643.5 726 L 634 726 L 634 727 Q 634 728  629 729.25 Q 624 730.5  620 730 Q 616 729.5  612 728.25 L 608 727 L 607.5 729.25 Q 607 731.5  599 734.75 L 591 738 L 590 739.75 Q 589 741.5  585.5 748.25 L 582 755 L 580 755 L 578 755 L 574.5 760.25 Q 571 765.5  569 766.25 L 567 767 L 567 766.5 L 567 766 L 568.25 759 Q 569.5 752  572 749 Q 574.5 746  575.25 742.25 L 576 738.5 L 570 740 Q 564 741.5  553.5 752 L 543 762.5 L 532.5 764 L 522 765.5 L 519 764 Q 516 762.5  512.5 758.25 L 509 754 L 500 755.75 Q 491 757.5  489.75 756.25 L 488.5 755 L 494 749.5 L 499.5 744 L 510.25 749.25 Q 521 754.5  525.75 755.75 L 530.5 757 L 536.75 752.25 Q 543 747.5  546 745.25 Q 549 743  558.5 738.75 Q 568 734.5  576.5 732.75 L 585 731 L 586 730.75 L 587 730.5 L 593.5 723.5 Q 600 716.5  604.5 713.75 Q 609 711  609 708.5 L 609 706 L 610.5 707.5 L 612 709 L 615.5 711.25 L 619 713.5 L 620 713.5 Q 621 713.5  623.75 709.75 L 626.5 706 L 626.75 708 Q 627 710  641.5 707.75 Q 656 705.5  658.25 702.75 L 660.5 700 L 659.5 698.5 Q 658.5 697  649.25 694.75 Q 640 692.5  632.5 691.5 L 625 690.5 L 623 693.75 L 621 697 L 619.25 694.5 L 617.5 692 L 618 689.5 L 618.5 687 L 624.75 685.5 L 631 684 L 631 683  Z  " id="path84"/>
<path style="opacity: 1; fill: rgb(255, 150, 150); fill-rule: evenodd; stroke: rgb(0, 0, 0); stroke-width: 3px; stroke-linecap: butt; stroke-linejoin: miter; stroke-opacity: 1;" d="M 566.5 619.25 L 558 622 L 553.5 622.25 Q 549 622.5  548.75 622.75 L 548.5 623 L 540.75 621.5 L 533 620 L 533.25 618.5 Q 533.5 617  534.25 615.5 L 535 614 L 539 614.25 L 543 614.5 L 541.75 613.25 Q 540.5 612  537.75 612.5 L 535 613 L 535 612 L 535 611 L 533 610.5 L 531 610 L 528.5 608.5 L 526 607 L 528.5 603.75 Q 531 600.5  536.5 597.75 L 542 595 L 542.75 590.5 L 543.5 586 L 544.25 585.25 Q 545 584.5  547.5 582.25 L 550 580 L 556.5 581.25 Q 563 582.5  569 583.25 L 575 584 L 576.75 587.5 Q 578.5 591  576.75 603.75 L 575 616.5 L 566.5 619.25  Z  M 545.5 601 Q 548 600.5  549 601.5 L 550 602.5 L 552 605.5 Q 554 608.5  549.5 608 Q 545 607.5  544 604.5 Q 543 601.5  545.5 601  Z  M 560.5 584.25 Q 563 584  565.5 585.5 Q 568 587  570 587.5 L 572 588 L 572.75 595 Q 573.5 602  573 606.5 L 572.5 611 L 568.75 612.25 Q 565 613.5  560.5 614.25 L 556 615 L 559 608.75 Q 562 602.5  556.75 599.25 Q 551.5 596  551.5 593.5 L 551.5 591 L 554.75 587.75 Q 558 584.5  560.5 584.25  Z  " id="path88"/>
<path style="opacity: 1; fill: rgb(255, 150, 150); fill-rule: evenodd; stroke: rgb(0, 0, 0); stroke-width: 3px; stroke-linecap: butt; stroke-linejoin: miter; stroke-opacity: 1;" d="M 610.25 699 L 610.5 697 L 610.75 698.5 Q 611 700  612.5 700.25 Q 614 700.5  615 700.75 Q 616 701  616 702 L 616 703 L 615.5 702.75 L 615 702.5 L 614 702 Q 613 701.5  611.5 701.25 Q 610 701  610.25 699  Z  " id="path90"/>
<path style="opacity: 1; fill: rgb(255, 150, 150); fill-rule: evenodd; stroke: rgb(0, 0, 0); stroke-width: 3px; stroke-linecap: butt; stroke-linejoin: miter; stroke-opacity: 1;" d="M 610.5 703.5 L 610.5 702 L 610.5 703.5 L 610.5 705 L 610.5 703.5  Z  " id="path92"/>
<path style="opacity: 1; fill: rgb(255, 150, 150); fill-rule: evenodd; stroke: rgb(0, 0, 0); stroke-width: 3px; stroke-linecap: butt; stroke-linejoin: miter; stroke-opacity: 1;" d="M 614 696.5 L 616 696.5 L 614 696.5 L 612 696.5 L 614 696.5  Z  " id="path94"/>
<path style="opacity: 1; fill: rgb(255, 150, 150); fill-rule: evenodd; stroke: rgb(0, 0, 0); stroke-width: 3px; stroke-linecap: butt; stroke-linejoin: miter; stroke-opacity: 1;" d="M 727.25 884 L 728 883 L 734 883.25 Q 740 883.5  742.5 883.5 Q 745 883.5  749 884 L 753 884.5 L 757.5 890.5 Q 762 896.5  762.5 897 L 763 897.5 L 763.25 900.75 Q 763.5 904  763.25 914.5 L 763 925 L 762.5 925 L 762 925 L 761 924.75 Q 760 924.5  750.5 924.5 L 741 924.5 L 738.5 922.75 L 736 921 L 731 916.5 L 726 912 L 719 908.5 L 712 905 L 704.75 908.5 L 697.5 912 L 693.5 920.5 L 689.5 929 L 692 934 Q 694.5 939  695.5 943 Q 696.5 947  701.25 963.5 L 706 980 L 707.5 982.5 L 709 985 L 706.75 986 L 704.5 987 L 704.5 990 L 704.5 993 L 705.5 995.5 Q 706.5 998  709.75 1005 L 713 1012 L 710.5 1012.25 Q 708 1012.5  704.25 1016.75 Q 700.5 1021  697.25 1024 L 694 1027 L 692.75 1025.5 Q 691.5 1024  690.75 1019.5 L 690 1015 L 689 1014.75 Q 688 1014.5  685.75 1009.25 L 683.5 1004 L 681 1002 Q 678.5 1000  676 981.5 Q 673.5 963  676.5 954 Q 679.5 945  679.75 942.5 L 680 940 L 677 940.5 Q 674 941  669.25 950 Q 664.5 959  662 973 Q 659.5 987  657 996 L 654.5 1005 L 653.5 1011 Q 652.5 1017  651.75 1019.75 L 651 1022.5 L 644.5 1025.5 Q 638 1028.5  635.5 1027.5 L 633 1026.5 L 633.25 1023.25 Q 633.5 1020  635 1015.5 Q 636.5 1011  639.25 1008.5 L 642 1006 L 643.75 1000.5 L 645.5 995 L 645 988 Q 644.5 981  646.25 978.25 L 648 975.5 L 647.75 975.25 Q 647.5 975  648.25 970.75 Q 649 966.5  649.5 963.5 L 650 960.5 L 653.25 956.25 L 656.5 952 L 653.5 945.5 L 650.5 939 L 650.5 936.5 L 650.5 934 L 653.5 929.5 Q 656.5 925  660.75 918 L 665 911 L 674 908.75 Q 683 906.5  684.75 906.75 L 686.5 907 L 689.25 905.5 L 692 904 L 692 903.5 L 692 903 L 701.5 901.5 L 711 900 L 713.5 896.75 Q 716 893.5  721.25 889.25 Q 726.5 885  727.25 884  Z  M 676.5 917.75 Q 679 917  679.75 919.5 L 680.5 922 L 677.75 927 Q 675 932  669.75 934.5 L 664.5 937 L 664.5 933 Q 664.5 929  669.25 923.75 Q 674 918.5  676.5 917.75  Z  M 683 951.25 Q 684 951  686.5 954 Q 689 957  691.25 959.5 Q 693.5 962  694 977.5 L 694.5 993 L 689 988.5 Q 683.5 984  682.75 967.75 L 682 951.5 L 683 951.25  Z  M 729 896.25 Q 735 894.5  743 896.5 Q 751 898.5  751.5 899.75 L 752 901 L 751 903.75 Q 750 906.5  747.25 908.75 L 744.5 911 L 739.25 909.25 Q 734 907.5  728.5 902.75 L 723 898 L 729 896.25  Z  " id="path99"/>
<path style="opacity: 1; fill: rgb(146, 140, 255); fill-rule: evenodd; stroke: rgb(0, 0, 0); stroke-width: 3px; stroke-linecap: butt; stroke-linejoin: miter; stroke-opacity: 1;" d="M 377 607.5 L 380 604 L 387.5 608.5 L 395 613 L 420.5 611 L 446 609 L 446.5 609 L 447 609 L 448.5 612 L 450 615 L 451.5 620 L 453 625 L 444 629.75 Q 435 634.5  433.75 636.75 L 432.5 639 L 429.25 638.75 Q 426 638.5  424.5 638.75 L 423 639 L 419 644.75 Q 415 650.5  410.25 655.25 L 405.5 660 L 403 668 Q 400.5 676  399.5 688.5 L 398.5 701 L 403.5 696 Q 408.5 691  407 687 Q 405.5 683  407.75 677.25 Q 410 671.5  411.5 671.25 L 413 671 L 411.75 684.5 Q 410.5 698  412.25 705.25 Q 414 712.5  415 712.5 L 416 712.5 L 416.75 708.25 Q 417.5 704  419 695.5 Q 420.5 687  423 672 Q 425.5 657  428.75 653.25 L 432 649.5 L 440.5 647.75 L 449 646 L 451 643.75 Q 453 641.5  456.75 638.25 Q 460.5 635  461.25 632 L 462 629 L 462 630 L 462 631 L 466.25 633.5 Q 470.5 636  473.75 639.25 Q 477 642.5  480 645.25 L 483 648 L 492 645.5 L 501 643 L 500.5 643.75 L 500 644.5 L 501.25 648.75 Q 502.5 653  506 659.5 L 509.5 666 L 509.5 669 Q 509.5 672  507.75 677.75 L 506 683.5 L 508.75 686.25 Q 511.5 689  512.75 692.25 Q 514 695.5  516.75 698.75 Q 519.5 702  524.25 707.75 L 529 713.5 L 536.5 717.5 Q 544 721.5  554.75 724.25 Q 565.5 727  566.75 727.25 Q 568 727.5  576.5 729.25 L 585 731 L 576.5 732.75 Q 568 734.5  558.5 738.75 Q 549 743  546 745.25 Q 543 747.5  536.75 752.25 L 530.5 757 L 525.75 755.75 Q 521 754.5  510.25 749.25 L 499.5 744 L 494 749.5 L 488.5 755 L 489.75 756.25 Q 491 757.5  500 755.75 L 509 754 L 512.5 758.25 Q 516 762.5  519 764 L 522 765.5 L 532.5 764 L 543 762.5 L 553.5 752 Q 564 741.5  570 740 L 576 738.5 L 575.25 742.25 Q 574.5 746  572 749 Q 569.5 752  568.25 759 L 567 766 L 567 766.5 L 567 767 L 565.5 767 L 564 767 L 555.5 767.25 Q 547 767.5  542 770 L 537 772.5 L 533.5 777.25 L 530 782 L 521.5 784.75 L 513 787.5 L 508 795 L 503 802.5 L 496 804.5 Q 489 806.5  486.5 808.75 L 484 811 L 483 811 L 482 811 L 475 812 L 468 813 L 465.25 816.5 Q 462.5 820  457.75 822 L 453 824 L 452 825.75 Q 451 827.5  446.5 835.75 L 442 844 L 436.5 847.25 Q 431 850.5  427.5 855.75 L 424 861 L 416.5 864.75 Q 409 868.5  403 871.5 Q 397 874.5  390.5 879 L 384 883.5 L 381.5 883.5 Q 379 883.5  378 884.75 Q 377 886  364.5 887.75 Q 352 889.5  349.25 888.75 L 346.5 888 L 338.5 879.5 Q 330.5 871  318.5 852.5 Q 306.5 834  302.75 828.75 L 299 823.5 L 301 820.5 Q 303 817.5  299.5 814 L 296 810.5 L 296.5 809 Q 297 807.5  294.25 798.25 Q 291.5 789  290.25 786.25 L 289 783.5 L 288.25 775.75 Q 287.5 768  284 755.5 L 280.5 743 L 281 737 L 281.5 731 L 278.5 727 L 275.5 723 L 276.25 716.5 L 277 710 L 275.5 708.75 Q 274 707.5  271.25 703.75 L 268.5 700 L 268.5 699 Q 268.5 698  270.75 695.5 Q 273 693  271.5 681.5 L 270 670 L 267.5 666.5 Q 265 663  260.75 660 L 256.5 657 L 255 649 Q 253.5 641  253.25 638.5 L 253 636 L 250.5 630.5 L 248 625 L 248.5 625 L 249 625 L 257.5 626.75 Q 266 628.5  267.5 629.25 L 269 630 L 271.5 632 L 274 634 L 275.25 644 Q 276.5 654  278.75 657.25 L 281 660.5 L 281.25 662.25 Q 281.5 664  281.75 669.25 L 282 674.5 L 285 679.75 L 288 685 L 288 690.75 L 288 696.5 L 290.25 700.75 Q 292.5 705  292.75 706 L 293 707 L 297 709.5 L 301 712 L 304.5 716.75 Q 308 721.5  308.5 722.25 L 309 723 L 318 725.5 Q 327 728  329.5 728.75 L 332 729.5 L 334 729.25 Q 336 729  335.25 720.5 Q 334.5 712  332.5 707 Q 330.5 702  330.5 700 L 330.5 698 L 326.25 691.5 Q 322 685  320.25 682.5 L 318.5 680 L 319.75 675 L 321 670 L 321.5 668 L 322 666 L 322.5 666 L 323 666 L 325.5 667.25 Q 328 668.5  341 673 Q 354 677.5  366.5 675 Q 379 672.5  385.25 668.75 Q 391.5 665  391.5 664 L 391.5 663 L 390.75 662.75 Q 390 662.5  386 662.75 L 382 663 L 375.75 657.5 L 369.5 652 L 366 647 Q 362.5 642  356.25 638 L 350 634 L 349 631.5 Q 348 629  346 624.5 L 344 620 L 359 615.5 Q 374 611  377 607.5  Z  " id="path101"/>
<path style="opacity: 1; fill: rgb(146, 140, 255); fill-rule: evenodd; stroke: rgb(0, 0, 0); stroke-width: 3px; stroke-linecap: butt; stroke-linejoin: miter; stroke-opacity: 1;" d="M 807 727.25 L 808 727 L 812.5 727 L 817 727 L 817.5 727 L 818 727 L 818.5 729.25 L 819 731.5 L 819.5 731.75 L 820 732 L 824 745.25 L 828 758.5 L 827.25 761.25 Q 826.5 764  830 779 Q 833.5 794  835 804 Q 836.5 814  840 846 Q 843.5 878  846.75 897.5 L 850 917 L 848.5 922 L 847 927 L 849 929 Q 851 931  855.5 945.75 L 860 960.5 L 859.75 962.75 Q 859.5 965  859.5 967.5 L 859.5 970 L 864.75 977.5 L 870 985 L 867.75 987 Q 865.5 989  865.5 991 L 865.5 993 L 862.25 995.5 Q 859 998  854 998.75 L 849 999.5 L 846 1004 L 843 1008.5 L 837.75 1012.25 Q 832.5 1016  831.75 1021 L 831 1026 L 829.5 1026.25 Q 828 1026.5  820.5 1031 Q 813 1035.5  803.5 1039 Q 794 1042.5  792.5 1044.5 L 791 1046.5 L 782 1047 L 773 1047.5 L 770.5 1049.5 Q 768 1051.5  765.5 1052.25 Q 763 1053  757.5 1054.25 Q 752 1055.5  750 1057.25 L 748 1059 L 747.5 1060 L 747 1061 L 744.5 1060.25 Q 742 1059.5  739.5 1061.25 Q 737 1063  732.75 1060 L 728.5 1057 L 724 1060 Q 719.5 1063  715 1062 L 710.5 1061 L 707.25 1062.25 Q 704 1063.5  701.75 1063.75 L 699.5 1064 L 694.25 1066.5 L 689 1069 L 688 1070.75 Q 687 1072.5  685 1074.75 L 683 1077 L 680.5 1077.25 Q 678 1077.5  672.75 1079.25 L 667.5 1081 L 666.75 1083 Q 666 1085  658.5 1087.5 Q 651 1090  649.5 1092.5 L 648 1095 L 647.25 1095.5 L 646.5 1096 L 644.75 1095 L 643 1094 L 640.25 1094.5 L 637.5 1095 L 632.75 1098.75 Q 628 1102.5  627.5 1105 L 627 1107.5 L 625.5 1108 Q 624 1108.5  622 1109 Q 620 1109.5  612.5 1110 Q 605 1110.5  600.25 1112.75 Q 595.5 1115  586.25 1121.25 L 577 1127.5 L 577.5 1128.25 L 578 1129 L 561.5 1129.25 Q 545 1129.5  533.5 1129 Q 522 1128.5  520 1126.75 L 518 1125 L 512.5 1125.5 L 507 1126 L 507 1123.25 Q 507 1120.5  506.5 1117.5 L 506 1114.5 L 504 1114.25 Q 502 1114  500.75 1112.5 Q 499.5 1111  497 1110.5 L 494.5 1110 L 493.25 1110.5 Q 492 1111  487.5 1114 L 483 1117 L 480.5 1119.75 Q 478 1122.5  475.25 1124.75 L 472.5 1127 L 468.75 1126.25 Q 465 1125.5  461 1126 Q 457 1126.5  454.5 1127.5 L 452 1128.5 L 428 1129.5 Q 404 1130.5  399.5 1129.25 L 395 1128 L 397 1123 L 399 1118 L 401 1117.75 Q 403 1117.5  404.5 1115.5 Q 406 1113.5  410 1111 Q 414 1108.5  419.5 1104 Q 425 1099.5  432.5 1093 Q 440 1086.5  442.5 1081.5 L 445 1076.5 L 455.75 1067.25 L 466.5 1058 L 468.75 1049.5 Q 471 1041  471 1038.5 L 471 1036 L 472 1035.75 Q 473 1035.5  477.25 1027.75 L 481.5 1020 L 483.25 1018.25 L 485 1016.5 L 486 1016.25 L 487 1016 L 487.75 1018 L 488.5 1020 L 496.75 1020.75 Q 505 1021.5  511.5 1021 Q 518 1020.5  527 1017.75 L 536 1015 L 541.5 1009.75 Q 547 1004.5  548.75 1001.75 Q 550.5 999  551 996.5 Q 551.5 994  555.75 993.5 L 560 993 L 565.75 980 Q 571.5 967  574 956 L 576.5 945 L 575.75 943.5 L 575 942 L 576 937 L 577 932 L 578 931 Q 579 930  584.5 925.25 Q 590 920.5  594 918.25 L 598 916 L 606 907.75 Q 614 899.5  619 894.25 L 624 889 L 624 889.5 Q 624 890  635.75 893 L 647.5 896 L 654 891.5 Q 660.5 887  664 884 Q 667.5 881  670.25 880.5 L 673 880 L 673.5 880 L 674 880 L 675.5 885 L 677 890 L 681 892.5 Q 685 895  688.5 899 L 692 903 L 692 903.5 L 692 904 L 689.25 905.5 L 686.5 907 L 684.75 906.75 Q 683 906.5  674 908.75 L 665 911 L 660.75 918 Q 656.5 925  653.5 929.5 L 650.5 934 L 650.5 936.5 L 650.5 939 L 653.5 945.5 L 656.5 952 L 653.25 956.25 L 650 960.5 L 649.5 963.5 Q 649 966.5  648.25 970.75 Q 647.5 975  647.75 975.25 L 648 975.5 L 646.25 978.25 Q 644.5 981  645 988 L 645.5 995 L 643.75 1000.5 L 642 1006 L 639.25 1008.5 Q 636.5 1011  635 1015.5 Q 633.5 1020  633.25 1023.25 L 633 1026.5 L 635.5 1027.5 Q 638 1028.5  644.5 1025.5 L 651 1022.5 L 651.75 1019.75 Q 652.5 1017  653.5 1011 L 654.5 1005 L 657 996 Q 659.5 987  662 973 Q 664.5 959  669.25 950 Q 674 941  677 940.5 L 680 940 L 679.75 942.5 Q 679.5 945  676.5 954 Q 673.5 963  676 981.5 Q 678.5 1000  680.75 1001.75 L 683 1003.5 L 685.5 1009 Q 688 1014.5  689 1014.75 L 690 1015 L 690.75 1019.5 Q 691.5 1024  692.75 1025.5 L 694 1027 L 697.25 1024 Q 700.5 1021  704.25 1016.75 Q 708 1012.5  710.5 1012.25 L 713 1012 L 709.75 1005 Q 706.5 998  705.5 995.5 L 704.5 993 L 704.5 990 L 704.5 987 L 706.75 986 L 709 985 L 712.5 989 L 716 993 L 722.75 997 Q 729.5 1001  731.25 1003.5 Q 733 1006  737.5 1008.5 Q 742 1011  743 1012 L 744 1013 L 746 1016.75 Q 748 1020.5  749 1022.75 Q 750 1025  755 1028 Q 760 1031  761.5 1031.5 Q 763 1032  767.25 1030.5 Q 771.5 1029  773.75 1026.75 L 776 1024.5 L 771 1016.5 Q 766 1008.5  761.5 1004.75 Q 757 1001  755.75 994.5 Q 754.5 988  755.25 985.5 L 756 983 L 759 983 L 762 983 L 765.5 985.25 Q 769 987.5  771 990.5 Q 773 993.5  783 998 Q 793 1002.5  796.75 1004.75 L 800.5 1007 L 805.25 1004.25 L 810 1001.5 L 809.25 1000.25 Q 808.5 999  806.5 993 Q 804.5 987  795.5 978.5 L 786.5 970 L 786 963.5 L 785.5 957 L 782.25 952.75 Q 779 948.5  775.25 943.25 Q 771.5 938  768.75 932.25 L 766 926.5 L 764 925.75 L 762 925 L 762.5 925 L 763 925 L 763.25 914.5 Q 763.5 904  763.25 900.75 L 763 897.5 L 762.5 897 Q 762 896.5  757.5 890.5 L 753 884.5 L 749 884 Q 745 883.5  742.5 883.5 Q 740 883.5  734 883.25 L 728 883 L 728.75 879.5 Q 729.5 876  735.5 860.5 Q 741.5 845  738.5 826 Q 735.5 807  731.75 802.75 L 728 798.5 L 728.5 797.75 L 729 797 L 731.25 794.5 Q 733.5 792  738.75 787.25 Q 744 782.5  775 755 L 806 727.5 L 807 727.25  Z  " id="path103"/>
<path style="opacity: 1; fill: rgb(146, 140, 255); fill-rule: evenodd; stroke: rgb(0, 0, 0); stroke-width: 3px; stroke-linecap: butt; stroke-linejoin: miter; stroke-opacity: 1;" d="M 448.25 633.75 L 455.5 629 L 453 633 Q 450.5 637  444.25 640.25 Q 438 643.5  438 641.5 Q 438 639.5  439.5 639 L 441 638.5 L 448.25 633.75  Z  " id="path105"/>
<path style="opacity: 1; fill: rgb(146, 140, 255); fill-rule: evenodd; stroke: rgb(0, 0, 0); stroke-width: 3px; stroke-linecap: butt; stroke-linejoin: miter; stroke-opacity: 1;" d="M 539 614.25 L 535 614 L 535 613.5 L 535 613 L 537.75 612.5 Q 540.5 612  541.75 613.25 L 543 614.5 L 539 614.25  Z  " id="path107"/>
<path style="opacity: 1; fill: rgb(146, 140, 255); fill-rule: evenodd; stroke: rgb(0, 0, 0); stroke-width: 3px; stroke-linecap: butt; stroke-linejoin: miter; stroke-opacity: 1;" d="M 545.5 601 Q 548 600.5  549 601.5 L 550 602.5 L 552 605.5 Q 554 608.5  549.5 608 Q 545 607.5  544 604.5 Q 543 601.5  545.5 601  Z  " id="path109"/>
<path style="opacity: 1; fill: rgb(146, 140, 255); fill-rule: evenodd; stroke: rgb(0, 0, 0); stroke-width: 3px; stroke-linecap: butt; stroke-linejoin: miter; stroke-opacity: 1;" d="M 704.75 487.5 L 707 486 L 710 487.75 Q 713 489.5  724.5 494.25 Q 736 499  738.5 501.25 Q 741 503.5  750 509 Q 759 514.5  770.75 522.25 Q 782.5 530  798.75 544.5 L 815 559 L 815 559.5 L 815 560 L 803.5 562.25 Q 792 564.5  784.75 570.25 Q 777.5 576  769.75 580.5 L 762 585 L 762 589 L 762 593 L 760.25 593.5 Q 758.5 594  757.5 597.5 L 756.5 601 L 751.5 605 L 746.5 609 L 744 618.5 Q 741.5 628  744 642 Q 746.5 656  746.5 661.5 Q 746.5 667  744.5 669.5 Q 742.5 672  742.75 674 L 743 676 L 743.5 676 L 744 676 L 744 677 L 744 678 L 738 680.5 Q 732 683  730.5 686 L 729 689 L 720.5 691.75 Q 712 694.5  700.5 703.5 Q 689 712.5  678.5 720.5 L 668 728.5 L 665.5 728.75 L 663 729 L 658 727.5 L 653 726 L 644 722.25 L 635 718.5 L 644 715.5 Q 653 712.5  659.25 709.25 L 665.5 706 L 665.5 703 Q 665.5 700  663.5 697 Q 661.5 694  647.25 689.25 L 633 684.5 L 632 683.25 L 631 682 L 624.75 666.5 Q 618.5 651  613.25 646.25 Q 608 641.5  591.5 635.5 Q 575 629.5  569 627 Q 563 624.5  560.5 623.25 L 558 622 L 566.5 619.25 L 575 616.5 L 576.75 603.75 Q 578.5 591  576.75 587.5 L 575 584 L 569 583.25 Q 563 582.5  556.5 581.25 L 550 580 L 550.25 579 Q 550.5 578  553.25 576 L 556 574 L 558.75 564.5 Q 561.5 555  562.75 552.5 L 564 550 L 564 549.5 L 564 549 L 593 547.25 Q 622 545.5  633 538 Q 644 530.5  650 528.5 L 656 526.5 L 657.5 524.5 Q 659 522.5  667.25 517.25 Q 675.5 512  681.75 508.25 Q 688 504.5  690.5 504.5 L 693 504.5 L 697.75 496.75 Q 702.5 489  704.75 487.5  Z  " id="path111"/>
<path style="opacity: 1; fill: rgb(146, 140, 255); fill-rule: evenodd; stroke: rgb(0, 0, 0); stroke-width: 3px; stroke-linecap: butt; stroke-linejoin: miter; stroke-opacity: 1;" d="M 560.5 584.25 Q 563 584  565.5 585.5 Q 568 587  570 587.5 L 572 588 L 572.75 595 Q 573.5 602  573 606.5 L 572.5 611 L 568.75 612.25 Q 565 613.5  560.5 614.25 L 556 615 L 559 608.75 Q 562 602.5  556.75 599.25 Q 551.5 596  551.5 593.5 L 551.5 591 L 554.75 587.75 Q 558 584.5  560.5 584.25  Z  " id="path113"/>
<path style="opacity: 1; fill: rgb(146, 140, 255); fill-rule: evenodd; stroke: rgb(0, 0, 0); stroke-width: 3px; stroke-linecap: butt; stroke-linejoin: miter; stroke-opacity: 1;" d="M 614.5 710.75 L 612 709 L 614 706 L 616 703 L 618.5 700 L 621 697 L 623 693.75 L 625 690.5 L 632.5 691.5 Q 640 692.5  649.25 694.75 Q 658.5 697  659.5 698.5 L 660.5 700 L 658.25 702.75 Q 656 705.5  641.5 707.75 Q 627 710  626.75 708 L 626.5 706 L 623.75 709.75 Q 621 713.5  619 713 L 617 712.5 L 614.5 710.75  Z  " id="path115"/>
<path style="opacity: 1; fill: rgb(146, 140, 255); fill-rule: evenodd; stroke: rgb(0, 0, 0); stroke-width: 3px; stroke-linecap: butt; stroke-linejoin: miter; stroke-opacity: 1;" d="M 676.5 917.75 Q 679 917  679.75 919.5 L 680.5 922 L 677.75 927 Q 675 932  669.75 934.5 L 664.5 937 L 664.5 933 Q 664.5 929  669.25 923.75 Q 674 918.5  676.5 917.75  Z  " id="path117"/>
<path style="opacity: 1; fill: rgb(146, 140, 255); fill-rule: evenodd; stroke: rgb(0, 0, 0); stroke-width: 3px; stroke-linecap: butt; stroke-linejoin: miter; stroke-opacity: 1;" d="M 683 951.25 Q 684 951  686.5 954 Q 689 957  691.25 959.5 Q 693.5 962  694 977.5 L 694.5 993 L 689 988.5 Q 683.5 984  682.75 967.75 L 682 951.5 L 683 951.25  Z  " id="path119"/>
<path style="opacity: 1; fill: rgb(146, 140, 255); fill-rule: evenodd; stroke: rgb(0, 0, 0); stroke-width: 3px; stroke-linecap: butt; stroke-linejoin: miter; stroke-opacity: 1;" d="M 729 896.25 Q 735 894.5  743 896.5 Q 751 898.5  751.5 899.75 L 752 901 L 751 903.75 Q 750 906.5  747.25 908.75 L 744.5 911 L 739.25 909.25 Q 734 907.5  728.5 902.75 L 723 898 L 729 896.25  Z  " id="path121"/>
<path style="opacity: 1; fill: rgb(139, 133, 255); fill-rule: evenodd; stroke: rgb(0, 0, 0); stroke-width: 3px; stroke-linecap: butt; stroke-linejoin: miter; stroke-opacity: 1;" d="M 249 624.5 L 249 625 L 248.75 626.5 Q 248.5 628  250.75 632 L 253 636 L 253.25 638.5 Q 253.5 641  255 649 L 256.5 657 L 260.75 660 Q 265 663  267.5 666.5 L 270 670 L 271.5 681.5 Q 273 693  270.75 695.5 Q 268.5 698  268.5 699 L 268.5 700 L 271.25 703.75 Q 274 707.5  275.5 708.75 L 277 710 L 276.25 716.5 L 275.5 723 L 278.5 727 L 281.5 731 L 281 737 L 280.5 743 L 284 755.5 Q 287.5 768  288.25 775.75 L 289 783.5 L 290.25 786.25 Q 291.5 789  294.25 798.25 Q 297 807.5  296.5 809 L 296 810.5 L 299.5 814 Q 303 817.5  301 820.5 L 299 823.5 L 302.75 828.75 Q 306.5 834  318.5 852.5 Q 330.5 871  338.5 879.5 L 346.5 888 L 349.25 888.75 Q 352 889.5  364.5 887.75 Q 377 886  378 884.75 Q 379 883.5  381.5 883.5 L 384 883.5 L 390.5 879 Q 397 874.5  403 871.5 Q 409 868.5  416.5 864.75 L 424 861 L 427.5 855.75 Q 431 850.5  436.5 847.25 L 442 844 L 446.5 835.75 Q 451 827.5  452 825.75 L 453 824 L 457.75 822 Q 462.5 820  465.25 816.5 L 468 813 L 475 812 L 482 811 L 482.5 813.25 Q 483 815.5  484.25 817.25 Q 485.5 819  483.25 823.5 L 481 828 L 482 828 Q 483 828  481 836.5 L 479 845 L 480.25 847.5 Q 481.5 850  481 852 Q 480.5 854  479.5 859 L 478.5 864 L 481.75 872.5 Q 485 881  486.5 881.5 L 488 882 L 488 882.5 L 488 883 L 484.5 885 Q 481 887  479 889.25 Q 477 891.5  467.5 898.25 L 458 905 L 451.5 907.75 Q 445 910.5  430 917.5 L 415 924.5 L 409 928 Q 403 931.5  393 935.75 Q 383 940  383 941.5 L 383 943 L 377.25 944 Q 371.5 945  364.25 949.25 L 357 953.5 L 346.75 963.25 Q 336.5 973  336.75 973.25 L 337 973.5 L 331 975.75 Q 325 978  322.5 981 Q 320 984  315.25 987 Q 310.5 990  307.75 993 Q 305 996  298.5 998 L 292 1000 L 290 1002.25 Q 288 1004.5  281.25 1010.25 Q 274.5 1016  272.25 1017.5 Q 270 1019  268.5 1019 L 267 1019 L 266 1024 L 265 1029 L 259.25 1033 Q 253.5 1037  242.75 1047.75 Q 232 1058.5  221 1068.25 Q 210 1078  208.5 1081 L 207 1084 L 203 1087 Q 199 1090  196 1093.25 Q 193 1096.5  180.5 1107 Q 168 1117.5  164.75 1120.25 Q 161.5 1123  161.25 1125.5 L 161 1128 L 150 1125.25 Q 139 1122.5  132.5 1119.5 L 126 1116.5 L 122 1110.25 L 118 1104 L 109.5 1103.75 Q 101 1103.5  100 1103 L 99 1102.5 L 97.75 1098.75 Q 96.5 1095  96.25 1092.5 L 96 1090 L 93.5 1088.75 Q 91 1087.5  87.5 1082.75 Q 84 1078  80.25 1078.5 L 76.5 1079 L 74.5 1075 Q 72.5 1071  71.75 1067.75 Q 71 1064.5  69 1061.5 Q 67 1058.5  65.75 1052.75 L 64.5 1047 L 60 1040.5 L 55.5 1034 L 55.5 1031 Q 55.5 1028  54.25 1024.75 L 53 1021.5 L 55.25 1017.25 Q 57.5 1013  58.75 1009.75 L 60 1006.5 L 60.5 991.25 Q 61 976  62 976 L 63 976 L 62.75 970.5 L 62.5 965 L 65.5 960.5 Q 68.5 956  70 947 Q 71.5 938  71.25 934.25 L 71 930.5 L 73.75 922.75 Q 76.5 915  78.5 914 L 80.5 913 L 81 908.5 Q 81.5 904  83.75 901.5 L 86 899 L 85.75 894 L 85.5 889 L 89.5 871 Q 93.5 853  96 831 Q 98.5 809  99.25 807 Q 100 805  101.75 784 Q 103.5 763  107.5 748 Q 111.5 733  115.5 724 Q 119.5 715  122.75 704 Q 126 693  130 687.75 L 134 682.5 L 133.75 680.75 Q 133.5 679  135.25 676.25 Q 137 673.5  140.5 665.25 Q 144 657  150 650.75 L 156 644.5 L 158.5 637.75 Q 161 631  164 628 L 167 625 L 167.75 625.5 L 168.5 626 L 168.75 625.75 Q 169 625.5  181.5 625.25 L 194 625 L 195.5 622.75 Q 197 620.5  205 619 Q 213 617.5  227.5 620 Q 242 622.5  245.5 623.25 L 249 624 L 249 624.5  Z  " id="path123"/>
<path style="opacity: 1; fill: rgb(139, 133, 255); fill-rule: evenodd; stroke: rgb(0, 0, 0); stroke-width: 3px; stroke-linecap: butt; stroke-linejoin: miter; stroke-opacity: 1;" d="M 570.5 940.75 L 575 942 L 575.75 943.5 L 576.5 945 L 574 956 Q 571.5 967  565.75 980 L 560 993 L 555.75 993.5 Q 551.5 994  551 996.5 Q 550.5 999  548.75 1001.75 Q 547 1004.5  541.5 1009.75 L 536 1015 L 527 1017.75 Q 518 1020.5  511.5 1021 Q 505 1021.5  496.75 1020.75 L 488.5 1020 L 487.75 1018 L 487 1016 L 490.5 1010 Q 494 1004  493.25 1001.5 L 492.5 999 L 494.25 997.75 Q 496 996.5  499 990.75 L 502 985 L 504.5 985.25 Q 507 985.5  509.25 984.25 L 511.5 983 L 514.5 979.5 Q 517.5 976  523.75 973 L 530 970 L 530 969 Q 530 968  534 965.75 Q 538 963.5  543.25 958.25 Q 548.5 953  557.25 946.25 L 566 939.5 L 570.5 940.75  Z  " id="path125"/>
<path style="opacity: 1; fill: rgb(139, 133, 255); fill-rule: evenodd; stroke: rgb(0, 0, 0); stroke-width: 3px; stroke-linecap: butt; stroke-linejoin: miter; stroke-opacity: 1;" d="M 864 561.25 L 872 566 L 872 566.5 L 872 567 L 869.5 568 L 867 569 L 867 569.5 L 867 570 L 855 567.25 L 843 564.5 L 840.25 565.25 L 837.5 566 L 837.25 566.5 L 837 567 L 826 568.25 Q 815 569.5  809.5 572.5 L 804 575.5 L 803 575.75 L 802 576 L 801.25 575 L 800.5 574 L 790.75 578.25 Q 781 582.5  777 586 Q 773 589.5  770.25 590.25 L 767.5 591 L 765.75 592 L 764 593 L 763 593 L 762 593 L 762 589 L 762 585 L 769.75 580.5 Q 777.5 576  784.75 570.25 Q 792 564.5  803.5 562.25 L 815 560 L 815 559.5 L 815 559 L 835.5 557.75 Q 856 556.5  864 561.25  Z  " id="path127"/>
<path style="opacity: 1; fill: rgb(139, 133, 255); fill-rule: evenodd; stroke: rgb(0, 0, 0); stroke-width: 3px; stroke-linecap: butt; stroke-linejoin: miter; stroke-opacity: 1;" d="M 811.5 717.5 L 814 715 L 814 715.5 L 814 716 L 815.5 718.5 L 817 721 L 819.5 723.5 Q 822 726  819.5 726.5 L 817 727 L 812.5 727 L 808 727 L 808.5 723.5 Q 809 720  811.5 717.5  Z  " id="path129"/>
<path style="opacity: 1; fill: rgb(139, 133, 255); fill-rule: evenodd; stroke: rgb(0, 0, 0); stroke-width: 3px; stroke-linecap: butt; stroke-linejoin: miter; stroke-opacity: 1;" d="M 925.5 631 L 926 632 L 926 632.5 L 926 633 L 927.5 640 L 929 647 L 926.25 654 Q 923.5 661  920 667.5 Q 916.5 674  912 680 Q 907.5 686  905 688 L 902.5 690 L 901.25 694.75 Q 900 699.5  898.25 704.25 L 896.5 709 L 895.75 709.75 Q 895 710.5  892.5 714.25 L 890 718 L 888.5 718.75 Q 887 719.5  884 722.75 L 881 726 L 877.5 725 Q 874 724  872.25 723.5 L 870.5 723 L 868.25 725.25 Q 866 727.5  862.25 727.25 Q 858.5 727  854.5 727.5 L 850.5 728 L 850.25 727 L 850 726 L 849.75 725 Q 849.5 724  851 717.5 Q 852.5 711  853.5 707 Q 854.5 703  852.75 700.5 Q 851 698  848.5 695.5 L 846 693 L 850.5 688.75 Q 855 684.5  862.25 678.25 Q 869.5 672  872.5 670 Q 875.5 668  886.25 659.75 Q 897 651.5  898.5 651.5 L 900 651.5 L 905.5 645.25 Q 911 639  914.25 636.5 Q 917.5 634  921.25 632 L 925 630 L 925.5 631  Z  " id="path131"/>
<path style="opacity: 1; fill: rgb(102, 98, 179); fill-rule: evenodd; stroke: rgb(0, 0, 0); stroke-width: 3px; stroke-linecap: butt; stroke-linejoin: miter; stroke-opacity: 1;" d="M 927.5 640 L 926 633 L 935 636.25 Q 944 639.5  948.25 642.75 Q 952.5 646  955.75 649.25 Q 959 652.5  962.75 655.75 L 966.5 659 L 967 664 Q 967.5 669  968.5 725.5 Q 969.5 782  969.75 873.5 L 970 965 L 965.25 962.5 Q 960.5 960  956.75 959.75 Q 953 959.5  951.5 959.75 L 950 960 L 948.5 958.75 Q 947 957.5  931 957 Q 915 956.5  901.5 949.5 Q 888 942.5  877.5 934.5 Q 867 926.5  864 923.5 L 861 920.5 L 855.5 918.75 L 850 917 L 846.75 897.5 Q 843.5 878  840 846 Q 836.5 814  835 804 Q 833.5 794  830 779 Q 826.5 764  827.25 761.25 L 828 758.5 L 824 745.25 L 820 732 L 820 731.5 L 820 731 L 823 730.25 Q 826 729.5  838 727.75 L 850 726 L 850.25 727 L 850.5 728 L 854.5 727.5 Q 858.5 727  862.25 727.25 Q 866 727.5  868.25 725.25 L 870.5 723 L 872.25 723.5 Q 874 724  877.5 725 L 881 726 L 884 722.75 Q 887 719.5  888.5 718.75 L 890 718 L 892.5 714.25 Q 895 710.5  895.75 709.75 L 896.5 709 L 898.25 704.25 Q 900 699.5  901.25 694.75 L 902.5 690 L 905 688 Q 907.5 686  912 680 Q 916.5 674  920 667.5 Q 923.5 661  926.25 654 L 929 647 L 927.5 640  Z  " id="path133"/>
<path style="opacity: 1; fill: rgb(117, 40, 40); fill-rule: evenodd; stroke: rgb(0, 0, 0); stroke-width: 3px; stroke-linecap: butt; stroke-linejoin: miter; stroke-opacity: 1;" d="M 647.25 1095.5 L 648 1095 L 650.5 1096.75 Q 653 1098.5  655.5 1099.25 L 658 1100 L 663.25 1111 Q 668.5 1122  669.75 1125 L 671 1128 L 626.5 1128.25 Q 582 1128.5  580 1128.75 L 578 1129 L 577.5 1128.25 L 577 1127.5 L 586.25 1121.25 Q 595.5 1115  600.25 1112.75 Q 605 1110.5  612.5 1110 Q 620 1109.5  622 1109 Q 624 1108.5  625.5 1108 L 627 1107.5 L 627.5 1105 Q 628 1102.5  632.75 1098.75 L 637.5 1095 L 640.25 1094.5 L 643 1094 L 644.75 1095 L 646.5 1096 L 647.25 1095.5  Z  " id="path135"/>
<path style="opacity: 1; fill: rgb(117, 40, 40); fill-rule: evenodd; stroke: rgb(0, 0, 0); stroke-width: 3px; stroke-linecap: butt; stroke-linejoin: miter; stroke-opacity: 1;" d="M 829.5 1026.25 L 831 1026 L 837 1031 Q 843 1036  845.5 1037.5 L 848 1039 L 847 1039.75 Q 846 1040.5  840.5 1042.75 L 835 1045 L 832 1048.25 Q 829 1051.5  825.25 1054.75 Q 821.5 1058  818.25 1061 L 815 1064 L 815.5 1069.25 L 816 1074.5 L 810.5 1077.75 Q 805 1081  803.75 1084.5 Q 802.5 1088  802.25 1088.25 L 802 1088.5 L 795.5 1091.75 L 789 1095 L 786 1098.75 Q 783 1102.5  776 1105.25 L 769 1108 L 768.5 1108 L 768 1108 L 767.25 1104 Q 766.5 1100  766.25 1098.25 Q 766 1096.5  760.25 1086.25 Q 754.5 1076  752.75 1074 Q 751 1072  750 1065.5 L 749 1059 L 748.5 1059 L 748 1059 L 750 1057.25 Q 752 1055.5  757.5 1054.25 Q 763 1053  765.5 1052.25 Q 768 1051.5  770.5 1049.5 L 773 1047.5 L 782 1047 L 791 1046.5 L 792.5 1044.5 Q 794 1042.5  803.5 1039 Q 813 1035.5  820.5 1031 Q 828 1026.5  829.5 1026.25  Z  " id="path137"/>
<path style="opacity: 1; fill: rgb(235, 221, 33); fill-rule: evenodd; stroke: rgb(0, 0, 0); stroke-width: 3px; stroke-linecap: butt; stroke-linejoin: miter; stroke-opacity: 1;" d="M 747.5 1060 L 748 1059 L 748.5 1059 L 749 1059 L 750 1065.5 Q 751 1072  752.75 1074 Q 754.5 1076  760.25 1086.25 Q 766 1096.5  766.25 1098.25 Q 766.5 1100  767.75 1104 L 769 1108 L 769 1108.5 L 769 1109 L 763 1112 Q 757 1115  754.5 1116.75 Q 752 1118.5  748 1122.75 L 744 1127 L 707.5 1127.5 L 671 1128 L 669.75 1125 Q 668.5 1122  663.25 1111 L 658 1100 L 655.5 1099.25 Q 653 1098.5  650.5 1096.75 L 648 1095 L 649.5 1092.5 Q 651 1090  658.5 1087.5 Q 666 1085  666.75 1083 L 667.5 1081 L 672.75 1079.25 Q 678 1077.5  680.5 1077.25 L 683 1077 L 685 1074.75 Q 687 1072.5  688 1070.75 L 689 1069 L 694.25 1066.5 L 699.5 1064 L 701.75 1063.75 Q 704 1063.5  707.25 1062.25 L 710.5 1061 L 715 1062 Q 719.5 1063  724 1060 L 728.5 1057 L 732.75 1060 Q 737 1063  739.5 1061.25 Q 742 1059.5  744.5 1060.25 L 747 1061 L 747.5 1060  Z  " id="path139"/>
<path style="opacity: 1; fill: rgb(62, 58, 92); fill-rule: evenodd; stroke: rgb(0, 0, 0); stroke-width: 3px; stroke-linecap: butt; stroke-linejoin: miter; stroke-opacity: 1;" d="M 847 1039.75 L 848 1039 L 861 1041.75 L 874 1044.5 L 881 1049 Q 888 1053.5  891 1053.75 L 894 1054 L 897.25 1057 Q 900.5 1060  903.25 1060 Q 906 1060  907 1061.25 Q 908 1062.5  917 1064.25 Q 926 1066  928.25 1065.5 L 930.5 1065 L 928 1069.5 Q 925.5 1074  921.5 1079.5 L 917.5 1085 L 915 1086 Q 912.5 1087  901.75 1094.25 Q 891 1101.5  877 1107.25 Q 863 1113  859.5 1113 L 856 1113 L 854.5 1115.75 L 853 1118.5 L 843.5 1116 Q 834 1113.5  832.5 1112.75 L 831 1112 L 830.5 1117.5 Q 830 1123  819 1125.25 Q 808 1127.5  776 1127.25 L 744 1127 L 748 1122.75 Q 752 1118.5  754.5 1116.75 Q 757 1115  763 1112 L 769 1109 L 769 1108.5 L 769 1108 L 776 1105.25 Q 783 1102.5  786 1098.75 L 789 1095 L 795.5 1091.75 L 802 1088.5 L 802.25 1088.25 Q 802.5 1088  803.75 1084.5 Q 805 1081  810.5 1077.75 L 816 1074.5 L 815.5 1069.25 L 815 1064 L 818.25 1061 Q 821.5 1058  825.25 1054.75 Q 829 1051.5  832 1048.25 L 835 1045 L 840.5 1042.75 Q 846 1040.5  847 1039.75  Z  " id="path141"/>
<path style="opacity: 1; fill: rgb(255, 234, 158); fill-rule: evenodd; stroke: rgb(0, 0, 0); stroke-width: 3px; stroke-linecap: butt; stroke-linejoin: miter; stroke-opacity: 1;" d="M 482.5 813.25 L 482 811 L 483 811 L 484 811 L 491.5 812.75 L 499 814.5 L 504.5 819.25 Q 510 824  516.25 827.5 Q 522.5 831  535.5 841 Q 548.5 851  559.75 863 L 571 875 L 571 876 L 571 877 L 567 879.75 L 563 882.5 L 565.5 887.75 Q 568 893  575 892.5 L 582 892 L 581.25 893.5 L 580.5 895 L 578.75 896.75 Q 577 898.5  574 898 Q 571 897.5  563 896 L 555 894.5 L 554.75 894.25 Q 554.5 894  550.75 890.5 Q 547 887  541.25 881.5 Q 535.5 876  528 870 L 520.5 864 L 517.25 864.25 Q 514 864.5  508 866.5 L 502 868.5 L 500.25 871.75 Q 498.5 875  493.25 878.5 L 488 882 L 486.5 881.5 Q 485 881  481.75 872.5 L 478.5 864 L 479.5 859 Q 480.5 854  481 852 Q 481.5 850  480.25 847.5 L 479 845 L 481 836.5 Q 483 828  482 828 L 481 828 L 483.25 823.5 Q 485.5 819  484.25 817.25 Q 483 815.5  482.5 813.25  Z  " id="path143"/>
<path style="opacity: 1; fill: rgb(255, 234, 158); fill-rule: evenodd; stroke: rgb(0, 0, 0); stroke-width: 3px; stroke-linecap: butt; stroke-linejoin: miter; stroke-opacity: 1;" d="M 580 755 L 582 755 L 588 757.5 Q 594 760  597 762.25 Q 600 764.5  610 769.75 L 620 775 L 623.25 783.5 Q 626.5 792  627.5 794.5 Q 628.5 797  631 803 Q 633.5 809  636.25 816.25 L 639 823.5 L 638.75 825.25 Q 638.5 827  638.75 829 L 639 831 L 633.5 828.5 L 628 826 L 626 831.25 Q 624 836.5  627.5 839.5 Q 631 842.5  634.5 842.75 L 638 843 L 639.5 839 L 641 835 L 641.5 835 L 642 835 L 642.25 836.5 Q 642.5 838  641.25 842.25 L 640 846.5 L 639 847 Q 638 847.5  634.75 847.25 Q 631.5 847  627.25 844.5 Q 623 842  618.25 830 L 613.5 818 L 607.5 809.5 L 601.5 801 L 597.5 799.5 L 593.5 798 L 593.25 799.5 L 593 801 L 591.75 800 Q 590.5 799  580.75 790.25 Q 571 781.5  567 775 L 563 768.5 L 563.5 767.75 L 564 767 L 565.5 767 L 567 767 L 569 766.25 Q 571 765.5  574.5 760.25 L 578 755 L 580 755  Z  " id="path145"/>
<path style="opacity: 1; fill: rgb(255, 234, 158); fill-rule: evenodd; stroke: rgb(0, 0, 0); stroke-width: 3px; stroke-linecap: butt; stroke-linejoin: miter; stroke-opacity: 1;" d="M 760.25 593.5 L 762 593 L 763 593 L 764 593 L 767.25 598 Q 770.5 603  771 609.5 Q 771.5 616  771.75 623.5 L 772 631 L 772.75 636.5 Q 773.5 642  788.5 668.5 Q 803.5 695  800.25 700.25 Q 797 705.5  795.25 706.75 L 793.5 708 L 789.75 705.5 Q 786 703  781 701.25 L 776 699.5 L 771.5 691.75 L 767 684 L 762.5 681.5 Q 758 679  757.5 677 L 757 675 L 750.5 675.5 L 744 676 L 743.5 676 L 743 676 L 742.75 674 Q 742.5 672  744.5 669.5 Q 746.5 667  746.5 661.5 Q 746.5 656  744 642 Q 741.5 628  744 618.5 L 746.5 609 L 751.5 605 L 756.5 601 L 757.5 597.5 Q 758.5 594  760.25 593.5  Z  M 780.5 679 Q 782 678.5  786.75 679.25 Q 791.5 680  794.75 690.75 Q 798 701.5  796 701.5 L 794 701.5 L 790.5 700.5 Q 787 699.5  784.75 693.75 Q 782.5 688  780.75 683.75 L 779 679.5 L 780.5 679  Z  " id="path148"/>
<path style="opacity: 1; fill: rgb(255, 234, 158); fill-rule: evenodd; stroke: rgb(0, 0, 0); stroke-width: 3px; stroke-linecap: butt; stroke-linejoin: miter; stroke-opacity: 1;" d="M 855 567.25 L 867 570 L 866.5 581.5 L 866 593 L 866.75 594 Q 867.5 595  869.25 599.25 L 871 603.5 L 871.25 605.25 Q 871.5 607  869.75 609.5 Q 868 612  869.5 616.25 L 871 620.5 L 868.25 624.75 Q 865.5 629  860.25 630.75 L 855 632.5 L 853.5 632 Q 852 631.5  845.75 611.25 Q 839.5 591  838.25 588.5 L 837 586 L 836.75 582 Q 836.5 578  837 574.5 Q 837.5 571  837.25 569 L 837 567 L 837.25 566.5 L 837.5 566 L 840.25 565.25 L 843 564.5 L 855 567.25  Z  M 854.25 608 L 854.5 607 L 858 609 Q 861.5 611  861.75 620 Q 862 629  860 628.25 L 858 627.5 L 855.75 626.75 Q 853.5 626  853.75 617.5 Q 854 609  854.25 608  Z  " id="path151"/>
<path style="opacity: 1; fill: rgb(255, 233, 156); fill-rule: evenodd; stroke: rgb(0, 0, 0); stroke-width: 3px; stroke-linecap: butt; stroke-linejoin: miter; stroke-opacity: 1;" d="M 521.5 784.75 L 530 782 L 532.5 787 Q 535 792  537.25 794 Q 539.5 796  540.75 799.25 L 542 802.5 L 551.5 810 Q 561 817.5  568 825.25 L 575 833 L 575.5 833 L 576 833 L 587.75 851 Q 599.5 869  603.5 876.5 Q 607.5 884  606.75 887.25 L 606 890.5 L 600.5 891 Q 595 891.5  587.5 886.75 Q 580 882  578.5 881 L 577 880 L 575 879 L 573 878 L 572 876.5 L 571 875 L 559.75 863 Q 548.5 851  535.5 841 Q 522.5 831  516.25 827.5 Q 510 824  504.5 819.25 L 499 814.5 L 491.5 812.75 L 484 811 L 486.5 808.75 Q 489 806.5  496 804.5 L 503 802.5 L 508 795 L 513 787.5 L 521.5 784.75  Z  M 593.25 869.5 Q 595 869  597.5 873.25 Q 600 877.5  602.75 880.75 Q 605.5 884  605 885 L 604.5 886 L 600.5 886.5 Q 596.5 887  593 884.5 Q 589.5 882  588.75 876.75 Q 588 871.5  589.75 870.75 L 591.5 870 L 593.25 869.5  Z  " id="path154"/>
<path style="opacity: 1; fill: rgb(255, 233, 156); fill-rule: evenodd; stroke: rgb(0, 0, 0); stroke-width: 3px; stroke-linecap: butt; stroke-linejoin: miter; stroke-opacity: 1;" d="M 826 568.25 L 837 567 L 837.5 567 L 838 567 L 837.5 576.5 L 837 586 L 836.5 586 Q 836 586  839.75 610.5 Q 843.5 635  848 654 Q 852.5 673  849.25 676.75 Q 846 680.5  843.75 681.25 L 841.5 682 L 836 673 Q 830.5 664  827.25 660 L 824 656 L 823.5 655.75 Q 823 655.5  814.75 637.75 Q 806.5 620  804 604 Q 801.5 588  801.75 582 L 802 576 L 803 575.75 L 804 575.5 L 809.5 572.5 Q 815 569.5  826 568.25  Z  M 837.25 665.5 L 837 659 L 842.25 662 Q 847.5 665  846.75 670.25 Q 846 675.5  845 676 L 844 676.5 L 840.75 674.25 Q 837.5 672  837.25 665.5  Z  " id="path157"/>
<path style="opacity: 1; fill: rgb(255, 233, 156); fill-rule: evenodd; stroke: rgb(0, 0, 0); stroke-width: 3px; stroke-linecap: butt; stroke-linejoin: miter; stroke-opacity: 1;" d="M 555.5 767.25 L 564 767 L 563.5 767.75 L 563 768.5 L 567 775 Q 571 781.5  580.75 790.25 Q 590.5 799  591.75 800 L 593 801 L 596.75 806.5 Q 600.5 812  612.5 834.5 Q 624.5 857  626.25 859.75 L 628 862.5 L 628.5 862.75 L 629 863 L 629.75 869.5 Q 630.5 876  627.25 879.5 L 624 883 L 617 880.5 L 610 878 L 599.25 860 Q 588.5 842  583.25 836.75 L 578 831.5 L 577 832.25 L 576 833 L 575.5 833 L 575 833 L 568 825.25 Q 561 817.5  551.5 810 L 542 802.5 L 540.75 799.25 Q 539.5 796  537.25 794 Q 535 792  532.5 787 L 530 782 L 533.5 777.25 L 537 772.5 L 542 770 Q 547 767.5  555.5 767.25  Z  M 611.5 859.5 L 612.5 858 L 617.75 861.25 Q 623 864.5  624 868.75 Q 625 873  624.75 875 L 624.5 877 L 622.25 877.25 Q 620 877.5  618.75 876.75 Q 617.5 876  614 868.5 Q 610.5 861  611.5 859.5  Z  " id="path160"/>
<path style="opacity: 1; fill: rgb(255, 233, 156); fill-rule: evenodd; stroke: rgb(0, 0, 0); stroke-width: 3px; stroke-linecap: butt; stroke-linejoin: miter; stroke-opacity: 1;" d="M 801.25 575 L 802 576 L 801.75 582 Q 801.5 588  804 604 Q 806.5 620  814.75 637.75 Q 823 655.5  823.5 655.75 L 824 656 L 825.75 662 Q 827.5 668  830 679 L 832.5 690 L 831.75 690.75 Q 831 691.5  826 694 L 821 696.5 L 820 696 Q 819 695.5  816 691.75 Q 813 688  810.5 686 L 808 684 L 797.75 667 Q 787.5 650  784.25 644 Q 781 638  776.5 634.5 L 772 631 L 771.75 623.5 Q 771.5 616  771 609.5 Q 770.5 603  767.25 598 L 764 593 L 765.75 592 L 767.5 591 L 770.25 590.25 Q 773 589.5  777 586 Q 781 582.5  790.75 578.25 L 800.5 574 L 801.25 575  Z  M 817 672.5 Q 818 672.5  822.25 676.25 Q 826.5 680  827 685 L 827.5 690 L 824.25 689.75 Q 821 689.5  818.5 687 Q 816 684.5  814.75 681.25 Q 813.5 678  814.75 675.25 L 816 672.5 L 817 672.5  Z  " id="path163"/>
<path style="opacity: 1; fill: rgb(255, 233, 153); fill-rule: evenodd; stroke: rgb(0, 0, 0); stroke-width: 3px; stroke-linecap: butt; stroke-linejoin: miter; stroke-opacity: 1;" d="M 666 851.25 L 667 851 L 666.75 857.5 Q 666.5 864  666.25 865.75 L 666 867.5 L 667 870.5 L 668 873.5 L 670.25 876.25 Q 672.5 879  672.75 879.5 L 673 880 L 670.25 880.5 Q 667.5 881  664 884 Q 660.5 887  654 891.5 L 647.5 896 L 635.75 893 Q 624 890  624 889.5 L 624 889 L 623.5 888.25 L 623 887.5 L 623.5 885.25 L 624 883 L 627.25 879.5 Q 630.5 876  629.75 869.5 L 629 863 L 633.5 862.25 Q 638 861.5  643.5 859 Q 649 856.5  656.5 856 L 664 855.5 L 664.5 853.5 Q 665 851.5  666 851.25  Z  M 648.5 866.75 Q 654 864.5  655 865 L 656 865.5 L 657 865.75 Q 658 866  655.25 873.5 Q 652.5 881  651.25 881.75 L 650 882.5 L 644.5 880.75 Q 639 879  638.75 875 L 638.5 871 L 640.75 870 Q 643 869  648.5 866.75  Z  " id="path166"/>
<path style="opacity: 1; fill: rgb(255, 233, 153); fill-rule: evenodd; stroke: rgb(0, 0, 0); stroke-width: 3px; stroke-linecap: butt; stroke-linejoin: miter; stroke-opacity: 1;" d="M 836 697.25 L 846 693 L 848.5 695.5 Q 851 698  852.75 700.5 Q 854.5 703  853.5 707 Q 852.5 711  851 717.5 Q 849.5 724  849.75 725 L 850 726 L 841 727.75 Q 832 729.5  828.5 729.5 Q 825 729.5  822.5 730.75 L 820 732 L 819.5 731.75 L 819 731.5 L 818.5 729.25 L 818 727 L 817.5 727 L 817 727 L 819.5 726.5 Q 822 726  819.5 723.5 L 817 721 L 815.5 718.5 L 814 716 L 814 715.5 L 814 715 L 820 708.25 Q 826 701.5  836 697.25  Z  M 840.5 705.75 Q 845 704.5  846 704.75 L 847 705 L 844 711.5 Q 841 718  832.5 717.25 L 824 716.5 L 824.5 714.25 Q 825 712  830.5 709.5 Q 836 707  840.5 705.75  Z  " id="path169"/>
<path style="opacity: 1; fill: rgb(255, 207, 207); fill-rule: evenodd; stroke: rgb(0, 0, 0); stroke-width: 3px; stroke-linecap: butt; stroke-linejoin: miter; stroke-opacity: 1;" d="M 571 876 L 571 875 L 572 876.5 L 573 878 L 575 879 L 577 880 L 580 885.75 L 583 891.5 L 582.5 891.75 L 582 892 L 575 892.5 Q 568 893  565.5 887.75 L 563 882.5 L 567 879.75 L 571 877 L 571 876  Z  " id="path171"/>
<path style="opacity: 1; fill: rgb(255, 207, 207); fill-rule: evenodd; stroke: rgb(0, 0, 0); stroke-width: 3px; stroke-linecap: butt; stroke-linejoin: miter; stroke-opacity: 1;" d="M 593.25 869.5 Q 595 869  597.5 873.25 Q 600 877.5  602.75 880.75 Q 605.5 884  605 885 L 604.5 886 L 600.5 886.5 Q 596.5 887  593 884.5 Q 589.5 882  588.75 876.75 Q 588 871.5  589.75 870.75 L 591.5 870 L 593.25 869.5  Z  " id="path173"/>
<path style="opacity: 1; fill: rgb(255, 207, 207); fill-rule: evenodd; stroke: rgb(0, 0, 0); stroke-width: 3px; stroke-linecap: butt; stroke-linejoin: miter; stroke-opacity: 1;" d="M 611.5 859.5 L 612.5 858 L 617.75 861.25 Q 623 864.5  624 868.75 Q 625 873  624.75 875 L 624.5 877 L 622.25 877.25 Q 620 877.5  618.75 876.75 Q 617.5 876  614 868.5 Q 610.5 861  611.5 859.5  Z  " id="path175"/>
<path style="opacity: 1; fill: rgb(255, 207, 207); fill-rule: evenodd; stroke: rgb(0, 0, 0); stroke-width: 3px; stroke-linecap: butt; stroke-linejoin: miter; stroke-opacity: 1;" d="M 633.5 828.5 L 639 831 L 640 833 L 641 835 L 639.5 839 L 638 843 L 634.5 842.75 Q 631 842.5  627.5 839.5 Q 624 836.5  626 831.25 L 628 826 L 633.5 828.5  Z  " id="path177"/>
<path style="opacity: 1; fill: rgb(255, 207, 207); fill-rule: evenodd; stroke: rgb(0, 0, 0); stroke-width: 3px; stroke-linecap: butt; stroke-linejoin: miter; stroke-opacity: 1;" d="M 648.5 866.75 Q 654 864.5  655 865 L 656 865.5 L 657 865.75 Q 658 866  655.25 873.5 Q 652.5 881  651.25 881.75 L 650 882.5 L 644.5 880.75 Q 639 879  638.75 875 L 638.5 871 L 640.75 870 Q 643 869  648.5 866.75  Z  " id="path179"/>
<path style="opacity: 1; fill: rgb(255, 207, 207); fill-rule: evenodd; stroke: rgb(0, 0, 0); stroke-width: 3px; stroke-linecap: butt; stroke-linejoin: miter; stroke-opacity: 1;" d="M 780.5 679 Q 782 678.5  786.75 679.25 Q 791.5 680  794.75 690.75 Q 798 701.5  796 701.5 L 794 701.5 L 790.5 700.5 Q 787 699.5  784.75 693.75 Q 782.5 688  780.75 683.75 L 779 679.5 L 780.5 679  Z  " id="path181"/>
<path style="opacity: 1; fill: rgb(255, 207, 207); fill-rule: evenodd; stroke: rgb(0, 0, 0); stroke-width: 3px; stroke-linecap: butt; stroke-linejoin: miter; stroke-opacity: 1;" d="M 817 672.5 Q 818 672.5  822.25 676.25 Q 826.5 680  827 685 L 827.5 690 L 824.25 689.75 Q 821 689.5  818.5 687 Q 816 684.5  814.75 681.25 Q 813.5 678  814.75 675.25 L 816 672.5 L 817 672.5  Z  " id="path183"/>
<path style="opacity: 1; fill: rgb(255, 207, 207); fill-rule: evenodd; stroke: rgb(0, 0, 0); stroke-width: 3px; stroke-linecap: butt; stroke-linejoin: miter; stroke-opacity: 1;" d="M 840.5 705.75 Q 845 704.5  846 704.75 L 847 705 L 844 711.5 Q 841 718  832.5 717.25 L 824 716.5 L 824.5 714.25 Q 825 712  830.5 709.5 Q 836 707  840.5 705.75  Z  " id="path185"/>
<path style="opacity: 1; fill: rgb(255, 207, 207); fill-rule: evenodd; stroke: rgb(0, 0, 0); stroke-width: 3px; stroke-linecap: butt; stroke-linejoin: miter; stroke-opacity: 1;" d="M 837.25 665.5 L 837 659 L 842.25 662 Q 847.5 665  846.75 670.25 Q 846 675.5  845 676 L 844 676.5 L 840.75 674.25 Q 837.5 672  837.25 665.5  Z  " id="path187"/>
<path style="opacity: 1; fill: rgb(255, 207, 207); fill-rule: evenodd; stroke: rgb(0, 0, 0); stroke-width: 3px; stroke-linecap: butt; stroke-linejoin: miter; stroke-opacity: 1;" d="M 854.25 608 L 854.5 607 L 858 609 Q 861.5 611  861.75 620 Q 862 629  860 628.25 L 858 627.5 L 855.75 626.75 Q 853.5 626  853.75 617.5 Q 854 609  854.25 608  Z  " id="path189"/>
<path style="opacity: 1; fill: rgb(99, 128, 91); fill-rule: evenodd; stroke: rgb(0, 0, 0); stroke-width: 3px; stroke-linecap: butt; stroke-linejoin: miter; stroke-opacity: 1;" d="M 617 880.5 L 624 883 L 623.5 885.25 L 623 887.5 L 623.5 888.25 L 624 889 L 619 894.25 Q 614 899.5  606 907.75 L 598 916 L 594 918.25 Q 590 920.5  584.5 925.25 Q 579 930  578 931 L 577 932 L 576 937 L 575 942 L 570.5 940.75 L 566 939.5 L 557.25 946.25 Q 548.5 953  543.25 958.25 Q 538 963.5  534 965.75 Q 530 968  530 969 L 530 970 L 523.75 973 Q 517.5 976  514.5 979.5 L 511.5 983 L 509.25 984.25 Q 507 985.5  504.5 985.25 L 502 985 L 499 990.75 Q 496 996.5  494.25 997.75 L 492.5 999 L 493.25 1001.5 Q 494 1004  490.5 1010 L 487 1016 L 486 1016.25 L 485 1016.5 L 483.25 1018.25 L 481.5 1020 L 477.25 1027.75 Q 473 1035.5  472 1035.75 L 471 1036 L 471 1038.5 Q 471 1041  468.75 1049.5 L 466.5 1058 L 455.75 1067.25 L 445 1076.5 L 442.5 1081.5 Q 440 1086.5  432.5 1093 Q 425 1099.5  419.5 1104 Q 414 1108.5  410 1111 Q 406 1113.5  404.5 1115.5 Q 403 1117.5  401 1117.75 L 399 1118 L 397 1123 L 395 1128 L 394.75 1128.5 L 394.5 1129 L 374.75 1130.25 Q 355 1131.5  264.5 1131 Q 174 1130.5  167.5 1129.25 L 161 1128 L 161.25 1125.5 Q 161.5 1123  164.75 1120.25 Q 168 1117.5  180.5 1107 Q 193 1096.5  196 1093.25 Q 199 1090  203 1087 L 207 1084 L 208.5 1081 Q 210 1078  221 1068.25 Q 232 1058.5  242.75 1047.75 Q 253.5 1037  259.25 1033 L 265 1029 L 266 1024 L 267 1019 L 268.5 1019 Q 270 1019  272.25 1017.5 Q 274.5 1016  281.25 1010.25 Q 288 1004.5  290 1002.25 L 292 1000 L 298.5 998 Q 305 996  307.75 993 Q 310.5 990  315.25 987 Q 320 984  322.5 981 Q 325 978  331 975.75 L 337 973.5 L 336.75 973.25 Q 336.5 973  346.75 963.25 L 357 953.5 L 364.25 949.25 Q 371.5 945  377.25 944 L 383 943 L 383 941.5 Q 383 940  393 935.75 Q 403 931.5  409 928 L 415 924.5 L 430 917.5 Q 445 910.5  451.5 907.75 L 458 905 L 467.5 898.25 Q 477 891.5  479 889.25 Q 481 887  484.5 885 L 488 883 L 488 882.5 L 488 882 L 493.25 878.5 Q 498.5 875  500.25 871.75 L 502 868.5 L 508 866.5 Q 514 864.5  517.25 864.25 L 520.5 864 L 528 870 Q 535.5 876  541.25 881.5 Q 547 887  550.75 890.5 Q 554.5 894  554.75 894.25 L 555 894.5 L 563 896 Q 571 897.5  574 898 Q 577 898.5  578.75 896.75 L 580.5 895 L 581.25 893.5 L 582 892 L 582.5 891.75 L 583 891.5 L 580 885.75 L 577 880 L 578.5 881 Q 580 882  587.5 886.75 Q 595 891.5  600.5 891 L 606 890.5 L 606.75 887.25 Q 607.5 884  603.5 876.5 Q 599.5 869  587.75 851 L 576 833 L 577 832.25 L 578 831.5 L 583.25 836.75 Q 588.5 842  599.25 860 L 610 878 L 617 880.5  Z  " id="path191"/>
<path style="opacity: 1; fill: rgb(99, 128, 91); fill-rule: evenodd; stroke: rgb(0, 0, 0); stroke-width: 3px; stroke-linecap: butt; stroke-linejoin: miter; stroke-opacity: 1;" d="M 926.25 629.5 L 926 632 L 925.5 631 L 925 630 L 921.25 632 Q 917.5 634  914.25 636.5 Q 911 639  905.5 645.25 L 900 651.5 L 898.5 651.5 Q 897 651.5  886.25 659.75 Q 875.5 668  872.5 670 Q 869.5 672  862.25 678.25 Q 855 684.5  850.5 688.75 L 846 693 L 836 697.25 Q 826 701.5  820 708.25 L 814 715 L 811.5 717.5 Q 809 720  808.5 723.5 L 808 727 L 807 727.25 L 806 727.5 L 776 754 Q 746 780.5  741 784.25 Q 736 788  733 792.5 L 730 797 L 729.5 797 L 729 797 L 726.5 797.25 Q 724 797.5  722.5 798.25 L 721 799 L 718.75 801 Q 716.5 803  715.25 805.75 L 714 808.5 L 704.5 815.25 L 695 822 L 691.5 826.25 Q 688 830.5  680.75 837.25 Q 673.5 844  670.25 847.5 L 667 851 L 666 851.25 Q 665 851.5  664.5 853.5 L 664 855.5 L 656.5 856 Q 649 856.5  643.5 859 Q 638 861.5  633.5 862.25 L 629 863 L 628.5 862.75 L 628 862.5 L 626.25 859.75 Q 624.5 857  612.5 834.5 Q 600.5 812  596.75 806.5 L 593 801 L 593.25 799.5 L 593.5 798 L 597.5 799.5 L 601.5 801 L 607.5 809.5 L 613.5 818 L 618.25 830 Q 623 842  627.25 844.5 Q 631.5 847  634.75 847.25 Q 638 847.5  639 847 L 640 846.5 L 641.25 842.25 Q 642.5 838  642.25 836.5 L 642 835 L 641.5 835 L 641 835 L 640 833 L 639 831 L 638.75 829 Q 638.5 827  638.75 825.25 L 639 823.5 L 636.25 816.25 Q 633.5 809  631 803 Q 628.5 797  627.5 794.5 Q 626.5 792  623.25 783.5 L 620 775 L 620.5 774.75 L 621 774.5 L 623 773.75 Q 625 773  629 766.25 L 633 759.5 L 636 757.5 Q 639 755.5  640.75 754.25 Q 642.5 753  653.25 742.25 L 664 731.5 L 663.5 730.25 L 663 729 L 665.5 728.75 L 668 728.5 L 678.5 720.5 Q 689 712.5  700.5 703.5 Q 712 694.5  720.5 691.75 L 729 689 L 730.5 686 Q 732 683  738 680.5 L 744 678 L 744 677 L 744 676 L 750.5 675.5 L 757 675 L 757.5 677 Q 758 679  762.5 681.5 L 767 684 L 771.5 691.75 L 776 699.5 L 781 701.25 Q 786 703  789.75 705.5 L 793.5 708 L 795.25 706.75 Q 797 705.5  800.25 700.25 Q 803.5 695  788.5 668.5 Q 773.5 642  772.75 636.5 L 772 631 L 776.5 634.5 Q 781 638  784.25 644 Q 787.5 650  797.75 667 L 808 684 L 810.5 686 Q 813 688  816 691.75 Q 819 695.5  820 696 L 821 696.5 L 826 694 Q 831 691.5  831.75 690.75 L 832.5 690 L 830 679 Q 827.5 668  825.75 662 L 824 656 L 827.25 660 Q 830.5 664  836 673 L 841.5 682 L 843.75 681.25 Q 846 680.5  849.25 676.75 Q 852.5 673  848 654 Q 843.5 635  839.75 610.5 Q 836 586  836.5 586 L 837 586 L 838.25 588.5 Q 839.5 591  845.75 611.25 Q 852 631.5  853.5 632 L 855 632.5 L 860.25 630.75 Q 865.5 629  868.25 624.75 L 871 620.5 L 869.5 616.25 Q 868 612  869.75 609.5 Q 871.5 607  871.25 605.25 L 871 603.5 L 869.25 599.25 Q 867.5 595  866.75 594 L 866 593 L 866.5 581.5 L 867 570 L 867 569.5 L 867 569 L 869.5 568 L 872 567 L 872 566.5 L 872 566 L 880 562.25 L 888 558.5 L 892.75 551.75 Q 897.5 545  897.75 544.75 L 898 544.5 L 907 542 Q 916 539.5  917 539.5 L 918 539.5 L 926.25 542.75 L 934.5 546 L 943.5 555.5 Q 952.5 565  955 579 L 957.5 593 L 948.75 604.25 Q 940 615.5  933.25 621.25 Q 926.5 627  926.25 629.5  Z  " id="path193"/>

</svg>