<?xml version="1.0" encoding="utf-8"?>
<!-- Generator: Adobe Illustrator 14.0.0, SVG Export Plug-In . SVG Version: 6.00 Build 43363)  -->
<!DOCTYPE svg PUBLIC "-//W3C//DTD SVG 1.1//EN" "http://www.w3.org/Graphics/SVG/1.1/DTD/svg11.dtd">
<svg version="1.1" xmlns="http://www.w3.org/2000/svg" xmlns:xlink="http://www.w3.org/1999/xlink" x="0px" y="0px"
	 width="595.28px" height="495.987px" viewBox="0 0 595.28 495.987" enable-background="new 0 0 595.28 495.987"
	 xml:space="preserve">
<g id="Calque_4">
	<rect fill="#007D47" width="595.28" height="165.665"/>
	<rect y="330.322" fill="#DE0021" width="595.28" height="165.665"/>
	<rect x="0.009" y="120.46" fill="#FAFF9F" width="595.28" height="255.666"/>
</g>
<g id="Calque_3">
	<g>
		<g id="XMLID_1_">
			<g>
				<path d="M477.898,338.309c6.305-3.256,6.06-13.045,5.731-22.925c-5.526-6.326-10.775-12.918-14.901-20.632
					c-6.146-0.734-8.334-5.421-13.755-6.876c-4.952-2.305-8.896-5.628-16.046-5.731c-1.974-4.14-7.234-4.986-6.878-11.462
					c1.513-4.596,6.018-6.213,10.314-8.023c-0.458-8.849,5.905-10.901,4.585-20.621c5.25-0.481,5.478-5.983,9.169-8.022
					c3.485-9.124,5.627-19.589,8.024-29.801c0-5.731,0-11.462,0-17.194c0-2.671,0-5.341,0-8.023
					c-1.031-4.31-2.683-8.011-3.437-12.607c-1.078-3.497-5.583-3.588-5.732-8.012c0-2.9,0-5.812,0-8.712c0-2.831,0-5.65,0-8.481
					c-3.555-4.482-8.024-8.023-10.316-13.753c2.91-4.184-0.126-9.021-0.126-14.271c0-0.584,0.034-1.18,0.126-1.776
					c-0.229-7.449,7.655-10.419,4.586-17.192c-1.479-1.571-4.977-1.135-8.024-1.147c-2.658,0.504-3.071,5.067-5.73,2.293
					c-3.634-3.244-8.379-5.375-12.608-8.023c1.169-4.986-2.36-5.261-3.438-8.023c-2.384-1.811,0.699-9.088-4.586-8.013
					c-5.914-1.34-5.96,3.199-6.864,6.867c-2.992,1.982-5.812,4.126-5.732,9.169c-0.516-0.012-0.997,0-1.455,0.057
					c-6.178,0.584-7.52,6.006-12.298,7.967c-0.735-4.666-9.354-6.108-13.754-3.439c-0.104,6.809,2.543,10.866,3.266,16.849
					c0.102,0.836,0.159,1.709,0.172,2.636c0.354,6.464-2.041,10.189-1.146,17.192c-2.866,2.477-6.431,4.265-9.17,6.878
					c-1.112,4.618-5.008,6.454-8.023,9.17c0.539,3.597-1.432,4.675-3.439,5.729c0.092,8.104-2.9,13.137-6.876,17.182
					c-8.289-6.602-14.902-14.89-21.778-22.911c-4.85-2.786-6.314-8.965-11.451-11.463c-2.592-5.054-8.678-6.614-10.315-12.608
					c2.339-3.771,0.618-11.612,1.145-17.193c-2.21-8.104-6.416-14.214-6.876-24.071c-2.774-1.8-5.066-4.092-6.876-6.866
					c-14.591,1.594-19.933-6.051-29.802-9.169c4.481-3.164,12.964-2.315,17.193-5.732c1.273-9.295-5.593-10.464-8.023-16.047
					c-5.354-2.669-5.021-11.026-12.608-11.461c-10.454,1.386-5.502,18.19-13.755,21.777c-7.576-3.128-6.349-15.038-9.169-22.923
					c-3.049,0-6.109,0-9.169,0c-0.012,1.512-2.006,1.042-2.282,2.292c-2.876,3.243-4.938,7.29-8.022,10.315
					c-3.416,2.695-7.026,5.193-6.877,11.463c4.195,7.634,17.411,6.269,19.474,16.047c-1.822,3.896-7.129,4.321-10.305,6.866
					c-6.167-0.424-10.396,1.077-11.463,5.731c0.655,7.369,7.796,8.252,10.316,13.754c6.625,1.398,6.408,9.639,14.891,9.169
					c7.966-3.496,2.476-20.448,12.607-21.777c2.041,2.179,0.837,7.577,1.146,11.462c0.825,4.148,6.66,3.278,6.878,8.023
					c-3.142,10.603-8.964,18.545-11.462,29.802c-9.572,8.001-16.907,18.235-28.645,24.07c-7.609-1.88-8.275,3.174-13.754,3.439
					c-4.24-0.482-7.586-3.427-11.462-4.584c-1.937-0.585-4.47,0.652-6.877,0c-0.241-0.069-0.778-2.122-1.146-2.294
					c-3.621-1.718-8.115,1.272-11.463,0c-9.283,3.692-17.57,8.402-26.362,12.597c-3.231,5.169-4.287,12.528-6.865,18.339
					c-6.522-1.032-12.711-1.363-18.488-1.043c-23.428,1.307-40.301,13.263-46.845,31.991c-3.267,25.044,8.493,35.062,22.924,42.409
					c10.154-0.55,22.614,1.214,30.947-1.145c-8.665,25.341-20.951,47.05-24.07,77.929c-5.514,7.096-11.209,14.007-17.193,20.62
					c-4.883,2.386-9.57,4.951-12.607,9.171c-0.47,12.527,1.524,27.495-2.293,36.677c-0.171,9.731,0.929,18.169,3.439,25.218
					c12.562,2.303,31.932,2.36,38.971-4.585c1.856-4.265,0.951-11.278,1.146-17.193c-3.794-2.705-9.422-3.576-13.755-5.73
					c2.716-6.077,5.319-12.265,10.316-16.049c19.532-4.915,30.065-18.818,48.13-25.215c4.32-5.993,10.314-10.317,16.045-14.889
					c2.992-3.508,4.115-8.872,8.023-11.463c5.983,3.555,5.777,13.318,8.023,20.621c0,3.827,0,7.644,0,11.463
					c5.502,7.482,14.247,11.736,19.484,19.482c8.816,2.648,13.492,9.437,21.768,12.609c10.511-0.964,23.544,0.608,28.654-5.73
					c1.513-14.592-9.89-22.065-22.922-18.341c-4.563-6.121-9.836-11.554-12.598-19.483c4.55-7.668,4.355-20.094,6.866-29.79
					c18.717,3.827,32.221,12.86,53.872,13.754c11.049-0.413,23.955,1.032,33.239-1.146c2.831,1.742,6.81,2.35,8.011,5.73
					c3.944-0.503,6.431,0.448,9.17,1.146c3.683,3.197,7.531,6.212,10.317,10.306c6.498-0.769,8.882,2.577,13.754,3.438
					c5.319,6.911,8.791,15.669,16.048,20.632c4.974,7.256,13.536,10.912,18.339,18.34c2.739,3.369,4.48,7.747,6.877,11.461
					c2.682,0.367,4.298,1.811,8.023,1.147c2.313,7.231,8.08,11.016,12.596,16.046c8.002,1.56,16.206,2.901,26.362,2.292
					c3.907-2.968,10.111-3.656,12.608-8.023c1.593-12.666-6.797-15.37-12.608-20.632c-4.022-0.562-7.462-1.706-12.606-1.146
					c-1.813-6.202-7.016-9.032-9.169-14.899c-4.701-16.3-14.419-27.591-19.476-43.545c3.209-3.29,4.733-8.266,8.012-11.463
					c10.693-1.994,19.381-9.237,32.094-5.73c12.217,15.669,19.944,35.83,30.947,52.714c3.886-0.31,9.286,0.895,11.464-1.147
					C493.21,355.718,480.946,348.715,477.898,338.309z M246.387,374.975c1.995,1.457,3.003,3.874,6.878,3.438
					c1.616,4.012-3.209,7.337,0,9.17c-2.729,5.192-4.631-5.857-6.878-1.147c-3.575-0.457,2.35-6.509,2.293-3.438
					c1.8-0.4-0.998-2.017,1.146-2.29c-0.16-5.563-10.717-0.734-11.462-5.732C241.928,376.489,241.642,374.667,246.387,374.975z
					 M246.387,378.414c-0.791,4.274-8.849,5.767-11.462,4.584C236.598,379.32,242.616,379.994,246.387,378.414z M230.34,377.267
					c3.61-1.306,2.786,1.8,4.584,2.294C234.57,381.991,229.492,379.812,230.34,377.267z M475.605,327.992
					c-0.952-3.243,1.616-2.968,1.146-5.73c1.695,0.963,1.65,3.692,2.293,5.73C477.898,327.992,476.75,327.992,475.605,327.992z
					 M474.458,333.723c-0.927-0.217-1.146-1.157-2.291-1.146c0-0.768,0-1.536,0-2.292c3.128,0.103,2.304-1.915,4.584,0
					C476.006,331.443,474.114,331.465,474.458,333.723z M440.647,112.53c0.193,0,0.388,0,0.571,0c0,0.206,0,0.423,0,0.629
					c0,0.551,0,1.101,0,1.663c-0.755,0-1.524,0-2.291,0c0-0.769,0-1.524,0-2.292C439.5,112.53,440.073,112.53,440.647,112.53z
					 M440.073,107.945c0.229-0.527,0.424-0.745,0.574-0.745c0.469,0,0.642,1.845,0.571,3.038c-0.229,0.539-0.411,0.756-0.571,0.756
					C440.185,110.994,440.015,109.136,440.073,107.945z M409.136,82.729c2.649-0.711,5.329,6.763,5.719,1.146
					c1.077,1.227,4.231,0.367,3.44,3.439c-2.006-1.399-7.992,1.261-11.451-1.146C407.577,85.009,409.469,84.987,409.136,82.729z
					 M417.149,89.605c-0.495,2.567-5.642,0.469-8.013,1.147C409.146,87.427,415.613,88.046,417.149,89.605z M307.134,128.576
					c0,0.769,0,1.524,0,2.293c8.895,9.055,17.08,18.821,26.353,27.509c-5.948,3.622-6.074-8.413-12.597-8.024
					c-1.388-1.513-0.447-1.811,0-3.438c-1.146,0-2.292,0-3.438,0c-7.897-9.685-16.733-18.419-26.363-26.362
					c-0.445-3.76-3.358-5.055-4.584-8.023c0.331-3.015-4.448-0.906-3.439-4.585c4.518,0.137,3.507,4.985,8.023,2.293
					c-2.808,3.379,3.84,4.641,4.585,8.022c3.312,0.16,5.227-2.785,5.732,1.146c-1.961-0.241-2.969,1.949-3.44,0
					c-2.875,0.492,1.101,3.278,3.44,2.292C298.882,124.794,304.43,127.156,307.134,128.576z M338.083,187.96
					c-1.135,5.434-5.755,7.382-6.889,12.814c-3.417,2.316-7.394,4.058-11.451,5.732c-2.373,3.358-5.421,6.052-8.021,9.169
					c-5.147,0.586-7.888,3.576-11.464,5.731c-14.865-0.939-29.79-0.998-44.645-0.859c-21.72,0.207-43.28,0.836-64.233-0.287
					c-17.754,1.353-32.3,5.903-52.725,4.584c-14.752,2.052-23.233,10.385-41.251,9.171c-2.131-3.221-5.376-5.33-6.877-9.171
					c1.662-11.336,9.937-16.035,17.192-21.778c3.565-0.629,7.462-0.939,10.316-2.292c29.412,1.697,52.231,7.887,79.076,13.755
					c7.966,1.742,17.538,2.968,29.791,2.292c8.229-2.464,15.267-6.132,19.485-12.608c-0.08-7.554,0.54-15.817-1.145-21.778
					c-3.187-3.324,3.771-2.968,2.292-8.023c1.112-4.688-2.831-7.335,0-10.305c5.204-3.599,12.975-4.606,19.486-6.877
					c10.34-4.573,18.877-10.923,26.363-18.339c0.4-1.513,2.017-1.8,2.292-3.438c1.847-0.321,1.972,1.077,3.439,1.146
					c6.934,7.197,13.216,15.05,20.631,21.777c2.729,4.527,5.982,8.516,10.306,11.45c2.108,4.77,7.438,6.328,8.021,12.609
					C338.451,184.65,338.404,186.437,338.083,187.96z M185.65,206.507c0.034-1.112,1.397-0.893,2.291-1.147
					C187.908,206.472,186.544,206.254,185.65,206.507z M241.803,166.39c-0.585-0.585,0.836-1.457,1.146-1.147
					C243.544,165.84,242.124,166.71,241.803,166.39z M260.142,136.601c0.928,0.607,1.856,1.19,3.438,1.146
					c0.218-0.355,0.733-0.882,1.365-1.387c1.604-1.295,3.988-2.521,4.366-0.905c1.535-1.146,2.247-3.095,4.585-3.438
					c4.894-3.13,5.546-10.5,12.608-11.462c0,0.768,0,1.524,0,2.292c4.825,0.136,5.799,4.137,9.169,5.729
					c-4.881,3.519-5.961,10.855-12.608,12.609c-2.029,1.02-1.467,4.653-5.73,3.44c0.894-1.021,1.226-2.591,1.146-4.586
					c-0.837-1.078-2.086-1.742-3.439-2.292c-1.444,0.286-1.157,2.281,0,2.292c0.997,2.705-5.833-1.318-2.292-1.146
					c1.146-1.524,1.891-3.462,3.438-4.584c-3.359-2.396-4.446,6.154-10.316,2.292c2.041,2.327,4.665,0.755,1.147,3.438
					c0.401,1.605,2.017,0.091,2.292-1.146c1.765,1.283,2.819,3.29,4.585,4.584c-1.743,0.208-7.073-0.274-9.17-4.584
					c-1.295,0.218-0.63,1.146,0,1.146c-1.994,2.257-9.433,5.009-8.023,6.877c0.195,2.488-4.058,0.516-5.731,1.146
					C253.941,144.141,257.184,140.508,260.142,136.601z M260.142,132.016c0.596,0.595-0.826,1.467-1.147,1.146
					C258.399,132.566,259.821,131.695,260.142,132.016z M276.188,113.675c7.508,3.187-1.398,8.815-4.585,11.463
					c-1.283,3.324-1.237-1.754,1.147-1.146C272.314,118.972,276.028,118.1,276.188,113.675z M276.188,142.332
					C279.673,139.201,273.059,145.815,276.188,142.332L276.188,142.332z M262.434,152.646c0,0.757,0,1.524,0,2.294
					c-0.768,0-1.524,0-2.292,0c0-0.77,0-1.538,0-2.294C260.91,152.646,261.666,152.646,262.434,152.646z M260.142,143.477
					c1.113,0.023,0.894,1.399,1.146,2.293C260.175,145.735,260.404,144.36,260.142,143.477z M256.703,154.94
					c-0.252,1.65-3.416,0.389-3.438,2.291C250.388,156.738,254.365,153.954,256.703,154.94z M291.088,104.506
					c-4.745-1.364-7.174-5.042-8.023-10.315c3.071,1.513,6.085,3.083,9.17,4.584C292.706,101.538,290.138,101.273,291.088,104.506z
					 M299.113,102.214c0.217-1.295,1.146-0.63,1.146,0C300.04,103.52,299.102,102.856,299.113,102.214z M252.118,80.437
					c-2.637,0.354-1.271-3.302-3.438-3.439c-0.597,3.015-1.788,1.272-6.877,2.292c-0.207-0.974,0.446-1.078,1.146-1.146
					c-2.086,0.057-6.511-2.006-8.025-5.72c-1.111,3.841-4.653,5.273-6.876,8.013c2.842-0.883,3.393-0.378,5.731-3.439
					c1.317,3.736,3.965-0.401,6.876,2.292c-0.264,3.553-3.187,4.459-4.584,6.877c-0.758,4.207-1.216,8.723-2.292,12.608
					c-6.465,0.366-7.313-4.894-11.451-6.877c-1.833-4.275-7.13-5.089-8.024-10.315c6.671-2.878,15.028-4.07,19.475-9.159
					c1.225-5.066-2.26-8.86,0-11.461c-8.529,0.126-9.055-7.748-17.183-8.023c-0.962-7.084,5.238-6.992,6.877-11.463
					c3.221-2.888,3.966-8.252,10.305-8.023c1.742,4.322,1.913,8.413,1.145,12.609c2.717,5.307,5.32,10.728,13.755,10.315
					c0.928-0.217,1.146-1.157,2.292-1.146c6.5-3.438,3.461-16.413,9.17-20.631c5.948,5.514,10.27,12.655,16.046,18.34
					c-0.745,4.218-6.82,3.117-10.316,4.584c-4.046,0.527-4.023,5.135-9.169,4.585c1.96,5.845-1.386,9.96-1.146,16.036
					C253.597,78.098,252.588,79.004,252.118,80.437z M256.703,82.729c-2.04-0.837-0.16-2.075,0-3.438
					C258.743,80.138,256.875,81.376,256.703,82.729z M257.85,98.775c2.073-2.888,3.932-6.006,3.438-11.462
					c-0.287-1.237-2.281-0.769-2.293-2.292c-0.194-4.826,1.767,0.021,3.439,0c2.889-4.459,2.075-10.258,1.146-16.035
					c7.611,1.169,11.989,5.583,18.339,8.012c2.052,0.149,2.418-1.398,4.585-1.146c5.869,0.218,9.995,7.106,8.023,11.462
					c0.492,1.41,1.467,2.361,3.438,2.292c-0.847,1.079-2.085,1.741-3.438,2.292c2.017-0.103,4.31,3.29,6.878,5.732
					c-5.754,2.292-8.907-7.886-17.193-6.877c-0.641-1.652-1.789-2.798-3.439-3.439c1.283,1.41,0.997,2.361-1.147,2.292
					c1.606,4.012-3.209,7.336,0,9.17c-3.563,8.287-9.34,14.339-11.461,24.071c-3.096,1.868-5.456,4.481-6.877,8.022
					c-1.548-2.785-2.293-0.709-3.438-2.293c-1.353,3.542-2.878-0.182-4.585,2.293c-1.8-0.492-0.975-3.611-4.585-2.293
					C251.111,118.765,259.775,109.125,257.85,98.775z M246.387,150.354c4.837-1.787-0.252,6.362,4.585,4.586
					c-2.097,3.632-6.314,5.134-10.315,6.876c-0.092-1.823,0.55-4.379-1.146-4.585C240.485,153.609,245.425,153.965,246.387,150.354z
					 M231.486,170.974c2.992,0.917-3.266,1.914-4.584,2.293c-0.206-0.975,0.447-1.078,1.146-1.146
					c-0.63-2.58-1.777,1.399-3.427-1.146C225.835,166.447,228.094,171.273,231.486,170.974z M229.194,175.56
					c-0.583-0.584,0.837-1.456,1.146-1.146C230.937,175.009,229.516,175.88,229.194,175.56z M222.329,172.121
					c-0.219,1.306-1.157,0.643-1.147,0C221.401,170.825,222.329,171.491,222.329,172.121z M215.451,167.536
					c-0.332,1.354-5.054,4.768,0,4.585c-1.615,2.842-3.954,2.028-6.878,1.146c1.767-2.809,0.689-8.47,5.732-8.024
					C213.021,166.653,213.308,167.605,215.451,167.536z M163.872,162.962c2.546-3.782,2.9,0.217,3.438-4.584
					c2.282,0.012,1.456,3.118,4.585,2.293c-3.93-1.995-0.539-3.36,2.292-4.586c2.934,0.505,5.272,1.604,6.877,3.439
					c2.786-0.963,7.44-1.777,8.023,2.292c6.019,0.745,8.013-0.642,10.315,4.573c5.595-0.826,9.983-7.909,14.901-5.719
					c-5.822,4.229-13.375,9.363-22.924,9.156c-4.458-0.091-9.17-2.739-13.754-3.438c-1.628-0.092-3.243-0.184-3.438,1.146
					c-1.961,0.056-2.968-0.848-3.439-2.292c-3.851,1.123-6.67,3.267-9.169,5.731C157.649,169.071,170.704,164.143,163.872,162.962z
					 M192.527,170.974c-2.43,3.198-3.324,0.802-6.877,2.293c0-1.146,0-2.293,0-3.439
					C188.356,169.805,189.021,171.811,192.527,170.974z M181.065,172.121c0.332,6.075-2.969,8.505-2.292,14.9
					c0.814,4.16,8.355,1.582,12.608,2.293c10.901-1.318,16.826-7.622,26.363-10.316c2.039,7.886,7.634,12.23,13.742,16.048
					c-2.165,4.699-7.552,6.188-13.742,6.877c-23.279-4.608-44.483-11.292-67.626-16.048
					C161.97,182.963,164.927,167.192,181.065,172.121z M148.971,178.998c-0.021,1.124-1.397,0.895-2.291,1.146
					C146.714,179.033,148.089,179.262,148.971,178.998z M74.48,411.654c-2.625-2.34-0.413-9.525-1.146-13.754
					C75.993,398.987,76.336,407.208,74.48,411.654z M105.427,410.508c0.149,2.052-1.409,2.419-1.146,4.585
					c0.975,0.204,1.077-0.448,1.146-1.148c3.325,0.642-1.765,1.79-1.146,3.439c-2.579-0.481,0.172-6.293-3.438-5.73
					C101.198,410.093,103.708,410.703,105.427,410.508z M98.55,418.53c1.169-0.743,1.182-2.635,3.439-2.292
					c-0.149,2.053,1.399,2.419,1.146,4.586c-6.66,1.925-16.896,0.435-21.778,1.146c-0.218-0.928-1.146-1.146-1.146-2.292
					c-3.577,1.901-5.547-4.264-3.438-1.147c3.049,0.012,6.544-0.435,8.023,1.147c0.195-1.73,2.556-5.056,6.878-5.732
					c-1.582-4.697-4.208-2.382-9.17-2.291c2.131-2.028-0.493-3.347-1.146-5.73c-4.539,0.354,1.284,3.976-3.439,3.438
					c1.536-3.049,0.367-8.804,3.439-10.316c-0.642-2.337-3.451-2.246-1.146-4.584c5.537,0.962,1.959,11.027,5.731,13.755
					c6.637-3.507,8.058,4.836,13.754,5.729c0.63,2.533-2.188,1.627-2.292,3.439C98.378,417.165,98.481,417.831,98.55,418.53z
					 M90.527,394.46c2.91,1.524-1.686,5.089-1.147,8.023C86.401,400.878,90.218,396.547,90.527,394.46z M99.696,402.484
					c-0.711,1.021-1.387,2.052,0,2.292c-0.745,1.171-2.636,1.182-2.292,3.439C93.576,407.781,96.119,402.116,99.696,402.484z
					 M160.433,337.162c-4.103-2.224-4.194,0.435-8.024,1.147c-0.205,0.975,0.448,1.078,1.148,1.145
					c-0.103,2.213-4.471-1.981-4.586,2.294c-1.718-3.542-7.254-0.688-10.315-2.294c-0.905,0.126-3.473,3.784-1.146,3.44
					c-0.276,1.236-2.271,0.767-2.281,2.291c-2.797-0.653-5.903-0.985-5.731-4.585c7.369-0.584,12.608-5.478,19.473-4.584
					c1.354-0.194,0.974-2.099,1.147-3.439c1.536,0,3.061,0,4.584,0c-0.217,0.93-1.145,1.135-1.145,2.293
					c0.446-0.595,5.57-1.697,2.292-2.293c0.505-1.707,1.467,0.448,3.439,0c-0.607,0.918-1.192,1.857-1.146,3.439
					c1.857,0.321,1.973-1.09,3.439-1.146C163.883,332.143,161.075,336.142,160.433,337.162z M140.948,323.409
					c0.035-1.112,1.411-0.895,2.292-1.147C143.218,323.374,141.841,323.143,140.948,323.409z M171.896,329.139
					c-2.085,0.319-7.335-3.682-4.585-1.147c-1.719,2.454-2.796-0.824-5.73,1.147c0.218-4.368,6.396-2.774,6.877-6.878
					C170.886,323.409,174.015,326.88,171.896,329.139z M168.457,313.091c0.596,0.597-0.826,1.468-1.147,1.147
					C166.715,313.642,168.136,312.771,168.457,313.091z M174.188,326.846c1.593-1.467,0.7-5.41,2.292-6.877
					c0.791-2.189,1.788,1.238,0,1.146c0.035,1.111,1.398,0.883,2.292,1.146C177.42,323.958,177.776,327.384,174.188,326.846z
					 M199.404,309.654c-2.533-0.493-3.599,4.93-8.023,5.73c4.414-3.646-5.811-2.27-1.146,0c-2.211,3.942-4.687-1.295-3.439-4.584
					c1.112,0.035,0.895,1.397,1.146,2.291c3.302-1.226,3.794-3.473,2.293-6.876c2.866-0.195,2.785,2.566,4.585,3.438
					c1.455-1.662-2.018-2.557,0-6.878c4.081-0.264,5.994,1.651,5.73,5.73C198.499,308.186,198.201,309.585,199.404,309.654z
					 M213.159,289.022c-0.596,0.596-1.467-0.826-1.146-1.146C212.598,287.291,213.468,288.712,213.159,289.022z M289.942,289.022
					C286.813,285.537,293.428,292.152,289.942,289.022L289.942,289.022z M333.487,317.676c-1.616-4.435-4.445-5.879-4.585-9.17
					c-1.687,2.511-2.465,5.938-6.866,5.732c-0.239-3.83-5.789-3.038-1.146-5.732c-3.404,0.803-4.999,3.416-10.316,2.294
					c3.22-4.494,6.855-5.033,11.462-3.439c3.75-0.068,4.38-3.255,9.159-2.292c-0.322,2.051,1.09,2.349,1.146,1.146
					c1.442,0.286,1.157,2.279,0,2.291c0.642,2.592,1.787-1.387,3.44,1.147c3.391-0.997-2.662-1.72-1.149-4.585
					c3.92,0.47,1.456,3.095,5.732,1.146c3.6,3.324-2.294,12.447,2.292,12.607c0.218,0.974-0.447,1.077-1.146,1.146
					c0,0.756,0,1.523,0,2.292c-2.66-1.157-3.69-3.943-3.439-8.022C335.058,313.895,337.177,318.685,333.487,317.676z
					 M331.195,293.607C328.065,290.123,334.69,296.736,331.195,293.607L331.195,293.607z M397.673,365.804
					c2.029-3.758,4.643,1.343,5.73,2.296C401.549,371.685,399.772,365.75,397.673,365.804z M433.195,419.677
					c-3.416-2.028,0.665-6.11,4.585-4.584C437.675,418.038,433.309,416.729,433.195,419.677z M430.869,408.022
					c0.01,0.067,0.023,0.125,0.037,0.193c2.276-0.013,1.454-3.129,4.582-2.292c-0.184-1.341-2.086-0.963-3.438-1.147
					c0.355-1.557,2.876-0.95,4.585-1.146c0.401,3.794,3.438,4.975,5.729,6.878c2.717-2.168-5.03-7.932-1.146-11.464
					c0.677,1.237,2.063,5.675,4.161,8.608c0.138,0.195,0.274,0.376,0.424,0.563c4.184-0.678,5.596-1.879,9.17,1.146
					c-0.286,1.445-2.28,1.157-2.292,0c-1.698,0.492,0.458,1.468,0,3.438c-4.449,0.286-5.641-2.68-7.45-5.031
					c-0.185-0.241-0.379-0.481-0.574-0.699c-4.447,4.046,5.755,7.164,2.292,12.608c-1.444-3.956-2.969-2.476-5.73-3.439
					c0.951-3.243-1.616-2.969-1.146-5.729c-2.924,0.597-4.013,1.511-5.73-1.147c-1.021,4.185-4.882-0.813-4.585,3.438
					c-2.235,0.563-4.129-5.684,0-4.584c-1.961-1.479-3.108-3.771-3.438-6.877c-4.966,1.661,1.213,2.557,0,6.877
					c-3.348-3.52-8.574-5.169-10.317-10.315c1.916,0,3.829,0,5.732,0c-2.534-2.213-1.857-6.11-6.879-8.024
					c-0.32-1.845,1.09-1.971,1.146-3.439C422.958,391.629,429.102,397.624,430.869,408.022z M406.844,348.613
					c0.437,1.043-0.517,3.841,0,5.73c0.836,3.106,1.858,6.179,5.722,6.878c-2.835,2.819,3.253,2.566,2.289,6.879
					c1.984,1.845,4.173,3.471,3.44,8.021c0.491,1.801,3.609,0.987,2.291,4.586c-4.093-2.247-6.28,0.354-8.021,3.438
					c-2.135-0.916-4.198-1.914-6.868-2.294c1.159-1.5,1.124-4.217,2.293-5.729c-1.157-0.779-5.743-6.35-1.146-5.732
					c-0.583-3.621-3.382-5.029-3.44-9.168c-2.039-2.924-5.365-4.562-5.73-9.172c-1.077,0.849-1.742,2.087-2.291,3.441
					c-2.143-2.235-4.208-0.346-6.877,0c-1.057-2.008-2.132-3.979-5.731-3.441c1.225-4.273-2.855-3.254-2.292-6.864
					c2.866,0.137,3.586,2.178,4.583-1.146c-0.17-2.567-2.888,1.479-5.729,0c-0.838-5.056-0.116-7.416-5.731-9.17
					c1.72-3.795,2.797,2.373,5.731,1.146c3.209-0.023-2.729-3.13,2.293-2.293c-3.703-1.753-1.319-4.138,3.437-3.438
					c-2.853-1.031-9.959-3.713-12.607-1.146c-1.112-0.035-0.894-1.41-1.146-2.293c-3.162,0.264-0.415,6.466-4.587,5.73
					c-0.206-0.973,0.447-1.089,1.148-1.146c-2.556,0.343-6.615-2.831-9.17-5.731c-3.897,1.215,3.187,0.355,1.146,3.439
					c-1.146,0-2.292,0-3.439,0c-1.317,0.4-2.9,2.017-1.146,2.292c-1.031,2.019-4.217,1.891-4.584,4.585
					c-1.697-0.597-2.89-1.696-4.585-2.293c0.286-1.249,2.282-0.778,2.293-2.292c-2.992-0.333-4.928,0.412-4.586,3.438
					c-2.657-0.321-2.636-3.061-1.146-4.585c-2.338,0.643-2.246,3.451-4.586,1.146c-0.834-1.88,2.282-4.987,2.294-2.292
					c2.487-1.72,2.668-5.744,6.877-5.73c-2.706-4.082-2.282-10.477-1.146-14.902c-0.218-1.307-1.146-0.641-1.146,0
					c-1.595-1.925-0.679-6.578,0-8.022c-2.728-5.364-4.299-10.89-3.439-16.047c-1.112-1.169-2.259-2.315-3.439-3.438
					c0.494-2.235,3.279,1.879,2.294-3.439c2.396,2.499,3.277-0.574,6.877,0c1.089-2.121-6.558-0.699-2.292-2.293
					c-0.218-1.295-1.147-0.63-1.147,0c-3.416-1.456-0.583-4.596-4.585-6.877c1.984-6.671,1.72-8.895,2.293-16.036
					c-1.043-2.408-3.381-3.495-6.878-3.438c0.895,3.691,2.396,6.763,4.585,9.169c-2.463,4.882-0.732,11.6-2.292,14.89
					c0.219,1.306,1.158,0.642,1.146,0c4.735,1.283-5.157,3.724,1.146,3.438c-1.72,0.585-2.245,2.339-2.371,4.528
					c-0.127,2.532,0.298,5.628,0.079,8.081c-2.235-1.273-5.856-0.539-3.438,1.146c-2.189,2.005-4.86-0.986-8.024-1.146
					c-0.022,2.705,1.984,3.381,1.146,6.877c-4.929-0.47-1.512-3.92-3.436-5.73c-1.021,7.026-6.56-1.605-8.015,3.439
					c-0.984-2.648,0.516-3.13-4.585-3.439c0.219-0.929,1.148-1.146,1.148-2.292c-3.177,0.366-1.996,3.553,0,4.584
					c-2.076,1.651-3.521,0.264-8.025,1.147c-2.281-4.002-5.421-1.169-6.877-4.585c-1.341-0.183-2.04,0.251-2.292,1.146
					c-2.671-0.78-3.071-3.806-5.731-4.585c-1.168,0.746-1.191,2.636-3.439,2.293c0-0.769,0-1.525,0-2.293
					c-2.658-0.08-3.759-4.413-9.169-2.292c0-0.757,0-1.523,0-2.292c-5.627,4.286,8.265,10.247,2.293,18.339
					c-1.697-1.616-2.464-3.657-2.293,1.146c-2.533-4.298-1.489,1.329-4.585-1.146c3.428,6.143-6.728-5.469-4.584,4.584
					c-5.295-2.179-1.296-3.118-1.147-8.023c-4.802,0.263,0.677,3.633-3.438,4.585c-3.588-0.791-1.491-3.062-1.146-5.731
					c-4.78,1.57-0.757,4.826-5.731,5.731c0.412,1.5,2.017,1.8,2.293,3.438c-0.517,3.084-4.058-6.809-3.439,1.146
					c-3.588-0.791-1.49-3.061-1.146-5.73c-2.969,1.34-4.734,1.261-8.023,2.291c-1.296-2.43-0.436-3.324-2.292-6.877
					c-2.259,0.791-3.049,3.061-3.439,5.731c-2.591-0.757-5.743-3.438-3.438-5.731c-1.651,1.284-2.798,1.238-3.439-1.145
					c-4.516,2.234-3.496-2.236-8.012,0c-3.737,5.616-5.342-6.396-6.877,0c-3.749-2.614-1.938-3.646-4.585-6.878
					c-0.927,0.217-1.146,1.146-2.292,1.146c-0.401,1.729,1.262,3.931-1.146,8.023c-3.747,0.298-3.312-3.565-5.73-4.585
					c-1.479,1.582-4.986,1.136-8.023,1.146c0.756-4.194-2.487-4.401-2.293-8.023c-1.776,1.283-2.383,3.725-5.731,3.439
					c2.144,2.041-0.927,2.911,0,6.876c-0.767,0-1.523,0-2.291,0c0.882,5.468-4.081,5.09-3.439,10.316
					c-3.014-0.344-3.759,1.581-3.438,4.585c1.341-0.184,0.963-2.088,1.146-3.438c4.598,1.466-3.403,5.456,0,5.73
					c-2.556,3.313-7.84-2.729-8.023,3.438c-2.041-0.836-0.16-2.086,0-3.438c0.561-2.888-5.685,3.197-4.585-2.292
					c-4.492-0.241-7.863,6.591-10.314,4.585c-2.947,0.275,1.581,1.971,0,4.584c-3.348,0.47-3.714,3.92-5.732,5.73
					c-0.596-7.175-14.317-4.906-17.182-1.145c0.275,1.443,2.269,1.157,2.292,0c2.739,3.506-1.823,2.681-4.585,3.438
					c0.023-1.111,1.399-0.893,2.292-1.146c-2.384-3.76-4.677,2.098-5.732,3.439c-3.552,1.03-6.316,2.854-9.169,4.584
					c0.126,2.189,3.828-1.353,6.878,0c-2.626,1.96-5.949,3.221-9.17,4.586c1.799,1.696,1.272,5.11-2.292,4.585
					c5.514,1.615,16.333-2.832,17.193,6.864c1.525,0,3.049,0,4.585,0c-0.356,4.552-3.989-1.273-3.438,3.438
					c-0.928-0.217-1.146-1.146-2.292-1.146c-1.078,0.849-1.743,2.087-2.294,3.441c0.402,1.615,2.018,0.103,2.294-1.147
					c3.426,0.757-1.101,2.452,0,4.585c-2.855,0.174-4.757-0.586-5.732-2.292c-0.549-4.712,3.083,1.111,3.438-3.44
					c-1.993-1.948-3.002,0.186-6.876-1.146c1.112-1.168,2.258-2.313,3.438-3.437c-1.135-1.548-3.06-2.28-4.584-3.428
					c-2.476,0.47-7.29,8.607-9.169,2.282c-2.82,2.2-2.58,3.896-3.164,6.108c-0.24,0.904-0.618,1.903-1.42,3.061
					c4.492-1.995,6.177-6.809,13.753-5.73c-3.095,6.072-13.674,4.676-16.047,11.463c-0.606-0.634-1.09-0.883-1.524-0.883
					c-1.444-0.014-2.155,2.796-4.207,3.172c0.402,1.516,2.018,1.813,2.293,3.442c-2.843,1.282-4.769,7.265-8.024,4.582
					c1.456,2.979,2.511,3.464,1.147,6.879c-9.147-1.503-9.708,5.569-13.755,9.169c-4.769-1.365,0.882-3.921,1.146-6.879
					c-1.066-4.823-3.347-8.653-1.146-11.462c-1.124-1.547-3.863-1.479-4.585-3.438c0.115-4.471,4.631-4.54,6.878-6.878
					c4.274-1.822,5.101-7.128,10.314-8.024c1.354-1.694,0.986-5.109,4.586-4.582c2.098-8.976,10.51-11.646,11.461-21.768
					c0.757,0,1.525,0,2.293,0c-2.464-2.453-0.424-6.247,2.292-6.877c-0.85-1.066-2.087-1.741-3.438-2.292
					c2.166-4.654,6.636-1.523,8.023-8.024c-0.092-2.945-5.341-1.638-2.292-4.584c-1.628-0.104-3.245-0.195-3.439,1.146
					c-2.958-0.275,1.57-1.972,0-4.585c3.232-0.952,2.968,1.615,5.73,1.146c-3.817-1.342-2.109-8.264,2.292-8.022
					c-2.155-3.978,1.307-4.356,2.292-8.024c-4.275-1.214-1.822,4.299-5.731,3.439c0.734-4.998,4.929-6.522,4.585-12.609
					c0.928,0.219,1.134,1.158,2.292,1.147c-3.198-7.061,3.026-8.367,5.731-12.608c-0.035-1.112-1.41-0.883-2.293-1.146
					c1.433-4.276,5.295-8.344,3.439-12.597c4.803,1.364,2.04-4.837,4.584-5.731c-5.617-3.955-10.671,3.404-13.754,0
					c-9.857,4.562-23.451,3.553-33.24,0c-2.946-2.797-3.989-7.473-9.17-8.023c-4.574-8.517-1.547-10.5-3.439-19.486
					c2.649-1.181-0.034-7.668,4.585-6.876c2.821-14.752,16.917-18.237,28.655-24.071c2.373,0.688,7.53-1.409,8.023,1.146
					c1.112-0.022,0.883-1.398,1.146-2.292c4.688,0.288,11.049-1.113,12.609,2.292c5.295-2.841,11.839,2.878,16.035,1.147
					c3.129-0.836,2.315,2.281,4.584,2.292c9.537,0.745,17.834,2.842,26.809,5.032c4.218,1.02,8.586,2.063,13.308,2.991
					c0,0.768,0,1.525,0,2.293c3.623-1.572,3.829-0.253,8.023,0c-1.101,4.16,5.146,0.962,4.585,4.584
					c0.091-0.022,0.183-0.047,0.275-0.057c2.785-0.642,1.524-0.55,4.308,0.057c3.21,0.71,5.916-1.192,9.171-1.147
					c2.373,0.035,4.482,1.732,6.877,1.147c7.198-1.743,11.553-5.891,11.451-12.609c2.062-0.149,2.418,1.409,4.584,1.147
					c0.47-2.764-2.086-2.487-1.146-5.731c-1.949-0.424-2.155,0.893-2.293,2.292c-3.37-1.972-2.109-8.585-6.877-9.17
					c0.71-1.021,1.387-2.052,0-2.292c1.536-2.2,5.089,1.318,8.023-1.146c-0.698-1.066-2.659-4.23,1.147-3.438
					c-1.628-2.958-6.59-2.568-8.024-5.732c3.164-0.745,2.682-7.782-2.292-6.865c0.343-3.094,4.826-2.063,5.73-4.584
					c2.431,0.71,4.449,7.668,2.293,9.158c0.218,1.307,1.157,0.642,1.146,0c2.854,0.184,0.344,3.886,0,4.585
					c0.78,1.078,1.239,2.224,1.513,3.427c1.112,4.964-1.112,10.866,1.926,17.205c-0.173,0.939-0.505,1.718-0.929,2.418
					c-1.421,2.418-3.92,3.77-4.802,6.751c0.194,1.34,2.097,0.962,3.438,1.145c0.493,4.3-6.877,0.07-3.438,2.292
					c-0.277,1.445-2.271,1.158-2.292,0c-2.924-1.237-4.012,4.94-5.731,1.147c-2.579,0.641,1.398,1.788-1.146,3.438
					c-1.512-1.489-4.253-1.512-4.573,1.147c-6.682-2.408-13.503-1.571-18.5-3.508c-0.756-0.287-1.469-0.641-2.132-1.077
					c-1.02,0.504-2.052,1.008-2.293,2.292c-2.417-2.017-3.392-2.579-6.876-1.145c-2.098-0.895,0.688-1.227,2.292-1.146
					c-5.226-3.175-14.19-2.625-17.193-8.023c-1.604,0.401-0.103,2.017,1.146,2.292c-2.912,2.04-9.193,0.953-13.755,0
					c-0.377-0.08-3.288-2.28-3.438-2.292c-0.951-0.046-1.787,1.501-3.439,1.146c-0.63-0.137-2.968-2.167-3.439-2.292
					c-1.788-0.458-3.907,0.321-5.731,0c-1.867-0.333-3.392-2.132-4.583-2.292c-1.674-0.218-1.708,1.112-2.293,1.146
					c-0.538,0.034-3.736-3.037-4.584,0c-3.37-3.118-9.353-3.633-14.89-4.584c-3.198-0.425-6.98,4.367-9.169,1.146
					c-6.179,3.129-14.569,7.094-19.485,8.022c-1.731,1.708-1.742,5.137-5.731,4.585c0.4-1.501,2.016-1.8,2.292-3.437
					c-3.359,1.65-5.479,5.203-3.438,9.169c-2.178-0.229-3.794,0.091-4.379,1.455c-0.229,0.505-0.297,1.158-0.206,1.983
					c-0.367,3.037,6.418-1.078,4.585,3.438c-3.026-1.81-3.554-1.272-2.293,2.293c-1.249-0.287-0.78-2.281-2.292-2.293
					c-1.113,0.035-0.883,1.399-1.146,2.293c-0.195,2.487,4.069,0.515,5.731,1.146c-2.843,9.272,7.575,10.316,4.585,16.047
					c4.251-0.435,7.816-0.183,8.022,3.439c1.995-1.067,6.156,0.033,5.73-3.439c2.694,3.53,0.678,0.458,4.586,0
					c-0.607,0.917-1.204,1.857-1.147,3.439c8.895-6.396,20.906-9.664,33.229-12.609c4.207,0,8.414,0,12.607,0
					c-5.409,6.82-12.688,11.771-18.899,17.778c-0.195,0.183-0.39,0.378-0.573,0.562c0.79,2.178,5.215-1.559,5.719-3.438
					c1.445,0.274,1.158,2.27,0,2.292c0.344,2.716,3.107-1.284,3.439-2.292c3.793,1.719-2.374,2.796-1.147,5.73
					c-1.845,0.321-1.971-1.089-3.439-1.147c0.494,2.178,2.476,2.878,2.293,5.732c-4.355-1.686-0.218,5.112-4.584,3.438
					c0.492,2.384-0.78,3.027-1.135,4.574c7.187-2.74,8.081-11.771,11.45-18.328c0.424-1.949-0.894-2.167-2.293-2.292
					c3.131-3.76,6.031-7.738,11.464-9.17c1.317-0.414,2.91-2.018,1.145-2.293c3.497-2.247,10.558-0.917,13.755-3.438
					c2.671,0,5.354,0,8.023,0c5.399-0.688,13.056-4.045,18.34-1.147c20.115,0.551,37.997-1.123,57.378-1.307
					c4.471-0.034,9.009,0,13.674,0.162c0,0.767,0,1.524,0,2.292c7.76-2.774,29.607,1.261,38.971-3.439
					c1.282-3.679,7.051-2.888,10.316-4.585c1.295-0.217,0.63-1.146,0-1.146c0.17-2.854,3.874-0.332,4.575,0
					c2.382-2.969,5.166-5.537,8.021-8.024c-0.366-2.43-3.541,1.64-4.586,2.293c-3.289-1.916,2.133-4.642,4.586-4.585
					c2.934-2.418,5.135-5.571,9.17-6.877c-0.607-0.917-1.192-1.857-1.147-3.438c0.77,0,1.537,0,2.293,0
					c-0.652-1.949-0.63-4.768-0.184-7.68c0.631-4.034,2.073-8.264,3.623-10.659c-2.214-4.665-7.897-5.847-9.168-11.462
					c-0.747-1.157-2.64-1.181-2.295-3.428c4.255,0.711,4.55,5.388,9.17,5.72c-0.435,3.874,1.995,4.894,3.438,6.877
					c3.495-0.94,2.75-3.221,6.879-1.146c-0.037-1.112-1.401-0.882-2.294-1.146c3.255-4.768,7.588-8.459,10.315-13.743
					c4.722,7.174,8.46-8.401,3.439-11.462c3.301-7.026,9.868-10.763,14.9-16.046c1.238,0.287,0.777,2.281,2.293,2.292
					c1.136,0.104,2.645-0.219,4.01-0.711c2.282-0.814,4.118-2.122,2.867-2.729c0.354-1.559,2.864-0.95,4.585-1.145
					c2.005-4.059-0.768-2.821-1.147-6.877c1.524,0,3.05,0,4.586,0c-0.609,0.916-1.203,1.856-1.146,3.438
					c2.439,0.538,2.178-1.639,2.291-3.438c-0.184-1.342-2.097-0.963-3.437-1.147c-0.802-4.242,4.011-2.854,5.73-4.584
					c0.045-1.961-0.86-2.968-2.294-3.439c-1.605,0.402-0.103,2.018,1.146,2.293c-1.706,3.77-3.242-1.949-4.582-2.293
					c4.011-5.055,11.071,1.296,16.046,2.293c1.306-2.499,3.956-3.681,6.866-4.585c-4.22-2.647-13.354-0.401-19.476-1.145
					c-2.911,0.137-6.499-4.837-8.022-2.293c-3.531-1.444,1.271-3.439,2.292-1.146c0.347-4.998-8.758,0.275-4.582-5.731
					c-2.34,0.344-2.248,3.105-4.587,3.438c-0.827,3.508,1.168,4.184,1.147,6.877c-1.516,0.619-2.396-0.94-2.648-2.855
					c-0.344-2.67,0.539-6.017,2.648-5.167c-0.667-3.152-2.855-4.781-3.439-8.024c2.91,0.137,4.446,1.674,4.583,4.584
					c6.729,0.241,8.47-4.517,13.754-5.73c1.067-0.838,1.733-2.086,2.296-3.438c5.719,2.291,15.908,0.136,21.765,2.291
					c-0.493,2.568-5.64,0.47-8.024,1.147c9.215,2.143,17.115,1.971,22.925,9.17c2.59-0.643-1.387-1.789,1.147-3.439
					c3.012,2.979,0.904-1.845,4.585-1.146c0.021,2.705-1.973,3.381-1.148,6.877c-0.571,0-1.146,0-1.717,0c-1.332,0-2.673,0-4.013,0
					c-0.471,2.762,2.096,2.499,1.146,5.73c-4.964,0-9.926,0-14.9,0c0.276,3.164,6.465,0.413,5.73,4.585
					c1.343,0.183,2.041-0.253,2.296-1.146c1.671,0.503-0.118,1.008,0,2.292c4.273,1.214,1.817-4.298,5.729-3.439
					c-1.271,1.411-1,2.351,1.146,2.293c-1.021,2.04-3.197,2.911-2.292,6.877c3.838,2.051-0.152,5.982,3.439,9.169
					c3.449-3.52-0.495-9.377-1.147-12.608c5.456,0.458,1.994,8.024,3.841,12.574c0.366,0.928,0.96,1.73,1.892,2.327
					c0.344,3.014-1.584,3.76-4.585,3.438c2.371-3.599-0.793-1.501-3.439-1.146c0.173-0.494,0.401-0.917,0.709-1.273
					c0.528-0.607,1.284-0.986,2.396-1.007c0.104-0.012,0.219-0.012,0.335-0.012c-0.058-0.023-0.126-0.046-0.186-0.058
					c-2.464-0.813-5.591,0.688-8.562,2.602c-2.293,1.479-4.471,3.209-6.153,4.333c2.485,2.384-0.141,3.702-1.147,5.731
					c0.377,1.765,8.687-4.184,10.315-1.146c2.877-0.951,4.505-3.14,8.023-3.438c2.361-0.321,2.294-3.061,3.438-4.585
					c2.476,0.286,5.273,6.063,3.439,6.878c0.331,2.52,3.496,2.199,3.496,5.042c0,0.207-0.023,0.436-0.057,0.688
					c-1.697,0.975-2.466,2.877-2.293,5.731c-3.532,0.849-2.202-3.152-5.73-2.292c2.703,6.842,9.764,9.341,13.754,14.89
					c0.687,2.373-1.847,7.966,2.291,6.877c-0.332,2.339-3.106,2.246-3.439,4.584c2.639,2.247,1.651,3.542,4.588,6.877
					c-0.185,1.341-2.089,0.975-3.439,1.146c0.41,1.858,0.618,3.347,0.665,4.632c0.17,4.986-2.109,6.67-4.104,13.708
					c-1.113-0.035-0.894-1.399-1.146-2.292c-3.508,1.122,1.317,3.06,1.146,4.583c3.301-0.136,1.994-4.881,5.729-4.583
					c-2.36,4.893-4.171,10.338-3.439,18.338c-2.704,0.355-2.132,3.978-5.729,3.439c-0.563-4.023-1.708-7.461-1.146-12.608
					c-1.708,1.73-1.846,5.032-2.294,8.023c-3.209,0.734-0.801,7.393-5.73,4.585c0.217-1.307,1.146-0.642,1.146,0
					c2.385-4.619,4.711-9.697,2.293-13.754c-0.584,0.481-0.492,9.204-4.584,5.73c0.551,3.6-1.628,4.482-2.293,6.877
					c-6.773-4.847-11.884-2.2-21.778-1.145c-0.779-3.083,2.374-2.213,3.439-3.439c-1.571-3.623-0.241-3.828,0-8.023
					c3.267,0.859,5.535,6.499,4.586,8.023c1.534,0,3.059,0,4.583,0c1.731-0.998-0.308-1.72,1.147-4.585
					c1.341-0.184,2.039,0.252,2.292,1.147c1.236-2.969,4.986-3.427,5.73-6.878c0.333-0.067,0.561-0.044,0.724,0.058
					c-0.322-1.845,1.512-4.322,1.569-5.788c0.928,0.216,1.146,1.145,2.291,1.145c-0.503,1.41-1.891,4.7-3.86,4.643
					c0.318,0.184,0.377,0.63,0.424,1.089c2.601-0.837,3.427-3.45,4.585-5.732c0.927,0.607,1.856,1.193,3.437,1.147
					c2.957-0.275-1.569-1.972,0-4.584c-1.169,0.743-1.18,2.635-3.437,2.292c0.48-3.979-8.917-3.979-5.732-6.878
					c-0.837-1.066-2.085-1.73-3.438-2.292c-0.06-0.367-0.014-0.62,0.114-0.792c0.802-1.181,4.869,0.894,3.323-2.647
					c1.021,0.516,2.052,1.008,2.293,2.292c1.605-0.401,0.104-2.017-1.146-2.292c0.377-3.44,6.291-1.341,6.876-4.585
					c-2.396-1.593-14.878-0.481-20.63-2.293c-0.586-0.756-0.93-1.523-1.125-2.292c-0.859-3.291,0.86-6.407-3.462-6.877
					c-1.604,0.412-0.091,2.017,1.147,2.292c-3.049,2.339-3.358,2.085-2.293,6.876c1.798-0.492,0.984-3.599,4.586-2.292
					c-0.597,1.696-1.698,2.889-2.293,4.584c0.8,3.6,3.06,1.502,5.729,1.146c-0.148,3.967,5.043,2.603,5.731,5.731
					c-2.005,5.25-8.643,5.88-14.899,6.877c0.354-3.013-1.582-3.758-4.586-3.438c-0.184-1.33,0.264-2.04,1.146-2.292
					c-1.363-0.459-3.92-1.731-6.864-3.439c-0.127-3.553,1.398-5.469,2.292-8.024c-1.342-3.061-3.002,2.991-4.585,3.438
					c-2.361,1.008-5.146-2.968-2.294-3.438c-0.033-1.112-1.407-0.882-2.289-1.146c1.315-1.696,1.315-2.888,0-4.584
					c-1.126,0.034-0.896,1.41-1.147,2.292c-2.396-3.336-4.642-6.808-6.877-10.316c-4.665-1.077-3.531,6.66-6.88,3.439
					c-2.533,0.149-0.492,4.871-1.146,6.877c-5.203-2.144-1.559,4.562-5.729,3.438c1.33,1.696,1.33,2.887,0,4.584
					c3.622-2.429,4.505-5.833,10.315-3.438c3.496-1.397-1.674-4.366,1.146-5.73c4.549-1.111,3.552,3.324,4.586,5.73
					c-2.682-2.303-2.682,0.505,0,1.146c-0.174,2.855-3.886,0.344-4.586,0c3.793,4.643-3.15,6.178-1.146,12.609
					c-0.929-0.218-1.146-1.146-2.29-1.146c0.146,7.496-2.856,9.49-1.15,16.047c-1.649-1.284-2.795-1.238-3.437,1.146
					c1.213,4.034,5.832,7.897,1.147,11.462c3.081,0.79,2.211-2.372,3.439-3.439c0.593-4.183-5.035-5.146-2.296-8.023
					c2.122,0.172,0.701,3.885,2.296,4.584c3.116-1.055-1.607-3.587,0-6.877c2.67,3.817,3.906,9.077,3.436,16.047
					c-3.507-0.826-4.185,1.168-6.875,1.146c-2.099-3.256-1.56-9.146-5.732-10.316c-3.093,2.418,3.072,3.324,0,6.877
					c-1.525-1.157-4.264-1.089-4.585-3.439c-0.425-1.948,0.895-2.167,2.293-2.292c-1.71-3.484,0.379-4.459-1.146-6.877
					c-1.157-2.292-5.065-1.811-4.584-5.73c-1.56,0.355-0.953,2.865-1.148,4.584c0.643,2.591,1.789-1.387,3.438,1.146
					c-1.377,1.318-0.447,2.9,0,1.146c1.95,0.745,0.712,2.636-1.146,2.292c0.354,5.524,1.295,5.363,1.146,12.608
					c2.648,0.699,3.185,5.995,1.146,8.023c-2.66-1.284-3.072,0.241-5.73-2.292c0.217-5.181,0.939-10.878-5.73-9.169
					c1.867-3.759-0.265-4.378,0-9.169c-0.288-1.249-2.282-0.78-2.293-2.292c-6.625,4.242-0.414,11.554,3.438,14.9
					c1.295-0.217,0.631-1.146,0-1.146c5.614-3.461,2.304,8.355,0,10.315c2.705,3.027,8.013,3.438,10.315,6.877
					c0.687,2.04-3.358,4.757,0,5.731c2.212-0.115-1.981-4.481,2.293-4.584c2.544-0.63,1.627,2.189,3.438,2.292
					c-0.781,3.805-1.043,8.115-4.584,9.169c-0.93,3.955,2.143,4.837,0,6.866c-1.538-1.136-2.247-3.095-4.584-3.438
					c-0.793,3.083,2.368,2.223,3.437,3.438c-0.24,3.301,0.287,5.822,2.293,6.877c-1.33,1.901-2.283,0.389-3.979,0.492
					c-0.492-2.911,0.173-3.897-0.984-4.859c-0.071,0.699-0.173,1.364-1.147,1.147c-2.224-5.044-6.693-7.83-5.73-16.036
					c-1.581,0.045-2.521-0.549-3.439-1.146c-0.332,4.253-1.294,7.864-4.584,9.158c0.333-5.408-4.3-7.369-4.585-14.888
					c1.468,0.058,1.581,1.467,3.438,1.146c-0.067-3.759-3.267-4.39-2.292-9.17c-4.242-0.802-1.983,4.895-4.585,5.732
					c-1.697-1.365-1.788-4.333-3.438-5.732c0.161,2.006-2.578,1.112-4.526,1.021c-0.461-0.023-0.884,0-1.205,0.126
					c0.803,6.832,7.509,7.772,9.17,13.754c4.379-0.94,4.437,2.43,5.732,4.585c-2.396,3.118-4.312-4.058-5.732,1.146
					c1.248,0.264,2.75,1.88,1.146,2.28c-0.699,0.07-1.365,0.173-1.146,1.148c2.683-0.368,4.733-1.375,6.877-2.281
					c0.411,0.504,0.723,0.916,0.94,1.272c1.226,1.855,0.493,2.224,1.351,5.593c1.652,2.544,2.798-1.432,3.439,1.146
					c2.855,4.069,1.011,6.442,2.293,11.462c3.53,0.86,1.399-3.943,5.731-2.292c1.089-2.133-3.439-3.83,0-4.585
					c0.252,0.894,0.023,2.27,1.146,2.293c0.093-0.311,0.229-0.563,0.424-0.758c0.356,2.877,2.704,3.748,4.541,5.125
					c-0.506,1.707-1.468-0.448-3.439,0c2.462,3.278,5.457,6.005,6.877,10.315c2.935,0.882,6.499,1.146,8.021,3.438
					c-0.114,2.66-5.488,5.858-2.289,8.024c-0.034,1.11-1.41,0.894-2.293,1.146c5.077,2.019,2.175,5.686,2.293,11.462
					c5.397,0.813,6.819-2.349,10.315-3.438c-2.235,7.358,2.795,17.72,6.878,25.216c-0.931-0.218-1.147-1.158-2.296-1.146
					c0.645,1.65,1.79,2.797,3.439,3.438c0.093,1.628,0.184,3.244-1.144,3.438C402.338,343.971,405.402,345.197,406.844,348.613z
					 M388.505,121.699c-3.759,0.184-5.502-4.677-3.44-6.877C386.339,116.989,387.92,118.845,388.505,121.699z M420.586,263.806
					c4.367-1.685,0.229,5.123,4.587,3.438c-0.679,4.115,1.339,5.548,2.29,8.023c-0.104,4.287-1.282,3.267,0,6.878
					c-2.944-2.018-4.057-5.869-3.437-11.462C423.567,267.703,420.611,267.232,420.586,263.806z M419.441,253.501
					c-2.327,5.914-2.844,10.418,0,16.035c-3.105-2.51-2.844-1.26-6.875-2.292c-0.139-2.911-1.663-4.436-4.575-4.584
					c-1.134-5.364-5.756-7.232-6.876-12.597c1.947,0.412,2.153-0.894,2.289-2.293c5.227,1.869,3.624-5.57,6.879-2.292
					c-2.476,0.974-2.659,4.218-2.292,8.023c2.015-1.021,1.89-5.089,4.575-2.292c-1.744-2.098-1.744-9.376,0-11.462
					c3.551,2.063,0.614,3.508,1.144,8.022c1.834-1.489,4.618-1.511,2.292,1.147c3.6-1.271,3.037-0.539,5.732,1.146
					c1.306-0.217,0.642-1.157,0-1.146c0.354-2.431,3.988,1.203,3.439,3.438c-1.238-0.286-0.771-2.281-2.294-2.292
					c-0.195,2.866,1.765,3.588,3.439,4.585c-0.63,3.85,0.204,9.4-5.732,6.866c-0.321-2.603,0.274-4.298,2.293-4.574
					C422.523,252.389,418.902,258.211,419.441,253.501z M405.698,289.022c-4.058,0.71,0.94,8.917-2.294,12.607
					c-4.32,0.492-5.226-2.418-6.875-4.584c-2.59,0.641,1.387,1.788-1.146,3.438c-2.168-0.126-0.804-3.794-3.439-3.438
					c3.393-2.89,3.186-3.405,2.294-9.169c3.082,1.124,2.818,5.582,5.73,6.876c1.054-6.04-6.293-13.559-9.171-19.485
					c-1.078,0.849-1.742,2.086-2.291,3.439c-1.561-0.356-0.951-2.866-1.145-4.586c-3.66,2.224-2.764,6.431-5.732,6.878
					c1.181-6.912-5.468-5.996-4.585-12.609c1.408,0.505,2.35,1.467,2.292,3.439c3.564-3.049-4.564-12.941,2.293-10.316
					c0.021-2.693-1.974-3.371-1.146-6.866c2.921-0.057,1.397,0.849,1.146,2.292c-0.346,3.061,4.446-3.05,3.437,2.281
					c1.112-0.022,0.883-1.398,1.146-2.281c4.964,2.603,10.192,2.854,12.608,6.867c1.573,2.625-0.674,4.218,1.148,8.023
					c1.02,0.893,2.578,1.238,4.583,1.146c0.197,7.656-1.397,8.597,0,13.754c1.286,0.756,4.438,5.318,5.732,2.292
					c1.513,3.072,3.473,5.697,4.572,9.169C411.645,295.669,403.211,293.561,405.698,289.022z M383.921,236.308
					c1.602,0.401,0.091,2.019-1.147,2.292c0.32,2.407,3.061-1.663,4.587,1.146c1.543-0.355,0.95-2.877,1.145-4.585
					c2.051-0.149,2.417,1.398,4.585,1.146c-0.368,5.502-1.673,7.52-2.294,10.316c-2.153,3.094,1.363-2.419-1.146-3.438
					c-1.123,0.022-0.896,1.399-1.146,2.292c-2.109-2.946-2.867-0.699-5.731-3.439c-1.115,0.024-0.895,1.399-1.146,2.293
					c-1.65-0.264-0.402-3.427-2.293-3.438C379.701,238.199,382.877,238.326,383.921,236.308z M403.404,256.939
					c0.586,0.585-0.834,1.456-1.146,1.146C401.662,257.49,403.085,256.619,403.404,256.939z M398.819,247.769
					c-2.921-0.124-2.714-4.275-1.146-5.731C400.334,243.758,399.415,244.835,398.819,247.769z M409.136,286.729
					c-1.56-0.356-0.95-2.866-1.146-4.584C412.667,281.8,408.597,284.541,409.136,286.729z M409.136,267.244
					C406.006,263.76,412.621,270.373,409.136,267.244L409.136,267.244z M418.295,203.067c0.091-0.022,0.172-0.034,0.25-0.045
					c1.916-0.195,4.355,1.881,4.483,3.222c-0.977-0.207-2.51,4.149-2.579,4.848c-0.286-0.046-0.551-0.378-0.78-0.906
					C418.855,208.318,418.431,204.123,418.295,203.067z M424.027,264.952c-0.586-0.585,0.835-1.456,1.146-1.146
					C425.767,264.401,424.346,265.272,424.027,264.952z M410.283,318.823C413.766,315.694,407.153,322.306,410.283,318.823
					L410.283,318.823z M414.855,279.852c-1.363-3.025,5.515-2.957,0-3.438c0.242-1.536,4.768-2.132,0-2.292
					c0.997-3.335,1.72-1.283,4.586-1.146c0.104,1.822-0.552,4.378,1.146,4.585c-0.493,1.799-3.601,0.984-2.291,4.585
					C417.137,281.399,417.114,279.508,414.855,279.852z M417.149,293.607c4.264,0.262,3.221,4.068,2.292,6.876
					c-2.74,0.458,0.641-5.216-3.439-3.438C416.608,296.128,417.206,295.188,417.149,293.607z M418.295,308.506
					c-3.097-1.031,0.537-4.652,3.438-3.438C421.608,307.235,417.949,305.859,418.295,308.506z M425.173,305.069
					c0.033-1.112,1.408-0.895,2.29-1.146C427.442,305.034,426.065,304.817,425.173,305.069z M429.757,305.069
					c-3.313-4.884-5.73-0.311-5.73,2.292c-3.29-0.264-1.343-3.416-3.44-6.877c1.124-0.034,0.894-1.399,1.147-2.293
					C426.834,298.053,430.696,299.165,429.757,305.069z M442.364,308.506c1.458-1.375,6.362,3.52,6.879,6.878
					C444.91,315.131,445.965,309.493,442.364,308.506z M458.412,321.116c-4.561,0.354-3.105-5.309-6.876-5.731
					c-1.789-2.419-2.054-6.361-5.732-6.878c0.172-4.378-2.888-5.524-3.439-9.168c-5.706-5.744-10.762-12.163-13.754-20.632
					c7.864,4.757,9.479,15.747,18.339,19.484c-1.373,1.502-0.447,1.799,0,3.438c4.183,3.84,6.167,9.881,11.463,12.609
					C455.913,316.634,458.986,317.503,458.412,321.116z M459.557,306.215c1.148-1.524,1.891-3.463,3.439-4.586
					c-3.989-1.741-6.717-4.745-12.608-4.584c1.662-1.777,4.47-2.407,8.023-2.293c-2.603,4.093,2.062,3.015,5.73,2.293
					c2.786,5.238,4.447,11.6,10.315,13.755c-1.684,3.06-6.292-0.482-5.729-3.439c-1.652,2.533-2.798-1.445-3.438,1.146
					C463.915,307.211,463.213,305.24,459.557,306.215z M477.898,315.384c-0.977,2.97-5.034-2.212-6.877,1.146
					c1.168,2.646,7.666-0.035,6.877,4.585c-5.309-1.57-12.415-1.342-12.608-8.024C470.218,315.876,473.816,310.467,477.898,315.384z
					 M475.605,322.261c2.039,3.085-5.056,2.213-1.147,3.438c-0.023,1.399-6.475-0.298-8.021-1.146
					C466.447,321.424,473.403,319.396,475.605,322.261z M482.483,365.804c0-1.522,0-3.049,0-4.583
					c-2.396-2.946-2.787-7.91-6.878-9.172c0.021-4.229-0.516-7.884-4.584-8.01c1.9-2.282-0.104-1.467,0-4.586
					c-0.839-1.076-2.087-1.741-3.44-2.292c3.314-3.244,5.354,4.517,6.877,6.878c1.722,3.232,5.043,4.871,5.731,9.156
					c1.329,2.109,2.991,3.887,4.586,5.732C484.076,361.3,486.621,366.893,482.483,365.804z"/>
				<path d="M448.21,201.52c0.115,0.654,0.32,1.261,0.655,1.766c1.592-4.998,6.807-5.502,6.521-10.465
					c-0.059-0.917-0.297-1.995-0.791-3.29c-1.467-0.058-1.595-1.467-3.44-1.146C450.26,191.767,447.58,197.704,448.21,201.52z"/>
				<path d="M441.987,174.63c1.947-0.722,1.879-3.461,3.438-4.584c0.125,4.069,3.782-2.431,3.44,1.145c-0.644,0-1.31,0.93,0,1.148
					c3.62-5.674-6.134-6.477-9.172-9.159c1.536-0.756,2.131-2.452,2.293-4.584c-0.698-0.665-5.433-2.682-5.729,0
					c2.612-0.321,4.307,0.274,4.583,2.292c-2.11,3.291-2.853,2.579-5.731,3.438C433.941,171.215,440.586,170.309,441.987,174.63z
					 M446.57,167.754c-0.297,2.693-5.042,0.665-5.729,0C441.138,165.072,445.874,167.1,446.57,167.754z"/>
				<path d="M435.109,127.648c-3.186,0.516,0.894-6.246-2.293-5.731c-0.319,2.66-3.059,2.636-4.584,1.147c0,1.145,0,2.291,0,3.438
					C432.026,123.098,433.206,130.124,435.109,127.648z"/>
				<path d="M416.771,119.625c-3.107,1.031,0.961,4.217,2.293,4.584c0.261-2.166-1.299-2.533-1.146-4.584
					c1.937-3.37,5.146,3.576,6.876,0c-0.896-0.251-2.26-0.034-2.292-1.147c0.892-0.252,1.328-0.963,1.146-2.292
					c-2.739,2.132-7.623-2.43-9.17,2.292C415.372,118.731,416.735,118.512,416.771,119.625z"/>
				<path d="M408.747,170.046c0.139-1.399,0.346-2.706,2.293-2.292c-2.591,5.73,2.13,0.457,3.438,5.73
					c-5.342-1.135-5.056,3.359-8.023,4.584c9.1,2.774,14.259-5.295,11.463-14.889c-2.856,0.172-3.545-1.811-5.731-2.292
					c1.971,6.374-11.04,0.367-9.171,4.585c1.674,0.618,5.926-1.342,5.731,1.134c-3.941,0.505-6.421-0.446-9.169-1.134
					C399.739,169.897,404.058,170.16,408.747,170.046z"/>
				<path d="M403.015,128.795c0.93-4.746,8.137-4.092,9.171,0c0.952-3.244-1.618-2.968-1.146-5.73
					c-2.818,0.147-5.525,0.17-6.876-1.147C405.619,125.413,400.244,127.751,403.015,128.795z"/>
				<path d="M360.617,290.386c-2.935,2.464-6.498-1.054-8.022,1.146c2.636,2.728-4.173,11.794-2.293,13.754
					c0.058-0.698,0.173-1.353,1.146-1.146c0.104,3.129-1.913,2.303,0,4.584c-1.525,0-3.06,0-4.584,0
					c0.08,3.359,2.614,4.253,4.584,5.731c4.206-5.696,1.479,3.404,4.585,4.585c0.297-3.816,4.16-7.874,1.145-11.461
					c1.858,0.344,3.086-1.548,1.148-2.294c0.344,1.388-3.313,3.954-3.439,1.147c2.145,0.057,2.418-0.884,1.146-2.293
					c2.867-1.455,3.587,0.585,4.584-1.146c-1.441-0.472-2.349-1.479-2.291-3.44c1.629,0.276,1.925,1.892,3.438,2.294
					C362.313,295.681,358.542,296.312,360.617,290.386z M357.177,308.724c0.322,1.845-1.087,1.973-1.145,3.439
					C353.808,312.623,354.359,306.937,357.177,308.724z"/>
				<path d="M341.133,236.526c-2.901-0.895,2.304-7.852-1.146-11.463c-4.493,2.018-2.831,4.987-5.731,6.877
					c-3.187-3.312-2.121-10.877-6.876-12.608c0.285,0.55-2.168,0.458-3.818,0.688c-1.296,0.184-2.098,0.573-0.768,1.606
					c1.972-3.899,6.108,5.34,1.146,4.584c-0.047-1.582,0.538-2.521,1.144-3.439c-2.657,0.368-4.399-0.183-5.729-1.145
					c0.963,3.885-0.468,10.314,2.293,14.9c1.123-3.209,3.061,1.663,4.583-1.147c-0.651-3.713,0.346-5.765,2.295-6.877
					c-0.895-0.264-2.258-0.034-2.295-1.146c1.584,0.045,2.523-0.539,3.44-1.146c0.148,2.819,0.171,5.525-1.146,6.877
					c2.257,0.345,2.267-1.548,3.438-2.292c-0.082,1.996,0.253,3.564,1.146,4.584c3.851-1.925,5.537,2.018,6.97,2.018
					C340.432,237.397,340.777,237.156,341.133,236.526z"/>
				<path d="M224.621,293.607c0-0.769,0-1.525,0-2.293C223.176,291.6,223.463,293.595,224.621,293.607z"/>
				<path d="M103.903,349.977c0,1.535,0,3.062,0,4.584c-8.023-0.871-10.271,9.237-16.047,6.878c-1.353,4.527-3.358,1.752-5.73,5.729
					c1.318,0.197,1.237,1.78,1.146,3.396c0,0.01,0,0.034,0,0.047c7.083-2.971,13.01-8.852,19.485-9.171
					c0.47-3.725,2.383-6.008,4.584-8.023C104.59,353.874,107.972,348.2,103.903,349.977z"/>
			</g>
			<g>
				<path fill="#FFFFFF" d="M484.775,358.928c-1.595-1.846-3.257-3.623-4.586-5.732c-0.688-4.285-4.01-5.924-5.731-9.156
					c-1.523-2.361-3.563-10.122-6.877-6.878c1.354,0.551,2.602,1.216,3.44,2.292c-0.104,3.119,1.9,2.304,0,4.586
					c4.068,0.126,4.605,3.781,4.584,8.01c4.091,1.262,4.481,6.226,6.878,9.172c0,1.534,0,3.061,0,4.583
					C486.621,366.893,484.076,361.3,484.775,358.928z"/>
				<path fill="#FFFFFF" d="M476.75,322.261c0.471,2.763-2.098,2.487-1.146,5.73c1.146,0,2.293,0,3.438,0
					C478.401,325.954,478.446,323.224,476.75,322.261z"/>
				<path fill="#FFFFFF" d="M477.898,321.116c0.789-4.62-5.709-1.938-6.877-4.585c1.843-3.358,5.9,1.823,6.877-1.146
					c-4.082-4.917-7.68,0.492-12.608-2.293C465.483,319.774,472.589,319.545,477.898,321.116z"/>
				<path fill="#FFFFFF" d="M474.458,325.7c-3.908-1.226,3.187-0.354,1.147-3.438c-2.202-2.865-9.158-0.837-9.169,2.292
					C467.983,325.402,474.434,327.099,474.458,325.7z"/>
				<path fill="#FFFFFF" d="M476.75,330.285c-2.28-1.915-1.456,0.103-4.584,0c0,0.756,0,1.524,0,2.292
					c1.146-0.011,1.364,0.93,2.291,1.146C474.114,331.465,476.006,331.443,476.75,330.285z"/>
				<path fill="#FFFFFF" d="M468.728,307.361c-0.563,2.957,4.046,6.499,5.729,3.439c-5.868-2.155-7.529-8.517-10.315-13.755
					c-3.669,0.722-8.333,1.8-5.73-2.293c-3.554-0.114-6.361,0.516-8.023,2.293c5.892-0.161,8.619,2.843,12.608,4.584
					c-1.549,1.123-2.291,3.062-3.439,4.586c3.656-0.976,4.357,0.996,5.732,2.291C465.93,305.916,467.076,309.894,468.728,307.361z"
					/>
				<path fill="#FFFFFF" d="M458.412,314.239c-5.296-2.729-7.28-8.77-11.463-12.609c-0.447-1.64-1.373-1.937,0-3.438
					c-8.859-3.737-10.475-14.728-18.339-19.484c2.992,8.469,8.048,14.888,13.754,20.632c0.552,3.644,3.611,4.79,3.439,9.168
					c3.679,0.517,3.943,4.459,5.732,6.878c3.771,0.423,2.315,6.086,6.876,5.731C458.986,317.503,455.913,316.634,458.412,314.239z"
					/>
				<path fill="#FFFFFF" d="M445.803,408.215c-0.149-0.187-0.286-0.367-0.424-0.563c-2.098-2.934-3.484-7.371-4.161-8.608
					c-3.885,3.532,3.862,9.296,1.146,11.464c-2.291-1.903-5.328-3.084-5.729-6.878c-1.709,0.195-4.229-0.411-4.585,1.146
					c1.353,0.185,3.255-0.193,3.438,1.147c-3.128-0.837-2.306,2.279-4.582,2.292c-0.014-0.068-0.027-0.126-0.037-0.193
					c-1.767-10.398-7.91-16.393-14.867-21.586c-0.057,1.469-1.467,1.595-1.146,3.439c5.021,1.914,4.345,5.812,6.879,8.024
					c-1.903,0-3.816,0-5.732,0c1.743,5.146,6.97,6.796,10.317,10.315c1.213-4.32-4.966-5.216,0-6.877
					c0.33,3.105,1.478,5.398,3.438,6.877c-4.129-1.1-2.235,5.146,0,4.584c-0.297-4.252,3.563,0.746,4.585-3.438
					c1.718,2.658,2.807,1.744,5.73,1.147c-0.471,2.761,2.097,2.486,1.146,5.729c2.762,0.964,4.286-0.517,5.73,3.439
					c3.463-5.444-6.739-8.563-2.292-12.608c0.195,0.218,0.39,0.458,0.574,0.699c1.81,2.352,3.001,5.317,7.45,5.031
					c0.458-1.971-1.698-2.946,0-3.438c0.012,1.157,2.006,1.445,2.292,0C451.399,406.336,449.987,407.538,445.803,408.215z"/>
				<path fill="#FFFFFF" d="M449.243,315.384c-0.517-3.358-5.421-8.253-6.879-6.878C445.965,309.493,444.91,315.131,449.243,315.384
					z"/>
				<path fill="#FFFFFF" d="M446.57,167.754c-0.696-0.654-5.432-2.682-5.729,0C441.528,168.418,446.273,170.447,446.57,167.754z"/>
				<path fill="#FFFFFF" d="M442.364,205.36c-1.146,0-1.363-0.929-2.291-1.145c-0.058,1.466-1.892,3.942-1.569,5.788
					C440.473,210.06,441.861,206.77,442.364,205.36z"/>
				<path fill="#FFFFFF" d="M433.195,419.677c0.114-2.948,4.48-1.64,4.585-4.584C433.86,413.567,429.779,417.649,433.195,419.677z"
					/>
				<path fill="#FFFFFF" d="M429.757,305.069c0.938-5.904-2.923-7.016-8.023-6.878c-0.254,0.894-0.023,2.259-1.147,2.293
					c2.098,3.461,0.15,6.613,3.44,6.877C424.027,304.758,426.445,300.185,429.757,305.069z"/>
				<path fill="#FFFFFF" d="M425.173,267.244c-4.357,1.685-0.22-5.123-4.587-3.438c0.024,3.427,2.98,3.897,3.44,6.877
					c-0.62,5.593,0.492,9.445,3.437,11.462c-1.282-3.611-0.104-2.591,0-6.878C426.512,272.792,424.495,271.359,425.173,267.244z"/>
				<path fill="#FFFFFF" d="M425.173,305.069c0.892-0.252,2.269-0.035,2.29-1.146C426.582,304.174,425.207,303.957,425.173,305.069z
					"/>
				<path fill="#FFFFFF" d="M410.283,245.478c-3.255-3.278-1.652,4.16-6.879,2.292c-0.136,1.399-0.342,2.705-2.289,2.293
					c1.12,5.365,5.742,7.233,6.876,12.597c2.912,0.149,4.437,1.674,4.575,4.584c4.031,1.032,3.77-0.217,6.875,2.292
					c-2.844-5.617-2.327-10.121,0-16.035c-0.539,4.71,3.082-1.112,3.438,3.438c-2.019,0.276-2.614,1.972-2.293,4.574
					c5.937,2.534,5.103-3.016,5.732-6.866c-1.675-0.997-3.635-1.719-3.439-4.585c1.523,0.012,1.056,2.006,2.294,2.292
					c0.549-2.235-3.086-5.869-3.439-3.438c0.642-0.011,1.306,0.929,0,1.146c-2.695-1.685-2.133-2.417-5.732-1.146
					c2.326-2.658-0.458-2.636-2.292-1.147c-0.529-4.515,2.407-5.959-1.144-8.022c-1.744,2.086-1.744,9.364,0,11.462
					c-2.686-2.797-2.561,1.271-4.575,2.292C407.624,249.696,407.807,246.452,410.283,245.478z"/>
				<path fill="#FFFFFF" d="M420.45,211.092c0.069-0.699,1.603-5.055,2.579-4.848c-0.128-1.341-2.567-3.417-4.483-3.222
					c-0.078,0.012-0.159,0.023-0.25,0.045c0.136,1.055,0.56,5.25,1.374,7.119C419.899,210.713,420.164,211.045,420.45,211.092z"/>
				<path fill="#FFFFFF" d="M421.734,305.069c-2.901-1.215-6.535,2.406-3.438,3.438
					C417.949,305.859,421.608,307.235,421.734,305.069z"/>
				<path fill="#FFFFFF" d="M420.586,380.708c1.318-3.599-1.8-2.785-2.291-4.586c0.732-4.551-1.456-6.177-3.44-8.021
					c0.964-4.313-5.124-4.06-2.289-6.879c-3.863-0.699-4.886-3.771-5.722-6.878c-0.517-1.89,0.437-4.688,0-5.73
					c-1.442-3.416-4.506-4.642-5.729-8.013c1.327-0.194,1.236-1.811,1.144-3.438c-1.649-0.642-2.795-1.788-3.439-3.438
					c1.148-0.012,1.365,0.929,2.296,1.146c-4.083-7.496-9.113-17.857-6.878-25.216c-3.496,1.089-4.918,4.251-10.315,3.438
					c-0.118-5.776,2.784-9.443-2.293-11.462c0.883-0.252,2.259-0.035,2.293-1.146c-3.199-2.166,2.175-5.364,2.289-8.024
					c-1.522-2.292-5.087-2.556-8.021-3.438c-1.42-4.311-4.415-7.038-6.877-10.315c1.972-0.448,2.934,1.707,3.439,0
					c-1.837-1.376-4.185-2.248-4.541-5.125c-0.194,0.195-0.331,0.447-0.424,0.758c-1.122-0.024-0.894-1.399-1.146-2.293
					c-3.439,0.756,1.089,2.452,0,4.585c-4.332-1.651-2.201,3.152-5.731,2.292c-1.282-5.021,0.563-7.393-2.293-11.462
					c-0.642-2.578-1.787,1.398-3.439-1.146c-0.857-3.37-0.125-3.738-1.351-5.593c-0.218-0.356-0.529-0.768-0.94-1.272
					c-2.144,0.906-4.194,1.913-6.877,2.281c-0.219-0.975,0.447-1.078,1.146-1.148c1.604-0.4,0.102-2.017-1.146-2.28
					c1.421-5.204,3.337,1.972,5.732-1.146c-1.296-2.155-1.354-5.525-5.732-4.585c-1.661-5.982-8.367-6.923-9.17-13.754
					c0.321-0.126,0.744-0.149,1.205-0.126c1.948,0.092,4.688,0.986,4.526-1.021c1.65,1.399,1.741,4.367,3.438,5.732
					c2.602-0.837,0.343-6.534,4.585-5.732c-0.975,4.78,2.225,5.411,2.292,9.17c-1.857,0.321-1.971-1.088-3.438-1.146
					c0.285,7.519,4.918,9.48,4.585,14.888c3.29-1.294,4.252-4.905,4.584-9.158c0.918,0.597,1.858,1.192,3.439,1.146
					c-0.963,8.207,3.507,10.992,5.73,16.036c0.975,0.217,1.076-0.448,1.147-1.147c1.157,0.962,0.492,1.949,0.984,4.859
					c1.695-0.103,2.648,1.41,3.979-0.492c-2.006-1.055-2.533-3.577-2.293-6.877c-1.068-1.216-4.229-0.356-3.437-3.438
					c2.337,0.344,3.046,2.303,4.584,3.438c2.143-2.029-0.93-2.912,0-6.866c3.541-1.055,3.803-5.365,4.584-9.169
					c-1.812-0.103-0.895-2.922-3.438-2.292c-4.274,0.103-0.081,4.469-2.293,4.584c-3.358-0.974,0.687-3.691,0-5.731
					c-2.303-3.439-7.61-3.851-10.315-6.877c2.304-1.96,5.614-13.777,0-10.315c0.631,0,1.295,0.929,0,1.146
					c-3.853-3.346-10.063-10.659-3.438-14.9c0.011,1.513,2.005,1.043,2.293,2.292c-0.265,4.791,1.867,5.41,0,9.169
					c6.67-1.708,5.947,3.989,5.73,9.169c2.658,2.533,3.07,1.008,5.73,2.292c2.038-2.028,1.502-7.324-1.146-8.023
					c0.149-7.245-0.791-7.084-1.146-12.608c1.857,0.344,3.096-1.548,1.146-2.292c-0.447,1.753-1.377,0.172,0-1.146
					c-1.649-2.533-2.796,1.445-3.438-1.146c0.195-1.72-0.411-4.229,1.148-4.584c-0.481,3.92,3.427,3.438,4.584,5.73
					c1.524,2.418-0.564,3.394,1.146,6.877c-1.398,0.125-2.718,0.344-2.293,2.292c0.321,2.35,3.06,2.282,4.585,3.439
					c3.072-3.554-3.093-4.459,0-6.877c4.173,1.169,3.634,7.06,5.732,10.316c2.69,0.022,3.368-1.972,6.875-1.146
					c0.471-6.97-0.766-12.23-3.436-16.047c-1.607,3.29,3.116,5.822,0,6.877c-1.595-0.699-0.174-4.413-2.296-4.584
					c-2.739,2.876,2.889,3.84,2.296,8.023c-1.229,1.067-0.358,4.229-3.439,3.439c4.685-3.565,0.065-7.428-1.147-11.462
					c0.642-2.385,1.787-2.43,3.437-1.146c-1.706-6.557,1.297-8.551,1.15-16.047c1.145,0,1.361,0.928,2.29,1.146
					c-2.005-6.431,4.938-7.966,1.146-12.609c0.7,0.344,4.412,2.855,4.586,0c-2.682-0.641-2.682-3.449,0-1.146
					c-1.034-2.406-0.037-6.842-4.586-5.73c-2.819,1.364,2.351,4.333-1.146,5.73c-5.811-2.395-6.693,1.009-10.315,3.438
					c1.33-1.697,1.33-2.888,0-4.584c4.171,1.124,0.526-5.582,5.729-3.438c0.653-2.006-1.388-6.728,1.146-6.877
					c3.349,3.221,2.215-4.516,6.88-3.439c2.235,3.508,4.48,6.98,6.877,10.316c0.251-0.882,0.021-2.258,1.147-2.292
					c1.315,1.696,1.315,2.889,0,4.584c0.882,0.264,2.256,0.034,2.289,1.146c-2.852,0.47-0.067,4.447,2.294,3.438
					c1.583-0.448,3.243-6.499,4.585-3.438c-0.894,2.555-2.419,4.471-2.292,8.024c2.944,1.708,5.501,2.98,6.864,3.439
					c-0.882,0.252-1.329,0.962-1.146,2.292c3.004-0.32,4.94,0.425,4.586,3.438c6.257-0.997,12.895-1.627,14.899-6.877
					c-0.688-3.128-5.88-1.765-5.731-5.731c-2.67,0.357-4.93,2.455-5.729-1.146c0.595-1.696,1.696-2.888,2.293-4.584
					c-3.602-1.307-2.788,1.799-4.586,2.292c-1.065-4.791-0.756-4.537,2.293-6.876c-1.238-0.275-2.751-1.881-1.147-2.292
					c4.322,0.47,2.603,3.586,3.462,6.877c0.195,0.768,0.539,1.535,1.125,2.292c5.752,1.812,18.234,0.7,20.63,2.293
					c-0.585,3.244-6.499,1.146-6.876,4.585c1.249,0.275,2.751,1.891,1.146,2.292c-0.241-1.283-1.271-1.776-2.293-2.292
					c1.546,3.542-2.521,1.467-3.323,2.647c-0.128,0.171-0.174,0.424-0.114,0.792c1.353,0.562,2.601,1.225,3.438,2.292
					c-3.185,2.899,6.213,2.899,5.732,6.878c2.257,0.343,2.268-1.549,3.437-2.292c-1.569,2.612,2.957,4.309,0,4.584
					c-1.58,0.046-2.51-0.54-3.437-1.147c-1.158,2.282-1.984,4.895-4.585,5.732c-0.047-0.459-0.105-0.906-0.424-1.089
					c-0.163-0.102-0.391-0.125-0.724-0.058c-0.744,3.451-4.494,3.909-5.73,6.878c-0.253-0.895-0.951-1.331-2.292-1.147
					c-1.455,2.866,0.584,3.588-1.147,4.585c-1.524,0-3.049,0-4.583,0c0.949-1.525-1.319-7.164-4.586-8.023
					c-0.241,4.195-1.571,4.401,0,8.023c-1.065,1.226-4.219,0.356-3.439,3.439c9.895-1.055,15.005-3.702,21.778,1.145
					c0.665-2.395,2.844-3.277,2.293-6.877c4.092,3.473,4-5.249,4.584-5.73c2.418,4.058,0.092,9.135-2.293,13.754
					c0-0.642-0.929-1.307-1.146,0c4.93,2.808,2.521-3.851,5.73-4.585c0.448-2.992,0.586-6.293,2.294-8.023
					c-0.563,5.147,0.583,8.585,1.146,12.608c3.598,0.539,3.025-3.083,5.729-3.439c-0.731-8,1.079-13.445,3.439-18.338
					c-3.735-0.297-2.429,4.447-5.729,4.583c0.171-1.523-4.654-3.462-1.146-4.583c0.253,0.893,0.033,2.257,1.146,2.292
					c1.994-7.039,4.273-8.723,4.104-13.708c-0.047-1.285-0.255-2.773-0.665-4.632c1.351-0.171,3.255,0.195,3.439-1.146
					c-2.937-3.335-1.949-4.63-4.588-6.877c0.333-2.339,3.107-2.246,3.439-4.584c-4.138,1.089-1.604-4.504-2.291-6.877
					c-3.99-5.548-11.051-8.047-13.754-14.89c3.528-0.86,2.198,3.141,5.73,2.292c-0.173-2.854,0.596-4.757,2.293-5.731
					c0.033-0.252,0.057-0.481,0.057-0.688c0-2.842-3.165-2.521-3.496-5.042c1.834-0.815-0.964-6.592-3.439-6.878
					c-1.145,1.524-1.077,4.264-3.438,4.585c-3.519,0.298-5.146,2.487-8.023,3.438c-1.629-3.038-9.938,2.911-10.315,1.146
					c1.007-2.029,3.633-3.347,1.147-5.731c1.683-1.124,3.86-2.854,6.153-4.333c2.971-1.914,6.098-3.415,8.562-2.602
					c0.06,0.012,0.128,0.035,0.186,0.058c-0.116,0-0.23,0-0.335,0.012c-1.111,0.021-1.867,0.4-2.396,1.007
					c-0.308,0.356-0.536,0.78-0.709,1.273c2.646-0.356,5.811-2.454,3.439,1.146c3.001,0.322,4.929-0.424,4.585-3.438
					c-0.932-0.597-1.525-1.399-1.892-2.327c-1.847-4.55,1.615-12.115-3.841-12.574c0.652,3.231,4.597,9.089,1.147,12.608
					c-3.592-3.187,0.398-7.119-3.439-9.169c-0.905-3.966,1.271-4.838,2.292-6.877c-2.146,0.057-2.417-0.883-1.146-2.293
					c-3.911-0.858-1.455,4.654-5.729,3.439c-0.118-1.284,1.671-1.789,0-2.292c-0.255,0.894-0.953,1.329-2.296,1.146
					c0.734-4.172-5.454-1.422-5.73-4.585c4.975,0,9.937,0,14.9,0c0.95-3.231-1.616-2.969-1.146-5.73c1.34,0,2.681,0,4.013,0
					c0.571,0,1.146,0,1.717,0c-0.824-3.496,1.17-4.173,1.148-6.877c-3.681-0.699-1.573,4.125-4.585,1.146
					c-2.534,1.65,1.442,2.797-1.147,3.439c-5.81-7.199-13.71-7.027-22.925-9.17c2.385-0.677,7.531,1.421,8.024-1.147
					c-5.856-2.155-16.046,0-21.765-2.291c-0.563,1.352-1.229,2.6-2.296,3.438c-5.284,1.214-7.024,5.972-13.754,5.73
					c-0.137-2.911-1.673-4.447-4.583-4.584c0.584,3.243,2.772,4.872,3.439,8.024c-2.109-0.85-2.992,2.498-2.648,5.167
					c0.252,1.915,1.133,3.474,2.648,2.855c0.021-2.693-1.975-3.369-1.147-6.877c2.339-0.333,2.247-3.094,4.587-3.438
					c-4.176,6.006,4.929,0.733,4.582,5.731c-1.021-2.293-5.823-0.298-2.292,1.146c1.523-2.544,5.111,2.43,8.022,2.293
					c6.121,0.744,15.256-1.502,19.476,1.145c-2.91,0.905-5.561,2.086-6.866,4.585c-4.975-0.998-12.035-7.348-16.046-2.293
					c1.34,0.344,2.876,6.063,4.582,2.293c-1.248-0.276-2.751-1.891-1.146-2.293c1.434,0.471,2.339,1.479,2.294,3.439
					c-1.72,1.73-6.532,0.343-5.73,4.584c1.34,0.184,3.253-0.195,3.437,1.147c-0.113,1.799,0.148,3.976-2.291,3.438
					c-0.057-1.582,0.537-2.522,1.146-3.438c-1.536,0-3.062,0-4.586,0c0.38,4.056,3.152,2.819,1.147,6.877
					c-1.721,0.195-4.23-0.414-4.585,1.145c1.251,0.607-0.585,1.914-2.867,2.729c-1.365,0.492-2.874,0.814-4.01,0.711
					c-1.516-0.012-1.055-2.006-2.293-2.292c-5.032,5.284-11.6,9.02-14.9,16.046c5.021,3.061,1.282,18.637-3.439,11.462
					c-2.728,5.283-7.061,8.975-10.315,13.743c0.893,0.264,2.257,0.034,2.294,1.146c-4.129-2.074-3.384,0.207-6.879,1.146
					c-1.443-1.983-3.873-3.003-3.438-6.877c-4.62-0.333-4.915-5.009-9.17-5.72c-0.345,2.247,1.548,2.271,2.295,3.428
					c1.271,5.615,6.954,6.797,9.168,11.462c-1.55,2.395-2.992,6.625-3.623,10.659c-0.446,2.912-0.469,5.731,0.184,7.68
					c-0.756,0-1.523,0-2.293,0c-0.045,1.581,0.54,2.521,1.147,3.438c-4.035,1.307-6.236,4.459-9.17,6.877
					c-2.453-0.057-7.875,2.669-4.586,4.585c1.045-0.654,4.22-4.724,4.586-2.293c-2.855,2.488-5.64,5.055-8.021,8.024
					c-0.701-0.332-4.405-2.854-4.575,0c0.63,0,1.295,0.928,0,1.146c-3.266,1.697-9.034,0.906-10.316,4.585
					c-9.363,4.7-31.211,0.665-38.971,3.439c0-0.768,0-1.525,0-2.292c-4.665-0.162-9.204-0.195-13.674-0.162
					c-19.381,0.184-37.263,1.857-57.378,1.307c-5.284-2.898-12.94,0.459-18.34,1.147c-2.669,0-5.352,0-8.023,0
					c-3.197,2.521-10.258,1.191-13.755,3.438c1.766,0.275,0.173,1.879-1.145,2.293c-5.434,1.432-8.333,5.41-11.464,9.17
					c1.399,0.125,2.717,0.343,2.293,2.292c-3.369,6.556-4.263,15.588-11.45,18.328c0.355-1.547,1.626-2.19,1.135-4.574
					c4.367,1.674,0.229-5.124,4.584-3.438c0.183-2.854-1.799-3.554-2.293-5.732c1.468,0.058,1.594,1.468,3.439,1.147
					c-1.227-2.935,4.94-4.012,1.147-5.73c-0.333,1.008-3.095,5.008-3.439,2.292c1.158-0.022,1.445-2.018,0-2.292
					c-0.503,1.88-4.929,5.617-5.719,3.438c0.184-0.184,0.378-0.378,0.573-0.562c6.211-6.007,13.491-10.958,18.899-17.778
					c-4.194,0-8.4,0-12.607,0c-12.322,2.945-24.333,6.212-33.229,12.609c-0.057-1.582,0.54-2.522,1.147-3.439
					c-3.908,0.458-1.892,3.53-4.586,0c0.425,3.472-3.735,2.373-5.73,3.439c-0.206-3.623-3.771-3.875-8.022-3.439
					c2.99-5.73-7.428-6.775-4.585-16.047c-1.663-0.631-5.926,1.341-5.731-1.146c0.264-0.894,0.034-2.258,1.146-2.293
					c1.512,0.012,1.043,2.006,2.292,2.293c-1.261-3.565-0.733-4.103,2.293-2.293c1.833-4.516-4.952-0.401-4.585-3.438
					c-0.091-0.826-0.023-1.478,0.206-1.983c0.585-1.364,2.201-1.685,4.379-1.455c-2.041-3.966,0.079-7.519,3.438-9.169
					c-0.276,1.637-1.892,1.936-2.292,3.437c3.989,0.552,4-2.877,5.731-4.585c4.916-0.928,13.306-4.893,19.485-8.022
					c2.188,3.22,5.971-1.572,9.169-1.146c5.537,0.952,11.52,1.467,14.89,4.584c0.848-3.037,4.046,0.034,4.584,0
					c0.585-0.034,0.619-1.364,2.293-1.146c1.191,0.16,2.716,1.958,4.583,2.292c1.824,0.321,3.943-0.458,5.731,0
					c0.471,0.126,2.809,2.155,3.439,2.292c1.652,0.355,2.488-1.192,3.439-1.146c0.15,0.012,3.061,2.212,3.438,2.292
					c4.563,0.953,10.844,2.04,13.755,0c-1.249-0.274-2.75-1.891-1.146-2.292c3.003,5.398,11.967,4.849,17.193,8.023
					c-1.605-0.08-4.39,0.251-2.292,1.146c3.484-1.434,4.459-0.872,6.876,1.145c0.241-1.284,1.273-1.788,2.293-2.292
					c0.663,0.436,1.375,0.79,2.132,1.077c4.997,1.937,11.817,1.101,18.5,3.508c0.32-2.66,3.061-2.637,4.573-1.147
					c2.545-1.65-1.433-2.796,1.146-3.438c1.719,3.793,2.808-2.384,5.731-1.147c0.022,1.158,2.016,1.445,2.292,0
					c-3.439-2.223,3.931,2.007,3.438-2.292c-1.341-0.183-3.244,0.195-3.438-1.145c0.882-2.981,3.38-4.333,4.802-6.751
					c0.424-0.701,0.756-1.479,0.929-2.418c-3.038-6.339-0.814-12.241-1.926-17.205c-0.274-1.204-0.733-2.349-1.513-3.427
					c0.344-0.699,2.854-4.401,0-4.585c0.011,0.642-0.928,1.307-1.146,0c2.156-1.49,0.138-8.447-2.293-9.158
					c-0.905,2.521-5.387,1.491-5.73,4.584c4.974-0.917,5.456,6.121,2.292,6.865c1.434,3.164,6.396,2.774,8.024,5.732
					c-3.806-0.792-1.845,2.372-1.147,3.438c-2.934,2.464-6.487-1.054-8.023,1.146c1.387,0.241,0.71,1.271,0,2.292
					c4.768,0.585,3.507,7.198,6.877,9.17c0.138-1.399,0.344-2.717,2.293-2.292c-0.94,3.244,1.616,2.968,1.146,5.731
					c-2.166,0.262-2.522-1.296-4.584-1.147c0.102,6.718-4.253,10.866-11.451,12.609c-2.396,0.585-4.504-1.112-6.877-1.147
					c-3.255-0.045-5.96,1.857-9.171,1.147c-2.784-0.607-1.523-0.699-4.308-0.057c-0.092,0.01-0.184,0.034-0.275,0.057
					c0.561-3.622-5.686-0.424-4.585-4.584c-4.194-0.253-4.4-1.572-8.023,0c0-0.768,0-1.525,0-2.293
					c-4.721-0.929-9.09-1.971-13.308-2.991c-8.975-2.189-17.272-4.287-26.809-5.032c-2.269-0.012-1.456-3.129-4.584-2.292
					c-4.196,1.731-10.74-3.989-16.035-1.147c-1.56-3.405-7.921-2.004-12.609-2.292c-0.264,0.894-0.035,2.27-1.146,2.292
					c-0.493-2.555-5.65-0.457-8.023-1.146c-11.737,5.834-25.834,9.319-28.655,24.071c-4.619-0.792-1.936,5.696-4.585,6.876
					c1.892,8.986-1.135,10.969,3.439,19.486c5.181,0.55,6.224,5.227,9.17,8.023c9.789,3.553,23.382,4.562,33.24,0
					c3.083,3.404,8.138-3.955,13.754,0c-2.544,0.894,0.219,7.095-4.584,5.731c1.856,4.253-2.006,8.321-3.439,12.597
					c0.883,0.263,2.258,0.034,2.293,1.146c-2.705,4.242-8.929,5.548-5.731,12.608c-1.158,0.011-1.364-0.928-2.292-1.147
					c0.344,6.086-3.852,7.611-4.585,12.609c3.909,0.86,1.456-4.653,5.731-3.439c-0.985,3.668-4.447,4.046-2.292,8.024
					c-4.402-0.242-6.109,6.68-2.292,8.022c-2.762,0.47-2.499-2.098-5.73-1.146c1.57,2.613-2.958,4.31,0,4.585
					c0.194-1.342,1.811-1.25,3.439-1.146c-3.049,2.946,2.2,1.639,2.292,4.584c-1.387,6.501-5.857,3.37-8.023,8.024
					c1.352,0.551,2.589,1.226,3.438,2.292c-2.717,0.63-4.757,4.424-2.292,6.877c-0.768,0-1.536,0-2.293,0
					c-0.951,10.122-9.363,12.792-11.461,21.768c-3.6-0.527-3.232,2.888-4.586,4.582c-5.214,0.896-6.04,6.202-10.314,8.024
					c-2.247,2.338-6.763,2.407-6.878,6.878c0.722,1.959,3.461,1.891,4.585,3.438c-2.201,2.809,0.08,6.639,1.146,11.462
					c-0.264,2.958-5.915,5.514-1.146,6.879c4.046-3.6,4.608-10.672,13.755-9.169c1.363-3.415,0.308-3.9-1.147-6.879
					c3.255,2.683,5.182-3.3,8.024-4.582c-0.275-1.629-1.891-1.927-2.293-3.442c2.052-0.376,2.763-3.186,4.207-3.172
					c0.435,0,0.918,0.249,1.524,0.883c2.373-6.787,12.952-5.391,16.047-11.463c-7.577-1.078-9.261,3.735-13.753,5.73
					c0.802-1.157,1.18-2.156,1.42-3.061c0.584-2.212,0.344-3.908,3.164-6.108c1.879,6.325,6.693-1.813,9.169-2.282
					c1.524,1.147,3.45,1.88,4.584,3.428c-1.18,1.124-2.326,2.269-3.438,3.437c3.874,1.332,4.883-0.802,6.876,1.146
					c-0.355,4.552-3.987-1.271-3.438,3.44c0.975,1.706,2.877,2.466,5.732,2.292c-1.101-2.133,3.426-3.828,0-4.585
					c-0.276,1.25-1.892,2.763-2.294,1.147c0.551-1.354,1.216-2.593,2.294-3.441c1.146,0,1.364,0.93,2.292,1.146
					c-0.55-4.711,3.083,1.114,3.438-3.438c-1.536,0-3.06,0-4.585,0c-0.86-9.696-11.68-5.249-17.193-6.864
					c3.564,0.525,4.091-2.889,2.292-4.585c3.221-1.365,6.544-2.626,9.17-4.586c-3.05-1.353-6.752,2.189-6.878,0
					c2.853-1.73,5.617-3.554,9.169-4.584c1.055-1.342,3.348-7.199,5.732-3.439c-0.894,0.254-2.27,0.035-2.292,1.146
					c2.762-0.757,7.324,0.068,4.585-3.438c-0.023,1.157-2.018,1.443-2.292,0c2.865-3.762,16.586-6.03,17.182,1.145
					c2.018-1.811,2.384-5.261,5.732-5.73c1.581-2.613-2.947-4.309,0-4.584c2.451,2.006,5.822-4.826,10.314-4.585
					c-1.1,5.489,5.146-0.596,4.585,2.292c-0.16,1.353-2.041,2.603,0,3.438c0.183-6.167,5.467-0.126,8.023-3.438
					c-3.403-0.274,4.598-4.265,0-5.73c-0.183,1.351,0.195,3.255-1.146,3.438c-0.321-3.004,0.424-4.929,3.438-4.585
					c-0.641-5.227,4.321-4.849,3.439-10.316c0.768,0,1.524,0,2.291,0c-0.927-3.966,2.144-4.836,0-6.876
					c3.348,0.286,3.955-2.156,5.731-3.439c-0.193,3.622,3.049,3.829,2.293,8.023c3.038-0.01,6.544,0.436,8.023-1.146
					c2.419,1.02,1.984,4.883,5.73,4.585c2.408-4.092,0.746-6.293,1.146-8.023c1.146,0,1.365-0.929,2.292-1.146
					c2.647,3.232,0.836,4.264,4.585,6.878c1.536-6.396,3.14,5.616,6.877,0c-1.158-0.013-1.445-2.007,0-2.293
					c0,0.768,0,1.524,0,2.293c4.516-2.236,3.496,2.234,8.012,0c0.642,2.383,1.788,2.429,3.439,1.145
					c-2.305,2.293,0.847,4.975,3.438,5.731c0.39-2.671,1.18-4.94,3.439-5.731c1.857,3.553,0.996,4.447,2.292,6.877
					c3.289-1.03,5.054-0.951,8.023-2.291c-0.344,2.67-2.442,4.939,1.146,5.73c-0.619-7.955,2.922,1.938,3.439-1.146
					c-0.276-1.639-1.881-1.938-2.293-3.438c4.974-0.905,0.951-4.161,5.731-5.731c-0.345,2.67-2.442,4.94,1.146,5.731
					c4.115-0.952-1.364-4.322,3.438-4.585c-0.149,4.905-4.148,5.845,1.147,8.023c-2.144-10.053,8.012,1.559,4.584-4.584
					c3.096,2.475,2.052-3.152,4.585,1.146c-0.171-4.803,0.596-2.762,2.293-1.146c5.971-8.093-7.921-14.054-2.293-18.339
					c0,0.768,0,1.535,0,2.292c5.41-2.121,6.512,2.212,9.169,2.292c0,0.768,0,1.524,0,2.293c2.248,0.343,2.271-1.547,3.439-2.293
					c2.66,0.78,3.06,3.805,5.731,4.585c0.252-0.896,0.95-1.33,2.292-1.146c1.457,3.416,4.596,0.583,6.877,4.585
					c4.504-0.883,5.949,0.503,8.025-1.147c-1.996-1.031-3.177-4.218,0-4.584c0,1.146-0.93,1.363-1.148,2.292
					c5.101,0.309,3.601,0.791,4.585,3.439c1.455-5.044,6.993,3.587,8.015-3.439c1.924,1.81-1.493,5.261,3.436,5.73
					c0.838-3.496-1.169-4.172-1.146-6.877c3.164,0.16,5.835,3.151,8.024,1.146c-2.418-1.686,1.203-2.42,3.438-1.146
					c0.219-2.453-0.206-5.549-0.079-8.081c0.126-2.189,0.651-3.943,2.371-4.528c-6.304,0.286,3.589-2.155-1.146-3.438
					c0.013,0.642-0.927,1.306-1.146,0c1.56-3.29-0.171-10.007,2.292-14.89c-2.188-2.407-3.69-5.478-4.585-9.169
					c3.497-0.057,5.835,1.031,6.878,3.438c-0.573,7.141-0.309,9.365-2.293,16.036c4.002,2.281,1.169,5.421,4.585,6.877
					c0-0.63,0.93-1.295,1.147,0c-4.266,1.594,3.381,0.172,2.292,2.293c-3.6-0.574-4.48,2.499-6.877,0
					c0.985,5.318-1.8,1.204-2.294,3.439c1.181,1.123,2.327,2.269,3.439,3.438c-0.859,5.157,0.712,10.683,3.439,16.047
					c-0.679,1.444-1.595,6.098,0,8.022c0-0.641,0.928-1.307,1.146,0c-1.136,4.426-1.56,10.82,1.146,14.902
					c-4.209-0.014-4.39,4.011-6.877,5.73c-0.012-2.695-3.128,0.412-2.294,2.292c2.34,2.305,2.248-0.504,4.586-1.146
					c-1.49,1.524-1.512,4.264,1.146,4.585c-0.342-3.026,1.594-3.771,4.586-3.438c-0.011,1.514-2.007,1.043-2.293,2.292
					c1.695,0.597,2.888,1.696,4.585,2.293c0.367-2.694,3.553-2.566,4.584-4.585c-1.754-0.275-0.171-1.892,1.146-2.292
					c1.147,0,2.293,0,3.439,0c2.04-3.084-5.044-2.225-1.146-3.439c2.555,2.9,6.614,6.074,9.17,5.731
					c-0.701,0.057-1.354,0.173-1.148,1.146c4.172,0.735,1.425-5.467,4.587-5.73c0.252,0.883,0.033,2.258,1.146,2.293
					c2.648-2.567,9.755,0.114,12.607,1.146c-4.756-0.699-7.14,1.686-3.437,3.438c-5.022-0.837,0.916,2.27-2.293,2.293
					c-2.935,1.227-4.012-4.941-5.731-1.146c5.615,1.754,4.894,4.114,5.731,9.17c2.842,1.479,5.56-2.567,5.729,0
					c-0.997,3.323-1.717,1.282-4.583,1.146c-0.563,3.61,3.517,2.591,2.292,6.864c3.6-0.537,4.675,1.434,5.731,3.441
					c2.669-0.346,4.734-2.235,6.877,0c0.549-1.354,1.214-2.593,2.291-3.441c0.365,4.61,3.691,6.248,5.73,9.172
					c0.059,4.139,2.857,5.547,3.44,9.168c-4.597-0.617-0.011,4.953,1.146,5.732c-1.169,1.513-1.134,4.229-2.293,5.729
					c2.67,0.38,4.733,1.378,6.868,2.294C414.306,381.061,416.494,378.46,420.586,380.708z M454.595,189.531
					c0.494,1.295,0.732,2.373,0.791,3.29c0.286,4.963-4.929,5.468-6.521,10.465c-0.335-0.505-0.54-1.112-0.655-1.766
					c-0.631-3.816,2.05-9.753,2.944-13.134C453,188.064,453.128,189.473,454.595,189.531z M435.109,164.326
					c2.879-0.86,3.621-0.148,5.731-3.438c-0.276-2.018-1.971-2.613-4.583-2.292c0.297-2.682,5.031-0.665,5.729,0
					c-0.162,2.132-0.757,3.828-2.293,4.584c3.038,2.683,12.792,3.485,9.172,9.159c-1.31-0.218-0.644-1.148,0-1.148
					c0.342-3.575-3.315,2.924-3.44-1.145c-1.56,1.123-1.491,3.862-3.438,4.584C440.586,170.309,433.941,171.215,435.109,164.326z
					 M406.455,178.069c2.968-1.226,2.682-5.719,8.023-4.584c-1.309-5.273-6.029,0-3.438-5.73c-1.947-0.413-2.154,0.894-2.293,2.292
					c-4.688,0.114-9.008-0.149-9.169-4.573c2.748,0.688,5.228,1.639,9.169,1.134c0.194-2.476-4.058-0.516-5.731-1.134
					c-1.869-4.219,11.142,1.788,9.171-4.585c2.187,0.481,2.875,2.464,5.731,2.292C420.713,172.773,415.554,180.843,406.455,178.069z
					 M428.232,123.064c1.525,1.489,4.265,1.512,4.584-1.147c3.187-0.515-0.893,6.247,2.293,5.731
					c-1.903,2.476-3.083-4.55-6.877-1.146C428.232,125.355,428.232,124.209,428.232,123.064z M423.648,116.187
					c0.182,1.329-0.255,2.039-1.146,2.292c0.032,1.113,1.396,0.896,2.292,1.147c-1.73,3.576-4.939-3.37-6.876,0
					c-0.152,2.051,1.407,2.418,1.146,4.584c-1.332-0.367-5.4-3.553-2.293-4.584c-0.036-1.113-1.399-0.894-2.293-1.147
					C416.025,113.757,420.909,118.318,423.648,116.187z M404.164,121.917c1.351,1.318,4.058,1.295,6.876,1.147
					c-0.472,2.762,2.099,2.486,1.146,5.73c-1.034-4.092-8.241-4.746-9.171,0C400.244,127.751,405.619,125.413,404.164,121.917z
					 M102.757,361.439c-6.475,0.319-12.402,6.2-19.485,9.171c0-0.013,0-0.037,0-0.047c0.091-1.615,0.171-3.198-1.146-3.396
					c2.373-3.977,4.378-1.201,5.73-5.729c5.777,2.359,8.024-7.749,16.047-6.878c0-1.522,0-3.049,0-4.584
					c4.069-1.777,0.687,3.896,3.438,3.438C105.14,355.431,103.227,357.714,102.757,361.439z M333.108,235.379
					c-0.893-1.02-1.228-2.588-1.146-4.584c-1.171,0.744-1.181,2.637-3.438,2.292c1.316-1.352,1.294-4.058,1.146-6.877
					c-0.917,0.608-1.856,1.192-3.44,1.146c0.037,1.111,1.4,0.882,2.295,1.146c-1.949,1.112-2.946,3.164-2.295,6.877
					c-1.522,2.81-3.46-2.063-4.583,1.147c-2.761-4.585-1.33-11.015-2.293-14.9c1.33,0.962,3.072,1.513,5.729,1.145
					c-0.605,0.918-1.19,1.857-1.144,3.439c4.962,0.756,0.825-8.483-1.146-4.584c-1.33-1.033-0.528-1.422,0.768-1.606
					c1.65-0.229,4.104-0.137,3.818-0.688c4.755,1.731,3.689,9.296,6.876,12.608c2.9-1.891,1.238-4.86,5.731-6.877
					c3.45,3.611-1.755,10.568,1.146,11.463c-0.356,0.63-0.701,0.871-1.056,0.871C338.645,237.397,336.958,233.454,333.108,235.379z
					 M361.764,301.848c-1.514-0.402-1.81-2.018-3.438-2.294c-0.058,1.962,0.85,2.969,2.291,3.44c-0.997,1.73-1.717-0.31-4.584,1.146
					c1.271,1.409,0.998,2.35-1.146,2.293c0.126,2.807,3.783,0.24,3.439-1.147c1.938,0.746,0.71,2.638-1.148,2.294
					c3.016,3.587-0.848,7.645-1.145,11.461c-3.105-1.181-0.379-10.281-4.585-4.585c-1.97-1.479-4.504-2.372-4.584-5.731
					c1.524,0,3.059,0,4.584,0c-1.913-2.281,0.104-1.455,0-4.584c-0.974-0.207-1.089,0.447-1.146,1.146
					c-1.88-1.96,4.929-11.026,2.293-13.754c1.524-2.2,5.088,1.318,8.022-1.146C358.542,296.312,362.313,295.681,361.764,301.848z"/>
				<path fill="#FFFFFF" d="M419.441,300.484c0.929-2.809,1.972-6.614-2.292-6.876c0.057,1.581-0.541,2.521-1.147,3.438
					C420.082,295.268,416.701,300.942,419.441,300.484z"/>
				<path fill="#FFFFFF" d="M418.295,282.145c-1.31-3.601,1.798-2.786,2.291-4.585c-1.697-0.207-1.042-2.763-1.146-4.585
					c-2.866-0.137-3.589-2.189-4.586,1.146c4.768,0.161,0.242,0.756,0,2.292c5.515,0.481-1.363,0.414,0,3.438
					C417.114,279.508,417.137,281.399,418.295,282.145z"/>
				<path fill="#FFFFFF" d="M418.295,87.313c0.791-3.072-2.363-2.212-3.44-3.439c-0.39,5.617-3.069-1.857-5.719-1.146
					c0.333,2.258-1.56,2.281-2.292,3.438C410.303,88.574,416.29,85.914,418.295,87.313z"/>
				<path fill="#FFFFFF" d="M409.136,90.753c2.371-0.678,7.518,1.42,8.013-1.147C415.613,88.046,409.146,87.427,409.136,90.753z"/>
				<path fill="#FFFFFF" d="M414.855,298.191c-1.1-3.472-3.06-6.097-4.572-9.169c-1.295,3.026-4.446-1.536-5.732-2.292
					c-1.397-5.158,0.197-6.099,0-13.754c-2.005,0.092-3.563-0.253-4.583-1.146c-1.822-3.806,0.425-5.398-1.148-8.023
					c-2.416-4.012-7.645-4.264-12.608-6.867c-0.263,0.883-0.033,2.259-1.146,2.281c1.01-5.331-3.782,0.779-3.437-2.281
					c0.251-1.443,1.774-2.349-1.146-2.292c-0.827,3.496,1.167,4.173,1.146,6.866c-6.857-2.625,1.271,7.267-2.293,10.316
					c0.058-1.972-0.884-2.934-2.292-3.439c-0.883,6.613,5.766,5.697,4.585,12.609c2.969-0.447,2.072-4.654,5.732-6.878
					c0.193,1.72-0.416,4.229,1.145,4.586c0.549-1.354,1.213-2.591,2.291-3.439c2.878,5.926,10.225,13.445,9.171,19.485
					c-2.912-1.295-2.648-5.753-5.73-6.876c0.892,5.765,1.099,6.28-2.294,9.169c2.636-0.355,1.271,3.313,3.439,3.438
					c2.533-1.65-1.443-2.798,1.146-3.438c1.649,2.166,2.555,5.076,6.875,4.584c3.234-3.69-1.764-11.897,2.294-12.607
					C403.211,293.561,411.645,295.669,414.855,298.191z"/>
				<path fill="#FFFFFF" d="M407.991,282.145c0.195,1.719-0.414,4.229,1.146,4.584C408.597,284.541,412.667,281.8,407.991,282.145z"
					/>
				<path fill="#FFFFFF" d="M397.673,365.804c2.099-0.055,3.876,5.881,5.73,2.296C402.316,367.147,399.703,362.046,397.673,365.804z
					"/>
				<path fill="#FFFFFF" d="M397.673,242.038c-1.568,1.456-1.775,5.607,1.146,5.731
					C399.415,244.835,400.334,243.758,397.673,242.038z"/>
				<path fill="#FFFFFF" d="M383.921,236.308c-1.044,2.019-4.221,1.891-4.586,4.586c1.891,0.011,0.643,3.174,2.293,3.438
					c0.251-0.894,0.03-2.27,1.146-2.293c2.864,2.741,3.622,0.494,5.731,3.439c0.25-0.893,0.022-2.27,1.146-2.292
					c2.509,1.019-1.008,6.532,1.146,3.438c0.621-2.797,1.926-4.814,2.294-10.316c-2.168,0.252-2.534-1.295-4.585-1.146
					c-0.194,1.708,0.398,4.229-1.145,4.585c-1.526-2.81-4.267,1.261-4.587-1.146C384.012,238.326,385.523,236.708,383.921,236.308z"
					/>
				<path fill="#FFFFFF" d="M385.065,114.822c-2.062,2.2-0.318,7.061,3.44,6.877C387.92,118.845,386.339,116.989,385.065,114.822z"
					/>
				<path fill="#FFFFFF" d="M356.033,312.164c0.058-1.467,1.467-1.595,1.145-3.439C354.359,306.937,353.808,312.623,356.033,312.164
					z"/>
				<path fill="#FFFFFF" d="M341.51,322.261c0-0.769,0-1.536,0-2.292c0.699-0.069,1.364-0.173,1.146-1.146
					c-4.586-0.16,1.308-9.283-2.292-12.607c-4.276,1.948-1.813-0.677-5.732-1.146c-1.513,2.865,4.54,3.588,1.149,4.585
					c-1.653-2.534-2.799,1.444-3.44-1.147c1.157-0.012,1.442-2.005,0-2.291c-0.057,1.202-1.469,0.904-1.146-1.146
					c-4.779-0.963-5.409,2.224-9.159,2.292c-4.606-1.594-8.242-1.055-11.462,3.439c5.317,1.122,6.912-1.491,10.316-2.294
					c-4.644,2.694,0.906,1.902,1.146,5.732c4.401,0.205,5.18-3.222,6.866-5.732c0.14,3.291,2.969,4.735,4.585,9.17
					c3.69,1.009,1.571-3.781,4.584-3.438C337.82,318.318,338.85,321.104,341.51,322.261z"/>
				<path fill="#FFFFFF" d="M301.406,121.699c-2.34,0.986-6.315-1.8-3.44-2.292c0.472,1.949,1.479-0.241,3.44,0
					c-0.506-3.932-2.421-0.987-5.732-1.146c-0.745-3.381-7.393-4.643-4.585-8.022c-4.516,2.692-3.505-2.157-8.023-2.293
					c-1.009,3.68,3.77,1.571,3.439,4.585c1.226,2.968,4.139,4.264,4.584,8.023c9.63,7.942,18.466,16.677,26.363,26.362
					c1.146,0,2.292,0,3.438,0c-0.447,1.628-1.388,1.925,0,3.438c6.522-0.389,6.648,11.646,12.597,8.024
					c-9.272-8.688-17.458-18.455-26.353-27.509c0-0.769,0-1.524,0-2.293C304.43,127.156,298.882,124.794,301.406,121.699z"/>
				<path fill="#FFFFFF" d="M262.434,85.021c-1.673,0.021-3.634-4.826-3.439,0c0.013,1.524,2.007,1.055,2.293,2.292
					c0.494,5.456-1.365,8.574-3.438,11.462c1.925,10.35-6.739,19.989-9.17,29.8c3.61-1.318,2.786,1.801,4.585,2.293
					c1.707-2.475,3.232,1.25,4.585-2.293c1.145,1.583,1.89-0.492,3.438,2.293c1.421-3.541,3.781-6.154,6.877-8.022
					c2.121-9.732,7.897-15.784,11.461-24.071c-3.209-1.833,1.606-5.158,0-9.17c2.145,0.069,2.43-0.882,1.147-2.292
					c1.65,0.641,2.798,1.788,3.439,3.439c8.287-1.009,11.439,9.168,17.193,6.877c-2.568-2.442-4.861-5.835-6.878-5.732
					c1.353-0.551,2.591-1.214,3.438-2.292c-1.971,0.069-2.945-0.882-3.438-2.292c1.972-4.356-2.154-11.244-8.023-11.462
					c-2.167-0.252-2.533,1.295-4.585,1.146c-6.351-2.429-10.729-6.843-18.339-8.012C264.509,74.763,265.323,80.562,262.434,85.021z"
					/>
				<path fill="#FFFFFF" d="M283.065,141.185c6.647-1.753,7.727-9.09,12.608-12.609c-3.37-1.592-4.344-5.593-9.169-5.729
					c0-0.768,0-1.524,0-2.292c-7.062,0.962-7.714,8.332-12.608,11.462c-2.339,0.343-3.05,2.292-4.585,3.438
					c-0.378-1.616-2.762-0.39-4.366,0.905c-0.631,0.504-1.147,1.032-1.365,1.387c-1.582,0.045-2.51-0.539-3.438-1.146
					c-2.958,3.908-6.201,7.541-9.17,11.461c1.673-0.631,5.926,1.341,5.731-1.146c-1.409-1.868,6.029-4.62,8.023-6.877
					c-0.63,0-1.295-0.928,0-1.146c2.097,4.31,7.427,4.792,9.17,4.584c-1.767-1.294-2.82-3.301-4.585-4.584
					c-0.275,1.237-1.891,2.751-2.292,1.146c3.518-2.683,0.894-1.111-1.147-3.438c5.87,3.861,6.957-4.689,10.316-2.292
					c-1.547,1.123-2.292,3.061-3.438,4.584c-3.542-0.172,3.289,3.851,2.292,1.146c-1.157-0.012-1.444-2.006,0-2.292
					c1.353,0.551,2.602,1.214,3.439,2.292c0.08,1.995-0.252,3.564-1.146,4.586C281.598,145.838,281.037,142.205,283.065,141.185z"/>
				<path fill="#FFFFFF" d="M253.265,378.414c-3.875,0.436-4.883-1.981-6.878-3.438c-4.745-0.309-4.458,1.514-8.023,0
					c0.745,4.998,11.302,0.17,11.462,5.732c-2.144,0.273,0.654,1.89-1.146,2.29c0.057-3.07-5.868,2.981-2.293,3.438
					c2.248-4.71,4.149,6.34,6.878,1.147C250.056,385.75,254.881,382.425,253.265,378.414z"/>
				<path fill="#FFFFFF" d="M240.656,161.817c4.001-1.743,8.218-3.244,10.315-6.876c-4.837,1.776,0.252-6.374-4.585-4.586
					c-0.961,3.611-5.902,3.255-6.876,6.877C241.207,157.438,240.564,159.994,240.656,161.817z"/>
				<path fill="#FFFFFF" d="M246.387,378.414c-3.771,1.58-9.789,0.906-11.462,4.584C237.538,384.18,245.596,382.688,246.387,378.414
					z"/>
				<path fill="#FFFFFF" d="M214.305,81.583c0.894,5.226,6.19,6.04,8.024,10.315c4.138,1.984,4.986,7.244,11.451,6.877
					c1.076-3.885,1.535-8.402,2.292-12.608c1.397-2.418,4.32-3.324,4.584-6.877c-2.911-2.694-5.559,1.444-6.876-2.292
					c-2.339,3.061-2.889,2.556-5.731,3.439c2.223-2.74,5.765-4.171,6.876-8.013c1.514,3.714,5.939,5.777,8.025,5.72
					c-0.7,0.068-1.354,0.172-1.146,1.146c5.089-1.021,6.28,0.723,6.877-2.292c2.167,0.137,0.801,3.793,3.438,3.439
					c0.47-1.433,1.479-2.339,3.439-2.292c-0.24-6.075,3.105-10.191,1.146-16.036c5.146,0.549,5.123-4.058,9.169-4.585
					c3.496-1.467,9.571-0.366,10.316-4.584c-5.776-5.685-10.098-12.826-16.046-18.34c-5.709,4.219-2.671,17.193-9.17,20.631
					c-1.146-0.01-1.364,0.929-2.292,1.146c-8.436,0.412-11.039-5.008-13.755-10.315c0.768-4.196,0.597-8.287-1.145-12.609
					c-6.339-0.229-7.084,5.135-10.305,8.023c-1.639,4.471-7.84,4.378-6.877,11.463c8.127,0.275,8.653,8.149,17.183,8.023
					c-2.26,2.602,1.225,6.395,0,11.461C229.333,77.513,220.976,78.705,214.305,81.583z"/>
				<path fill="#FFFFFF" d="M230.34,377.267c-0.849,2.545,4.229,4.724,4.584,2.294C233.126,379.067,233.951,375.961,230.34,377.267z
					"/>
				<path fill="#FFFFFF" d="M226.902,173.267c1.318-0.379,7.576-1.375,4.584-2.293c-3.392,0.299-5.65-4.527-6.865,0
					c1.65,2.545,2.797-1.433,3.427,1.146C227.349,172.189,226.696,172.292,226.902,173.267z"/>
				<path fill="#FFFFFF" d="M214.305,165.243c-5.043-0.446-3.965,5.215-5.732,8.024c2.924,0.882,5.263,1.695,6.878-1.146
					c-5.054,0.183-0.332-3.231,0-4.585C213.308,167.605,213.021,166.653,214.305,165.243z"/>
				<path fill="#FFFFFF" d="M161.58,170.974c2.499-2.464,5.319-4.608,9.169-5.731c0.471,1.445,1.478,2.349,3.439,2.292
					c0.195-1.329,1.811-1.237,3.438-1.146c4.584,0.698,9.296,3.346,13.754,3.438c9.548,0.207,17.102-4.927,22.924-9.156
					c-4.917-2.19-9.306,4.893-14.901,5.719c-2.302-5.215-4.297-3.828-10.315-4.573c-0.583-4.069-5.238-3.255-8.023-2.292
					c-1.604-1.834-3.943-2.934-6.877-3.439c-2.831,1.226-6.223,2.591-2.292,4.586c-3.13,0.824-2.304-2.281-4.585-2.293
					c-0.538,4.802-0.893,0.803-3.438,4.584C170.704,164.143,157.649,169.071,161.58,170.974z"/>
				<path fill="#FFFFFF" d="M194.82,302.776c-2.018,4.321,1.455,5.216,0,6.878c-1.8-0.872-1.719-3.634-4.585-3.438
					c1.501,3.403,1.009,5.65-2.293,6.876c-0.251-0.894-0.034-2.256-1.146-2.291c-1.248,3.289,1.228,8.526,3.439,4.584
					c-4.665-2.27,5.56-3.646,1.146,0c4.424-0.801,5.49-6.224,8.023-5.73c-1.203-0.068-0.905-1.468,1.146-1.147
					C200.814,304.427,198.9,302.512,194.82,302.776z"/>
				<path fill="#FFFFFF" d="M185.65,169.828c0,1.146,0,2.293,0,3.439c3.553-1.491,4.447,0.905,6.877-2.293
					C189.021,171.811,188.356,169.805,185.65,169.828z"/>
				<path fill="#FFFFFF" d="M176.48,321.116c1.788,0.092,0.791-3.336,0-1.146c-1.593,1.467-0.699,5.41-2.292,6.877
					c3.588,0.538,3.232-2.889,4.585-4.585C177.878,321.999,176.515,322.227,176.48,321.116z"/>
				<path fill="#FFFFFF" d="M168.457,322.261c-0.481,4.104-6.659,2.51-6.877,6.878c2.935-1.972,4.012,1.307,5.73-1.147
					c-2.75-2.534,2.5,1.467,4.585,1.147C174.015,326.88,170.886,323.409,168.457,322.261z"/>
				<path fill="#FFFFFF" d="M161.58,334.87c-1.466,0.057-1.582,1.468-3.439,1.146c-0.045-1.582,0.539-2.521,1.146-3.439
					c-1.972,0.448-2.934-1.707-3.439,0c3.278,0.596-1.845,1.698-2.292,2.293c0-1.158,0.928-1.363,1.145-2.293
					c-1.523,0-3.048,0-4.584,0c-0.173,1.341,0.207,3.245-1.147,3.439c-6.865-0.894-12.104,4-19.473,4.584
					c-0.172,3.6,2.934,3.932,5.731,4.585c0.01-1.524,2.004-1.055,2.281-2.291c-2.327,0.344,0.241-3.314,1.146-3.44
					c3.061,1.606,8.597-1.248,10.315,2.294c0.115-4.275,4.483-0.081,4.586-2.294c-0.7-0.066-1.353-0.17-1.148-1.145
					c3.831-0.713,3.921-3.371,8.024-1.147C161.075,336.142,163.883,332.143,161.58,334.87z"/>
				<path fill="#FFFFFF" d="M105.427,413.945c-0.068,0.7-0.171,1.353-1.146,1.148c-0.264-2.166,1.294-2.533,1.146-4.585
					c-1.718,0.194-4.229-0.415-4.584,1.146c3.61-0.563,0.859,5.249,3.438,5.73C103.662,415.735,108.752,414.586,105.427,413.945z"/>
				<path fill="#FFFFFF" d="M98.55,418.53c-0.068-0.699-0.171-1.365-1.146-1.146c0.104-1.813,2.922-0.906,2.292-3.439
					c-5.697-0.894-7.118-9.236-13.754-5.729c-3.771-2.728-0.194-12.793-5.731-13.755c-2.304,2.338,0.505,2.247,1.146,4.584
					c-3.072,1.513-1.903,7.268-3.439,10.316c4.723,0.538-1.1-3.083,3.439-3.438c0.654,2.384,3.277,3.702,1.146,5.73
					c4.962-0.091,7.588-2.406,9.17,2.291c-4.322,0.677-6.683,4.002-6.878,5.732c-1.479-1.582-4.975-1.136-8.023-1.147
					c-2.109-3.116-0.138,3.049,3.438,1.147c0,1.146,0.929,1.364,1.146,2.292c4.882-0.711,15.118,0.779,21.778-1.146
					c0.252-2.167-1.296-2.533-1.146-4.586C99.731,415.895,99.719,417.787,98.55,418.53z"/>
				<path fill="#FFFFFF" d="M97.404,408.215c-0.344-2.258,1.547-2.269,2.292-3.439c-1.387-0.24-0.711-1.271,0-2.292
					C96.119,402.116,93.576,407.781,97.404,408.215z"/>
				<path fill="#FFFFFF" d="M90.527,394.46c-0.31,2.087-4.126,6.418-1.147,8.023C88.841,399.549,93.438,395.985,90.527,394.46z"/>
				<path fill="#FFFFFF" d="M73.334,397.9c0.733,4.229-1.479,11.414,1.146,13.754C76.336,407.208,75.993,398.987,73.334,397.9z"/>
			</g>
			<g>
				<path fill="none" stroke="#000000" stroke-width="3" stroke-linecap="round" stroke-linejoin="round" d="M380.482,128.576
					c0,0.046,0,0.092,0,0.139c0.033,0.608,0.251,1.191,0.642,1.752c0.823,1.169,2.395,2.213,4.515,3.13
					c9.707,4.206,30.948,5.65,44.542,3.254c2.245-0.4,4.276-0.905,6.017-1.524c0.883-0.298,1.687-0.642,2.396-1.007
					c0.047-0.023,0.104-0.046,0.149-0.07c1.262-0.665,2.235-1.421,2.879-2.269c0.355-0.47,0.606-0.975,0.743-1.501"/>
			</g>
		</g>
		<g>
			<g>
				<path fill="#FFFFFF" d="M245.341,76.831c-5.111,0-9.269-4.16-9.269-9.271c0-5.112,4.158-9.271,9.269-9.271
					c5.113,0,9.272,4.158,9.272,9.271C254.614,72.671,250.455,76.831,245.341,76.831L245.341,76.831z"/>
			</g>
			<g>
				<path d="M245.341,59.434c4.482,0,8.125,3.646,8.125,8.125c0,4.481-3.644,8.125-8.125,8.125c-4.479,0-8.124-3.644-8.124-8.125
					C237.217,63.08,240.863,59.434,245.341,59.434 M245.341,57.142c-5.752,0-10.417,4.665-10.417,10.417s4.665,10.417,10.417,10.417
					c5.753,0,10.418-4.664,10.418-10.417S251.095,57.142,245.341,57.142L245.341,57.142z"/>
			</g>
		</g>
	</g>
</g>
</svg>
