<?xml version="1.0" encoding="UTF-8" standalone="no"?>
<!-- Created with Inkscape (http://www.inkscape.org/) -->
<svg xmlns:dc="http://purl.org/dc/elements/1.1/" xmlns:cc="http://web.resource.org/cc/" xmlns:rdf="http://www.w3.org/1999/02/22-rdf-syntax-ns#" xmlns:svg="http://www.w3.org/2000/svg" xmlns="http://www.w3.org/2000/svg" xmlns:sodipodi="http://sodipodi.sourceforge.net/DTD/sodipodi-0.dtd" xmlns:inkscape="http://www.inkscape.org/namespaces/inkscape" width="704.54303" height="756.57037" id="svg2" inkscape:label="Pozad  " sodipodi:version="0.32" inkscape:version="0.44.1" sodipodi:docbase="J:\INKSCAPE\kliparty\svg\14.Vypocetni technika" sodipodi:docname="harddisk.svg" version="1.0">
  <defs id="defs3"/>
  <sodipodi:namedview id="base" pagecolor="#ffffff" bordercolor="#666666" borderopacity="1.0" inkscape:pageopacity="0.0" inkscape:pageshadow="2" inkscape:zoom="0.55589227" inkscape:cx="372.04724" inkscape:cy="526.18109" inkscape:document-units="px" inkscape:current-layer="layer1" inkscape:window-width="1024" inkscape:window-height="710" inkscape:window-x="0" inkscape:window-y="0" showguides="true" inkscape:guide-bbox="true"/>
  <metadata id="metadata6">
    <rdf:RDF>
      <cc:Work rdf:about="">
        <dc:format>image/svg+xml</dc:format>
        <dc:type rdf:resource="http://purl.org/dc/dcmitype/StillImage"/>
        <cc:license rdf:resource="http://web.resource.org/cc/PublicDomain"/>
        <dc:title>harddisk</dc:title>
        <dc:publisher>
          <cc:Agent>
            <dc:title>ZS a MS Machovo nam.</dc:title>
          </cc:Agent>
        </dc:publisher>
        <dc:subject>
          <rdf:Bag/>
        </dc:subject>
        <dc:language>cz</dc:language>
        <dc:creator>
          <cc:Agent>
            <dc:title/>
          </cc:Agent>
        </dc:creator>
      </cc:Work>
      <cc:License rdf:about="http://web.resource.org/cc/PublicDomain">
        <cc:permits rdf:resource="http://web.resource.org/cc/Reproduction"/>
        <cc:permits rdf:resource="http://web.resource.org/cc/Distribution"/>
        <cc:permits rdf:resource="http://web.resource.org/cc/DerivativeWorks"/>
      </cc:License>
    </rdf:RDF>
  </metadata>
  <g inkscape:label="Vrstva 1" inkscape:groupmode="layer" id="layer1" transform="translate(-28.1638, -139.829)">
    <g id="g8365" transform="translate(14.3913, -3.59782)">
      <path id="path6483" d="M 424.37028,144.62844 L 34.254104,283.54786 L 22.836069,293.06289 L 15.224046,306.38393 L 15.224046,317.80196 L 262.61479,884.89768 L 270.22682,898.21872 L 296.8689,898.21872 L 717.43317,721.23918 L 717.43317,677.47005 L 424.37028,144.62844 z " style="fill: rgb(115, 118, 120); fill-opacity: 1; fill-rule: evenodd; stroke: black; stroke-width: 1px; stroke-linecap: butt; stroke-linejoin: miter; stroke-opacity: 1;"/>
      <path id="path6546" d="M 119.76092,364.74612 C 70.126589,408.77184 73.42097,301.51267 103.59684,283.5996 C 161.80242,265.52272 218.46557,238.93556 278.57196,225.42645 C 382.9437,213.46043 504.42319,256.62266 544.54857,361.39598 C 562.44049,387.07007 557.60857,493.99452 548.41585,416.81852 C 539.43843,302.70088 420.29295,226.33605 312.08234,233.5194 C 230.57657,236.45107 148.78237,286.71392 119.76092,364.74612 z " style="fill: rgb(8, 6, 14); fill-opacity: 1; fill-rule: evenodd; stroke: black; stroke-width: 1px; stroke-linecap: butt; stroke-linejoin: miter; stroke-opacity: 1;"/>
      <path sodipodi:nodetypes="ccccc" id="path6485" d="M 22.618885,293.48227 C 28.061089,302.60262 30.341781,334.15388 42.219077,338.16264 C 50.111003,333.5395 63.58454,325.75196 62.169069,312.01816 C 58.720082,297.90685 50.133347,284.63121 34.258324,283.88677 C 31.998834,286.00003 25.252594,291.81609 22.618885,293.48227 z " style="fill: rgb(224, 228, 227); fill-opacity: 1; fill-rule: evenodd; stroke: black; stroke-width: 1px; stroke-linecap: butt; stroke-linejoin: miter; stroke-opacity: 1;"/>
      <path sodipodi:nodetypes="ccccc" id="path6487" d="M 423.27269,143.9271 C 429.59347,155.29173 436.64483,166.27485 442.0782,178.11372 C 446.59949,186.45994 422.98564,197.43269 417.99311,188.65098 C 411.53827,180.45253 405.9946,166.79703 401.43138,158.28191 C 395.77355,149.27581 419.04928,150.30823 423.27269,143.9271 z " style="fill: rgb(227, 230, 234); fill-opacity: 1; fill-rule: evenodd; stroke: black; stroke-width: 1px; stroke-linecap: butt; stroke-linejoin: miter; stroke-opacity: 1;"/>
      <path id="path6489" d="M 283.54785,235.97272 C 389.563,221.42224 515.26446,274.85677 543.33983,385.8462 C 571.17452,493.23897 489.13794,612.12593 378.07565,622.45504 C 260.8987,644.29981 125.75534,565.24239 112.62748,441.42214 C 98.204766,355.7891 160.87988,274.19571 241.44703,250.49494 C 255.3605,245.31137 269.49306,240.75073 283.54785,235.97272 z " style="fill: rgb(213, 210, 210); fill-opacity: 1; fill-rule: nonzero; stroke: black; stroke-width: 1px; stroke-linecap: butt; stroke-linejoin: miter; stroke-opacity: 1;"/>
      <path id="path6491" d="M 353.95908,350.15305 C 393.88764,354.22181 419.43998,405.12871 398.733,439.5591 C 384.07467,462.92946 354.51766,471.85383 328.17559,469.79854 C 312.69081,468.22834 296.32486,465.4678 283.33101,456.43458 C 263.32276,440.95535 251.77129,411.68094 262.92098,387.7338 C 271.77678,366.91711 291.82241,352.26757 313.93594,348.60326 C 327.16917,346.13474 340.94671,346.75345 353.95908,350.15305 z " style="fill: rgb(148, 164, 179); fill-opacity: 1; fill-rule: evenodd; stroke: black; stroke-width: 1px; stroke-linecap: butt; stroke-linejoin: miter; stroke-opacity: 1;"/>
      <path id="path6495" d="M 406.37973,430.68192 C 401.47103,446.26232 393.81147,462.35161 379.35308,471.14963 C 365.75386,481.97174 347.46059,482.27626 330.90366,481.7671 C 322.52797,481.0918 314.0623,482.26966 305.75501,480.86201 C 292.87715,478.45184 281.76127,470.43194 273.12544,460.8651 C 266.16336,457.07056 264.68525,448.04338 258.642,443.29948 C 252.79656,442.97691 258.72351,452.16225 259.69149,455.1724 C 265.28401,465.25328 273.9867,473.11863 282.20757,481.005 C 299.13862,495.3741 322.18924,501.91804 344.16113,499.08021 C 360.72613,499.29876 374.76861,488.76322 386.37545,478.04309 C 399.87815,466.53504 408.92244,448.68867 406.37973,430.68192 z " style="fill: rgb(158, 153, 157); fill-opacity: 1; fill-rule: evenodd; stroke: black; stroke-width: 1px; stroke-linecap: butt; stroke-linejoin: miter; stroke-opacity: 1;"/>
      <path id="path6533" d="M 127.83469,306.2113 C 118.63568,302.54641 112.11551,312.163 107.10977,316.58681 C 97.054911,312.3147 108.41733,297.44057 116.38063,296.63295 C 124.37005,295.14565 144.66063,291.05526 142.54706,304.32938 C 138.42547,311.20107 134.6512,323.1541 124.95447,322.64529 C 121.12365,318.3228 126.77809,310.91271 127.83469,306.2113 z " style="fill: rgb(78, 87, 106); fill-opacity: 1; fill-rule: evenodd; stroke: black; stroke-width: 1px; stroke-linecap: butt; stroke-linejoin: miter; stroke-opacity: 1;"/>
      <path id="path6553" d="M 577.31847,422.82219 C 572.99477,425.84975 565.73926,428.70731 565.86551,434.77076 C 566.53646,439.58292 566.74268,445.47428 571.4516,448.22725 C 575.8164,451.01295 580.97989,454.07297 586.31503,452.1336 C 593.72223,450.93591 589.93855,443.38926 586.72393,439.74552 C 583.72483,434.04044 580.46892,428.45682 577.31847,422.82219 z " style="fill: rgb(195, 197, 210); fill-opacity: 1; fill-rule: evenodd; stroke: black; stroke-width: 1px; stroke-linecap: butt; stroke-linejoin: miter; stroke-opacity: 1;"/>
      <path id="path6555" d="M 179.83405,576.61072 C 192.65139,580.21327 190.6077,601.43089 178.12874,604.07583 C 166.5063,607.44957 155.40724,590.91518 164.02026,581.87224 C 168.24403,577.73914 174.67718,578.60576 179.83405,576.61072 z " style="fill: rgb(195, 197, 210); fill-opacity: 1; fill-rule: evenodd; stroke: black; stroke-width: 1px; stroke-linecap: butt; stroke-linejoin: miter; stroke-opacity: 1;"/>
      <path id="path6557" d="M 437.69131,445.30334 C 448.86898,443.61981 454.36587,454.77905 450.13592,463.9338 C 449.47658,475.8022 448.81722,487.6706 448.15787,499.539 C 457.71972,508.37779 451.97538,523.02118 451.82031,533.8443 C 445.39332,537.15408 436.79884,537.69728 437.83418,547.46047 C 438.74367,557.95734 446.08479,567.08146 443.06617,578.14448 C 443.33458,593.8132 439.75215,609.27287 441.03687,624.93336 C 441.46094,642.12968 442.02443,659.32223 442.44885,676.51855 C 434.21826,682.51411 428.65919,661.64361 421.72921,674.80154 C 416.20909,685.59033 408.39531,696.93606 394.8302,696.67545 C 383.66143,695.55027 370.14142,706.83246 361.53884,696.03179 C 357.23253,684.01533 338.7474,698.13046 339.37242,683.15746 C 339.201,671.8956 341.77509,661.18146 351.22625,654.14363 C 356.98023,645.33598 358.12274,634.41309 361.5089,624.57766 C 358.68695,612.21005 368.68315,602.17555 372.11822,591.02139 C 393.97594,542.44872 415.8336,493.876 437.69131,445.30334 z " style="fill: rgb(176, 176, 188); fill-opacity: 1; fill-rule: evenodd; stroke: black; stroke-width: 1px; stroke-linecap: butt; stroke-linejoin: miter; stroke-opacity: 1;"/>
      <path id="path6559" d="M 439.59433,480.50894 C 433.92613,476.7957 424.0517,480.7624 425.44811,488.33006 C 426.45687,496.28954 438.26462,500.31945 443.38507,493.69436 C 447.02762,489.15461 441.44289,484.42658 439.59433,480.50894 z " style="fill: rgb(226, 227, 230); fill-opacity: 1; fill-rule: evenodd; stroke: black; stroke-width: 1px; stroke-linecap: butt; stroke-linejoin: miter; stroke-opacity: 1;"/>
      <path id="path6561" d="M 425.32178,509.05405 C 430.02738,509.03012 436.47774,511.78764 434.65945,517.53425 C 433.62791,523.5088 424.379,523.77219 421.24799,519.4164 C 417.55075,515.83625 418.00424,507.74889 424.6208,509.16351 L 425.32178,509.05405 L 425.32178,509.05405 z " style="fill: rgb(231, 232, 235); fill-opacity: 1; fill-rule: evenodd; stroke: black; stroke-width: 1px; stroke-linecap: butt; stroke-linejoin: miter; stroke-opacity: 1;"/>
      <path id="path6563" d="M 416.75827,537.59912 C 409.44818,538.16533 405.98661,548.6829 412.54862,552.81382 C 416.97934,556.47197 424.9475,555.29007 426.72697,549.37779 C 428.70389,543.00069 420.89638,540.30387 416.75827,537.59912 z " style="fill: rgb(229, 231, 234); fill-opacity: 1; fill-rule: evenodd; stroke: black; stroke-width: 1px; stroke-linecap: butt; stroke-linejoin: miter; stroke-opacity: 1;"/>
      <path id="path6565" d="M 414.85526,561.38672 C 421.09683,563.96941 424.76107,571.07534 422.77669,577.61156 C 421.65172,585.72699 420.62927,593.93311 418.60916,601.85546 C 415.16764,608.46844 405.75349,606.26424 401.32719,602.00152 C 394.95391,595.84922 397.96162,586.3251 399.89627,578.91409 C 401.37487,572.66667 400.19355,563.3546 408.66691,561.94656 C 410.70887,561.32767 412.82809,562.07654 414.85526,561.38672 z " style="fill: rgb(226, 227, 230); fill-opacity: 1; fill-rule: evenodd; stroke: black; stroke-width: 1px; stroke-linecap: butt; stroke-linejoin: miter; stroke-opacity: 1;"/>
      <path id="path6567" d="M 415.80676,613.71936 L 427.22479,614.67086 L 428.1763,626.08889 L 416.75826,624.18589 L 415.80676,613.71936 z " style="fill: rgb(8, 6, 14); fill-opacity: 1; fill-rule: evenodd; stroke: black; stroke-width: 1px; stroke-linecap: butt; stroke-linejoin: miter; stroke-opacity: 1;"/>
      <path id="path6569" d="M 433.88531,631.79791 L 429.1278,631.79791 L 428.1763,647.02196 L 434.83682,647.02196 L 433.88531,631.79791 z " style="fill: rgb(8, 6, 14); fill-opacity: 1; fill-rule: evenodd; stroke: black; stroke-width: 1px; stroke-linecap: butt; stroke-linejoin: miter; stroke-opacity: 1;"/>
      <path id="path6571" d="M 384.40717,627.99188 C 363.73232,628.99304 354.75483,656.33614 366.49422,671.74554 C 376.49059,687.0144 400.7753,690.81062 413.3163,676.50102 C 425.21343,664.1622 420.31955,643.00474 406.14444,634.68072 C 399.73794,630.53543 392.36076,626.19676 384.40717,627.99188 z " style="fill: rgb(114, 109, 116); fill-opacity: 1; fill-rule: evenodd; stroke: black; stroke-width: 1px; stroke-linecap: butt; stroke-linejoin: miter; stroke-opacity: 1;"/>
      <path id="path6573" d="M 393.92218,647.02197 C 386.23758,643.75915 378.09462,656.07515 385.93053,660.71702 C 392.14688,667.27995 404.0804,657.84381 396.32565,651.20585 C 395.45285,649.85539 394.54512,648.51203 393.92218,647.02197 z " style="fill: rgb(189, 186, 195); fill-opacity: 1; fill-rule: evenodd; stroke: black; stroke-width: 1px; stroke-linecap: butt; stroke-linejoin: miter; stroke-opacity: 1;"/>
      <path id="path6579" d="M 319.70496,644.16748 C 318.79164,671.97536 338.39351,695.12628 359.43859,710.8472 C 384.13576,722.24498 411.91535,717.47521 437.98566,716.93296 C 452.17904,720.39661 466.78253,712.88464 478.49645,718.84704 C 492.93349,709.24001 502.25811,733.63199 514.65319,738.25639 C 524.92383,754.0812 498.93029,772.73876 488.50377,767.538 C 491.75448,741.30965 467.77639,767.75158 457.25299,771.74681 C 440.92052,782.60395 421.08317,787.35751 401.57242,785.85246 C 386.09188,783.91832 371.2649,785.30425 371.77607,804.34463 C 359.06705,821.1317 348.27252,794.4452 353.07882,782.40476 C 337.98177,776.0464 320.11844,771.7283 308.38061,758.1248 C 288.95491,743.16228 273.09099,723.53568 265.21778,700.11202 C 263.05384,674.58712 236.64078,668.275 215.49599,668.35752 C 210.09729,653.71485 211.84472,639.55581 228.36069,633.70093 C 223.59874,617.40385 249.24543,617.0691 252.18183,627.10157 C 265.64143,625.81221 276.3696,631.44054 287.8919,625.13739 C 301.44141,621.86724 306.74678,627.86802 305.43243,641.31293 C 310.18994,642.26444 314.94746,643.21596 319.70496,644.16748 z " style="fill: rgb(171, 168, 177); fill-opacity: 1; fill-rule: evenodd; stroke: black; stroke-width: 1px; stroke-linecap: butt; stroke-linejoin: miter; stroke-opacity: 1;"/>
      <path id="path6659" d="M 305.45762,697.11632 L 289.98289,708.55416 L 369.37496,747.57738 L 370.72059,738.83079 L 305.45762,697.11632 z " style="fill: rgb(82, 79, 88); fill-opacity: 1; fill-rule: evenodd; stroke: black; stroke-width: 1px; stroke-linecap: butt; stroke-linejoin: miter; stroke-opacity: 1;"/>
      <path id="path6661" d="M 421.18164,765.74335 C 420.77984,760.28912 422.48107,754.22751 419.21316,749.35021 C 416.95955,745.49182 413.09132,742.91688 409.31488,740.74506 C 404.68129,739.32118 399.91914,741.39362 395.76945,743.33863 C 391.88144,746.09389 391.75074,752.43139 394.86664,755.81804 C 399.18881,757.59845 403.92679,757.81518 408.39681,759.05636 C 405.10982,763.64154 400.18909,767.09976 394.6999,768.41144 C 390.35421,768.82742 386.84165,765.74373 383.1713,763.9444 C 379.67911,761.74174 377.97297,757.8185 375.78262,754.49086 C 375.82102,749.31691 375.84464,743.95178 377.7383,739.06586 C 379.8674,734.81255 382.52242,730.72763 386.14065,727.58813 C 390.30864,725.61155 395.08586,725.56598 399.59479,725.63294 C 404.63747,726.49065 410.08201,726.11384 414.64797,728.78463 C 418.90245,730.57701 422.73278,734.03878 423.83326,738.66016 C 426.63538,743.67231 428.1487,749.50293 427.77285,755.24557 C 426.92007,759.11921 423.58813,761.68969 421.69413,765.02587 L 421.43789,765.38461 L 421.18164,765.74335 L 421.18164,765.74335 z " style="fill: rgb(84, 84, 92); fill-opacity: 1; fill-rule: evenodd; stroke: black; stroke-width: 1px; stroke-linecap: butt; stroke-linejoin: miter; stroke-opacity: 1;"/>
      <path id="path6663" d="M 332.37018,806.78502 L 324.29641,811.49472 L 320.25953,818.89568 L 320.93234,826.96945 L 325.64204,833.69759 L 332.37018,836.38884 L 342.4624,832.35196 L 345.82647,824.951 L 346.49928,816.20442 L 341.11677,809.47628 L 332.37018,806.78502 z " style="fill: rgb(166, 166, 174); fill-opacity: 1; fill-rule: evenodd; stroke: black; stroke-width: 1px; stroke-linecap: butt; stroke-linejoin: miter; stroke-opacity: 1;"/>
      <path id="path6665" d="M 281.90912,805.43939 L 306.13043,852.53638 C 306.13043,852.53638 283.92757,864.64704 283.92757,861.28297 C 283.92757,857.9189 260.37907,812.16754 260.37907,812.16754 L 281.90912,805.43939 z " style="fill: rgb(209, 207, 216); fill-opacity: 1; fill-rule: evenodd; stroke: black; stroke-width: 1px; stroke-linecap: butt; stroke-linejoin: miter; stroke-opacity: 1;"/>
      <path sodipodi:nodetypes="cccccccccccccccccccccccc" id="path1336" d="M 614.27931,602.69146 L 609.56961,608.74679 L 604.1871,616.82056 L 596.11333,626.23996 L 586.02111,630.27684 L 505.95623,663.24474 L 507.97467,669.97288 L 522.77658,670.64569 L 522.10377,685.4476 L 508.64749,688.13886 L 509.3203,731.87178 L 526.81347,764.48636 L 546.99789,756.09309 L 662.04911,708.32328 L 661.3763,698.90389 L 645.90157,696.88544 L 647.2472,686.79323 L 662.72193,687.46605 L 660.03067,677.37383 L 648.59283,662.57192 L 650.61127,634.31373 L 650.61127,617.49337 L 635.80936,602.69146 L 614.27931,602.69146 z " style="fill: rgb(216, 124, 15); fill-opacity: 1; fill-rule: evenodd; stroke: black; stroke-width: 1px; stroke-linecap: butt; stroke-linejoin: miter; stroke-opacity: 1;"/>
      <path id="path1338" d="M 560.45416,598.21265 C 564.6871,599.1098 569.1289,600.79295 571.78128,604.39694 C 573.31707,606.5159 573.71222,609.24159 573.59399,611.79762 C 573.30011,615.33286 571.53198,618.70842 568.85027,621.02005 C 565.29832,622.60869 561.22131,623.92803 557.34647,622.7672 C 555.90057,622.43506 554.87152,621.31419 553.62115,620.64712 C 550.90129,619.40275 549.28794,616.54803 548.96231,613.65489 C 548.59615,610.71808 548.84389,607.72289 549.33465,604.81769 C 550.14862,601.96913 553.03873,600.47973 555.63099,599.56078 C 557.20598,599.00196 558.8313,598.60379 560.45416,598.21265 z " style="fill: rgb(151, 165, 183); fill-opacity: 1; fill-rule: evenodd; stroke: black; stroke-width: 1px; stroke-linecap: butt; stroke-linejoin: miter; stroke-opacity: 1;"/>
      <path id="path1340" d="M 584.48821,631.39462 L 605.09332,664.94837 L 607.01745,668.36726 L 568.83065,686.15122 L 546.37622,646.48836 L 584.48821,631.39462 z " style="fill: rgb(236, 243, 235); fill-opacity: 1; fill-rule: evenodd; stroke: black; stroke-width: 1px; stroke-linecap: butt; stroke-linejoin: miter; stroke-opacity: 1;"/>
      <path id="path1342" d="M 628.40839,609.65045 C 622.75175,609.30247 615.30941,611.22764 614.68462,617.95389 C 614.18408,625.24016 619.55866,632.03141 625.80964,635.18589 C 632.04434,637.11239 639.79054,632.94483 641.37161,626.48903 C 643.66295,619.16403 638.97483,610.31214 630.91223,609.74921 C 630.07588,609.75817 629.24304,609.6845 628.40839,609.65045 z " style="fill: rgb(111, 140, 170); fill-opacity: 1; fill-rule: evenodd; stroke: black; stroke-width: 1px; stroke-linecap: butt; stroke-linejoin: miter; stroke-opacity: 1;"/>
      <path id="path1344" d="M 694.66367,636.25053 C 689.32211,634.48952 682.54107,637.90335 681.72362,643.69223 C 681.08501,650.45994 683.60086,657.04052 686.91816,662.81869 C 689.17824,666.90335 691.72652,670.83368 693.71628,675.06405 C 696.77701,678.97894 697.57065,684.48344 701.68973,687.58121 C 704.81758,689.60271 709.13037,689.65184 712.17307,687.41628 C 714.65564,685.72885 716.53032,683.2577 717.81557,680.56801 C 717.66002,674.62947 713.25731,670.16156 710.49092,665.26667 C 709.17689,662.71069 707.99328,660.09735 706.50409,657.62911 C 702.55727,650.50292 698.61049,643.37671 694.66367,636.25053 z " style="fill: rgb(216, 222, 234); fill-opacity: 1; fill-rule: evenodd; stroke: black; stroke-width: 1px; stroke-linecap: butt; stroke-linejoin: miter; stroke-opacity: 1;"/>
      <path sodipodi:nodetypes="ccccccccc" id="path1346" d="M 22.268788,292.89963 C 104.78436,482.7574 191.18538,670.16819 274.00574,859.87334 C 280.40513,873.37982 297.8811,863.06482 307.71176,859.03705 C 444.28556,800.41772 580.85936,741.7984 717.43317,683.17908 C 717.43317,695.5486 717.43317,707.91813 717.43317,720.28766 C 577.56225,779.59802 437.69132,838.90839 297.8204,898.21875 C 287.77733,895.98632 270.77326,904.75436 266.09478,894.04425 C 182.15403,701.01199 98.213287,507.97972 14.272543,314.94745 C 14.980359,305.11942 17.532937,301.04857 22.268788,292.89963 z " style="fill: rgb(78, 85, 103); fill-opacity: 1; fill-rule: evenodd; stroke: black; stroke-width: 1px; stroke-linecap: butt; stroke-linejoin: miter; stroke-opacity: 1;"/>
      <g transform="translate(-15.224, -3.80601)" id="g8040">
        <path id="path6575" d="M 533.79309,500.49054 C 547.29916,511.99832 562.28751,521.8659 573.50646,535.79401 C 579.59486,543.67199 593.85013,569.13341 601.33706,550.14891 C 603.41865,535.04247 602.10526,519.58688 602.87579,504.33586 C 601.5132,494.73301 606.87435,482.84025 599.36075,475.25037 C 591.99154,461.96457 578.1505,478.20638 570.45283,468.47012 C 566.36197,456.50498 551.1048,452.92422 544.51826,464.84334 C 540.62811,474.70024 538.81601,485.44047 535.44069,495.67341 C 534.93802,497.29448 534.39644,498.90397 533.79309,500.49054 z " style="fill: rgb(238, 228, 227); fill-opacity: 1; fill-rule: evenodd; stroke: black; stroke-width: 1px; stroke-linecap: butt; stroke-linejoin: miter; stroke-opacity: 1;"/>
        <path id="path1367" d="M 595.39349,496.10873 C 609.29155,492.08924 603.31798,469.87059 590.16383,469.53032 C 574.18769,466.7066 566.98992,490.82529 583.24224,495.51971 C 587.11891,496.91884 591.39227,496.97541 595.39349,496.10873 z " style="fill: rgb(196, 194, 198); fill-opacity: 1; fill-rule: evenodd; stroke: black; stroke-width: 1px; stroke-linecap: butt; stroke-linejoin: miter; stroke-opacity: 1;"/>
      </g>
      <path id="path1382" d="M 382.50415,218.84566 C 377.24187,219.34698 370.30954,225.45386 366.48377,218.75767 C 362.59582,213.88138 364.08382,206.45057 369.03462,202.95053 C 375.66922,198.34254 384.18062,200.62236 391.54558,201.50207 C 400.03078,203.09787 408.51964,204.98294 416.70559,207.7299 C 425.05994,211.44083 431.9698,217.93137 440.84693,220.58335 C 447.67077,222.9419 454.63473,224.91226 461.37303,227.48655 C 467.25499,228.01373 471.89921,231.57236 474.25728,236.88705 C 477.29268,241.65695 480.32807,246.42686 483.36346,251.19676 C 478.73289,254.67207 474.58807,259.21374 468.83708,260.81331 C 463.07891,264.74624 458.49228,257.32681 454.03881,254.70776 C 446.5201,248.95904 439.2944,242.38654 430.10868,239.42415 C 414.27275,232.4904 398.41137,225.6144 382.50415,218.84566 z " style="fill: rgb(14, 14, 24); fill-opacity: 1; fill-rule: evenodd; stroke: black; stroke-width: 1px; stroke-linecap: butt; stroke-linejoin: miter; stroke-opacity: 1;"/>
      <path id="path1384" d="M 382.50415,163.65849 C 386.31016,166.83017 390.11617,170.00185 393.92218,173.17352 C 393.28785,176.97953 392.65352,180.78554 392.0192,184.59155 C 388.84752,184.59155 385.67583,184.59155 382.50415,184.59155 C 379.33248,182.05421 376.16081,179.51688 372.98914,176.97954 C 376.16082,172.5392 379.33248,168.09883 382.50415,163.65849 z " style="fill: rgb(14, 13, 19); fill-opacity: 1; fill-rule: evenodd; stroke: black; stroke-width: 1px; stroke-linecap: butt; stroke-linejoin: miter; stroke-opacity: 1;"/>
      <path id="path1396" d="M 338.73502,384.40717 C 359.94372,390.42229 365.08324,421.41351 348.07474,434.78724 C 334.96979,445.06838 314.1464,442.21176 302.19642,431.41063 C 288.10219,416.56028 294.96217,386.26812 316.61964,383.01555 C 324.03185,381.8263 331.33471,384.46246 338.73502,384.40717 z " style="fill: rgb(204, 203, 217); fill-opacity: 1; fill-rule: evenodd; stroke: black; stroke-width: 1px; stroke-linecap: butt; stroke-linejoin: miter; stroke-opacity: 1;"/>
      <path id="path1394" d="M 327.31699,401.53421 L 313.99595,405.34023 L 313.99595,414.85525 L 323.51098,426.27329 L 336.83202,422.46728 L 340.63803,409.14624 L 327.31699,401.53421 z " style="fill: rgb(103, 103, 111); fill-opacity: 1; fill-rule: evenodd; stroke: black; stroke-width: 1px; stroke-linecap: butt; stroke-linejoin: miter; stroke-opacity: 1;"/>
      <path id="path1410" d="M 309.23844,355.86208 L 309.23844,362.5226 L 326.36549,363.4741 L 327.31699,355.86208 L 309.23844,355.86208 z " style="fill: rgb(25, 29, 41); fill-opacity: 1; fill-rule: evenodd; stroke: black; stroke-width: 1px; stroke-linecap: butt; stroke-linejoin: miter; stroke-opacity: 1;"/>
      <path id="path1412" d="M 294.01439,392.01919 L 294.96589,400.58271 L 278.79034,399.63121 L 279.74185,392.01919 L 294.01439,392.01919 z " style="fill: rgb(2, 2, 10); fill-opacity: 1; fill-rule: evenodd; stroke: black; stroke-width: 1px; stroke-linecap: butt; stroke-linejoin: miter; stroke-opacity: 1;"/>
      <path id="path1414" d="M 354.91057,378.69814 L 366.32861,379.64965 L 367.28011,386.31017 L 353.95907,386.31017 L 354.91057,378.69814 z " style="fill: rgb(18, 20, 30); fill-opacity: 1; fill-rule: evenodd; stroke: black; stroke-width: 1px; stroke-linecap: butt; stroke-linejoin: miter; stroke-opacity: 1;"/>
      <path id="path1416" d="M 332.0745,443.40034 L 340.63803,443.40034 L 342.54104,451.96387 L 331.123,450.06086 L 332.0745,443.40034 z " style="fill: rgb(11, 11, 21); fill-opacity: 1; fill-rule: evenodd; stroke: black; stroke-width: 1px; stroke-linecap: butt; stroke-linejoin: miter; stroke-opacity: 1;"/>
      <path id="path2884" d="M 359.34238,180.92403 C 359.34238,184.80013 359.34238,188.67624 359.34238,192.55234 C 351.51271,195.59311 343.79619,198.91401 336.08575,202.2426 C 332.20964,200.95057 328.33354,199.65853 324.45743,198.3665 C 321.87336,195.78243 319.2893,193.19836 316.70523,190.61429 C 316.70523,188.03022 316.70523,185.44615 316.70523,182.86208 C 327.68752,178.98597 338.66981,175.10987 349.6521,171.23376 C 352.88219,174.46385 356.11229,177.69395 359.34238,180.92403 z " style="fill: rgb(224, 228, 227); fill-opacity: 1; fill-rule: evenodd; stroke: black; stroke-width: 1px; stroke-linecap: butt; stroke-linejoin: miter; stroke-opacity: 1;"/>
    </g>
  </g>
</svg>