<?xml version="1.0" encoding="UTF-8" standalone="no"?>
<!-- Created with Inkscape (http://www.inkscape.org/) -->
<svg xmlns:dc="http://purl.org/dc/elements/1.1/" xmlns:cc="http://web.resource.org/cc/" xmlns:rdf="http://www.w3.org/1999/02/22-rdf-syntax-ns#" xmlns:svg="http://www.w3.org/2000/svg" xmlns="http://www.w3.org/2000/svg" xmlns:xlink="http://www.w3.org/1999/xlink" xmlns:sodipodi="http://inkscape.sourceforge.net/DTD/sodipodi-0.dtd" xmlns:inkscape="http://www.inkscape.org/namespaces/inkscape" width="400" height="400" id="svg2" sodipodi:version="0.32" inkscape:version="0.43" version="1.0" sodipodi:docbase="/home/nicu/Desktop/game_elements" sodipodi:docname="marbles.svg">
  <defs id="defs4">
    <linearGradient inkscape:collect="always" id="linearGradient4094">
      <stop style="stop-color: rgb(255, 255, 255); stop-opacity: 1;" offset="0" id="stop4096"/>
      <stop style="stop-color: rgb(255, 255, 255); stop-opacity: 0;" offset="1" id="stop4098"/>
    </linearGradient>
    <linearGradient id="linearGradient2250">
      <stop style="stop-color: rgb(0, 137, 27); stop-opacity: 1;" offset="0" id="stop2252"/>
      <stop style="stop-color: rgb(0, 97, 19); stop-opacity: 1;" offset="1" id="stop2254"/>
    </linearGradient>
    <linearGradient id="linearGradient2242">
      <stop style="stop-color: rgb(167, 147, 66); stop-opacity: 1;" offset="0" id="stop2244"/>
      <stop style="stop-color: rgb(126, 111, 50); stop-opacity: 1;" offset="1" id="stop2246"/>
    </linearGradient>
    <linearGradient id="linearGradient2234">
      <stop style="stop-color: rgb(48, 250, 250); stop-opacity: 1;" offset="0" id="stop2236"/>
      <stop style="stop-color: rgb(4, 194, 194); stop-opacity: 1;" offset="1" id="stop2238"/>
    </linearGradient>
    <linearGradient id="linearGradient2226">
      <stop style="stop-color: rgb(31, 30, 226); stop-opacity: 1;" offset="0" id="stop2228"/>
      <stop style="stop-color: rgb(22, 21, 170); stop-opacity: 1;" offset="1" id="stop2230"/>
    </linearGradient>
    <linearGradient id="linearGradient2218">
      <stop style="stop-color: rgb(238, 38, 11); stop-opacity: 1;" offset="0" id="stop2220"/>
      <stop style="stop-color: rgb(194, 31, 8); stop-opacity: 1;" offset="1" id="stop2222"/>
    </linearGradient>
    <linearGradient id="linearGradient2210">
      <stop style="stop-color: rgb(248, 248, 19); stop-opacity: 1;" offset="0" id="stop2212"/>
      <stop style="stop-color: rgb(215, 215, 6); stop-opacity: 1;" offset="1" id="stop2214"/>
    </linearGradient>
    <linearGradient id="linearGradient2202">
      <stop style="stop-color: rgb(55, 236, 10); stop-opacity: 1;" offset="0" id="stop2204"/>
      <stop style="stop-color: rgb(45, 195, 8); stop-opacity: 1;" offset="1" id="stop2206"/>
    </linearGradient>
    <linearGradient id="linearGradient2194">
      <stop style="stop-color: rgb(217, 23, 217); stop-opacity: 1;" offset="0" id="stop2196"/>
      <stop style="stop-color: rgb(170, 18, 170); stop-opacity: 1;" offset="1" id="stop2198"/>
    </linearGradient>
    <linearGradient id="linearGradient2186">
      <stop style="stop-color: rgb(231, 27, 109); stop-opacity: 1;" offset="0" id="stop2188"/>
      <stop style="stop-color: rgb(166, 17, 77); stop-opacity: 1;" offset="1" id="stop2190"/>
    </linearGradient>
    <radialGradient inkscape:collect="always" xlink:href="#linearGradient2218" id="radialGradient2224" cx="-225" cy="-79.051216" fx="-225" fy="-79.051216" r="53.136295" gradientTransform="matrix(1.27471, -0.0770814, 0.0708525, 1.17171, 67.4099, -3.71825)" gradientUnits="userSpaceOnUse"/>
    <linearGradient inkscape:collect="always" xlink:href="#linearGradient4094" id="linearGradient4102" x1="-289.20667" y1="-152.01428" x2="-188.79752" y2="-28.65625" gradientUnits="userSpaceOnUse"/>
    <radialGradient inkscape:collect="always" xlink:href="#linearGradient2242" id="radialGradient1442" gradientUnits="userSpaceOnUse" gradientTransform="matrix(1.07018, -0.0350877, 0.0327693, 0.999463, 13.1217, -7.51164)" cx="-215" cy="60" fx="-215" fy="60" r="57"/>
    <linearGradient inkscape:collect="always" xlink:href="#linearGradient4094" id="linearGradient1444" gradientUnits="userSpaceOnUse" x1="-285.29205" y1="-37.468037" x2="-160.76346" y2="96.547729"/>
    <radialGradient inkscape:collect="always" xlink:href="#linearGradient2210" id="radialGradient1446" gradientUnits="userSpaceOnUse" gradientTransform="matrix(1.03875, -0.115894, 0.110889, 0.993833, -6.7264, 3.50106)" cx="27.49255" cy="51.051094" fx="27.49255" fy="51.051094" r="70.364243"/>
    <linearGradient inkscape:collect="always" xlink:href="#linearGradient4094" id="linearGradient1448" gradientUnits="userSpaceOnUse" x1="-134.2684" y1="-117.23493" x2="-59.112095" y2="-41.574501"/>
    <radialGradient inkscape:collect="always" xlink:href="#linearGradient2250" id="radialGradient1450" gradientUnits="userSpaceOnUse" gradientTransform="matrix(1.19469, -0.0353982, 0.0296174, 0.999589, 15.6266, -3.15922)" cx="-90" cy="63.999729" fx="-90" fy="63.999729" r="56.5"/>
    <linearGradient inkscape:collect="always" xlink:href="#linearGradient4094" id="linearGradient1452" gradientUnits="userSpaceOnUse" x1="-150.10512" y1="-22.311712" x2="-36.156124" y2="90.118263"/>
    <radialGradient inkscape:collect="always" xlink:href="#linearGradient2202" id="radialGradient1454" gradientUnits="userSpaceOnUse" gradientTransform="matrix(1.07693, 0.221245, -0.201235, 0.979543, 3.33576, -3.52158)" cx="18.089182" cy="23.491594" fx="18.089182" fy="23.491594" r="66.677559"/>
    <linearGradient inkscape:collect="always" xlink:href="#linearGradient4094" id="linearGradient1456" gradientUnits="userSpaceOnUse" x1="-17.630493" y1="-131.34375" x2="85.657509" y2="-33.09375"/>
    <radialGradient inkscape:collect="always" xlink:href="#linearGradient2186" id="radialGradient1458" gradientUnits="userSpaceOnUse" gradientTransform="matrix(1.21239, -0.0176991, 0.014597, 0.999893, -16.9284, 1.31858)" cx="74" cy="83" fx="74" fy="83" r="56.5"/>
    <linearGradient inkscape:collect="always" xlink:href="#linearGradient4094" id="linearGradient1460" gradientUnits="userSpaceOnUse" x1="77.535149" y1="-152.43996" x2="216.79633" y2="-42.687641"/>
    <radialGradient inkscape:collect="always" xlink:href="#linearGradient2234" id="radialGradient1462" gradientUnits="userSpaceOnUse" gradientTransform="matrix(0.887573, -0.0199172, 0.0174163, 0.776521, 20.0647, 14.9589)" cx="187" cy="55.073387" fx="187" fy="55.073387" r="58.597622"/>
    <linearGradient inkscape:collect="always" xlink:href="#linearGradient4094" id="linearGradient1464" gradientUnits="userSpaceOnUse" x1="132.82616" y1="0.076098442" x2="222.99771" y2="79.272057"/>
    <radialGradient inkscape:collect="always" xlink:href="#linearGradient2194" id="radialGradient1466" gradientUnits="userSpaceOnUse" gradientTransform="matrix(0.934868, -0.959508, 0.996366, 0.970776, 262.08, 137.796)" cx="151.3208" cy="-253.14415" fx="151.3208" fy="-253.14415" r="40.48177"/>
    <linearGradient inkscape:collect="always" xlink:href="#linearGradient4094" id="linearGradient1468" gradientUnits="userSpaceOnUse" x1="212.30031" y1="-147.17514" x2="327.52454" y2="-47.301514"/>
    <radialGradient inkscape:collect="always" xlink:href="#linearGradient2226" id="radialGradient1470" gradientUnits="userSpaceOnUse" gradientTransform="matrix(1.05771, -0.0167891, 0.0159127, 1.0025, -18.0375, 4.84336)" cx="296" cy="59.976471" fx="296" fy="59.976471" r="59.5625"/>
    <linearGradient inkscape:collect="always" xlink:href="#linearGradient4094" id="linearGradient1472" gradientUnits="userSpaceOnUse" x1="209.26109" y1="-25.296465" x2="348.68509" y2="79.284271"/>
  </defs>
  <sodipodi:namedview id="base" pagecolor="#ffffff" bordercolor="#666666" borderopacity="1.0" inkscape:pageopacity="0.0" inkscape:pageshadow="2" inkscape:zoom="1" inkscape:cx="203.55583" inkscape:cy="206.13677" inkscape:document-units="px" inkscape:current-layer="layer1" inkscape:window-width="1152" inkscape:window-height="791" inkscape:window-x="0" inkscape:window-y="24" showgrid="false"/>
  <metadata id="metadata7">
    <rdf:RDF>
      <cc:Work rdf:about="">
        <dc:format>image/svg+xml</dc:format>
        <dc:type rdf:resource="http://purl.org/dc/dcmitype/StillImage"/>
      </cc:Work>
    </rdf:RDF>
  </metadata>
  <g inkscape:label="Layer 1" inkscape:groupmode="layer" id="layer1">
    <g id="g1400" transform="translate(273.707, 140.016)">
      <path transform="matrix(0.844204, -0.229139, 0.229139, 0.844204, 23.9578, -76.4635)" d="M 86.879336,82.879335 L -45.332592,47.453257 L 51.453256,-49.332592 L 86.879336,82.879335 z " inkscape:randomized="0" inkscape:rounded="0" inkscape:flatsided="true" sodipodi:arg2="1.8325957" sodipodi:arg1="0.78539816" sodipodi:r2="39.512657" sodipodi:r1="79.025314" sodipodi:cy="27" sodipodi:cx="31" sodipodi:sides="3" id="path3149" style="opacity: 1; fill: rgb(0, 0, 0); fill-opacity: 0.368; stroke: none; stroke-width: 1.14319; stroke-miterlimit: 4; stroke-dasharray: none; stroke-dashoffset: 0pt; stroke-opacity: 1;" sodipodi:type="star"/>
      <path sodipodi:type="star" style="opacity: 1; fill: rgb(0, 0, 0); fill-opacity: 0.368; stroke: none; stroke-width: 1.14319; stroke-miterlimit: 4; stroke-dasharray: none; stroke-dashoffset: 0pt; stroke-opacity: 1;" id="path2258" sodipodi:sides="3" sodipodi:cx="31" sodipodi:cy="27" sodipodi:r1="79.025314" sodipodi:r2="39.512657" sodipodi:arg1="0.78539816" sodipodi:arg2="1.8325957" inkscape:flatsided="true" inkscape:rounded="0" inkscape:randomized="0" d="M 86.879336,82.879335 L -45.332592,47.453257 L 51.453256,-49.332592 L 86.879336,82.879335 z " transform="matrix(0.844204, -0.229139, 0.229139, 0.844204, 22.2167, -78.2046)"/>
      <path transform="matrix(0.844204, -0.229139, 0.229139, 0.844204, 21.3462, -81.6868)" d="M 86.879336,82.879335 L -45.332592,47.453257 L 51.453256,-49.332592 L 86.879336,82.879335 z " inkscape:randomized="0" inkscape:rounded="0" inkscape:flatsided="true" sodipodi:arg2="1.8325957" sodipodi:arg1="0.78539816" sodipodi:r2="39.512657" sodipodi:r1="79.025314" sodipodi:cy="27" sodipodi:cx="31" sodipodi:sides="3" id="path2186" style="opacity: 1; fill: url(&quot;#radialGradient1454&quot;) rgb(0, 0, 0); fill-opacity: 1; stroke: rgb(25, 120, 4); stroke-width: 1.14319; stroke-miterlimit: 4; stroke-dasharray: none; stroke-dashoffset: 0pt; stroke-opacity: 1;" sodipodi:type="star"/>
      <path id="path3167" d="M -2.78125,-33.09375 C 34.947917,-33.229167 72.677083,-33.364583 110.40625,-33.5 C 91.4375,-66.114583 72.46875,-98.729167 53.5,-131.34375 C 34.739583,-98.59375 15.979167,-65.84375 -2.78125,-33.09375 z " style="opacity: 1; fill: url(&quot;#linearGradient1456&quot;) rgb(0, 0, 0); fill-opacity: 1; stroke: none; stroke-width: 1.14319; stroke-miterlimit: 4; stroke-dasharray: none; stroke-dashoffset: 0pt; stroke-opacity: 1;"/>
    </g>
    <g id="g1394" transform="translate(294.369, 138.752)">
      <path transform="matrix(0.834812, 0.120503, -0.120503, 0.834812, -113.188, -109.708)" d="M 91.521426,100.52143 L 45.894232,84.366358 L 5.2791694,114.18086 L 6.5439732,65.794626 L -34.362045,36.380594 L 12.046841,22.631326 L 27.380593,-25.362045 L 54.798058,14.526671 L 105.18086,14.279169 L 75.716896,52.681019 L 91.521426,100.52143 z " inkscape:randomized="0" inkscape:rounded="0" inkscape:flatsided="false" sodipodi:arg2="1.3834425" sodipodi:arg1="0.78539816" sodipodi:r2="37.014084" sodipodi:r1="74.276512" sodipodi:cy="48" sodipodi:cx="39" sodipodi:sides="5" id="path3151" style="opacity: 1; fill: rgb(0, 0, 0); fill-opacity: 0.368; stroke: none; stroke-width: 1.18559; stroke-miterlimit: 4; stroke-dasharray: none; stroke-dashoffset: 0pt; stroke-opacity: 1;" sodipodi:type="star"/>
      <path sodipodi:type="star" style="opacity: 1; fill: rgb(0, 0, 0); fill-opacity: 0.368; stroke: none; stroke-width: 1.18559; stroke-miterlimit: 4; stroke-dasharray: none; stroke-dashoffset: 0pt; stroke-opacity: 1;" id="path2260" sodipodi:sides="5" sodipodi:cx="39" sodipodi:cy="48" sodipodi:r1="74.276512" sodipodi:r2="37.014084" sodipodi:arg1="0.78539816" sodipodi:arg2="1.3834425" inkscape:flatsided="false" inkscape:rounded="0" inkscape:randomized="0" d="M 91.521426,100.52143 L 45.894232,84.366358 L 5.2791694,114.18086 L 6.5439732,65.794626 L -34.362045,36.380594 L 12.046841,22.631326 L 27.380593,-25.362045 L 54.798058,14.526671 L 105.18086,14.279169 L 75.716896,52.681019 L 91.521426,100.52143 z " transform="matrix(0.834812, 0.120503, -0.120503, 0.834812, -114.929, -111.449)"/>
      <path transform="matrix(0.834812, 0.120503, -0.120503, 0.834812, -115.799, -114.931)" d="M 91.521426,100.52143 L 45.894232,84.366358 L 5.2791694,114.18086 L 6.5439732,65.794626 L -34.362045,36.380594 L 12.046841,22.631326 L 27.380593,-25.362045 L 54.798058,14.526671 L 105.18086,14.279169 L 75.716896,52.681019 L 91.521426,100.52143 z " inkscape:randomized="0" inkscape:rounded="0" inkscape:flatsided="false" sodipodi:arg2="1.3834425" sodipodi:arg1="0.78539816" sodipodi:r2="37.014084" sodipodi:r1="74.276512" sodipodi:cy="48" sodipodi:cx="39" sodipodi:sides="5" id="path2190" style="opacity: 1; fill: url(&quot;#radialGradient1446&quot;) rgb(0, 0, 0); fill-opacity: 1; stroke: rgb(140, 138, 5); stroke-width: 1.18559; stroke-miterlimit: 4; stroke-dasharray: none; stroke-dashoffset: 0pt; stroke-opacity: 1;" sodipodi:type="star"/>
      <path id="path3169" d="M -106.84375,-93.78125 C -118.83963,-90.189437 -132.30112,-89.7068 -144.875,-87.4375 C -135.54191,-78.016353 -124.9856,-69.060585 -116.375,-59.375 C -118.46614,-47.039444 -120.56721,-34.705583 -122.6875,-22.375 C -110.84712,-28.335181 -99.001036,-35.664901 -87.15625,-40.78125 C -76.097224,-34.972542 -65.035565,-29.168857 -53.96875,-23.375 C -55.970143,-36.479989 -59.354831,-49.977502 -60.53125,-62.84375 C -51.538099,-71.537133 -42.596755,-80.283805 -33.65625,-89.03125 C -46.750427,-91.174663 -60.624962,-92.15977 -73.25,-95 C -78.776154,-106.23157 -84.362802,-117.43322 -89.90625,-128.65625 C -95.552083,-117.03125 -101.19792,-105.40625 -106.84375,-93.78125 z " style="opacity: 1; fill: url(&quot;#linearGradient1448&quot;) rgb(0, 0, 0); fill-opacity: 1; stroke: none; stroke-width: 1.18559; stroke-miterlimit: 4; stroke-dasharray: none; stroke-dashoffset: 0pt; stroke-opacity: 1;"/>
    </g>
    <g id="g1406" transform="translate(-101.5, 392.777)">
      <path transform="translate(90.6116, -152.777)" d="M 142 82 A 56 56 0 1 1  30,82 A 56 56 0 1 1  142 82 z" sodipodi:ry="56" sodipodi:rx="56" sodipodi:cy="82" sodipodi:cx="86" id="path3153" style="opacity: 1; fill: rgb(0, 0, 0); fill-opacity: 0.368; stroke: none; stroke-width: 1; stroke-miterlimit: 4; stroke-dasharray: none; stroke-dashoffset: 0pt; stroke-opacity: 1;" sodipodi:type="arc"/>
      <path sodipodi:type="arc" style="opacity: 1; fill: rgb(0, 0, 0); fill-opacity: 0.368; stroke: none; stroke-width: 1; stroke-miterlimit: 4; stroke-dasharray: none; stroke-dashoffset: 0pt; stroke-opacity: 1;" id="path2262" sodipodi:cx="86" sodipodi:cy="82" sodipodi:rx="56" sodipodi:ry="56" d="M 142 82 A 56 56 0 1 1  30,82 A 56 56 0 1 1  142 82 z" transform="translate(88.8706, -154.518)"/>
      <path transform="translate(88, -158)" d="M 142 82 A 56 56 0 1 1  30,82 A 56 56 0 1 1  142 82 z" sodipodi:ry="56" sodipodi:rx="56" sodipodi:cy="82" sodipodi:cx="86" id="path2192" style="opacity: 1; fill: url(&quot;#radialGradient1458&quot;) rgb(0, 0, 0); fill-opacity: 1; stroke: rgb(91, 9, 41); stroke-width: 1; stroke-miterlimit: 4; stroke-dasharray: none; stroke-dashoffset: 0pt; stroke-opacity: 1;" sodipodi:type="arc"/>
      <path id="path3171" d="M 172.625,-129.96875 C 142.61833,-130.12842 116.79726,-101.23452 120.10604,-71.409051 C 122.12063,-43.762108 147.66446,-20.563058 175.5625,-21.90625 C 202.84378,-22.424979 227.39051,-45.956261 228.03125,-73.53125 C 229.54215,-99.827294 209.13574,-125.80029 182.75,-129.28125 C 179.40516,-129.82933 176.01419,-130.07392 172.625,-129.96875 z " style="opacity: 1; fill: url(&quot;#linearGradient1460&quot;) rgb(0, 0, 0); fill-opacity: 1; stroke: none; stroke-width: 1; stroke-miterlimit: 4; stroke-dasharray: none; stroke-dashoffset: 0pt; stroke-opacity: 1;"/>
    </g>
    <g id="g1412" transform="translate(31.0425, 255.043)">
      <rect transform="matrix(0.707107, 0.707107, -0.707107, 0.707107, 0, 0)" y="-304.71463" x="123.24339" height="79.963585" width="79.963585" id="rect3155" style="opacity: 1; fill: rgb(0, 0, 0); fill-opacity: 0.368; stroke: none; stroke-width: 1; stroke-miterlimit: 4; stroke-dasharray: none; stroke-dashoffset: 0pt; stroke-opacity: 1;"/>
      <rect style="opacity: 1; fill: rgb(0, 0, 0); fill-opacity: 0.368; stroke: none; stroke-width: 1; stroke-miterlimit: 4; stroke-dasharray: none; stroke-dashoffset: 0pt; stroke-opacity: 1;" id="rect2264" width="79.963562" height="79.963562" x="120.78107" y="-304.71454" transform="matrix(0.707107, 0.707107, -0.707107, 0.707107, 0, 0)"/>
      <rect transform="matrix(0.707107, 0.707107, -0.707107, 0.707107, 0, 0)" y="-306.56116" x="117.70317" height="79.963539" width="79.963539" id="rect2194" style="opacity: 1; fill: url(&quot;#radialGradient1466&quot;) rgb(0, 0, 0); fill-opacity: 1; stroke: rgb(106, 10, 107); stroke-width: 1; stroke-miterlimit: 4; stroke-dasharray: none; stroke-dashoffset: 0pt; stroke-opacity: 1;"/>
      <path id="rect3173" d="M 246.3125,-77 C 264.20833,-59.104167 282.10417,-41.208333 300,-23.3125 C 317.89583,-41.208333 335.79167,-59.104167 353.6875,-77 C 335.79167,-94.895833 317.89583,-112.79167 300,-130.6875 C 282.10417,-112.79167 264.20833,-94.895833 246.3125,-77 z " style="opacity: 1; fill: url(&quot;#linearGradient1468&quot;) rgb(0, 0, 0); fill-opacity: 1; stroke: none; stroke-width: 1; stroke-miterlimit: 4; stroke-dasharray: none; stroke-dashoffset: 0pt; stroke-opacity: 1;"/>
    </g>
    <g id="g1388" transform="translate(283.539, 145.654)">
      <path id="path3157" d="M -233.58892,-122.2893 C -243.66679,-121.47252 -250.58688,-112.83891 -255.88417,-105.09167 C -260.94361,-97.228867 -262.16205,-86.748557 -257.57168,-78.375462 C -250.90415,-65.079625 -238.82041,-55.837048 -228.34561,-45.678975 C -220.61412,-38.246839 -212.61789,-30.340544 -208.60699,-20.20249 C -207.19819,-15.009454 -206.3948,-24.444491 -204.43066,-25.608808 C -193.2701,-44.110835 -173.41522,-55.038655 -161.27824,-72.757118 C -155.89275,-80.020762 -153.41223,-89.719186 -156.5079,-98.441079 C -160.16589,-107.43789 -166.62493,-115.6352 -175.15635,-120.45932 C -181.8836,-124.1573 -190.32067,-121.76674 -195.36668,-116.35926 C -201.06824,-111.02939 -204.79589,-104.00101 -207.8139,-96.896927 C -212.06322,-106.77502 -217.91997,-117.46618 -228.48978,-121.56555 C -230.1313,-122.09351 -231.86299,-122.36774 -233.58892,-122.2893 z " style="fill: rgb(0, 0, 0); fill-opacity: 0.368; stroke: none; stroke-width: 1; stroke-miterlimit: 4; stroke-dasharray: none; stroke-dashoffset: 0pt; stroke-opacity: 1;"/>
      <path style="fill: rgb(0, 0, 0); fill-opacity: 0.368; stroke: none; stroke-width: 1; stroke-miterlimit: 4; stroke-dasharray: none; stroke-dashoffset: 0pt; stroke-opacity: 1;" d="M -235.33002,-124.0304 C -245.40789,-123.21362 -252.32798,-114.58001 -257.62527,-106.83277 C -262.68471,-98.969968 -263.90315,-88.489658 -259.31278,-80.116563 C -252.64525,-66.820726 -240.56151,-57.578149 -230.08671,-47.420076 C -222.35522,-39.98794 -214.35899,-32.081645 -210.34809,-21.943591 C -208.93929,-16.750555 -208.1359,-26.185592 -206.17176,-27.349909 C -195.0112,-45.851936 -175.15632,-56.779756 -163.01934,-74.498219 C -157.63385,-81.761863 -155.15333,-91.460287 -158.249,-100.18218 C -161.90699,-109.17899 -168.36603,-117.3763 -176.89745,-122.20042 C -183.6247,-125.8984 -192.06177,-123.50784 -197.10778,-118.10036 C -202.80934,-112.77049 -206.53699,-105.74211 -209.555,-98.638028 C -213.80432,-108.51612 -219.66107,-119.20728 -230.23088,-123.30665 C -231.8724,-123.83461 -233.60409,-124.10884 -235.33002,-124.0304 z " id="path2266"/>
      <path id="path2196" d="M -236.20057,-127.5126 C -246.27844,-126.69582 -253.19853,-118.06221 -258.49582,-110.31497 C -263.55526,-102.45217 -264.7737,-91.97186 -260.18333,-83.598765 C -253.5158,-70.302928 -241.43206,-61.060351 -230.95726,-50.902278 C -223.22577,-43.470142 -215.22954,-35.563847 -211.21864,-25.425793 C -209.80984,-20.232757 -209.00645,-29.667794 -207.04231,-30.832111 C -195.88175,-49.334138 -176.02687,-60.261958 -163.88989,-77.980421 C -158.5044,-85.244065 -156.02388,-94.942489 -159.11955,-103.66438 C -162.77754,-112.66119 -169.23658,-120.8585 -177.768,-125.68262 C -184.49525,-129.3806 -192.93232,-126.99004 -197.97833,-121.58256 C -203.67989,-116.25269 -207.40754,-109.22431 -210.42555,-102.12023 C -214.67487,-111.99832 -220.53162,-122.68948 -231.10143,-126.78885 C -232.74295,-127.31681 -234.47464,-127.59104 -236.20057,-127.5126 z " style="fill: url(&quot;#radialGradient2224&quot;) rgb(0, 0, 0); fill-opacity: 1; stroke: rgb(128, 18, 4); stroke-width: 1; stroke-miterlimit: 4; stroke-dasharray: none; stroke-dashoffset: 0pt; stroke-opacity: 1;"/>
      <path id="path3175" d="M -237.03125,-125.34375 C -249.16053,-122.73118 -257.47885,-110.86991 -260.75,-99.5625 C -263.00017,-83.559608 -249.69968,-71.321811 -239.22371,-61.324663 C -228.65185,-51.47759 -217.03048,-41.81232 -210.375,-28.65625 C -199.54363,-51.140314 -174.09617,-62.109549 -162.71875,-84.0625 C -154.62544,-98.502613 -164.97331,-115.6584 -177.8125,-123.28125 C -186.93938,-129.61018 -198.32163,-120.98069 -202.75,-112.65625 C -205.90704,-107.83239 -208.08865,-102.46732 -210.4375,-97.21875 C -215.42433,-108.26854 -220.93058,-122.69032 -234.28125,-125.3125 C -235.20377,-125.34315 -236.1127,-125.71092 -237.03125,-125.34375 z " style="fill: url(&quot;#linearGradient4102&quot;) rgb(0, 0, 0); fill-opacity: 1; stroke: none; stroke-width: 1; stroke-miterlimit: 4; stroke-dasharray: none; stroke-dashoffset: 0pt; stroke-opacity: 1;"/>
    </g>
    <g id="g1418" transform="translate(272, 139.277)">
      <path id="path3159" d="M -217.88835,0.72330343 L -217.88835,35.723303 L -252.88835,35.723303 L -252.88835,78.723303 L -217.88835,78.723303 L -217.88835,113.7233 L -174.88835,113.7233 L -174.88835,78.723303 L -139.88835,78.723303 L -139.88835,35.723303 L -174.88835,35.723303 L -174.88835,0.72330343 L -217.88835,0.72330343 z " style="opacity: 1; fill: rgb(0, 0, 0); fill-opacity: 0.368; stroke: none; stroke-width: 1; stroke-miterlimit: 4; stroke-dasharray: none; stroke-dashoffset: 0pt; stroke-opacity: 1;"/>
      <path style="opacity: 1; fill: rgb(0, 0, 0); fill-opacity: 0.368; stroke: none; stroke-width: 1; stroke-miterlimit: 4; stroke-dasharray: none; stroke-dashoffset: 0pt; stroke-opacity: 1;" d="M -219.62945,-1.0177977 L -219.62945,33.982202 L -254.62945,33.982202 L -254.62945,76.982202 L -219.62945,76.982202 L -219.62945,111.9822 L -176.62945,111.9822 L -176.62945,76.982202 L -141.62945,76.982202 L -141.62945,33.982202 L -176.62945,33.982202 L -176.62945,-1.0177977 L -219.62945,-1.0177977 z " id="path2268"/>
      <path id="rect2209" d="M -220.5,-4.5 L -220.5,30.5 L -255.5,30.5 L -255.5,73.5 L -220.5,73.5 L -220.5,108.5 L -177.5,108.5 L -177.5,73.5 L -142.5,73.5 L -142.5,30.5 L -177.5,30.5 L -177.5,-4.5 L -220.5,-4.5 z " style="opacity: 1; fill: url(&quot;#radialGradient1442&quot;) rgb(0, 0, 0); fill-opacity: 1; stroke: rgb(66, 58, 25); stroke-width: 1; stroke-miterlimit: 4; stroke-dasharray: none; stroke-dashoffset: 0pt; stroke-opacity: 1;"/>
      <path id="path3177" d="M -218.5,30.5 C -222.06645,34.325683 -229.18151,31.972975 -234.09375,32.375 C -240.07033,33.366689 -246.36866,31.56347 -252.25,32.6875 C -255.72875,34.719315 -252.28939,40.530605 -253.5,43.75 C -253.5,53 -253.5,62.25 -253.5,71.5 C -241.83333,71.5 -230.16667,71.5 -218.5,71.5 C -218.5,83.166667 -218.5,94.833333 -218.5,106.5 C -205.5,106.5 -192.5,106.5 -179.5,106.5 C -179.5,94.833333 -179.5,83.166667 -179.5,71.5 C -167.83333,71.5 -156.16667,71.5 -144.5,71.5 C -144.5,58.5 -144.5,45.5 -144.5,32.5 C -156.16667,32.5 -167.83333,32.5 -179.5,32.5 C -179.5,20.833333 -179.5,9.1666667 -179.5,-2.5 C -192.5,-2.5 -205.5,-2.5 -218.5,-2.5 C -218.5,8.5 -218.5,19.5 -218.5,30.5 z " style="opacity: 1; fill: url(&quot;#linearGradient1444&quot;) rgb(0, 0, 0); fill-opacity: 1; stroke: none; stroke-width: 1; stroke-miterlimit: 4; stroke-dasharray: none; stroke-dashoffset: 0pt; stroke-opacity: 1;"/>
    </g>
    <g id="g1436" transform="translate(14.3259, 260.558)">
      <path id="path3161" d="M 302.0804,-2.9954466 L 302.0804,29.317053 L 274.0804,13.160803 L 258.54915,40.067053 L 286.54915,56.223303 L 258.54915,72.379553 L 274.0804,99.285803 L 302.0804,83.129553 L 302.0804,115.44205 L 333.1429,115.44205 L 333.1429,83.129553 L 361.1429,99.285803 L 376.67415,72.379553 L 348.67415,56.223303 L 376.67415,40.067053 L 361.1429,13.160803 L 333.1429,29.317053 L 333.1429,-2.9954466 L 302.0804,-2.9954466 z " style="opacity: 1; fill: rgb(0, 0, 0); fill-opacity: 0.368; stroke: none; stroke-width: 1; stroke-miterlimit: 4; stroke-dasharray: none; stroke-dashoffset: 0pt; stroke-opacity: 1;"/>
      <path style="opacity: 1; fill: rgb(0, 0, 0); fill-opacity: 0.368; stroke: none; stroke-width: 1; stroke-miterlimit: 4; stroke-dasharray: none; stroke-dashoffset: 0pt; stroke-opacity: 1;" d="M 300.3393,-4.7365477 L 300.3393,27.575952 L 272.3393,11.419702 L 256.80805,38.325952 L 284.80805,54.482202 L 256.80805,70.638452 L 272.3393,97.544702 L 300.3393,81.388452 L 300.3393,113.70095 L 331.4018,113.70095 L 331.4018,81.388452 L 359.4018,97.544702 L 374.93305,70.638452 L 346.93305,54.482202 L 374.93305,38.325952 L 359.4018,11.419702 L 331.4018,27.575952 L 331.4018,-4.7365477 L 300.3393,-4.7365477 z " id="path2270"/>
      <path id="rect2219" d="M 299.46875,-8.21875 L 299.46875,24.09375 L 271.46875,7.9375 L 255.9375,34.84375 L 283.9375,51 L 255.9375,67.15625 L 271.46875,94.0625 L 299.46875,77.90625 L 299.46875,110.21875 L 330.53125,110.21875 L 330.53125,77.90625 L 358.53125,94.0625 L 374.0625,67.15625 L 346.0625,51 L 374.0625,34.84375 L 358.53125,7.9375 L 330.53125,24.09375 L 330.53125,-8.21875 L 299.46875,-8.21875 z " style="opacity: 1; fill: url(&quot;#radialGradient1470&quot;) rgb(0, 0, 0); fill-opacity: 1; stroke: rgb(9, 9, 82); stroke-width: 1; stroke-miterlimit: 4; stroke-dasharray: none; stroke-dashoffset: 0pt; stroke-opacity: 1;"/>
      <path id="path3179" d="M 301.46875,24.09375 C 299.67684,27.866494 294.7234,23.915795 292.5,22.5 C 287.04504,18.697069 280.70552,16.387784 275.4375,12.1875 C 271.33277,8.9849886 269.77156,15.098954 268.12108,17.778665 C 264.97656,23.217026 261.83203,28.655388 258.6875,34.09375 C 268.44358,39.71863 278.1988,45.345077 287.9375,51 C 278.19875,56.654823 268.44362,62.281431 258.6875,67.90625 C 263.19792,75.708333 267.70833,83.510417 272.21875,91.3125 C 281.97061,85.70121 291.69991,80.050276 301.46875,74.46875 C 301.46875,85.71875 301.46875,96.96875 301.46875,108.21875 C 310.48958,108.21875 319.51042,108.21875 328.53125,108.21875 C 328.53125,96.96875 328.53125,85.71875 328.53125,74.46875 C 338.29973,80.050898 348.02963,85.700786 357.78125,91.3125 C 362.29167,83.510417 366.80208,75.708333 371.3125,67.90625 C 361.55642,62.28137 351.8012,56.654923 342.0625,51 C 351.80125,45.345177 361.55638,39.718569 371.3125,34.09375 C 366.80208,26.291667 362.29167,18.489583 357.78125,10.6875 C 348.02939,16.29879 338.30009,21.949724 328.53125,27.53125 C 328.53125,16.28125 328.53125,5.03125 328.53125,-6.21875 C 319.51042,-6.21875 310.48958,-6.21875 301.46875,-6.21875 C 301.46875,3.8854167 301.46875,13.989583 301.46875,24.09375 z " style="opacity: 1; fill: url(&quot;#linearGradient1472&quot;) rgb(0, 0, 0); fill-opacity: 1; stroke: none; stroke-width: 1; stroke-miterlimit: 4; stroke-dasharray: none; stroke-dashoffset: 0pt; stroke-opacity: 1;"/>
    </g>
    <g id="g1424" transform="translate(276.5, 137.503)">
      <path id="path3163" d="M -72.482098,3.2233034 C -102.89434,3.8017983 -127.38835,28.673553 -127.38835,59.223303 C -127.38835,90.135303 -102.30035,115.2233 -71.388348,115.2233 C -40.476348,115.2233 -15.388348,90.135303 -15.388348,59.223303 C -15.388348,28.311303 -40.476348,3.2233034 -71.388348,3.2233034 C -71.750598,3.2233034 -72.121479,3.2164438 -72.482098,3.2233034 z M -72.357098,33.910803 C -72.032533,33.898453 -71.715918,33.910803 -71.388348,33.910803 C -57.412042,33.910804 -46.075848,45.246999 -46.075848,59.223303 C -46.075851,73.199604 -57.412044,84.535803 -71.388348,84.535803 C -85.36465,84.535802 -96.700848,73.199607 -96.700848,59.223303 C -96.700849,45.574565 -85.880621,34.425376 -72.357098,33.910803 z " style="opacity: 1; fill: rgb(0, 0, 0); fill-opacity: 0.368; stroke: none; stroke-width: 1; stroke-miterlimit: 4; stroke-dasharray: none; stroke-dashoffset: 0pt; stroke-opacity: 1;"/>
      <path style="opacity: 1; fill: rgb(0, 0, 0); fill-opacity: 0.368; stroke: none; stroke-width: 1; stroke-miterlimit: 4; stroke-dasharray: none; stroke-dashoffset: 0pt; stroke-opacity: 1;" d="M -74.223199,1.4822023 C -104.63544,2.0606972 -129.12945,26.932452 -129.12945,57.482202 C -129.12945,88.394202 -104.04145,113.4822 -73.129449,113.4822 C -42.217449,113.4822 -17.129449,88.394202 -17.129449,57.482202 C -17.129449,26.570202 -42.217449,1.4822023 -73.129449,1.4822023 C -73.491699,1.4822023 -73.86258,1.4753427 -74.223199,1.4822023 z M -74.098199,32.169702 C -73.773634,32.157352 -73.457019,32.169702 -73.129449,32.169702 C -59.153143,32.169703 -47.816949,43.505898 -47.816949,57.482202 C -47.816952,71.458503 -59.153145,82.794702 -73.129449,82.794702 C -87.105751,82.794701 -98.441949,71.458506 -98.441949,57.482202 C -98.44195,43.833464 -87.621722,32.684275 -74.098199,32.169702 z " id="path2272"/>
      <path id="path2226" d="M -75.09375,-2 C -105.50599,-1.4215051 -130,23.45025 -130,54 C -130,84.912 -104.912,110 -74,110 C -43.088,110 -18,84.912 -18,54 C -18,23.088 -43.088,-2 -74,-2 C -74.36225,-2 -74.733131,-2.0068596 -75.09375,-2 z M -74.96875,28.6875 C -74.644185,28.67515 -74.32757,28.6875 -74,28.6875 C -60.023694,28.687501 -48.6875,40.023696 -48.6875,54 C -48.687503,67.976301 -60.023696,79.3125 -74,79.3125 C -87.976302,79.312499 -99.3125,67.976304 -99.3125,54 C -99.312501,40.351262 -88.492273,29.202073 -74.96875,28.6875 z " style="opacity: 1; fill: url(&quot;#radialGradient1450&quot;) rgb(0, 0, 0); fill-opacity: 1; stroke: rgb(2, 69, 14); stroke-width: 1; stroke-miterlimit: 4; stroke-dasharray: none; stroke-dashoffset: 0pt; stroke-opacity: 1;"/>
      <path id="path3181" d="M -76.375,0.03125 C -106.01731,0.50200096 -131.1888,29.167535 -127.89396,58.622199 C -125.83906,85.847488 -101.09782,108.80483 -73.71875,108.09375 C -45.956679,108.31771 -20.608542,84.480334 -19.96875,56.46875 C -18.480064,30.002677 -39.018871,3.9672542 -65.75,0.625 C -69.258637,0.088331915 -72.82876,-0.071766823 -76.375,0.03125 z M -73.5,26.625 C -55.578517,26.356994 -41.470903,46.661224 -48.21875,63.375 C -53.696345,79.480826 -75.602348,86.845507 -89.46875,76.625 C -103.78135,67.344261 -105.48467,44.003937 -91.90625,33.375 C -86.855783,28.961357 -80.230994,26.539479 -73.5,26.625 z " style="opacity: 1; fill: url(&quot;#linearGradient1452&quot;) rgb(0, 0, 0); fill-opacity: 1; stroke: none; stroke-width: 1; stroke-miterlimit: 4; stroke-dasharray: none; stroke-dashoffset: 0pt; stroke-opacity: 1;"/>
    </g>
    <g id="g1430" transform="translate(11.7755, 259.298)">
      <path sodipodi:nodetypes="cccccccc" id="path3165" d="M 196.59202,81.062275 C 184.03023,104.24775 157.29406,83.736039 169.51918,74.059756 C 138.48774,91.215637 122.9694,48.014348 159.68848,52.945503 C 140.40359,28.094901 188.23701,12.756756 196.59065,37.808547 C 200.08361,14.430004 240.47422,23.519757 227.62594,40.01318 C 260.2682,27.975452 265.31434,69.690352 231.0722,65.702608 C 254.63685,75.283862 225.02798,97.946593 214.99234,79.123857 C 213.57955,85.383395 201.85016,89.01473 196.59202,81.062275 z " style="opacity: 1; fill: rgb(0, 0, 0); fill-opacity: 0.368; stroke: none; stroke-width: 1; stroke-linejoin: bevel; stroke-miterlimit: 4; stroke-dasharray: none; stroke-dashoffset: 0pt; stroke-opacity: 1;"/>
      <path style="opacity: 1; fill: rgb(0, 0, 0); fill-opacity: 0.368; stroke: none; stroke-width: 1; stroke-linejoin: bevel; stroke-miterlimit: 4; stroke-dasharray: none; stroke-dashoffset: 0pt; stroke-opacity: 1;" d="M 194.85092,79.321174 C 182.28913,102.50665 155.55296,81.994938 167.77808,72.318655 C 136.74664,89.474536 121.2283,46.273247 157.94738,51.204402 C 138.66249,26.3538 186.49591,11.015655 194.84955,36.067446 C 198.34251,12.688903 238.73312,21.778656 225.88484,38.272079 C 258.5271,26.234351 263.57324,67.949251 229.3311,63.961507 C 252.89575,73.542761 223.28688,96.205492 213.25124,77.382756 C 211.83845,83.642294 200.10906,87.273629 194.85092,79.321174 z " id="path2274" sodipodi:nodetypes="cccccccc"/>
      <path sodipodi:nodetypes="cccccccc" id="path1354" d="M 193.98037,75.838972 C 181.41858,99.02445 154.68241,78.512736 166.90753,68.836453 C 135.87609,85.992334 120.35775,42.791045 157.07683,47.7222 C 137.79194,22.871598 185.62536,7.533453 193.979,32.585244 C 197.47196,9.206701 237.86257,18.296454 225.01429,34.789877 C 257.65655,22.752149 262.70269,64.467049 228.46055,60.479305 C 252.0252,70.060559 222.41633,92.72329 212.38069,73.900554 C 210.9679,80.160092 199.23851,83.791427 193.98037,75.838972 z " style="opacity: 1; fill: url(&quot;#radialGradient1462&quot;) rgb(0, 0, 0); fill-opacity: 1; stroke: rgb(6, 105, 106); stroke-width: 1; stroke-linejoin: bevel; stroke-miterlimit: 4; stroke-dasharray: none; stroke-dashoffset: 0pt; stroke-opacity: 1;"/>
      <path id="path3183" d="M 210.5625,20.5 C 203.6103,20.414709 196.58537,25.810564 195.96875,32.875 C 192.12868,35.927686 190.56527,29.221918 188.65625,27.0625 C 178.78959,17.804607 158.76093,20.875932 154.6875,34.46875 C 153.29947,39.513347 157.93027,43.796297 158.40625,48 C 154.33057,51.494601 148.33407,47.789695 143.75,50.46875 C 137.10545,52.643095 135.80864,61.476554 140.84375,65.96875 C 147.31589,72.761625 158.48992,71.792013 165.90625,67.125 C 170.87993,68.172538 165.22487,72.669382 165.71875,75.375 C 168.73454,86.847528 186.78025,87.350347 191.0625,76.5 C 193.01729,73.165279 196.67582,74.92036 198.34375,77.34375 C 203.13269,80.118354 209.11158,77.257787 211.3125,72.6875 C 216.22212,72.74569 217.45564,79.961718 222.875,79.15625 C 229.11812,79.996648 238.11955,73.564781 234.21875,66.84375 C 232.97815,63.578617 226.15009,63.591208 227.65625,59.875 C 231.18706,56.811134 236.57495,60.067453 240.65625,57.78125 C 248.9623,55.700246 253.52384,43.782177 246.1875,38.03125 C 240.3073,32.551861 231.36966,35.161765 224.73882,36.340022 C 221.61383,32.964428 228.48338,28.295734 224.0625,24.9375 C 220.76656,21.18137 215.32172,20.353884 210.5625,20.5 z " style="opacity: 1; fill: url(&quot;#linearGradient1464&quot;) rgb(0, 0, 0); fill-opacity: 1; stroke: none; stroke-width: 1; stroke-linejoin: bevel; stroke-miterlimit: 4; stroke-dasharray: none; stroke-dashoffset: 0pt; stroke-opacity: 1;"/>
    </g>
  </g>
</svg>