<?xml version="1.0" encoding="UTF-8" standalone="no"?>
<!-- Created with Inkscape (http://www.inkscape.org/) -->
<svg xmlns:dc="http://purl.org/dc/elements/1.1/" xmlns:cc="http://creativecommons.org/ns#" xmlns:rdf="http://www.w3.org/1999/02/22-rdf-syntax-ns#" xmlns:svg="http://www.w3.org/2000/svg" xmlns="http://www.w3.org/2000/svg" xmlns:xlink="http://www.w3.org/1999/xlink" xmlns:sodipodi="http://sodipodi.sourceforge.net/DTD/sodipodi-0.dtd" xmlns:inkscape="http://www.inkscape.org/namespaces/inkscape" width="300" height="100.00005" id="svg2" sodipodi:version="0.32" inkscape:version="0.46" sodipodi:docname="apples.svg" inkscape:output_extension="org.inkscape.output.svg.inkscape" version="1.0">
  <defs id="defs4">
    <inkscape:perspective sodipodi:type="inkscape:persp3d" inkscape:vp_x="0 : 526.18109 : 1" inkscape:vp_y="0 : 1000 : 0" inkscape:vp_z="744.09448 : 526.18109 : 1" inkscape:persp3d-origin="372.04724 : 350.78739 : 1" id="perspective10"/>
    <linearGradient y2="364.03149" x2="404.90948" y1="282.03149" x1="404.90948" spreadMethod="reflect" gradientTransform="matrix(1, 0, 0, 1.23575, -103, 233.956)" gradientUnits="userSpaceOnUse" id="linearGradient9891" xlink:href="#linearGradient9878" inkscape:collect="always"/>
    <linearGradient y2="457.35233" x2="322.58047" y1="230.20946" x1="284.28571" gradientTransform="matrix(0.652635, 0, 0, 0.652635, -107.887, 108.95)" gradientUnits="userSpaceOnUse" id="linearGradient9888" xlink:href="#linearGradient4514" inkscape:collect="always"/>
    <linearGradient gradientTransform="matrix(1, 0, 0, 0.863835, -309, 123.914)" spreadMethod="reflect" gradientUnits="userSpaceOnUse" y2="364.03149" x2="404.90948" y1="282.03149" x1="404.90948" id="linearGradient9884" xlink:href="#linearGradient9878" inkscape:collect="always"/>
    <inkscape:perspective id="perspective3993" inkscape:persp3d-origin="372.04724 : 350.78739 : 1" inkscape:vp_z="744.09448 : 526.18109 : 1" inkscape:vp_y="0 : 1000 : 0" inkscape:vp_x="0 : 526.18109 : 1" sodipodi:type="inkscape:persp3d"/>
    <linearGradient id="linearGradient4514" inkscape:collect="always">
      <stop id="stop4516" offset="0" style="stop-color: rgb(238, 238, 236); stop-opacity: 1;"/>
      <stop id="stop4518" offset="1" style="stop-color: rgb(238, 238, 236); stop-opacity: 0;"/>
    </linearGradient>
    <inkscape:path-effect bendpath-nodetypes="csc" prop_scale="1" bendpath="M -64.005,450.501 C -64.005,450.501 26.388,437.915 84.478,439.939 C 158.121,442.507 251.129,457.546 251.129,457.546 " id="path-effect9874" effect="bend_path"/>
    <linearGradient id="linearGradient9878" inkscape:collect="always">
      <stop id="stop9880" offset="0" style="stop-color: rgb(252, 233, 79); stop-opacity: 1;"/>
      <stop id="stop9882" offset="1" style="stop-color: rgb(252, 233, 79); stop-opacity: 0;"/>
    </linearGradient>
    <inkscape:perspective id="perspective3613" inkscape:persp3d-origin="32 : 21.333333 : 1" inkscape:vp_z="64 : 32 : 1" inkscape:vp_y="0 : 1000 : 0" inkscape:vp_x="0 : 32 : 1" sodipodi:type="inkscape:persp3d"/>
    <inkscape:perspective id="perspective38" inkscape:persp3d-origin="250 : 166.66667 : 1" inkscape:vp_z="500 : 250 : 1" inkscape:vp_y="0 : 1000 : 0" inkscape:vp_x="0 : 250 : 1" sodipodi:type="inkscape:persp3d"/>
  </defs>
  <sodipodi:namedview id="base" pagecolor="#ffffff" bordercolor="#666666" borderopacity="1.0" gridtolerance="10000" guidetolerance="10" objecttolerance="10" inkscape:pageopacity="0.0" inkscape:pageshadow="2" inkscape:zoom="1" inkscape:cx="207.26341" inkscape:cy="8.407781" inkscape:document-units="px" inkscape:current-layer="layer1" showgrid="false" inkscape:window-width="1320" inkscape:window-height="800" inkscape:window-x="591" inkscape:window-y="379"/>
  <metadata id="metadata7">
    <rdf:RDF>
      <cc:Work rdf:about="">
        <dc:format>image/svg+xml</dc:format>
        <dc:type rdf:resource="http://purl.org/dc/dcmitype/StillImage"/>
      </cc:Work>
    </rdf:RDF>
  </metadata>
  <g inkscape:label="Layer 1" inkscape:groupmode="layer" id="layer1" transform="translate(9.974e-07, -952.362)">
    <g id="g3470" transform="matrix(0.95092, -0.025141, 0.025141, 0.95092, 706.445, -74.9892)"/>
    <g id="g3375" transform="matrix(0.50584, -0.654055, 0.668583, 0.494849, -322.19, 1065.7)">
      <path d="M 346.92299,244.60007 C 342.94359,244.68005 338.29335,247.79901 338.99277,252.11485 C 339.76351,254.53253 342.69882,253.57537 344.56303,253.82744 C 346.8943,254.42826 347.58001,257.31479 346.46438,259.19916 C 346.11493,261.28737 348.53613,263.11867 350.48466,262.10219 C 354.45444,261.70509 359.38718,260.38875 360.67188,256.16704 C 362.35851,251.16516 357.85759,246.09812 352.94231,245.22707 C 350.9912,244.65513 348.95341,244.53498 346.92299,244.60007 z" style="fill: rgb(60, 96, 0); fill-opacity: 1; fill-rule: evenodd; stroke: none; stroke-width: 9.55846; stroke-linecap: round; stroke-linejoin: round; stroke-miterlimit: 4; stroke-dasharray: none; stroke-opacity: 1;" id="path3384"/>
      <path d="M 340.68531,250.97496 C 344.06113,249.87782 350.55959,252.0721 348.02772,259.33011 C 351.86739,258.66672 356.64347,258.4081 357.39562,254.51957 C 359.4578,245.6566 340.61318,243.37878 340.68531,250.97496 z" style="fill: rgb(141, 157, 2); fill-opacity: 1; fill-rule: evenodd; stroke: none; stroke-width: 9.55846; stroke-linecap: round; stroke-linejoin: round; stroke-miterlimit: 4; stroke-dasharray: none; stroke-opacity: 1;" id="path3271"/>
      <path d="M 309.6932,257.38671 C 299.09713,257.50091 287.79438,261.44836 281.66415,270.53158 C 273.85686,282.63325 272.94562,298.17424 276.41785,311.89565 C 278.92983,320.70215 284.07822,328.75569 284.72948,338.06768 C 285.61205,345.18765 286.35499,353.35137 291.9484,358.50418 C 298.14207,363.96231 307.20261,363.91464 314.83178,362.22754 C 318.69406,361.59219 322.39726,359.82008 326.31479,359.71307 C 331.06696,360.00771 335.41871,362.43726 340.2034,362.74754 C 346.8252,363.66968 354.49549,363.62085 359.89838,359.15869 C 366.05025,353.8888 367.44657,345.37455 368.52702,337.72654 C 369.41737,331.39017 370.83313,325.09366 373.71924,319.35391 C 378.10092,308.85281 381.5982,297.20744 379.03483,285.78116 C 377.3379,275.89767 372.41522,265.6727 363.0593,261.0631 C 353.97819,256.499 343.44914,257.72451 333.64813,258.34957 C 326.96462,258.72973 320.27012,258.15767 313.65212,257.45698 C 312.33383,257.40023 311.01286,257.35615 309.6932,257.38671 z" style="fill: rgb(246, 255, 0); fill-opacity: 1; fill-rule: evenodd; stroke: none; stroke-width: 8; stroke-linecap: butt; stroke-linejoin: miter; stroke-miterlimit: 4; stroke-dasharray: none; stroke-opacity: 1;" id="path3335"/>
      <path d="M 306.27951,356.95885 C 316.06593,357.23183 321.02009,353.48401 326.54763,353.61909 C 332.42642,353.76274 333.67995,356.92885 346.81573,356.95885 C 360.6848,356.99374 362.17461,344.97973 364.05875,331.24558 C 365.82817,318.3477 377.45401,305.45386 373.43654,286.17172 C 370.54592,272.29799 363.97129,265.50202 354.07595,263.48355 C 345.61533,261.75773 336.59956,263.48354 328.66519,263.48354 C 321.1716,263.48354 311.35966,261.20245 303.25442,263.18103 C 296.61651,264.80143 282.33485,267.8078 280.26373,293.12944 C 278.74382,311.71212 287.09162,320.13125 289.03649,330.64056 C 291.44364,343.64786 289.83547,356.50017 306.27951,356.95885 z" style="fill: rgb(255, 249, 77); fill-opacity: 1; fill-rule: evenodd; stroke: none; stroke-width: 8; stroke-linecap: butt; stroke-linejoin: miter; stroke-miterlimit: 4; stroke-dasharray: none; stroke-opacity: 1;" id="path2384"/>
      <path d="M 343.39913,240.33263 C 336.11348,240.20705 328.16388,244.24773 325.86149,251.53463 C 324.86132,255.75817 327.32957,260.26936 325.31871,264.34628 C 324.32431,266.20298 323.22147,269.41342 325.71176,270.62577 C 328.32177,271.8951 331.10055,269.73122 332.03723,267.33007 C 335.1396,262.39202 337.17553,255.90438 342.95928,253.42503 C 346.50991,251.63928 351.72241,250.93489 354.61049,254.30472 C 355.41286,255.84011 356.62295,258.61035 358.86856,257.66438 C 361.57182,255.91309 361.55708,252.07935 361.05843,249.26054 C 359.40753,243.556 353.15925,241.00284 347.70399,240.52916 C 346.2766,240.35981 344.83631,240.29106 343.39913,240.33263 z" style="fill: rgb(60, 96, 0); fill-opacity: 1; fill-rule: evenodd; stroke: none; stroke-width: 9.55846; stroke-linecap: round; stroke-linejoin: round; stroke-miterlimit: 4; stroke-dasharray: none; stroke-opacity: 1;" id="path3376"/>
      <path d="M 325.74731,267.43208 C 325.74731,267.43208 329.07531,261.84535 327.51962,255.02594 C 326.01116,248.41359 333.84286,243.14706 339.67256,242.36662 C 349.21857,241.08865 361.95298,244.6453 357.39562,255.02594 C 354.61057,247.43035 346.02076,247.55151 338.91301,251.98771 C 332.17332,256.19418 328.8213,271.31656 325.74731,267.43208 z" style="fill: rgb(141, 193, 0); fill-opacity: 1; fill-rule: evenodd; stroke: none; stroke-width: 9.55846; stroke-linecap: round; stroke-linejoin: round; stroke-miterlimit: 4; stroke-dasharray: none; stroke-opacity: 1;" id="path3269"/>
      <path d="M 315.76922,249.09713 C 313.78872,249.85499 310.64347,251.03971 311.08418,253.6911 C 311.9353,256.09643 314.98561,256.20121 316.68618,257.803 C 321.0151,260.81073 323.06631,265.83078 324.72395,270.60048 C 325.24457,272.38765 327.67688,274.18761 329.20389,272.39419 C 330.89229,270.19986 328.83152,267.5158 328.71907,265.14176 C 327.35544,258.66645 323.88166,251.78769 317.41123,249.21775 C 316.88081,249.0729 316.31591,249.01876 315.76922,249.09713 z" style="fill: rgb(101, 39, 4); fill-opacity: 1; fill-rule: evenodd; stroke: none; stroke-width: 8; stroke-linecap: butt; stroke-linejoin: round; stroke-miterlimit: 4; stroke-dasharray: none; stroke-opacity: 1;" id="path3392"/>
      <path d="M 313.54504,252.30286 C 312.58565,253.64335 315.19195,254.05928 315.90691,254.90236 C 320.09918,257.56861 323.30002,261.79617 324.41432,266.70345 C 325.11394,268.5482 325.40825,270.72036 326.65542,272.23614 C 328.28685,271.79348 326.67404,269.39155 326.85586,268.14247 C 326.09413,262.20485 324.47457,255.63794 319.27198,252.01413 C 318.18397,251.08635 316.80791,250.26873 315.51252,251.40389 C 314.85669,251.70356 314.20087,252.0032 313.54504,252.30286 z" style="fill: rgb(122, 75, 0); fill-opacity: 1; fill-rule: evenodd; stroke: none; stroke-width: 8; stroke-linecap: butt; stroke-linejoin: round; stroke-miterlimit: 4; stroke-dasharray: none; stroke-opacity: 1;" id="path3267"/>
      <path d="M 309.59702,268.97696 C 310.55529,274.51328 319.2231,278.27132 329.38172,277.4372 C 339.54034,276.60309 347.47181,271.48209 347.51416,265.86362 C 343.75525,270.02282 336.99226,273.11269 329.07998,273.76236 C 321.1677,274.41203 313.98404,272.46731 309.59702,268.97696 z" style="fill: rgb(255, 167, 0); fill-opacity: 0.333333; stroke: none; stroke-width: 8; stroke-linecap: round; stroke-linejoin: round; stroke-miterlimit: 4; stroke-dasharray: none; stroke-dashoffset: 0pt; stroke-opacity: 1;" id="path3285"/>
      <path id="path3343" d="M 280.09375,297.0625 C 279.94853,312.95545 287.22939,320.88843 289.03125,330.625 C 291.43839,343.63229 289.83721,356.51007 306.28125,356.96875 C 316.06766,357.24171 321.03496,353.48992 326.5625,353.625 C 332.44128,353.76866 333.67672,356.93875 346.8125,356.96875 C 359.88409,357.00162 361.94589,346.2883 363.71875,333.5625 C 356.63315,336.16348 348.9838,337.625 341,337.625 C 313.5913,337.62499 290.0649,320.86546 280.09375,297.0625 z" style="fill: rgb(255, 167, 0); fill-opacity: 0.335; fill-rule: evenodd; stroke: none; stroke-width: 8; stroke-linecap: butt; stroke-linejoin: miter; stroke-miterlimit: 4; stroke-dasharray: none; stroke-opacity: 1;"/>
    </g>
    <g transform="matrix(0.243051, -0.127784, 0.140326, 0.221329, 106.227, 987.725)" id="g2445" inkscape:label="Layer 1">
      <path inkscape:transform-center-y="103.36906" inkscape:transform-center-x="-79.376842" id="path3094" d="M 401.93816,213.92847 C 410.4875,200.41901 431.27195,151.52788 473.44938,141.4402 C 515.62681,131.35252 516.34816,222.68252 483.47564,236.22153 C 450.60311,249.76055 415.05775,226.81065 403.10428,220.66242 C 400.37502,218.3866 401.32785,216.9646 401.93816,213.92847 z" style="opacity: 1; fill: rgb(103, 205, 3); fill-opacity: 1; fill-rule: nonzero; stroke: none; stroke-width: 12; stroke-linecap: butt; stroke-linejoin: miter; marker: none; stroke-miterlimit: 4; stroke-dashoffset: 0pt; stroke-opacity: 1; visibility: visible; display: inline; overflow: visible;" sodipodi:nodetypes="czzcc"/>
      <path style="opacity: 1; fill: rgb(0, 91, 0); fill-opacity: 1; fill-rule: nonzero; stroke: none; stroke-width: 12; stroke-linecap: butt; stroke-linejoin: miter; marker: none; stroke-miterlimit: 4; stroke-dashoffset: 0pt; stroke-opacity: 1; visibility: visible; display: inline; overflow: visible;" d="M 408.64764,211.21611 C 416.02564,199.55758 435.25267,160.61596 471.65136,151.9104 C 508.05005,143.20484 504.6732,221.47984 476.30456,233.16387 C 447.93592,244.84791 419.96971,222.3333 409.65399,217.02744 C 407.18785,215.05301 408.26406,213.82954 408.64764,211.21611 z" id="path3096" inkscape:transform-center-x="-68.501383" inkscape:transform-center-y="89.206417" sodipodi:nodetypes="czzcc"/>
      <path sodipodi:nodetypes="ccssscssc" id="path3995" d="M 469.59973,195.18302 C 443.87774,195.18302 420.03928,204.01937 400.57219,219.05326 C 382.05406,206.18642 360.02659,198.71791 336.40027,198.71791 C 270.72516,198.71791 218.85149,256.41734 217.4375,327.46962 C 216.01932,398.73212 294.40201,484.43439 379.90666,498.3071 C 392.1659,500.2961 398.8115,492.91008 406.3157,487.73571 C 424.83383,500.60255 419.33685,500.96798 442.96317,500.96798 C 508.63828,500.96798 588.56248,394.98165 588.5625,323.9153 C 588.5625,252.84896 535.27483,195.18302 469.59973,195.18302 z" style="opacity: 1; fill: rgb(164, 0, 0); fill-opacity: 1; fill-rule: nonzero; stroke: none; stroke-width: 12; stroke-linecap: butt; stroke-linejoin: miter; marker: none; stroke-miterlimit: 4; stroke-dasharray: none; stroke-dashoffset: 0pt; stroke-opacity: 1; visibility: visible; display: inline; overflow: visible;"/>
      <path id="path4545" d="M 465.69251,109.77128 C 452.95216,116.63306 439.81314,123.45378 432.02198,135.51102 C 420.24234,154.63208 412.66634,176.00328 403.27194,196.29121 C 398.53227,206.97996 397.01553,222.06888 392.60566,232.89046 C 392.79939,235.87894 396.62483,236.10427 398.02454,233.90043 C 406.36582,219.58359 413.00436,204.16593 420.69562,189.42668 C 426.96913,177.11493 433.8595,165.05112 441.29785,153.37478 C 448.70032,143.21542 456.94299,133.62259 463.24527,122.5707 C 465.07331,118.99213 468.01046,115.58563 468.6253,111.59699 C 468.30991,110.34376 466.93729,109.57904 465.69251,109.77128 z" style="opacity: 1; fill: rgb(97, 20, 4); fill-opacity: 1; fill-rule: nonzero; stroke: none; stroke-width: 12; stroke-linecap: butt; stroke-linejoin: miter; marker: none; stroke-miterlimit: 4; stroke-dasharray: none; stroke-dashoffset: 0pt; stroke-opacity: 1; visibility: visible; display: inline; overflow: visible;" sodipodi:nodetypes="cccccccccc"/>
      <path style="opacity: 1; fill: rgb(255, 0, 0); fill-opacity: 1; fill-rule: nonzero; stroke: none; stroke-width: 12; stroke-linecap: butt; stroke-linejoin: miter; marker: none; stroke-miterlimit: 4; stroke-dasharray: none; stroke-dashoffset: 0pt; stroke-opacity: 1; visibility: visible; display: inline; overflow: visible;" d="M 211.51554,278.10705 C 204.73723,278.10705 198.02503,280.17654 192.89503,284.1383 C 188.01509,280.74762 182.1323,276.4375 175.90625,276.4375 C 158.59943,276.4375 147.49964,296.58755 148.25648,312.50111 C 149.02179,328.59284 157.10561,344.05301 184.18886,353.10946 C 188.57476,353.10049 191.04815,352.12459 193.63966,349.5359 C 198.24828,352.73807 199.31432,353.80489 205.19422,353.80489 C 226.50001,350.52821 240.84608,329.51032 240.62849,309.7042 C 240.4119,289.9888 228.82237,278.10705 211.51554,278.10705 z" transform="matrix(3.51588, 0, 0, 3.51588, -280.342, -764.632)" id="path4526" sodipodi:nodetypes="ccszccczc"/>
      <g id="g3323" transform="matrix(0.907201, -0.420697, 0.420697, 0.907201, -63.5379, 185.45)">
        <path sodipodi:nodetypes="czzcc" inkscape:transform-center-y="37.68681" inkscape:transform-center-x="162.34319" id="path4655" d="M 400.50334,234.52357 C 401.52996,218.55932 405.31984,166.75492 376.3247,135.00118 C 347.32956,103.24744 275.32241,171.56989 300.3603,205.42959 C 325.3982,239.28929 378.82892,237.4208 394.71107,239.33616 C 398.63662,239.26277 398.9239,237.48907 400.50334,234.52357 z" style="opacity: 1; fill: rgb(103, 205, 3); fill-opacity: 1; fill-rule: nonzero; stroke: none; stroke-width: 12; stroke-linecap: butt; stroke-linejoin: miter; marker: none; stroke-miterlimit: 4; stroke-dashoffset: 0pt; stroke-opacity: 1; visibility: visible; display: inline; overflow: visible;"/>
        <path sodipodi:nodetypes="czzcc" style="opacity: 1; fill: rgb(0, 91, 0); fill-opacity: 1; fill-rule: nonzero; stroke: none; stroke-width: 12; stroke-linecap: butt; stroke-linejoin: miter; marker: none; stroke-miterlimit: 4; stroke-dashoffset: 0pt; stroke-opacity: 1; visibility: visible; display: inline; overflow: visible;" d="M 395.85179,228.42523 C 396.73775,214.64824 398.46003,172.04854 373.43752,144.64539 C 348.41501,117.24225 290.72877,175.37822 312.3362,204.5988 C 333.94363,233.81938 377.14699,230.92551 390.85311,232.57844 C 394.36136,232.53759 394.34324,230.89894 395.85179,228.42523 z" id="path4657" inkscape:transform-center-x="140.10047" inkscape:transform-center-y="32.523324"/>
      </g>
      <path style="opacity: 1; fill: rgb(0, 0, 0); fill-opacity: 0.18; fill-rule: nonzero; stroke: none; stroke-width: 12; stroke-linecap: butt; stroke-linejoin: miter; marker: none; stroke-miterlimit: 4; stroke-dasharray: none; stroke-dashoffset: 0pt; stroke-opacity: 1; visibility: visible; display: inline; overflow: visible;" d="M 545.09375,304.28125 C 541.08291,314.75119 543.16238,328.33508 549.03125,337.46875 C 557.73991,351.02194 572.4545,360.35476 600.4375,354.65625 C 601.50858,354.03494 602.39397,353.41905 603.15625,352.78125 C 574.71276,351.50605 551.2302,331.18724 545.09375,304.28125 z" transform="matrix(3.04484, 1.75794, -1.75794, 3.04484, -837.535, -1658.56)" id="path3391"/>
    </g>
    <g inkscape:label="Layer 1" id="g2471" transform="matrix(0.95356, 0, 0, 0.952036, 96.0367, 932.658)">
      <g transform="translate(5, -2)" id="g4523">
        <path style="fill: rgb(15, 95, 0); fill-opacity: 1; fill-rule: evenodd; stroke: none; stroke-width: 1px; stroke-linecap: butt; stroke-linejoin: miter; stroke-opacity: 1;" d="M 71.432147,31.796741 C 66.56442,28.012154 55.8078,25.032748 49.708366,24.130104 C 45.802707,23.55211 40.546034,25.568968 36.81693,26.865907 C 33.75171,27.931967 29.834294,29.847452 27.13799,31.653563 C 22.707708,34.621168 17.140101,39.272821 13.769861,43.40508 C 11.274067,46.465186 8.9956489,51.297816 7.2619659,54.845711 C 4.7202847,60.047097 0.79506847,66.970369 -0.095686673,72.69061 C -2.675372,89.256902 2.0435984,87.139776 4.5883421,92.794615 C 6.8878654,97.904549 11.47689,104.05479 15.407202,108.04879 C 19.655979,112.36642 26.43983,116.92197 31.676939,119.96611 C 35.489172,122.18204 40.886561,124.70017 45.107244,125.97659 C 48.089855,126.8786 52.234024,127.8805 55.345781,127.71756 C 59.948846,127.47653 66.066169,125.72129 70.143989,123.5724 C 75.341273,120.8336 81.041203,115.21144 85.128729,110.99186 C 88.151409,107.87151 92.156311,103.49716 94.102992,99.613402 C 95.797812,96.232147 96.394877,91.078966 97.377663,87.42664 C 98.360453,83.774317 101.11982,79.011204 100.63161,75.260606 C 99.780799,68.724259 97.613011,59.078047 93.442926,53.973327 C 87.582577,45.737373 81.836021,37.436395 71.432147,31.796741 z" id="path14534" sodipodi:nodetypes="csssssssssssssssscc"/>
        <path style="fill: rgb(32, 181, 0); fill-opacity: 1; fill-rule: evenodd; stroke: none; stroke-width: 1px; stroke-linecap: butt; stroke-linejoin: miter; stroke-opacity: 1;" d="M 54.646734,31.367751 C 50.972426,29.384828 43.940893,31.380257 39.616183,32.158093 C 35.291471,32.935929 28.661184,35.733466 25.161001,38.63993 C 21.660818,41.546393 19.612984,44.430501 17.228296,48.632267 C 14.843608,52.834033 10.852747,58.78447 9.497665,63.848599 C 8.1425882,68.912722 5.1312481,75.306497 5.9815249,80.297746 C 6.8318088,85.288989 11.962838,90.706792 15.691051,95.515068 C 19.41927,100.32334 27.838339,108.85619 34.319936,112.91892 C 40.801532,116.98164 49.772439,122.84667 58.112699,122.10305 C 66.452977,121.35943 82.675091,108.31863 84.019494,106.35336 C 85.363904,104.3881 89.757589,90.318823 90.537141,88.129028 C 91.316693,85.939235 94.983664,73.82722 93.332724,70.314184 C 91.681786,66.801147 89.098983,59.601334 84.974654,54.850486 C 80.7881,50.027961 75.097764,44.946974 66.825882,37.916632 C 64.360497,35.715818 58.321041,33.350673 54.646734,31.367751 z" id="path14532" sodipodi:nodetypes="czzzzzzzzzzzzcz"/>
        <path style="fill: rgb(65, 26, 8); fill-opacity: 1; fill-rule: evenodd; stroke: none; stroke-width: 1px; stroke-linecap: butt; stroke-linejoin: miter; stroke-opacity: 1;" d="M 104.02646,22.697095 C 102.90125,23.108047 84.672121,31.988269 83.113683,32.74133 C 82.408662,33.224352 77.939577,37.747871 73.649511,42.205503 L 65.193291,51.378035 L 72.823585,57.180929 L 84.3182,48.949116 L 100.5576,41.063291 L 104.02646,22.697095 z" id="path3387" sodipodi:nodetypes="cccccccc"/>
        <path sodipodi:nodetypes="cccccccc" id="path3339" d="M 99.03045,29.197095 C 98.21604,29.494539 85.021928,35.921977 83.893944,36.467036 C 83.383654,36.816644 80.148965,40.090732 77.043847,43.317133 L 68.950984,50.720274 L 72.933168,53.934497 L 82.413439,46.388628 L 96.15783,39.052395 L 99.03045,29.197095 z" style="fill: rgb(116, 37, 0); fill-opacity: 1; fill-rule: evenodd; stroke: none; stroke-width: 1px; stroke-linecap: butt; stroke-linejoin: miter; stroke-opacity: 1;"/>
        <path style="fill: rgb(0, 0, 0); fill-opacity: 0.255172; fill-rule: evenodd; stroke: none; stroke-width: 1px; stroke-linecap: butt; stroke-linejoin: miter; stroke-opacity: 1;" d="M 61.800509,49.838098 C 61.031659,47.350328 64.072021,41.869444 61.566179,41.161695 C 60.560644,40.877695 60.212403,43.189931 59.664635,44.079711 C 59.030798,45.109307 58.021096,46.417196 57.640778,47.564879 C 57.23359,48.793656 57.146469,50.557411 57.150493,51.851888 C 57.155396,53.428949 57.133227,55.632717 57.780286,57.07093 C 58.405371,58.460299 60.010745,59.858644 61.14968,60.870534 C 63.135775,62.635084 66.047694,64.731548 68.42114,65.925258 C 70.733616,67.088306 74.030197,68.995269 76.598977,68.676572 C 78.975629,68.381717 83.836029,64.321048 83.313723,64.359291 C 77.909774,64.75499 74.38848,63.816998 72.473419,61.897027 C 72.473419,61.897027 70.477507,59.872522 69.605459,59.021711 C 68.166344,57.617645 66.027934,55.955406 64.745164,54.407186 C 63.704751,53.151475 62.282022,51.396122 61.800509,49.838098 z" id="path4519" sodipodi:nodetypes="csssssssssssss"/>
        <path style="fill: rgb(0, 0, 0); fill-opacity: 0.255172; fill-rule: evenodd; stroke: none; stroke-width: 1px; stroke-linecap: butt; stroke-linejoin: miter; stroke-opacity: 1;" d="M 17.431965,48.302415 C 17.365052,48.419123 17.300507,48.515091 17.233091,48.633871 C 14.848402,52.835627 10.854196,58.772538 9.499111,63.836667 C 8.4016742,67.93795 6.2142606,72.921688 5.8751887,77.31589 C 5.8740857,77.330159 5.8762494,77.345829 5.8751887,77.360084 L 6.2287421,81.425948 C 7.5745643,86.100574 12.23437,91.071945 15.686295,95.523889 C 19.414502,100.33216 27.832544,108.85157 34.31414,112.9143 C 40.795749,116.97702 49.772441,122.8282 58.112702,122.08459 C 60.572614,121.86526 63.726373,120.59546 66.973634,118.83632 C 54.140855,117.18714 47.11087,112.63378 44.103149,106.39566 L 36.899499,97.11488 L 24.701907,82.044666 L 17.431965,68.233987 L 17.431965,48.302415 z" id="path3327"/>
      </g>
    </g>
  </g>
</svg>