<?xml version="1.0" encoding="UTF-8" standalone="no"?>
<!-- Created with Inkscape (http://www.inkscape.org/) -->
<svg xmlns:dc="http://purl.org/dc/elements/1.1/" xmlns:cc="http://creativecommons.org/ns#" xmlns:rdf="http://www.w3.org/1999/02/22-rdf-syntax-ns#" xmlns:svg="http://www.w3.org/2000/svg" xmlns="http://www.w3.org/2000/svg" xmlns:xlink="http://www.w3.org/1999/xlink" xmlns:sodipodi="http://sodipodi.sourceforge.net/DTD/sodipodi-0.dtd" xmlns:inkscape="http://www.inkscape.org/namespaces/inkscape" width="120.1908" height="159.61177" id="svg2" sodipodi:version="0.32" inkscape:version="0.46" version="1.0" sodipodi:docname="caldero.svg" inkscape:output_extension="org.inkscape.output.svg.inkscape">
  <defs id="defs4">
    <linearGradient id="linearGradient3691" inkscape:collect="always">
      <stop id="stop3693" offset="0" style="stop-color: rgb(200, 183, 183); stop-opacity: 1;"/>
      <stop id="stop3695" offset="1" style="stop-color: rgb(0, 0, 0); stop-opacity: 0;"/>
    </linearGradient>
    <linearGradient id="linearGradient3685" inkscape:collect="always">
      <stop id="stop3687" offset="0" style="stop-color: rgb(200, 183, 183); stop-opacity: 1;"/>
      <stop id="stop3689" offset="1" style="stop-color: rgb(0, 0, 0); stop-opacity: 0;"/>
    </linearGradient>
    <linearGradient inkscape:collect="always" id="linearGradient3673">
      <stop style="stop-color: rgb(200, 183, 183); stop-opacity: 1;" offset="0" id="stop3675"/>
      <stop style="stop-color: rgb(0, 0, 0); stop-opacity: 0;" offset="1" id="stop3677"/>
    </linearGradient>
    <linearGradient id="linearGradient3630">
      <stop id="stop3632" offset="0" style="stop-color: rgb(255, 255, 255); stop-opacity: 1;"/>
      <stop style="stop-color: rgb(0, 0, 0); stop-opacity: 1;" offset="0.36000001" id="stop3636"/>
      <stop id="stop3634" offset="1" style="stop-color: rgb(0, 0, 0); stop-opacity: 1;"/>
    </linearGradient>
    <linearGradient id="linearGradient3250">
      <stop style="stop-color: rgb(212, 85, 0); stop-opacity: 1;" offset="0" id="stop3252"/>
      <stop style="stop-color: rgb(152, 36, 0); stop-opacity: 1;" offset="1" id="stop3254"/>
    </linearGradient>
    <linearGradient id="linearGradient3230">
      <stop id="stop3232" offset="0" style="stop-color: rgb(255, 0, 0); stop-opacity: 1;"/>
      <stop id="stop3234" offset="1" style="stop-color: rgb(255, 255, 0); stop-opacity: 1;"/>
    </linearGradient>
    <linearGradient id="linearGradient3216">
      <stop style="stop-color: rgb(0, 0, 0); stop-opacity: 1;" offset="0" id="stop3218"/>
      <stop style="stop-color: rgb(0, 0, 0); stop-opacity: 0;" offset="1" id="stop3220"/>
    </linearGradient>
    <inkscape:perspective sodipodi:type="inkscape:persp3d" inkscape:vp_x="0 : 526.18109 : 1" inkscape:vp_y="0 : 1000 : 0" inkscape:vp_z="744.09448 : 526.18109 : 1" inkscape:persp3d-origin="372.04724 : 350.78739 : 1" id="perspective10"/>
    <linearGradient inkscape:collect="always" xlink:href="#linearGradient3230" id="linearGradient3222" x1="360.14691" y1="296.71719" x2="360.14691" y2="271.6373" gradientUnits="userSpaceOnUse" gradientTransform="translate(1.71729, 4.00351)"/>
    <linearGradient inkscape:collect="always" xlink:href="#linearGradient3230" id="linearGradient3224" x1="340.85916" y1="296.71719" x2="337.50839" y2="271.6373" gradientUnits="userSpaceOnUse" gradientTransform="translate(-2, 2)"/>
    <linearGradient inkscape:collect="always" xlink:href="#linearGradient3230" id="linearGradient3226" x1="315.80981" y1="296.71719" x2="315.80981" y2="268.11823" gradientUnits="userSpaceOnUse" gradientTransform="translate(0, 2)"/>
    <linearGradient inkscape:collect="always" xlink:href="#linearGradient3230" id="linearGradient3228" x1="286.73532" y1="303.88" x2="271.69272" y2="271.6373" gradientUnits="userSpaceOnUse" gradientTransform="translate(-6)"/>
    <linearGradient inkscape:collect="always" xlink:href="#linearGradient3230" id="linearGradient3242" x1="350.71808" y1="296.71719" x2="368.84497" y2="271.6373" gradientUnits="userSpaceOnUse" gradientTransform="translate(1.71729, 4.00351)"/>
    <linearGradient inkscape:collect="always" xlink:href="#linearGradient3230" id="linearGradient3244" x1="331.00024" y1="271.6373" x2="350.71808" y2="296.71719" gradientUnits="userSpaceOnUse" gradientTransform="translate(-2, 2)"/>
    <linearGradient inkscape:collect="always" xlink:href="#linearGradient3230" id="linearGradient3246" x1="308.94714" y1="255.36932" x2="326.44672" y2="296.71719" gradientUnits="userSpaceOnUse" gradientTransform="translate(0, 2)"/>
    <linearGradient inkscape:collect="always" xlink:href="#linearGradient3230" id="linearGradient3248" x1="271.69272" y1="271.6373" x2="301.94052" y2="307.41675" gradientUnits="userSpaceOnUse" gradientTransform="translate(-6)"/>
    <radialGradient inkscape:collect="always" xlink:href="#linearGradient3250" id="radialGradient3256" cx="279.04782" cy="311.50397" fx="279.04782" fy="311.50397" r="13.845413" gradientTransform="matrix(1, 0, 0, 0.909314, 0, 28.249)" gradientUnits="userSpaceOnUse"/>
    <radialGradient inkscape:collect="always" xlink:href="#linearGradient3250" id="radialGradient3264" cx="279.04782" cy="311.50397" fx="279.04782" fy="311.50397" r="13.845413" gradientTransform="matrix(1, 0, 0, 0.909314, 0, 28.249)" gradientUnits="userSpaceOnUse"/>
    <radialGradient inkscape:collect="always" xlink:href="#linearGradient3250" id="radialGradient3272" cx="279.04782" cy="311.50397" fx="279.04782" fy="311.50397" r="13.845413" gradientTransform="matrix(1, 0, 0, 0.909314, 0, 28.249)" gradientUnits="userSpaceOnUse"/>
    <filter inkscape:collect="always" id="filter3460">
      <feGaussianBlur inkscape:collect="always" stdDeviation="0.13217622" id="feGaussianBlur3462"/>
    </filter>
    <filter inkscape:collect="always" id="filter3564" x="-0.26991031" width="1.5398206" y="-0.34069559" height="1.6813912">
      <feGaussianBlur inkscape:collect="always" stdDeviation="0.49913747" id="feGaussianBlur3566"/>
    </filter>
    <filter inkscape:collect="always" id="filter3568" x="-0.28023654" width="1.5604731" y="-0.32276258" height="1.6455251">
      <feGaussianBlur inkscape:collect="always" stdDeviation="0.55745937" id="feGaussianBlur3570"/>
    </filter>
    <filter inkscape:collect="always" id="filter3572">
      <feGaussianBlur inkscape:collect="always" stdDeviation="0.13217622" id="feGaussianBlur3574"/>
    </filter>
    <linearGradient inkscape:collect="always" xlink:href="#linearGradient3250" id="linearGradient3590" x1="270.5354" y1="316.19131" x2="363.49347" y2="316.19131" gradientUnits="userSpaceOnUse"/>
    <filter inkscape:collect="always" id="filter3604">
      <feGaussianBlur inkscape:collect="always" stdDeviation="0.59225648" id="feGaussianBlur3606"/>
    </filter>
    <radialGradient inkscape:collect="always" xlink:href="#linearGradient3630" id="radialGradient3628" cx="304.4863" cy="282.29858" fx="304.4863" fy="282.29858" r="60.095398" gradientTransform="matrix(1.97102, 1.92538e-07, -1.31375e-07, 1.41194, -302.994, -116.291)" gradientUnits="userSpaceOnUse"/>
    <linearGradient inkscape:collect="always" xlink:href="#linearGradient3673" id="linearGradient3679" x1="344.31879" y1="238.50034" x2="346.74335" y2="202.34625" gradientUnits="userSpaceOnUse"/>
    <linearGradient inkscape:collect="always" xlink:href="#linearGradient3691" id="linearGradient3681" x1="309.24716" y1="206.70943" x2="311.56937" y2="171.44412" gradientUnits="userSpaceOnUse"/>
    <linearGradient inkscape:collect="always" xlink:href="#linearGradient3685" id="linearGradient3683" x1="281.30307" y1="238.50034" x2="281.30307" y2="193.72855" gradientUnits="userSpaceOnUse"/>
    <filter inkscape:collect="always" id="filter3889" x="-0.24626862" width="1.4925371" y="-0.12149953" height="1.2429991">
      <feGaussianBlur inkscape:collect="always" stdDeviation="1.9215385" id="feGaussianBlur3891"/>
    </filter>
    <filter inkscape:collect="always" id="filter3893" x="-0.35679424" width="1.7135885" y="-0.091916591" height="1.1838332">
      <feGaussianBlur inkscape:collect="always" stdDeviation="1.9215385" id="feGaussianBlur3895"/>
    </filter>
    <filter inkscape:collect="always" id="filter3897" x="-0.26213625" width="1.5242724" y="-0.12441276" height="1.2488256">
      <feGaussianBlur inkscape:collect="always" stdDeviation="1.9215385" id="feGaussianBlur3899"/>
    </filter>
    <filter inkscape:collect="always" id="filter3954" x="-0.16117071" width="1.3223414" y="-0.086688764" height="1.1733775">
      <feGaussianBlur inkscape:collect="always" stdDeviation="1.1367927" id="feGaussianBlur3956"/>
    </filter>
    <filter inkscape:collect="always" id="filter3958" x="-0.13836716" width="1.2767344" y="-0.085209541" height="1.1704191">
      <feGaussianBlur inkscape:collect="always" stdDeviation="1.1367927" id="feGaussianBlur3960"/>
    </filter>
    <filter inkscape:collect="always" id="filter3962" x="-0.12824734" width="1.2564946" y="-0.084487043" height="1.168974">
      <feGaussianBlur inkscape:collect="always" stdDeviation="1.1367927" id="feGaussianBlur3964"/>
    </filter>
    <filter inkscape:collect="always" id="filter3966">
      <feGaussianBlur inkscape:collect="always" stdDeviation="1.1367927" id="feGaussianBlur3968"/>
    </filter>
    <linearGradient inkscape:collect="always" xlink:href="#linearGradient3230" id="linearGradient3972" gradientUnits="userSpaceOnUse" gradientTransform="translate(8.03181)" x1="271.69272" y1="271.6373" x2="301.94052" y2="307.41675"/>
    <linearGradient inkscape:collect="always" xlink:href="#linearGradient3230" id="linearGradient3974" gradientUnits="userSpaceOnUse" gradientTransform="translate(8.03181)" x1="286.73532" y1="303.88" x2="271.69272" y2="271.6373"/>
    <linearGradient inkscape:collect="always" xlink:href="#linearGradient3230" id="linearGradient3982" gradientUnits="userSpaceOnUse" gradientTransform="translate(15.2011, 7.84659)" x1="308.94714" y1="255.36932" x2="326.44672" y2="296.71719"/>
    <linearGradient inkscape:collect="always" xlink:href="#linearGradient3230" id="linearGradient3984" gradientUnits="userSpaceOnUse" gradientTransform="translate(15.2011, 7.84659)" x1="315.80981" y1="296.71719" x2="315.80981" y2="268.11823"/>
    <filter inkscape:collect="always" id="filter3990">
      <feGaussianBlur inkscape:collect="always" stdDeviation="0.53110354" id="feGaussianBlur3992"/>
    </filter>
    <filter inkscape:collect="always" id="filter3998">
      <feGaussianBlur inkscape:collect="always" stdDeviation="0.40045308" id="feGaussianBlur4000"/>
    </filter>
    <linearGradient inkscape:collect="always" xlink:href="#linearGradient3230" id="linearGradient4004" gradientUnits="userSpaceOnUse" gradientTransform="translate(-8.2219, 4.00351)" x1="350.71808" y1="296.71719" x2="368.84497" y2="271.6373"/>
    <linearGradient inkscape:collect="always" xlink:href="#linearGradient3230" id="linearGradient4006" gradientUnits="userSpaceOnUse" gradientTransform="translate(-8.2219, 4.00351)" x1="360.14691" y1="296.71719" x2="360.14691" y2="271.6373"/>
    <filter inkscape:collect="always" id="filter4008">
      <feGaussianBlur inkscape:collect="always" stdDeviation="0.35378698" id="feGaussianBlur4010"/>
    </filter>
    <radialGradient inkscape:collect="always" xlink:href="#linearGradient3630" id="radialGradient2531" gradientUnits="userSpaceOnUse" gradientTransform="matrix(1.97102, 1.92538e-07, -1.31375e-07, 1.41194, -302.994, -116.291)" cx="304.4863" cy="282.29858" fx="304.4863" fy="282.29858" r="60.095398"/>
    <linearGradient inkscape:collect="always" xlink:href="#linearGradient3230" id="linearGradient2533" gradientUnits="userSpaceOnUse" gradientTransform="translate(-2, 2)" x1="331.00024" y1="271.6373" x2="350.71808" y2="296.71719"/>
    <linearGradient inkscape:collect="always" xlink:href="#linearGradient3230" id="linearGradient2535" gradientUnits="userSpaceOnUse" gradientTransform="translate(-2, 2)" x1="340.85916" y1="296.71719" x2="337.50839" y2="271.6373"/>
    <linearGradient inkscape:collect="always" xlink:href="#linearGradient3230" id="linearGradient2537" gradientUnits="userSpaceOnUse" gradientTransform="translate(-6)" x1="271.69272" y1="271.6373" x2="301.94052" y2="307.41675"/>
    <linearGradient inkscape:collect="always" xlink:href="#linearGradient3230" id="linearGradient2539" gradientUnits="userSpaceOnUse" gradientTransform="translate(-6)" x1="286.73532" y1="303.88" x2="271.69272" y2="271.6373"/>
    <linearGradient inkscape:collect="always" xlink:href="#linearGradient3230" id="linearGradient2541" gradientUnits="userSpaceOnUse" gradientTransform="translate(1.71729, 4.00351)" x1="350.71808" y1="296.71719" x2="368.84497" y2="271.6373"/>
    <linearGradient inkscape:collect="always" xlink:href="#linearGradient3230" id="linearGradient2543" gradientUnits="userSpaceOnUse" gradientTransform="translate(1.71729, 4.00351)" x1="360.14691" y1="296.71719" x2="360.14691" y2="271.6373"/>
    <linearGradient inkscape:collect="always" xlink:href="#linearGradient3230" id="linearGradient2545" gradientUnits="userSpaceOnUse" gradientTransform="translate(0, 2)" x1="308.94714" y1="255.36932" x2="326.44672" y2="296.71719"/>
    <linearGradient inkscape:collect="always" xlink:href="#linearGradient3230" id="linearGradient2547" gradientUnits="userSpaceOnUse" gradientTransform="translate(0, 2)" x1="315.80981" y1="296.71719" x2="315.80981" y2="268.11823"/>
    <linearGradient inkscape:collect="always" xlink:href="#linearGradient3230" id="linearGradient2549" gradientUnits="userSpaceOnUse" gradientTransform="translate(8.03181)" x1="271.69272" y1="271.6373" x2="301.94052" y2="307.41675"/>
    <linearGradient inkscape:collect="always" xlink:href="#linearGradient3230" id="linearGradient2551" gradientUnits="userSpaceOnUse" gradientTransform="translate(8.03181)" x1="286.73532" y1="303.88" x2="271.69272" y2="271.6373"/>
    <linearGradient inkscape:collect="always" xlink:href="#linearGradient3230" id="linearGradient2553" gradientUnits="userSpaceOnUse" gradientTransform="translate(15.2011, 7.84659)" x1="308.94714" y1="255.36932" x2="326.44672" y2="296.71719"/>
    <linearGradient inkscape:collect="always" xlink:href="#linearGradient3230" id="linearGradient2555" gradientUnits="userSpaceOnUse" gradientTransform="translate(15.2011, 7.84659)" x1="315.80981" y1="296.71719" x2="315.80981" y2="268.11823"/>
    <linearGradient inkscape:collect="always" xlink:href="#linearGradient3230" id="linearGradient2557" gradientUnits="userSpaceOnUse" gradientTransform="translate(-8.2219, 4.00351)" x1="350.71808" y1="296.71719" x2="368.84497" y2="271.6373"/>
    <linearGradient inkscape:collect="always" xlink:href="#linearGradient3230" id="linearGradient2559" gradientUnits="userSpaceOnUse" gradientTransform="translate(-8.2219, 4.00351)" x1="360.14691" y1="296.71719" x2="360.14691" y2="271.6373"/>
    <linearGradient inkscape:collect="always" xlink:href="#linearGradient3250" id="linearGradient2561" gradientUnits="userSpaceOnUse" x1="270.5354" y1="316.19131" x2="363.49347" y2="316.19131"/>
    <radialGradient inkscape:collect="always" xlink:href="#linearGradient3250" id="radialGradient2563" gradientUnits="userSpaceOnUse" gradientTransform="matrix(1, 0, 0, 0.909314, 0, 28.249)" cx="279.04782" cy="311.50397" fx="279.04782" fy="311.50397" r="13.845413"/>
    <radialGradient inkscape:collect="always" xlink:href="#linearGradient3250" id="radialGradient2565" gradientUnits="userSpaceOnUse" gradientTransform="matrix(1, 0, 0, 0.909314, 0, 28.249)" cx="279.04782" cy="311.50397" fx="279.04782" fy="311.50397" r="13.845413"/>
    <radialGradient inkscape:collect="always" xlink:href="#linearGradient3250" id="radialGradient2567" gradientUnits="userSpaceOnUse" gradientTransform="matrix(1, 0, 0, 0.909314, 0, 28.249)" cx="279.04782" cy="311.50397" fx="279.04782" fy="311.50397" r="13.845413"/>
    <linearGradient inkscape:collect="always" xlink:href="#linearGradient3685" id="linearGradient2569" gradientUnits="userSpaceOnUse" x1="281.30307" y1="238.50034" x2="281.30307" y2="193.72855"/>
    <linearGradient inkscape:collect="always" xlink:href="#linearGradient3691" id="linearGradient2571" gradientUnits="userSpaceOnUse" x1="309.24716" y1="206.70943" x2="311.56937" y2="171.44412"/>
    <linearGradient inkscape:collect="always" xlink:href="#linearGradient3673" id="linearGradient2573" gradientUnits="userSpaceOnUse" x1="344.31879" y1="238.50034" x2="346.74335" y2="202.34625"/>
  </defs>
  <sodipodi:namedview id="base" pagecolor="#ffffff" bordercolor="#666666" borderopacity="1.0" inkscape:pageopacity="0.0" inkscape:pageshadow="2" inkscape:zoom="2.0549863" inkscape:cx="60.095394" inkscape:cy="79.805879" inkscape:document-units="px" inkscape:current-layer="layer1" showgrid="false" inkscape:window-width="775" inkscape:window-height="519" inkscape:window-x="240" inkscape:window-y="0"/>
  <metadata id="metadata7">
    <rdf:RDF>
      <cc:Work rdf:about="">
        <dc:format>image/svg+xml</dc:format>
        <dc:type rdf:resource="http://purl.org/dc/dcmitype/StillImage"/>
      </cc:Work>
    </rdf:RDF>
  </metadata>
  <g inkscape:label="Capa 1" inkscape:groupmode="layer" id="layer1" transform="translate(-251.942, -170.543)">
    <g id="g2506">
      <path sodipodi:nodetypes="cccccccc" id="path3620" d="M 252.44192,249.51439 L 370.93507,249.51439 C 374.64485,251.88027 362.46596,259.38503 360.05889,261.53543 C 369.53301,267.76308 369.25675,280.65608 366.92806,290.72939 C 356.74279,305.15058 338.01897,310.19977 321.70604,314.77148 C 301.51207,316.81354 273.4162,308.96094 267.32512,286.72238 C 264.3428,278.25304 267.45481,269.62956 269.61485,262.10786 C 261.64154,258.44408 257.95315,256.42754 252.44192,249.51439 z" style="fill: url(&quot;#radialGradient2531&quot;) rgb(0, 0, 0); fill-opacity: 1; fill-rule: evenodd; stroke: rgb(0, 0, 0); stroke-width: 1px; stroke-linecap: butt; stroke-linejoin: miter; stroke-opacity: 1;"/>
      <path sodipodi:nodetypes="csssssssc" id="path2442" d="M 341.09346,304.7083 C 340.24098,308.1182 329.50024,291.04447 329.50024,287.52963 C 329.50024,285.27929 334.26654,283.39236 335.16154,282.49737 C 337.25704,280.40187 336.4196,279.83202 336.4196,276.20704 C 336.4196,271.20076 335.88328,276.57787 336.4196,278.72317 C 336.76387,280.10024 340.58335,281.74859 342.0809,282.49737 C 344.77808,283.84596 345.69883,284.70096 347.11316,287.52963 C 348.73726,290.77782 348.42741,293.07856 347.11316,295.70705 C 346.58271,296.76795 344.10184,304.05399 343.26313,304.8927" style="fill: url(&quot;#linearGradient2533&quot;) rgb(0, 0, 0); fill-opacity: 1; fill-rule: evenodd; stroke: url(&quot;#linearGradient2535&quot;) rgb(0, 0, 0); stroke-width: 1px; stroke-linecap: butt; stroke-linejoin: miter; stroke-opacity: 1; filter: url(&quot;#filter3958&quot;);"/>
      <path sodipodi:nodetypes="csssscssscssssssc" id="path2436" d="M 271.43292,308.71849 C 270.77119,308.49791 266.54433,306.6888 265.74214,306.28771 C 263.55854,305.19591 261.29137,303.04747 260.08084,300.62641 C 257.53815,295.54102 258.89899,296.3949 259.45181,293.07802 C 259.96226,290.01529 262.29512,283.66787 260.70987,280.49737 C 260.29052,279.65866 259.87116,278.81995 259.45181,277.98124 C 264.36311,280.43689 262.64315,283.64253 268.25827,283.64253 C 269.55701,283.64253 274.46596,285.19445 275.80666,285.52963 C 278.18446,286.12408 278.48397,288.99716 279.58086,291.19092 C 280.36798,292.76517 279.58086,296.92637 279.58086,298.73932 C 280.88693,301.35147 280.66093,292.62698 282.72602,290.56189 C 284.22434,289.06357 285.81947,286.99453 286.50022,284.27156 C 287.19097,281.50856 283.46594,278.83205 282.72602,277.3522 C 281.72922,275.35861 285.59593,281.21484 287.75828,281.75543 C 290.85136,282.5287 292.66605,283.26577 294.67764,284.27156 C 295.87241,284.86895 295.30667,290.62078 295.30667,292.44899 C 295.30667,294.79784 290.71558,298.10133 292.34591,304.44372" style="fill: url(&quot;#linearGradient2537&quot;) rgb(0, 0, 0); fill-opacity: 1; fill-rule: evenodd; stroke: url(&quot;#linearGradient2539&quot;) rgb(0, 0, 0); stroke-width: 1px; stroke-linecap: butt; stroke-linejoin: miter; stroke-opacity: 1; filter: url(&quot;#filter3966&quot;);"/>
      <path sodipodi:nodetypes="cssssssc" id="path2444" d="M 354.27203,303.87346 C 353.15653,297.95285 359.06894,281.95421 362.78207,280.09765 C 364.21034,279.38351 362.02412,276.82357 360.89497,275.69442 C 359.2045,274.00394 363.60773,279.66524 365.2982,281.35571 C 366.96382,283.02133 368.43195,285.10707 369.70143,287.64604 C 370.69543,289.63404 369.35014,294.71251 369.0724,295.82347 C 368.26863,299.03856 366.86001,300.47067 364.66917,302.11379 C 363.0733,303.3107 356.45958,305.74175 355.89198,305.85527" style="fill: url(&quot;#linearGradient2541&quot;) rgb(0, 0, 0); fill-opacity: 1; fill-rule: evenodd; stroke: url(&quot;#linearGradient2543&quot;) rgb(0, 0, 0); stroke-width: 1px; stroke-linecap: butt; stroke-linejoin: miter; stroke-opacity: 1; filter: url(&quot;#filter3954&quot;);"/>
      <path sodipodi:nodetypes="csssssssc" id="path2440" d="M 312.11572,301.44765 C 312.87172,304.47167 306.46591,291.81171 305.7099,288.78769 C 305.24134,286.91345 309.35794,284.44754 310.74216,283.75543 C 311.95025,283.15139 313.54989,278.18583 313.88733,276.83607 C 314.81124,273.14042 314.51636,266.79634 314.51636,273.69091 C 314.51636,276.00803 315.33677,277.02745 317.66152,279.3522 C 319.62398,281.31466 322.96734,282.14189 325.20992,284.38447 C 326.66797,285.84252 325.57409,290.47615 325.20992,291.93286 C 324.31972,295.49364 321.86653,300.12757 320.10182,301.89228" style="fill: url(&quot;#linearGradient2545&quot;) rgb(0, 0, 0); fill-opacity: 1; fill-rule: evenodd; stroke: url(&quot;#linearGradient2547&quot;) rgb(0, 0, 0); stroke-width: 1px; stroke-linecap: butt; stroke-linejoin: miter; stroke-opacity: 1; filter: url(&quot;#filter3962&quot;);"/>
      <path transform="matrix(-0.815283, 0, 0, 0.767404, 530.087, 72.4957)" style="fill: url(&quot;#linearGradient2549&quot;) rgb(0, 0, 0); fill-opacity: 1; fill-rule: evenodd; stroke: url(&quot;#linearGradient2551&quot;) rgb(0, 0, 0); stroke-width: 1px; stroke-linecap: butt; stroke-linejoin: miter; stroke-opacity: 1; filter: url(&quot;#filter3990&quot;);" d="M 285.46472,308.71849 C 284.80299,308.49791 280.57613,306.6888 279.77394,306.28771 C 277.59034,305.19591 275.32317,303.04747 274.11264,300.62641 C 271.56995,295.54102 272.93079,296.3949 273.48361,293.07802 C 273.99406,290.01529 276.32692,283.66787 274.74167,280.49737 C 274.32232,279.65866 273.90296,278.81995 273.48361,277.98124 C 278.39491,280.43689 276.67495,283.64253 282.29007,283.64253 C 283.58881,283.64253 288.49776,285.19445 289.83846,285.52963 C 292.21626,286.12408 292.51577,288.99716 293.61266,291.19092 C 294.39978,292.76517 293.61266,296.92637 293.61266,298.73932 C 294.91873,301.35147 294.69273,292.62698 296.75782,290.56189 C 298.25614,289.06357 299.85127,286.99453 300.53202,284.27156 C 301.22277,281.50856 297.49774,278.83205 296.75782,277.3522 C 295.76102,275.35861 299.62773,281.21484 301.79008,281.75543 C 304.88316,282.5287 306.69785,283.26577 308.70944,284.27156 C 309.90421,284.86895 309.33847,290.62078 309.33847,292.44899 C 309.33847,294.79784 304.74738,298.10133 306.37771,304.44372" id="path3970" sodipodi:nodetypes="csssscssscssssssc"/>
      <path transform="matrix(-0.808235, 0, 0, 0.782342, 596.499, 69.0884)" style="fill: url(&quot;#linearGradient2553&quot;) rgb(0, 0, 0); fill-opacity: 1; fill-rule: evenodd; stroke: url(&quot;#linearGradient2555&quot;) rgb(0, 0, 0); stroke-width: 1px; stroke-linecap: butt; stroke-linejoin: miter; stroke-opacity: 1; filter: url(&quot;#filter3998&quot;);" d="M 327.31684,307.29424 C 328.07284,310.31826 321.66703,297.6583 320.91102,294.63428 C 320.44246,292.76004 324.55906,290.29413 325.94328,289.60202 C 327.15137,288.99798 328.75101,284.03242 329.08845,282.68266 C 330.01236,278.98701 329.71748,272.64293 329.71748,279.5375 C 329.71748,281.85462 330.53789,282.87404 332.86264,285.19879 C 334.8251,287.16125 338.16846,287.98848 340.41104,290.23106 C 341.86909,291.68911 340.77521,296.32274 340.41104,297.77945 C 339.52084,301.34023 337.06765,305.97416 335.30294,307.73887" id="path3980" sodipodi:nodetypes="csssssssc"/>
      <path transform="matrix(0.901474, 0, 0, 0.737449, 33.8198, 80.395)" style="fill: url(&quot;#linearGradient2557&quot;) rgb(0, 0, 0); fill-opacity: 1; fill-rule: evenodd; stroke: url(&quot;#linearGradient2559&quot;) rgb(0, 0, 0); stroke-width: 1px; stroke-linecap: butt; stroke-linejoin: miter; stroke-opacity: 1; filter: url(&quot;#filter4008&quot;);" d="M 344.33284,303.87346 C 343.21734,297.95285 349.12975,281.95421 352.84288,280.09765 C 354.27115,279.38351 352.08493,276.82357 350.95578,275.69442 C 349.26531,274.00394 353.66854,279.66524 355.35901,281.35571 C 357.02463,283.02133 358.49276,285.10707 359.76224,287.64604 C 360.75624,289.63404 359.41095,294.71251 359.13321,295.82347 C 358.32944,299.03856 356.92082,300.47067 354.72998,302.11379 C 353.13411,303.3107 346.52039,305.74175 345.95279,305.85527" id="path4002" sodipodi:nodetypes="cssssssc"/>
      <g id="g3608">
        <path style="opacity: 0.95; fill: url(&quot;#linearGradient2561&quot;) rgb(0, 0, 0); fill-opacity: 1; fill-rule: evenodd; stroke: none; stroke-width: 1px; stroke-linecap: butt; stroke-linejoin: miter; stroke-opacity: 1; filter: url(&quot;#filter3604&quot;);" d="M 272.76321,311.05068 C 272.38159,311.52771 271.99997,312.00473 271.61835,312.48176 C 271.035,313.21095 271.17003,315.1337 271.04592,315.63013 C 270.6548,317.1946 270.28362,318.019 270.75971,319.92336 C 271.151,321.48853 271.8904,323.32961 272.76321,325.07523 C 273.49341,326.53563 273.44066,327.07874 275.33915,327.07874 C 276.77023,327.07874 278.2013,327.07874 279.63238,327.07874 C 280.77316,327.07874 279.29016,328.79603 280.77725,328.79603 C 283.63705,329.26411 287.41145,328.49409 290.50856,327.65117 C 291.71722,327.04684 292.6999,326.60246 294.22936,326.22009 C 295.53623,325.89338 297.20177,324.99255 298.23638,324.21659 C 298.82751,323.77324 300.50194,323.29243 301.38475,323.07173 C 302.76121,322.72761 303.33499,322.23971 304.53312,321.64065 C 305.62078,321.09682 306.5492,320.78515 307.68148,321.06822 C 308.9171,321.37712 310.81631,321.14316 311.11607,321.06822 C 312.54934,320.7099 314.13095,321.39261 315.12308,321.64065 C 316.16294,321.90061 317.10286,322.34432 317.98524,322.78551 C 319.03622,323.311 319.81236,323.31384 321.1336,323.64416 C 321.98069,323.85593 324.20865,323.23316 324.8544,323.07173 C 326.12999,322.75283 327.11663,322.78551 328.5752,322.78551 C 329.42788,322.78551 331.05333,323.6197 331.15114,323.64416 C 332.65168,324.01929 333.89943,324.18812 335.15816,324.5028 C 336.01116,324.71605 338.16767,325.64767 339.45139,325.64767 C 340.5623,325.64767 341.58076,325.93388 342.88597,325.93388 C 344.03957,325.93388 344.66386,325.36145 346.60677,325.36145 C 348.4044,325.36145 348.63795,325.36145 350.61378,325.36145 C 352.99484,327.85162 358.24943,325.30988 362.0624,325.07523 C 363.00704,325.07523 363.49347,323.45538 363.49347,322.21308 C 363.49347,321.07384 362.66646,320.04989 362.34861,318.7785 C 362.02739,317.49359 362.0624,315.60143 362.0624,313.91284 C 362.0624,313.04331 360.60884,309.88334 359.77268,309.04717 C 358.8044,308.0789 357.64479,307.69702 356.33809,307.04367 C 355.69459,306.72192 354.36488,305.4922 353.76215,305.04016 C 352.91051,304.40143 350.28682,304.75394 349.18271,304.75394 C 347.74229,304.75394 346.67276,304.45123 345.46191,304.75394 C 344.91753,304.89004 343.24411,304.75394 342.02732,304.75394 C 340.84573,304.75394 339.37683,305.32638 338.87896,305.32638 C 337.46736,305.32638 336.42188,306.06616 335.44437,307.04367 C 334.36253,308.12551 332.4056,307.71505 332.00979,307.6161 C 330.66418,307.2797 329.59506,308.506 328.5752,308.76096 C 327.29993,309.07978 326.22736,308.15947 325.14062,307.6161 C 323.22453,306.65805 322.83759,305.89215 321.1336,305.04016 C 319.57389,304.2603 317.92437,304.15108 316.84037,303.60908 C 315.80125,303.08952 313.48641,303.9467 312.54714,304.18151 C 311.38013,304.47327 310.60212,305.2402 309.11256,305.61259 C 309.02,305.63573 308.92175,305.61259 308.82635,305.61259 C 307.12185,305.61259 305.99293,306.66435 305.10555,307.32988 C 303.9765,308.17667 302.39919,308.1052 301.38475,307.90231 C 299.63435,307.55223 299.79733,306.39307 298.23637,305.61259 C 297.06221,305.02551 296.46836,304.12264 295.08801,304.46773 C 293.64492,304.8285 292.42681,305.04016 291.65343,305.04016 C 290.31775,305.04016 288.98208,305.04016 287.64641,305.04016 C 286.44448,305.04016 285.00478,305.34827 283.35318,305.89881 C 281.7144,306.44507 280.36842,306.81876 278.77374,307.6161 C 277.4131,308.29642 276.54814,308.69683 275.62537,309.61961 C 275.19454,310.05043 273.57534,310.84765 272.76321,311.05068 z" id="path3274" sodipodi:nodetypes="cssssssccssssssssssssssssccssssssssssssssssssssssssssssc"/>
        <path sodipodi:type="spiral" style="opacity: 0.95; fill: url(&quot;#radialGradient2563&quot;) rgb(0, 0, 0); fill-opacity: 1; fill-rule: evenodd; stroke: rgb(80, 22, 22); stroke-width: 1px; stroke-linecap: butt; stroke-linejoin: miter; stroke-opacity: 1; filter: url(&quot;#filter3572&quot;);" id="path2416" sodipodi:cx="277.79196" sodipodi:cy="312.75934" sodipodi:expansion="1" sodipodi:revolution="3" sodipodi:radius="15.152288" sodipodi:argument="-18.206055" sodipodi:t0="0" d="M 277.79196,312.75934 C 278.39973,313.21517 277.47737,313.80349 277.03435,313.76949 C 275.83379,313.67736 275.4338,312.21359 275.77166,311.24411 C 276.37601,309.50993 278.51742,309.01097 280.06481,309.72888 C 282.33565,310.78245 282.94641,313.67962 281.83257,315.7898 C 280.348,318.60233 276.67164,319.32645 274.00389,317.8101 C 270.64679,315.90193 269.80882,311.43652 271.73105,308.21365 C 274.05913,304.31032 279.31865,303.35821 283.09526,305.68827 C 287.54587,308.43417 288.61229,314.49076 285.87318,318.82025 C 282.71077,323.81883 275.85523,324.99969 270.97343,321.85071 C 265.42641,318.27264 264.13102,310.61691 267.69044,305.18319 C 271.68356,299.08739 280.1404,297.6774 286.12572,301.64766 C 292.77057,306.05541 294.29522,315.31399 289.91379,321.85071" transform="translate(2.02031, 6.06092)"/>
        <path d="M 277.79196,312.75934 C 278.39973,313.21517 277.47737,313.80349 277.03435,313.76949 C 275.83379,313.67736 275.4338,312.21359 275.77166,311.24411 C 276.37601,309.50993 278.51742,309.01097 280.06481,309.72888 C 282.33565,310.78245 282.94641,313.67962 281.83257,315.7898 C 280.348,318.60233 276.67164,319.32645 274.00389,317.8101 C 270.64679,315.90193 269.80882,311.43652 271.73105,308.21365 C 274.05913,304.31032 279.31865,303.35821 283.09526,305.68827 C 287.54587,308.43417 288.61229,314.49076 285.87318,318.82025 C 282.71077,323.81883 275.85523,324.99969 270.97343,321.85071 C 265.42641,318.27264 264.13102,310.61691 267.69044,305.18319 C 271.68356,299.08739 280.1404,297.6774 286.12572,301.64766 C 292.77057,306.05541 294.29522,315.31399 289.91379,321.85071" sodipodi:t0="0" sodipodi:argument="-18.206055" sodipodi:radius="15.152288" sodipodi:revolution="3" sodipodi:expansion="1" sodipodi:cy="312.75934" sodipodi:cx="277.79196" id="path2418" style="opacity: 0.955; fill: url(&quot;#radialGradient2565&quot;) rgb(0, 0, 0); fill-opacity: 1; fill-rule: evenodd; stroke: rgb(80, 22, 22); stroke-width: 1px; stroke-linecap: butt; stroke-linejoin: miter; stroke-opacity: 1; filter: url(&quot;#filter3460&quot;);" sodipodi:type="spiral" transform="translate(72.731, 3.03046)"/>
        <path sodipodi:type="spiral" style="opacity: 0.95; fill: url(&quot;#radialGradient2567&quot;) rgb(0, 0, 0); fill-opacity: 1; fill-rule: evenodd; stroke: rgb(80, 22, 22); stroke-width: 1px; stroke-linecap: butt; stroke-linejoin: miter; stroke-opacity: 1;" id="path2420" sodipodi:cx="277.79196" sodipodi:cy="312.75934" sodipodi:expansion="1" sodipodi:revolution="3" sodipodi:radius="15.152288" sodipodi:argument="-18.206055" sodipodi:t0="0" d="M 277.79196,312.75934 C 278.39973,313.21517 277.47737,313.80349 277.03435,313.76949 C 275.83379,313.67736 275.4338,312.21359 275.77166,311.24411 C 276.37601,309.50993 278.51742,309.01097 280.06481,309.72888 C 282.33565,310.78245 282.94641,313.67962 281.83257,315.7898 C 280.348,318.60233 276.67164,319.32645 274.00389,317.8101 C 270.64679,315.90193 269.80882,311.43652 271.73105,308.21365 C 274.05913,304.31032 279.31865,303.35821 283.09526,305.68827 C 287.54587,308.43417 288.61229,314.49076 285.87318,318.82025 C 282.71077,323.81883 275.85523,324.99969 270.97343,321.85071 C 265.42641,318.27264 264.13102,310.61691 267.69044,305.18319 C 271.68356,299.08739 280.1404,297.6774 286.12572,301.64766 C 292.77057,306.05541 294.29522,315.31399 289.91379,321.85071" transform="translate(37.3756, 1.01015)"/>
        <path style="fill: none; fill-rule: evenodd; stroke: rgb(80, 22, 22); stroke-width: 1px; stroke-linecap: butt; stroke-linejoin: miter; stroke-opacity: 1;" d="M 281.80666,305.02964 C 286.69807,304.47863 287.98937,306.15735 292.50022,305.02964 C 296.73292,303.97147 298.59598,304.83508 300.67764,306.91674" id="path2422"/>
        <path style="fill: none; fill-rule: evenodd; stroke: rgb(80, 22, 22); stroke-width: 1px; stroke-linecap: butt; stroke-linejoin: miter; stroke-opacity: 1;" d="M 291.24215,327.67482 C 295.23936,326.67552 298.47952,324.68517 301.30667,323.27159 C 302.49498,322.67744 303.00572,323.27159 303.19377,323.27159" id="path2424"/>
        <path style="fill: none; fill-rule: evenodd; stroke: rgb(80, 22, 22); stroke-width: 1px; stroke-linecap: butt; stroke-linejoin: miter; stroke-opacity: 1; filter: url(&quot;#filter3568&quot;);" d="M 297.53248,315.7232 C 300.62648,314.1762 300.68428,315.06763 301.30667,312.57804" id="path2426"/>
        <path style="fill: none; fill-rule: evenodd; stroke: rgb(80, 22, 22); stroke-width: 1px; stroke-linecap: butt; stroke-linejoin: miter; stroke-opacity: 1;" d="M 349.11316,301.88448 C 352.91058,299.98577 341.28042,305.25799 337.16154,306.28771 C 334.29478,307.0044 332.0445,307.88148 330.87121,308.17481" id="path2428"/>
        <path style="fill: none; fill-rule: evenodd; stroke: rgb(80, 22, 22); stroke-width: 1px; stroke-linecap: butt; stroke-linejoin: miter; stroke-opacity: 1;" d="M 344.70993,326.41676 C 341.7311,327.16146 336.02204,325.18833 333.38734,324.52966 C 332.37026,324.27539 331.29057,324.52966 330.24218,324.52966" id="path2430"/>
        <path style="fill: none; fill-rule: evenodd; stroke: rgb(80, 22, 22); stroke-width: 1px; stroke-linecap: butt; stroke-linejoin: miter; stroke-opacity: 1; filter: url(&quot;#filter3564&quot;);" d="M 332.12928,314.46513 C 330.82677,314.13951 334.22605,312.78771 335.27444,311.949" id="path2432"/>
      </g>
      <g id="g3901">
        <path style="fill: none; fill-rule: evenodd; stroke: url(&quot;#linearGradient2569&quot;) rgb(0, 0, 0); stroke-width: 3; stroke-linecap: round; stroke-linejoin: miter; stroke-miterlimit: 4; stroke-dasharray: none; stroke-opacity: 1; filter: url(&quot;#filter3893&quot;);" d="M 278.73226,241.49994 C 296.09097,229.16945 278.27843,221.04993 276.36562,217.97864 C 276.05267,210.04519 278.72531,202.04757 280.32585,194.32736" id="path3638" sodipodi:nodetypes="ccc"/>
        <path style="fill: none; fill-rule: evenodd; stroke: url(&quot;#linearGradient2571&quot;) rgb(0, 0, 0); stroke-width: 3; stroke-linecap: round; stroke-linejoin: miter; stroke-miterlimit: 4; stroke-dasharray: none; stroke-opacity: 1; filter: url(&quot;#filter3897&quot;);" d="M 318.86572,199.99706 C 312.37796,209.66184 308.28067,207.61365 304.27299,195.64819 C 306.54451,191.233 311.30576,189.84933 315.31817,187.9847 C 319.50619,181.15082 308.20169,179.53725 309.30425,172.04293" id="path3640" sodipodi:nodetypes="cccc"/>
        <path style="fill: none; fill-rule: evenodd; stroke: url(&quot;#linearGradient2573&quot;) rgb(0, 0, 0); stroke-width: 3; stroke-linecap: round; stroke-linejoin: miter; stroke-miterlimit: 4; stroke-dasharray: none; stroke-opacity: 1; filter: url(&quot;#filter3889&quot;);" d="M 343.57367,202.94506 C 350.32647,216.51248 364.04279,221.45717 344.6192,225.76962 C 329.93565,229.47353 347.95217,247.69752 348.88559,230.89918" id="path3642" sodipodi:nodetypes="ccc"/>
      </g>
    </g>
  </g>
</svg>