<?xml version="1.0" encoding="UTF-8"?>
<!-- Generator: Adobe Illustrator 13.0.1, SVG Export Plug-In . SVG Version: 6.00 Build 14948)  -->
<!DOCTYPE svg PUBLIC "-//W3C//DTD SVG 1.0//EN" "http://www.w3.org/TR/2001/REC-SVG-20010904/DTD/svg10.dtd">
<svg version="1.0" id="svg1923" xmlns:svg="http://www.w3.org/2000/svg" sodipodi:docbase="/art" xmlns:rdf="http://www.w3.org/1999/02/22-rdf-syntax-ns#" xmlns:dc="http://purl.org/dc/elements/1.1/" sodipodi:docname="guacamaya.svg" xmlns:sodipodi="http://sodipodi.sourceforge.net/DTD/sodipodi-0.dtd" sodipodi:version="0.32" inkscape:version="0.44" xmlns:cc="http://web.resource.org/cc/" xmlns:inkscape="http://www.inkscape.org/namespaces/inkscape" xmlns="http://www.w3.org/2000/svg" xmlns:xlink="http://www.w3.org/1999/xlink" x="0px" y="0px" width="375.086px" height="302.873px" viewBox="156.777 8.182 375.086 302.873" enable-background="new 156.777 8.182 375.086 302.873" xml:space="preserve">
<sodipodi:namedview id="base" objecttolerance="10.0" gridtolerance="10.0" guidetolerance="10.0" inkscape:pageopacity="0.0" borderopacity="1.0" pagecolor="#ffffff" inkscape:zoom="0.5629782" inkscape:cx="510.51829" showguides="true" inkscape:cy="237.06146" inkscape:window-y="101" inkscape:window-x="3" inkscape:window-height="819" bordercolor="#666666" inkscape:window-width="1148" inkscape:current-layer="svg1923" inkscape:pageshadow="2">
	</sodipodi:namedview>
<g id="g2865" transform="matrix(0.67657, 0, 0, 0.829265, 196.518, 65.2713)">
	
		<path id="path2833" sodipodi:nodetypes="csssssss" fill="#FFED39" fill-opacity="0.9877" stroke="#000000" stroke-width="0.5484" d="   M478.627-26.837c5.046-5.331,8.337-11.114,12.475-11.342c4.14-0.227,4.593,6.011,3.857,13.383   c-0.739,7.372-6.635,20.528-12.703,24.498c-6.067,3.969-13.099,6.919-15.423,6.578c-2.325-0.34,3.987-2.132,4.763-8.393   c0.645-5.222-1.417-7.769,0-14.064C473.012-22.47,473.58-21.506,478.627-26.837z"/>
	
		<path id="path1932" sodipodi:nodetypes="cssssssssssssssssssssssssssssssssssssss" fill="#C5283C" fill-opacity="0.9877" stroke="#000000" stroke-width="0.5484" d="   M-25.179,11.557C15.227,3.849,47.317-5.429,104.1-12.222c58.389-6.986,50.632-9.376,99.136-24.718   c50.631-16.015,84.164-23.048,92.376-26.126c44.395-16.635,53.502,11.588,143.077-3.609c22.57-3.83,49.976,9.748,54.839,21.841   c3.314,8.242-28.366,39.022-53.077,42.124c-24.926,3.13-31.4-9.71-40.36-3.171s15.888,10.191,37.048,59.418   c19.604,45.611-1.165,38.414,13.349,78.679c13.704,38.026,12.62,91.867,21.525,125.865c3.033,11.58-3.122,5.409-9.623-2.51   c-6.5-7.917-13.344-17.583-11.69-12.99c5.434,15.085-22.621,5.608-20.811-3.201c1.85-9.015-15.016-5.797-23.25-5.313   c-8.235,0.485-16.726,58.139-23.75,57.655c-7.022-0.485-4.897-35.919-3.609-52.251c0.671-8.535-21.32-12.654-25.921-22.342   c-4.603-9.687-1.605,8.667-10.861-7.159c-4.43-7.575-6.305-25.958-10.422-33.467c-4.117-7.507-17.482-15.303-20.873-20.873   c-3.39-5.57-16.756-17.399-17.967-22.484c-1.211-5.086-1.642-0.984-3.58-4.375c-1.937-3.39,4.117-6.539,0.969-10.655   c-3.148-4.117-4.844-12.109-7.749-15.5c-2.906-3.391-10.898-8.961-14.531-12.594c-3.632-3.632-12.352-8.961-14.53-13.562   c-2.18-4.602-4.845-15.5-6.783-18.406c-1.936-2.906-6.054-12.109-8.718-16.469c-2.665-4.359-8.476-12.594-10.656-16.468   c-2.18-3.875-4.359-9.446-2.906-13.562c1.453-4.117-5.571-1.937-3.875-6.781c1.695-4.844,14.25-10.383,6.985-9.657   c-7.265,0.727,14.181,16.496-18.515,23.277c-32.694,6.781-73.719-2.48-108.593,0.91c-34.873,3.391-18.648,0.727-48.436,1.938   c-29.788,1.211-44.32,2.664-70.717,2.906c-26.398,0.242-33.179,1.211-34.875-1.938C-54.967,19.064-72.231,20.533-25.179,11.557z"/>
	
		<path id="path2863" sodipodi:nodetypes="cssssss" fill="#062E65" fill-opacity="0.9835" stroke="#000000" stroke-width="0.5484" d="   M208.255-16.346C189.748-14.154-6.033,20.424-20.643,28.46c-14.612,8.036,152.923-14.367,170.456-12.662   c17.532,1.705,33.134,13.746,54.545,6.818c24.839-8.036,32.143-23.377,33.118-27.273c0.974-3.896-39.449,14.611-46.754,11.689   C183.417,4.109,226.761-18.537,208.255-16.346z"/>
	
		<path id="path2845" sodipodi:nodetypes="cssssssssssssssssssssss" fill="#06146D" fill-opacity="0.1646" stroke="#000000" stroke-width="0.5484" d="   M315.513,85.709c-27.586,15.125-43.661,23.4-38.05,27.396c5.612,3.996,58.216-13.698,60.499-11.415   c2.283,2.283-53.269,18.644-51.366,20.546c1.902,1.903,55.933-15.029,58.975-12.936c3.044,2.093-33.864,11.891-46.799,21.307   c-12.937,9.417-7.991,10.273-4.947,16.361c3.044,6.089,14.364,1.808,17.123,7.99c2.758,6.184-10.654,12.748-6.088,16.742   c4.565,3.994,19.785-4.471,24.351-0.761c4.566,3.71-5.897,6.848-6.087,15.601c-0.191,8.751,0.76,15.219,5.327,19.406   c4.566,4.185,8.942-5.518,12.936-2.664c3.995,2.854-1.806,12.366,3.044,14.078c4.851,1.713,13.414-18.359,16.361-7.228   c2.95,11.129-9.131,46.229-4.564,51.746c4.564,5.518,15.694-31.865,22.829-29.678c7.133,2.187-8.658,65.73,5.707,38.43   c14.363-27.301,42.71-108.535,51.747-147.632c9.036-39.096-10.75-6.468-17.503-15.98c-6.754-9.513-1.238-6.659-9.512-22.069   c-8.276-15.41,1.806-32.532-21.69-32.342C364.311,52.796,343.098,70.585,315.513,85.709z"/>
	
		<path id="path2835" sodipodi:nodetypes="czzczczczczczczczczczczczzzczczzczzzczzzzzzzzzzzz" fill="#062E6D" fill-opacity="0.9835" stroke="#000000" stroke-width="0.5484" d="   M240.732-19.422c-41.087-7.554-26.348,6.994-36.112,16.951c-9.396,9.581,25.241,9.028,25.057,12.528   c-0.185,3.5-14.555,7.185-14.739,11.054c-0.185,3.869,12.896,0.553,14.002,4.422c1.106,3.87-12.345,7.37-9.581,11.055   c2.763,3.685,18.793-0.737,20.635,3.685c1.843,4.422-16.766,9.581-13.265,14.003c3.5,4.423,24.137,0.184,27.267,3.685   c3.132,3.5-16.95,6.449-14.739,10.318c2.21,3.869,21.372,0.737,23.582,5.159c2.211,4.422-16.212,8.107-14.739,12.529   c1.474,4.422,17.133,2.027,20.635,5.159c3.5,3.132-10.87,4.607-6.632,7.37c4.238,2.764,19.897-0.369,23.584,3.685   c3.684,4.053-9.949,8.475-8.845,12.529c1.106,4.053,11.425,0,13.266,3.685c1.842,3.685-7.002,7.37-5.896,11.054   c1.106,3.686,8.66-2.027,10.317,3.686c1.658,5.71-7.001,13.08-3.684,19.161c3.315,6.079,12.897-0.369,16.95,5.158   c4.053,5.528-9.58,11.792-0.738,16.951c8.844,3.685,19.43-0.926,23.276-0.405c4.218,0.572-14.131,1.794-4.851,29.885   c2.764,7.37,9.765-3.133,14.002,0.737c4.238,3.869-5.403,16.706,0.738,21.373c5.715,4.344,16.218-22.986,16.214-10.318   c-0.004,12.287-2.653,39.065-0.406,45.362c4.257,2.281,15.144-4.459,22.514-26.2c7.595-22.402-10.286,45.296,4.874,56.748   c7.001-0.922,19.815-52.878,26.079-60.432c6.263-7.555-5.527,14.186-3.685,30.215c1.842,16.029,5.343,33.718,11.055,33.901   c10.87-2.027,6.817-18.24,10.317-33.901c3.5-15.66,3.317-30.215,3.685-28.743c0.368,1.475-2.581,21.373,2.947,36.85   c5.527,15.476,14.002,31.69,19.161,25.057c5.159-6.632-1.474-6.632,0-44.219c1.475-38.323,20.636,33.9,22.11,19.161   s-10.319-53.247-14.74-82.542c-4.421-29.295-0.368-26.162-4.421-42.008c-4.055-15.845-8.627-7.383-11.023-24.887   c-2.395-17.502,2.249-20.658-0.332-34.476c-2.579-13.819-5.125-17.665-15.443-19.323C418.814,64.579,413,76.016,407.289,72.7   c-5.712-3.317,2.764-17.135,0-22.11c-2.764-4.975-6.449,1.105-13.266-2.211c-6.816-3.316,24.321,5.896-14.002-11.054   C341.698,20.374,281.818-11.868,240.732-19.422z"/>
	
		<path id="path2821" sodipodi:nodetypes="ccscccc" fill="#D74829" fill-opacity="0.9959" stroke="#000000" stroke-width="0.5484" d="   M84.305-8.639L-0.858,6.044c0,0-53.99,8.089-57.264,14.683c-4.257,8.574,57.264,2.937,57.264,2.937l88.099-4.405l88.834-8.81   L84.305-8.639z"/>
	
		<path id="path2839" sodipodi:nodetypes="cssssssssss" fill="#062E6D" fill-opacity="0.9794" stroke="#000000" stroke-width="0.5484" d="   M236.428-15.762c-4.404,4.018-13.548,13.043-16.071,16.689c-2.874,4.153,12.341-2.961,11.435-1.545   c-0.924,1.445-17.153,8.19-16.379,10.507c0.772,2.318,19.47-3.091,19.47-1.236c0,1.854-23.952,3.94-18.543,5.254   c5.408,1.314,19.316,1.699,40.177,0c20.862-1.7,35.541,1.777,43.267-6.799c7.727-8.577,3.091-21.943-12.363-27.506   c-15.452-5.563-36.701,4.095-49.447,5.254C225.225-13.984,240.832-19.779,236.428-15.762z"/>
	
		<path id="path2837" sodipodi:nodetypes="csssssssssssss" fill="#06146D" fill-opacity="0.9753" stroke="#000000" stroke-width="0.5484" d="   M287.732,11.673c-35.453,1.814-41.841,0.042-58.792,0.595c-16.951,0.553-21.46,11.445-6.847,12.742   c47.44,4.184,85.218-6.599,83.492-2.496c-3.054,7.259-85.003-3.43-84.634,12.861c0.097,4.252,39.679,5.266,66.946,5.634   c27.269,0.369,43.667-7.002,42.745-6.632c-0.921,0.368-25.794,4.968-46.43,7.179c-20.635,2.212-28.968-2.776-37.347,0.119   c-12.983,4.484-24.696,9.688-19.352,13.005c5.343,3.317,20.706,3.043,41.342,3.043c20.636,0,23.435-0.048,48.308-5.206   c24.873-5.159,56.096-8.362,53.041-18.211C363.386,12.351,317.484,10.151,287.732,11.673z"/>
	
		<path id="path2843" sodipodi:nodetypes="cssssssssssssss" fill="#06146D" fill-opacity="0.9753" stroke="#000000" stroke-width="0.5484" d="   M351.726,83.224c-32.12,15.119-38.685,9.861-60.326,18.25c-15.812,6.132-13.367,14.843-0.19,14.535   c18.694-0.426,38.872-5.622,53.532-10.739c14.661-5.117,16.16-11.339,13.015-7.793c-9.944,11.215-73.123,13.848-69.759,29.792   c1.514,7.176,43.462-5.262,69.694-12.72c22.793-6.479,34.597-16.234,33.61-16.128c-5.332,0.567-17.475,10.673-37.077,17.494   c-19.601,6.821-26.491,8.696-35.349,9.064c-6.611,0.276-33.637,4.954-24.592,12.539c4.818,4.041,28.538,2.284,48.637-2.383   c20.102-4.667,17.066-7.905,40.295-18.19c33.337-14.761,28.776-51.474,21.657-59.611C389.737,40.033,380.5,69.68,351.726,83.224z"/>
	
		<path id="path2841" sodipodi:nodetypes="csssssssssssss" fill="#06146D" fill-opacity="0.9753" stroke="#000000" stroke-width="0.5484" d="   M318.297,51.423c-34.008,10.182-43.561,6.438-60.415,8.328c-16.854,1.89-15.853,9.087-5.819,10.154   c47.358,5.032,84.432-13.311,83.035-9.084c-2.471,7.478-86.167,2.313-85.207,18.58c0.431,7.322,41.989,4.734,69.036,1.255   c23.504-3.023,42.976-10.429,42.087-9.989c-0.888,0.44-25.32,6.991-45.716,10.825c-20.396,3.834-29.097-0.479-37.223,3.069   c-12.586,5.495-19.833,12.226-14.246,15.11c5.59,2.885,16.865,0.78,37.437-0.85c20.571-1.63,18.159-4.897,42.546-12.005   c24.388-7.108,57.678-27.384,53.852-36.961C389.132,28.506,348.764,42.302,318.297,51.423z"/>
	
		<path id="path2825" sodipodi:nodetypes="cssssssssssssssssssssssssssssssssss" fill="#F0DB44" fill-opacity="0.9959" stroke="#000000" stroke-width="0.5484" d="   M272.983-52.688c22.941-13.95,31.936-11.38,46.252-11.747c14.316-0.367,13.765,7.341,11.012,10.278   c-2.753,2.938-23.127,1.469-27.163,4.405c-4.038,2.937,16.336,3.854,11.012,7.342c-5.323,3.487-26.614,3.303-32.303,6.607   c-5.689,3.304,8.076,3.304,9.544,6.607c1.469,3.304-8.809,6.608-3.671,6.608c5.14,0,14.133-5.506,24.228-6.608   c10.094-1.101,16.702-1.101,16.151,2.203c-0.551,3.304-21.289,8.259-18.354,11.012c2.937,2.753,26.063-3.671,30.101,0   c4.038,3.671-15.234,11.196-13.95,14.684c1.285,3.487,13.582-4.039,19.088-0.735c5.507,3.304-1.101,10.095,2.937,13.949   c4.037,3.855,10.095-1.468,13.216,1.469c3.119,2.936-3.304,7.709-0.735,10.279c2.569,2.569,8.442-2.203,11.012,0   c2.569,2.202-4.405,8.075-0.733,8.81c3.671,0.734,12.48-7.709,15.417-5.874s3.121,8.443-3.671,13.215   c-6.791,4.772-17.988,6.24-23.494,5.873c-5.505-0.367,8.812-6.057,1.469-7.342c-7.341-1.285-27.348,4.038-33.772,2.202   c-6.422-1.835,12.664-6.791,8.076-9.544c-4.588-2.753-26.063-0.184-26.429-5.139c-0.367-4.955,29.38-15.74,24.962-14.683   c-8.443,2.018-22.208,8.81-35.975,7.341c-13.765-1.468-17.62-8.076-19.088-13.215c-1.467-5.139,7.893-4.589,13.95-8.81   c6.057-4.222,15.234-8.26,10.278-8.076c-4.955,0.183-28.081,10.461-35.24,10.278c-7.157-0.184,12.481-7.342,6.608-11.013   c-5.872-3.671-24.777,4.955-24.961-5.139C248.573-27.543,256.15-42.453,272.983-52.688z"/>
	
		<path id="path2823" sodipodi:nodetypes="cscssssscs" fill="#3A97D6" fill-opacity="0.9877" stroke="#000000" stroke-width="0.5484" d="   M283.261-54.891c28.465-2.931,30.283,5.873,8.075,19.822C269.128-21.119,228.199-7.17,228.199-7.17s-34.754,15.372-51.391,18.354   c-77.82,13.948-16.281-17.749-24.228-15.417c-76.352,22.392-8.262-11.297-19.088-7.341c-1.477,0.084-14.422,8.522-29.366,11.746   C94.766,2.19,67.107-4.36,82.102-7.17c26.158-4.902,104.25-20.557,104.25-20.557S215.535-47.916,283.261-54.891z"/>
	
		<path id="path2827" sodipodi:nodetypes="cssssssss" fill="#FFFFFE" fill-opacity="0.9918" stroke="#000000" stroke-width="0.5484" d="   M444.775-42.41c4.222-6.057,9.534-2.461,18.528-3.379c8.992-0.917,13.698-4.667,17.448-0.293c0.331,0.388,1.927,3.316,0.893,6.834   c-1.907,6.499-6.845,16.711-11.8,21.666c-4.957,4.955-12.221,11.878-20.664,12.612s-10.854-0.362-11.746-5.139   c-1.145-6.133,5.107-7.008,6.943-15.083C446.211-33.266,440.555-36.353,444.775-42.41z"/>
	<path id="path2829" sodipodi:nodetypes="csss" fill="#020003" fill-opacity="0.9918" stroke="#000000" stroke-width="0.5484" d="   M474.874-28.461c3.395-5.254,3.896,19.963-3.467,21.732c-5.473,1.315-15.271,1.186-21.947,1.707   C443.398-4.548,462.292-8.979,474.874-28.461z"/>
	<path id="path2831" sodipodi:nodetypes="csss" fill="#020003" fill-opacity="0.9918" stroke="#000000" stroke-width="0.5484" d="   M460.934-36.817c0.569-1.589,4.877-3.176,5.671-2.269c0.794,0.907-1.588,4.083-2.95,4.763   C462.297-33.642,460.368-35.23,460.934-36.817z"/>
	
		<path id="path2849" sodipodi:nodetypes="csssssssssssssssssssssssssssssssssssssss" fill="#062E40" fill-opacity="0.9835" stroke="#000000" stroke-width="0.4203" d="   M278.43-17.244c15.906,3.652,8.291-1.935,20.242,6.679c11.951,8.615,42.976,1.162,31.074,0.165   c-11.902-0.996-2.195,13.287-16.926,9.404c-14.731-3.881-4.972,6.545-4.343,8.205c0.628,1.661,4.618-3.191,15.892,0.948   c11.272,4.14,8.399,11.46-4.406,10.138s-7.256,0.68-6.266,3.475s-1.118,4.472,10.224,7.705c11.343,3.233,23.492,7.056,29.704,5.068   c8.816-2.822,15.671,8.078,1.318,8.706c-14.352,0.629-32.525-2.129-45.171-1.673c-12.646,0.456-6.466,1.826-5.411,3.497   c1.056,1.672-3.033,2.562,9.633,3.189c12.663,0.626,28.999-1.509,41.026-0.682c12.026,0.826,7.472,2.051,7.08,3.989   c-0.393,1.938,3.301,0.474-8.655,3.761c-11.954,3.286-44.214,6.487-43.099,9.112c1.114,2.625,46.423-2.536,47.56,1.388   c1.137,3.925-38.483,11.567-39.071,14.581c-0.588,3.015,35.507-5.757,36.718-2.524c1.212,3.233-32.504,13.58-31.872,15.458   c0.631,1.877,36.964-15.197,34.399-7.949c-2.566,7.248-37.536,33.705-44.66,36.943c-7.125,3.236,6.493-14.722,11.917-22.373   c3.517-4.963-39.135,17.315-37.554,13.408c16.303-40.219,40.096-26.759,32.308-29.641c-7.789-2.882-47.646,12.858-45.313,9.748   c30.53-40.679,32.583-18.858,39.404-24.787c6.819-5.928,0.77-8.285-10.017-5.621c-16.047,3.96-40.984,7.189-39.092,3.675   c11.92-22.156,35.83-14.102,37.267-19.821c1.437-5.719-43.882,5.743-40.695,1.61c12.371-16.042,42.172-14.772,48.557-21.143   c6.386-6.372-56.659,3.17-53.751-0.93c8.384-11.817,26.232-8.099,27.293-11.014c1.06-2.916-46.723,1.993-44.118-2.021   c13.234-20.392,25.239-11.605,29.468-16.604c4.229-4.999-35.052,7.87-35.498,4.945C230.506-18.502,263.98-20.562,278.43-17.244z"/>
	
		<path id="path2847" sodipodi:nodetypes="csssssssssssssssssssssssssssssssssssssssssss" fill="#062E40" fill-opacity="0.6872" stroke="#000000" stroke-width="0.5484" d="   M323.532,159.015c13.681-13.43,33.136-32.132,49.705-41.169c16.569-9.037,24.35-8.535,16.569,5.021   c-7.783,13.555-35.02,34.015-47.697,49.202c-12.678,15.187-5.272,11.296-3.013,11.547c2.259,0.251,1.005,0.376,12.05-10.544   c11.046-10.919,20.584-23.094,32.133-33.135c11.547-10.042,11.547-8.787,14.057-7.03c2.512,1.758,5.774-1.506-4.016,14.058   c-9.792,15.563-26.485,33.764-35.145,48.198c-8.66,14.435-3.264,9.038,0.502,9.539c3.764,0.502,4.518,4.017,14.56-7.531   c10.042-11.547,16.819-27.237,25.605-38.657c8.787-11.424,7.657-9.54,9.539-7.03c1.882,2.51,5.273-0.376-2.008,17.07   c-7.281,17.446-20.586,37.404-27.111,52.717c-6.527,15.312-1.505,8.786,1.005,8.535c2.51-0.251,1.254,5.146,9.037-9.539   c7.781-14.685,14.434-35.395,22.09-49.202c7.657-13.806,6.527-7.656,8.536-6.024c2.008,1.632,2.385-3.64-0.504,12.552   c-2.885,16.191-17.194,56.482-13.555,56.732c3.64,0.251,22.97-56.732,28.116-55.729c5.146,1.005-8.16,52.716-5.02,55.228   c3.136,2.51,13.178-45.688,17.572-45.186s-2.512,46.818,0,47.194c2.51,0.376,3.138-53.093,10.04-45.687   c6.902,7.405,17.823,64.891,17.573,75.309c-0.251,10.418-13.305-16.569-19.079-27.614c-3.746-7.164-1.915,56.946-5.522,52.716   c-37.153-43.554-8.411-63.763-16.067-56.232c-7.657,7.531-11.784,64.39-14.059,59.746c-29.747-60.75-3.513-50.081-6.527-61.754   c-3.012-11.673-9.095-5.895-12.048,8.535c-4.394,21.463-14.586,53.061-17.572,48.701c-18.828-27.487,3.766-51.085-2.009-56.231   c-5.772-5.147-20.12,34.39-23.094,28.115c-11.548-24.35,8.786-37.781,5.02-49.202c-3.766-11.421-18.496,18.475-21.588,12.552   c-8.912-17.07,12.802-33.638,10.041-36.651c-2.762-3.012-20.434,22.078-23.597,16.568c-16.066-27.99,6.903-24.098,3.515-32.131   c-3.39-8.033-16.556,3.634-18.075,0C309.977,164.161,309.852,172.446,323.532,159.015z"/>
	<path id="path2851" sodipodi:nodetypes="csssssssssssss" fill="none" stroke="#FCFDFC" stroke-width="0.5484" d="M124.581-13.651   C99.022-8.27,73.161-4.568,89.809-1.368c2.721,0.523,36.669-10.693,46.623-11.232c9.955-0.538-14.486,6.497-5.876,7.842   c8.609,1.345,30.133-6.458,34.437-2.153c4.305,4.305-37.621,17.819-17.218,19.372c20.884,1.59,12.773-1.691,52.733-13.36   c17.982-5.25,70.626-21.87,96.82-42.59c19.616-15.516-16.295-8.051-32.248,5.368c-7.027,5.911,15.293-13.236,8.028-13.236   s-29.837,12.024-33.065,16.329c-3.228,4.305,0.284-13.048-10.477-9.55c-10.762,3.498-11.891,9.082-39.065,17.355   C163.72-19.068,150.141-19.031,124.581-13.651z"/>
	<path id="path2853" sodipodi:nodetypes="cssssssssssss" fill="none" stroke="#FCFDFC" stroke-width="0.4245" d="M264.132,36.793   c-12.98,4.332-30.129,3.607-29.636-5.097c0.346-6.111,14.456,1.96,19.397-8.826c1.928-4.209-15.384,2.348-17.812-1.237   c-5.4-7.98,20.22-9.8,15.725-13.699c-4.495-3.899-27.955,7.569-26.401-1.899c1.593-9.692,2.118-2.044,23.008-13.554   c9.4-5.179,26.952-17.136,56.501-18.43c22.127-0.969,3.363,8.209-15.603,8.614c-8.355,0.178,22.288,1.355,20.019,9.16   c-0.932,3.207-0.834,6.973-7.213,9.117c-14.93,5.017-6.757-1.868-21.372,5.797C266.34,14.293,367.357,2.335,264.132,36.793z"/>
	<path id="path2855" sodipodi:nodetypes="csssssssssssss" fill="none" stroke="#FCFDFC" stroke-width="0.4245" d="M300.547,105.716   c-10.836,8.357-18.642,12.427-19.718,3.777c-0.176-1.414,18.11-5.348,20.441-9.349c2.33-4-10.324,3.088-10.505-1.237   c-0.18-4.325,12.913-9.799,8.418-13.698c-4.495-3.9-39.44,2.349-37.884-7.119c1.593-9.692,18.643,4.778,36.579-10.944   c13.053-11.444,25.908-17.136,55.457-18.43c22.126-0.969,9.627,10.819-9.339,11.223c-8.355,0.178,37.523-3.823,36.199-0.757   c-5.4,12.502-75.963,9.95-58.788,14.162c10.546,2.585,59.198-12.674,34.349,2.262c-5.766,3.466-13.021,0.742-27.637,8.408   C313.716,91.568,311.383,97.358,300.547,105.716z"/>
	<path id="path2857" sodipodi:nodetypes="csssssssssssss" fill="none" stroke="#FCFDFC" stroke-width="0.515" d="M381.752,75.399   c10.25-13.004,18.618-27.458,19.635-13.999c0.167,2.199-18.113,16.443-20.319,22.667c-2.204,6.224,9.763-4.805,9.933,1.925   c0.172,6.73-12.211,15.247-7.959,21.314c4.251,6.068,26.437-11.776,24.967,2.955c-1.505,15.081-3.977,7.241-23.734,25.15   c-8.89,8.058-36.348,30.724-64.294,32.737c-20.925,1.508-6.636-16.834,11.301-17.464c7.902-0.278-17.622,0.328-16.465-4.506   c1.16-4.834,18.551-10.908,24.004-9.853c5.453,1.055-15.013-9.52-9.285-14.078c5.728-4.559,12.314-1.155,26.137-13.082   C369.297,97.412,371.504,88.403,381.752,75.399z"/>
	<path id="path2859" sodipodi:nodetypes="csssssssssssss" fill="none" stroke="#FCFDFC" stroke-width="0.4245" d="M369.447,182.018   c-8.359,10.836-30.697,31.169-22.047,32.245c1.413,0.175,27.793-25.94,31.792-28.27c4.001-2.331-18.745,52.603-14.421,52.783   c4.326,0.18,25.457-55.193,29.357-50.697c3.899,4.496-7.568,27.955,1.9,26.4c9.692-1.592,4.654-4.205,16.163-25.095   c5.179-9.401,19.746-38.435,21.04-67.984c0.969-22.127-10.82-7.019-11.225,11.949c-0.178,8.355,0.212-18.633-2.896-17.408   c-3.106,1.225-7.009,19.615-6.332,25.381c0.678,5.766-6.117-15.874-9.047-9.818c-2.93,6.058-6.484,7.801-14.148,22.417   C382.028,168.326,377.806,171.182,369.447,182.018z"/>
	<path id="path2861" sodipodi:nodetypes="csssssssssssss" fill="none" stroke="#FCFDFC" stroke-width="0.3076" d="M425.846,184.679   c-1.028-10.325,1.82-26.661,8.353-31.956c5.798-4.699-0.616,34.847,0.355,33.495c1.866-2.594,6.539-12.678,9.104-11.627   c2.562,1.05-4.091,31.573-0.257,29.306c3.835-2.266,3.877-29.07,8.805-25.324c5.046,3.835-10.878,1.282,2.62,14.165   c3.87,3.692,1.572,42.266-8.057,64.537c-7.211,16.676-12.376-6.109-5.948-20.288c2.831-6.247-6.422,13.878-7.789,12.12   c-1.367-1.759-1.339-21.688,1.077-25.779c2.418-4.091-29.47,105.098-19.64,21.508c0.621-5.276-9.62-47.035,19.982-34.285   C446.181,215.603,426.873,195.005,425.846,184.679z"/>
</g>
</svg>