<?xml version="1.0" encoding="UTF-8" standalone="no"?>
<svg xmlns:dc="http://purl.org/dc/elements/1.1/" xmlns:cc="http://creativecommons.org/ns#" xmlns:rdf="http://www.w3.org/1999/02/22-rdf-syntax-ns#" xmlns:svg="http://www.w3.org/2000/svg" xmlns="http://www.w3.org/2000/svg" xmlns:sodipodi="http://sodipodi.sourceforge.net/DTD/sodipodi-0.dtd" xmlns:inkscape="http://www.inkscape.org/namespaces/inkscape" style="fill: rgb(0, 0, 0); fill-opacity: 0.5; stroke: none;" width="526.68695" height="243.31831" id="svg17" sodipodi:docbase="/art/" sodipodi:docname="emeza_Dolphin.svg" sodipodi:version="0.32" inkscape:version="0.46" inkscape:output_extension="org.inkscape.output.svg.inkscape" version="1.0">
  <metadata id="metadata2465">
    <rdf:RDF>
      <cc:Work rdf:about="">
        <dc:format>image/svg+xml</dc:format>
        <dc:type rdf:resource="http://purl.org/dc/dcmitype/StillImage"/>
      </cc:Work>
    </rdf:RDF>
  </metadata>
  <defs id="defs19">
    <inkscape:perspective sodipodi:type="inkscape:persp3d" inkscape:vp_x="0 : 420.94489 : 1" inkscape:vp_y="0 : 1000 : 0" inkscape:vp_z="595.27557 : 420.94489 : 1" inkscape:persp3d-origin="297.63779 : 280.62992 : 1" id="perspective2467"/>
  </defs>
  <sodipodi:namedview id="base" showgrid="false" inkscape:zoom="0.53" inkscape:cx="310.33749" inkscape:cy="563.24812" inkscape:window-width="641" inkscape:window-height="763" inkscape:window-x="323" inkscape:window-y="32" inkscape:current-layer="svg17"/>
  <path style="fill: rgb(127, 127, 127); stroke: rgb(0, 0, 0); stroke-width: 1.01821pt; stroke-linecap: butt; stroke-linejoin: miter;" d="M 264.40781,142.86946 C 245.40797,139.39775 143.62677,127.05505 168.00212,143.80675 C 321.95786,221.69247 316.34249,175.60036 428.61093,169.94471 C 440.19918,171.23015 468.11997,162.94744 462.24027,158.57057 C 448.96329,144.47245 300.17914,145.73338 264.40781,142.86946 z" id="path43" sodipodi:nodetypes="ccccc"/>
  <path style="fill: rgb(59, 79, 99); fill-opacity: 0.886926; stroke: rgb(6, 6, 6); stroke-width: 0.647888pt; stroke-linecap: butt; stroke-linejoin: miter;" d="M 172.82508,144.53502 C 157.42465,129.83456 134.50799,120.09805 121.53841,121.43128 C 114.14759,174.90666 113.43771,217.89245 139.91159,221.93717 C 153.87465,151.04163 183.07746,142.33459 172.82508,144.53502 z" id="path46" sodipodi:nodetypes="cccc"/>
  <path style="fill: rgb(127, 127, 127); stroke: none; stroke-width: 1px; stroke-linecap: butt; stroke-linejoin: miter;" d="M 2.9308451,57.259125 C 2.4864942,62.481921 10.550922,64.922706 22.225238,69.912298 C 34.456214,70.430919 89.824928,85.496154 95.967139,84.795843 C 100.81311,77.744484 45.366379,57.301308 35.10802,50.25136 C 24.869108,50.495073 11.472892,50.321088 2.9308451,57.259125 z" id="path49" sodipodi:nodetypes="ccccc"/>
  <path style="fill: rgb(114, 155, 201); fill-opacity: 1; stroke: rgb(0, 0, 0); stroke-width: 0.64789px; stroke-linecap: butt; stroke-linejoin: miter;" id="path31" d="M 225.44172,34.75034 C 192.95479,27.612763 167.7233,13.455822 124.16011,15.938735 C 87.360586,19.992762 60.347155,34.235452 54.867178,44.084279 C 38.481048,42.802603 35.540788,52.566811 19.304342,54.215234 C 24.146772,60.937298 38.796023,62.301462 61.326649,71.487835 C 51.44261,76.374786 88.550598,119.42327 178.07049,152.98721 C 183.32235,204.59898 234.11597,236.01339 257.94313,242.99436 C 265.79919,233.19399 236.11815,213.78865 230.94307,202.12509 C 229.45597,191.27455 233.68945,175.59674 224.54328,167.53398 C 234.31932,168.09685 311.55179,193.11098 327.90202,177.07014 C 381.22427,123.44866 349.25162,179.73159 367.42484,172.70698 C 488.67947,124.50325 448.61789,183.178 460.85048,162.00223 C 465.07662,153.96824 464.30282,142.87874 437.23858,128.15764 C 409.21304,113.69121 392.84806,108.33728 380.43611,98.506433 C 353.12773,74.799502 333.12228,60.641194 304.43789,49.007678 C 270.86444,35.813019 251.48932,35.353194 225.44172,34.75034 z" sodipodi:nodetypes="cccccccccssssssc"/>
  <path style="fill: rgb(249, 249, 249); stroke: rgb(0, 0, 0); stroke-width: 7.94767pt; stroke-linecap: butt; stroke-linejoin: miter;" d="M 163.92916,146.33293 C 36.314232,75.915521 85.37416,93.518437 66.258456,87.60501 C 24.055018,75.33777 2.3974918,69.442937 5.2105831,59.752917 C 71.150828,87.698201 94.841147,74.759209 121.4123,91.658108 C 141.72203,105.38374 93.303034,81.790774 85.521798,86.571394 C 78.902101,90.039388 127.65877,123.14421 151.81777,130.22554 C 159.45137,132.39197 198.00291,165.19607 163.92916,146.33293 z" id="path30" sodipodi:nodetypes="cscssss"/>
  <path style="fill: rgb(59, 79, 99); fill-opacity: 0.85159; stroke: rgb(6, 6, 6); stroke-width: 0.64789pt; stroke-linecap: butt; stroke-linejoin: miter;" d="M 336.31238,70.553955 C 329.46042,66.440636 291.52282,45.605983 279.62234,43.166172 C 326.94301,5.0832647 353.08022,-7.8293938 360.41101,5.5012796 C 331.01363,41.871156 333.40856,50.745219 336.31238,70.553955 z" id="path45" sodipodi:nodetypes="cccc"/>
  <path style="fill: rgb(59, 79, 99); fill-opacity: 0.893993; stroke: rgb(4, 4, 4); stroke-width: 0.64789pt; stroke-linecap: butt; stroke-linejoin: miter;" d="M 455.94935,166.03337 C 459.00759,161.87647 456.04121,157.13052 462.54666,150.40414 C 488.62151,169.039 506.29585,175.32003 526.28204,188.15879 C 505.6974,188.00226 463.33052,163.04799 455.94935,166.03337 z" id="path47" sodipodi:nodetypes="cccc"/>
  <path style="fill: rgb(101, 103, 118); fill-opacity: 0.915194; stroke: rgb(0, 0, 0); stroke-width: 0.64789px; stroke-linecap: butt; stroke-linejoin: miter;" id="path32" d="M 67.401147,33.723573 C 75.820501,27.924238 66.10667,42.479775 77.273315,45.758571 C 95.339922,55.049021 121.81086,65.705861 136.32926,70.051929 C 144.19048,73.026623 147.93913,68.635757 153.31272,62.636214 C 164.36117,58.226448 170.75888,75.848814 166.10635,84.160022 C 162.75468,88.66799 162.05291,84.822091 159.45369,86.767492 C 154.26946,84.904092 150.08466,78.879172 144.90848,77.000347 C 132.40065,72.460519 118.73077,64.737356 106.23099,60.182102 C 87.215148,53.244884 72.394278,51.678598 60.070445,39.931682 C 58.271109,38.233531 64.281878,35.872156 67.401147,33.723573 z" sodipodi:nodetypes="ccscscscss"/>
  <path style="fill: rgb(234, 234, 234); stroke: rgb(0, 0, 0); stroke-width: 0.64789px; stroke-linecap: butt; stroke-linejoin: miter;" id="path36" d="M 149.09093,82.49701 C 146.54526,78.977343 146.81189,61.440566 159.50221,61.259889 C 170.45509,59.493018 179.57625,83.572764 160.222,89.131872 C 147.94332,84.594423 151.44053,86.042233 149.09093,82.49701 z" sodipodi:nodetypes="cccs"/>
  <ellipse style="fill: rgb(249, 249, 249); stroke: rgb(6, 6, 6); stroke-width: 1pt; stroke-linecap: butt; stroke-linejoin: miter;" id="ellipse37" cx="111.51318" cy="218.7068" rx="22" ry="16.5" transform="matrix(0.265374, 0.419563, -0.482921, 0.39558, 236.533, -55.8691)" sodipodi:cx="111.51318" sodipodi:cy="218.7068" sodipodi:rx="22" sodipodi:ry="16.5"/>
  <ellipse sodipodi:ry="10" sodipodi:rx="11" sodipodi:cy="241.2068" sodipodi:cx="145.51317" transform="matrix(0.54341, -0.0822796, 0.273845, 0.730993, 13.4956, -87.8903)" ry="10" rx="11" cy="241.2068" cx="145.51317" id="ellipse38" style="fill: rgb(15, 15, 15); stroke: none; stroke-width: 1px; stroke-linecap: butt; stroke-linejoin: miter;"/>
  <ellipse sodipodi:ry="7.5" sodipodi:rx="11" sodipodi:cy="240.7068" sodipodi:cx="123.51318" transform="matrix(0.321106, -0.0486198, 0.127794, 0.34113, 85.4672, -0.0476985)" ry="7.5" rx="11" cy="240.7068" cx="123.51318" id="ellipse39" style="fill: rgb(247, 247, 247); stroke: none; stroke-width: 1px; stroke-linecap: butt; stroke-linejoin: miter;"/>
  <ellipse style="fill: rgb(127, 127, 127); stroke: none; stroke-width: 1px; stroke-linecap: butt; stroke-linejoin: miter;" id="ellipse29" cx="296.97113" cy="1060.9448" rx="0.66666698" ry="0" transform="matrix(0.361656, 0.463393, -0.500024, 0.42843, 541.95, -469.667)" sodipodi:cx="296.97113" sodipodi:cy="1060.9448" sodipodi:rx="0.66666698" sodipodi:ry="0"/>
  <path style="fill: rgb(59, 80, 99); stroke: rgb(4, 4, 4); stroke-width: 0.621813pt; stroke-linecap: butt; stroke-linejoin: miter;" d="M 157.06626,88.015666 C 153.72455,87.785843 174.63192,94.674779 135.60928,85.41164 C 91.196998,74.869152 169.30387,121.10218 97.032344,85.771369 C 81.525171,78.190516 58.861805,80.183668 18.68507,66.113205 C 12.757723,63.404299 -6.8904771,56.938403 3.7733847,51.571853 C 15.663446,43.446527 52.922938,43.376612 55.482138,45.939431 C 57.936355,49.885877 57.255783,63.521746 157.06626,88.015666 z" id="path33" sodipodi:nodetypes="csscccc"/>
  <path style="fill: rgb(253, 253, 253); stroke: none; stroke-width: 1px; stroke-linecap: butt; stroke-linejoin: miter;" d="M 414.67719,132.59126 C 397.03435,121.77606 338.36263,73.438203 302.65595,72.168424 C 273.85527,63.359862 223.94818,54.516278 227.27247,51.667963 C 226.8917,48.753481 316.55847,68.911397 342.83211,81.505528 C 358.66174,90.081726 428.53024,138.55059 414.67719,132.59126 z" id="path41" sodipodi:nodetypes="ccccc"/>
</svg>