<?xml version="1.0" encoding="UTF-8" standalone="no"?>
<!-- Created with Inkscape (http://www.inkscape.org/) -->
<svg xmlns:dc="http://purl.org/dc/elements/1.1/" xmlns:cc="http://creativecommons.org/ns#" xmlns:rdf="http://www.w3.org/1999/02/22-rdf-syntax-ns#" xmlns:svg="http://www.w3.org/2000/svg" xmlns="http://www.w3.org/2000/svg" xmlns:xlink="http://www.w3.org/1999/xlink" xmlns:sodipodi="http://sodipodi.sourceforge.net/DTD/sodipodi-0.dtd" xmlns:inkscape="http://www.inkscape.org/namespaces/inkscape" width="400" height="300" id="svg7079" sodipodi:version="0.32" inkscape:version="0.46" version="1.0" sodipodi:docname="hops.svg" inkscape:output_extension="org.inkscape.output.svg.inkscape">
  <defs id="defs7081">
    <linearGradient inkscape:collect="always" xlink:href="#linearGradient3218" id="linearGradient5284" gradientUnits="userSpaceOnUse" gradientTransform="matrix(0.0390799, -0.360481, 0.383038, -0.0391675, 192.45, 726.318)" x1="582.2757" y1="304.92752" x2="520.59662" y2="347.58008"/>
    <linearGradient inkscape:collect="always" xlink:href="#linearGradient3218" id="linearGradient5282" gradientUnits="userSpaceOnUse" gradientTransform="matrix(0.137824, -0.335378, 0.378813, 0.0689409, 189.932, 639.962)" x1="582.2757" y1="304.92752" x2="520.59662" y2="347.58008"/>
    <linearGradient inkscape:collect="always" xlink:href="#linearGradient3218" id="linearGradient5280" gradientUnits="userSpaceOnUse" gradientTransform="matrix(-0.0227742, -0.485265, 0.533344, -0.171257, 242.592, 762.338)" x1="582.2757" y1="304.92752" x2="520.59662" y2="347.58008"/>
    <linearGradient inkscape:collect="always" xlink:href="#linearGradient3218" id="linearGradient5278" gradientUnits="userSpaceOnUse" gradientTransform="matrix(0.203758, -0.441003, 0.552184, 0.0942244, -5.71211, 708.62)" x1="582.2757" y1="304.92752" x2="520.59662" y2="347.58008"/>
    <linearGradient inkscape:collect="always" xlink:href="#linearGradient3218" id="linearGradient5276" gradientUnits="userSpaceOnUse" gradientTransform="matrix(0.928732, 0, 0.186847, 0.883931, -280.982, 94.6743)" x1="582.2757" y1="304.92752" x2="520.59662" y2="347.58008"/>
    <linearGradient inkscape:collect="always" xlink:href="#linearGradient4298" id="linearGradient5274" gradientUnits="userSpaceOnUse" x1="391.10043" y1="570.40259" x2="389.57764" y2="605.17273"/>
    <linearGradient inkscape:collect="always" xlink:href="#linearGradient4298" id="linearGradient5272" gradientUnits="userSpaceOnUse" x1="391.10043" y1="570.40259" x2="389.57764" y2="605.17273"/>
    <linearGradient inkscape:collect="always" xlink:href="#linearGradient4298" id="linearGradient5270" gradientUnits="userSpaceOnUse" x1="391.10043" y1="570.40259" x2="389.57764" y2="605.17273"/>
    <linearGradient inkscape:collect="always" xlink:href="#linearGradient4298" id="linearGradient5268" gradientUnits="userSpaceOnUse" x1="391.10043" y1="570.40259" x2="389.57764" y2="605.17273"/>
    <linearGradient inkscape:collect="always" xlink:href="#linearGradient4298" id="linearGradient5266" gradientUnits="userSpaceOnUse" x1="391.10043" y1="570.40259" x2="389.57764" y2="605.17273"/>
    <linearGradient inkscape:collect="always" xlink:href="#linearGradient4298" id="linearGradient5264" gradientUnits="userSpaceOnUse" x1="391.10043" y1="570.40259" x2="389.57764" y2="605.17273"/>
    <linearGradient inkscape:collect="always" xlink:href="#linearGradient4298" id="linearGradient5262" gradientUnits="userSpaceOnUse" x1="391.10043" y1="570.40259" x2="389.57764" y2="605.17273"/>
    <linearGradient inkscape:collect="always" xlink:href="#linearGradient4298" id="linearGradient5260" gradientUnits="userSpaceOnUse" x1="391.10043" y1="570.40259" x2="389.57764" y2="605.17273"/>
    <linearGradient inkscape:collect="always" xlink:href="#linearGradient4298" id="linearGradient5258" gradientUnits="userSpaceOnUse" x1="391.10043" y1="570.40259" x2="389.57764" y2="605.17273"/>
    <linearGradient inkscape:collect="always" xlink:href="#linearGradient4298" id="linearGradient5256" gradientUnits="userSpaceOnUse" x1="391.10043" y1="570.40259" x2="389.57764" y2="605.17273"/>
    <linearGradient inkscape:collect="always" xlink:href="#linearGradient4298" id="linearGradient5254" gradientUnits="userSpaceOnUse" x1="391.10043" y1="570.40259" x2="389.57764" y2="605.17273"/>
    <linearGradient inkscape:collect="always" xlink:href="#linearGradient4298" id="linearGradient5252" gradientUnits="userSpaceOnUse" x1="391.10043" y1="570.40259" x2="389.57764" y2="605.17273"/>
    <linearGradient inkscape:collect="always" xlink:href="#linearGradient4298" id="linearGradient5250" gradientUnits="userSpaceOnUse" x1="391.10043" y1="570.40259" x2="389.57764" y2="605.17273"/>
    <linearGradient inkscape:collect="always" xlink:href="#linearGradient4298" id="linearGradient5248" gradientUnits="userSpaceOnUse" x1="391.10043" y1="570.40259" x2="389.57764" y2="605.17273"/>
    <linearGradient inkscape:collect="always" xlink:href="#linearGradient4298" id="linearGradient5246" gradientUnits="userSpaceOnUse" x1="391.10043" y1="570.40259" x2="389.57764" y2="605.17273"/>
    <linearGradient inkscape:collect="always" xlink:href="#linearGradient4298" id="linearGradient5244" gradientUnits="userSpaceOnUse" x1="391.10043" y1="570.40259" x2="389.57764" y2="605.17273"/>
    <linearGradient inkscape:collect="always" xlink:href="#linearGradient4298" id="linearGradient5242" gradientUnits="userSpaceOnUse" x1="391.10043" y1="570.40259" x2="389.57764" y2="605.17273"/>
    <linearGradient inkscape:collect="always" xlink:href="#linearGradient4298" id="linearGradient5240" gradientUnits="userSpaceOnUse" x1="391.10043" y1="570.40259" x2="389.57764" y2="605.17273"/>
    <linearGradient inkscape:collect="always" xlink:href="#linearGradient4298" id="linearGradient5238" gradientUnits="userSpaceOnUse" x1="391.10043" y1="570.40259" x2="389.57764" y2="605.17273"/>
    <linearGradient inkscape:collect="always" xlink:href="#linearGradient4298" id="linearGradient5236" gradientUnits="userSpaceOnUse" x1="391.10043" y1="570.40259" x2="389.57764" y2="605.17273"/>
    <linearGradient inkscape:collect="always" xlink:href="#linearGradient4298" id="linearGradient5234" gradientUnits="userSpaceOnUse" x1="391.10043" y1="570.40259" x2="389.57764" y2="605.17273"/>
    <linearGradient inkscape:collect="always" xlink:href="#linearGradient4298" id="linearGradient5232" gradientUnits="userSpaceOnUse" x1="391.10043" y1="570.40259" x2="389.57764" y2="605.17273"/>
    <linearGradient inkscape:collect="always" xlink:href="#linearGradient4298" id="linearGradient5230" gradientUnits="userSpaceOnUse" x1="391.10043" y1="570.40259" x2="389.57764" y2="605.17273"/>
    <linearGradient inkscape:collect="always" xlink:href="#linearGradient4298" id="linearGradient5228" gradientUnits="userSpaceOnUse" x1="391.10043" y1="570.40259" x2="389.57764" y2="605.17273"/>
    <filter inkscape:collect="always" x="-0.12077655" width="1.2415531" y="-0.098447032" height="1.196894" id="filter4961">
      <feGaussianBlur inkscape:collect="always" stdDeviation="5.2290756" id="feGaussianBlur4963"/>
    </filter>
    <linearGradient inkscape:collect="always" xlink:href="#linearGradient4298" id="linearGradient5226" gradientUnits="userSpaceOnUse" x1="391.10043" y1="570.40259" x2="389.57764" y2="605.17273"/>
    <linearGradient inkscape:collect="always" xlink:href="#linearGradient4298" id="linearGradient5224" gradientUnits="userSpaceOnUse" x1="391.10043" y1="570.40259" x2="389.57764" y2="605.17273"/>
    <linearGradient inkscape:collect="always" xlink:href="#linearGradient4298" id="linearGradient5222" gradientUnits="userSpaceOnUse" x1="391.10043" y1="570.40259" x2="389.57764" y2="605.17273"/>
    <linearGradient inkscape:collect="always" xlink:href="#linearGradient4298" id="linearGradient5220" gradientUnits="userSpaceOnUse" x1="391.10043" y1="570.40259" x2="389.57764" y2="605.17273"/>
    <linearGradient inkscape:collect="always" xlink:href="#linearGradient4298" id="linearGradient5218" gradientUnits="userSpaceOnUse" x1="391.10043" y1="570.40259" x2="389.57764" y2="605.17273"/>
    <linearGradient inkscape:collect="always" xlink:href="#linearGradient4298" id="linearGradient5216" gradientUnits="userSpaceOnUse" x1="391.10043" y1="570.40259" x2="389.57764" y2="605.17273"/>
    <linearGradient inkscape:collect="always" xlink:href="#linearGradient4298" id="linearGradient5214" gradientUnits="userSpaceOnUse" x1="391.10043" y1="570.40259" x2="389.57764" y2="605.17273"/>
    <linearGradient inkscape:collect="always" xlink:href="#linearGradient4298" id="linearGradient5212" gradientUnits="userSpaceOnUse" x1="391.10043" y1="570.40259" x2="389.57764" y2="605.17273"/>
    <linearGradient inkscape:collect="always" xlink:href="#linearGradient4298" id="linearGradient5210" gradientUnits="userSpaceOnUse" x1="391.10043" y1="570.40259" x2="389.57764" y2="605.17273"/>
    <linearGradient inkscape:collect="always" xlink:href="#linearGradient4298" id="linearGradient5208" gradientUnits="userSpaceOnUse" x1="391.10043" y1="570.40259" x2="389.57764" y2="605.17273"/>
    <linearGradient inkscape:collect="always" xlink:href="#linearGradient4298" id="linearGradient5206" gradientUnits="userSpaceOnUse" x1="391.10043" y1="570.40259" x2="389.57764" y2="605.17273"/>
    <linearGradient inkscape:collect="always" id="linearGradient4298">
      <stop style="stop-color: rgb(0, 255, 0); stop-opacity: 1;" offset="0" id="stop4300"/>
      <stop style="stop-color: rgb(0, 255, 0); stop-opacity: 0;" offset="1" id="stop4302"/>
    </linearGradient>
    <linearGradient inkscape:collect="always" xlink:href="#linearGradient4298" id="linearGradient5204" gradientUnits="userSpaceOnUse" x1="391.10043" y1="570.40259" x2="389.57764" y2="605.17273"/>
    <linearGradient inkscape:collect="always" xlink:href="#linearGradient3218" id="linearGradient5202" gradientUnits="userSpaceOnUse" gradientTransform="matrix(0.0390799, -0.360481, 0.383038, -0.0391675, 192.45, 726.318)" x1="582.2757" y1="304.92752" x2="520.59662" y2="347.58008"/>
    <linearGradient inkscape:collect="always" xlink:href="#linearGradient3218" id="linearGradient5200" gradientUnits="userSpaceOnUse" gradientTransform="matrix(0.137824, -0.335378, 0.378813, 0.0689409, 189.932, 639.962)" x1="582.2757" y1="304.92752" x2="520.59662" y2="347.58008"/>
    <linearGradient inkscape:collect="always" xlink:href="#linearGradient3218" id="linearGradient5198" gradientUnits="userSpaceOnUse" gradientTransform="matrix(-0.0227742, -0.485265, 0.533344, -0.171257, 242.592, 762.338)" x1="582.2757" y1="304.92752" x2="520.59662" y2="347.58008"/>
    <linearGradient inkscape:collect="always" xlink:href="#linearGradient3218" id="linearGradient5196" gradientUnits="userSpaceOnUse" gradientTransform="matrix(0.203758, -0.441003, 0.552184, 0.0942244, -5.71211, 708.62)" x1="582.2757" y1="304.92752" x2="520.59662" y2="347.58008"/>
    <linearGradient inkscape:collect="always" xlink:href="#linearGradient3218" id="linearGradient5194" gradientUnits="userSpaceOnUse" gradientTransform="matrix(0.928732, 0, 0.186847, 0.883931, -280.982, 94.6743)" x1="582.2757" y1="304.92752" x2="520.59662" y2="347.58008"/>
    <linearGradient inkscape:collect="always" id="linearGradient3288">
      <stop style="stop-color: rgb(0, 0, 0); stop-opacity: 1;" offset="0" id="stop3290"/>
      <stop style="stop-color: rgb(0, 0, 0); stop-opacity: 0;" offset="1" id="stop3292"/>
    </linearGradient>
    <linearGradient inkscape:collect="always" xlink:href="#linearGradient3288" id="linearGradient5479" gradientUnits="userSpaceOnUse" gradientTransform="matrix(0.727773, 0.432663, -0.317269, 0.99247, -82.5796, -39.5159)" x1="479.33307" y1="345.54901" x2="492.53503" y2="345.54901"/>
    <linearGradient inkscape:collect="always" xlink:href="#linearGradient3218" id="linearGradient5190" gradientUnits="userSpaceOnUse" gradientTransform="matrix(0.0390799, -0.360481, 0.383038, -0.0391675, 192.45, 726.318)" x1="582.2757" y1="304.92752" x2="520.59662" y2="347.58008"/>
    <linearGradient inkscape:collect="always" xlink:href="#linearGradient3218" id="linearGradient5188" gradientUnits="userSpaceOnUse" gradientTransform="matrix(0.137824, -0.335378, 0.378813, 0.0689409, 189.932, 639.962)" x1="582.2757" y1="304.92752" x2="520.59662" y2="347.58008"/>
    <linearGradient inkscape:collect="always" xlink:href="#linearGradient3218" id="linearGradient5186" gradientUnits="userSpaceOnUse" gradientTransform="matrix(-0.0227742, -0.485265, 0.533344, -0.171257, 242.592, 762.338)" x1="582.2757" y1="304.92752" x2="520.59662" y2="347.58008"/>
    <linearGradient inkscape:collect="always" xlink:href="#linearGradient3218" id="linearGradient5184" gradientUnits="userSpaceOnUse" gradientTransform="matrix(0.203758, -0.441003, 0.552184, 0.0942244, -5.71211, 708.62)" x1="582.2757" y1="304.92752" x2="520.59662" y2="347.58008"/>
    <linearGradient inkscape:collect="always" id="linearGradient3218">
      <stop style="stop-color: rgb(0, 255, 0); stop-opacity: 1;" offset="0" id="stop3220"/>
      <stop style="stop-color: rgb(0, 255, 0); stop-opacity: 0;" offset="1" id="stop3222"/>
    </linearGradient>
    <linearGradient inkscape:collect="always" xlink:href="#linearGradient3218" id="linearGradient5182" gradientUnits="userSpaceOnUse" gradientTransform="matrix(0.928732, 0, 0.186847, 0.883931, -280.982, 94.6743)" x1="582.2757" y1="304.92752" x2="520.59662" y2="347.58008"/>
    <filter inkscape:collect="always" id="filter4751">
      <feGaussianBlur inkscape:collect="always" stdDeviation="6.7737784" id="feGaussianBlur4753"/>
    </filter>
    <inkscape:perspective sodipodi:type="inkscape:persp3d" inkscape:vp_x="0 : 495 : 1" inkscape:vp_y="0 : 1000 : 0" inkscape:vp_z="765 : 495 : 1" inkscape:persp3d-origin="382.5 : 330 : 1" id="perspective7088"/>
  </defs>
  <sodipodi:namedview inkscape:document-units="in" pagecolor="#ffffff" bordercolor="#666666" borderopacity="1.0" inkscape:pageopacity="0.0" inkscape:pageshadow="2" inkscape:zoom="0.36" inkscape:cx="-64.166667" inkscape:cy="101.41509" inkscape:current-layer="layer1" id="namedview7083" showgrid="false" inkscape:window-width="1101" inkscape:window-height="667" inkscape:window-x="54" inkscape:window-y="145"/>
  <metadata id="metadata7085">
    <rdf:RDF>
      <cc:Work rdf:about="">
        <dc:format>image/svg+xml</dc:format>
        <dc:type rdf:resource="http://purl.org/dc/dcmitype/StillImage"/>
      </cc:Work>
    </rdf:RDF>
  </metadata>
  <g inkscape:label="Layer 1" inkscape:groupmode="layer" id="layer1">
    <g id="g5503" transform="matrix(0.604155, 0, 0, 0.517864, -35.4745, -85.2332)">
      <g style="fill: rgb(0, 0, 0); filter: url(&quot;#filter4751&quot;);" transform="matrix(0.988892, 0.148639, -0.148639, 0.988892, -54.4097, -24.3314)" id="g4777">
        <path style="fill: rgb(0, 0, 0); fill-opacity: 1; stroke: none; stroke-width: 1; stroke-miterlimit: 4; stroke-opacity: 1;" d="M 368.6674,460.06219 C 369.05651,489.59109 370.55304,489.67622 352.4768,501.85439 C 334.19018,514.1743 247.27416,510.10762 247.27416,510.10762 C 247.27416,510.10762 276.19713,483.41997 294.27338,470.38998 C 312.34962,457.35998 330.79757,463.29503 368.6674,460.06219 z" id="path4779" sodipodi:nodetypes="czczc"/>
        <path style="fill: rgb(0, 0, 0); fill-opacity: 1; stroke: none; stroke-width: 1; stroke-miterlimit: 4; stroke-opacity: 1;" d="M 368.27394,461.67586 C 315.46766,462.20034 315.31543,464.21748 293.53731,439.85292 C 271.50574,415.20481 250.18759,342.89136 250.18759,342.89136 C 250.18759,342.89136 326.50342,361.67602 349.80485,386.04058 C 373.10628,410.40514 362.49268,410.63199 368.27394,461.67586 z" id="path4781" sodipodi:nodetypes="czczc"/>
        <path style="fill: rgb(0, 0, 0); fill-opacity: 1; stroke: none; stroke-width: 1; stroke-miterlimit: 4; stroke-opacity: 1;" d="M 371.3855,469.07933 C 379.80934,491.09267 381.17411,490.81467 368.3007,504.05745 C 355.27745,517.45436 319.92744,538.41681 319.92744,538.41681 C 319.92744,538.41681 311.2679,503.50305 323.90839,489.62268 C 336.54887,475.74232 338.32275,480.14623 371.3855,469.07933 z" id="path4783" sodipodi:nodetypes="czczc"/>
        <path style="fill: rgb(0, 0, 0); fill-opacity: 1; stroke: none; stroke-width: 1; stroke-miterlimit: 4; stroke-opacity: 1;" d="M 347.55418,467.20894 C 371.15248,484.9636 370.33727,486.22149 390.84073,478.82781 C 411.58282,471.34809 459.63651,398.80999 459.63651,398.80999 C 459.63651,398.80999 421.01833,406.38661 399.8275,413.27718 C 378.63666,420.16774 372.52998,438.55959 347.55418,467.20894 z" id="path4785" sodipodi:nodetypes="czczc"/>
        <path style="fill: rgb(0, 0, 0); fill-opacity: 1; stroke: none; stroke-width: 1; stroke-miterlimit: 4; stroke-opacity: 1;" d="M 353.2251,474.72808 C 366.01321,494.52739 364.98281,495.46448 383.27239,492.89798 C 401.77485,490.3016 439.56914,474.15725 439.56914,474.15725 C 439.56914,474.15725 416.51034,446.54837 397.84383,448.55034 C 379.17733,450.55231 381.68332,454.58481 353.2251,474.72808 z" id="path4787" sodipodi:nodetypes="czczc"/>
        <path style="fill: rgb(0, 0, 0); fill-opacity: 1; stroke: none; stroke-width: 1; stroke-miterlimit: 4; stroke-opacity: 1;" d="M 343.33325,459.65172 C 312.9561,460.16277 313.2837,462.1283 295.6927,438.38723 C 277.897,414.36986 250.69536,343.9069 250.69536,343.9069 C 250.69536,343.9069 298.62177,362.21086 317.09218,385.95194 C 335.56257,409.69301 329.48205,409.91405 343.33325,459.65172 z" id="path4789" sodipodi:nodetypes="czczc"/>
        <path style="fill: rgb(0, 0, 0); fill-opacity: 1; stroke: none; stroke-width: 1; stroke-miterlimit: 4; stroke-opacity: 1;" d="M 342.33068,487.70725 C 335.96166,502.23743 337.17023,502.48867 319.58107,505.92795 C 301.7872,509.40724 255.06955,507.74003 255.06955,507.74003 C 255.06955,507.74003 276.16978,488.77084 293.95189,484.91398 C 311.73399,481.05713 310.5278,483.99018 342.33068,487.70725 z" id="path4791" sodipodi:nodetypes="czczc"/>
        <path style="fill: rgb(0, 0, 0); fill-opacity: 1; stroke: none; stroke-width: 1; stroke-miterlimit: 4; stroke-opacity: 1;" d="M 449.39331,405.73011 C 450.44922,421.55969 451.63733,421.22479 437.62082,432.3937 C 423.44117,443.69259 381.22721,463.77492 381.22721,463.77492 C 381.22721,463.77492 391.19105,437.20855 405.18601,425.58014 C 419.18096,413.95174 419.46459,417.11042 449.39331,405.73011 z" id="path4793" sodipodi:nodetypes="czczc" inkscape:transform-center-y="6.0932171" inkscape:transform-center-x="19.295188"/>
        <path style="fill: rgb(0, 0, 0); fill-opacity: 1; stroke: none; stroke-width: 1; stroke-miterlimit: 4; stroke-opacity: 1;" d="M 427.54372,470.83889 C 423.23874,481.88737 424.06804,482.0724 412.02792,484.76088 C 399.84768,487.48063 367.82407,486.42922 367.82407,486.42922 C 367.82407,486.42922 382.20643,471.94711 394.37705,468.94107 C 406.54767,465.93503 405.73312,468.16492 427.54372,470.83889 z" id="path4795" sodipodi:nodetypes="czczc" inkscape:transform-center-y="-4.2323324" inkscape:transform-center-x="13.850139"/>
        <path style="fill: rgb(0, 0, 0); fill-opacity: 1; stroke: none; stroke-width: 1; stroke-miterlimit: 4; stroke-opacity: 1;" d="M 373.63141,497.76689 C 372.5701,509.57686 373.41813,509.52387 362.60127,515.45581 C 351.65852,521.45676 320.60661,529.3559 320.60661,529.3559 C 320.60661,529.3559 330.39224,511.4443 341.2461,505.17104 C 352.09997,498.89777 351.93794,501.26624 373.63141,497.76689 z" id="path4797" sodipodi:nodetypes="czczc" inkscape:transform-center-y="1.2942757" inkscape:transform-center-x="14.044514"/>
      </g>
      <g transform="matrix(0.992454, 0.122621, -0.122621, 0.992454, -59.5633, -36.425)" id="g3242">
        <path style="fill: rgb(0, 128, 0); fill-opacity: 1; stroke: none; stroke-width: 1; stroke-miterlimit: 4; stroke-opacity: 1;" d="M 368.6674,460.06219 C 369.05651,489.59109 370.55304,489.67622 352.4768,501.85439 C 334.19018,514.1743 247.27416,510.10762 247.27416,510.10762 C 247.27416,510.10762 276.19713,483.41997 294.27338,470.38998 C 312.34962,457.35998 330.79757,463.29503 368.6674,460.06219 z" id="path3198" sodipodi:nodetypes="czczc"/>
        <path style="fill: rgb(0, 128, 0); fill-opacity: 1; stroke: none; stroke-width: 1; stroke-miterlimit: 4; stroke-opacity: 1;" d="M 368.27394,461.67586 C 315.46766,462.20034 315.31543,464.21748 293.53731,439.85292 C 271.50574,415.20481 250.18759,342.89136 250.18759,342.89136 C 250.18759,342.89136 326.50342,361.67602 349.80485,386.04058 C 373.10628,410.40514 362.49268,410.63199 368.27394,461.67586 z" id="path3200" sodipodi:nodetypes="czczc"/>
        <path style="fill: rgb(0, 128, 0); fill-opacity: 1; stroke: none; stroke-width: 1; stroke-miterlimit: 4; stroke-opacity: 1;" d="M 371.3855,469.07933 C 379.80934,491.09267 381.17411,490.81467 368.3007,504.05745 C 355.27745,517.45436 319.92744,538.41681 319.92744,538.41681 C 319.92744,538.41681 311.2679,503.50305 323.90839,489.62268 C 336.54887,475.74232 338.32275,480.14623 371.3855,469.07933 z" id="path3202" sodipodi:nodetypes="czczc"/>
        <path style="fill: rgb(0, 128, 0); fill-opacity: 1; stroke: none; stroke-width: 1; stroke-miterlimit: 4; stroke-opacity: 1;" d="M 347.55418,467.20894 C 371.15248,484.9636 370.33727,486.22149 390.84073,478.82781 C 411.58282,471.34809 459.63651,398.80999 459.63651,398.80999 C 459.63651,398.80999 421.01833,406.38661 399.8275,413.27718 C 378.63666,420.16774 372.52998,438.55959 347.55418,467.20894 z" id="path3204" sodipodi:nodetypes="czczc"/>
        <path style="fill: rgb(0, 128, 0); fill-opacity: 1; stroke: none; stroke-width: 1; stroke-miterlimit: 4; stroke-opacity: 1;" d="M 353.2251,474.72808 C 366.01321,494.52739 364.98281,495.46448 383.27239,492.89798 C 401.77485,490.3016 439.56914,474.15725 439.56914,474.15725 C 439.56914,474.15725 416.51034,446.54837 397.84383,448.55034 C 379.17733,450.55231 381.68332,454.58481 353.2251,474.72808 z" id="path3206" sodipodi:nodetypes="czczc"/>
        <path style="fill: url(&quot;#linearGradient5182&quot;) rgb(0, 0, 0); fill-opacity: 1; stroke: none; stroke-width: 1; stroke-miterlimit: 4; stroke-opacity: 1;" d="M 343.33325,459.65172 C 312.9561,460.16277 313.2837,462.1283 295.6927,438.38723 C 277.897,414.36986 250.69536,343.9069 250.69536,343.9069 C 250.69536,343.9069 298.62177,362.21086 317.09218,385.95194 C 335.56257,409.69301 329.48205,409.91405 343.33325,459.65172 z" id="path3208" sodipodi:nodetypes="czczc"/>
        <path style="fill: url(&quot;#linearGradient5184&quot;) rgb(0, 0, 0); fill-opacity: 1; stroke: none; stroke-width: 1; stroke-miterlimit: 4; stroke-opacity: 1;" d="M 342.33068,487.70725 C 335.96166,502.23743 337.17023,502.48867 319.58107,505.92795 C 301.7872,509.40724 255.06955,507.74003 255.06955,507.74003 C 255.06955,507.74003 276.16978,488.77084 293.95189,484.91398 C 311.73399,481.05713 310.5278,483.99018 342.33068,487.70725 z" id="path3226" sodipodi:nodetypes="czczc"/>
        <path style="fill: url(&quot;#linearGradient5186&quot;) rgb(0, 0, 0); fill-opacity: 1; stroke: none; stroke-width: 1; stroke-miterlimit: 4; stroke-opacity: 1;" d="M 449.39331,405.73011 C 450.44922,421.55969 451.63733,421.22479 437.62082,432.3937 C 423.44117,443.69259 381.22721,463.77492 381.22721,463.77492 C 381.22721,463.77492 391.19105,437.20855 405.18601,425.58014 C 419.18096,413.95174 419.46459,417.11042 449.39331,405.73011 z" id="path3230" sodipodi:nodetypes="czczc" inkscape:transform-center-y="6.0932171" inkscape:transform-center-x="19.295188"/>
        <path style="fill: url(&quot;#linearGradient5188&quot;) rgb(0, 0, 0); fill-opacity: 1; stroke: none; stroke-width: 1; stroke-miterlimit: 4; stroke-opacity: 1;" d="M 427.54372,470.83889 C 423.23874,481.88737 424.06804,482.0724 412.02792,484.76088 C 399.84768,487.48063 367.82407,486.42922 367.82407,486.42922 C 367.82407,486.42922 382.20643,471.94711 394.37705,468.94107 C 406.54767,465.93503 405.73312,468.16492 427.54372,470.83889 z" id="path3234" sodipodi:nodetypes="czczc" inkscape:transform-center-y="-4.2323324" inkscape:transform-center-x="13.850139"/>
        <path style="fill: url(&quot;#linearGradient5190&quot;) rgb(0, 0, 0); fill-opacity: 1; stroke: none; stroke-width: 1; stroke-miterlimit: 4; stroke-opacity: 1;" d="M 373.63141,497.76689 C 372.5701,509.57686 373.41813,509.52387 362.60127,515.45581 C 351.65852,521.45676 320.60661,529.3559 320.60661,529.3559 C 320.60661,529.3559 330.39224,511.4443 341.2461,505.17104 C 352.09997,498.89777 351.93794,501.26624 373.63141,497.76689 z" id="path3238" sodipodi:nodetypes="czczc" inkscape:transform-center-y="1.2942757" inkscape:transform-center-x="14.044514"/>
      </g>
      <path sodipodi:nodetypes="ccscscscc" id="rect3286" d="M 544.77633,193.11294 C 547.43775,194.69517 548.64629,198.89082 547.48605,202.52023 C 552.04666,275.741 540.68653,429.61605 442.61216,458.49927 C 230.25697,521.03857 174.2406,545.14365 110.98495,689.38585 C 109.82471,693.01526 106.74806,694.66336 104.08663,693.08113 C 101.42522,691.49891 100.21668,687.30326 101.37691,683.67385 C 165.57552,528.69175 268.40964,491.80538 431.34221,439.85849 C 530.97359,408.09357 519.05727,288.88606 537.87802,196.80824 C 539.03826,193.17882 542.11491,191.53073 544.77633,193.11294 z" style="fill: rgb(0, 128, 0); fill-opacity: 1; stroke: url(&quot;#linearGradient5479&quot;) rgb(0, 0, 0); stroke-width: 0.927126; stroke-miterlimit: 4; stroke-opacity: 1;"/>
      <g style="fill: rgb(0, 0, 0); filter: url(&quot;#filter4751&quot;);" transform="matrix(-0.988598, -0.150582, -0.150582, 0.988598, 968.783, -16.5368)" id="g4715">
        <path style="fill: rgb(0, 0, 0); fill-opacity: 1; stroke: none; stroke-width: 1; stroke-miterlimit: 4; stroke-opacity: 1;" d="M 368.6674,460.06219 C 369.05651,489.59109 370.55304,489.67622 352.4768,501.85439 C 334.19018,514.1743 247.27416,510.10762 247.27416,510.10762 C 247.27416,510.10762 276.19713,483.41997 294.27338,470.38998 C 312.34962,457.35998 330.79757,463.29503 368.6674,460.06219 z" id="path4717" sodipodi:nodetypes="czczc"/>
        <path style="fill: rgb(0, 0, 0); fill-opacity: 1; stroke: none; stroke-width: 1; stroke-miterlimit: 4; stroke-opacity: 1;" d="M 368.27394,461.67586 C 315.46766,462.20034 315.31543,464.21748 293.53731,439.85292 C 271.50574,415.20481 250.18759,342.89136 250.18759,342.89136 C 250.18759,342.89136 326.50342,361.67602 349.80485,386.04058 C 373.10628,410.40514 362.49268,410.63199 368.27394,461.67586 z" id="path4719" sodipodi:nodetypes="czczc"/>
        <path style="fill: rgb(0, 0, 0); fill-opacity: 1; stroke: none; stroke-width: 1; stroke-miterlimit: 4; stroke-opacity: 1;" d="M 371.3855,469.07933 C 379.80934,491.09267 381.17411,490.81467 368.3007,504.05745 C 355.27745,517.45436 319.92744,538.41681 319.92744,538.41681 C 319.92744,538.41681 311.2679,503.50305 323.90839,489.62268 C 336.54887,475.74232 338.32275,480.14623 371.3855,469.07933 z" id="path4721" sodipodi:nodetypes="czczc"/>
        <path style="fill: rgb(0, 0, 0); fill-opacity: 1; stroke: none; stroke-width: 1; stroke-miterlimit: 4; stroke-opacity: 1;" d="M 347.55418,467.20894 C 371.15248,484.9636 370.33727,486.22149 390.84073,478.82781 C 411.58282,471.34809 459.63651,398.80999 459.63651,398.80999 C 459.63651,398.80999 421.01833,406.38661 399.8275,413.27718 C 378.63666,420.16774 372.52998,438.55959 347.55418,467.20894 z" id="path4723" sodipodi:nodetypes="czczc"/>
        <path style="fill: rgb(0, 0, 0); fill-opacity: 1; stroke: none; stroke-width: 1; stroke-miterlimit: 4; stroke-opacity: 1;" d="M 353.2251,474.72808 C 366.01321,494.52739 364.98281,495.46448 383.27239,492.89798 C 401.77485,490.3016 439.56914,474.15725 439.56914,474.15725 C 439.56914,474.15725 416.51034,446.54837 397.84383,448.55034 C 379.17733,450.55231 381.68332,454.58481 353.2251,474.72808 z" id="path4725" sodipodi:nodetypes="czczc"/>
        <path style="fill: rgb(0, 0, 0); fill-opacity: 1; stroke: none; stroke-width: 1; stroke-miterlimit: 4; stroke-opacity: 1;" d="M 343.33325,459.65172 C 312.9561,460.16277 313.2837,462.1283 295.6927,438.38723 C 277.897,414.36986 250.69536,343.9069 250.69536,343.9069 C 250.69536,343.9069 298.62177,362.21086 317.09218,385.95194 C 335.56257,409.69301 329.48205,409.91405 343.33325,459.65172 z" id="path4727" sodipodi:nodetypes="czczc"/>
        <path style="fill: rgb(0, 0, 0); fill-opacity: 1; stroke: none; stroke-width: 1; stroke-miterlimit: 4; stroke-opacity: 1;" d="M 342.33068,487.70725 C 335.96166,502.23743 337.17023,502.48867 319.58107,505.92795 C 301.7872,509.40724 255.06955,507.74003 255.06955,507.74003 C 255.06955,507.74003 276.16978,488.77084 293.95189,484.91398 C 311.73399,481.05713 310.5278,483.99018 342.33068,487.70725 z" id="path4729" sodipodi:nodetypes="czczc"/>
        <path style="fill: rgb(0, 0, 0); fill-opacity: 1; stroke: none; stroke-width: 1; stroke-miterlimit: 4; stroke-opacity: 1;" d="M 449.39331,405.73011 C 450.44922,421.55969 451.63733,421.22479 437.62082,432.3937 C 423.44117,443.69259 381.22721,463.77492 381.22721,463.77492 C 381.22721,463.77492 391.19105,437.20855 405.18601,425.58014 C 419.18096,413.95174 419.46459,417.11042 449.39331,405.73011 z" id="path4731" sodipodi:nodetypes="czczc" inkscape:transform-center-y="6.0932171" inkscape:transform-center-x="19.295188"/>
        <path style="fill: rgb(0, 0, 0); fill-opacity: 1; stroke: none; stroke-width: 1; stroke-miterlimit: 4; stroke-opacity: 1;" d="M 427.54372,470.83889 C 423.23874,481.88737 424.06804,482.0724 412.02792,484.76088 C 399.84768,487.48063 367.82407,486.42922 367.82407,486.42922 C 367.82407,486.42922 382.20643,471.94711 394.37705,468.94107 C 406.54767,465.93503 405.73312,468.16492 427.54372,470.83889 z" id="path4733" sodipodi:nodetypes="czczc" inkscape:transform-center-y="-4.2323324" inkscape:transform-center-x="13.850139"/>
        <path style="fill: rgb(0, 0, 0); fill-opacity: 1; stroke: none; stroke-width: 1; stroke-miterlimit: 4; stroke-opacity: 1;" d="M 373.63141,497.76689 C 372.5701,509.57686 373.41813,509.52387 362.60127,515.45581 C 351.65852,521.45676 320.60661,529.3559 320.60661,529.3559 C 320.60661,529.3559 330.39224,511.4443 341.2461,505.17104 C 352.09997,498.89777 351.93794,501.26624 373.63141,497.76689 z" id="path4735" sodipodi:nodetypes="czczc" inkscape:transform-center-y="1.2942757" inkscape:transform-center-x="14.044514"/>
      </g>
      <g transform="matrix(-0.977346, -0.211648, -0.211648, 0.977346, 983.31, 2.88763)" id="g3254">
        <path style="fill: rgb(0, 128, 0); fill-opacity: 1; stroke: none; stroke-width: 1; stroke-miterlimit: 4; stroke-opacity: 1;" d="M 368.6674,460.06219 C 369.05651,489.59109 370.55304,489.67622 352.4768,501.85439 C 334.19018,514.1743 247.27416,510.10762 247.27416,510.10762 C 247.27416,510.10762 276.19713,483.41997 294.27338,470.38998 C 312.34962,457.35998 330.79757,463.29503 368.6674,460.06219 z" id="path3256" sodipodi:nodetypes="czczc"/>
        <path style="fill: rgb(0, 128, 0); fill-opacity: 1; stroke: none; stroke-width: 1; stroke-miterlimit: 4; stroke-opacity: 1;" d="M 368.27394,461.67586 C 315.46766,462.20034 315.31543,464.21748 293.53731,439.85292 C 271.50574,415.20481 250.18759,342.89136 250.18759,342.89136 C 250.18759,342.89136 326.50342,361.67602 349.80485,386.04058 C 373.10628,410.40514 362.49268,410.63199 368.27394,461.67586 z" id="path3258" sodipodi:nodetypes="czczc"/>
        <path style="fill: rgb(0, 128, 0); fill-opacity: 1; stroke: none; stroke-width: 1; stroke-miterlimit: 4; stroke-opacity: 1;" d="M 371.3855,469.07933 C 379.80934,491.09267 381.17411,490.81467 368.3007,504.05745 C 355.27745,517.45436 319.92744,538.41681 319.92744,538.41681 C 319.92744,538.41681 311.2679,503.50305 323.90839,489.62268 C 336.54887,475.74232 338.32275,480.14623 371.3855,469.07933 z" id="path3260" sodipodi:nodetypes="czczc"/>
        <path style="fill: rgb(0, 128, 0); fill-opacity: 1; stroke: none; stroke-width: 1; stroke-miterlimit: 4; stroke-opacity: 1;" d="M 347.55418,467.20894 C 371.15248,484.9636 370.33727,486.22149 390.84073,478.82781 C 411.58282,471.34809 459.63651,398.80999 459.63651,398.80999 C 459.63651,398.80999 421.01833,406.38661 399.8275,413.27718 C 378.63666,420.16774 372.52998,438.55959 347.55418,467.20894 z" id="path3262" sodipodi:nodetypes="czczc"/>
        <path style="fill: rgb(0, 128, 0); fill-opacity: 1; stroke: none; stroke-width: 1; stroke-miterlimit: 4; stroke-opacity: 1;" d="M 353.2251,474.72808 C 366.01321,494.52739 364.98281,495.46448 383.27239,492.89798 C 401.77485,490.3016 439.56914,474.15725 439.56914,474.15725 C 439.56914,474.15725 416.51034,446.54837 397.84383,448.55034 C 379.17733,450.55231 381.68332,454.58481 353.2251,474.72808 z" id="path3264" sodipodi:nodetypes="czczc"/>
        <path style="fill: url(&quot;#linearGradient5194&quot;) rgb(0, 0, 0); fill-opacity: 1; stroke: none; stroke-width: 1; stroke-miterlimit: 4; stroke-opacity: 1;" d="M 343.33325,459.65172 C 312.9561,460.16277 313.2837,462.1283 295.6927,438.38723 C 277.897,414.36986 250.69536,343.9069 250.69536,343.9069 C 250.69536,343.9069 298.62177,362.21086 317.09218,385.95194 C 335.56257,409.69301 329.48205,409.91405 343.33325,459.65172 z" id="path3266" sodipodi:nodetypes="czczc"/>
        <path style="fill: url(&quot;#linearGradient5196&quot;) rgb(0, 0, 0); fill-opacity: 1; stroke: none; stroke-width: 1; stroke-miterlimit: 4; stroke-opacity: 1;" d="M 342.33068,487.70725 C 335.96166,502.23743 337.17023,502.48867 319.58107,505.92795 C 301.7872,509.40724 255.06955,507.74003 255.06955,507.74003 C 255.06955,507.74003 276.16978,488.77084 293.95189,484.91398 C 311.73399,481.05713 310.5278,483.99018 342.33068,487.70725 z" id="path3268" sodipodi:nodetypes="czczc"/>
        <path style="fill: url(&quot;#linearGradient5198&quot;) rgb(0, 0, 0); fill-opacity: 1; stroke: none; stroke-width: 1; stroke-miterlimit: 4; stroke-opacity: 1;" d="M 449.39331,405.73011 C 450.44922,421.55969 451.63733,421.22479 437.62082,432.3937 C 423.44117,443.69259 381.22721,463.77492 381.22721,463.77492 C 381.22721,463.77492 391.19105,437.20855 405.18601,425.58014 C 419.18096,413.95174 419.46459,417.11042 449.39331,405.73011 z" id="path3270" sodipodi:nodetypes="czczc" inkscape:transform-center-y="6.0932171" inkscape:transform-center-x="19.295188"/>
        <path style="fill: url(&quot;#linearGradient5200&quot;) rgb(0, 0, 0); fill-opacity: 1; stroke: none; stroke-width: 1; stroke-miterlimit: 4; stroke-opacity: 1;" d="M 427.54372,470.83889 C 423.23874,481.88737 424.06804,482.0724 412.02792,484.76088 C 399.84768,487.48063 367.82407,486.42922 367.82407,486.42922 C 367.82407,486.42922 382.20643,471.94711 394.37705,468.94107 C 406.54767,465.93503 405.73312,468.16492 427.54372,470.83889 z" id="path3272" sodipodi:nodetypes="czczc" inkscape:transform-center-y="-4.2323324" inkscape:transform-center-x="13.850139"/>
        <path style="fill: url(&quot;#linearGradient5202&quot;) rgb(0, 0, 0); fill-opacity: 1; stroke: none; stroke-width: 1; stroke-miterlimit: 4; stroke-opacity: 1;" d="M 373.63141,497.76689 C 372.5701,509.57686 373.41813,509.52387 362.60127,515.45581 C 351.65852,521.45676 320.60661,529.3559 320.60661,529.3559 C 320.60661,529.3559 330.39224,511.4443 341.2461,505.17104 C 352.09997,498.89777 351.93794,501.26624 373.63141,497.76689 z" id="path3274" sodipodi:nodetypes="czczc" inkscape:transform-center-y="1.2942757" inkscape:transform-center-x="14.044514"/>
      </g>
      <g transform="translate(-22.3341, -18.2733)" id="g4400">
        <g id="g4306" transform="translate(-6.59871, 5.07593)">
          <path sodipodi:nodetypes="ccssc" id="path3324" d="M 414.70351,587.66077 C 414.70351,605.45292 409.01948,609.22199 394.14599,623.44608 C 381.77594,609.24654 372.57329,605.45292 372.57329,587.66077 C 372.57329,569.86862 381.50287,566.08806 393.13081,566.08806 C 404.75875,566.08806 414.70351,569.86862 414.70351,587.66077 z" style="fill: rgb(0, 128, 0); fill-opacity: 1; stroke: none; stroke-width: 1; stroke-miterlimit: 4; stroke-opacity: 1;"/>
          <path sodipodi:nodetypes="ccssc" id="path3327" d="M 411.40415,588.92077 C 411.40415,604.19367 406.67887,607.42907 394.31416,619.63913 C 384.03063,607.45014 376.38023,604.19367 376.38023,588.92077 C 376.38023,573.64786 383.80362,570.4026 393.47022,570.4026 C 403.13682,570.4026 411.40415,573.64786 411.40415,588.92077 z" style="fill: url(&quot;#linearGradient5204&quot;) rgb(0, 0, 0); fill-opacity: 1; stroke: none; stroke-width: 1; stroke-miterlimit: 4; stroke-opacity: 1;"/>
        </g>
        <g id="g4310" transform="translate(-20.0499, -5.32974)">
          <path sodipodi:nodetypes="ccssc" id="path4312" d="M 414.70351,587.66077 C 414.70351,605.45292 409.01948,609.22199 394.14599,623.44608 C 381.77594,609.24654 372.57329,605.45292 372.57329,587.66077 C 372.57329,569.86862 381.50287,566.08806 393.13081,566.08806 C 404.75875,566.08806 414.70351,569.86862 414.70351,587.66077 z" style="fill: rgb(0, 128, 0); fill-opacity: 1; stroke: none; stroke-width: 1; stroke-miterlimit: 4; stroke-opacity: 1;"/>
          <path sodipodi:nodetypes="ccssc" id="path4314" d="M 411.40415,588.92077 C 411.40415,604.19367 406.67887,607.42907 394.31416,619.63913 C 384.03063,607.45014 376.38023,604.19367 376.38023,588.92077 C 376.38023,573.64786 383.80362,570.4026 393.47022,570.4026 C 403.13682,570.4026 411.40415,573.64786 411.40415,588.92077 z" style="fill: url(&quot;#linearGradient5206&quot;) rgb(0, 0, 0); fill-opacity: 1; stroke: none; stroke-width: 1; stroke-miterlimit: 4; stroke-opacity: 1;"/>
        </g>
        <g id="g4318" transform="translate(6.85251, -7.36011)">
          <path sodipodi:nodetypes="ccssc" id="path4320" d="M 414.70351,587.66077 C 414.70351,605.45292 409.01948,609.22199 394.14599,623.44608 C 381.77594,609.24654 372.57329,605.45292 372.57329,587.66077 C 372.57329,569.86862 381.50287,566.08806 393.13081,566.08806 C 404.75875,566.08806 414.70351,569.86862 414.70351,587.66077 z" style="fill: rgb(0, 128, 0); fill-opacity: 1; stroke: none; stroke-width: 1; stroke-miterlimit: 4; stroke-opacity: 1;"/>
          <path sodipodi:nodetypes="ccssc" id="path4322" d="M 411.40415,588.92077 C 411.40415,604.19367 406.67887,607.42907 394.31416,619.63913 C 384.03063,607.45014 376.38023,604.19367 376.38023,588.92077 C 376.38023,573.64786 383.80362,570.4026 393.47022,570.4026 C 403.13682,570.4026 411.40415,573.64786 411.40415,588.92077 z" style="fill: url(&quot;#linearGradient5208&quot;) rgb(0, 0, 0); fill-opacity: 1; stroke: none; stroke-width: 1; stroke-miterlimit: 4; stroke-opacity: 1;"/>
        </g>
        <g id="g4326" transform="translate(-33.7549, -21.0651)">
          <path sodipodi:nodetypes="ccssc" id="path4328" d="M 414.70351,587.66077 C 414.70351,605.45292 409.01948,609.22199 394.14599,623.44608 C 381.77594,609.24654 372.57329,605.45292 372.57329,587.66077 C 372.57329,569.86862 381.50287,566.08806 393.13081,566.08806 C 404.75875,566.08806 414.70351,569.86862 414.70351,587.66077 z" style="fill: rgb(0, 128, 0); fill-opacity: 1; stroke: none; stroke-width: 1; stroke-miterlimit: 4; stroke-opacity: 1;"/>
          <path sodipodi:nodetypes="ccssc" id="path4330" d="M 411.40415,588.92077 C 411.40415,604.19367 406.67887,607.42907 394.31416,619.63913 C 384.03063,607.45014 376.38023,604.19367 376.38023,588.92077 C 376.38023,573.64786 383.80362,570.4026 393.47022,570.4026 C 403.13682,570.4026 411.40415,573.64786 411.40415,588.92077 z" style="fill: url(&quot;#linearGradient5210&quot;) rgb(0, 0, 0); fill-opacity: 1; stroke: none; stroke-width: 1; stroke-miterlimit: 4; stroke-opacity: 1;"/>
        </g>
        <g id="g4334" transform="translate(16.4968, -25.1259)">
          <path sodipodi:nodetypes="ccssc" id="path4336" d="M 414.70351,587.66077 C 414.70351,605.45292 409.01948,609.22199 394.14599,623.44608 C 381.77594,609.24654 372.57329,605.45292 372.57329,587.66077 C 372.57329,569.86862 381.50287,566.08806 393.13081,566.08806 C 404.75875,566.08806 414.70351,569.86862 414.70351,587.66077 z" style="fill: rgb(0, 128, 0); fill-opacity: 1; stroke: none; stroke-width: 1; stroke-miterlimit: 4; stroke-opacity: 1;"/>
          <path sodipodi:nodetypes="ccssc" id="path4338" d="M 411.40415,588.92077 C 411.40415,604.19367 406.67887,607.42907 394.31416,619.63913 C 384.03063,607.45014 376.38023,604.19367 376.38023,588.92077 C 376.38023,573.64786 383.80362,570.4026 393.47022,570.4026 C 403.13682,570.4026 411.40415,573.64786 411.40415,588.92077 z" style="fill: url(&quot;#linearGradient5212&quot;) rgb(0, 0, 0); fill-opacity: 1; stroke: none; stroke-width: 1; stroke-miterlimit: 4; stroke-opacity: 1;"/>
        </g>
        <g id="g4342" transform="translate(-7.86769, -34.7701)">
          <path sodipodi:nodetypes="ccssc" id="path4344" d="M 414.70351,587.66077 C 414.70351,605.45292 409.01948,609.22199 394.14599,623.44608 C 381.77594,609.24654 372.57329,605.45292 372.57329,587.66077 C 372.57329,569.86862 381.50287,566.08806 393.13081,566.08806 C 404.75875,566.08806 414.70351,569.86862 414.70351,587.66077 z" style="fill: rgb(0, 128, 0); fill-opacity: 1; stroke: none; stroke-width: 1; stroke-miterlimit: 4; stroke-opacity: 1;"/>
          <path sodipodi:nodetypes="ccssc" id="path4346" d="M 411.40415,588.92077 C 411.40415,604.19367 406.67887,607.42907 394.31416,619.63913 C 384.03063,607.45014 376.38023,604.19367 376.38023,588.92077 C 376.38023,573.64786 383.80362,570.4026 393.47022,570.4026 C 403.13682,570.4026 411.40415,573.64786 411.40415,588.92077 z" style="fill: url(&quot;#linearGradient5214&quot;) rgb(0, 0, 0); fill-opacity: 1; stroke: none; stroke-width: 1; stroke-miterlimit: 4; stroke-opacity: 1;"/>
        </g>
        <g id="g4352" transform="translate(-36.2929, -42.8916)">
          <path sodipodi:nodetypes="ccssc" id="path4354" d="M 414.70351,587.66077 C 414.70351,605.45292 409.01948,609.22199 394.14599,623.44608 C 381.77594,609.24654 372.57329,605.45292 372.57329,587.66077 C 372.57329,569.86862 381.50287,566.08806 393.13081,566.08806 C 404.75875,566.08806 414.70351,569.86862 414.70351,587.66077 z" style="fill: rgb(0, 128, 0); fill-opacity: 1; stroke: none; stroke-width: 1; stroke-miterlimit: 4; stroke-opacity: 1;"/>
          <path sodipodi:nodetypes="ccssc" id="path4356" d="M 411.40415,588.92077 C 411.40415,604.19367 406.67887,607.42907 394.31416,619.63913 C 384.03063,607.45014 376.38023,604.19367 376.38023,588.92077 C 376.38023,573.64786 383.80362,570.4026 393.47022,570.4026 C 403.13682,570.4026 411.40415,573.64786 411.40415,588.92077 z" style="fill: url(&quot;#linearGradient5216&quot;) rgb(0, 0, 0); fill-opacity: 1; stroke: none; stroke-width: 1; stroke-miterlimit: 4; stroke-opacity: 1;"/>
        </g>
        <g id="g4360" transform="translate(20.5575, -46.4448)">
          <path sodipodi:nodetypes="ccssc" id="path4362" d="M 414.70351,587.66077 C 414.70351,605.45292 409.01948,609.22199 394.14599,623.44608 C 381.77594,609.24654 372.57329,605.45292 372.57329,587.66077 C 372.57329,569.86862 381.50287,566.08806 393.13081,566.08806 C 404.75875,566.08806 414.70351,569.86862 414.70351,587.66077 z" style="fill: rgb(0, 128, 0); fill-opacity: 1; stroke: none; stroke-width: 1; stroke-miterlimit: 4; stroke-opacity: 1;"/>
          <path sodipodi:nodetypes="ccssc" id="path4364" d="M 411.40415,588.92077 C 411.40415,604.19367 406.67887,607.42907 394.31416,619.63913 C 384.03063,607.45014 376.38023,604.19367 376.38023,588.92077 C 376.38023,573.64786 383.80362,570.4026 393.47022,570.4026 C 403.13682,570.4026 411.40415,573.64786 411.40415,588.92077 z" style="fill: url(&quot;#linearGradient5218&quot;) rgb(0, 0, 0); fill-opacity: 1; stroke: none; stroke-width: 1; stroke-miterlimit: 4; stroke-opacity: 1;"/>
        </g>
        <g id="g4368" transform="translate(-10.9133, -55.5814)">
          <path sodipodi:nodetypes="ccssc" id="path4370" d="M 414.70351,587.66077 C 414.70351,605.45292 409.01948,609.22199 394.14599,623.44608 C 381.77594,609.24654 372.57329,605.45292 372.57329,587.66077 C 372.57329,569.86862 381.50287,566.08806 393.13081,566.08806 C 404.75875,566.08806 414.70351,569.86862 414.70351,587.66077 z" style="fill: rgb(0, 128, 0); fill-opacity: 1; stroke: none; stroke-width: 1; stroke-miterlimit: 4; stroke-opacity: 1;"/>
          <path sodipodi:nodetypes="ccssc" id="path4372" d="M 411.40415,588.92077 C 411.40415,604.19367 406.67887,607.42907 394.31416,619.63913 C 384.03063,607.45014 376.38023,604.19367 376.38023,588.92077 C 376.38023,573.64786 383.80362,570.4026 393.47022,570.4026 C 403.13682,570.4026 411.40415,573.64786 411.40415,588.92077 z" style="fill: url(&quot;#linearGradient5220&quot;) rgb(0, 0, 0); fill-opacity: 1; stroke: none; stroke-width: 1; stroke-miterlimit: 4; stroke-opacity: 1;"/>
        </g>
        <g id="g4376" transform="matrix(0.968607, 0.248599, -0.248599, 0.968607, 128.999, -144.412)">
          <path sodipodi:nodetypes="ccssc" id="path4378" d="M 414.70351,587.66077 C 414.70351,605.45292 409.01948,609.22199 394.14599,623.44608 C 381.77594,609.24654 372.57329,605.45292 372.57329,587.66077 C 372.57329,569.86862 381.50287,566.08806 393.13081,566.08806 C 404.75875,566.08806 414.70351,569.86862 414.70351,587.66077 z" style="fill: rgb(0, 128, 0); fill-opacity: 1; stroke: none; stroke-width: 1; stroke-miterlimit: 4; stroke-opacity: 1;"/>
          <path sodipodi:nodetypes="ccssc" id="path4380" d="M 411.40415,588.92077 C 411.40415,604.19367 406.67887,607.42907 394.31416,619.63913 C 384.03063,607.45014 376.38023,604.19367 376.38023,588.92077 C 376.38023,573.64786 383.80362,570.4026 393.47022,570.4026 C 403.13682,570.4026 411.40415,573.64786 411.40415,588.92077 z" style="fill: url(&quot;#linearGradient5222&quot;) rgb(0, 0, 0); fill-opacity: 1; stroke: none; stroke-width: 1; stroke-miterlimit: 4; stroke-opacity: 1;"/>
        </g>
        <g id="g4384" transform="matrix(0.934292, -0.356508, 0.356508, 0.934292, -174.753, 113.175)">
          <path sodipodi:nodetypes="ccssc" id="path4386" d="M 414.70351,587.66077 C 414.70351,605.45292 409.01948,609.22199 394.14599,623.44608 C 381.77594,609.24654 372.57329,605.45292 372.57329,587.66077 C 372.57329,569.86862 381.50287,566.08806 393.13081,566.08806 C 404.75875,566.08806 414.70351,569.86862 414.70351,587.66077 z" style="fill: rgb(0, 128, 0); fill-opacity: 1; stroke: none; stroke-width: 1; stroke-miterlimit: 4; stroke-opacity: 1;"/>
          <path sodipodi:nodetypes="ccssc" id="path4388" d="M 411.40415,588.92077 C 411.40415,604.19367 406.67887,607.42907 394.31416,619.63913 C 384.03063,607.45014 376.38023,604.19367 376.38023,588.92077 C 376.38023,573.64786 383.80362,570.4026 393.47022,570.4026 C 403.13682,570.4026 411.40415,573.64786 411.40415,588.92077 z" style="fill: url(&quot;#linearGradient5224&quot;) rgb(0, 0, 0); fill-opacity: 1; stroke: none; stroke-width: 1; stroke-miterlimit: 4; stroke-opacity: 1;"/>
        </g>
        <g id="g4392" transform="translate(-11.9284, -79.4383)">
          <path sodipodi:nodetypes="ccssc" id="path4394" d="M 414.70351,587.66077 C 414.70351,605.45292 409.01948,609.22199 394.14599,623.44608 C 381.77594,609.24654 372.57329,605.45292 372.57329,587.66077 C 372.57329,569.86862 381.50287,566.08806 393.13081,566.08806 C 404.75875,566.08806 414.70351,569.86862 414.70351,587.66077 z" style="fill: rgb(0, 128, 0); fill-opacity: 1; stroke: none; stroke-width: 1; stroke-miterlimit: 4; stroke-opacity: 1;"/>
          <path sodipodi:nodetypes="ccssc" id="path4396" d="M 411.40415,588.92077 C 411.40415,604.19367 406.67887,607.42907 394.31416,619.63913 C 384.03063,607.45014 376.38023,604.19367 376.38023,588.92077 C 376.38023,573.64786 383.80362,570.4026 393.47022,570.4026 C 403.13682,570.4026 411.40415,573.64786 411.40415,588.92077 z" style="fill: url(&quot;#linearGradient5226&quot;) rgb(0, 0, 0); fill-opacity: 1; stroke: none; stroke-width: 1; stroke-miterlimit: 4; stroke-opacity: 1;"/>
        </g>
      </g>
      <g style="fill: rgb(0, 0, 0); filter: url(&quot;#filter4961&quot;);" transform="matrix(0.894308, -0.447452, 0.447452, 0.894308, -393.036, 321.343)" id="g4799">
        <g style="fill: rgb(0, 0, 0);" id="g4801" transform="translate(-6.59871, 5.07593)">
          <path sodipodi:nodetypes="ccssc" id="path4803" d="M 414.70351,587.66077 C 414.70351,605.45292 409.01948,609.22199 394.14599,623.44608 C 381.77594,609.24654 372.57329,605.45292 372.57329,587.66077 C 372.57329,569.86862 381.50287,566.08806 393.13081,566.08806 C 404.75875,566.08806 414.70351,569.86862 414.70351,587.66077 z" style="fill: rgb(0, 0, 0); fill-opacity: 1; stroke: none; stroke-width: 1; stroke-miterlimit: 4; stroke-opacity: 1;"/>
          <path sodipodi:nodetypes="ccssc" id="path4805" d="M 411.40415,588.92077 C 411.40415,604.19367 406.67887,607.42907 394.31416,619.63913 C 384.03063,607.45014 376.38023,604.19367 376.38023,588.92077 C 376.38023,573.64786 383.80362,570.4026 393.47022,570.4026 C 403.13682,570.4026 411.40415,573.64786 411.40415,588.92077 z" style="fill: rgb(0, 0, 0); fill-opacity: 1; stroke: none; stroke-width: 1; stroke-miterlimit: 4; stroke-opacity: 1;"/>
        </g>
        <g style="fill: rgb(0, 0, 0);" id="g4807" transform="translate(-20.0499, -5.32974)">
          <path sodipodi:nodetypes="ccssc" id="path4809" d="M 414.70351,587.66077 C 414.70351,605.45292 409.01948,609.22199 394.14599,623.44608 C 381.77594,609.24654 372.57329,605.45292 372.57329,587.66077 C 372.57329,569.86862 381.50287,566.08806 393.13081,566.08806 C 404.75875,566.08806 414.70351,569.86862 414.70351,587.66077 z" style="fill: rgb(0, 0, 0); fill-opacity: 1; stroke: none; stroke-width: 1; stroke-miterlimit: 4; stroke-opacity: 1;"/>
          <path sodipodi:nodetypes="ccssc" id="path4811" d="M 411.40415,588.92077 C 411.40415,604.19367 406.67887,607.42907 394.31416,619.63913 C 384.03063,607.45014 376.38023,604.19367 376.38023,588.92077 C 376.38023,573.64786 383.80362,570.4026 393.47022,570.4026 C 403.13682,570.4026 411.40415,573.64786 411.40415,588.92077 z" style="fill: rgb(0, 0, 0); fill-opacity: 1; stroke: none; stroke-width: 1; stroke-miterlimit: 4; stroke-opacity: 1;"/>
        </g>
        <g style="fill: rgb(0, 0, 0);" id="g4813" transform="translate(6.85251, -7.36011)">
          <path sodipodi:nodetypes="ccssc" id="path4815" d="M 414.70351,587.66077 C 414.70351,605.45292 409.01948,609.22199 394.14599,623.44608 C 381.77594,609.24654 372.57329,605.45292 372.57329,587.66077 C 372.57329,569.86862 381.50287,566.08806 393.13081,566.08806 C 404.75875,566.08806 414.70351,569.86862 414.70351,587.66077 z" style="fill: rgb(0, 0, 0); fill-opacity: 1; stroke: none; stroke-width: 1; stroke-miterlimit: 4; stroke-opacity: 1;"/>
          <path sodipodi:nodetypes="ccssc" id="path4817" d="M 411.40415,588.92077 C 411.40415,604.19367 406.67887,607.42907 394.31416,619.63913 C 384.03063,607.45014 376.38023,604.19367 376.38023,588.92077 C 376.38023,573.64786 383.80362,570.4026 393.47022,570.4026 C 403.13682,570.4026 411.40415,573.64786 411.40415,588.92077 z" style="fill: rgb(0, 0, 0); fill-opacity: 1; stroke: none; stroke-width: 1; stroke-miterlimit: 4; stroke-opacity: 1;"/>
        </g>
        <g style="fill: rgb(0, 0, 0);" id="g4819" transform="translate(-33.7549, -21.0651)">
          <path sodipodi:nodetypes="ccssc" id="path4821" d="M 414.70351,587.66077 C 414.70351,605.45292 409.01948,609.22199 394.14599,623.44608 C 381.77594,609.24654 372.57329,605.45292 372.57329,587.66077 C 372.57329,569.86862 381.50287,566.08806 393.13081,566.08806 C 404.75875,566.08806 414.70351,569.86862 414.70351,587.66077 z" style="fill: rgb(0, 0, 0); fill-opacity: 1; stroke: none; stroke-width: 1; stroke-miterlimit: 4; stroke-opacity: 1;"/>
          <path sodipodi:nodetypes="ccssc" id="path4823" d="M 411.40415,588.92077 C 411.40415,604.19367 406.67887,607.42907 394.31416,619.63913 C 384.03063,607.45014 376.38023,604.19367 376.38023,588.92077 C 376.38023,573.64786 383.80362,570.4026 393.47022,570.4026 C 403.13682,570.4026 411.40415,573.64786 411.40415,588.92077 z" style="fill: rgb(0, 0, 0); fill-opacity: 1; stroke: none; stroke-width: 1; stroke-miterlimit: 4; stroke-opacity: 1;"/>
        </g>
        <g style="fill: rgb(0, 0, 0);" id="g4825" transform="translate(16.4968, -25.1259)">
          <path sodipodi:nodetypes="ccssc" id="path4827" d="M 414.70351,587.66077 C 414.70351,605.45292 409.01948,609.22199 394.14599,623.44608 C 381.77594,609.24654 372.57329,605.45292 372.57329,587.66077 C 372.57329,569.86862 381.50287,566.08806 393.13081,566.08806 C 404.75875,566.08806 414.70351,569.86862 414.70351,587.66077 z" style="fill: rgb(0, 0, 0); fill-opacity: 1; stroke: none; stroke-width: 1; stroke-miterlimit: 4; stroke-opacity: 1;"/>
          <path sodipodi:nodetypes="ccssc" id="path4829" d="M 411.40415,588.92077 C 411.40415,604.19367 406.67887,607.42907 394.31416,619.63913 C 384.03063,607.45014 376.38023,604.19367 376.38023,588.92077 C 376.38023,573.64786 383.80362,570.4026 393.47022,570.4026 C 403.13682,570.4026 411.40415,573.64786 411.40415,588.92077 z" style="fill: rgb(0, 0, 0); fill-opacity: 1; stroke: none; stroke-width: 1; stroke-miterlimit: 4; stroke-opacity: 1;"/>
        </g>
        <g style="fill: rgb(0, 0, 0);" id="g4831" transform="translate(-7.86769, -34.7701)">
          <path sodipodi:nodetypes="ccssc" id="path4833" d="M 414.70351,587.66077 C 414.70351,605.45292 409.01948,609.22199 394.14599,623.44608 C 381.77594,609.24654 372.57329,605.45292 372.57329,587.66077 C 372.57329,569.86862 381.50287,566.08806 393.13081,566.08806 C 404.75875,566.08806 414.70351,569.86862 414.70351,587.66077 z" style="fill: rgb(0, 0, 0); fill-opacity: 1; stroke: none; stroke-width: 1; stroke-miterlimit: 4; stroke-opacity: 1;"/>
          <path sodipodi:nodetypes="ccssc" id="path4835" d="M 411.40415,588.92077 C 411.40415,604.19367 406.67887,607.42907 394.31416,619.63913 C 384.03063,607.45014 376.38023,604.19367 376.38023,588.92077 C 376.38023,573.64786 383.80362,570.4026 393.47022,570.4026 C 403.13682,570.4026 411.40415,573.64786 411.40415,588.92077 z" style="fill: rgb(0, 0, 0); fill-opacity: 1; stroke: none; stroke-width: 1; stroke-miterlimit: 4; stroke-opacity: 1;"/>
        </g>
        <g style="fill: rgb(0, 0, 0);" id="g4837" transform="translate(-36.2929, -42.8916)">
          <path sodipodi:nodetypes="ccssc" id="path4839" d="M 414.70351,587.66077 C 414.70351,605.45292 409.01948,609.22199 394.14599,623.44608 C 381.77594,609.24654 372.57329,605.45292 372.57329,587.66077 C 372.57329,569.86862 381.50287,566.08806 393.13081,566.08806 C 404.75875,566.08806 414.70351,569.86862 414.70351,587.66077 z" style="fill: rgb(0, 0, 0); fill-opacity: 1; stroke: none; stroke-width: 1; stroke-miterlimit: 4; stroke-opacity: 1;"/>
          <path sodipodi:nodetypes="ccssc" id="path4841" d="M 411.40415,588.92077 C 411.40415,604.19367 406.67887,607.42907 394.31416,619.63913 C 384.03063,607.45014 376.38023,604.19367 376.38023,588.92077 C 376.38023,573.64786 383.80362,570.4026 393.47022,570.4026 C 403.13682,570.4026 411.40415,573.64786 411.40415,588.92077 z" style="fill: rgb(0, 0, 0); fill-opacity: 1; stroke: none; stroke-width: 1; stroke-miterlimit: 4; stroke-opacity: 1;"/>
        </g>
        <g style="fill: rgb(0, 0, 0);" id="g4843" transform="translate(20.5575, -46.4448)">
          <path sodipodi:nodetypes="ccssc" id="path4845" d="M 414.70351,587.66077 C 414.70351,605.45292 409.01948,609.22199 394.14599,623.44608 C 381.77594,609.24654 372.57329,605.45292 372.57329,587.66077 C 372.57329,569.86862 381.50287,566.08806 393.13081,566.08806 C 404.75875,566.08806 414.70351,569.86862 414.70351,587.66077 z" style="fill: rgb(0, 0, 0); fill-opacity: 1; stroke: none; stroke-width: 1; stroke-miterlimit: 4; stroke-opacity: 1;"/>
          <path sodipodi:nodetypes="ccssc" id="path4847" d="M 411.40415,588.92077 C 411.40415,604.19367 406.67887,607.42907 394.31416,619.63913 C 384.03063,607.45014 376.38023,604.19367 376.38023,588.92077 C 376.38023,573.64786 383.80362,570.4026 393.47022,570.4026 C 403.13682,570.4026 411.40415,573.64786 411.40415,588.92077 z" style="fill: rgb(0, 0, 0); fill-opacity: 1; stroke: none; stroke-width: 1; stroke-miterlimit: 4; stroke-opacity: 1;"/>
        </g>
        <g style="fill: rgb(0, 0, 0);" id="g4849" transform="translate(-10.9133, -55.5814)">
          <path sodipodi:nodetypes="ccssc" id="path4851" d="M 414.70351,587.66077 C 414.70351,605.45292 409.01948,609.22199 394.14599,623.44608 C 381.77594,609.24654 372.57329,605.45292 372.57329,587.66077 C 372.57329,569.86862 381.50287,566.08806 393.13081,566.08806 C 404.75875,566.08806 414.70351,569.86862 414.70351,587.66077 z" style="fill: rgb(0, 0, 0); fill-opacity: 1; stroke: none; stroke-width: 1; stroke-miterlimit: 4; stroke-opacity: 1;"/>
          <path sodipodi:nodetypes="ccssc" id="path4853" d="M 411.40415,588.92077 C 411.40415,604.19367 406.67887,607.42907 394.31416,619.63913 C 384.03063,607.45014 376.38023,604.19367 376.38023,588.92077 C 376.38023,573.64786 383.80362,570.4026 393.47022,570.4026 C 403.13682,570.4026 411.40415,573.64786 411.40415,588.92077 z" style="fill: rgb(0, 0, 0); fill-opacity: 1; stroke: none; stroke-width: 1; stroke-miterlimit: 4; stroke-opacity: 1;"/>
        </g>
        <g style="fill: rgb(0, 0, 0);" id="g4855" transform="matrix(0.968607, 0.248599, -0.248599, 0.968607, 128.999, -144.412)">
          <path sodipodi:nodetypes="ccssc" id="path4857" d="M 414.70351,587.66077 C 414.70351,605.45292 409.01948,609.22199 394.14599,623.44608 C 381.77594,609.24654 372.57329,605.45292 372.57329,587.66077 C 372.57329,569.86862 381.50287,566.08806 393.13081,566.08806 C 404.75875,566.08806 414.70351,569.86862 414.70351,587.66077 z" style="fill: rgb(0, 0, 0); fill-opacity: 1; stroke: none; stroke-width: 1; stroke-miterlimit: 4; stroke-opacity: 1;"/>
          <path sodipodi:nodetypes="ccssc" id="path4859" d="M 411.40415,588.92077 C 411.40415,604.19367 406.67887,607.42907 394.31416,619.63913 C 384.03063,607.45014 376.38023,604.19367 376.38023,588.92077 C 376.38023,573.64786 383.80362,570.4026 393.47022,570.4026 C 403.13682,570.4026 411.40415,573.64786 411.40415,588.92077 z" style="fill: rgb(0, 0, 0); fill-opacity: 1; stroke: none; stroke-width: 1; stroke-miterlimit: 4; stroke-opacity: 1;"/>
        </g>
        <g style="fill: rgb(0, 0, 0);" id="g4861" transform="matrix(0.934292, -0.356508, 0.356508, 0.934292, -174.753, 113.175)">
          <path sodipodi:nodetypes="ccssc" id="path4863" d="M 414.70351,587.66077 C 414.70351,605.45292 409.01948,609.22199 394.14599,623.44608 C 381.77594,609.24654 372.57329,605.45292 372.57329,587.66077 C 372.57329,569.86862 381.50287,566.08806 393.13081,566.08806 C 404.75875,566.08806 414.70351,569.86862 414.70351,587.66077 z" style="fill: rgb(0, 0, 0); fill-opacity: 1; stroke: none; stroke-width: 1; stroke-miterlimit: 4; stroke-opacity: 1;"/>
          <path sodipodi:nodetypes="ccssc" id="path4865" d="M 411.40415,588.92077 C 411.40415,604.19367 406.67887,607.42907 394.31416,619.63913 C 384.03063,607.45014 376.38023,604.19367 376.38023,588.92077 C 376.38023,573.64786 383.80362,570.4026 393.47022,570.4026 C 403.13682,570.4026 411.40415,573.64786 411.40415,588.92077 z" style="fill: rgb(0, 0, 0); fill-opacity: 1; stroke: none; stroke-width: 1; stroke-miterlimit: 4; stroke-opacity: 1;"/>
        </g>
        <g style="fill: rgb(0, 0, 0);" id="g4867" transform="translate(-11.9284, -79.4383)">
          <path sodipodi:nodetypes="ccssc" id="path4869" d="M 414.70351,587.66077 C 414.70351,605.45292 409.01948,609.22199 394.14599,623.44608 C 381.77594,609.24654 372.57329,605.45292 372.57329,587.66077 C 372.57329,569.86862 381.50287,566.08806 393.13081,566.08806 C 404.75875,566.08806 414.70351,569.86862 414.70351,587.66077 z" style="fill: rgb(0, 0, 0); fill-opacity: 1; stroke: none; stroke-width: 1; stroke-miterlimit: 4; stroke-opacity: 1;"/>
          <path sodipodi:nodetypes="ccssc" id="path4871" d="M 411.40415,588.92077 C 411.40415,604.19367 406.67887,607.42907 394.31416,619.63913 C 384.03063,607.45014 376.38023,604.19367 376.38023,588.92077 C 376.38023,573.64786 383.80362,570.4026 393.47022,570.4026 C 403.13682,570.4026 411.40415,573.64786 411.40415,588.92077 z" style="fill: rgb(0, 0, 0); fill-opacity: 1; stroke: none; stroke-width: 1; stroke-miterlimit: 4; stroke-opacity: 1;"/>
        </g>
      </g>
      <g transform="matrix(0.894308, -0.447452, 0.447452, 0.894308, -387.393, 314.157)" id="g4438">
        <g id="g4440" transform="translate(-6.59871, 5.07593)">
          <path sodipodi:nodetypes="ccssc" id="path4442" d="M 414.70351,587.66077 C 414.70351,605.45292 409.01948,609.22199 394.14599,623.44608 C 381.77594,609.24654 372.57329,605.45292 372.57329,587.66077 C 372.57329,569.86862 381.50287,566.08806 393.13081,566.08806 C 404.75875,566.08806 414.70351,569.86862 414.70351,587.66077 z" style="fill: rgb(0, 128, 0); fill-opacity: 1; stroke: none; stroke-width: 1; stroke-miterlimit: 4; stroke-opacity: 1;"/>
          <path sodipodi:nodetypes="ccssc" id="path4444" d="M 411.40415,588.92077 C 411.40415,604.19367 406.67887,607.42907 394.31416,619.63913 C 384.03063,607.45014 376.38023,604.19367 376.38023,588.92077 C 376.38023,573.64786 383.80362,570.4026 393.47022,570.4026 C 403.13682,570.4026 411.40415,573.64786 411.40415,588.92077 z" style="fill: url(&quot;#linearGradient5228&quot;) rgb(0, 0, 0); fill-opacity: 1; stroke: none; stroke-width: 1; stroke-miterlimit: 4; stroke-opacity: 1;"/>
        </g>
        <g id="g4446" transform="translate(-20.0499, -5.32974)">
          <path sodipodi:nodetypes="ccssc" id="path4448" d="M 414.70351,587.66077 C 414.70351,605.45292 409.01948,609.22199 394.14599,623.44608 C 381.77594,609.24654 372.57329,605.45292 372.57329,587.66077 C 372.57329,569.86862 381.50287,566.08806 393.13081,566.08806 C 404.75875,566.08806 414.70351,569.86862 414.70351,587.66077 z" style="fill: rgb(0, 128, 0); fill-opacity: 1; stroke: none; stroke-width: 1; stroke-miterlimit: 4; stroke-opacity: 1;"/>
          <path sodipodi:nodetypes="ccssc" id="path4450" d="M 411.40415,588.92077 C 411.40415,604.19367 406.67887,607.42907 394.31416,619.63913 C 384.03063,607.45014 376.38023,604.19367 376.38023,588.92077 C 376.38023,573.64786 383.80362,570.4026 393.47022,570.4026 C 403.13682,570.4026 411.40415,573.64786 411.40415,588.92077 z" style="fill: url(&quot;#linearGradient5230&quot;) rgb(0, 0, 0); fill-opacity: 1; stroke: none; stroke-width: 1; stroke-miterlimit: 4; stroke-opacity: 1;"/>
        </g>
        <g id="g4452" transform="translate(6.85251, -7.36011)">
          <path sodipodi:nodetypes="ccssc" id="path4454" d="M 414.70351,587.66077 C 414.70351,605.45292 409.01948,609.22199 394.14599,623.44608 C 381.77594,609.24654 372.57329,605.45292 372.57329,587.66077 C 372.57329,569.86862 381.50287,566.08806 393.13081,566.08806 C 404.75875,566.08806 414.70351,569.86862 414.70351,587.66077 z" style="fill: rgb(0, 128, 0); fill-opacity: 1; stroke: none; stroke-width: 1; stroke-miterlimit: 4; stroke-opacity: 1;"/>
          <path sodipodi:nodetypes="ccssc" id="path4456" d="M 411.40415,588.92077 C 411.40415,604.19367 406.67887,607.42907 394.31416,619.63913 C 384.03063,607.45014 376.38023,604.19367 376.38023,588.92077 C 376.38023,573.64786 383.80362,570.4026 393.47022,570.4026 C 403.13682,570.4026 411.40415,573.64786 411.40415,588.92077 z" style="fill: url(&quot;#linearGradient5232&quot;) rgb(0, 0, 0); fill-opacity: 1; stroke: none; stroke-width: 1; stroke-miterlimit: 4; stroke-opacity: 1;"/>
        </g>
        <g id="g4458" transform="translate(-33.7549, -21.0651)">
          <path sodipodi:nodetypes="ccssc" id="path4460" d="M 414.70351,587.66077 C 414.70351,605.45292 409.01948,609.22199 394.14599,623.44608 C 381.77594,609.24654 372.57329,605.45292 372.57329,587.66077 C 372.57329,569.86862 381.50287,566.08806 393.13081,566.08806 C 404.75875,566.08806 414.70351,569.86862 414.70351,587.66077 z" style="fill: rgb(0, 128, 0); fill-opacity: 1; stroke: none; stroke-width: 1; stroke-miterlimit: 4; stroke-opacity: 1;"/>
          <path sodipodi:nodetypes="ccssc" id="path4462" d="M 411.40415,588.92077 C 411.40415,604.19367 406.67887,607.42907 394.31416,619.63913 C 384.03063,607.45014 376.38023,604.19367 376.38023,588.92077 C 376.38023,573.64786 383.80362,570.4026 393.47022,570.4026 C 403.13682,570.4026 411.40415,573.64786 411.40415,588.92077 z" style="fill: url(&quot;#linearGradient5234&quot;) rgb(0, 0, 0); fill-opacity: 1; stroke: none; stroke-width: 1; stroke-miterlimit: 4; stroke-opacity: 1;"/>
        </g>
        <g id="g4464" transform="translate(16.4968, -25.1259)">
          <path sodipodi:nodetypes="ccssc" id="path4466" d="M 414.70351,587.66077 C 414.70351,605.45292 409.01948,609.22199 394.14599,623.44608 C 381.77594,609.24654 372.57329,605.45292 372.57329,587.66077 C 372.57329,569.86862 381.50287,566.08806 393.13081,566.08806 C 404.75875,566.08806 414.70351,569.86862 414.70351,587.66077 z" style="fill: rgb(0, 128, 0); fill-opacity: 1; stroke: none; stroke-width: 1; stroke-miterlimit: 4; stroke-opacity: 1;"/>
          <path sodipodi:nodetypes="ccssc" id="path4468" d="M 411.40415,588.92077 C 411.40415,604.19367 406.67887,607.42907 394.31416,619.63913 C 384.03063,607.45014 376.38023,604.19367 376.38023,588.92077 C 376.38023,573.64786 383.80362,570.4026 393.47022,570.4026 C 403.13682,570.4026 411.40415,573.64786 411.40415,588.92077 z" style="fill: url(&quot;#linearGradient5236&quot;) rgb(0, 0, 0); fill-opacity: 1; stroke: none; stroke-width: 1; stroke-miterlimit: 4; stroke-opacity: 1;"/>
        </g>
        <g id="g4470" transform="translate(-7.86769, -34.7701)">
          <path sodipodi:nodetypes="ccssc" id="path4472" d="M 414.70351,587.66077 C 414.70351,605.45292 409.01948,609.22199 394.14599,623.44608 C 381.77594,609.24654 372.57329,605.45292 372.57329,587.66077 C 372.57329,569.86862 381.50287,566.08806 393.13081,566.08806 C 404.75875,566.08806 414.70351,569.86862 414.70351,587.66077 z" style="fill: rgb(0, 128, 0); fill-opacity: 1; stroke: none; stroke-width: 1; stroke-miterlimit: 4; stroke-opacity: 1;"/>
          <path sodipodi:nodetypes="ccssc" id="path4474" d="M 411.40415,588.92077 C 411.40415,604.19367 406.67887,607.42907 394.31416,619.63913 C 384.03063,607.45014 376.38023,604.19367 376.38023,588.92077 C 376.38023,573.64786 383.80362,570.4026 393.47022,570.4026 C 403.13682,570.4026 411.40415,573.64786 411.40415,588.92077 z" style="fill: url(&quot;#linearGradient5238&quot;) rgb(0, 0, 0); fill-opacity: 1; stroke: none; stroke-width: 1; stroke-miterlimit: 4; stroke-opacity: 1;"/>
        </g>
        <g id="g4476" transform="translate(-36.2929, -42.8916)">
          <path sodipodi:nodetypes="ccssc" id="path4478" d="M 414.70351,587.66077 C 414.70351,605.45292 409.01948,609.22199 394.14599,623.44608 C 381.77594,609.24654 372.57329,605.45292 372.57329,587.66077 C 372.57329,569.86862 381.50287,566.08806 393.13081,566.08806 C 404.75875,566.08806 414.70351,569.86862 414.70351,587.66077 z" style="fill: rgb(0, 128, 0); fill-opacity: 1; stroke: none; stroke-width: 1; stroke-miterlimit: 4; stroke-opacity: 1;"/>
          <path sodipodi:nodetypes="ccssc" id="path4480" d="M 411.40415,588.92077 C 411.40415,604.19367 406.67887,607.42907 394.31416,619.63913 C 384.03063,607.45014 376.38023,604.19367 376.38023,588.92077 C 376.38023,573.64786 383.80362,570.4026 393.47022,570.4026 C 403.13682,570.4026 411.40415,573.64786 411.40415,588.92077 z" style="fill: url(&quot;#linearGradient5240&quot;) rgb(0, 0, 0); fill-opacity: 1; stroke: none; stroke-width: 1; stroke-miterlimit: 4; stroke-opacity: 1;"/>
        </g>
        <g id="g4482" transform="translate(20.5575, -46.4448)">
          <path sodipodi:nodetypes="ccssc" id="path4484" d="M 414.70351,587.66077 C 414.70351,605.45292 409.01948,609.22199 394.14599,623.44608 C 381.77594,609.24654 372.57329,605.45292 372.57329,587.66077 C 372.57329,569.86862 381.50287,566.08806 393.13081,566.08806 C 404.75875,566.08806 414.70351,569.86862 414.70351,587.66077 z" style="fill: rgb(0, 128, 0); fill-opacity: 1; stroke: none; stroke-width: 1; stroke-miterlimit: 4; stroke-opacity: 1;"/>
          <path sodipodi:nodetypes="ccssc" id="path4486" d="M 411.40415,588.92077 C 411.40415,604.19367 406.67887,607.42907 394.31416,619.63913 C 384.03063,607.45014 376.38023,604.19367 376.38023,588.92077 C 376.38023,573.64786 383.80362,570.4026 393.47022,570.4026 C 403.13682,570.4026 411.40415,573.64786 411.40415,588.92077 z" style="fill: url(&quot;#linearGradient5242&quot;) rgb(0, 0, 0); fill-opacity: 1; stroke: none; stroke-width: 1; stroke-miterlimit: 4; stroke-opacity: 1;"/>
        </g>
        <g id="g4488" transform="translate(-10.9133, -55.5814)">
          <path sodipodi:nodetypes="ccssc" id="path4490" d="M 414.70351,587.66077 C 414.70351,605.45292 409.01948,609.22199 394.14599,623.44608 C 381.77594,609.24654 372.57329,605.45292 372.57329,587.66077 C 372.57329,569.86862 381.50287,566.08806 393.13081,566.08806 C 404.75875,566.08806 414.70351,569.86862 414.70351,587.66077 z" style="fill: rgb(0, 128, 0); fill-opacity: 1; stroke: none; stroke-width: 1; stroke-miterlimit: 4; stroke-opacity: 1;"/>
          <path sodipodi:nodetypes="ccssc" id="path4492" d="M 411.40415,588.92077 C 411.40415,604.19367 406.67887,607.42907 394.31416,619.63913 C 384.03063,607.45014 376.38023,604.19367 376.38023,588.92077 C 376.38023,573.64786 383.80362,570.4026 393.47022,570.4026 C 403.13682,570.4026 411.40415,573.64786 411.40415,588.92077 z" style="fill: url(&quot;#linearGradient5244&quot;) rgb(0, 0, 0); fill-opacity: 1; stroke: none; stroke-width: 1; stroke-miterlimit: 4; stroke-opacity: 1;"/>
        </g>
        <g id="g4494" transform="matrix(0.968607, 0.248599, -0.248599, 0.968607, 128.999, -144.412)">
          <path sodipodi:nodetypes="ccssc" id="path4496" d="M 414.70351,587.66077 C 414.70351,605.45292 409.01948,609.22199 394.14599,623.44608 C 381.77594,609.24654 372.57329,605.45292 372.57329,587.66077 C 372.57329,569.86862 381.50287,566.08806 393.13081,566.08806 C 404.75875,566.08806 414.70351,569.86862 414.70351,587.66077 z" style="fill: rgb(0, 128, 0); fill-opacity: 1; stroke: none; stroke-width: 1; stroke-miterlimit: 4; stroke-opacity: 1;"/>
          <path sodipodi:nodetypes="ccssc" id="path4498" d="M 411.40415,588.92077 C 411.40415,604.19367 406.67887,607.42907 394.31416,619.63913 C 384.03063,607.45014 376.38023,604.19367 376.38023,588.92077 C 376.38023,573.64786 383.80362,570.4026 393.47022,570.4026 C 403.13682,570.4026 411.40415,573.64786 411.40415,588.92077 z" style="fill: url(&quot;#linearGradient5246&quot;) rgb(0, 0, 0); fill-opacity: 1; stroke: none; stroke-width: 1; stroke-miterlimit: 4; stroke-opacity: 1;"/>
        </g>
        <g id="g4500" transform="matrix(0.934292, -0.356508, 0.356508, 0.934292, -174.753, 113.175)">
          <path sodipodi:nodetypes="ccssc" id="path4502" d="M 414.70351,587.66077 C 414.70351,605.45292 409.01948,609.22199 394.14599,623.44608 C 381.77594,609.24654 372.57329,605.45292 372.57329,587.66077 C 372.57329,569.86862 381.50287,566.08806 393.13081,566.08806 C 404.75875,566.08806 414.70351,569.86862 414.70351,587.66077 z" style="fill: rgb(0, 128, 0); fill-opacity: 1; stroke: none; stroke-width: 1; stroke-miterlimit: 4; stroke-opacity: 1;"/>
          <path sodipodi:nodetypes="ccssc" id="path4504" d="M 411.40415,588.92077 C 411.40415,604.19367 406.67887,607.42907 394.31416,619.63913 C 384.03063,607.45014 376.38023,604.19367 376.38023,588.92077 C 376.38023,573.64786 383.80362,570.4026 393.47022,570.4026 C 403.13682,570.4026 411.40415,573.64786 411.40415,588.92077 z" style="fill: url(&quot;#linearGradient5248&quot;) rgb(0, 0, 0); fill-opacity: 1; stroke: none; stroke-width: 1; stroke-miterlimit: 4; stroke-opacity: 1;"/>
        </g>
        <g id="g4506" transform="translate(-11.9284, -79.4383)">
          <path sodipodi:nodetypes="ccssc" id="path4508" d="M 414.70351,587.66077 C 414.70351,605.45292 409.01948,609.22199 394.14599,623.44608 C 381.77594,609.24654 372.57329,605.45292 372.57329,587.66077 C 372.57329,569.86862 381.50287,566.08806 393.13081,566.08806 C 404.75875,566.08806 414.70351,569.86862 414.70351,587.66077 z" style="fill: rgb(0, 128, 0); fill-opacity: 1; stroke: none; stroke-width: 1; stroke-miterlimit: 4; stroke-opacity: 1;"/>
          <path sodipodi:nodetypes="ccssc" id="path4510" d="M 411.40415,588.92077 C 411.40415,604.19367 406.67887,607.42907 394.31416,619.63913 C 384.03063,607.45014 376.38023,604.19367 376.38023,588.92077 C 376.38023,573.64786 383.80362,570.4026 393.47022,570.4026 C 403.13682,570.4026 411.40415,573.64786 411.40415,588.92077 z" style="fill: url(&quot;#linearGradient5250&quot;) rgb(0, 0, 0); fill-opacity: 1; stroke: none; stroke-width: 1; stroke-miterlimit: 4; stroke-opacity: 1;"/>
        </g>
      </g>
      <g transform="matrix(0.866296, -0.499532, 0.499532, 0.866296, -99.2822, 191.711)" id="g4536">
        <g id="g4538" transform="translate(-6.59871, 5.07593)">
          <path sodipodi:nodetypes="ccssc" id="path4540" d="M 414.70351,587.66077 C 414.70351,605.45292 409.01948,609.22199 394.14599,623.44608 C 381.77594,609.24654 372.57329,605.45292 372.57329,587.66077 C 372.57329,569.86862 381.50287,566.08806 393.13081,566.08806 C 404.75875,566.08806 414.70351,569.86862 414.70351,587.66077 z" style="fill: rgb(0, 128, 0); fill-opacity: 1; stroke: none; stroke-width: 1; stroke-miterlimit: 4; stroke-opacity: 1;"/>
          <path sodipodi:nodetypes="ccssc" id="path4542" d="M 411.40415,588.92077 C 411.40415,604.19367 406.67887,607.42907 394.31416,619.63913 C 384.03063,607.45014 376.38023,604.19367 376.38023,588.92077 C 376.38023,573.64786 383.80362,570.4026 393.47022,570.4026 C 403.13682,570.4026 411.40415,573.64786 411.40415,588.92077 z" style="fill: url(&quot;#linearGradient5252&quot;) rgb(0, 0, 0); fill-opacity: 1; stroke: none; stroke-width: 1; stroke-miterlimit: 4; stroke-opacity: 1;"/>
        </g>
        <g id="g4544" transform="translate(-20.0499, -5.32974)">
          <path sodipodi:nodetypes="ccssc" id="path4546" d="M 414.70351,587.66077 C 414.70351,605.45292 409.01948,609.22199 394.14599,623.44608 C 381.77594,609.24654 372.57329,605.45292 372.57329,587.66077 C 372.57329,569.86862 381.50287,566.08806 393.13081,566.08806 C 404.75875,566.08806 414.70351,569.86862 414.70351,587.66077 z" style="fill: rgb(0, 128, 0); fill-opacity: 1; stroke: none; stroke-width: 1; stroke-miterlimit: 4; stroke-opacity: 1;"/>
          <path sodipodi:nodetypes="ccssc" id="path4548" d="M 411.40415,588.92077 C 411.40415,604.19367 406.67887,607.42907 394.31416,619.63913 C 384.03063,607.45014 376.38023,604.19367 376.38023,588.92077 C 376.38023,573.64786 383.80362,570.4026 393.47022,570.4026 C 403.13682,570.4026 411.40415,573.64786 411.40415,588.92077 z" style="fill: url(&quot;#linearGradient5254&quot;) rgb(0, 0, 0); fill-opacity: 1; stroke: none; stroke-width: 1; stroke-miterlimit: 4; stroke-opacity: 1;"/>
        </g>
        <g id="g4550" transform="translate(6.85251, -7.36011)">
          <path sodipodi:nodetypes="ccssc" id="path4552" d="M 414.70351,587.66077 C 414.70351,605.45292 409.01948,609.22199 394.14599,623.44608 C 381.77594,609.24654 372.57329,605.45292 372.57329,587.66077 C 372.57329,569.86862 381.50287,566.08806 393.13081,566.08806 C 404.75875,566.08806 414.70351,569.86862 414.70351,587.66077 z" style="fill: rgb(0, 128, 0); fill-opacity: 1; stroke: none; stroke-width: 1; stroke-miterlimit: 4; stroke-opacity: 1;"/>
          <path sodipodi:nodetypes="ccssc" id="path4554" d="M 411.40415,588.92077 C 411.40415,604.19367 406.67887,607.42907 394.31416,619.63913 C 384.03063,607.45014 376.38023,604.19367 376.38023,588.92077 C 376.38023,573.64786 383.80362,570.4026 393.47022,570.4026 C 403.13682,570.4026 411.40415,573.64786 411.40415,588.92077 z" style="fill: url(&quot;#linearGradient5256&quot;) rgb(0, 0, 0); fill-opacity: 1; stroke: none; stroke-width: 1; stroke-miterlimit: 4; stroke-opacity: 1;"/>
        </g>
        <g id="g4556" transform="translate(-33.7549, -21.0651)">
          <path sodipodi:nodetypes="ccssc" id="path4558" d="M 414.70351,587.66077 C 414.70351,605.45292 409.01948,609.22199 394.14599,623.44608 C 381.77594,609.24654 372.57329,605.45292 372.57329,587.66077 C 372.57329,569.86862 381.50287,566.08806 393.13081,566.08806 C 404.75875,566.08806 414.70351,569.86862 414.70351,587.66077 z" style="fill: rgb(0, 128, 0); fill-opacity: 1; stroke: none; stroke-width: 1; stroke-miterlimit: 4; stroke-opacity: 1;"/>
          <path sodipodi:nodetypes="ccssc" id="path4560" d="M 411.40415,588.92077 C 411.40415,604.19367 406.67887,607.42907 394.31416,619.63913 C 384.03063,607.45014 376.38023,604.19367 376.38023,588.92077 C 376.38023,573.64786 383.80362,570.4026 393.47022,570.4026 C 403.13682,570.4026 411.40415,573.64786 411.40415,588.92077 z" style="fill: url(&quot;#linearGradient5258&quot;) rgb(0, 0, 0); fill-opacity: 1; stroke: none; stroke-width: 1; stroke-miterlimit: 4; stroke-opacity: 1;"/>
        </g>
        <g id="g4562" transform="translate(16.4968, -25.1259)">
          <path sodipodi:nodetypes="ccssc" id="path4564" d="M 414.70351,587.66077 C 414.70351,605.45292 409.01948,609.22199 394.14599,623.44608 C 381.77594,609.24654 372.57329,605.45292 372.57329,587.66077 C 372.57329,569.86862 381.50287,566.08806 393.13081,566.08806 C 404.75875,566.08806 414.70351,569.86862 414.70351,587.66077 z" style="fill: rgb(0, 128, 0); fill-opacity: 1; stroke: none; stroke-width: 1; stroke-miterlimit: 4; stroke-opacity: 1;"/>
          <path sodipodi:nodetypes="ccssc" id="path4566" d="M 411.40415,588.92077 C 411.40415,604.19367 406.67887,607.42907 394.31416,619.63913 C 384.03063,607.45014 376.38023,604.19367 376.38023,588.92077 C 376.38023,573.64786 383.80362,570.4026 393.47022,570.4026 C 403.13682,570.4026 411.40415,573.64786 411.40415,588.92077 z" style="fill: url(&quot;#linearGradient5260&quot;) rgb(0, 0, 0); fill-opacity: 1; stroke: none; stroke-width: 1; stroke-miterlimit: 4; stroke-opacity: 1;"/>
        </g>
        <g id="g4568" transform="translate(-7.86769, -34.7701)">
          <path sodipodi:nodetypes="ccssc" id="path4570" d="M 414.70351,587.66077 C 414.70351,605.45292 409.01948,609.22199 394.14599,623.44608 C 381.77594,609.24654 372.57329,605.45292 372.57329,587.66077 C 372.57329,569.86862 381.50287,566.08806 393.13081,566.08806 C 404.75875,566.08806 414.70351,569.86862 414.70351,587.66077 z" style="fill: rgb(0, 128, 0); fill-opacity: 1; stroke: none; stroke-width: 1; stroke-miterlimit: 4; stroke-opacity: 1;"/>
          <path sodipodi:nodetypes="ccssc" id="path4572" d="M 411.40415,588.92077 C 411.40415,604.19367 406.67887,607.42907 394.31416,619.63913 C 384.03063,607.45014 376.38023,604.19367 376.38023,588.92077 C 376.38023,573.64786 383.80362,570.4026 393.47022,570.4026 C 403.13682,570.4026 411.40415,573.64786 411.40415,588.92077 z" style="fill: url(&quot;#linearGradient5262&quot;) rgb(0, 0, 0); fill-opacity: 1; stroke: none; stroke-width: 1; stroke-miterlimit: 4; stroke-opacity: 1;"/>
        </g>
        <g id="g4574" transform="translate(-36.2929, -42.8916)">
          <path sodipodi:nodetypes="ccssc" id="path4576" d="M 414.70351,587.66077 C 414.70351,605.45292 409.01948,609.22199 394.14599,623.44608 C 381.77594,609.24654 372.57329,605.45292 372.57329,587.66077 C 372.57329,569.86862 381.50287,566.08806 393.13081,566.08806 C 404.75875,566.08806 414.70351,569.86862 414.70351,587.66077 z" style="fill: rgb(0, 128, 0); fill-opacity: 1; stroke: none; stroke-width: 1; stroke-miterlimit: 4; stroke-opacity: 1;"/>
          <path sodipodi:nodetypes="ccssc" id="path4578" d="M 411.40415,588.92077 C 411.40415,604.19367 406.67887,607.42907 394.31416,619.63913 C 384.03063,607.45014 376.38023,604.19367 376.38023,588.92077 C 376.38023,573.64786 383.80362,570.4026 393.47022,570.4026 C 403.13682,570.4026 411.40415,573.64786 411.40415,588.92077 z" style="fill: url(&quot;#linearGradient5264&quot;) rgb(0, 0, 0); fill-opacity: 1; stroke: none; stroke-width: 1; stroke-miterlimit: 4; stroke-opacity: 1;"/>
        </g>
        <g id="g4580" transform="translate(20.5575, -46.4448)">
          <path sodipodi:nodetypes="ccssc" id="path4582" d="M 414.70351,587.66077 C 414.70351,605.45292 409.01948,609.22199 394.14599,623.44608 C 381.77594,609.24654 372.57329,605.45292 372.57329,587.66077 C 372.57329,569.86862 381.50287,566.08806 393.13081,566.08806 C 404.75875,566.08806 414.70351,569.86862 414.70351,587.66077 z" style="fill: rgb(0, 128, 0); fill-opacity: 1; stroke: none; stroke-width: 1; stroke-miterlimit: 4; stroke-opacity: 1;"/>
          <path sodipodi:nodetypes="ccssc" id="path4584" d="M 411.40415,588.92077 C 411.40415,604.19367 406.67887,607.42907 394.31416,619.63913 C 384.03063,607.45014 376.38023,604.19367 376.38023,588.92077 C 376.38023,573.64786 383.80362,570.4026 393.47022,570.4026 C 403.13682,570.4026 411.40415,573.64786 411.40415,588.92077 z" style="fill: url(&quot;#linearGradient5266&quot;) rgb(0, 0, 0); fill-opacity: 1; stroke: none; stroke-width: 1; stroke-miterlimit: 4; stroke-opacity: 1;"/>
        </g>
        <g id="g4586" transform="translate(-10.9133, -55.5814)">
          <path sodipodi:nodetypes="ccssc" id="path4588" d="M 414.70351,587.66077 C 414.70351,605.45292 409.01948,609.22199 394.14599,623.44608 C 381.77594,609.24654 372.57329,605.45292 372.57329,587.66077 C 372.57329,569.86862 381.50287,566.08806 393.13081,566.08806 C 404.75875,566.08806 414.70351,569.86862 414.70351,587.66077 z" style="fill: rgb(0, 128, 0); fill-opacity: 1; stroke: none; stroke-width: 1; stroke-miterlimit: 4; stroke-opacity: 1;"/>
          <path sodipodi:nodetypes="ccssc" id="path4590" d="M 411.40415,588.92077 C 411.40415,604.19367 406.67887,607.42907 394.31416,619.63913 C 384.03063,607.45014 376.38023,604.19367 376.38023,588.92077 C 376.38023,573.64786 383.80362,570.4026 393.47022,570.4026 C 403.13682,570.4026 411.40415,573.64786 411.40415,588.92077 z" style="fill: url(&quot;#linearGradient5268&quot;) rgb(0, 0, 0); fill-opacity: 1; stroke: none; stroke-width: 1; stroke-miterlimit: 4; stroke-opacity: 1;"/>
        </g>
        <g id="g4592" transform="matrix(0.968607, 0.248599, -0.248599, 0.968607, 128.999, -144.412)">
          <path sodipodi:nodetypes="ccssc" id="path4594" d="M 414.70351,587.66077 C 414.70351,605.45292 409.01948,609.22199 394.14599,623.44608 C 381.77594,609.24654 372.57329,605.45292 372.57329,587.66077 C 372.57329,569.86862 381.50287,566.08806 393.13081,566.08806 C 404.75875,566.08806 414.70351,569.86862 414.70351,587.66077 z" style="fill: rgb(0, 128, 0); fill-opacity: 1; stroke: none; stroke-width: 1; stroke-miterlimit: 4; stroke-opacity: 1;"/>
          <path sodipodi:nodetypes="ccssc" id="path4596" d="M 411.40415,588.92077 C 411.40415,604.19367 406.67887,607.42907 394.31416,619.63913 C 384.03063,607.45014 376.38023,604.19367 376.38023,588.92077 C 376.38023,573.64786 383.80362,570.4026 393.47022,570.4026 C 403.13682,570.4026 411.40415,573.64786 411.40415,588.92077 z" style="fill: url(&quot;#linearGradient5270&quot;) rgb(0, 0, 0); fill-opacity: 1; stroke: none; stroke-width: 1; stroke-miterlimit: 4; stroke-opacity: 1;"/>
        </g>
        <g id="g4598" transform="matrix(0.934292, -0.356508, 0.356508, 0.934292, -174.753, 113.175)">
          <path sodipodi:nodetypes="ccssc" id="path4600" d="M 414.70351,587.66077 C 414.70351,605.45292 409.01948,609.22199 394.14599,623.44608 C 381.77594,609.24654 372.57329,605.45292 372.57329,587.66077 C 372.57329,569.86862 381.50287,566.08806 393.13081,566.08806 C 404.75875,566.08806 414.70351,569.86862 414.70351,587.66077 z" style="fill: rgb(0, 128, 0); fill-opacity: 1; stroke: none; stroke-width: 1; stroke-miterlimit: 4; stroke-opacity: 1;"/>
          <path sodipodi:nodetypes="ccssc" id="path4602" d="M 411.40415,588.92077 C 411.40415,604.19367 406.67887,607.42907 394.31416,619.63913 C 384.03063,607.45014 376.38023,604.19367 376.38023,588.92077 C 376.38023,573.64786 383.80362,570.4026 393.47022,570.4026 C 403.13682,570.4026 411.40415,573.64786 411.40415,588.92077 z" style="fill: url(&quot;#linearGradient5272&quot;) rgb(0, 0, 0); fill-opacity: 1; stroke: none; stroke-width: 1; stroke-miterlimit: 4; stroke-opacity: 1;"/>
        </g>
        <g id="g4604" transform="translate(-11.9284, -79.4383)">
          <path sodipodi:nodetypes="ccssc" id="path4606" d="M 414.70351,587.66077 C 414.70351,605.45292 409.01948,609.22199 394.14599,623.44608 C 381.77594,609.24654 372.57329,605.45292 372.57329,587.66077 C 372.57329,569.86862 381.50287,566.08806 393.13081,566.08806 C 404.75875,566.08806 414.70351,569.86862 414.70351,587.66077 z" style="fill: rgb(0, 128, 0); fill-opacity: 1; stroke: none; stroke-width: 1; stroke-miterlimit: 4; stroke-opacity: 1;"/>
          <path sodipodi:nodetypes="ccssc" id="path4608" d="M 411.40415,588.92077 C 411.40415,604.19367 406.67887,607.42907 394.31416,619.63913 C 384.03063,607.45014 376.38023,604.19367 376.38023,588.92077 C 376.38023,573.64786 383.80362,570.4026 393.47022,570.4026 C 403.13682,570.4026 411.40415,573.64786 411.40415,588.92077 z" style="fill: url(&quot;#linearGradient5274&quot;) rgb(0, 0, 0); fill-opacity: 1; stroke: none; stroke-width: 1; stroke-miterlimit: 4; stroke-opacity: 1;"/>
        </g>
      </g>
      <g style="fill: rgb(0, 0, 0); filter: url(&quot;#filter4751&quot;);" transform="matrix(-0.201341, -0.979521, -0.979521, 0.201341, 945.858, 728.422)" id="g4755">
        <path style="fill: rgb(0, 0, 0); fill-opacity: 1; stroke: none; stroke-width: 1; stroke-miterlimit: 4; stroke-opacity: 1;" d="M 368.6674,460.06219 C 369.05651,489.59109 370.55304,489.67622 352.4768,501.85439 C 334.19018,514.1743 247.27416,510.10762 247.27416,510.10762 C 247.27416,510.10762 276.19713,483.41997 294.27338,470.38998 C 312.34962,457.35998 330.79757,463.29503 368.6674,460.06219 z" id="path4757" sodipodi:nodetypes="czczc"/>
        <path style="fill: rgb(0, 0, 0); fill-opacity: 1; stroke: none; stroke-width: 1; stroke-miterlimit: 4; stroke-opacity: 1;" d="M 368.27394,461.67586 C 315.46766,462.20034 315.31543,464.21748 293.53731,439.85292 C 271.50574,415.20481 250.18759,342.89136 250.18759,342.89136 C 250.18759,342.89136 326.50342,361.67602 349.80485,386.04058 C 373.10628,410.40514 362.49268,410.63199 368.27394,461.67586 z" id="path4759" sodipodi:nodetypes="czczc"/>
        <path style="fill: rgb(0, 0, 0); fill-opacity: 1; stroke: none; stroke-width: 1; stroke-miterlimit: 4; stroke-opacity: 1;" d="M 371.3855,469.07933 C 379.80934,491.09267 381.17411,490.81467 368.3007,504.05745 C 355.27745,517.45436 319.92744,538.41681 319.92744,538.41681 C 319.92744,538.41681 311.2679,503.50305 323.90839,489.62268 C 336.54887,475.74232 338.32275,480.14623 371.3855,469.07933 z" id="path4761" sodipodi:nodetypes="czczc"/>
        <path style="fill: rgb(0, 0, 0); fill-opacity: 1; stroke: none; stroke-width: 1; stroke-miterlimit: 4; stroke-opacity: 1;" d="M 347.55418,467.20894 C 371.15248,484.9636 370.33727,486.22149 390.84073,478.82781 C 411.58282,471.34809 459.63651,398.80999 459.63651,398.80999 C 459.63651,398.80999 421.01833,406.38661 399.8275,413.27718 C 378.63666,420.16774 372.52998,438.55959 347.55418,467.20894 z" id="path4763" sodipodi:nodetypes="czczc"/>
        <path style="fill: rgb(0, 0, 0); fill-opacity: 1; stroke: none; stroke-width: 1; stroke-miterlimit: 4; stroke-opacity: 1;" d="M 353.2251,474.72808 C 366.01321,494.52739 364.98281,495.46448 383.27239,492.89798 C 401.77485,490.3016 439.56914,474.15725 439.56914,474.15725 C 439.56914,474.15725 416.51034,446.54837 397.84383,448.55034 C 379.17733,450.55231 381.68332,454.58481 353.2251,474.72808 z" id="path4765" sodipodi:nodetypes="czczc"/>
        <path style="fill: rgb(0, 0, 0); fill-opacity: 1; stroke: none; stroke-width: 1; stroke-miterlimit: 4; stroke-opacity: 1;" d="M 343.33325,459.65172 C 312.9561,460.16277 313.2837,462.1283 295.6927,438.38723 C 277.897,414.36986 250.69536,343.9069 250.69536,343.9069 C 250.69536,343.9069 298.62177,362.21086 317.09218,385.95194 C 335.56257,409.69301 329.48205,409.91405 343.33325,459.65172 z" id="path4767" sodipodi:nodetypes="czczc"/>
        <path style="fill: rgb(0, 0, 0); fill-opacity: 1; stroke: none; stroke-width: 1; stroke-miterlimit: 4; stroke-opacity: 1;" d="M 342.33068,487.70725 C 335.96166,502.23743 337.17023,502.48867 319.58107,505.92795 C 301.7872,509.40724 255.06955,507.74003 255.06955,507.74003 C 255.06955,507.74003 276.16978,488.77084 293.95189,484.91398 C 311.73399,481.05713 310.5278,483.99018 342.33068,487.70725 z" id="path4769" sodipodi:nodetypes="czczc"/>
        <path style="fill: rgb(0, 0, 0); fill-opacity: 1; stroke: none; stroke-width: 1; stroke-miterlimit: 4; stroke-opacity: 1;" d="M 449.39331,405.73011 C 450.44922,421.55969 451.63733,421.22479 437.62082,432.3937 C 423.44117,443.69259 381.22721,463.77492 381.22721,463.77492 C 381.22721,463.77492 391.19105,437.20855 405.18601,425.58014 C 419.18096,413.95174 419.46459,417.11042 449.39331,405.73011 z" id="path4771" sodipodi:nodetypes="czczc" inkscape:transform-center-y="6.0932171" inkscape:transform-center-x="19.295188"/>
        <path style="fill: rgb(0, 0, 0); fill-opacity: 1; stroke: none; stroke-width: 1; stroke-miterlimit: 4; stroke-opacity: 1;" d="M 427.54372,470.83889 C 423.23874,481.88737 424.06804,482.0724 412.02792,484.76088 C 399.84768,487.48063 367.82407,486.42922 367.82407,486.42922 C 367.82407,486.42922 382.20643,471.94711 394.37705,468.94107 C 406.54767,465.93503 405.73312,468.16492 427.54372,470.83889 z" id="path4773" sodipodi:nodetypes="czczc" inkscape:transform-center-y="-4.2323324" inkscape:transform-center-x="13.850139"/>
        <path style="fill: rgb(0, 0, 0); fill-opacity: 1; stroke: none; stroke-width: 1; stroke-miterlimit: 4; stroke-opacity: 1;" d="M 373.63141,497.76689 C 372.5701,509.57686 373.41813,509.52387 362.60127,515.45581 C 351.65852,521.45676 320.60661,529.3559 320.60661,529.3559 C 320.60661,529.3559 330.39224,511.4443 341.2461,505.17104 C 352.09997,498.89777 351.93794,501.26624 373.63141,497.76689 z" id="path4775" sodipodi:nodetypes="czczc" inkscape:transform-center-y="1.2942757" inkscape:transform-center-x="14.044514"/>
      </g>
      <g transform="matrix(-0.201341, -0.979521, -0.979521, 0.201341, 943.012, 726.122)" id="g4683">
        <path style="fill: rgb(0, 128, 0); fill-opacity: 1; stroke: none; stroke-width: 1; stroke-miterlimit: 4; stroke-opacity: 1;" d="M 368.6674,460.06219 C 369.05651,489.59109 370.55304,489.67622 352.4768,501.85439 C 334.19018,514.1743 247.27416,510.10762 247.27416,510.10762 C 247.27416,510.10762 276.19713,483.41997 294.27338,470.38998 C 312.34962,457.35998 330.79757,463.29503 368.6674,460.06219 z" id="path4685" sodipodi:nodetypes="czczc"/>
        <path style="fill: rgb(0, 128, 0); fill-opacity: 1; stroke: none; stroke-width: 1; stroke-miterlimit: 4; stroke-opacity: 1;" d="M 368.27394,461.67586 C 315.46766,462.20034 315.31543,464.21748 293.53731,439.85292 C 271.50574,415.20481 250.18759,342.89136 250.18759,342.89136 C 250.18759,342.89136 326.50342,361.67602 349.80485,386.04058 C 373.10628,410.40514 362.49268,410.63199 368.27394,461.67586 z" id="path4687" sodipodi:nodetypes="czczc"/>
        <path style="fill: rgb(0, 128, 0); fill-opacity: 1; stroke: none; stroke-width: 1; stroke-miterlimit: 4; stroke-opacity: 1;" d="M 371.3855,469.07933 C 379.80934,491.09267 381.17411,490.81467 368.3007,504.05745 C 355.27745,517.45436 319.92744,538.41681 319.92744,538.41681 C 319.92744,538.41681 311.2679,503.50305 323.90839,489.62268 C 336.54887,475.74232 338.32275,480.14623 371.3855,469.07933 z" id="path4689" sodipodi:nodetypes="czczc"/>
        <path style="fill: rgb(0, 128, 0); fill-opacity: 1; stroke: none; stroke-width: 1; stroke-miterlimit: 4; stroke-opacity: 1;" d="M 347.55418,467.20894 C 371.15248,484.9636 370.33727,486.22149 390.84073,478.82781 C 411.58282,471.34809 459.63651,398.80999 459.63651,398.80999 C 459.63651,398.80999 421.01833,406.38661 399.8275,413.27718 C 378.63666,420.16774 372.52998,438.55959 347.55418,467.20894 z" id="path4691" sodipodi:nodetypes="czczc"/>
        <path style="fill: rgb(0, 128, 0); fill-opacity: 1; stroke: none; stroke-width: 1; stroke-miterlimit: 4; stroke-opacity: 1;" d="M 353.2251,474.72808 C 366.01321,494.52739 364.98281,495.46448 383.27239,492.89798 C 401.77485,490.3016 439.56914,474.15725 439.56914,474.15725 C 439.56914,474.15725 416.51034,446.54837 397.84383,448.55034 C 379.17733,450.55231 381.68332,454.58481 353.2251,474.72808 z" id="path4693" sodipodi:nodetypes="czczc"/>
        <path style="fill: url(&quot;#linearGradient5276&quot;) rgb(0, 0, 0); fill-opacity: 1; stroke: none; stroke-width: 1; stroke-miterlimit: 4; stroke-opacity: 1;" d="M 343.33325,459.65172 C 312.9561,460.16277 313.2837,462.1283 295.6927,438.38723 C 277.897,414.36986 250.69536,343.9069 250.69536,343.9069 C 250.69536,343.9069 298.62177,362.21086 317.09218,385.95194 C 335.56257,409.69301 329.48205,409.91405 343.33325,459.65172 z" id="path4695" sodipodi:nodetypes="czczc"/>
        <path style="fill: url(&quot;#linearGradient5278&quot;) rgb(0, 0, 0); fill-opacity: 1; stroke: none; stroke-width: 1; stroke-miterlimit: 4; stroke-opacity: 1;" d="M 342.33068,487.70725 C 335.96166,502.23743 337.17023,502.48867 319.58107,505.92795 C 301.7872,509.40724 255.06955,507.74003 255.06955,507.74003 C 255.06955,507.74003 276.16978,488.77084 293.95189,484.91398 C 311.73399,481.05713 310.5278,483.99018 342.33068,487.70725 z" id="path4697" sodipodi:nodetypes="czczc"/>
        <path style="fill: url(&quot;#linearGradient5280&quot;) rgb(0, 0, 0); fill-opacity: 1; stroke: none; stroke-width: 1; stroke-miterlimit: 4; stroke-opacity: 1;" d="M 449.39331,405.73011 C 450.44922,421.55969 451.63733,421.22479 437.62082,432.3937 C 423.44117,443.69259 381.22721,463.77492 381.22721,463.77492 C 381.22721,463.77492 391.19105,437.20855 405.18601,425.58014 C 419.18096,413.95174 419.46459,417.11042 449.39331,405.73011 z" id="path4699" sodipodi:nodetypes="czczc" inkscape:transform-center-y="6.0932171" inkscape:transform-center-x="19.295188"/>
        <path style="fill: url(&quot;#linearGradient5282&quot;) rgb(0, 0, 0); fill-opacity: 1; stroke: none; stroke-width: 1; stroke-miterlimit: 4; stroke-opacity: 1;" d="M 427.54372,470.83889 C 423.23874,481.88737 424.06804,482.0724 412.02792,484.76088 C 399.84768,487.48063 367.82407,486.42922 367.82407,486.42922 C 367.82407,486.42922 382.20643,471.94711 394.37705,468.94107 C 406.54767,465.93503 405.73312,468.16492 427.54372,470.83889 z" id="path4701" sodipodi:nodetypes="czczc" inkscape:transform-center-y="-4.2323324" inkscape:transform-center-x="13.850139"/>
        <path style="fill: url(&quot;#linearGradient5284&quot;) rgb(0, 0, 0); fill-opacity: 1; stroke: none; stroke-width: 1; stroke-miterlimit: 4; stroke-opacity: 1;" d="M 373.63141,497.76689 C 372.5701,509.57686 373.41813,509.52387 362.60127,515.45581 C 351.65852,521.45676 320.60661,529.3559 320.60661,529.3559 C 320.60661,529.3559 330.39224,511.4443 341.2461,505.17104 C 352.09997,498.89777 351.93794,501.26624 373.63141,497.76689 z" id="path4703" sodipodi:nodetypes="czczc" inkscape:transform-center-y="1.2942757" inkscape:transform-center-x="14.044514"/>
      </g>
    </g>
  </g>
</svg>