<!-- Created with Inkscape (http://www.inkscape.org/) --> 
<svg 
   xmlns:dc="http://purl.org/dc/elements/1.1/"
   xmlns:cc="http://web.resource.org/cc/"
   xmlns:rdf="http://www.w3.org/1999/02/22-rdf-syntax-ns#"
   xmlns:svg="http://www.w3.org/2000/svg"
   xmlns="http://www.w3.org/2000/svg"
   xmlns:sodipodi="http://inkscape.sourceforge.net/DTD/sodipodi-0.dtd"
   xmlns:inkscape="http://www.inkscape.org/namespaces/inkscape"
   width="380"
   height="475"
   id="svg2"
   sodipodi:version="0.32"
   inkscape:version="0.43"
   version="1.0"
   sodipodi:docbase="/home/drust/Desktop"
   sodipodi:docname="hearth.svg"> 
  <defs 
     id="defs4" /> 
  <sodipodi:namedview 
     id="base"
     pagecolor="#ffffff"
     bordercolor="#666666"
     borderopacity="1.0"
     inkscape:pageopacity="0.0"
     inkscape:pageshadow="2"
     inkscape:zoom="0.5"
     inkscape:cx="464.22897"
     inkscape:cy="127.53796"
     inkscape:document-units="px"
     inkscape:current-layer="layer1"
     inkscape:window-width="868"
     inkscape:window-height="580"
     inkscape:window-x="200"
     inkscape:window-y="125" /> 
  <metadata 
     id="metadata7"> 
    <rdf:RDF> 
      <cc:Work 
         rdf:about=""> 
        <dc:format>image/svg+xml</dc:format> 
        <dc:type 
           rdf:resource="http://purl.org/dc/dcmitype/StillImage" /> 
      </cc:Work> 
    </rdf:RDF> 
  </metadata> 
  <g 
     inkscape:label="Calque 1"
     inkscape:groupmode="layer"
     id="layer1"> 
    <path 
       style="fill:#000000"
       d="M 76.857171,472.99356 C 68.787501,470.20378 64.005671,465.70869 60.491021,457.60877 C 58.650861,453.36792 58.666381,452.74582 61.668421,410.40376 C 64.226501,374.32357 64.499631,367.16329 63.384961,365.40376 C 59.186121,358.77581 53.030321,347.06348 50.385681,340.67072 C 48.711181,336.62303 46.846031,332.18628 46.240891,330.81128 C 45.635751,329.43628 45.051751,327.41128 44.943101,326.31128 C 44.834461,325.21128 44.152211,321.38628 43.427001,317.81128 C 41.556171,308.58884 41.718761,287.21535 43.742711,276.31128 C 44.661491,271.36129 47.039921,261.32256 49.028101,254.00301 C 51.016281,246.68345 52.481701,240.53864 52.284591,240.34787 C 52.087481,240.1571 42.497771,239.57099 30.974141,239.0454 L 10.022081,238.08979 L 7.1513506,234.70054 C 1.8694606,228.4646 0.99649057,225.92583 1.0000106,216.81128 C 1.0035906,207.56866 2.7831706,202.59609 7.7441806,197.96654 L 10.256801,195.6218 L 36.518361,196.73938 C 64.110661,197.91359 64.371841,197.88467 64.410891,193.65105 C 64.427501,191.84967 61.387711,191.49832 35.454891,190.30424 L 24.983581,189.73 L 21.954891,186.14234 C 16.412051,179.57652 15.426201,176.93392 15.426201,168.64198 C 15.426201,159.78974 16.254611,157.07834 20.657801,151.51886 L 23.829451,147.51433 L 43.864751,148.20322 C 54.884171,148.58211 64.918441,149.1477 66.163131,149.4601 C 68.150341,149.95886 68.426201,149.6492 68.426201,146.91969 C 68.426201,145.21006 68.088701,143.81753 67.676201,143.82516 C 67.263701,143.8328 58.376201,142.86779 47.926201,141.68071 C 30.164951,139.66309 28.689451,139.33685 25.294871,136.67678 C 20.451161,132.88115 18.426201,128.29543 18.426201,121.12204 C 18.426201,114.35143 21.328111,107.5915 25.555391,104.51477 C 28.150561,102.62593 28.432021,102.63059 47.303531,104.87476 C 57.818951,106.12523 66.647431,106.92338 66.922381,106.64843 C 67.197331,106.37348 66.763501,93.135149 65.958301,77.229909 C 63.664791,31.925409 61.407441,37.151659 66.149651,32.728179 C 77.197621,22.422739 101.86154,24.146819 110.31422,35.815399 C 113.01824,39.548199 115.08817,40.032929 117.31116,70.456229 C 120.66441,116.348 120.1212,112.81334 123.81866,112.80044 C 126.75547,112.7902 127.07603,112.39188 129.65337,105.55044 C 131.15331,101.5689 135.50604,92.686289 139.32609,85.811289 C 147.84569,70.478459 147.12637,66.047549 145.47077,57.632289 C 143.90231,49.659999 140.70654,42.626189 135.56875,35.838199 C 133.29035,32.827999 131.4262,29.768159 131.4262,29.038539 C 131.4262,25.162409 137.24564,18.391609 143.12654,15.425449 C 149.57172,12.174689 158.4262,14.097309 158.4262,18.747549 C 158.4262,19.450879 161.57884,26.165439 165.43207,33.668809 C 173.27968,48.950389 179.44067,57.094629 182.79026,56.614669 C 187.58765,55.927239 189.93302,43.993729 188.94251,25.311289 C 188.56343,18.161289 188.26801,11.473439 188.28602,10.449389 C 188.37273,5.5183505 196.04646,2.2405705 205.51405,3.0905605 C 212.0573,3.6780005 216.75219,5.8529805 219.05133,9.3619105 C 220.59858,11.723319 220.53978,12.572419 218.05183,23.795659 C 214.69422,38.941979 213.6398,50.207229 215.47363,51.340599 C 217.74485,52.744289 223.19936,45.145889 230.51967,30.380739 C 234.31826,22.718939 237.4262,15.889099 237.4262,15.203319 C 237.4262,14.517539 238.65161,12.992549 240.14933,11.814439 C 242.26762,10.148189 243.64548,9.81745 246.35281,10.325349 C 253.80197,11.722819 262.07977,18.065359 264.36487,24.126389 C 265.87421,28.129809 265.84712,28.209999 261.43243,32.804799 C 255.86015,38.604429 248.27049,54.157649 248.18282,59.956749 C 248.12517,63.770019 248.94348,65.709789 253.63353,72.877459 C 260.54035,83.432959 261.15629,84.624249 263.89058,92.715559 L 266.11946,99.311289 L 275.52283,98.811289 C 280.69468,98.536289 296.1059,98.399679 309.76997,98.507719 C 338.01029,98.731009 338.19699,98.778229 341.64296,106.5684 C 344.01083,111.92135 343.69387,121.22763 341.00386,125.3331 C 337.65514,130.4439 336.16216,130.77223 320.9262,129.74858 C 307.78574,128.86572 278.92316,129.91587 275.00502,131.41941 C 273.76941,131.89356 273.60762,133.44255 274.09279,140.15353 C 274.41716,144.64029 274.97044,148.63435 275.32231,149.02921 C 275.67417,149.42407 286.97899,148.86845 300.44413,147.79449 C 313.90927,146.72053 331.30417,145.83496 339.09947,145.82656 C 352.81186,145.81178 353.37046,145.8935 356.27763,148.33972 C 362.8674,153.88465 365.03999,168.78047 360.59744,177.95754 C 356.70533,185.99756 356.3538,186.1391 338.11208,187.01058 C 328.44173,187.47258 320.11475,188.38769 317.4262,189.2839 L 312.9262,190.78395 L 318.9262,190.32199 C 322.2262,190.06791 334.19731,189.32133 345.52867,188.66292 C 366.0536,187.47031 366.14461,187.47413 369.70772,189.67625 C 375.24517,193.09859 377.93006,199.52668 377.90889,209.31128 C 377.89526,215.61277 377.42348,218.19354 375.68679,221.46675 C 371.85417,228.69028 370.20508,229.4097 355.7417,230.16781 C 344.32472,230.76625 330.1428,232.76135 328.97013,233.93402 C 328.73275,234.1714 331.21326,237.25602 334.48237,240.78875 C 337.75147,244.32148 340.4262,247.37824 340.4262,247.58155 C 340.4262,247.78487 342.52844,251.40723 345.09784,255.63125 C 371.07536,298.33746 382.81881,369.0045 371.93943,417.15227 C 366.94467,439.25703 358.65605,450.90084 343.90067,456.54095 C 304.7395,471.50995 249.78335,469.10752 193.4262,449.96291 C 167.15021,441.03691 137.36716,427.18207 121.6762,416.58538 C 119.3387,415.00678 117.38754,413.84932 117.34028,414.01324 C 117.29303,414.17716 116.2334,424.63827 114.98555,437.26015 L 112.71672,460.20901 L 106.6866,465.87691 C 97.423381,474.5837 87.976281,476.83757 76.857171,472.99356 z M 98.636401,469.51174 C 100.99579,468.11681 104.68569,465.15835 106.83619,462.93739 L 110.74618,458.89927 L 112.98736,436.10527 L 115.22854,413.31128 L 112.64556,411.31128 C 111.22492,410.21128 105.7569,406.0987 100.49439,402.17221 C 88.754251,393.41259 79.052741,384.58091 71.869901,376.11419 L 66.426201,369.69747 L 66.371801,373.00437 C 66.341871,374.82317 65.042131,393.41128 63.483481,414.31128 L 60.649571,452.31128 L 63.620461,458.60174 C 66.746781,465.22128 70.589651,468.6192 78.128881,471.4303 C 83.780611,473.53763 93.339581,472.64334 98.636401,469.51174 z M 313.23718,462.18338 C 324.90282,460.51767 338.17872,456.91647 346.67368,453.11345 C 362.44538,446.05277 370.88466,426.3764 373.43237,390.72497 C 375.56209,360.92263 369.97739,321.37514 359.39367,291.31128 C 352.46941,271.64241 338.71325,246.38016 335.58153,247.58191 C 334.50074,247.99665 334.25587,247.69754 334.70914,246.51632 C 335.1448,245.38103 333.29757,242.64931 328.72457,237.6662 C 323.19599,231.64181 320.8876,227.90103 314.66642,214.88476 C 310.57254,206.31935 304.79232,195.63962 301.82149,191.15203 C 284.65102,165.21521 257.06917,154.047 228.49273,161.46039 C 225.43114,162.25464 222.39353,163.44601 221.74249,164.10788 C 220.17967,165.69669 216.24567,175.81142 217.19079,175.81078 C 217.59527,175.8105 220.336,174.89436 223.28131,173.77491 C 240.62069,167.1846 257.82389,167.41847 271.66577,174.43268 C 278.41032,177.8504 288.00796,187.12106 294.45184,196.44246 C 303.97846,210.22322 312.4878,231.52416 310.95718,237.75937 C 307.28384,252.7233 309.82831,294.8895 324.64118,322.31128 C 333.69909,339.0794 334.47006,347.12793 335.14727,363.92501 C 336.28224,392.07609 328.82258,416.81128 319.19779,416.81128 C 312.0191,416.81128 304.43175,407.08265 290.86898,380.48759 C 285.78052,370.50969 279.06149,358.88678 275.93781,354.65889 C 268.27268,344.28417 255.83402,331.88421 244.9262,323.74376 C 236.75494,317.64559 223.58285,304.94065 212.62033,292.58362 L 208.4262,287.85597 L 208.4262,291.69408 C 208.4262,295.98986 210.43581,299.40324 219.38701,310.31128 C 226.33739,318.7811 227.08429,320.20945 232.19836,334.81128 C 243.25247,366.37328 246.02829,371.13258 269.56603,398.88041 C 289.8617,422.80628 292.47756,427.74718 287.31562,432.40629 C 285.43664,434.10224 283.59863,434.30577 270.56562,434.26103 C 244.60694,434.17193 212.61084,427.44485 172.73132,413.69165 C 143.01185,403.44234 124.64239,394.25534 109.09719,381.86673 C 101.68374,375.95865 81.072251,351.70373 79.417421,349.29852 C 76.161091,344.5656 67.426201,327.50605 67.426201,325.87923 C 67.426201,325.33056 65.405021,320.26589 64.563901,317.6801 C 63.961191,315.82725 62.732221,308.23628 61.832861,300.81128 C 59.672351,282.97444 60.322791,270.12351 64.262361,252.81128 C 65.951991,245.38628 67.805071,235.49809 68.380311,230.83751 C 69.821091,219.16438 69.583671,198.25545 67.954201,193.31128 C 66.883991,190.06401 66.614681,189.78174 66.523121,191.81128 C 66.270541,197.41019 61.225771,218.63311 55.014821,240.22579 C 46.285271,270.57448 44.117951,282.02158 44.111921,297.81128 C 44.104501,317.26913 46.895071,328.9747 55.978891,347.58945 C 59.005891,353.79244 62.257361,359.64861 63.204371,360.60316 C 64.151371,361.55771 65.437461,363.45754 66.062341,364.82499 C 68.082741,369.24634 80.183311,382.53135 89.424441,390.47384 C 113.17448,410.88633 143.16293,428.47046 176.71876,441.66006 C 226.38512,461.18213 272.10902,468.05597 313.23718,462.18338 z M 282.81926,431.94297 C 287.41842,430.93876 288.22711,428.62256 285.73139,423.60213 C 283.56293,419.24 279.43758,413.95461 262.36853,393.66966 C 251.66265,380.94674 244.74019,371.43427 241.4766,364.96114 C 239.36562,360.77413 232.6524,343.46547 227.0679,327.81128 C 225.04696,322.14628 222.51114,317.9431 216.70353,310.6321 L 209.01473,300.95292 L 206.91253,304.43612 C 204.15566,309.00406 200.00788,311.62759 194.44155,312.32417 C 191.95811,312.63495 188.6887,313.08544 187.1762,313.32526 C 185.22207,313.63509 184.4262,313.33441 184.4262,312.28628 C 184.4262,311.23329 185.64216,310.78276 188.6762,310.7116 C 191.0137,310.65678 193.9497,310.31928 195.20064,309.9616 C 197.39698,309.33361 197.36968,309.26479 194.40576,307.95759 C 189.32896,305.71854 187.91447,302.48735 188.01258,293.35332 C 188.07394,287.64123 188.72877,283.6931 190.27281,279.72599 C 192.29641,274.52671 196.77123,268.82298 197.92304,269.97479 C 198.20064,270.25239 198.03066,272.60513 197.54531,275.2031 C 196.30911,281.82016 198.66077,290.91984 201.93138,292.1749 C 206.00726,293.73896 206.6871,293.04666 205.97101,288.06128 C 203.38755,270.07547 196.12712,255.8107 187.20895,251.19894 C 182.51895,248.77364 175.26302,249.78424 170.66883,253.50262 C 165.96432,257.3103 160.80143,267.49563 158.86274,276.79364 C 157.4452,283.5922 157.46218,284.1201 159.13934,285.39228 C 165.00451,289.84121 169.22758,282.57913 166.43587,272.84501 C 164.9868,267.79238 166.72832,267.02976 169.98005,271.29299 C 174.18289,276.8032 177.41666,289.01398 176.38938,295.49478 C 175.34797,302.06482 174.04992,304.46137 170.29646,306.74399 L 167.29436,308.56967 L 170.5095,309.69048 C 172.27783,310.30692 175.0075,310.81128 176.57542,310.81128 C 178.44278,310.81128 179.4262,311.32873 179.4262,312.31128 C 179.4262,314.10265 179.80322,314.07888 173.22542,312.70217 C 170.31085,312.09216 166.48739,310.7201 164.72884,309.65315 L 161.53148,307.71323 L 157.55302,310.34605 C 151.84066,314.12631 149.94925,318.60367 149.93662,328.37562 C 149.92585,336.707 150.88187,339.34215 159.05035,353.49672 C 160.06141,355.24872 160.64265,356.92816 160.342,357.22882 C 160.04134,357.52947 155.77479,357.0682 150.86077,356.20377 C 145.94676,355.33934 139.97292,354.89438 137.58558,355.21497 C 127.60358,356.55543 118.44031,363.03775 113.85143,372.00508 C 112.53035,374.58667 110.72925,377.10193 109.84898,377.59455 C 108.55557,378.31839 109.5606,379.4527 115.08735,383.50677 C 137.32103,399.81597 176.90921,415.29272 223.02246,425.70332 C 248.12332,431.37012 273.37499,434.00507 282.81926,431.94297 z M 322.04164,413.36808 C 323.17489,412.57433 325.2894,409.27921 326.74055,406.04561 C 332.18127,393.92207 334.48284,374.2258 332.4966,356.7867 C 330.93825,343.10439 330.31699,341.04372 322.40435,323.31128 C 318.723,315.06128 314.92508,305.91669 313.96454,302.98997 C 313.00399,300.06324 310.78154,292.16758 309.90723,288.40642 C 307.7928,279.31043 306.13581,260.56559 306.62399,251.26454 L 307.06491,242.86385 L 304.49555,243.47583 C 300.94102,244.32245 292.93378,251.39002 290.57784,256.81128 C 289.50227,259.28628 288.10998,265.2593 287.48387,270.08465 C 286.25542,279.55225 285.66176,281.81128 284.40221,281.81128 C 283.95671,281.81128 280.61367,277.99684 276.97325,273.33475 C 269.52004,263.78983 265.72323,260.533 259.4818,258.3309 C 254.56155,256.59493 248.83704,256.33752 247.9262,257.81128 C 247.58628,258.36128 248.02556,258.81128 248.90237,258.81128 C 251.5186,258.81128 255.14158,261.70992 256.43835,264.84062 C 257.8947,268.35655 257.08156,272.20981 254.11126,275.86807 C 252.90948,277.34821 251.15963,279.96594 250.22271,281.68526 C 248.61394,284.63746 245.62907,286.23763 246.72328,283.56128 C 248.66715,278.80671 248.66749,278.81128 246.37105,278.81128 C 243.0398,278.81128 236.13983,274.43569 233.01908,270.34417 C 227.9869,263.74663 224.25579,252.02417 226.9262,251.20142 C 227.4762,251.03197 229.18375,252.70904 230.72077,254.92824 C 235.01151,261.12343 245.4262,264.86003 245.4262,260.20429 C 245.4262,259.43814 244.8063,258.81128 244.04864,258.81128 C 243.29099,258.81128 242.05349,258.06502 241.29864,257.15292 C 239.16984,254.58062 228.81101,250.05188 223.3326,249.29841 C 217.47437,248.49269 209.91959,250.11201 206.52787,252.90038 C 204.19894,254.81503 204.14942,255.15332 204.81626,264.59168 C 205.76608,278.0354 207.17118,282.57904 212.11586,288.19626 C 215.53274,292.07787 216.8239,292.89633 219.11586,292.63352 C 221.29989,292.3831 221.99384,291.72826 222.2297,289.69519 C 222.58779,286.60856 218.37875,282.58483 211.6762,279.60632 C 209.3387,278.56758 207.4262,277.28875 207.4262,276.76449 C 207.4262,276.24022 209.7887,275.81568 212.6762,275.82105 C 221.15108,275.83682 234.00822,282.90938 238.07389,289.79201 C 239.02726,291.40594 240.32389,292.40403 241.08685,292.11126 C 242.58686,291.53565 242.94243,293.3742 241.50314,294.26373 C 240.99545,294.5775 240.2859,296.17357 239.92636,297.81056 C 239.15224,301.3351 235.11283,304.81128 231.79134,304.81128 C 230.49051,304.81128 229.4262,305.3907 229.4262,306.09887 C 229.4262,307.98904 237.77464,315.73567 246.9262,322.33737 C 257.08799,329.66781 271.312,344.22475 279.33729,355.50706 C 282.76436,360.32499 289.43653,372.01125 294.16434,381.47652 C 303.2355,399.63736 309.30122,408.84717 314.63722,412.56128 C 318.43214,415.20272 319.28903,415.29609 322.04164,413.36808 z M 112.22789,370.56128 C 116.2579,363.49132 120.4911,359.41792 127.26582,356.09098 C 132.3524,353.59306 133.91457,353.32247 142.6762,353.4217 C 148.0387,353.48243 152.4262,353.34628 152.4262,353.11916 C 152.4262,352.89203 149.41153,351.29547 145.72694,349.57124 C 137.36726,345.65928 129.83028,345.42225 121.04537,348.79504 C 108.46669,353.62439 100.26287,366.03202 104.46138,373.87702 C 106.30788,377.32723 109.03477,376.16305 112.22789,370.56128 z M 104.38124,359.38403 C 108.99588,351.91739 117.55082,346.65657 128.332,344.65561 C 133.38693,343.71743 138.22637,344.26242 143.78635,346.39599 C 144.89332,346.82077 144.31627,345.21037 141.95852,341.29494 C 134.52182,328.94507 136.22897,311.4597 145.68177,303.16004 C 147.53713,301.53101 151.08708,299.81128 151.89482,299.81128 C 152.78941,299.81128 154.40953,297.25092 154.59287,297.78825 C 154.7762,298.32558 155.04386,291.01308 155.18767,281.53825 C 155.33148,272.06342 155.89923,258.96779 156.44934,252.43685 L 157.44953,240.56243 L 152.05237,233.93685 C 139.47595,218.49798 130.56133,204.02729 125.88037,191.45304 L 126.07181,186.5948 L 121.83707,190.95304 C 118.95997,196.56403 114.24683,201.01312 107.73503,204.26503 C 95.872941,210.18881 82.877771,209.81123 73.823441,203.27973 L 71.720691,201.76287 L 71.108011,218.53707 C 70.644001,231.24087 69.866331,238.10186 67.903231,246.81128 C 62.789801,269.49732 62.236101,273.72034 62.789731,285.81128 C 63.562041,302.67766 66.484881,320.81128 68.431161,320.81128 C 68.840931,320.81128 69.176201,321.84842 69.176201,323.11603 C 69.176201,325.85659 76.541171,341.14903 81.430851,348.56128 C 83.438971,351.60538 89.619381,359.90185 93.629981,364.25439 L 100.92197,372.1681 L 101.59078,367.49251 C 101.95863,364.92093 103.21434,361.27212 104.38124,359.38403 z M 87.426711,305.74828 C 74.256481,300.17807 74.055241,281.34967 87.043751,269.91673 C 94.252991,263.5709 99.718721,261.38825 108.50404,261.34693 C 115.30232,261.31495 116.46177,261.60103 119.77462,264.12786 C 125.48056,268.48 126.93259,271.36906 126.88101,278.2673 C 126.80685,288.18649 120.45655,297.75557 110.26807,303.30083 C 106.06506,305.58839 103.482,306.23098 97.464511,306.48597 C 93.318441,306.66166 88.801431,306.3297 87.426711,305.74828 z M 107.84911,301.85317 C 117.99213,296.9336 124.85119,286.93217 124.63999,277.36985 C 124.5063,271.31681 122.37549,268.1288 116.36766,264.9932 C 112.73323,263.09632 110.96512,262.78076 106.63689,263.25655 C 96.779531,264.34014 86.379891,271.33376 81.808071,279.9536 C 79.199561,284.87176 79.300981,294.80445 81.997281,298.48453 C 86.963901,305.26329 97.884361,306.68629 107.84911,301.85317 z M 151.69041,344.62769 C 148.14314,337.85811 147.9262,336.92159 147.9262,328.37769 C 147.9262,317.56271 149.76027,312.94212 155.58249,309.08916 C 159.9793,306.17949 160.08587,305.8475 157.60611,302.78514 C 155.95955,300.75171 155.45216,300.64761 152.28402,301.69319 C 144.4626,304.27449 139.4262,313.11345 139.4262,324.25887 C 139.4262,333.46358 141.81066,339.25186 148.38925,346.01669 C 151.48854,349.20371 154.34614,351.81128 154.73947,351.81128 C 155.1328,351.81128 153.76073,348.57867 151.69041,344.62769 z M 203.46613,304.77135 C 205.9209,302.31658 207.70029,297.96793 206.9984,296.13883 C 206.71821,295.40868 205.61165,294.81128 204.53937,294.81128 C 203.46709,294.81128 201.8588,294.53078 200.96539,294.18795 C 198.4014,293.20405 195.29001,286.05424 195.09988,280.70933 C 195.00435,278.024 194.7884,275.82339 194.61997,275.8191 C 194.45154,275.8148 193.47734,277.72378 192.45507,280.06128 C 188.39754,289.33913 189.01165,302.00666 193.67739,305.27467 C 196.73109,307.41356 201.04577,307.19171 203.46613,304.77135 z M 170.12717,304.30818 C 174.86895,300.9869 175.66627,288.38192 171.74633,278.71034 L 169.96337,274.31128 L 169.27667,279.78576 C 168.79106,283.65712 167.94788,285.78018 166.3973,287.03576 C 164.00355,288.97411 159.90763,289.39927 158.9262,287.81128 C 158.58628,287.26128 157.88472,286.81128 157.36718,286.81128 C 156.13054,286.81128 156.1445,294.51914 157.38253,295.28429 C 157.90851,295.60936 158.08623,296.53365 157.77748,297.33825 C 157.06286,299.20051 163.55909,305.81128 166.10369,305.81128 C 167.13632,305.81128 168.94688,305.13488 170.12717,304.30818 z M 234.53981,301.75048 C 237.2238,300.31405 238.60095,296.40111 237.46971,293.42571 C 235.42174,288.03916 224.82157,280.27392 216.9262,278.3764 C 214.01694,277.6772 214.04718,277.74345 217.9262,280.56661 C 220.1262,282.16778 222.5194,284.19846 223.24443,285.07923 C 225.13495,287.37586 224.34009,292.88177 221.9262,294.21043 C 220.8262,294.8159 219.74957,295.41291 219.5337,295.53711 C 218.78634,295.96712 221.93918,299.14333 224.9262,300.9696 C 228.31578,303.04199 231.62443,303.31074 234.53981,301.75048 z M 249.96468,275.35965 C 251.94826,274.53086 253.84853,272.83067 254.39358,271.39706 C 255.60283,268.2165 254.13363,263.73417 251.3023,261.96598 C 249.49613,260.83801 248.91587,260.94208 247.00571,262.73658 C 245.79108,263.87767 244.20351,264.81128 243.47777,264.81128 C 240.23355,264.81128 234.13964,262.25383 231.75991,259.89361 L 229.15623,257.31128 L 229.90524,259.81128 C 231.53704,265.25784 237.72609,272.78582 242.9262,275.64919 C 245.53501,277.08569 245.86629,277.07207 249.96468,275.35965 z M 278.10729,266.48051 C 271.62328,253.361 261.99033,246.81128 249.17896,246.81128 C 240.5577,246.81128 238.43228,249.39791 242.85664,254.50552 C 244.80696,256.75703 245.53786,257.06435 246.55664,256.06128 C 248.29044,254.3542 255.26181,254.48918 260.4818,256.3309 C 266.25346,258.36726 270.5515,261.78777 276.18516,268.82812 C 278.76624,272.05368 281.07198,274.49884 281.30902,274.26179 C 281.54606,274.02475 280.10528,270.52318 278.10729,266.48051 z M 285.78232,266.67821 C 287.09663,254.1036 294.86776,243.37151 304.1071,241.37134 C 307.97535,240.53392 309.68816,238.65235 309.25296,235.71845 C 308.31986,229.42781 300.20829,231.17958 291.6814,239.51319 C 288.29203,242.82573 279.62524,255.08397 283.05897,269.14867 C 284.5264,275.15932 284.9865,274.29217 285.78232,266.67821 z M 163.86487,257.90843 C 170.11683,248.00469 180.70268,244.85307 189.8029,250.18615 C 193.87268,252.5712 197.51228,256.92811 200.66844,263.19311 C 201.99447,265.8253 202.1261,264.56917 202.18794,248.69311 C 202.26073,230.00311 203.2745,219.35795 206.55738,202.81128 C 210.981,180.51493 221.23031,156.32014 229.78921,147.9696 C 238.20388,139.75977 251.18186,133.86332 268.47818,130.39153 C 279.0696,128.26558 303.99841,126.74973 316.1762,127.49116 C 321.8137,127.83439 326.4262,127.89097 326.4262,127.61688 C 326.4262,127.3428 325.7062,125.67528 324.8262,123.91128 C 322.51351,119.27538 322.7458,110.06531 325.30177,105.05519 L 327.37733,100.98675 L 318.65177,100.25474 C 308.45396,99.399239 277.66939,100.31838 265.4262,101.84393 C 260.7512,102.42645 250.8512,104.31241 243.4262,106.03494 C 230.8481,108.95294 228.59457,109.17175 210.4262,109.23905 C 188.62661,109.3198 189.43947,109.61532 183.43276,116.45659 C 176.19541,124.69947 173.60961,133.81627 172.48006,155.07269 C 171.96029,164.85398 170.61383,176.48075 169.09404,184.31128 C 165.24131,204.16193 157.31402,255.67248 157.48575,267.81128 L 157.53526,271.31128 L 159.45717,266.57873 C 160.51422,263.97583 162.49769,260.07419 163.86487,257.90843 z M 281.63422,251.81128 C 283.83021,241.97507 296.74792,229.91551 305.1762,229.83324 C 306.4137,229.82116 307.4262,229.19286 307.4262,228.43701 C 307.4262,224.56454 298.86896,206.22207 293.25713,198.06554 C 288.56987,191.25284 278.82103,181.27314 273.54742,177.88907 C 266.265,173.21595 254.72199,170.52901 244.9262,171.22673 C 236.5369,171.82426 226.79266,174.22854 219.26524,177.55828 C 214.97385,179.45657 214.71498,179.82111 212.61551,186.92237 C 210.3286,194.6576 206.48502,211.33071 206.44784,213.67714 C 206.43594,214.42837 211.27137,220.05337 217.19324,226.17714 C 223.11511,232.30092 230.20791,239.81775 232.95502,242.88121 L 237.94976,248.45115 L 240.93798,246.56403 C 243.403,245.00733 245.23935,244.76137 251.4262,245.15927 C 255.5512,245.42456 260.62372,246.36501 262.69848,247.24917 C 267.59772,249.337 273.62372,254.82773 277.1337,260.40218 L 279.9262,264.83715 L 280.16626,261.07421 C 280.29829,259.0046 280.95887,254.83628 281.63422,251.81128 z M 275.1762,218.10352 C 273.6637,217.86972 272.42538,217.14583 272.42438,216.49486 C 272.42312,215.68038 274.24741,215.41458 278.27416,215.64253 C 283.26396,215.92499 284.5308,215.62537 286.87598,213.60814 C 297.42627,204.53316 276.83715,181.45615 258.09165,181.34567 C 252.91779,181.31517 251.98359,181.62899 249.84165,184.11704 C 248.51315,185.66021 247.43608,188.13521 247.44816,189.61704 C 247.50336,196.38889 254.88226,206.06404 264.12095,211.47828 C 268.09146,213.80515 269.67451,215.81128 267.54015,215.81128 C 267.05283,215.81128 263.9205,213.98585 260.57942,211.75476 C 245.09258,201.41304 240.34173,185.40096 251.22748,180.23534 C 263.81959,174.25999 287.29938,188.09175 291.55148,203.98988 C 294.04786,213.32354 286.47543,219.85012 275.1762,218.10352 z M 219.4262,246.86589 C 223.04958,246.87184 228.22008,247.66923 231.10944,248.66766 C 236.12701,250.4015 236.2517,250.40024 235.01056,248.62826 C 231.132,243.09084 207.02651,218.81097 206.21405,219.62343 C 205.70334,220.13414 205.0235,227.36906 204.70328,235.70105 L 204.12107,250.85011 L 208.52363,248.85266 C 211.49047,247.5066 215.04593,246.85869 219.4262,246.86589 z M 54.771851,233.06128 C 57.334851,224.97952 59.531781,216.72683 61.418121,208.09478 C 62.956011,201.05732 63.011731,199.81128 61.788571,199.81128 C 60.996721,199.81128 49.284981,199.33099 35.762491,198.74398 L 11.176141,197.67667 L 8.2645006,200.4662 C 4.4153006,204.15396 2.0070606,212.46124 2.7369806,219.53346 C 3.2920806,224.91187 6.7285206,232.1568 10.021421,234.891 C 11.631601,236.22799 21.653721,236.98015 46.595831,237.63592 L 53.265471,237.81128 L 54.771851,233.06128 z M 160.89481,210.81128 C 162.32589,199.53628 166.60417,184.68628 167.95766,177.81128 C 169.64859,169.22219 170.42517,161.86968 170.43973,154.31128 C 170.45139,148.26128 171.12521,140.16128 171.93712,136.31128 C 175.94412,117.31041 186.60089,103.68084 201.6842,102.1241 C 206.05308,101.67319 208.21066,102.06658 213.47871,104.27457 C 221.57334,107.66727 225.89841,107.60114 242.9262,103.82435 C 250.0762,102.23847 257.6554,100.65854 259.76887,100.3134 C 263.25748,99.743709 263.55424,99.457569 262.9896,97.207859 C 261.38087,90.798169 257.8748,83.224139 253.22049,76.104029 C 245.89143,64.892099 245.08759,62.617429 246.35917,56.688239 C 247.4338,51.677389 252.10632,41.539299 255.66195,36.503719 C 256.75229,34.959549 257.48279,33.578199 257.28529,33.434049 C 257.08779,33.289899 254.94601,32.602459 252.52577,31.906409 C 249.544,31.048869 246.47035,28.975779 242.99186,25.476079 L 237.85838,20.311289 L 231.70851,32.811289 C 224.85417,46.743169 219.55198,53.811289 215.95527,53.811289 C 214.68197,53.811289 213.36703,53.099489 213.03319,52.229499 C 211.68395,48.713449 212.69928,38.495519 216.04229,21.946969 C 216.71006,18.641389 216.68007,18.605419 214.32406,19.886709 C 210.84802,21.777139 199.61484,21.540369 195.72586,19.494709 C 193.96567,18.568829 192.33841,17.811289 192.10972,17.811289 C 191.88104,17.811289 191.45665,24.673789 191.16665,33.061289 C 190.87665,41.448789 190.09377,49.886289 189.42693,51.811289 C 187.70791,56.773599 184.01062,59.957959 181.1634,58.928409 C 177.50382,57.605109 169.99325,47.391369 163.76328,35.265739 L 157.9262,23.904789 L 153.9262,27.749299 C 149.55044,31.954959 144.58212,34.811289 141.64253,34.811289 C 138.57918,34.811289 138.40929,35.823249 140.82665,39.671149 C 145.28512,46.768039 149.73573,54.876609 149.82016,62.811289 C 149.90777,71.044509 150.39295,69.786499 138.58925,91.931239 C 127.75136,112.26401 124.05492,126.7681 124.09307,148.81128 C 124.10592,156.23628 124.64509,166.47179 125.29122,171.55687 C 127.69615,190.48366 134.99906,209.36847 152.79108,231.44132 C 156.90167,236.54093 156.93025,236.55576 157.60952,233.94132 C 157.98534,232.4948 159.46372,222.08628 160.89481,210.81128 z M 334.4262,230.39907 C 338.5512,229.62254 345.89008,228.6672 350.73481,228.27608 L 359.54342,227.56496 L 357.42298,225.30785 C 354.20216,221.87945 350.96569,209.81128 353.26707,209.81128 C 353.72955,209.81128 354.6841,212.38583 355.38829,215.5325 C 356.82079,221.93356 361.62583,227.81128 365.4262,227.81128 C 369.12311,227.81128 374.01583,221.95203 375.29341,215.99485 C 376.77177,209.10149 376.7246,207.17911 374.9287,201.13164 C 371.01995,187.96945 359.88301,187.42169 356.25229,200.21306 C 355.00023,204.62419 353.80764,206.52606 352.87714,205.59556 C 351.87248,204.5909 354.31862,197.2489 356.94978,193.37167 L 359.47015,189.6577 L 350.19818,190.26946 C 327.92635,191.73897 312.69775,192.90709 309.75493,193.37169 L 306.58367,193.87237 L 314.19566,209.59182 C 322.44302,226.62336 325.26344,231.81137 326.27498,231.81111 C 326.63315,231.81101 330.3012,231.1756 334.4262,230.39907 z M 106.4262,202.43209 C 113.10044,199.0777 116.96391,195.56645 119.58164,190.47595 C 127.13362,175.79019 114.54864,163.33383 95.511751,168.21085 C 80.462671,172.06625 69.261131,182.08835 70.728201,193.02616 C 71.358381,197.72455 74.400771,201.34816 79.926201,203.98136 C 86.048201,206.89886 99.051191,206.13866 106.4262,202.43209 z M 308.72586,190.15551 C 313.99854,187.42756 321.18798,185.93379 332.48553,185.21892 L 343.1779,184.54234 L 340.30205,179.07526 C 337.8916,174.49292 337.4333,172.45135 337.47009,166.45973 C 337.51677,158.85731 339.12437,152.90726 341.98611,149.74508 C 343.70378,147.84707 343.57134,147.81136 334.83119,147.81581 C 326.29362,147.82015 304.16553,149.44038 253.4262,153.77633 C 240.5012,154.88084 228.98593,155.79055 227.83672,155.79791 C 226.61329,155.80574 225.29665,156.8002 224.66014,158.19717 L 223.57306,160.58307 L 229.24963,159.02198 C 236.48217,157.03301 254.09509,156.87118 261.39716,158.72662 C 268.8519,160.62085 276.52437,164.12434 283.3115,168.73339 C 289.36866,172.84673 300.05789,183.68633 303.04704,188.74656 C 304.04275,190.43216 305.00774,191.81128 305.19147,191.81128 C 305.3752,191.81128 306.96567,191.06618 308.72586,190.15551 z M 67.323551,183.47937 C 67.930011,179.99681 68.426201,171.46721 68.426201,164.52468 L 68.426201,151.90191 L 65.176201,151.31979 C 63.388701,150.99962 53.382551,150.64173 42.940321,150.52447 L 23.954431,150.31128 L 20.690321,155.17429 C 17.735121,159.57707 17.426201,160.73945 17.426201,167.45641 C 17.426201,175.61833 18.732391,179.59006 23.071421,184.62185 L 25.926201,187.93242 L 43.426201,188.71994 C 53.051201,189.15308 62.117511,189.57582 63.573551,189.65937 C 66.068181,189.80252 66.284491,189.44604 67.323551,183.47937 z M 78.489451,174.37311 C 89.879701,164.08269 107.79221,161.82011 118.78902,169.28275 L 122.4262,171.75101 L 122.3703,167.03114 C 122.33955,164.43522 120.19394,134.77092 117.60228,101.11047 C 112.24636,31.548159 111.30368,36.561459 100.88152,31.311289 C 95.557781,28.629449 93.971721,28.314739 85.926201,28.343809 C 76.117811,28.379239 71.289821,30.084259 66.516511,35.198399 L 64.106831,37.780149 L 67.910971,72.545719 C 68.903241,91.666779 69.885361,124.41128 70.093441,145.31128 C 70.301521,166.21128 70.481401,183.76128 70.493181,184.31128 C 70.504961,184.86128 71.364671,183.70328 72.403651,181.73794 C 73.442641,179.7726 76.181241,176.45843 78.489451,174.37311 z M 355.32908,182.48089 C 360.07206,178.55788 362.06947,163.67994 358.87847,156.04281 C 354.23741,144.93519 344.8777,145.1683 341.02084,156.48756 C 337.84482,165.80865 339.48395,176.06903 345.036,181.62108 C 347.84993,184.43501 348.91397,184.90567 351.17733,184.33761 C 352.68305,183.95969 354.55134,183.12417 355.32908,182.48089 z M 253.4262,151.31128 C 262.5012,150.49986 270.4887,149.83042 271.1762,149.82363 C 272.55438,149.81001 272.85367,143.03204 271.76664,136.45216 L 271.1291,132.59303 L 266.39878,133.22053 C 252.56895,135.05512 231.4262,145.74045 231.4262,150.89531 C 231.4262,153.24646 231.72058,153.25203 253.4262,151.31128 z M 68.421651,136.56128 C 68.419151,133.67378 68.130311,126.33471 67.779791,120.25223 L 67.142471,109.19318 L 47.695681,106.9112 L 28.248901,104.62922 L 25.708671,106.97025 C 22.069701,110.32386 20.426201,114.88525 20.426201,121.63128 C 20.426201,126.08725 20.972341,128.31796 22.676201,130.82145 C 26.771591,136.83882 28.668181,137.54294 46.426201,139.63876 C 70.566361,142.48781 68.427051,142.78713 68.421651,136.56128 z M 124.22265,123.79272 C 125.79936,114.59804 125.83268,114.81128 122.81921,114.81128 C 120.85282,114.81128 120.36137,115.19996 120.81921,116.39307 C 121.15306,117.26305 121.4262,120.86305 121.4262,124.39307 C 121.4262,127.92308 121.7846,130.81128 122.22265,130.81128 C 122.6607,130.81128 123.5607,127.65293 124.22265,123.79272 z M 336.76724,126.75766 C 339.99787,124.21644 341.83375,117.80133 341.02304,111.88659 C 338.89888,96.389129 325.4262,98.773859 325.4262,114.64731 C 325.4262,120.51138 326.5418,123.92688 329.38627,126.77135 C 331.95604,129.34112 333.48651,129.33828 336.76724,126.75766 z M 213.4262,106.3875 C 209.24587,104.14064 203.13957,103.5978 197.85089,105.0029 L 192.9262,106.31128 L 200.9262,106.8779 C 205.3262,107.18954 210.5012,107.50902 212.4262,107.58786 C 215.91113,107.73059 215.91544,107.72542 213.4262,106.3875 z M 148.84202,29.108709 C 156.60573,23.694109 158.09775,15.811289 151.3589,15.811289 C 142.01778,15.811289 130.58039,26.822629 135.16231,31.404549 C 137.46531,33.707539 143.76363,32.650509 148.84202,29.108709 z M 261.2262,29.611289 C 266.33683,24.500659 253.16457,11.914499 243.82134,12.980859 C 238.30523,13.610429 239.63936,20.448279 246.2642,25.501299 C 252.13681,29.980559 258.97776,31.859729 261.2262,29.611289 z M 212.66443,17.761959 C 220.98813,15.450309 219.373,9.0145305 209.76846,6.2224105 C 197.18581,2.5645405 185.69167,8.3224905 192.6449,14.800409 C 196.63784,18.520409 205.31264,19.803689 212.66443,17.761959 z "
       id="path1317"
       sodipodi:nodetypes="csssssssssscccscccscccscccssssssssssssssssssssssssssssssssssssscccsssssssssssscccssssssssssssssccccccccccsccccccsccssssssssssssssssssssscccssssssssssssssssssssssccsssscccssssssssssssssssssscccssscccsssssssssccssssscccsssssssssssssssssssssssssssssssssssssccssssssccsssssssccccccscccssssscccccssssssccsssssccsssssssccssssssscccccssssssccsssssssccsssscccsccssssssccssssccssssssssscccsssssscccccssssssssscccsscccccsssssssssssccssscccccsscccssccccssssssssssssscccssssssssscccsssssssscccccsssssssccccccsccsssscccccssssscccssssccccccccscccscccccssscccsssccssssccscccscccccccsssccssssccssscccccsccssccssccssc" /> 
  </g> 
</svg> 