<?xml version="1.0" encoding="utf-8"?>
<!-- Generator: Adobe Illustrator 13.0.0, SVG Export Plug-In . SVG Version: 6.00 Build 14948)  -->
<!DOCTYPE svg PUBLIC "-//W3C//DTD SVG 1.1//EN" "http://www.w3.org/Graphics/SVG/1.1/DTD/svg11.dtd">
<svg version="1.1" id="Layer_1" xmlns="http://www.w3.org/2000/svg" xmlns:xlink="http://www.w3.org/1999/xlink" x="0px" y="0px"
	 width="487.932px" height="490.305px" viewBox="0 0 487.932 490.305" enable-background="new 0 0 487.932 490.305"
	 xml:space="preserve">
<g>
	<path fill="none" stroke="#000000" stroke-width="0.5892" stroke-linejoin="round" stroke-miterlimit="10" d="M312.361,227.316
		c6.822,25.457,0.109,50.505-18.525,69.141c-18.637,18.636-43.684,25.347-69.141,18.525c-25.457-6.82-43.793-25.157-50.614-50.614
		c-6.821-25.457-0.109-50.504,18.526-69.14c18.636-18.636,43.684-25.347,69.141-18.526
		C287.205,183.523,305.541,201.859,312.361,227.316L312.361,227.316"/>
	<path fill-rule="evenodd" clip-rule="evenodd" fill="#FFFCFC" d="M218.924,231.814L25.028,119.868L218.924,231.814L218.924,231.814
		z M257.25,221.544L369.195,27.648L257.25,221.544L257.25,221.544z M267.52,259.871l193.896,111.945L267.52,259.871L267.52,259.871z
		 M229.193,270.141L117.248,464.036L229.193,270.141L229.193,270.141z"/>
	
		<path fill="none" stroke="#000000" stroke-width="1.9826" stroke-linejoin="round" stroke-miterlimit="10" stroke-dasharray="1.9826,23.7911" stroke-dashoffset="19" d="
		M218.924,231.814L25.028,119.868L218.924,231.814L218.924,231.814z M257.25,221.544L369.195,27.648L257.25,221.544L257.25,221.544z
		 M267.52,259.871l193.896,111.945L267.52,259.871L267.52,259.871z M229.193,270.141L117.248,464.036L229.193,270.141
		L229.193,270.141z"/>
	
		<path fill="none" stroke="#000000" stroke-width="3.5252" stroke-linejoin="round" stroke-miterlimit="10" stroke-dasharray="7.0504,7.0504" d="
		M379.777,209.252c20.199,75.379-24.586,152.949-99.965,173.147c-75.38,20.197-152.95-24.588-173.148-99.967
		c-20.198-75.379,24.587-152.949,99.967-173.147C282.01,89.088,359.58,133.873,379.777,209.252L379.777,209.252z"/>
	<path fill-rule="evenodd" clip-rule="evenodd" d="M381.566,215.926c-3.76,1.007-7.627-1.226-8.635-4.985s1.227-7.627,4.984-8.635
		c3.76-1.007,7.629,1.226,8.637,4.985C387.559,211.05,385.326,214.918,381.566,215.926L381.566,215.926z"/>
	<path fill="none" stroke="#000000" stroke-width="1.7626" stroke-miterlimit="10" d="M381.566,215.926
		c-3.76,1.007-7.627-1.226-8.635-4.985s1.227-7.627,4.984-8.635c3.76-1.007,7.629,1.226,8.637,4.985
		C387.559,211.05,385.326,214.918,381.566,215.926L381.566,215.926z"/>
	<path fill-rule="evenodd" clip-rule="evenodd" d="M273.139,384.188c-1.008-3.76,1.225-7.628,4.984-8.635
		c3.76-1.008,7.627,1.226,8.635,4.985c1.008,3.759-1.227,7.627-4.984,8.635C278.014,390.18,274.145,387.946,273.139,384.188
		L273.139,384.188z"/>
	<path fill="none" stroke="#000000" stroke-width="1.7626" stroke-miterlimit="10" d="M273.139,384.188
		c-1.008-3.76,1.225-7.628,4.984-8.635c3.76-1.008,7.627,1.226,8.635,4.985c1.008,3.759-1.227,7.627-4.984,8.635
		C278.014,390.18,274.145,387.946,273.139,384.188L273.139,384.188z"/>
	<path fill-rule="evenodd" clip-rule="evenodd" d="M104.876,275.759c3.759-1.008,7.628,1.226,8.635,4.985
		c1.007,3.759-1.226,7.628-4.985,8.635c-3.759,1.007-7.627-1.227-8.635-4.985S101.117,276.766,104.876,275.759L104.876,275.759z"/>
	<path fill="none" stroke="#000000" stroke-width="1.7626" stroke-miterlimit="10" d="M104.876,275.759
		c3.759-1.008,7.628,1.226,8.635,4.985c1.007,3.759-1.226,7.628-4.985,8.635c-3.759,1.007-7.627-1.227-8.635-4.985
		S101.117,276.766,104.876,275.759L104.876,275.759z"/>
	<path fill-rule="evenodd" clip-rule="evenodd" d="M213.305,107.497c1.007,3.759-1.226,7.628-4.985,8.635s-7.628-1.226-8.635-4.985
		c-1.007-3.759,1.226-7.628,4.985-8.635C208.429,101.505,212.298,103.738,213.305,107.497L213.305,107.497z"/>
	<path fill="none" stroke="#000000" stroke-width="1.7626" stroke-miterlimit="10" d="M213.305,107.497
		c1.007,3.759-1.226,7.628-4.985,8.635s-7.628-1.226-8.635-4.985c-1.007-3.759,1.226-7.628,4.985-8.635
		C208.429,101.505,212.298,103.738,213.305,107.497L213.305,107.497z"/>
	<path fill="none" stroke="#000000" stroke-width="3.1636" stroke-linejoin="round" stroke-miterlimit="10" d="M365.768,213.006
		c18.125,67.645-22.064,137.256-89.711,155.381c-67.644,18.126-137.255-22.064-155.38-89.709
		c-18.125-67.646,22.064-137.256,89.709-155.382C278.031,105.172,347.641,145.361,365.768,213.006L365.768,213.006z"/>
	<polygon fill-rule="evenodd" clip-rule="evenodd" fill="#6E6E6E" points="355.6,215.731 260.273,255.688 273.334,358.22 
		233.377,262.894 130.844,275.954 226.17,235.998 213.11,133.465 253.066,228.791 355.6,215.731 	"/>
	<polygon fill-rule="evenodd" clip-rule="evenodd" points="399.148,335.866 250.561,273.231 153.198,401.769 215.833,253.182 
		87.296,155.818 235.883,218.454 333.246,89.917 270.611,238.504 399.148,335.866 	"/>
	<polygon fill="none" stroke="#000000" stroke-width="2.0905" stroke-linejoin="round" stroke-miterlimit="10" points="
		399.148,335.866 250.561,273.231 153.198,401.769 215.833,253.182 87.296,155.818 235.883,218.454 333.246,89.917 270.611,238.504 
		399.148,335.866 	"/>
	<path fill="none" stroke="#000000" stroke-width="1.8528" stroke-linejoin="round" stroke-miterlimit="10" d="M239.678,163.812
		c0.413-1.651,7.447-1.369,7.074,0.124c-1.711,12.55-0.924,16.492-0.924,16.492l-5.504-0.111
		C240.574,181.538,241.318,171.807,239.678,163.812L239.678,163.812 M281.168,173.03c1.184-1.224,7.135,2.538,6.064,3.644
		c-7.758,10.013-9.047,13.82-9.047,13.82l-4.711-2.848C273.08,188.83,278.59,180.774,281.168,173.03L281.168,173.03 M312.49,201.758
		c1.637-0.468,4.91,5.765,3.43,6.188c-11.725,4.793-14.744,7.445-14.744,7.445l-2.656-4.822
		C297.588,211.397,306.387,207.176,312.49,201.758L312.49,201.758 M325.252,242.298c1.652,0.413,1.369,7.447-0.123,7.074
		c-12.551-1.711-16.492-0.924-16.492-0.924l0.111-5.504C307.525,243.195,317.258,243.938,325.252,242.298L325.252,242.298
		 M316.035,283.789c1.223,1.183-2.539,7.134-3.645,6.063c-10.014-7.757-13.82-9.046-13.82-9.046l2.848-4.711
		C300.234,275.702,308.291,281.212,316.035,283.789L316.035,283.789 M287.307,315.111c0.469,1.637-5.766,4.909-6.188,3.43
		c-4.793-11.725-7.445-14.744-7.445-14.744l4.82-2.656C277.666,300.208,281.889,309.008,287.307,315.111L287.307,315.111
		 M246.766,327.874c-0.412,1.651-7.447,1.368-7.074-0.125c1.711-12.55,0.924-16.491,0.924-16.491l5.505,0.111
		C245.87,310.147,245.125,319.878,246.766,327.874L246.766,327.874 M205.275,318.655c-1.183,1.225-7.134-2.538-6.064-3.645
		c7.757-10.013,9.046-13.819,9.046-13.819l4.711,2.848C213.363,302.855,207.853,310.911,205.275,318.655L205.275,318.655
		 M173.953,289.928c-1.637,0.468-4.909-5.766-3.43-6.188c11.724-4.793,14.744-7.445,14.744-7.445l2.656,4.822
		C188.856,280.288,180.057,284.51,173.953,289.928L173.953,289.928 M161.191,249.387c-1.652-0.413-1.369-7.447,0.124-7.074
		c12.55,1.711,16.491,0.924,16.491,0.924l-0.111,5.504C178.917,248.49,169.186,247.746,161.191,249.387L161.191,249.387
		 M170.409,207.896c-1.224-1.184,2.538-7.134,3.645-6.064c10.013,7.757,13.82,9.046,13.82,9.046l-2.848,4.711
		C186.209,215.983,178.153,210.474,170.409,207.896L170.409,207.896 M199.137,176.574c-0.468-1.637,5.765-4.909,6.188-3.43
		c4.793,11.725,7.445,14.744,7.445,14.744l-4.822,2.656C208.777,191.477,204.555,182.678,199.137,176.574L199.137,176.574"/>
	<polygon fill-rule="evenodd" clip-rule="evenodd" fill="#FFFFFF" points="255.789,249.382 271.115,245.739 375.814,318.678 
		255.789,249.382 	"/>
	<polygon fill-rule="evenodd" clip-rule="evenodd" fill="#FFFFFF" points="240.861,257.232 244.194,273.001 171.565,377.258 
		240.861,257.232 	"/>
	<polygon fill-rule="evenodd" clip-rule="evenodd" fill="#FFFFFF" points="230.654,242.304 214.843,245.608 110.628,173.007 
		230.654,242.304 	"/>
	<polygon fill-rule="evenodd" clip-rule="evenodd" fill="#FFFFFF" points="246.76,233.274 244.017,216.66 316.057,113.25 
		246.76,233.274 	"/>
	<path fill-rule="evenodd" clip-rule="evenodd" fill="#FFFCFC" d="M263.547,240.396c3.006,11.22-3.66,22.765-14.879,25.771
		c-11.22,3.006-22.765-3.66-25.771-14.879c-3.006-11.22,3.66-22.766,14.879-25.771C248.996,222.511,260.541,229.177,263.547,240.396
		L263.547,240.396z"/>
	<path fill="none" stroke="#000000" stroke-width="2.9459" stroke-linejoin="round" stroke-miterlimit="10" d="M263.547,240.396
		c3.006,11.22-3.66,22.765-14.879,25.771c-11.22,3.006-22.765-3.66-25.771-14.879c-3.006-11.22,3.66-22.766,14.879-25.771
		C248.996,222.511,260.541,229.177,263.547,240.396L263.547,240.396z"/>
	<path d="M370.086,0l7.66,4.422l5.328,21.391l4.746-8.22c0.578-1.001,0.914-1.976,1.006-2.924c0.092-0.948-0.072-1.804-0.492-2.569
		c-0.221-0.418-0.479-0.774-0.777-1.067c-0.297-0.293-0.746-0.644-1.35-1.052l0.293-0.505l9.449,5.456l-0.293,0.505l-0.191-0.11
		c-1.373-0.794-2.674-0.961-3.896-0.502c-1.225,0.458-2.316,1.521-3.277,3.187l-7.877,13.641l-0.449-0.26l-6.701-26.425
		l-6.543,11.333c-0.635,1.102-1.012,2.059-1.129,2.871s0.012,1.576,0.389,2.291c0.314,0.57,0.793,1.096,1.438,1.577
		c0.346,0.284,0.865,0.645,1.561,1.083l-0.293,0.505l-9.953-5.747l0.291-0.505c1.051,0.534,1.986,0.833,2.805,0.899
		c0.816,0.065,1.553-0.114,2.203-0.539c0.652-0.425,1.236-1.083,1.75-1.975l6.229-10.787c0.385-0.665,0.563-1.314,0.533-1.949
		c-0.027-0.635-0.25-1.241-0.67-1.817s-1.031-1.096-1.832-1.558l-0.246-0.142L370.086,0L370.086,0z"/>
	<path d="M123.128,472.874l0.478,0.275l-3.776,6.541l-0.478-0.276c0.336-1.905,0.395-3.511,0.176-4.813
		c-0.171-0.924-0.519-1.851-1.045-2.779s-1.205-1.813-2.038-2.651s-1.754-1.55-2.765-2.133c-0.755-0.437-1.49-0.721-2.202-0.853
		c-0.712-0.133-1.392-0.112-2.038,0.062c-0.459,0.123-0.881,0.316-1.264,0.581c-0.383,0.264-0.672,0.564-0.866,0.901
		c-0.368,0.637-0.44,1.33-0.217,2.078c0.096,0.358,0.296,0.765,0.598,1.219s0.73,0.974,1.284,1.561s1.347,1.372,2.38,2.357
		c0.27,0.289,0.458,0.478,0.566,0.563l0.575,0.551l0.907,0.888c1.534,1.505,2.613,2.674,3.237,3.507
		c0.623,0.833,1.058,1.71,1.304,2.629c0.208,0.69,0.272,1.395,0.191,2.112c-0.081,0.719-0.313,1.409-0.697,2.074
		c-0.378,0.655-0.899,1.231-1.563,1.729s-1.399,0.846-2.207,1.047c-1.073,0.304-2.204,0.343-3.391,0.118
		c-1.188-0.225-2.414-0.701-3.679-1.433c-0.883-0.51-1.663-1.078-2.338-1.704c-0.676-0.627-1.437-1.501-2.283-2.62
		c-0.56-0.712-1.001-1.23-1.323-1.556c-0.322-0.326-0.651-0.586-0.988-0.78c-0.646-0.373-1.293-0.52-1.941-0.438
		c-0.648,0.081-1.226,0.394-1.734,0.938l-0.478-0.276l5.093-8.82l0.478,0.275c-0.713,1.677-0.9,3.462-0.562,5.356
		c0.215,1.12,0.641,2.291,1.276,3.513c0.635,1.223,1.401,2.33,2.298,3.32c0.896,0.991,1.841,1.773,2.833,2.346
		c0.883,0.51,1.775,0.831,2.676,0.963s1.706,0.057,2.415-0.226c0.709-0.283,1.253-0.752,1.632-1.407
		c0.399-0.691,0.481-1.476,0.247-2.352c-0.113-0.393-0.312-0.811-0.596-1.254c-0.285-0.443-0.685-0.96-1.2-1.549
		s-1.247-1.356-2.192-2.304l-1.153-1.157c-1.799-1.803-3.016-3.101-3.651-3.892c-0.725-0.868-1.252-1.621-1.581-2.261
		c-0.329-0.639-0.535-1.328-0.618-2.067c-0.144-1.055,0.037-2.019,0.541-2.893c0.61-1.056,1.472-1.823,2.586-2.303
		s2.373-0.63,3.774-0.451c1.402,0.178,2.791,0.664,4.165,1.458c2.075,1.198,3.895,3.019,5.458,5.463
		c0.557,0.843,0.976,1.347,1.258,1.51C121.402,473.971,122.214,473.742,123.128,472.874L123.128,472.874L123.128,472.874z"/>
	<path d="M1.44,91.657l9.927,5.731l-0.264,0.521c-0.815-0.459-1.473-0.692-1.971-0.701s-0.877,0.21-1.134,0.656
		c-0.252,0.437-0.436,0.944-0.55,1.521l-2.413,13.481l9.481-7.435c0.217-1.112,0.332-1.957,0.343-2.533s-0.067-1.149-0.236-1.72
		c-0.128-0.535-0.328-0.972-0.6-1.311c-0.271-0.339-0.658-0.653-1.158-0.942l0.292-0.505l10.35,5.976l-0.292,0.505l-0.505-0.292
		c-0.819-0.473-1.537-0.702-2.152-0.687c-0.616,0.015-1.076,0.286-1.38,0.814c-0.205,0.355-0.336,0.729-0.392,1.121l-2.362,13.583
		l9.956-7.942c0.521-0.44,0.91-0.883,1.168-1.329c0.394-0.683,0.422-1.346,0.084-1.991c-0.338-0.644-1.055-1.3-2.149-1.969
		l0.265-0.521l7.66,4.422l-0.292,0.505c-0.531-0.258-0.989-0.416-1.374-0.475c-0.385-0.059-0.846-0.054-1.382,0.012
		c-1.111,0.16-2.322,0.753-3.632,1.781l-14.792,11.778l-0.505-0.292l2.991-17.226L0.533,117.131L0,116.823l3.203-18.287
		c0.311-1.653,0.342-2.958,0.094-3.915c-0.249-0.957-0.806-1.685-1.67-2.184l-0.478-0.276L1.44,91.657L1.44,91.657z"/>
	<path d="M467.643,361.344l20.289,11.715l-4.264,7.387l-0.41-0.236c0.373-1.508,0.598-2.668,0.672-3.48s0.041-1.643-0.102-2.489
		c-0.18-1.014-0.521-1.861-1.027-2.541c-0.852-1.111-2.078-2.129-3.68-3.054l-3.756-2.168l-5.234,9.066l1.01,0.584
		c1.502,0.867,3.068,0.909,4.697,0.126c0.838-0.401,1.633-0.999,2.383-1.792c0.334-0.329,0.768-0.849,1.301-1.562l0.479,0.276
		l-7.221,12.508l-0.479-0.276c0.279-0.736,0.516-1.446,0.711-2.129c0.193-0.684,0.305-1.266,0.334-1.746
		c0.029-0.481,0.006-0.992-0.07-1.534c-0.236-1.483-1.109-2.661-2.621-3.533l-0.791-0.457l-4.928,8.534l3.141,1.813
		c0.928,0.536,1.801,0.952,2.619,1.249c0.818,0.296,1.604,0.477,2.355,0.54c0.752,0.064,1.516,0.022,2.293-0.124
		c1.328-0.24,2.564-0.783,3.707-1.628c0.656-0.483,1.455-1.187,2.4-2.109l0.506,0.292l-4.533,7.852l-20.768-11.991l0.264-0.521
		l0.52,0.3c2.313,1.335,4.141,0.837,5.486-1.493l6.408-11.102c0.684-1.184,0.906-2.22,0.668-3.11s-0.949-1.677-2.133-2.36l-0.52-0.3
		L467.643,361.344L467.643,361.344z"/>
	<path fill="#FFF6F6" d="M374.418,4.676c2.055,8.117,4.107,16.233,6.162,24.349c2.99-3.565-0.623-8.059-0.924-12.084
		c-1.279-3.911-1.541-8.587-3.438-12.033C375.596,4.883,373.309,2.44,374.418,4.676L374.418,4.676z M389.918,13.071
		c-0.107,1.432,0.42,1.075,1.434,0.573C391.156,13.759,389.488,12.168,389.918,13.071L389.918,13.071z M364.305,19.948
		C362.299,20.215,365.322,21.442,364.305,19.948L364.305,19.948z"/>
	<path fill="#FFF6F6" d="M121.098,474.924C120.227,474.541,121.064,476.658,121.098,474.924L121.098,474.924z M106.524,466.658
		c-3.393,1.279-2.889,5.736-0.496,7.708c2.803,3.952,8.057,6.543,9.168,11.48c0.428,0.987-1.419,3.452,0.174,2.056
		c3.268-2.511,0.856-7.096-1.757-9.072c-2.586-3.317-7.692-5.627-7.796-10.284C105.775,467.918,106.541,466.78,106.524,466.658
		L106.524,466.658z M97.951,480.439c0.963-0.138,2.396,0.982,1.495-0.711C99.169,476.967,98.968,479.146,97.951,480.439
		L97.951,480.439z"/>
	<path fill="#FFF6F6" d="M4.592,95.198c-0.18,6.589-2.229,13.098-3.061,19.663c4.037-2.213,2.666-7.653,4.008-11.473
		c0.661-2.228,0.267-5.071,2.047-6.822C6.879,96.41,4.534,94.309,4.592,95.198L4.592,95.198z M15.892,101.403
		c0.346,5.647-1.887,11.807-2.536,17.758c-0.562,5.151,3.552-2.688,2.817-5.145c1.23-3.444,0.125-8.107,2.878-10.832
		C18.034,102.622,16.806,101.838,15.892,101.403L15.892,101.403z M29.037,109.163C29.336,109.549,29.26,108.531,29.037,109.163
		L29.037,109.163z"/>
	<path fill="#FFF6F6" d="M471.283,364.919c-0.418,4.705-4.443,8.243-6.227,12.478c-0.967,1.646-1.822,3.634-3.688,4.398
		c3.736,3.987,4.639-2.608,6.668-4.995c2-3.465,4.002-6.931,6.002-10.396C473.209,365.991,471.895,365.031,471.283,364.919
		L471.283,364.919z M484.668,372.774c0.563,0.753,0.117,4.121,1.061,1.738C487.486,373.5,484.463,372.296,484.668,372.774
		L484.668,372.774z M476.006,377.468c-1.117,0.507-2.746,0.205-1.703,1.737C474.281,382.37,475.918,377.295,476.006,377.468
		L476.006,377.468z M478.313,388.239c-1.201,0.648-2.531,0.954-3.869,1.104C477.057,391.678,477.73,390.053,478.313,388.239
		L478.313,388.239z"/>
	<path fill-rule="evenodd" clip-rule="evenodd" fill="#888888" d="M228.648,238.814c-2.859,11.584,3.745,20.13,19.799,24.446
		c0.158,0.198-11.731,1.009-17.577-4.849C223.897,251.424,226.897,238.141,228.648,238.814L228.648,238.814z"/>
	<path fill-rule="evenodd" clip-rule="evenodd" fill="#888888" d="M255.979,258.405c7.461-10.233,3.227-26.195-8.465-31.199
		c-0.057-0.247,7.238,2.292,11.855,9.161C266.02,246.264,258.068,259.908,255.979,258.405L255.979,258.405z"/>
</g>
</svg>
