<?xml version="1.0" encoding="UTF-8"?>
<!-- Generator: Adobe Illustrator 12.0.1, SVG Export Plug-In . SVG Version: 6.00 Build 51448)  -->

<!-- TinyXml can't handle this 
<!DOCTYPE svg PUBLIC "-//W3C//DTD SVG 1.1//EN" "http://www.w3.org/Graphics/SVG/1.1/DTD/svg11.dtd" [
	<!ENTITY ns_svg "http://www.w3.org/2000/svg">
	<!ENTITY ns_xlink "http://www.w3.org/1999/xlink">
]> -->

<svg version="1.1" id="Layer_1" xmlns="http://www.w3.org/2000/svg" xmlns:xlink="http://www.w3.org/1999/xlink" width="192.316" height="177.025" viewBox="0 0 192.316 177.025" overflow="visible" enable-background="new 0 0 192.316 177.025" xml:space="preserve">
<g>
	<g>
		<g>
			<polyline fill="#FFFFFF" points="26.456,155.183 28.907,152.491 32.688,150.083 35.805,149.516 38.086,153 34.388,156.033 32.972,159.149 29.005,161.699 25.323,160.849 24.188,159.433 25.039,155.466 26.456,155.183"/>
		</g>
		<g>
			<path fill="#FCC7AC" d="M56.447,102.341l1.529-2.976l5.312-2.338l5.102,0.213l3.399,1.275l0.637,2.125l3.4,17l11.263,30.6     l6.801,5.525l5.101,1.062l3.824,1.701l3.611,1.572l-0.34,1.188l-0.935,1.7l-5.737-1.274c0,0,4.675,5.312,5.312,5.312     c0.639,0-0.638,2.976-0.638,2.976l-2.338-0.639l0.255,2.295l-1.104,0.043l-9.138-4.888l2.125,4.675l-0.426,2.125h-1.274     l-2.764-2.762l-2.039-3.613l-2.848-1.062l-4.675-2.976l-1.063-4.462l-0.212-2.55l-7.438-6.588c0,0-9.563-19.125-8.926-20.612     c0.639-1.488-1.274-9.138-1.274-9.138l-2.764-4.676l-1.274-12.536"/>
		</g>
		<g>
			<polyline fill="#C8C7B3" points="186.328,135.151 189.089,138.182 187.957,142.149 186.54,143.849 183.267,144.331 182.857,142.433 183.097,140.76 183.99,139.883 183.707,137.899 186.328,135.151"/>
		</g>
		<g>
			<polyline fill="#FFFFFF" points="9.739,161.699 17.346,162.351 23.906,165.949 33.497,169.661 38.426,170.51 39.489,165.383 43.456,160.849 47.138,160.566 50.823,162.833 51.956,168.499 50.255,173.033 45.438,175.299 39.206,176.716 32.688,175.583 26.739,173.599 20.407,171.871 15.406,170.483 11.156,168.783 9.456,166.799 9.739,161.699"/>
		</g>
		<g>
			<polyline fill="#FFFFFF" points="46.289,131.666 50.539,136.199 52.027,142.291 51.956,146.683 47.706,150.933 47.436,143.821 45.722,138.749 43.739,137.049 45.156,133.649"/>
		</g>
		<g>
			<g>
				<g>
					<g>
						<polyline fill="#2E3192" points="159.339,123.166 164.723,122.032 169.256,124.016 172.089,126.282 176.467,126.821 181.568,128.521 185.689,134.216 185.477,137.191 183.707,137.899 183.097,140.76 183.267,144.331 180.874,144.133 178.04,141.016 172.374,141.299 170.673,144.133 169.824,146.683 163.874,148.099 161.04,147.816 159.339,123.166"/>
					</g>
					<g>
						<polyline fill="#C8C7B3" points="44.716,136.17 47.422,140.166 48.626,146.031 47.138,153.199 42.039,156.883 39.489,154.899 42.323,150.083 41.472,146.116 41.657,143.141 43.739,136.199"/>
					</g>
					<g>
						<polyline fill="#C6161D" points="13.209,150.844 18.805,154.333 26.867,153.51 31.838,150.933 35.805,149.516 27.588,144.983 21.073,146.399 13.706,150.083 17.105,153.199"/>
					</g>
					<g>
						<polyline fill="#29A6D1" points="78.873,121.466 84.255,120.899 92.755,126.566 95.589,132.799 96.439,141.016 93.889,144.416 90.206,148.099 88.577,148.411 86.805,146.116 78.022,121.466"/>
					</g>
					<g>
						<path fill="#29A6D1" d="M36.088,84.703c0,0-3.115,5.597-0.565,7.579c2.551,1.983,5.794,1.049,5.794,1.049l9.689-0.681        c0,0-0.468,12.666,4.634,13.231c5.1,0.566,0.851-0.282,0.851-0.282s2.762,11.687,4.462,12.254        c1.7,0.566,0.921,10.13,1.487,10.979c0.565,0.852,7.648,22.385,13.315,23.519s1.135,1.417,1.135,1.417h-9.066l-1.687-1.275        l-21.421,7.48l-1.869-3.4l4.292-3.372l2.268-4.533l1.982-8.782l-0.851-3.685l-4.25-4.533l-4.25,9.067L41.755,151.5l-2.55,1.7        l-7.083-7.083c0,0-13.884-1.133-19.268,3.117l-4.25,7.933L4.071,153.2l1.035-4.448l4.42-12.068l-4.038-2.749        c0,0-5.384-8.783-4.533-10.2c0.851-1.416-0.704-11.497,7.083-16.15c1.091-0.649,6.518-3.683,10.482-8.5        c3.968-4.815,11.617-12.467,11.617-12.467l2.268-2.549L36.088,84.703"/>
					</g>
					<g>
						<path fill="#FFF3E1" d="M69.07,58.948l6.757,4.717l1.062,9.352l-1.487,8.713l0.425,7.861l1.274,4.676l-2.976,5.524        c0,0-11.899-9.138-18.7,3.612l0.426,1.488l-1.699-0.214c0,0-4.804-6.631-2.935-12.239c0,0-17.467,6.078-15.13-7.735        l4.889-2.55l6.162-9.351l8.074-9.139l6.802-4.25L69.07,58.948"/>
					</g>
					<g>
						<path fill="#C6161D" d="M52.477,100.933c1.688-1.555,2.829-3.44,4.849-4.81c1.926-1.313,3.892-1.991,6.123-2.271        c0.61-0.067,1.209,0.065,1.806-0.054c3.479-0.73,7.479-0.519,9.854,2.179c0.491,0.505,1.303,0.505,1.807,0.013        c0.492-0.491,0.492-1.302,0-1.806c-1.74-2.205-4.595-3.017-7.277-3.241c-2.803-0.252-5.473,0.213-8.313,0.757        c-4.529,0.864-7.93,3.893-10.492,7.464c-0.04-0.024-0.066-0.064-0.106-0.093c-0.504,0.492-0.531,1.289-0.054,1.807        C51.164,101.384,51.96,101.411,52.477,100.933"/>
					</g>
					<g>
						<path fill="#C6161D" d="M52.477,91.742c4.196-2.895,9.271-3.971,14.277-4.409c2.604-0.226,5.193,0.504,7.531,1.594        c0.689,0.146,1.354-0.306,1.5-0.995c0.133-0.69-0.305-1.368-0.996-1.5c-3.758-1.993-8.021-1.979-12.231-1.145        c-4.156,0.824-8.021,1.886-11.408,4.277c-0.599,0.372-0.797,1.154-0.426,1.753C51.096,91.915,51.88,92.114,52.477,91.742"/>
					</g>
					<g>
						<path fill="#C6161D" d="M53.593,83.747c6.375-3.135,14.41-4.582,20.72-0.492c0.638,0.293,1.396,0,1.688-0.637        c0.292-0.638,0-1.395-0.639-1.687c-6.918-4.356-15.777-3.041-22.776,0.478c-0.65,0.279-0.942,1.023-0.664,1.674        C52.2,83.734,52.943,84.026,53.593,83.747"/>
					</g>
					<g>
						<path fill="#C6161D" d="M56.118,76.349c2.43-1.235,4.769-2.776,7.557-3.081c3.879-0.426,7.545,0.836,10.983,2.403        c-0.039,0.039-0.066,0.094-0.106,0.134c0.466,0.53,1.275,0.584,1.794,0.118c0.53-0.466,0.585-1.274,0.118-1.793        c-1.766-1.819-4.355-2.219-6.706-2.936c-5.246-1.594-10.586,0.065-15.021,3.001c-0.584,0.372-0.758,1.156-0.386,1.754        C54.722,76.547,55.519,76.721,56.118,76.349"/>
					</g>
					<g>
						<path fill="#C6161D" d="M58.892,67.663c1.768-0.862,3.388-2.138,5.419-2.059c3.76,0.16,7.649,1.209,10.413,3.918        c0.57,0.397,1.367,0.266,1.779-0.306c0.397-0.57,0.266-1.367-0.306-1.779c-2.432-2.497-5.672-3.4-9.071-4.184        c-3.493-0.812-6.642,0.41-9.482,2.19c-0.61,0.345-0.823,1.116-0.479,1.74C57.511,67.795,58.283,68.008,58.892,67.663"/>
					</g>
					<g>
						<path fill="#C6161D" d="M37.497,84.756c-0.836,4.648,2.457,7.623,6.242,9.51c0.638,0.277,1.833-0.199,2.125-0.852        c0.293-0.637,0.278-0.41-0.371-0.688c-2.737-1.396-5.938-4.038-5.499-7.438c0.146-0.688-0.292-1.368-0.982-1.514        C38.321,83.627,37.642,84.066,37.497,84.756"/>
					</g>
					<g>
						<path fill="#C6161D" d="M42.516,79.231c-1.234,4.994,3.839,8.58,7.876,10.188c0.639,0.318,1.396,0.065,1.715-0.57        c0.316-0.624,0.064-1.396-0.571-1.714c-2.909-1.303-7.119-3.413-6.575-7.158c0.2-0.664-0.172-1.381-0.85-1.595        C43.447,78.182,42.729,78.554,42.516,79.231"/>
					</g>
					<g>
						<path fill="#C6161D" d="M46.806,72.377c-2.551,4.17,1.913,7.995,5.604,9.218c0.638,0.307,1.396,0.026,1.699-0.61        c0.293-0.637,0.027-1.395-0.61-1.7c-1.779-0.783-3.586-1.634-4.715-3.359c-0.611-0.931-0.04-1.767,0.385-2.591        c0.267-0.649-0.039-1.394-0.703-1.659C47.816,71.408,47.073,71.713,46.806,72.377"/>
					</g>
					<g>
						<path fill="#C6161D" d="M52.81,65.578c-1.699,2.537,0.426,5.79,2.803,6.935c0.664,0.237,1.394-0.106,1.619-0.771        c0.239-0.664-0.105-1.394-0.771-1.633c-0.757-0.425-1.302-1.089-1.541-1.899c-0.119-0.412-0.688-0.757,0.08-1.354        c0.359-0.6,0.159-1.381-0.452-1.74C53.938,64.754,53.168,64.967,52.81,65.578"/>
					</g>
					<g>
						<polyline fill="#FFF3E1" points="82.626,73.78 89.214,73.44 91.084,71.336 95.376,71.74 96.439,75.99 97.29,82.578 96.439,85.765 88.79,86.828 81.777,85.341 81.99,83.215 81.564,74.502"/>
					</g>
					<g>
						<path fill="#C6161D" d="M91.644,86.788c1.447-0.093,2.443-1.169,3.731-1.713c0.639-0.306,0.903-1.076,0.599-1.7        c-0.318-0.638-1.076-0.901-1.713-0.598c-1.116,0.438-1.979,1.554-3.229,1.541c-0.69,0.172-1.103,0.863-0.93,1.54        C90.277,86.549,90.967,86.961,91.644,86.788"/>
					</g>
					<g>
						<path fill="#C6161D" d="M81.99,75.486c2.643,1.314,5.604,1.089,8.393,0.279c1.355-0.387,2.418-1.355,2.816-2.79        c0.198-0.679-0.187-1.382-0.863-1.58c-0.678-0.199-1.381,0.186-1.581,0.862c-0.133,0.332-0.292,0.679-0.624,0.811        c-2.311,0.957-5.007,1.222-7.291,0.026c-0.664-0.238-1.395,0.105-1.621,0.771C80.979,74.53,81.326,75.26,81.99,75.486"/>
					</g>
					<g>
						<path fill="#C6161D" d="M81.922,82.442c3.016,1.581,6.27,0.704,9.377,0.093l0.584-0.159c0.227-0.064,0.412-0.212,0.559-0.385        l0.452-0.69c-0.015,0-0.015,0.015-0.026,0.015c0.372-1.647,2.363-2.086,3.812-2.393c0.703-0.053,1.234-0.663,1.183-1.366        c-0.054-0.704-0.664-1.235-1.368-1.184c-2.417,0.398-5.021,1.421-5.99,3.865l-0.013,0.119l0.557-0.385l-0.438,0.053        c-2.523,0.545-5.246,1.382-7.703,0.053c-0.651-0.265-1.396,0.04-1.674,0.691C80.966,81.42,81.271,82.164,81.922,82.442"/>
					</g>
					<g>
						<path fill="#FFF3E1" d="M101.327,70.89l8.84,7.14l6.886,1.573l3.654,0.297l0.809,3.103c0,0-8.713,2.339-8.713,6.375        c0,4.037-2.125,6.588-1.487,8.075c0.638,1.488,2.551,1.488,2.551,1.488l-2.125,2.55l-3.188,0.212l-2.125-2.55l-4.463-3.613        l1.275-6.375l-1.062-2.762l1.699-5.312l-1.699-5.949l-1.7-4.889"/>
					</g>
					<g>
						<path fill="#C6161D" d="M103.333,71.143c-0.65,0.465-1.262,0.98-1.779,1.594c-0.491,0.504-0.466,1.313,0.039,1.807        c0.506,0.479,1.315,0.465,1.794-0.041c0.451-0.478,0.955-0.89,1.461-1.313c0.57-0.412-0.12-0.877-0.546-1.448        C103.89,71.168,103.904,70.718,103.333,71.143"/>
					</g>
					<g>
						<path fill="#C6161D" d="M104.089,86.828c0.559-2.165,1.288-4.196,2.551-6.108c0.757-1.155,1.858-1.912,2.962-2.696        c0.53-0.464,0.584-1.275,0.119-1.807c-0.466-0.53-1.263-0.584-1.794-0.118c-1.233,0.995-2.615,1.833-3.426,3.227        c-1.395,2.364-2.63,4.835-2.962,7.504c0,0.704,0.571,1.275,1.274,1.275C103.518,88.103,104.089,87.532,104.089,86.828"/>
					</g>
					<g>
						<polyline fill="#29A6D1" points="96.014,71.953 99.415,70.252 102.814,75.14 103.665,81.728 103.027,86.7 103.24,90.653 100.689,97.877 95.165,107.866 88.79,116.153 84.751,120.191 78.886,122.231 75.402,115.728 73.277,108.716 72.426,100.641 74.551,100.427 77.527,95.54 77.357,94.69 75.189,86.615 75.827,82.365 77.101,74.502 76.04,69.615 75.402,63.028 79.439,67.703 81.99,77.265 81.139,83.64 81.777,85.341 94.74,86.403 96.439,84.703 97.926,78.965 96.014,71.953"/>
					</g>
					<g>
						<path fill="#C6161D" d="M118.417,79.209c-2.104,0.676-4.429,0.457-6.307,1.974c-3.071,2.45-4.901,5.797-5.842,9.459        c-0.669,2.645-0.921,5.391,0.229,7.909c0.229,0.665,0.964,1.017,1.629,0.787c0.664-0.229,1.017-0.964,0.774-1.627        c-1.57-3.571-0.166-7.368,1.58-10.742c1.031-1.984,2.388-3.668,4.507-4.426c1.404-0.496,2.878-0.425,4.255-0.93        c0.665-0.229,1.018-0.95,0.789-1.615C119.803,79.333,119.083,78.981,118.417,79.209"/>
					</g>
					<g>
						<polyline fill="#CB242B" points="102.389,125.078 115.139,133.153 115.158,156.652 100.919,147.302 101.327,124.866"/>
					</g>
					<g>
						<path fill="#C6161D" d="M115.139,134.002l45.899-7.86v21.675l-45.05,9.774C115.99,157.591,114.714,134.853,115.139,134.002"/>
					</g>
					<g>
						<path fill="#ED1C24" d="M101.455,124.526c0,0,13.472-3.698,17.51-3.061l4.25-0.639l4.462,4.463l0.426,2.337h0.639l2.762-2.125        l0.766,1.828l2.211,0.723l1.486-2.125l1.488,1.062l3.188-4.25l1.913-0.638l0.255-2.934l6.332-0.893l11.899,7.863l-46.198,7.31        L101.455,124.526"/>
					</g>
					<g>
						<path fill="#FCC7AC" d="M118.964,100.002l-6.928-1.911c0,0-3.463-13.649,8.33-14.962c1.147-0.127,1.147-0.127,1.147-0.127        l5.737,4.037l3.825,4.463l4.037,7.015l0.213,7.012l-0.639,7.013l1.7,2.337l2.763,5.738l-0.213,4.462l-2.763,1.573        l-0.638,1.401l-3.441,0.299l-0.809-3.91l-1.488,2.975l-1.062,0.212l-2.763-5.523l-2.764-1.275h-5.737        c0,0,2.551-5.312,6.588-5.1L118.964,100.002"/>
					</g>
					<g>
						<path fill="#FCC7AC" d="M79.907,44.709c0,0-3.018-5.27-5.143-4.845s-5.95,2.125-5.95,2.125l-0.991,4.675l1.417,5.525        l2.677,2.72l1.289-0.595l-2.267,5.1l6.375,5.95l3.399,3.4l1.912,5.015l5.525-0.34l3.612-1.7l2.125,0.851l8.116-5.439        c0,0,13.898-12.07,8.841-20.74l3.739-8.84l-7.479-7.479l-0.468,5.524l-6.801-4.675l0.426,4.675l-8.799-7.565l-2.89,7.99        l-1.771-6.375l-5.666,8.926l0.851,5.101L79.907,44.709"/>
					</g>
					<g>
						<path fill="#654931" d="M81.422,7.565l9.492-0.851l7.226,1.417l5.101,4.25l5.808,5.101l4.393,4.958l2.976,8.075l0.143,6.375        l-2.691,1.699l-5.525-8.5l-0.85,4.25l-7.523-2.211l0.299,3.485c0,0-9.054-4.335-8.926-5.95        c0.127-1.615-2.408,5.102-2.408,5.102l-3.471-5.401l-3.259,14.309L79.867,44.4l-2.409-3.117l-5.809-0.992l-4.816,6.658        l-4.392-6.658l-1.275-9.35l2.55-9.775l5.653-4.675l3.399-1.87l-4.095-5.922l6.093,1.984l-2.551-4.817l4.249,1.983l5.526-5.384        L81.422,7.565"/>
					</g>
					<g>
						<path d="M84.157,0.34c-0.341,1.53-1.7,2.04-2.04,3.57c-0.17,1.19-0.681,2.38,0.51,3.4c4.25-0.511,8.16-2.551,12.24-0.681        c7.649,0.34,9.18,8.84,15.979,11.221c1.021,2.38,3.739,4.59,3.061,7.14h-0.681c-1.699-6.8-9.011-9.69-13.261-15.3        c-5.1-2.891-11.729-3.91-17-0.681c-2.21-0.51-2.04-3.909-2.38-5.439c-1.021,2.04-3.229,3.91-3.06,6.12        c-1.7,0.34-2.041-2.721-3.74-3.061c0.34,1.36,2.04,3.57,1.021,4.761c-1.021-0.851-3.061-1.7-4.08-1.19        c0.851,1.36,2.381,2.72,2.04,4.42c-2.21-0.34-1.53-3.229-3.739-3.91c-1.7-0.51-3.57,0.34-4.931-0.51        c0.34-1.19,2.04-1.53,3.229-2.04c2.21-0.34,4.08,0.68,5.78,0.85c-0.682-1.869-3.4-3.229-3.91-4.93        c2.89-1.02,5.27,1.87,7.649,3.061C78.545,4.08,80.415,1.02,83.985,0L84.157,0.34"/>
					</g>
					<g>
						<path d="M71.407,16.15c-0.511,0.34-1.19-0.17-2.04,0.34c-2.381,1.7-4.42,4.08-5.44,6.8c-0.51,0-1.02,0-1.189-0.51        c1.021-3.57,3.4-5.44,6.461-7.65C70.046,15.469,71.236,15.13,71.407,16.15"/>
					</g>
					<g>
						<path d="M62.226,28.39c-1.189,5.609,0.851,12.068,3.91,17c-1.021,0.85-1.7-0.342-2.381-0.682        c-3.229-5.778-4.59-14.619-0.85-20.91C64.096,24.99,62.226,26.69,62.226,28.39"/>
					</g>
					<g>
						<path d="M117.136,35.7c-0.851,1.53-1.189,3.57-3.061,4.25c-0.341,2.891-3.4,5.95-2.21,9.01c0.17,7.142-3.4,14.62-9.86,18.19        c-0.34,0-0.85,0-1.189-0.51c0.341-1.36,2.211-1.19,3.061-2.04c5.271-4.42,6.971-11.392,6.971-18.19l0.34-0.34        c-1.021-1.7,0.851-3.399,1.529-5.101c-0.17-1.359,1.36-3.399-0.68-4.079c-1.189-0.512-0.17-1.7-0.851-2.381        c-0.851-0.851-1.529-2.211-2.721-2.381c-0.34,1.36-0.17,3.57-1.699,4.42c-1.189-0.34-0.511-1.528-1.359-2.039        c-1.7-1.189-3.57-3.061-5.44-2.381c0.511,1.53,0.681,3.57,0.341,4.762c-1.699,0.51-1.021-1.36-1.87-2.04        c-2.55-0.681-4.761-2.21-6.971-3.4c-1.02,1.53-1.869,3.061-2.89,4.59c-2.04-0.68,0-4.25-2.55-5.1        c0.17,2.72-1.36,4.59-1.87,6.8l-1.19,0.341c0.171-1.871,1.36-3.91,2.04-5.951V30.43h0.17l0.171-1.53        c1.529,1.021,2.89,2.04,3.739,3.91c1.87-1.021,0.34-4.25,2.38-4.762c1.19,3.23,4.421,4.421,7.312,5.61        c0.34-1.189-0.511-2.21,0-3.229c3.06-0.171,5.27,1.528,7.648,3.06c-0.17-1.021-0.17-2.38,0.682-3.399        c3.398,0.511,5.1,4.25,7.14,6.119c-0.511,0.512,0.17,0.852,0.34,1.36c2.21-2.21,1.7-5.44,1.19-8.16        c-0.511-1.02-1.53-2.21-1.021-3.399C117.646,28.39,117.816,32.129,117.136,35.7"/>
					</g>
					<g>
						<path d="M83.136,38.59c-0.171,2.209-0.851,3.91,0.34,5.779c-0.681,1.021-1.529,0.68-2.551,0.51        c-0.51-0.34-0.51-0.68-0.51-1.02c2.38,0.51,0.51-2.21,1.021-3.062C81.607,39.78,81.777,38.42,83.136,38.59"/>
					</g>
					<g>
						<path d="M96.226,41.82c-1.529,1.021-2.721-1.021-4.08-1.021c-1.699-0.51-3.569,1.531-4.931,1.021        c0.511-1.021,2.381-2.04,3.91-2.21C92.997,39.78,95.376,39.78,96.226,41.82"/>
					</g>
					<g>
						<path d="M77.867,41.14c1.189,0.85,1.529,2.21,2.04,3.568c-0.681,0.17-0.511,1.19-1.36,0.682        c0.341-1.021-0.34-2.04-1.188-3.061c-1.7-1.36-3.57-2.041-5.61-1.189c-1.7,0.34-2.21,2.04-3.399,3.06        c0,2.891-0.511,7.48,3.399,9.01c1.021,0.852,3.061-0.85,3.061,1.19c-0.851,0.85-2.21,0.34-2.891,0.51        c-3.229-1.188-3.739-4.76-4.76-6.97c-0.341-0.681-2.04-0.34-1.19-1.53c1.7-0.17,0.681-2.38,1.7-3.399        C69.537,39.27,74.806,38.76,77.867,41.14"/>
					</g>
					<g>
						<path d="M109.146,41.82c0,0.34,0.17,0.851-0.34,0.851c-1.189-0.34-2.04-1.359-3.229-1.699c-1.189-0.342-2.38,1.529-3.229,0.17        c0.851-1.36,3.061-1.36,4.42-1.19C107.617,40.29,108.806,40.799,109.146,41.82"/>
					</g>
					<g>
						<path d="M75.146,45.39v0.34c-0.851,0.51-1.699-1.36-2.38,0c-0.681,0.68-1.359,2.04-0.511,3.06        c0.341,0.34,1.021,0.511,0.852,1.19c-1.021,1.359-2.041-0.852-2.381-1.53c-0.17-1.7,0.51-3.74,2.381-4.42        C73.957,44.2,74.976,44.37,75.146,45.39"/>
					</g>
					<g>
						<path d="M106.086,46.92c0.511-0.851,1.19-1.7,2.38-1.021c0.171,1.7-2.04,2.21-3.399,2.55c-1.529,0.17-2.72-0.68-3.739-1.7        V45.39C102.857,46.07,104.216,48.45,106.086,46.92"/>
					</g>
					<g>
						<path d="M95.886,46.41c-0.341,1.36-2.211,1.87-3.229,2.72c-1.53,0.512-3.061,0-4.25-1.02c-0.681-0.34-0.511-1.021-0.851-1.36        c1.021-0.85,2.04,1.19,3.061,1.36C93.167,48.79,93.846,44.709,95.886,46.41"/>
					</g>
					<g>
						<path d="M103.027,53.379c-0.681,1.36-1.19,2.722-2.721,3.062c-2.21-0.34-4.08,0.17-5.439-1.87c2.04-0.17,3.74,1.36,5.609,0.34        C101.497,54.4,101.497,52.36,103.027,53.379"/>
					</g>
					<g>
						<path d="M91.126,56.44c-1.02,0.68-1.189,1.529-0.34,2.21c2.89,2.04,7.14,2.21,10.199,0.68c1.189-0.34,0.341-2.04,1.7-1.7        c1.189,0.682-0.511,1.53,0,2.041c-2.04,1.869-3.909,5.101-7.141,4.931c-1.87-0.17-4.42-0.681-5.27-2.892        c0-0.85,0-2.38-1.021-3.229c-0.85,0.68-1.87,0.85-2.89,1.02c-1.19-1.358,1.359-0.85,1.869-1.87        C88.917,57.12,90.787,53.55,91.126,56.44"/>
					</g>
					<g>
						<path d="M72.086,59.5c2.21,1.021,3.74,3.74,5.78,4.761l0.17-0.17c-1.36-2.381-3.399-4.931-2.21-7.819h0.34        c0.681,4.93,3.569,10.2,8.5,11.899c0.851,0.34,2.04,0,2.55,1.021c-0.68,0.85-2.55,0.17-3.739-0.34        c-0.851-1.021-2.21-1.19-3.229-1.7c2.04,5.1,2.891,11.05,1.7,17c2.21,0.85,4.42,1.021,6.63,1.531        c1.7-0.341,5.1,0.679,6.8-0.853c2.04-2.379,2.04-5.779,1.53-8.5c-0.171-1.358-1.19-2.55-1.53-3.909        c-2.21-0.341-5.609,0-6.63-2.721c1.36-0.51,2.04,1.19,3.061,1.53c2.891-0.17,5.609-0.34,7.819-2.891        c0.511,0.17,0.851,1.021,0.34,1.529c-0.85,1.36-3.569,1.36-3.569,2.891c1.7,2.721,2.551,6.29,1.529,9.69        c-0.17,1.36-1.529,2.379-1.359,4.079c-4.08,0.85-7.311-0.17-11.22,0.17c-3.061-1.189-6.46-1.529-9.011-3.738        c-0.17,1.359-0.51,3.229,0.17,4.25c1.36-0.172,2.551,0.168,3.74,1.02c1.36,1.529,0,3.398-0.17,4.93        c-0.341,0.682-1.189,1.53-2.04,1.19c-0.17-0.169-0.34-0.681-0.851-0.681c-0.681,0.34,0.171,0.512,0.171,1.021        c0.34,2.721-0.852,5.271-3.062,6.461c-0.34,0-0.51-0.34-0.85-0.17c-1.021,4.42,0.85,9.688,2.38,14.279        c-0.341,0.341-0.681,0.171-1.021,0.171c-2.04-4.932-2.891-10.881-2.551-16.32c-4.08-2.89-9.18-1.53-13.09,0.34        c-0.681,0.851-1.359,1.53-2.38,1.7c-0.51-1.7,1.529-2.21,2.72-3.4c4.08-1.528,9.69-2.55,13.771,0        c0.51,0.341,0.68,1.87,1.699,1.021c1.699-2.55,2.381-4.931,0.51-7.991c-0.851-3.229-0.851-6.63,0-9.859        c1.7,0.341,2.891,2.551,4.761,2.721c2.21-3.91,0.17-7.65,0.17-11.9c-1.359-2.55-1.53-6.8-5.271-7.31        c-1.021-2.381-3.399-3.57-5.779-4.42c0.34-0.852,1.359-1.021,1.869-1.87l1.7-2.04C73.787,56.95,72.086,58.31,72.086,59.5"/>
					</g>
					<g>
						<path d="M68.857,59.16c0.17,0.681-0.682,0.511-0.852,0.851c-0.17-0.34-0.34-0.34-0.68-0.34c-0.681,0.511-1.87,0-3.061,0.511        c-2.21,0.51-4.25,1.358-6.46,2.04c-0.341-0.171-0.681-0.852-0.171-1.021C61.037,58.99,65.117,58.65,68.857,59.16"/>
					</g>
					<g>
						<path fill="#FFFFFF" d="M98.777,61.54c-0.681,1.021-1.87,1.7-3.23,1.7c-1.359-0.17-2.72-0.34-3.739-1.53l-0.17-1.02        C93.676,62.219,96.396,61.37,98.777,61.54"/>
					</g>
					<g>
						<path d="M55.596,63.75c-3.91,3.57-6.801,7.99-9.351,12.07c-0.681,0.17-1.021,0-1.021-0.51c1.87-3.91,5.101-7.312,7.649-10.88        c0.851-0.682,1.87-1.19,2.891-1.19L55.596,63.75"/>
					</g>
					<g>
						<path d="M77.357,70.719c0.68,3.569-0.511,6.29-1.021,9.351c-0.34,0.17-0.68,0-1.021-0.34c1.189-3.91,1.021-7.65,0.681-11.391        C77.357,68.17,76.506,70.04,77.357,70.719"/>
					</g>
					<g>
						<path d="M115.096,78.54c1.359,1.7,4.25-0.85,5.609,1.36c1.19,0.85,1.701,2.38,1.701,3.911        c7.479,3.229,13.26,10.37,13.599,18.699c-0.169,1.359,1.021,3.909-0.849,4.421c-0.852-2.551,0-5.44-0.852-7.65        c-1.359-2.891-1.869-7.312-4.93-8.501c-1.529-4.589-9.011-4.08-9.011-9.01c-1.19-2.38-3.4-0.511-4.76-2.21        c-2.041,1.02-3.57-1.36-5.44-1.53c-3.229-1.87-5.439-5.95-9.181-6.63c4.08,4.08,3.57,10.54,2.041,15.3        c0.34,1.7,0.85,4.251-0.17,5.95c-2.381-0.85,0.51-3.4-1.021-5.1c-1.359-1.53-3.229-0.34-4.42-1.869        c1.53-1.191,4.08,1.357,5.271-1.191c0.341-4.59,0.511-9.521-2.891-12.75c1.36,0,1.021-1.36,2.21-1.36        C106.766,72.25,109.828,77.69,115.096,78.54"/>
					</g>
					<g>
						<path d="M57.126,73.44c-3.569,4.42-4.08,10.54-4.76,15.81c-0.51,1.191,1.021,3.57-1.36,3.4c-0.68,0.51,0.511,0.681,0.511,1.19        c-0.17,3.569-0.511,8.67,3.399,10.71v1.359c-2.72-0.17-3.74-3.74-4.59-5.949c-0.341-2.041,0.51-4.592,0-6.631        c-5.61,0.852-11.9,2.721-15.641-2.551c-0.681-2.04-0.34-3.91,0.511-5.78c-0.851-0.85-1.87-0.17-2.721,0.171        c-1.529,1.021-1.699,4.25-3.569,3.4c0.85-2.041,2.55-4.931,5.27-5.102c1.7,0.171,3.23,1.189,4.932-0.341        c0.17,0.341,0.51,0.512,0.34,0.852c-1.19,0.85-2.551,0.85-3.4,2.211c-0.68,1.188-0.68,3.059,0,4.079        c0.17,0.51,1.021,0.85,0.681,1.53l-0.17,0.169c1.529-0.169,3.061,1.021,4.76,1.36c3.229,0,6.291-0.341,9.521-1.36        c0.511-6.8,1.19-13.091,4.931-18.699C56.277,72.59,57.466,72.42,57.126,73.44"/>
					</g>
					<g>
						<path d="M91.084,71.336c0.681,0.682-0.17,1.36-0.68,1.7c-2.721,1.36-7.312,1.36-10.03-0.51l-0.51-1.19        C83.604,73.887,87.344,72.867,91.084,71.336"/>
					</g>
					<g>
						<path d="M94.867,75.31c0.34,1.87-2.04,3.398-1.7,5.609l-1.529,1.53l-0.511-0.681C92.316,79.56,92.827,76.67,94.867,75.31"/>
					</g>
					<g>
						<path d="M44.716,76.84c-0.51,2.38-2.38,5.271-5.27,5.949c-0.851-1.699,1.529-1.699,2.21-2.89        C42.846,79.05,43.186,77.18,44.716,76.84"/>
					</g>
					<g>
						<path d="M120.367,83.129c-1.87,1.191-4.59,2.041-5.78,4.422c-1.359,2.381-2.72,4.93-2.72,7.818        c0,1.021,1.189,1.871,0.17,2.722c-1.7,0.341-0.68-1.7-1.53-2.38c0.17-5.102,2.721-10.541,7.311-12.582        C118.667,83.301,119.686,82.79,120.367,83.129"/>
					</g>
					<g>
						<path fill="#FFFFFF" d="M79.226,89.76c-0.34,0.851,0,2.381-1.189,3.061c-0.34-1.53-2.04-2.72-0.851-4.249        C78.207,88.061,78.886,89.25,79.226,89.76"/>
					</g>
					<g>
						<path d="M27.207,90.27c-1.359,3.229-3.74,5.27-6.12,7.99c-3.06,2.721-5.779,5.439-9.351,6.12c-0.34,0-0.17-0.342-0.17-0.511        c5.95-2.38,11.221-8.841,14.961-13.601L27.207,90.27"/>
					</g>
					<g>
						<path d="M102.346,93.841c-0.851,2.21,1.869,1.359,2.55,2.381c1.021,1.02,2.381,2.38,2.04,3.739        c-2.38,0.17-1.87-3.57-4.59-3.739c-0.851,0.85-1.021,2.21-1.53,3.229c-3.061,4.761-5.271,9.69-9.01,13.94        c-0.511,0-1.189,0.17-1.189-0.681c4.76-5.609,9.01-11.899,11.22-18.87L102.346,93.841"/>
					</g>
					<g>
						<path d="M118.157,99.281c0.17,1.36-1.36,1.021-2.21,0.851c-0.851-1.189-3.4-0.851-2.891-2.721        C114.926,97.75,116.457,98.941,118.157,99.281"/>
					</g>
					<g>
						<path d="M120.197,97.75c-1.021,5.78,2.211,10.881,4.251,15.812c1.02,2.04-1.36,2.72-2.38,3.569        c-1.361-0.17-2.382,0.681-3.062,1.529v0.851c-0.17,0-0.51,0-0.68,0.171c0.34,0.85,2.38,0.17,3.061,0.51        c1.869-0.17,2.891,0,4.42,1.021c-0.169,0.511,1.53,1.021,0.68,1.699c2.212,0.51,0.852,4.08,2.722,3.91        c1.36-1.189,1.699-3.061,1.188-4.93c-0.51-1.021-1.188-2.21-2.38-2.551c0.341-1.021,1.529-0.851,2.21,0        c1.189,1.189,1.871,3.061,1.189,4.42c0.171,1.021,0.34,2.551-0.51,3.569c-0.681,0.852-1.699,1.021-2.55,1.19        c-2.039-2.21-1.19-5.78-4.932-7.141c-3.909-0.681-6.63,1.359-10.199,0.511c0.17-1.36,2.21-0.511,3.061-1.36        c1.189-2.72,3.399-4.76,6.46-4.93c0.852-1.021,0-2.551-0.339-3.57c-1.701-2.38-2.041-5.439-3.231-7.991        C119.176,101.831,117.986,99.111,120.197,97.75"/>
					</g>
					<g>
						<path d="M111.697,100.981c1.02,1.87-1.7,1.188-2.211,1.529c-1.189,0.171-2.039-0.681-2.55-1.529        c-0.17-1.021,1.021-0.681,1.529-0.51C109.146,102,110.506,100.471,111.697,100.981"/>
					</g>
					<g>
						<path d="M37.407,101.491c-1.021,0.851-3.061,0.17-4.421,0.68c-4.42,0.852-8.329,2.381-12.239,4.08        c-0.511-0.17-0.511-0.68-0.34-1.02c5.1-2.55,11.05-4.25,16.659-4.25L37.407,101.491"/>
					</g>
					<g>
						<path d="M51.857,108.971c1.188,2.38,2.039,5.1,1.699,7.818l-1.189,1.021c-1.53-0.34,0.17-1.36,0-2.21        c0-5.271-3.91-10.54-8.67-13.091c-1.36-0.681-3.4-0.511-4.931-1.189c2.38-1.7,5.101,0.51,7.479,1.189        C48.457,104.551,50.327,106.591,51.857,108.971"/>
					</g>
					<g>
						<path d="M57.806,106.081c0.68,4.08,0.68,8.67,3.909,11.73c-0.34,1.02-0.68,1.529,0,2.55c1.021,12.24,7.312,22.439,14.79,32.13        c1.87,0.851,1.87,2.721,2.891,3.74c-0.851,2.72,2.04,4.59,3.91,6.29c5.101,0.34,5.609,5.27,9.01,8.33        c2.891-0.682-1.359-2.891-1.021-4.761v-1.869c1.36,0.68,3.062,0.51,4.42,2.039c1.021,1.529,3.062,2.551,5.101,2.891        c1.021-0.51,0.341-1.36,0.17-1.87c-1.699-1.87-4.079-2.89-5.609-4.93c0-0.682,0.511-0.511,1.021-0.852l6.29,5.61        c0.681,0,1.189-0.851,1.87-1.36c0-0.51-1.021-0.85-0.681-1.528c1.021-0.511,1.7,0.68,1.7,1.528        c0.85,2.892-3.57,1.19-3.57,3.91c-1.189,1.19-2.55,0.681-3.739-0.17c-1.53-2.04-3.569-1.359-4.931-3.229        c-0.851,0.51,0.17,1.528,0.34,2.21c1.19,0.51,2.04,2.04,1.021,3.06c-0.851,0.851-2.211,0.851-3.23,0.34        c-2.039-1.529-3.399-4.08-4.079-6.63c-3.4-0.51-6.801-2.72-8.841-5.609c-1.699-1.529,1.189-5.101-2.38-5.439        c-3.229-0.17-5.95,1.359-8.5-1.19c0.851-1.188,1.53,0.512,2.55,0.17c1.53,0.171,3.23-0.17,4.25-0.34        c-5.27-7.14-9.18-15.13-12.409-23.119c-4.591,1.189-7.311-4.08-12.24-3.061c-2.039,3.061-4.25,5.95-5.101,9.52        c2.551,2.041,3.23,4.932,3.91,7.48c-0.34,0.34-0.85,0.17-1.189,0.17c-0.681-2.04-1.021-4.42-2.891-5.95        c-2.38,1.19-0.17,4.761-2.89,5.271c0.17-8.84,7.31-15.642,9.859-23.63c0.681,2.04-0.341,3.908-1.021,5.438        c0.51,1.19,1.7,0,2.55,0.681c2.891,0.511,5.271,3.569,8.5,2.381c-0.51-3.062-1.02-5.95-1.02-8.671        c0.17,0,0.17-0.171,0.34-0.171c-4.08-4.25-3.4-10.709-4.931-15.81l0.511-1.021C57.636,103.191,57.126,104.551,57.806,106.081"/>
					</g>
					<g>
						<path d="M9.867,105.911c-5.61,4.76-9.69,11.9-8.16,19.38c1.359,4.25,3.229,9.011,8.16,10.37c1.699-2.89,3.06-6.29,4.93-9.35        c0.341-0.17,0.681,0,1.021,0.34c-2.72,7.479-8.159,14.28-10.709,22.1c0.17,1.87-0.341,5.102,1.699,6.801        c0.51,0.681,2.21,1.529,2.38,0c-0.681-3.229,2.21-5.779,4.761-7.311c2.89-1.7,5.779-1.87,8.84-2.89        c0.34,0.34,0.34,0.68,0.34,1.02c-2.21,1.36-5.27,0.681-7.141,2.55c-0.68-0.17-1.189,0.341-1.699,0.852        c0.51,2.55,3.399,3.06,5.609,3.569c2.04,1.021,5.271-1.869,6.12,0.17c-3.739,2.04-9.181,1.189-12.069-1.529        c-0.34-0.51-0.34-1.021-0.851-1.19c-1.189,0.852-2.721,1.87-2.551,3.57c-1.359,1.189-0.85,1.7-0.51,2.72        c-0.17,1.7-0.68,4.42,1.699,4.932c1.871,0.85,3.74-0.171,5.61,0.34c5.779,1.87,10.71,5.1,16.149,7.31        c1.36,0.34,4.59-0.68,4.93,0.852c-8.159,2.55-13.939-5.78-21.42-7.142c-2.38,0-4.59,0-6.46-0.85        c-1.359,1.189-0.68,2.89-0.34,4.25c3.061,4.08,8.67,2.55,12.24,4.59c0,0.851-1.36,1.021-2.04,0.51        c-0.851-0.51-2.21-0.17-3.23-1.02c-2.89,0.51-5.1-1.53-7.479-2.721c-3.23-3.229,1.02-6.29-1.19-9.859        c-1.529-1.19-3.739-2.21-4.42-4.42c-1.189-6.801,2.21-12.07,5.44-17.17c-5.95-1.53-8.33-7.99-9.521-13.262        c-0.17-7.31,3.061-12.75,7.99-17.34C8.676,106.081,9.186,105.231,9.867,105.911"/>
					</g>
					<g>
						<path d="M19.216,106.931v0.51c-3.909,3.229-8.5,6.8-11.05,11.39c-0.17,0-0.51,0-0.681-0.34        c2.211-5.27,6.971-8.33,11.391-12.07L19.216,106.931"/>
					</g>
					<g>
						<path d="M135.158,113.731c3.91,1.529,6.8,6.46,11.389,3.74c5.611-0.682,9.861,7.989,15.98,3.739        c3.229,0.34,6.801,1.189,8.33,4.42c-2.039,1.021-2.72-2.721-4.931-2.891c-2.55,0.17-3.909-1.189-5.949,0.51        c1.529,0.852,0.341,2.892,1.87,3.74l-0.171,5.95h-1.188c-0.511-2.38,0.85-4.931-0.511-7.311        c-3.569-2.551-7.649-4.591-11.391-6.971c-1.87,0.17-3.91-0.17-5.779,0.51c0,1.53,0,3.062-1.53,4.25        c-2.38-0.17-2.039,6.12-4.59,2.892c0.851-0.681,1.7-1.19,2.04-2.38c0-3.062-1.021-6.12-3.399-7.82l0.17-0.34        c-0.851-0.511-2.041-1.53-1.87-2.721c1.358-2.21,0.339-3.569,1.53-5.779C136.347,109.311,135.498,111.521,135.158,113.731"/>
					</g>
					<g>
						<path d="M26.016,110.67c0,2.381-3.569,3.57-4.591,5.78c-1.699,2.38-2.89,5.101-4.42,7.48c-0.34,0-1.021,0.34-1.021-0.341        v-0.681C18.707,118.661,21.256,113.221,26.016,110.67"/>
					</g>
					<g>
						<path d="M133.118,114.241c-1.361,1.021-3.23,0.68-4.25,0.17c0.849-1.188,2.549-1.188,3.739-1.02        C132.947,113.731,133.287,113.901,133.118,114.241"/>
					</g>
					<g>
						<path d="M90.107,114.581c-0.682,2.04-2.551,5.102-4.761,5.271c-0.341-0.17-0.171-0.682-0.171-1.19l4.08-4.08L90.107,114.581"/>
					</g>
					<g>
						<path d="M78.207,120.701c4.25-1.87,8.67-0.17,12.24,2.55c1.529,2.04,3.569,3.74,4.08,6.12c-0.341,0-0.681-0.17-0.852,0.17        c-2.72-4.59-7.31-9.35-13.26-8.159c-0.51,0.17-1.189,0.17-1.529,0.851c-0.511,2.72,2.721,2.04,4.25,3.06        c1.529,1.7,5.609,2.38,4.59,5.102c-1.869-0.511-2.38-2.892-4.25-3.57c-1.021-0.51-2.21-1.359-3.229-0.85        c3.229,7.31,4.08,15.64,8.33,22.438c4.42-1.87,7.479-5.949,7.311-11.22c0.34-2.38-1.021-4.42-1.021-6.46        c3.229,2.89,2.72,7.649,1.529,11.56c-0.851,3.23-3.91,5.102-6.119,7.65c-1.87,1.021-3.4-0.681-3.91-2.21        c-3.4-10.71-6.971-21.25-11.221-31.45C77.016,116.961,77.186,119.341,78.207,120.701"/>
					</g>
					<g>
						<path d="M136.177,126.651c-0.68,0.85-0.85,2.89-2.55,2.38c-0.681,0.17-1.36,0-1.529-0.68c0-0.341-0.172-0.852,0.169-1.021        c0.852,0.681,2.211,0.17,2.72-0.85c1.19-3.062-1.529-5.78-1.699-8.67C135.837,119.681,136.517,123.76,136.177,126.651"/>
					</g>
					<g>
						<path fill="#FCC7AC" d="M141.448,120.191c-0.171,0.51,0,1.53-1.021,1.53l-1.358-3.91        C140.257,118.151,140.937,119,141.448,120.191"/>
					</g>
					<g>
						<path d="M112.716,122.231c-2.72,1.529-6.29,1.87-9.35,2.72c0.85,1.36,2.89,1.36,2.72,3.062c-1.359,1.02-2.21-1.53-3.739-1.53        c-0.511,3.06-0.171,5.609-0.851,8.5c-0.511,0.17-0.851,0-1.021-0.34c1.529-3.74-1.699-8.33,2.21-11.222        C106.256,123.591,109.316,121.381,112.716,122.231"/>
					</g>
					<g>
						<path d="M159.637,126.311c-0.341,0.17-0.171,0.51-0.171,0.68c-1.699,0.851-3.569,0.17-5.1,0.68        c-4.931,1.19-10.2,2.892-15.13,2.381c-3.4,0.511-6.631,1.869-10.03,1.359c1.02-1.359,3.06-0.85,4.42-1.529        c8.84-0.851,15.3-2.04,23.971-3.569C157.937,125.121,159.127,125.801,159.637,126.311"/>
					</g>
					<g>
						<path d="M181.568,128.521c0.17,1.189,1.869,1.189,2.55,2.21c0.51,2.38,2.72,3.569,4.42,4.76c1.53,2.55,0.68,4.76,0,7.48        c-1.53,1.02-3.229,2.21-5.271,1.358l-0.851-1.02c1.189-1.19,3.061,1.02,4.25-1.021c1.7-1.358,1.189-3.06,1.359-4.76        c-0.51-0.851-0.68-1.87-1.699-2.38h-0.34c-0.852,0.68,0.51,1.529-0.511,2.04c-3.061-0.511,0.511,3.739-2.38,3.569        c-0.171-1.189-0.681-2.38,0-3.569l1.189-0.17c0.68-5.102-3.74-7.99-7.82-10.2c-1.189,0.17-1.869-0.17-3.06,0.17        c-0.17,1.36,2.72,3.57,0.34,3.91c-1.021-1.36-1.53-2.891-2.721-4.25C174.427,124.611,178.847,125.971,181.568,128.521"/>
					</g>
					<g>
						<path d="M115.607,133.621c-0.171,2.721,0.17,5.95-0.341,8.33c-0.341,0-0.681,0-1.021-0.34c0.34-3.74,0.851-8.84-4.25-10.2        c-0.851-0.85-3.399-1.87-2.55-3.06C110.336,129.541,112.886,131.75,115.607,133.621"/>
					</g>
					<g>
						<path d="M169.837,130.561c1.021,1.529,0.511,3.739,0.34,5.438c-0.85,1.7-2.72,1.53-4.25,2.04c-0.85-0.34-2.039,0-2.72-1.02        c-1.7-1.87-0.17-4.42-0.51-6.46C164.568,129.541,168.137,127.841,169.837,130.561"/>
					</g>
					<g>
						<path d="M126.997,131.071c0.17,0.51-0.511,0.68-0.679,1.021c-1.7,0.681-3.4,0.681-5.103,0.851        c-1.02,1.021-2.72,0.68-4.079,1.189c-0.171-0.17-0.511-0.341-0.341-0.681c2.721-1.359,6.121-1.7,8.671-2.72        C125.977,130.901,126.657,130.561,126.997,131.071"/>
					</g>
					<g>
						<path d="M90.107,132.431c0,0.34-0.341,0.51-0.511,0.68c-1.021,0.17-1.53-0.68-1.021-1.53        C89.086,131.581,89.596,131.92,90.107,132.431"/>
					</g>
					<g>
						<path d="M51.686,137.701c0.341,1.53,0.851,3.4,0.341,4.59h-1.19c0.511-3.229-1.359-6.63-3.91-9.35v-0.851        C49.646,132.941,50.157,135.831,51.686,137.701"/>
					</g>
					<g>
						<path d="M175.788,132.941c0,0.51-0.34,1.021-0.681,1.021c-0.681-0.341-1.529-1.021-1.021-1.87        C174.767,132.091,175.448,132.26,175.788,132.941"/>
					</g>
					<g>
						<path d="M161.677,138.721c0.681,2.55,0.341,5.608,1.021,8.159c1.87,1.699,3.909-0.851,5.609-0.681        c3.061-1.53,2.55-6.29,6.8-6.29c1.359,1.53,4.761-0.17,5.271,3.062c1.021,1.528,1.274,3.525,1.274,5.057        c-0.17,1.7-0.851,3.698-2.55,4.038c0.17,0.68-0.936,0.255-1.104,0.935c-1.021,1.36-3.061,0.852-4.08,1.19        c-3.061-1.021-4.93-4.08-4.93-6.97c-2.721,0.68-5.61,2.55-7.99,0c0-4.08-0.68-8.671-0.34-12.75        C162.527,134.641,161.167,137.531,161.677,138.721"/>
					</g>
					<g>
						<path d="M101.497,143.821c-0.34,0.68-0.34,2.21,0,3.229c1.53,1.699,5.439,2.21,5.439,4.931c2.721-0.34,4.591,2.55,6.971,3.569        c0.51-1.869,0.85-4.931,0.34-6.631c0.17-1.698-0.34-3.398,0.51-5.1l0.852,0.85c0,3.74-0.171,8.16,0.17,11.9        c2.72,0.51,5.101,0.34,8.16-0.51c0.17,0.17,0.34,0.51,0.85,0.51c-0.51-2.04,2.21-0.851,3.229-2.04        c4.421-0.34,9.521-1.53,14.11-2.72c0,0.34,0.681,0.68,0.169,1.188c-4.419,1.021-9.179,2.04-13.26,3.062        c1.699,1.02,3.57,2.72,3.57,5.1c0,1.87-0.51,3.74-1.7,5.101c-1.529,1.021-3.06,1.87-4.93,2.04        c-3.061-0.681-6.12-2.381-7.991-4.931c-0.68-1.7-0.68-3.229,0-4.93c-5.1,0.17-8.329-5.44-12.409-6.971        c-1.53-1.869-4.08-1.869-5.271-3.739c-1.021-3.4,0.51-7.312,0-11.221l0.51-0.851        C102.006,137.701,101.327,141.611,101.497,143.821"/>
					</g>
					<g>
						<path d="M49.986,149.941c-3.569,1.359-3.399,6.29-7.14,6.63c-0.681-0.17-0.341-1.021-0.171-1.359        c4.08-1.87,4.421-6.801,4.932-10.37c0.85-0.171,0.68,0.681,1.02,1.189c0.34,0.851-0.68,2.04,0,2.72        c1.359-1.358,2.21-3.398,2.38-5.438C52.537,145.351,51.176,148.071,49.986,149.941"/>
					</g>
					<g>
						<path d="M42.676,145.691c0,2.89,0.171,6.63-2.55,8.67c1.021,2.04,2.721,3.229,4.761,3.91c3.399-0.852,7.311-1.19,10.199-3.74        c3.91-0.34,7.141-2.55,11.051-2.04c0.34,0.51,0.34,0.851,0,1.36c-4.761,0.17-9.859,1.188-13.771,4.08        c-1.7,0.34-3.4,0.68-4.76,1.358c2.72,0.852,4.76,3.74,5.27,6.29c0.34,2.21-0.34,5.102-1.87,6.971        c-0.68,0.17-1.359-0.17-1.529-0.851c0.51-0.85,1.359-1.53,1.87-2.55c0.17-2.04,0.511-5.101-1.36-6.8        c-0.68-1.021-1.869-1.36-2.72-1.19c-0.511,1.021-1.021-0.17-1.7,0.17c-1.699,0.511-4.08,1.36-4.93,3.4        c-1.021,1.188-0.511,4.08-2.04,3.91c-0.511-3.062,1.359-5.95,3.909-7.65c0.852-0.17,1.53-0.68,2.21-1.021        c-2.21-1.699-5.27-2.891-6.29-5.609c-2.039,0.34-3.398,2.72-5.439,3.06c0.511-2.209,3.061-3.568,5.101-4.42        c-0.851-1.02-1.529-2.72-3.06-2.72c-2.041,0.17-3.91,1.021-5.102,2.21h-1.02c0-2.55,3.399-2.38,5.27-3.57        c-2.72-3.229-6.97-2.209-10.369-3.229c0-0.851,1.189-0.851,2.04-0.851c5.439,0,10.71,2.551,13.601,7.311        c2.89-1.36,1.189-5.95,2.21-7.99C42.676,143.991,42.336,145.181,42.676,145.691"/>
					</g>
					<g>
						<path d="M160.488,148.071v0.68l-6.12,1.7c2.21,1.87,2.38,4.59,2.21,7.48c-0.681,1.529-2.38,2.89-3.91,3.398        c-3.399-0.17-7.649,0.17-9.521-3.739c-0.852-1.869-0.852-3.569,0.341-5.439l-0.341-0.34c4.421-1.36,9.351-2.21,13.771-3.4        C157.937,148.071,159.297,147.051,160.488,148.071"/>
					</g>
					<g>
						<path d="M98.777,154.191c0.51,0.34,0.51,0.68,0.68,1.021c-0.85,0.851-2.04,0.17-2.891-0.171        c-2.891-0.51-5.271-2.55-7.479-3.909l0.17-0.681C92.486,151.471,95.207,154.021,98.777,154.191"/>
					</g>
					<g>
						<path d="M28.226,152.831c-0.34,0.34-1.021,0.852-1.359,0.34c-0.51-0.17-0.17-0.68-0.34-1.02        C27.207,151.641,28.226,152.321,28.226,152.831"/>
					</g>
					<g>
						<path fill="#FFFFFF" d="M144.337,156.571c-0.51-1.359,0-3.061,0.34-4.08l1.19-0.51        C145.357,153.51,144.167,155.041,144.337,156.571"/>
					</g>
					<g>
						<path d="M28.056,154.191c-1.529,0.85-2.891,2.72-2.21,4.42c0.851,1.021,2.04,1.7,3.399,1.021c1.36-0.17,1.53-1.87,3.061-1.699        c0.851,1.529-1.529,2.04-2.21,3.06c-1.53,0.34-3.91,0.34-5.101-1.359c-1.359-1.699-0.34-3.399,0.51-5.101        C26.186,153.851,27.376,153.51,28.056,154.191"/>
					</g>
					<g>
						<path d="M106.426,158.101c-2.21-0.17-4.59-1.021-6.46-2.721c1.87-0.681,4.08,1.189,6.12,1.529        C106.426,157.42,106.426,157.42,106.426,158.101"/>
					</g>
					<g>
						<path fill="#FFFFFF" d="M120.367,158.441c-0.34,1.359-0.851,2.55-1.021,3.91c0-0.682-0.681-1.87-0.171-2.891        C119.686,159.121,119.516,158.101,120.367,158.441"/>
					</g>
					<g>
						<path d="M106.086,159.291l0.851,0.171c0.511,1.699-1.359,2.209-2.38,2.551c-1.189-0.342-2.381-1.7-3.57-1.021l2.381,2.21        l-0.851,0.851c-1.53-1.529-3.909-2.891-3.909-4.931C101.327,157.931,104.046,162.181,106.086,159.291"/>
					</g>
					<g>
						<path d="M174.937,163.371c0.34,0.681-0.34,1.19-1.021,1.19c-4.08-0.34-6.97,0.17-11.05,0.85        c-0.341,0.17-0.681,0.51-1.021,0.852c-3.91-0.342-8.33-0.682-12.07,0.34c0.511,0.85,2.041,0.17,1.7,1.529        c-1.7,0.341-4.25-0.17-5.779,0.511l-6.29,1.02v1.19h-9.861c-0.169,1.699-2.38,1.02-3.061,0.85        c-2.889-1.7-7.14-0.85-10.199-0.85c-0.17-0.852,0.851-1.021,1.359-1.19c5.779,0,12.239,0.17,17.682,0        c2.55-2.38,6.8-1.02,9.859-2.04c2.381,1.021,1.529-2.38,3.739-2.38c7.312-0.34,14.62-1.02,21.931-2.04L174.937,163.371"/>
					</g>
					<g>
						<path d="M41.316,175.781c2.211-0.17,4.761-1.021,6.631-2.21c0.68,0.51,0.68,1.021,0.34,1.36        c-8.16,4.25-17.51,1.358-24.99-2.721l-0.34-0.511c0.681-0.85,1.87,0,2.891,0C30.436,174.42,35.537,176.461,41.316,175.781"/>
					</g>
					<g>
						<path fill="#C8C7B3" d="M127.145,163.82c1.245,0,2.255-1.076,2.255-2.404c0-1.327-1.01-2.402-2.255-2.402        s-2.254,1.075-2.254,2.402C124.891,162.744,125.9,163.82,127.145,163.82"/>
					</g>
					<g>
						<path fill="#C8C7B3" d="M150.839,157.551c1.245,0,2.254-1.075,2.254-2.403s-1.009-2.404-2.254-2.404        c-1.244,0-2.254,1.076-2.254,2.404S149.594,157.551,150.839,157.551"/>
					</g>
					<g>
						<g>
							<g>
								<g>
									<g>
										<g>
											<g>
												<g>
													<g>
														<path fill="#FFFFFF" d="M97.09,95.397c1.014,0.569,2.493-0.142,3.308-1.588c0.813-1.446,0.652-3.081-0.359-3.65                c-1.013-0.57-2.493,0.142-3.308,1.588C95.917,93.193,96.079,94.828,97.09,95.397"/>
													</g>
													<g>
														<path d="M96.722,96.05c0.556,0.313,1.208,0.378,1.886,0.188c0.969-0.271,1.857-1.022,2.441-2.062                c0.585-1.037,0.767-2.188,0.494-3.156c-0.188-0.679-0.584-1.202-1.14-1.515c-0.554-0.312-1.206-0.378-1.884-0.188                c-0.969,0.271-1.859,1.021-2.444,2.062C95.045,93.214,95.329,95.266,96.722,96.05z M97.383,92.115                c0.387-0.686,0.963-1.191,1.542-1.354c0.199-0.056,0.49-0.092,0.744,0.052c0.255,0.144,0.375,0.411,0.432,0.61                c0.162,0.579,0.027,1.333-0.356,2.019c-0.386,0.686-0.961,1.19-1.54,1.354c-0.199,0.057-0.491,0.093-0.745-0.051                C96.901,94.429,96.733,93.273,97.383,92.115z"/>
													</g>
													<g>
														<path fill="#808080" d="M168.647,131.75c-0.17,1.36,0.511,2.722-0.34,3.91c-1.189,0.17-2.381,1.19-3.569,0.851                c-1.7-1.529-0.17-3.399-0.851-5.101C165.248,130.561,167.797,130.051,168.647,131.75"/>
													</g>
													<g>
														<path fill="#C8C7B3" d="M175.49,149.55c1.244,0,2.254-1.075,2.254-2.403s-1.01-2.404-2.254-2.404                c-1.245,0-2.254,1.076-2.254,2.404S174.245,149.55,175.49,149.55"/>
													</g>
													<g>
														<g>
															<g>
																<g>
																	<g>
																		<polyline points="9.739,161.699 15.688,163.116 19.656,163.966 26.456,167.083 34.672,169.916 37.222,170.483 38.922,166.799 41.472,161.699 45.438,159.716 40.906,157.166 38.426,154.361 32.306,157.931 31.555,160.283 27.873,161.699 24.997,159.631 24.755,157.166 26.867,153.51 21.638,154.899 18.805,154.333 14.555,152.349 13.096,150.791 9.739,151.783 9.186,155.551 9.739,161.699"/>
																	</g>
																	<g>
																		<polyline points="88.032,69.456 87.053,72.998 90.454,71.864 89.561,69.966 88.032,69.456"/>
																	</g>
																	<path fill="none" d="M175.49,149.55c1.244,0,2.254-1.075,2.254-2.403s-1.01,0-2.254,0                   c-1.245,0-2.254-1.328-2.254,0S174.245,149.55,175.49,149.55"/>
																</g>
															</g>
															<path fill="#FFFFFF" d="M175.49,149.55c1.244,0,2.254-1.075,2.254-2.403s-1.01,0-2.254,0                 c-1.245,0-2.254-1.328-2.254,0S174.245,149.55,175.49,149.55"/>
														</g>
													</g>
													<path fill="none" d="M127.305,163.807c1.243,0,2.253-1.077,2.253-2.405c0-1.327-1.01,0-2.253,0               c-1.245,0-2.255-1.327-2.255,0C125.051,162.73,126.06,163.807,127.305,163.807"/>
												</g>
											</g>
											<path fill="#FFFFFF" d="M127.305,163.807c1.243,0,2.253-1.077,2.253-2.405c0-1.327-1.01,0-2.253,0             c-1.245,0-2.255-1.327-2.255,0C125.051,162.73,126.06,163.807,127.305,163.807"/>
										</g>
									</g>
									<path fill="none" d="M150.839,157.591c1.245,0,2.254-1.076,2.254-2.403c0-1.328-1.009,0-2.254,0           c-1.244,0-2.254-1.328-2.254,0C148.585,156.514,149.594,157.591,150.839,157.591"/>
								</g>
							</g>
							<path fill="#FFFFFF" d="M150.839,157.591c1.245,0,2.254-1.076,2.254-2.403c0-1.328-1.009,0-2.254,0         c-1.244,0-2.254-1.328-2.254,0C148.585,156.514,149.594,157.591,150.839,157.591"/>
						</g>
					</g>
					<path fill="none" d="M186.027,137.775c-0.144,1.204-0.655,2.161-1.771,2.745c-0.566,0.425-0.673,1.222-0.248,1.789       c0.426,0.564,1.223,0.673,1.771,0.247c1.486-0.903,2.496-2.303,2.691-4.037c0.193-0.674-0.178-1.381-0.851-1.595       C186.948,136.73,186.239,137.102,186.027,137.775"/>
				</g>
			</g>
			<path fill="none" d="M186.027,137.775c-0.144,1.204-0.655,2.161-1.771,2.745c-0.566,0.425-0.673,1.222-0.248,1.789     c0.426,0.564,1.223,0.673,1.771,0.247c1.486-0.903,2.496-2.303,2.691-4.037c0.193-0.674-0.178-1.381-0.851-1.595     C186.948,136.73,186.239,137.102,186.027,137.775"/>
		</g>
	</g>
	<g>
		<path d="M175.208,148.453c0.465-0.026,1.076-0.026,1.274-0.704l0.425,0.744c-0.172,0.558-0.811,0.729-1.274,0.703L175.208,148.453    "/>
	</g>
	<g>
		<path d="M126.969,162.885c0.464-0.027,1.075-0.027,1.274-0.704l0.426,0.744c-0.173,0.558-0.812,0.729-1.276,0.703L126.969,162.885    "/>
	</g>
	<g>
		<path d="M150.556,156.494c0.466-0.027,1.076-0.027,1.275-0.704l0.425,0.744c-0.172,0.558-0.811,0.729-1.274,0.703L150.556,156.494    "/>
	</g>
</g>
</svg>