<?xml version="1.0" encoding="utf-8"?>
<!-- Generator: Adobe Illustrator 12.0.1, SVG Export Plug-In . SVG Version: 6.00 Build 51448)  -->
<svg  version="1.1" id="Layer_1" xmlns="&ns_svg;" xmlns:xlink="&ns_xlink;" width="385.248" height="528.125"
	 viewBox="0 0 385.248 528.125" overflow="visible" enable-background="new 0 0 385.248 528.125" xml:space="preserve">
<g>
	<path fill-rule="evenodd" clip-rule="evenodd" fill="#F4E2CF" d="M71.928,330.087v-30.521l13.416-19.788l8.05-3.689l4.36-13.081
		l-4.36-7.714c0,0-25.491,15.092-25.826,16.099s-2.683,5.032-4.36,9.057s-11.404,16.77-11.404,16.77l-4.025,29.516l11.068,10.062
		L71.928,330.087z"/>
	<g>
		<path fill-rule="evenodd" clip-rule="evenodd" d="M138.045,51.482c-2.851,4.062,0.1,7.366-2.667,10.67
			C131.358,59.393,133.734,53.01,138.045,51.482z"/>
		<path fill-rule="evenodd" clip-rule="evenodd" fill="#FFFFFF" d="M118.483,57.707c2.58,10.119,5.79,18.311,7.114,26.676
			c-8.301-3.133-11.45-6.106-17.784-5.335c5.289,11.606,16.3,17.489,24.897,25.787c-10.092-1.768-18.492-12.923-29.344-16.895
			c2.02-12.996,5.167-19.613,9.781-29.344C115.867,59.241,115.763,57.062,118.483,57.707z"/>
		<path fill-rule="evenodd" clip-rule="evenodd" d="M141.602,58.596c-2.165,1.87,0.788,3.953-0.889,5.335
			C137.185,64.171,136.906,57.159,141.602,58.596z"/>
		<path fill-rule="evenodd" clip-rule="evenodd" d="M278.54,180.418c1.059,2.069,1.486,5.531-1.778,6.224
			C277.351,182.724,276.615,183,278.54,180.418z"/>
		<path fill-rule="evenodd" clip-rule="evenodd" d="M231.412,183.085c3.257,3.542,6.771,9.522,1.778,12.449
			C233,190.786,232.139,187.893,231.412,183.085z"/>
		<path fill-rule="evenodd" clip-rule="evenodd" d="M268.759,191.088c-0.143,1.042-1.621,0.75-2.667,0.889
			c0.163-0.756-0.347-0.839-0.89-0.889c2.486-3.321-0.707-7.071,5.335-7.114C270.797,185.746,268.182,189.907,268.759,191.088z"/>
		<path fill-rule="evenodd" clip-rule="evenodd" d="M258.089,197.313c0.72,0.168,0.887,0.892,1.778,0.889
			c-0.262,1.813-2.406,1.744-2.668,3.557c-0.72-0.169-0.887-0.892-1.778-0.889C255.683,199.057,257.827,199.126,258.089,197.313z"/>
		<path fill-rule="evenodd" clip-rule="evenodd" fill="#F4E2CF" d="M177.17,223.1c3.69-3.423,5.677-8.551,11.56-9.781
			C185.026,216.286,181.548,223.714,177.17,223.1z"/>
		<path fill-rule="evenodd" clip-rule="evenodd" d="M265.202,221.321c-2.394,4.253-1.683,6.008-1.778,11.56
			C258.775,229.257,258.706,222.438,265.202,221.321z"/>
		<path fill-rule="evenodd" clip-rule="evenodd" d="M315.887,229.324c-1.93,2.855-5.196,2.63-7.113,1.779
			C309.053,228.404,313.796,227.495,315.887,229.324z"/>
		<path fill-rule="evenodd" clip-rule="evenodd" fill="#F4E2CF" d="M328.336,251.554c4.915-1.095,6.055-10.709,5.335-18.673
			c4.628,6.506,6.615,29.296-5.335,34.679c-1.912-7.747-3.692-27.437,0.89-35.568C334.904,237.045,329.627,247.487,328.336,251.554z
			"/>
		<path fill-rule="evenodd" clip-rule="evenodd" d="M309.663,234.66c0.235,2.707-6.736,1.801-8.003,2.668
			C298.911,235.092,307.422,231.906,309.663,234.66z"/>
		<path fill-rule="evenodd" clip-rule="evenodd" d="M230.523,240.884c-4.835,5.335-20.064,13.157-24.009,0.889
			C217.301,245.694,220.923,244.567,230.523,240.884z"/>
		<path fill-rule="evenodd" clip-rule="evenodd" fill="#F4E2CF" d="M154.051,243.551c3.524,2.413-0.34,4.114,0,8.003
			C152.265,250.563,153.031,244.676,154.051,243.551z"/>
		<path fill-rule="evenodd" clip-rule="evenodd" fill="#F4E2CF" d="M236.747,253.333c3.788,2.229-3.033,7.343,2.668,8.893
			c-1.581,1.976-3.969,3.146-7.113,3.557C228.83,259.855,235.444,257.934,236.747,253.333z"/>
		<path fill-rule="evenodd" clip-rule="evenodd" d="M279.43,256.89c-2.034,0.93-3.15,2.777-6.225,2.667
			C273.922,257.294,277.777,255.499,279.43,256.89z"/>
		<path fill-rule="evenodd" clip-rule="evenodd" d="M319.444,256.89c3.127,2.061,2.25,2.914,3.557,7.113
			C319.732,262.005,318.865,259.634,319.444,256.89z"/>
		<path fill-rule="evenodd" clip-rule="evenodd" d="M268.759,257.779c3.785,2.759,4.08,4.028,4.446,10.671
			c-1.859,0.512-2.538,2.204-5.335,1.778C272.278,266.434,267.772,261.654,268.759,257.779z"/>
		<path fill-rule="evenodd" clip-rule="evenodd" d="M320.333,262.225c0.163,0.756-0.347,0.839-0.889,0.889
			c3.336,2.784,2.416,5.067,1.778,8.003c-4.169-2.134-1.182-5.868-3.557-8.003c-0.164-0.756,0.346-0.839,0.889-0.889
			C319.147,262.225,319.74,262.225,320.333,262.225z"/>
		<path fill-rule="evenodd" clip-rule="evenodd" d="M266.092,265.782c-1.352,4.768-5.119,2.036-8.003,4.446
			C257.643,266.059,263.408,261.209,266.092,265.782z"/>
		<path fill-rule="evenodd" clip-rule="evenodd" d="M337.229,274.674c4.405,9.408,2.637,16.138,0.889,28.454
			C337.962,291.385,334.574,279.847,337.229,274.674z"/>
		<path fill-rule="evenodd" clip-rule="evenodd" d="M296.324,283.566c2.46,1.387-0.885,4.366-2.667,4.446
			C293.236,285.22,296.05,285.664,296.324,283.566z"/>
		<path fill-rule="evenodd" clip-rule="evenodd" d="M297.214,288.901c-0.852,1.817-1.816,3.519-2.668,5.336
			C291.814,293.09,292.475,288.646,297.214,288.901z"/>
		<path fill-rule="evenodd" clip-rule="evenodd" fill="#FFFFFF" d="M115.815,323.581c6.831,1.688,0.557,7.698,1.779,13.338
			C113.001,333.236,116.226,329.793,115.815,323.581z"/>
		<path fill-rule="evenodd" clip-rule="evenodd" d="M90.028,326.248c3.166,4.688-5.463,16.678-8.003,18.674
			C81.702,337.307,88.917,334.487,90.028,326.248z"/>
		<path fill-rule="evenodd" clip-rule="evenodd" d="M94.474,331.583c1.249,4.515-2.81,10.784-3.557,17.784
			c-0.379,3.558,1.014,7.491-0.889,11.56C86.175,351.349,90.572,339.456,94.474,331.583z"/>
		<path fill-rule="evenodd" clip-rule="evenodd" d="M109.591,344.032c1.479,8.784-0.562,10.545,0.889,20.452
			C106.353,357.545,108.105,352.216,109.591,344.032z"/>
		<path fill-rule="evenodd" clip-rule="evenodd" d="M93.585,346.7c5.787,10.81,7.907,25.287,18.673,36.458
			c-0.75,2.924-6.008-1.502-3.557-1.778C99.711,373.15,91.604,359.934,93.585,346.7z"/>
		<path fill-rule="evenodd" clip-rule="evenodd" d="M112.258,348.478c1.975,5.716,1.022,17.9,3.557,24.898
			C109.631,363.551,111.894,357.472,112.258,348.478z"/>
		<path fill-rule="evenodd" clip-rule="evenodd" d="M122.04,376.933c-4.621,2.83-5.143-7.412-5.335-15.117
			C120.013,364.144,118.016,371.822,122.04,376.933z"/>
		<path fill-rule="evenodd" clip-rule="evenodd" d="M62.462,363.595c-1.533,2.913-4.691,4.2-6.224,7.113
			C54.259,367.8,58.758,363.774,62.462,363.595z"/>
		<path fill-rule="evenodd" clip-rule="evenodd" d="M79.357,363.595c8.263,16.228,33.832,20.966,45.35,33.789
			c2.729,3.038,4.637,7.571,3.557,13.339C120.502,387.61,87.318,387.15,79.357,363.595z"/>
		<path fill-rule="evenodd" clip-rule="evenodd" d="M57.127,374.265c-0.657-3.918,2.878-3.643,3.557-6.225
			C64.059,369.027,59.602,373.647,57.127,374.265z"/>
		<path fill-rule="evenodd" clip-rule="evenodd" d="M63.352,371.598c-0.326,2.274-1.542,5.586-3.557,3.557
			C59.903,372.891,61.089,371.707,63.352,371.598z"/>
		<path fill-rule="evenodd" clip-rule="evenodd" d="M55.349,383.158c3.793,1.028-0.368,8.164-0.889,10.67
			C50.283,391.725,55.428,386.737,55.349,383.158z"/>
		<path fill-rule="evenodd" clip-rule="evenodd" d="M57.127,398.274c-1.954-2.301-0.28-8.54,2.667-8.892
			C59.561,393.001,58.122,395.416,57.127,398.274z"/>
		<path fill-rule="evenodd" clip-rule="evenodd" fill="#FFFFFF" d="M241.193,391.161c6.345,3.898,16.45,6.341,24.009,10.67
			c-6.759,5.822-6.185,18.439-15.116,16.896C239.208,416.846,241.196,400.077,241.193,391.161z"/>
		<path fill-rule="evenodd" clip-rule="evenodd" d="M70.465,401.831c-0.163-0.756,0.347-0.839,0.889-0.889c0.593,0,1.186,0,1.779,0
			c-1.433,3.371,0.286,9.62-4.446,11.56C68.604,407.699,72.431,403.52,70.465,401.831z"/>
		<path fill-rule="evenodd" clip-rule="evenodd" d="M74.912,402.72c4.219,2.996-1.011,10.453-0.889,13.338
			C69.991,412.382,76.243,407.362,74.912,402.72z"/>
		<path fill-rule="evenodd" clip-rule="evenodd" fill="#FFFFFF" d="M236.747,417.836c1.779,0,3.558,0,5.336,0
			c4.975,5.389,8.826,10.094,1.778,18.674c-3.156-4.574,2.394-6.509,0-10.671c-7.089,5.339-5.909,17.805,3.557,16.896
			c8.622-0.828,11.034-15.652,6.225-20.452c0.262-3.099,2.406,0.074,2.668-1.778c13.371,14.586,5.024,29.747,0,43.571
			c-7.226,9.885-18.308,24.025-26.677,33.79c-3.887,2.11-5.414,9.338-11.56,11.56C216.55,473.704,209.02,439.808,236.747,417.836z
			 M241.193,448.07c-9.329-4.244-3.983-13.091-8.892-16.006C230.158,438.896,234.689,451.449,241.193,448.07z"/>
		<path fill-rule="evenodd" clip-rule="evenodd" d="M131.821,421.393c0.546,2.729-0.608,8.347-3.557,8.893
			C127.803,425.674,131.051,424.773,131.821,421.393z"/>
		<path fill-rule="evenodd" clip-rule="evenodd" d="M232.302,432.064c4.908,2.915-0.438,11.762,8.892,16.006
			C234.689,451.449,230.158,438.896,232.302,432.064z"/>
		<path fill-rule="evenodd" clip-rule="evenodd" d="M141.602,441.845c4.093,1.351,1.364,6.951,6.225,8.892
			c-1.419,2.914,0.53,4.201-0.889,7.114C143.531,453.801,141.153,447.922,141.602,441.845z"/>
		<path fill-rule="evenodd" clip-rule="evenodd" d="M94.474,257.779c-6.307,3.575-4.208,3.555-8.892,8.893
			c-7.15-2.547-12.069,4.987-18.673,8.003c-1.521-6.894,9.792-9.979,16.006-14.228c3.286-2.247,6.689-5.725,9.781-7.114
			c7.125,2.873,6.986,12.28,3.557,17.784c3.538-1.176,19.197,2.802,22.23,1.779c11.709,8.31-3.211,20.175-16.895,20.451
			c-4.785,3.442-5.064,7.204-9.781,11.56c3.416,4.576-1.168,9.493,1.778,12.449c7.539-1.878,12.469-7.695,20.452-5.335
			c2.451-8.49,3.829-15.351,11.56-18.674c2.078,0.293,3.673,1.069,5.335,1.778c1.63,2.521,1.206,7.094,4.446,8.003
			c12.282-2.732,15.617-14.949,23.119-17.784c-2.74-5.206-1.885-12.106-3.557-17.784c-1.232-4.184-4.553-6.467-5.335-9.781
			c-3.194-13.532,3.789-24.701,6.225-36.458c5.917-0.878,9.233,0.844,11.56,3.557c-3.872-8.718,1.074-15.576,3.557-17.784
			c-0.803-2.427-1.989,2.705-3.557,0c-3.348-24.073-13.698-57.662-19.562-84.475c-21.977-1.842-33.148-17.151-46.239-30.233
			c-1.696,1.669-1.609-0.528-4.446,0c-0.588-21.019,7.025-44.038,28.455-48.907c2.959-8.673,12.401-12.817,19.562-19.562
			c16.86-3.039,34.653-5.719,49.795-10.67c2.111-0.69,3.318-2.829,5.335-3.557c4.219-1.521,13.234-2.15,14.228-2.667
			c7.896-4.113,20.149-4.53,27.565-6.225c8.575-1.959,8.418,0.102,16.895,1.779c0.839,0.166,0.656-1.057,0-0.889
			c3.729-0.95,17.408,2.574,24.009,4.446c0.084,0.024-1.182,1.662-0.889,1.778c2.814,1.122,8.833,0.47,13.338,1.778
			c0.327,0.095,0.677,1.724,0.889,1.779c14.002,3.636,33.437-5.74,39.126,3.557c0.555,0.906,4.35,4.843,5.335,6.225
			c1.932,2.706,3.15,5.112,6.225,6.224c1.788,4.323,1.249,12.623-1.778,19.563c-4.121,9.442-8.786,21.866-11.561,28.455
			c-0.06,0.142-1.605-1.236-1.778-0.889c-1.068,2.144-0.604,5.699-1.778,8.003c-3.651,7.17-14.13,16.638-13.338,21.341
			c3.079,18.293,10.81,62.398,7.113,85.364c0.784,2.649,2.874,3.379,0.89,6.224c4.181,2.207,6.793,10.176,5.335,15.117
			c17.428,0.605,4.336,16.4,7.114,24.009c4.214,11.541,4.626,30.593-7.114,37.347c-0.245,9.165,2.783,16.932,1.778,29.344
			c-1.422,17.581-11.092,27.139-25.787,38.236c-18.625,14.066-37.567,32.893-56.02,40.903c-10.942,2.995-17.445-4.835-31.122-8.892
			c-2.439,3.335,7.317,8.197,6.224,9.781c26.059,10.271,48.89,3.63,71.137-1.779c1.13-0.274,0.034,1.294,0,1.779
			c9.634-3.562,18.104-7.129,26.677-11.561c-5.832,13.919-34.066,20-51.574,23.12c-1.735,0.309-8.212-2.342-7.113,2.667
			c1.009-0.169,0.494-0.892,0-0.889c8.535,1.201,19.719,0.833,30.232-0.89c30.697-5.028,54.463-28.555,64.023-51.574
			c1.624,9.253-5.788,16.806-11.56,24.009c-12.05,15.037-28.419,27.464-50.686,33.79c27.249,3.289,58.369-22.998,72.026-47.128
			c5.776-10.205,15.015-35.915,13.338-44.461c-1.032-5.262-6.257-9.658-9.781-13.338c-3.639,8.441-2.481,15.5-8.003,22.23
			c-2.049-5.338,3.147-11.525,3.557-19.562c0.093-1.83,1.903-8.721-2.667-9.781c-1.597,1.998,1.129,4.368-1.778,7.113
			c-5.745-8.141-18.289-20.141-24.009-28.454c11.048-1.784,14.521,18.406,29.344,18.673c5.222,5.158,11.593,13.891,16.895,16.006
			c0.226,29.298-14.048,55.157-27.565,72.026c-12.468,15.56-31.247,29.427-56.909,31.122c-8.114,0.536-19.851-0.456-28.455-2.668
			c-1.168,0.314-1.398,1.565-2.667,1.778c-1.842,10.759,4.919,23.535,7.113,36.458c4.184,24.634,0.416,55.793-16.895,80.918
			c-1.824,2.648-2.684,7.538-8.003,7.113c-4.103-14.448-7.284-27.005-11.56-37.347c-9.812,10.582-20.979,22.434-24.898,32.901
			c-5.769,0.564-3.465-21.068-3.557-21.342c-15.888-34.228-0.12-67.054,24.897-87.143c-5.575-6.505-8.05-11.293-6.224-20.451
			c-21.742,7.807-47.992,9.698-70.248-0.89c-4.637-2.205-8.945-8.534-10.67-9.781c-0.316,2.983-3.275,7.938-1.778,9.781
			c-3.59,10.793-9.729,18.133-11.56,27.565c-1.899,9.788,2.234,16.49-2.668,25.787c-5.729,10.867-14.168,20.551-27.565,27.565
			c5.441,2.55,10.095,10.427,11.56,19.562c11.058-15.135,15.645-28.834,18.673-48.017c5.843,2.869,2.3,9.265,1.778,13.338
			c-2.526,19.724-12.341,34.825-23.12,48.018c-3.668,1.075-4.3,5.184-8.003,6.225c-1.669,2.184-2.305,5.401-6.224,5.335
			c3.188-9.027,8.151-9.92,14.227-18.674c-0.054-4.377-1.308-13.576-2.667-16.006c-6.419-11.468-22.616-8.846-28.455-17.784
			c-4.276-0.847-4.884-5.964-7.114-9.781c-1.644,10.763,0.168,30.438,0.889,43.571c-10.232-2.22-5.527-25.445-5.335-37.347
			c0.087-5.416-0.07-10.078,2.667-13.338c0.125-8.512,1.102-10.713,5.335-15.116c-5.526-4.918-14.931-10.465-16.005-16.896
			c-10.986-6.785-12.146-20.126-19.563-29.344c-3.574-4.442-9.307-6.051-13.338-9.781C21.161,369.292,19.265,356.603,10,346.7
			c1.421-10.609-11.841-21.439-9.782-31.122c11.055-6.4,21.455,3.265,24.898,12.449c3.574-14.194,4.263-24.912,8.892-39.126
			c9.908-5.801,15.46-15.958,22.23-24.897c1.403,3.202,4.428,2.799,8.003,5.335c0.662,6.939-1.423,20.103-5.335,25.787
			c-0.812,1.182-3.803,1.856-4.446,3.557c-2.055,5.438,2.778,14.21-3.557,20.452c1.554,3.987,7.255,7.875,5.335,12.449
			c4.321-0.225,10.645-4.101,15.116-8.893c-1.896-7.134,0.783-9.086,0-19.562c-3.698-0.486-9.486,7.992-13.338,3.557
			c10.814-4.446,13.965-11.7,22.23-21.341c-1.087-1.284-3.394-1.349-4.446-2.667c4.911-2.797,9.91-5.503,15.117-8.003
			C92.147,271.828,99.161,264.662,94.474,257.779z M134.488,69.267c-0.33,8.505,4.292,14.779,10.671,22.23
			c4.206,4.914,10.86,10.128,13.338,14.227c0.348,0.576-1.168,1.464-0.889,1.778c1.014,1.145,3.682,1.044,4.446,1.779
			c0.886,0.852,3.608,10.211,7.113,2.667c-5.354-2.221-13.426-11.09-15.116-16.895c6.417,5.143,12.146,10.973,18.673,16.006
			c-0.381-2.456,3.315-0.834,3.557-2.667c-5.503-12.042-20.495-28.024-22.23-39.125c9.622,12.233,17.82,22.713,24.008,36.458
			c8.883-1.195,10.218-4.128,17.784-5.335c-4.621-17.518-11.765-26.325-16.005-43.571c-1.046-0.139-2.524,0.153-2.668-0.889
			c0.446-6.573,5.018-18.277,6.225-24.898c3.414,6.595,0.688,12.869-2.667,17.784c1.638,13.35,13.269,33.805,17.784,50.685
			c0.188-1.074,0.986-0.546,1.778,0c2.898-8.124-5.055-17.014-0.889-25.787c2.548,5.083,4.313,13.723,5.335,23.119
			c5.162,1.285,7.143-3.384,7.114,0c0.262-3.098,2.406,0.075,2.668-1.778c-1.797-3.149-4.816-12.862-0.89-16.006
			c2.644,4.483,1.832,10.603,2.668,16.006c4.862-1.043,12.441-4.004,13.338-1.778c4.174-20.911,11.298-38.702,16.006-56.91
			c1.53-0.047,2.279,0.685,2.668,1.779c-4.561,15.903-9.319,35.009-15.117,52.463c8.077,2.269,11.552-1.123,18.674,0
			c-1.906-7.631,2.525-14.933,6.225-20.452c1.917,6.119-4.303,13.307,0.889,20.452c2.742-4.44,5.153-17.834,12.449-15.117
			c-5.82,4.947-6.726,8.155-9.781,15.117c15.041,0.69,33.838,1.083,46.238,5.335c2.367-6.657,7.631-16.629,14.228-22.23
			c-0.47,10.398-9.096,14.279-11.56,24.008c2.792-0.42,2.349,2.394,4.446,2.668c14.68-24.246,22.02-39.946,30.233-66.691
			c-5.439-4.939-8.324-17.106-16.006-19.562c-5.366-1.716-14.061,3.635-18.674,3.557c-7.915-0.135-14.49-3.989-19.562-5.335
			c-13.547-3.595-31.823-9.668-43.571-8.892c-4.556,0.301-10.179,3.345-13.338,3.557c-12.827,0.858-24.223,6.989-37.347,10.67
			c-6.094,1.709-15.541,6.262-23.12,7.114c-16.103,1.811-20.02,1.366-32.012,5.335c-5.397,6.649-11.414,11.521-15.116,17.784
			c1.528,1.14,1.102,4.233,3.557,4.446c1.561-1.403,1.845-4.083,4.446-4.446c-1.805,2.641-0.765,8.127-4.446,8.892
			c-0.364,2.142,1.624,1.933,0.889,4.446c15.661,13.683,29.427,29.261,42.682,45.35c-1.224-0.039-1.953,0.418-2.667,0.889
			C155.005,94.953,148.363,81.335,134.488,69.267z M113.147,58.596c-4.614,9.73-7.761,16.348-9.781,29.344
			c10.852,3.972,19.252,15.127,29.344,16.895c-8.597-8.298-19.609-14.181-24.897-25.787c6.334-0.771,9.483,2.202,17.784,5.335
			c-1.324-8.366-4.534-16.557-7.114-26.676C115.763,57.062,115.867,59.241,113.147,58.596z M314.998,173.304
			c2.916,1.688,3.009,6.451,7.113,4.446c-4.58-29.576-5.476-50.042-7.113-74.693c-21.88-9.496-46.899-8.828-67.58-8.003
			c-25.946,1.035-53.856,7.038-72.026,17.784c0.542,0.05,1.053,0.133,0.889,0.889c-1.696-1.669-1.609,0.527-4.446,0
			c0.911,4.86-0.928,5.873-3.557,8.003c2.131,0.525-2.311,1.711-1.778,3.557c3.735-0.979,2.956-1.176,4.446-3.557
			c0.592,0,1.186,0,1.778,0c-0.347,1.269-1.067,1.5,0,2.667c-3.685,1.332-6.464,7.727-3.557,7.114
			c-3.311-1.232,2.618-0.134,1.779-1.778c-0.494,0.003-1.01-0.72,0-0.889c0.69,0.199,1.754,0.024,1.778,0.889
			c-1.774,4.311-2.429,4.213-4.446,8.003c3.802,1.371,4.533-4.873,6.225-2.668c-1.871,4.652-3.664,5.863-4.446,9.782
			c3.802,1.194,4.533-5.223,6.225-0.889c-2.865,1.847-4.503,6.068-3.557,8.002c0.05-0.542,0.133-1.052,0.889-0.889
			c-0.003,0.494,0.72,1.01,0.889,0c-2.115-0.262,0.988-2.406,1.778-2.667c1.313,4.806-5.111,6.996-0.889,8.892
			c0.813-0.606,0.507-3.886,4.446-3.557c-0.936,3.013-1.389,5.411-4.446,7.113c2.098,0.754-2.45,2.19-0.889,5.335
			c1.33-0.151,3.282,0.318,3.557-0.889c-2.115-0.262,0.988-2.406,1.779-2.667c1.995,3.928-5.547,7.485-1.779,10.67
			c0.804-1.568,1.989-2.754,3.557-3.557c0.876,4.216-2.631,5.72-3.557,10.671c2.792,0.42,2.35-2.394,4.446-2.668
			c2.93,4.738-4.842,6.262-3.557,9.781c3.44,0.985,3.163-3.143,5.335-0.889c-1.873,3.697-2.661,5.107-4.446,8.892
			c3.134-1.894,9.892-6.229,9.781-8.003c22.387-10.844,39.831-16.258,62.245-19.562c-3.472-20.513-8.047-51.281-6.225-71.137
			c4.355,22.242,5.997,51.546,8.003,71.137c4.479,0.13,10.938-2.422,11.56,0C280.556,166.598,301.825,165.676,314.998,173.304z
			 M174.503,207.983c-0.15,2.226,1.366,2.783,2.667,3.557c7.526-7,14.984-18.802,24.009-21.341
			c-8.384,7.797-21.619,18.624-24.009,26.676c6.364-6.09,13.379-16.256,20.452-18.673c0.045,2.5-3.873,2.434-1.779,4.446
			c-8.487,4.258-14.028,11.462-19.562,18.673c7.248-4.822,11.207-12.789,17.784-16.006c-1.091,2.107-3.148,6.188-1.778,8.003
			c-2.58,0.796-3.707,1.773-6.225,4.446c-2.293,2.435-8.846,8.416-7.113,11.56c0.672-2.525,5.312-4.023,3.557-6.225
			c5.852-1.113,4.11-6.463,9.781-8.892c0.347,3.498-4.135,5.395-6.225,8.892c3.362,1.288,1.707-2.443,4.446-1.778
			c-0.016,4.199,4.883,7.11,3.557,9.782c-2.097-0.275-1.654-3.088-4.446-2.668c-0.521,1.85-1.869,2.874-2.668,4.446
			c3.255,2.623,9.117,1.271,10.671,3.557c-1.498,3.239-4.933-0.621-6.225,0.89c1.742,1.899-10.185,4.32-8.892,8.002
			c3.982,0.099,6.509-5.899,9.781-3.557c-3.237,0.86-8.79,4.052-11.56,8.003c8.012-2.765,13.992-8.744,20.452-6.225
			c-5.82,2.776-10.133,7.059-16.006,9.781c1.221,2.027-2.292,3.343,0,3.558c0.05-0.543,0.133-1.054,0.889-0.89
			c-0.758,1.02,3.258-1.147,1.778-2.668c5.389,0.625,7.321-6.878,11.56-4.445c-4.909,2.512-11.987,7.562-12.449,11.56
			c3.632-3.198,9.122-9.239,14.228-8.003c-3.894,1.44-7.319,3.352-9.781,6.225c1.667,0.213-0.504,1.464,0.889,1.778
			c3.748-3.839,7.756-6.119,14.228-8.893c-4.274,6.472-14.001,7.049-16.006,14.228c3.725-3.389,8.733-5.494,12.449-8.892
			c1.734,3.408-7.238,7.094-8.892,7.113c1.221,2.026-2.292,3.343,0,3.557c2.693-1.746,8.104-8.265,10.67-4.446
			c-2.171-2.254-1.895,1.875-5.335,0.89c0.808,4.587-3.727,0.295-3.557,5.335c2.751-0.806,4.898-2.216,7.114-3.557
			c-1.804,3.66,2.156-2.115,2.667,2.668c1.305-1.585-0.557-3.483,1.778-5.336c1.232,0.546,0.134,3.424,1.778,3.558
			c1.03-1.86-0.415-3.342,2.668-4.446c-0.995,1.28-0.959,2.17,0.89,2.668c1.041-1.331,1.105-3.638,2.667-4.446
			c-0.722,4.823,2.59,1.081,3.558,0c-0.028,2.695,4.474,0.86,4.445,3.557c-1.09,2.467-2.955,4.159-4.445,6.225
			c1.28,0.497,2.17,1.387,2.667,2.668c2.72,0.645,2.615-1.535,5.335-0.89c-0.248,2.026,0.215,3.343,1.779,3.557
			c1.967-1.28-1.12-2.17,0.889-2.667c0.188,1.074,0.986,0.547,1.778,0c1.233,0.545,0.134,3.423,1.778,3.557
			c0.051-0.543,0.133-1.053,0.89-0.89c-0.003-0.892,0.72-1.059,0.889-1.778c-14.717-2.679-5.892-17.958-2.667-22.23
			c4.835-0.178,5.787-3.889,6.225-6.225c-1.337-1.331-3.745-1.591-4.446-3.557c0.647-9.039,4.6-11.195,6.225-17.784
			c-5.299-2.257-2.871-7.09-6.225-8.002c2.065-0.602,2.38-2.955,4.446-3.557c0.212,1.269,1.464,1.5,1.778,2.668
			c-0.966,0.212-2.136,1.464-0.89,1.778c0.498-1.281,1.387-2.17,2.668-2.668c-0.995,1.281-0.959,2.17,0.889,2.668
			c-0.002-0.494,0.721-1.01,0.89,0c-2.373,1.815-1.976,2.249-2.668,4.446c1.567,2.705,2.754-2.427,3.557,0
			c-4.84,3.082,1.466,5.203,1.779,11.56c0.293,5.95-6.434,13.158-0.89,16.895c1.251,0.844,5.48-2.886,7.113,0.89
			c-14.399-0.694,7.139,3.222,7.114,0.889c1.94,2.449,2.423,4.524-0.89,6.225c1.874-1.86-1.171-3.342-2.667-4.446
			c-9.303-2.84-16.077,6.171-12.449,11.561c7.36-3.533,2.833,9.113,8.892,2.667c-2.076,3.237,0.34,3.07,3.558,4.446
			c-2.923,3.358-19.916,5.541-21.342,3.557c2.11,4.856,16.589,1.238,14.228,12.449c-6.483,0.059-5.076-2.358-11.56-1.778
			c-1.962-6.956-14.169-2.674-13.338-8.893c-5.058,0.019-4.507-5.57-9.781-5.335c-4.877,7.278,1.931,15.954-2.668,20.452
			c-0.011-1.176-1.559-0.813-1.778-1.779c3.968-2.608-7.767-7.908-1.778-11.56c-3.582,0.025-5.082-2.031-6.225-4.445
			c2.154-0.423,3.933,3.171,5.335,0c-3.841-0.013-4.311-3.396-5.335-6.225c-2.6,1.435,1.418,4.583-0.889,5.335
			c-3.5,1.425-0.309-3.84-2.667-3.557c-1.276,3.169-5.806,3.086-7.114,6.225c1.281,1.968,2.17-1.119,2.667,0.889
			c-1.169,1.796-2.833,3.095-3.557,5.336c2.027-0.249,3.342,0.214,3.557,1.778c-5.979-0.282,0.348,15.916,0,21.341
			c1.681,0.198,1.962-1.002,3.557-0.89c-1.471,2.341,0.582,2.995-0.889,5.336c2.792,1.479,3.633-3.308,4.446-0.89
			c0.249,0.631-3.86,4.93,0,6.225c0.101-1.085,0.266-2.105,1.778-1.778c0.273,2.986-1.187,7.708,2.667,7.113
			c2.388-5.951,1.508,2.226,3.557,4.446c1.239-1.133,0.387-4.355,2.668-4.446c1.023,2.491,1.023,4.622,0,7.114
			c5.04,0.17,0.749-4.365,5.335-3.558c-0.175,2.627-1.918,5.964,0.89,7.114c1.667-0.213-0.505-1.464,0.89-1.778
			c0.889,0,1.778,0,2.667,0c0,1.185,0,2.371,0,3.557c3.385-3.245,4.984,2.98,5.335,3.557c2.835,0.76,3.376-0.774,4.446-1.778
			c-0.38,2.456,3.315,0.835,3.557,2.668c-0.733,5.49,12.539,14.14,23.12,9.781c0.09,0.997-1.292,1.384,0,1.778
			c8.537-2.257,17.106-9.605,19.562-14.228c30.382-16.88,39.174-43.414,24.897-68.469c4.668-2.174,3.806,4.577,7.114,0.889
			c0.279,3.713-1.896,4.357,0,7.114c0.497-1.849,1.387-1.885,2.667-0.89c-0.906,1.168-0.872,3.278-1.778,4.446
			c4.014-0.443,1.763,3.325,1.778,6.225c0.069,12.521-1.741,23.114-12.448,36.457c-4.003,4.987-10.034,12.331-16.006,15.117
			c-0.749,0.349-5.342-0.369-2.668,1.778c-6.439,0.623-6.192,6.568-9.781,8.003c-5.905,6.014-18.273,9.958-27.565,7.113
			c-12.208-3.737-18.091-16.394-27.565-17.784c0.482,0.071,1.018,0.662,0,0.89c-13.245-10.312-22.373-22.11-26.676-33.79
			c-2.889-7.84-3.319-16.858-4.446-26.677c-8.227-1.58-11.493,10.863-12.449,10.671c3.791-2.434,5.99-6.459,9.781-8.893
			c0.05,0.543,0.133,1.053,0.889,0.89c-3.503,3.871-10.175,8.91-9.781,15.116c2.012-2.138,2.997-5.302,6.225-6.225
			c-2.256,5.579-6.688,8.172-6.225,13.339c2.157-3.771,4.147-7.709,8.003-9.782c-1.162,4.751-8.42,10.736-6.225,14.228
			c0.237-3.08,8.553-11.35,6.225-6.225c-0.79,1.738-7.426,8.99-4.446,11.561c1.588-2.732,2.369-7.05,7.114-9.781
			c-1.579,3.936-4.671,7.157-4.446,11.56c1.78-1.776,2.597-4.517,5.335-5.336c0.474,2.625-4.747,7.803-3.557,10.671
			c0.05-0.543,0.133-1.053,0.889-0.89c0.515,1.953,0.985-4.354,4.446-4.445c-1.412,3.372-4.714,7.878-2.667,8.892
			c0.272-1.214,2.086-3.812,3.557-6.225c2.307,4.423-3.584,7.434-2.667,13.339c4.584-1.402,2.356-5.151,7.114-7.114
			c-1.024,3.369-2.164,6.68-3.557,10.671c4.8-1.185,2.042-5.466,7.113-7.114c-1.425,5.165-2.275,6.567-3.557,10.671
			c1.225-0.038,1.952,0.419,2.667,0.89c0.815-1.865-0.228-4.691,4.446-4.446c-3.169,2.913-1.649,4.2-2.667,7.113
			c4.268,0.657,3.706-2.878,4.446-3.557c0.593,0,1.185,0,1.778,0c-0.479,2.41-0.712,2.214-1.778,5.335
			c8.664-6.062,1.709,7.343,8.892,0.89c-1.006,2.792,0.255,2.349-0.89,4.446c3.547,0.878,2.679-2.657,6.225-1.779
			c-0.378,1.696-2.54,1.609-1.778,4.446c2.066,2.148,2.381-1.389,4.446-1.778c0.203,3.63,1.452,3.771,4.446,0.89
			c-1.552,1.812,0.662,1.743-0.89,3.557c13.62,4.812,13.956,3.764,23.119,9.781c1.042-1.33,1.105-3.637,2.668-4.446
			c1.238,1.133,0.387,4.355,2.668,4.446c1.674-1.567-1.216-2.754,1.778-3.557c2.423,3.556,3.048,3.305,3.557,1.778
			c1.35-4.049,2.597,0.982,4.446,0.889c1.27-0.063,2.711-5.197,3.557-3.557c-1.8,4.668,2.717,0.636,4.446-0.889
			c0.085,1.396-0.119,3.083,1.778,2.667c3.172-0.679-0.864-4.214,4.446-3.557c-0.195,1.117-1.386,1.817,0.889,1.778
			c1.141-3.704,2.472-1.676,5.335-2.667c0.668-0.231,0.912-2.3,1.779-2.668c0.886-0.376,1.361,1.233,2.667,0.889
			c2.659-0.698,2.506-7.445,5.336-2.667c2.477-5.635,13.059-7.542,13.338-12.449c10.418-6.465,17.51-14.093,22.23-24.009
			c6.404-13.454,1.678-36.575-0.89-47.128c-1.204-4.944-4.51-11.879-3.557-16.895c0.797,0.787,1.382,6.185,2.667,3.557
			c0.481-1.361-4.619-6.394-1.778-9.781c2.415-0.637-0.636,4.192,1.778,3.557c0.436-12.152,5.463-20.853,13.339-28.455
			c-3.105-3.691-5.605-3.784-8.893-2.667c-1.77,7.795-1.152,12.139-7.113,16.006c0.372-2.273,1.34-3.886,2.667-7.114
			c-1.046-0.139-2.523,0.153-2.667-0.889c-1.4-7.72-2.434-18.176,1.778-24.008c-0.014,1.165-2.467,1.133-2.668,0
			c4.28-4.595-1.585-11.362,0-16.006c-10.394-13.128-36.026-12.74-51.574-12.449c-33.9,0.635-74.616,13.092-91.588,37.347
			c2.781-8.488,13.859-13.403,16.895-18.673C185.441,194.173,177.488,202.425,174.503,207.983z M188.73,213.318
			c-5.883,1.23-7.87,6.358-11.56,9.781C181.548,223.714,185.026,216.286,188.73,213.318z M179.838,235.548
			c-2.425-2.41,2.3-2.213,1.778-5.335c-4.692,1.381-4.963,5.567-1.778,6.225c-2.793-0.422-3.633,1.108-4.446,2.668
			c2.949,1.402,2.668,3.181,1.778,5.335c4.968-2.146,9.708-4.52,13.338-8.003c-5.051-1.223-5.26-2.608-8.892,0.89
			c1.399-1.86,2.114-3.343,0.889-4.446C182.008,234.162,181.119,235.05,179.838,235.548z M184.284,251.554
			c2.828-1.614,6.595-3.99,8.003-4.445c-1.281,0.475-2.17-3.466-2.667-0.89C190.387,246.162,181.44,252.386,184.284,251.554z
			 M333.671,231.103c0.013-2.375,3.759-7.139,1.779-8.893C333.854,225.592,330.019,229.289,333.671,231.103z M160.275,266.671
			c-0.811,2.162-0.806,15.28,2.668,18.673c3.44,0.594,3.163,0.003,5.335,0.89c0.994-17.7,10.748-47.023-8.003-62.245
			c-2.217,2.729-7.444,10.234-3.557,13.339c2.067-2.439-0.221-3.718,3.557-4.446c4.181,3.529,3.82,9.733,6.225,13.338
			c1.197,1.794,4.094,2.341,4.446,4.446c-0.018-0.104-2.544,3.556-2.668,4.445c-0.312,2.247,3.132,6.243-0.889,7.114
			c-0.264-4.701-1.103-4.703-1.778-8.003c-9.008,3.929,3.988,10.986,1.778,16.006c-7.618-4.26-10.775-17.317-2.667-23.119
			c-0.855-3.198-3.091-5.997-3.557-7.114C155.679,245.22,155.079,260.562,160.275,266.671z M186.062,228.435
			c2.991,0.619,2.915-1.828,4.446-2.667c-1.667-0.213,0.504-1.465-0.889-1.779C189.018,226.055,186.665,226.369,186.062,228.435z
			 M329.226,231.992c-4.582,8.132-2.802,27.821-0.89,35.568c11.95-5.383,9.963-28.173,5.335-34.679
			c0.72,7.964-0.42,17.578-5.335,18.673C329.627,247.487,334.904,237.045,329.226,231.992z M154.051,251.554
			c-0.34-3.889,3.524-5.59,0-8.003C153.031,244.676,152.265,250.563,154.051,251.554z M56.238,332.472
			c0.421,2.793-1.109,3.634-2.668,4.446c-0.756-2.938-0.314-11.903-4.446-16.006c-5.632,1.902-13.672,5.526-15.117-1.778
			c9.451,5.985,19.629-5.206,18.673-17.784c-2.057-2.52-6.28-0.246-8.003-4.446c8.827,1.962,19.247-11.355,16.895-25.787
			c-1.696-0.378-1.609-2.54-4.446-1.778c-1.446,2.479-3.15,8.197-6.225,6.225c-1.807,8.279-10.749,9.406-14.227,16.006
			c-6.079,11.534-3.793,24.985-8.003,37.347c1.046,0.139,2.524-0.152,2.667,0.89c-0.982,0.602-4.613,2.955-2.667,3.557
			c1.144-0.448,1.838-0.939,4.446-1.778c-0.463,1.315-1.315,2.241-1.778,3.557c3.362,1.287,1.707-2.443,4.446-1.778
			c3.403,2.057-5.765,4.752-0.889,5.335c-0.158-1.946,3.004-2.18,3.557-1.778c-0.497,2.467-3.06,2.868-3.557,5.335
			c3.273,1.129,4.021-4.777,6.225-1.778c-0.602,2.066-2.955,2.381-3.557,4.446c3.44,0.985,3.163-3.144,5.335-0.89
			c-0.464,2.217-0.099,4.363-1.778,7.114c2.948,2.645,3.857-2.812,5.335-0.89c-1.847,3.586-5.463,12.037-9.781,16.006
			c-0.834-5.575,2.723-6.762,3.557-10.67c-1.982-7.189-5.923-9.217-10.67-15.117c-10.553-13.115-14.403-31.983-26.676-19.562
			c2.696,5.307,6.751,9.255,9.781,14.228c-3.309,7.747,5.216,7.789,2.667,12.449c2.877,1.099,0.68-2.877,3.557-1.778
			c0.737,2.321-2.689,4.878,0,6.224c0.188-0.997,0.987-1.384,1.778-1.778c0.604,2.455,0.161,2.029,2.667,3.558
			c-1.25,0.231-1.014,1.95-1.778,2.667c3.703,0.805,0.106,3.39,1.778,6.225c4.963-1.854,2.522,1.233,3.557,2.668
			c0.365-1.118,1.147-1.817,2.668-1.778c0.531,1.583-2.606,3.692,0,4.445c1.239-1.132,0.387-4.355,2.667-4.445
			c0.514,2.375-2.63,5.556,0,7.113c1.05-1.32,0.77-3.973,3.557-3.557c-0.906,1.168-0.872,3.278-1.778,4.446
			c6.225-2.258,3.708,4.799,8.892,8.002c1.693-1.863,2.897-4.217,4.446-6.224c-0.243,4.711-5.082,7.859-0.889,9.781
			c1.792-2.654,1.277-7.615,5.335-8.003c-1.706,5.147-5.182,11.323-2.667,14.228c0.819-1.954,0.379-7.057,4.446-8.003
			c-1.939,2.803-2.139,7.345-2.667,11.56c2.921,2.118,2.716,7.361,7.114,8.003c0.568-3.118,0.67-5.517,3.557-8.003
			c2.508,3.331-7.024,10.822,0,13.338c1.131-6.079,1.069-10.229,4.446-12.449c-1.309,5.467-1.663,9.053-4.446,14.228
			c5.632,6.196,8.087,8.271,10.671,12.449c7.741-2.087,2.227-11.328,8.892-14.228c0.172,6.846-8.792,13.681-0.889,18.674
			c1.386-7.955-1.34-15.203,5.335-16.896c1.221,2.026-2.292,3.343,0,3.557c0.735-2.078,3.115-1.896,4.446-0.889
			c-1.151,2.592-2.147,5.258-0.89,6.225c1.524-1.441,0.344-5.585,3.557-5.336c1.805,6.129-7.593,18.28-2.667,22.23
			c3.516-9.938,0.301-14.403,6.224-20.452c-1.035,8.706-4.009,18.862-5.335,27.565c-4.146,0.588-3.937-3.177-7.114-3.557
			c1.58,6.162,8.844,5.347,13.338,5.336c-1.316-6.83,3.151-12.925,1.778-17.784c-4.592,6.143-1.938,9.599-4.446,16.895
			c-3.137-4.932,0.768-9.092,1.778-13.338c0.964-4.053-0.672-12.014,5.335-13.339c-1.677,3.171-2.066,6.797-2.668,8.893
			c3.446,0.481,0.77-5.159,3.557-5.335c0.333,2.038,3.557,1.186,4.446,2.667c-3.084,6.285-1.92,12.108-5.335,18.674
			c-2.525-5.51,3.009-10.568,0.889-15.116c-2.986,4.052-3.188,10.611-3.557,16.005c4.495,0.108,6.765-0.228,9.782-3.557
			c-3.572-3.941-3.964-11.892,0.889-15.116c-0.454,5.249-2.494,10.098-0.889,14.228c2.991-3.599,1.737-7.105,5.335-8.893
			c-0.478,1.86-1.559,3.343,0.889,4.446c0.615-2.065,0.705-3.758,2.668-6.225c1.232,0.545,0.134,3.423,1.778,3.557
			c1.232-0.545,0.134-3.423,1.778-3.557c-1.201,15.829-20.198,23.183-34.679,19.562c2.737,6.076,9.659,9.304,14.228,8.893
			c-1.516,0.364,0.187,1.146,0,2.667c-2.792,1.006-2.35-0.255-4.446,0.89c1.03-3.748-6.542-3.469-6.224-3.557
			c2.883,1.629,3.16,7.352,0,11.56c-2.226,1.174-2.784-3.516-3.557-0.89c4.644,8.224,25.006,8.39,32.901-2.667
			c-2.253-2.398-0.701-3.452-1.778-6.225c3.796-5.096,3.674-14.11,9.781-16.896c-1.175,5.168-4.54,11.564-3.557,17.784
			c11.324-14.023,7.814-23.926,12.449-42.682c-4.947-0.099-1.794-2.191-6.225-2.668c0.961-3.205-0.104-8.812,0-10.67
			c3.11,0.189,0.521,10.69,3.557,8.003c-0.431-1.433,0.55-8.558-1.778-10.671c4.977,1.085,0.916,10.265,4.446,10.671
			c1.984-4.911-2.766-12.427-2.668-15.117c3.891,2.246,3.565,8.659,5.335,10.671c2.652-7.342-5.441-11.587-1.778-14.228
			c2.486,2.644,1.879,7.553,4.446,9.781c2.744-5.28,2.221-9.534,0.889-13.338c1.402,0.081,0.696,2.268,2.668,1.778
			c3.842-14.956-9.157-27.335-1.778-40.903c-5.996-12.698-1.884-21.064-3.557-33.79c-8.388-2.937-6.878-13.975-13.338-16.896
			c-6.517,2.322-8.989,9.511-8.892,16.006c6.131,3.947,9.085,11.07,16.005,14.228c-4.029,4.086-7.384,2.418-11.56,0.89
			c-3.208,7.122,4.792,14.545,11.56,16.895c-0.494,0.003-1.009-0.72,0-0.89c0.746,3.701,7.176,1.717,6.225,7.114
			c-7.681-1.22-13.828-8.688-18.673-9.781c1.556,5.688,10.614,8.177,9.781,13.338c-5.897-1.925-13.628-6.371-11.56-13.338
			c-11.007-0.708-13.527-10.145-25.787-11.56c-1.259-3.484-0.614-8.871-2.667-11.56c-6.939,2.08-12.36,8.498-16.895,2.667
			c5.491-1.586,16.997-3.352,16.895-13.338c-2.654-2.133-4.188,4.043-4.446,0c-1.229,2.758-4.106,3.474-5.335,0.889
			c7.08-4.35,15.522-8.66,15.117-16.005c-0.602,1.944-2.955-1.685-3.557-2.668c9.508-1.745,25.406,1.807,27.565-12.449
			c-5.208,3.604-12.846,8.181-16.006,2.668c1.577-1.387,1.562-4.366,4.446-4.446c0.244,2.607-3.562,3.303,0,4.446
			c1.291-0.744,7.449-1.233,8.892-4.446c-8.991,0.655-10.191-2.296-17.784-1.778c-1.56,3.813-3.474,4.399-6.225,5.335
			c0.92-2.34,3.526-2.995,4.446-5.335c-8.562,3.153-16.902,10.746-18.673,17.784c-1.752,0.349-4.309,7.527-7.113,9.781
			c4.972,10.391,1.341,19.983-3.557,29.344C65.103,331.62,60.037,336.567,56.238,332.472z M240.305,363.595
			c-10.798-8.366-34.66-10.103-45.35-19.563c0.494-0.002,1.009,0.721,0,0.89c-4.498-3.801-8.45-8.148-14.227-10.671
			c-0.599-3.679-3.452-4.924-5.335-8.003c-4.849-7.926-4.797-20.333-8.892-27.565c-2.323,2.255-0.863,5.663-5.335,7.114
			c-0.127,17.05-1.168,28.893,8.002,39.125c-17.444,2.091-20.912-17.317-20.452-40.015c-8.264,0.501-5.888,9.354-5.335,16.896
			c1.326,18.092,0.063,36.313,2.667,51.574c26.806,20.189,57.276,23.6,85.364,14.227c-20.903-8.972-35.546,1.562-48.017-3.557
			c11.82-4.303,26.387-1.372,36.458-4.446c-2.017-1.919-3.146-5.909-6.225-8.892c-20.249-4.064-62.739,8.777-66.69-19.562
			c4.695-2.475,4.364,4.19,8.892,7.113c11.396,7.357,36.215-1.466,48.906,4.446c2.545,1.195,8.408,1.596,14.228,3.557
			c8.208,2.765,22.485,14.77,32.011,10.671C247.541,372.136,244.013,366.467,240.305,363.595z M117.594,321.802
			c-2.66-0.601-0.576-5.945-3.557-6.225C112.15,317.187,115.539,324.282,117.594,321.802z M117.594,336.918
			c-1.222-5.64,5.052-11.65-1.779-13.338C116.226,329.793,113.001,333.236,117.594,336.918z M276.762,360.038
			c-12.651,4.925-23.056,2.376-33.79,3.558c4.387-0.625,1.938,5.698,8.003,5.335c-2.574,3.127,4.603,3.427,3.558,5.335
			C258.294,373.394,271.212,367.029,276.762,360.038z M250.086,418.726c8.932,1.544,8.357-11.073,15.116-16.896
			c-7.559-4.329-17.664-6.771-24.009-10.67C241.196,400.077,239.208,416.846,250.086,418.726z M266.98,419.615
			c-5.849,2.862-2.771,4.438-1.778,7.114c6.323,17.046-5.265,44.039-22.23,58.688c1.093,13.045,10.723,22.849,10.671,34.679
			c8.29-6.683,11.374-16.998,15.116-25.787c4.31-10.119,5.859-24.429,6.225-33.789c0.596-15.267-6.015-30.25-8.892-45.351
			c-0.79-4.146,3.562-7.695,1.778-13.338c-4.338,5.556-4.479,11.538-8.893,15.117c0.693,0.196,1.033,0.745,0.89,1.778
			C261.993,419.268,266.318,417.609,266.98,419.615z M83.804,427.618c1.999-5.169,1.941-11.366,0.889-15.116
			C83.738,417.192,80.344,423.343,83.804,427.618z M87.36,428.507c-0.65-3.186,3.091-9.037,0.889-10.671
			C87.552,420.616,83.856,428.862,87.36,428.507z M218.074,509.425c6.146-2.222,7.673-9.449,11.56-11.56
			c8.369-9.765,19.451-23.905,26.677-33.79c5.024-13.824,13.371-28.985,0-43.571c-0.262,1.853-2.406-1.32-2.668,1.778
			c4.81,4.8,2.397,19.624-6.225,20.452c-9.466,0.909-10.646-11.557-3.557-16.896c2.394,4.162-3.156,6.097,0,10.671
			c7.048-8.58,3.196-13.285-1.778-18.674c-1.778,0-3.557,0-5.336,0C209.02,439.808,216.55,473.704,218.074,509.425z
			 M232.302,265.782c3.145-0.411,5.532-1.581,7.113-3.557c-5.701-1.55,1.12-6.663-2.668-8.893
			C235.444,257.934,228.83,259.855,232.302,265.782z"/>
		<path fill-rule="evenodd" clip-rule="evenodd" fill="#FFFFFF" d="M170.946,107.502c0.715-0.471,1.443-0.928,2.667-0.889
			c-13.255-16.088-27.021-31.667-42.682-45.35c0.735-2.513-1.253-2.304-0.889-4.446c3.681-0.765,2.641-6.251,4.446-8.892
			c-2.601,0.363-2.885,3.042-4.446,4.446c-2.455-0.213-2.029-3.306-3.557-4.446c3.702-6.263,9.719-11.135,15.116-17.784
			c11.992-3.969,15.909-3.525,32.012-5.335c7.579-0.852,17.026-5.404,23.12-7.114c13.124-3.682,24.52-9.812,37.347-10.67
			c3.159-0.211,8.782-3.256,13.338-3.557c11.748-0.776,30.024,5.297,43.571,8.892c5.072,1.346,11.647,5.2,19.562,5.335
			c4.613,0.079,13.308-5.272,18.674-3.557c7.682,2.457,10.566,14.624,16.006,19.562c-8.214,26.745-15.554,42.445-30.233,66.691
			c-2.098-0.274-1.654-3.088-4.446-2.668c2.464-9.729,11.09-13.61,11.56-24.008c-6.597,5.601-11.86,15.573-14.228,22.23
			c-12.4-4.252-31.197-4.645-46.238-5.335c3.056-6.961,3.961-10.17,9.781-15.117c-7.296-2.718-9.707,10.676-12.449,15.117
			c-5.191-7.145,1.028-14.333-0.889-20.452c-3.699,5.519-8.131,12.821-6.225,20.452c-7.122-1.123-10.597,2.269-18.674,0
			c5.798-17.455,10.557-36.561,15.117-52.463c-0.389-1.094-1.138-1.826-2.668-1.779c-4.708,18.208-11.832,35.999-16.006,56.91
			c-0.896-2.226-8.476,0.735-13.338,1.778c-0.836-5.403-0.024-11.523-2.668-16.006c-3.927,3.144-0.907,12.857,0.89,16.006
			c-0.262,1.853-2.406-1.319-2.668,1.778c0.029-3.384-1.952,1.285-7.114,0c-1.022-9.396-2.787-18.036-5.335-23.119
			c-4.166,8.773,3.788,17.663,0.889,25.787c-0.792-0.546-1.59-1.074-1.778,0c-4.516-16.88-16.146-37.334-17.784-50.685
			c3.356-4.916,6.081-11.189,2.667-17.784c-1.207,6.621-5.779,18.325-6.225,24.898c0.144,1.042,1.622,0.75,2.668,0.889
			c4.241,17.247,11.384,26.053,16.005,43.571c-7.566,1.207-8.901,4.14-17.784,5.335c-6.188-13.745-14.386-24.224-24.008-36.458
			c1.735,11.101,16.727,27.083,22.23,39.125c-0.242,1.833-3.938,0.211-3.557,2.667c-6.527-5.033-12.257-10.863-18.673-16.006
			c1.69,5.805,9.762,14.674,15.116,16.895c-3.505,7.543-6.227-1.816-7.113-2.667c-0.764-0.734-3.432-0.634-4.446-1.779
			c-0.279-0.314,1.237-1.203,0.889-1.778c-2.478-4.099-9.132-9.313-13.338-14.227c-6.379-7.451-11.001-13.726-10.671-22.23
			C148.363,81.335,155.005,94.953,170.946,107.502z M294.546,79.937c1.696,0.379,1.609,2.541,4.446,1.778
			c6.54-15.247,14.911-22.681,22.23-38.236c-12.161,8.079-14.97,19.636-21.341,28.455c-0.003-0.494,0.72-1.009,0.889,0
			C297.611,73.518,297.093,77.742,294.546,79.937z M135.378,62.153c2.768-3.304-0.184-6.609,2.667-10.67
			C133.734,53.01,131.358,59.393,135.378,62.153z M140.713,63.931c1.677-1.382-1.275-3.465,0.889-5.335
			C136.906,57.159,137.185,64.171,140.713,63.931z"/>
		<path fill-rule="evenodd" clip-rule="evenodd" d="M300.771,71.934c-0.169-1.009-0.892-0.494-0.889,0
			c6.371-8.818,9.18-20.376,21.341-28.455c-7.319,15.555-15.69,22.989-22.23,38.236c-2.837,0.763-2.75-1.399-4.446-1.778
			C297.093,77.742,297.611,73.518,300.771,71.934z"/>
		<path fill-rule="evenodd" clip-rule="evenodd" fill="#FFFFFF" d="M265.202,167.969c-0.621-2.422-7.08,0.13-11.56,0
			c-2.006-19.591-3.647-48.895-8.003-71.137c-1.822,19.856,2.753,50.624,6.225,71.137c-22.414,3.305-39.857,8.719-62.245,19.562
			c0.111,1.774-6.647,6.109-9.781,8.003c1.785-3.785,2.573-5.195,4.446-8.892c-2.172-2.254-1.895,1.875-5.335,0.889
			c-1.286-3.52,6.486-5.043,3.557-9.781c-2.097,0.274-1.654,3.088-4.446,2.668c0.926-4.951,4.433-6.455,3.557-10.671
			c-1.568,0.803-2.753,1.989-3.557,3.557c-3.768-3.185,3.774-6.742,1.779-10.67c-0.791,0.262-3.894,2.406-1.779,2.667
			c-0.275,1.207-2.227,0.738-3.557,0.889c-1.561-3.145,2.987-4.581,0.889-5.335c3.057-1.702,3.51-4.1,4.446-7.113
			c-3.939-0.33-3.633,2.951-4.446,3.557c-4.222-1.896,2.202-4.086,0.889-8.892c-0.79,0.262-3.893,2.406-1.778,2.667
			c-0.169,1.01-0.892,0.494-0.889,0c-0.756-0.163-0.839,0.347-0.889,0.889c-0.947-1.935,0.692-6.156,3.557-8.002
			c-1.692-4.333-2.423,2.083-6.225,0.889c0.782-3.918,2.575-5.129,4.446-9.782c-1.692-2.205-2.423,4.039-6.225,2.668
			c2.017-3.79,2.672-3.692,4.446-8.003c-0.024-0.865-1.088-0.69-1.778-0.889c-1.01,0.169-0.494,0.892,0,0.889
			c0.839,1.645-5.089,0.546-1.779,1.778c-2.907,0.613-0.127-5.782,3.557-7.114c-1.067-1.168-0.347-1.398,0-2.667
			c-0.593,0-1.186,0-1.778,0c-1.491,2.381-0.711,2.577-4.446,3.557c-0.533-1.846,3.91-3.031,1.778-3.557
			c2.629-2.13,4.468-3.143,3.557-8.003c2.837,0.527,2.75-1.669,4.446,0c0.164-0.756-0.347-0.839-0.889-0.889
			c18.17-10.747,46.08-16.75,72.026-17.784c20.681-0.825,45.7-1.493,67.58,8.003c1.638,24.652,2.533,45.117,7.113,74.693
			c-4.104,2.005-4.197-2.757-7.113-4.446C301.825,165.676,280.556,166.598,265.202,167.969z"/>
		<path fill-rule="evenodd" clip-rule="evenodd" fill="#F4E2CF" d="M194.065,189.31c-3.036,5.27-14.114,10.186-16.895,18.673
			c16.972-24.255,57.688-36.712,91.588-37.347c15.548-0.291,41.181-0.679,51.574,12.449c-1.585,4.644,4.28,11.411,0,16.006
			c0.201,1.133,2.654,1.165,2.668,0c-4.212,5.832-3.179,16.288-1.778,24.008c0.144,1.042,1.621,0.75,2.667,0.889
			c-1.327,3.229-2.295,4.841-2.667,7.114c5.961-3.867,5.344-8.211,7.113-16.006c3.287-1.116,5.787-1.023,8.893,2.667
			c-7.876,7.602-12.903,16.302-13.339,28.455c-2.414,0.636,0.637-4.193-1.778-3.557c-2.841,3.388,2.26,8.42,1.778,9.781
			c-1.285,2.628-1.87-2.77-2.667-3.557c-0.953,5.016,2.353,11.95,3.557,16.895c2.567,10.553,7.294,33.674,0.89,47.128
			c-4.721,9.916-11.812,17.544-22.23,24.009c-0.279,4.907-10.861,6.814-13.338,12.449c-2.83-4.778-2.677,1.969-5.336,2.667
			c-1.306,0.345-1.781-1.265-2.667-0.889c-0.867,0.368-1.111,2.437-1.779,2.668c-2.863,0.991-4.194-1.037-5.335,2.667
			c-2.274,0.039-1.084-0.661-0.889-1.778c-5.311-0.657-1.274,2.878-4.446,3.557c-1.897,0.416-1.693-1.271-1.778-2.667
			c-1.729,1.524-6.246,5.557-4.446,0.889c-0.846-1.641-2.287,3.493-3.557,3.557c-1.85,0.094-3.097-4.938-4.446-0.889
			c-0.509,1.526-1.134,1.777-3.557-1.778c-2.994,0.803-0.104,1.989-1.778,3.557c-2.281-0.091-1.43-3.313-2.668-4.446
			c-1.562,0.81-1.626,3.116-2.668,4.446c-9.163-6.018-9.499-4.969-23.119-9.781c1.552-1.813-0.662-1.744,0.89-3.557
			c-2.994,2.881-4.243,2.74-4.446-0.89c-2.065,0.39-2.38,3.927-4.446,1.778c-0.762-2.837,1.4-2.75,1.778-4.446
			c-3.546-0.878-2.678,2.657-6.225,1.779c1.145-2.098-0.116-1.654,0.89-4.446c-7.183,6.453-0.229-6.951-8.892-0.89
			c1.066-3.121,1.299-2.925,1.778-5.335c-0.593,0-1.185,0-1.778,0c-0.74,0.679-0.178,4.214-4.446,3.557
			c1.019-2.913-0.501-4.2,2.667-7.113c-4.674-0.245-3.631,2.581-4.446,4.446c-0.715-0.471-1.443-0.928-2.667-0.89
			c1.282-4.104,2.132-5.506,3.557-10.671c-5.072,1.648-2.313,5.93-7.113,7.114c1.393-3.991,2.533-7.302,3.557-10.671
			c-4.758,1.963-2.529,5.712-7.114,7.114c-0.917-5.905,4.974-8.916,2.667-13.339c-1.471,2.413-3.284,5.011-3.557,6.225
			c-2.047-1.014,1.256-5.52,2.667-8.892c-3.46,0.092-3.931,6.398-4.446,4.445c-0.756-0.163-0.839,0.347-0.889,0.89
			c-1.19-2.868,4.031-8.046,3.557-10.671c-2.738,0.819-3.555,3.56-5.335,5.336c-0.225-4.402,2.867-7.624,4.446-11.56
			c-4.745,2.731-5.525,7.049-7.114,9.781c-2.98-2.57,3.656-9.822,4.446-11.561c2.329-5.125-5.988,3.145-6.225,6.225
			c-2.195-3.491,5.062-9.477,6.225-14.228c-3.855,2.073-5.846,6.011-8.003,9.782c-0.463-5.167,3.969-7.76,6.225-13.339
			c-3.228,0.923-4.212,4.087-6.225,6.225c-0.394-6.206,6.278-11.245,9.781-15.116c-0.756,0.163-0.839-0.347-0.889-0.89
			c-3.791,2.434-5.99,6.459-9.781,8.893c0.956,0.192,4.222-12.251,12.449-10.671c1.127,9.818,1.557,18.837,4.446,26.677
			c4.303,11.68,13.432,23.478,26.676,33.79c1.018-0.228,0.482-0.818,0-0.89c9.475,1.391,15.357,14.047,27.565,17.784
			c9.292,2.845,21.66-1.1,27.565-7.113c3.589-1.435,3.342-7.38,9.781-8.003c-2.674-2.147,1.919-1.43,2.668-1.778
			c5.972-2.786,12.003-10.13,16.006-15.117c10.707-13.343,12.518-23.936,12.448-36.457c-0.016-2.899,2.235-6.668-1.778-6.225
			c0.906-1.168,0.872-3.278,1.778-4.446c-1.28-0.995-2.17-0.959-2.667,0.89c-1.896-2.757,0.279-3.401,0-7.114
			c-3.309,3.688-2.446-3.062-7.114-0.889c14.276,25.055,5.484,51.589-24.897,68.469c-2.456,4.622-11.025,11.971-19.562,14.228
			c-1.292-0.395,0.09-0.781,0-1.778c-10.581,4.358-23.854-4.291-23.12-9.781c-0.241-1.833-3.937-0.212-3.557-2.668
			c-1.07,1.004-1.611,2.538-4.446,1.778c-0.351-0.576-1.95-6.802-5.335-3.557c0-1.186,0-2.372,0-3.557c-0.889,0-1.778,0-2.667,0
			c-1.395,0.314,0.777,1.565-0.89,1.778c-2.808-1.15-1.064-4.487-0.89-7.114c-4.586-0.808-0.295,3.728-5.335,3.558
			c1.023-2.492,1.023-4.623,0-7.114c-2.281,0.091-1.429,3.313-2.668,4.446c-2.049-2.221-1.169-10.397-3.557-4.446
			c-3.854,0.595-2.394-4.127-2.667-7.113c-1.513-0.327-1.678,0.693-1.778,1.778c-3.86-1.295,0.249-5.594,0-6.225
			c-0.813-2.418-1.653,2.369-4.446,0.89c1.471-2.341-0.582-2.995,0.889-5.336c-1.595-0.112-1.876,1.088-3.557,0.89
			c0.348-5.425-5.979-21.623,0-21.341c-0.214-1.564-1.53-2.027-3.557-1.778c0.723-2.241,2.388-3.54,3.557-5.336
			c-0.498-2.008-1.387,1.079-2.667-0.889c1.308-3.139,5.837-3.056,7.114-6.225c2.358-0.283-0.832,4.981,2.667,3.557
			c2.307-0.752-1.71-3.9,0.889-5.335c1.024,2.829,1.494,6.212,5.335,6.225c-1.402,3.171-3.181-0.423-5.335,0
			c1.143,2.414,2.643,4.471,6.225,4.445c-5.988,3.651,5.746,8.951,1.778,11.56c0.22,0.966,1.768,0.604,1.778,1.779
			c4.599-4.498-2.209-13.174,2.668-20.452c5.274-0.235,4.724,5.354,9.781,5.335c-0.831,6.219,11.376,1.937,13.338,8.893
			c6.483-0.58,5.076,1.837,11.56,1.778c2.361-11.211-12.117-7.593-14.228-12.449c1.426,1.984,18.419-0.198,21.342-3.557
			c-3.218-1.376-5.634-1.209-3.558-4.446c-6.059,6.446-1.531-6.2-8.892-2.667c-3.628-5.39,3.146-14.4,12.449-11.561
			c1.496,1.104,4.541,2.586,2.667,4.446c3.312-1.7,2.83-3.775,0.89-6.225c0.024,2.333-21.514-1.583-7.114-0.889
			c-1.633-3.775-5.862-0.046-7.113-0.89c-5.544-3.736,1.183-10.944,0.89-16.895c-0.313-6.357-6.619-8.478-1.779-11.56
			c-0.803-2.427-1.989,2.705-3.557,0c0.692-2.197,0.295-2.631,2.668-4.446c-0.169-1.01-0.892-0.494-0.89,0
			c-1.848-0.498-1.884-1.387-0.889-2.668c-1.281,0.498-2.17,1.387-2.668,2.668c-1.246-0.314-0.076-1.566,0.89-1.778
			c-0.314-1.168-1.566-1.399-1.778-2.668c-2.066,0.602-2.381,2.955-4.446,3.557c3.354,0.912,0.926,5.746,6.225,8.002
			c-1.625,6.589-5.577,8.745-6.225,17.784c0.701,1.966,3.109,2.226,4.446,3.557c-0.438,2.336-1.39,6.047-6.225,6.225
			c-3.225,4.272-12.05,19.552,2.667,22.23c-0.169,0.72-0.892,0.887-0.889,1.778c-0.757-0.163-0.839,0.347-0.89,0.89
			c-1.645-0.134-0.545-3.012-1.778-3.557c-0.792,0.547-1.59,1.074-1.778,0c-2.009,0.497,1.078,1.387-0.889,2.667
			c-1.564-0.214-2.027-1.53-1.779-3.557c-2.72-0.646-2.615,1.534-5.335,0.89c-0.497-1.281-1.387-2.171-2.667-2.668
			c1.49-2.065,3.355-3.758,4.445-6.225c0.028-2.696-4.474-0.861-4.445-3.557c-0.968,1.081-4.279,4.823-3.558,0
			c-1.562,0.809-1.626,3.115-2.667,4.446c-1.849-0.498-1.885-1.388-0.89-2.668c-3.083,1.104-1.638,2.586-2.668,4.446
			c-1.645-0.134-0.546-3.012-1.778-3.558c-2.335,1.853-0.474,3.751-1.778,5.336c-0.511-4.783-4.472,0.992-2.667-2.668
			c-2.216,1.341-4.363,2.751-7.114,3.557c-0.17-5.04,4.365-0.748,3.557-5.335c3.44,0.985,3.164-3.144,5.335-0.89
			c-2.566-3.818-7.978,2.7-10.67,4.446c-2.292-0.214,1.221-1.53,0-3.557c1.654-0.02,10.626-3.705,8.892-7.113
			c-3.716,3.397-8.724,5.503-12.449,8.892c2.005-7.179,11.731-7.756,16.006-14.228c-6.471,2.773-10.479,5.054-14.228,8.893
			c-1.394-0.314,0.778-1.565-0.889-1.778c2.462-2.873,5.888-4.784,9.781-6.225c-5.106-1.236-10.596,4.805-14.228,8.003
			c0.462-3.998,7.54-9.048,12.449-11.56c-4.239-2.433-6.171,5.07-11.56,4.445c1.48,1.521-2.536,3.688-1.778,2.668
			c-0.756-0.164-0.839,0.347-0.889,0.89c-2.292-0.215,1.221-1.53,0-3.558c5.873-2.723,10.186-7.005,16.006-9.781
			c-6.46-2.52-12.439,3.46-20.452,6.225c2.77-3.951,8.322-7.143,11.56-8.003c-3.272-2.343-5.799,3.655-9.781,3.557
			c-1.293-3.682,10.634-6.103,8.892-8.002c1.292-1.511,4.727,2.35,6.225-0.89c-1.554-2.285-7.416-0.934-10.671-3.557
			c0.799-1.572,2.147-2.596,2.668-4.446c2.792-0.42,2.349,2.393,4.446,2.668c1.326-2.671-3.572-5.583-3.557-9.782
			c-2.74-0.665-1.084,3.066-4.446,1.778c2.089-3.497,6.572-5.395,6.225-8.892c-5.671,2.429-3.929,7.779-9.781,8.892
			c1.756,2.201-2.884,3.7-3.557,6.225c-1.732-3.144,4.82-9.125,7.113-11.56c2.518-2.673,3.645-3.65,6.225-4.446
			c-1.37-1.815,0.688-5.896,1.778-8.003c-6.577,3.217-10.537,11.184-17.784,16.006c5.535-7.211,11.075-14.416,19.562-18.673
			c-2.094-2.012,1.824-1.946,1.779-4.446c-7.073,2.417-14.088,12.583-20.452,18.673c2.39-8.052,15.625-18.879,24.009-26.676
			c-9.025,2.539-16.482,14.34-24.009,21.341c-1.301-0.773-2.818-1.331-2.667-3.557C177.488,202.425,185.441,194.173,194.065,189.31z
			 M205.625,223.989c2.179-10.115,16.593-2.179,20.452-4.446c-6.988-3.886-24.829-5.997-23.12,10.67
			c-4.622-1.619-7.164,1.04-12.449,1.778c3.276,3.476,7.813,2.278,10.67-0.889c3.833,6.347,6.794-5.971,10.67-7.114
			c16.037-4.73,12.597,15.379,23.119,9.781c-1.488-1.179-2.979-2.355-6.224-1.778c2.464-7.797-12.822-11.061-14.228-12.449
			C210.781,220.089,208.019,223.697,205.625,223.989z M276.762,186.642c3.265-0.693,2.837-4.155,1.778-6.224
			C276.615,183,277.351,182.724,276.762,186.642z M218.074,184.864c2.856-0.782,1.218,2.931,3.557,2.667
			c1.675-1.568-1.216-2.753,1.778-3.557c1.183,1.498-0.471,4.933,2.668,6.225c3.023-6.064-5.928-7.347-8.003-7.114
			C219.149,183.273,218.621,184.072,218.074,184.864z M270.537,183.975c-6.042,0.042-2.849,3.793-5.335,7.114
			c0.543,0.05,1.053,0.133,0.89,0.889c1.046-0.14,2.524,0.153,2.667-0.889C268.182,189.907,270.797,185.746,270.537,183.975z
			 M272.315,189.31c-0.542-0.051-1.052-0.133-0.889-0.89c3.372-1.113,4.613-4.975,1.778-6.224
			C271.97,183.709,269.149,189.998,272.315,189.31z M231.412,193.756c0.576-3.396-1.031-10.896-4.446-8.892
			C230.597,185.68,226.938,193.783,231.412,193.756z M233.19,195.534c4.993-2.927,1.479-8.907-1.778-12.449
			C232.139,187.893,233,190.786,233.19,195.534z M209.182,194.645c-1.232-0.546-0.134-3.423-1.778-3.557
			c-0.497,2.576-1.387-1.364-2.667-0.889c0.068,3.802-2.931,4.532-2.667,6.224c-3.506-4.185,1.453,6.227-4.446,4.446
			c0.393,3.918,1.599,3.643,1.778,6.225c-1.269-0.213-1.5-1.464-2.667-1.779c1.011,3.349-0.851,4.05,1.778,5.335
			c1.378-6.045,5.501-8.157,13.338-8.003c6.47,6.22,13.23,9.646,20.452,13.338c4.049-4.872,1.791-7.333,0-13.338
			c-5.999-1.743-7.483-6.708-13.338-5.335c0.314-2.968-3.02-2.957-5.336-5.335c-0.139,1.046,0.153,2.524-0.889,2.667
			c-0.671-1.475-2.112-6.686-3.558-4.446C210.635,189.798,210.635,195.046,209.182,194.645z M274.983,203.537
			c-4.714-1.068-15.241,11.237-7.113,15.117c0.412-1.179,0.423-2.356,4.445-1.778c1.79-4.22,11.674-9.528,17.785-10.671
			c2.687-0.502,8.281-0.779,8.002-0.889c2.164,0.85,2.282,5.322,5.336,4.446c4.866-2.319,2.734-6.33,0-9.781
			c-2.5,1.86,0.143,3.342-2.668,4.446c-0.763-2.837,1.4-2.75,1.778-4.446c-3.71-2.174-1.616-3.244-8.003-5.335
			c-2.405,2.154-0.029,3.933-3.557,5.335c0.203-1.585,1.7-3.483,0-5.335c-1.894,5.646-1.343-4.664-3.557-0.889
			c2.292,0.214-1.221,1.53,0,3.557C280.184,198.649,277.882,197.829,274.983,203.537z M255.421,200.87
			c0.892-0.003,1.059,0.72,1.778,0.889c0.262-1.813,2.406-1.744,2.668-3.557c-0.892,0.002-1.059-0.721-1.778-0.889
			C257.827,199.126,255.683,199.057,255.421,200.87z M242.972,199.98c-3.49,8.915,3.868,18.883,11.561,16.006
			c-6.127-1.515-5.481-7.881-8.893-7.114C247.452,204.686,245.647,204.234,242.972,199.98z M259.867,212.429
			c-0.543-0.05-1.053-0.133-0.89-0.889c1.972,0.658,3.664-3.277,1.778-3.557c-0.01,0.897-1.559,1.118-1.778,0
			c1.762-0.602,3.91-2.955,0.89-3.557c-0.496,2.172-3.44,1.895-2.668,5.335c1.085,0.101,2.105,0.266,1.778,1.778
			C256.402,211.065,260.342,215.005,259.867,212.429z M282.098,216.875c0.54-0.101-13.136,4.864-8.893,9.781
			c-0.223-8.643,21.95-10.612,22.23-0.889c-11.126-11.982-22.266,3.494-28.455,8.002c3.821,0.021,1.953,1.626,4.446,3.558
			c6.86,1.06,19.175,3.741,21.341-3.558c-3.276,4.205-0.95-4.668-6.225,0c-2.017-3.122,1.875-2.924,0-5.335
			c-0.887-0.901-4.848-0.335-6.225,0.889c-0.388,0.762-1.967,3.124-3.557,6.224c-2.516-0.152-6.1,0.766-6.225-1.778
			c5.271-1.146,6.861-8.609,12.449-9.781c9.12-1.912,11.781,4.284,11.56,8.893c7.677,2.591,12.093-3.821,15.117-6.225
			c1.145-9.523-2.099,0.098-8.893,3.557C298.061,220.852,289.817,215.438,282.098,216.875z M263.424,232.881
			c0.096-5.552-0.615-7.307,1.778-11.56C258.706,222.438,258.775,229.257,263.424,232.881z M308.773,231.103
			c1.917,0.852,5.184,1.076,7.113-1.779C313.796,227.495,309.053,228.404,308.773,231.103z M301.66,237.328
			c1.267-0.867,8.238,0.039,8.003-2.668C307.422,231.906,298.911,235.092,301.66,237.328z M305.217,239.995
			c5.285,0.617,6.23,0.005,11.56,2.668c-1.673-5.659-8.058-4.909-9.781-4.446c0.494,0.003,1.009-0.721,0-0.889
			C306.782,238.596,305.531,238.827,305.217,239.995z M278.54,244.441c-0.346-1.27-1.066-1.5,0-2.668
			c-2.375,0.514-5.556-2.63-7.113,0c1.469,0.014,0.498,2.467,1.778,2.668c3.438,4.341,15.357,1.517,19.562,1.778
			c0.778-1.652,3.896-5.509,2.668-6.225C293.492,243.479,284.93,245.745,278.54,244.441z M273.205,259.557
			c3.074,0.11,4.19-1.737,6.225-2.667C277.777,255.499,273.922,257.294,273.205,259.557z M291.879,260.447
			c0.01-1.176,1.559-0.812,1.778-1.778c-4.701,0.772-0.125-2.172-3.557-2.668c-5.267,1.563-10.005,8.356-15.117,7.113
			c2.594,0.249,3.057-0.214,1.778-1.778c3.521-0.628,6.462-1.838,8.003-4.445c-5.164,0.17-6.567,4.103-10.67,5.335
			c-0.438,2.792,3.064,2.349,0.889,4.446c2.764,0.162,5.027-2.101,3.557-3.558C284.448,263.703,284.205,256.89,291.879,260.447z
			 M287.433,270.228c1.075-0.188,0.547-0.986,0-1.778c4.248,0.098,4.658-3.641,8.003-4.446c-6.693-1.062-5.903,5.359-11.56,5.335
			c2.838-3.978,8.721-4.914,11.56-8.892c-5.485,0.458-10.564,6.014-13.338,6.225c2.461-2.28,4.759-4.726,8.003-6.225
			c-2.695-0.138-12.104,3.923-14.228,7.113c-0.825,1.24,0.599,4.593,0,5.336c-5.19,6.439-8.421,2.73-8.893,0
			c-1.796,3.706-8.336,5.289-13.338,6.224c-0.486,3.107-1.381,4.865,0,8.893c6.502,0.921,5.349-1.749,10.671-4.446
			c1.102-0.559,5.39-0.393,6.224-0.889c5.162-3.075,6.048-8.512,8.893-8.893c4.741-0.634,5.876,8.357,5.335,12.449
			c1.33-0.151,3.281,0.317,3.557-0.89c-0.693-2.473,1.169-6.5,1.779-8.003c1.81,0.881,7.538-1.916,8.892-4.445
			c-2.757-0.09-4.248,1.087-6.225,1.778c0.921-2.341,3.525-2.995,4.446-5.336c-4.089-1.371-4.497,5.512-7.113,2.668
			c2.429-1.162,7.269-4.542,6.224-6.225C293.28,265.811,290.442,270.81,287.433,270.228z M292.768,279.12
			c1.047,0.14,2.524-0.152,2.668,0.89c-0.593,0-1.186,0-1.778,0c0,0.593,0,1.186,0,1.778c0.997-0.09,1.384,1.292,1.778,0
			c-0.543-1.402,0.499-3.181,1.778-5.335C294.421,276.031,293.58,277.561,292.768,279.12z M318.555,262.225
			c-0.543,0.05-1.053,0.133-0.889,0.889c2.375,2.135-0.612,5.869,3.557,8.003c0.638-2.936,1.558-5.219-1.778-8.003
			c0.542-0.05,1.052-0.133,0.889-0.889C319.74,262.225,319.147,262.225,318.555,262.225z M323.001,264.003
			c-1.307-4.199-0.43-5.053-3.557-7.113C318.865,259.634,319.732,262.005,323.001,264.003z M267.87,270.228
			c2.797,0.426,3.476-1.267,5.335-1.778c-0.366-6.643-0.661-7.912-4.446-10.671C267.772,261.654,272.278,266.434,267.87,270.228z
			 M258.089,270.228c2.884-2.41,6.651,0.321,8.003-4.446C263.408,261.209,257.643,266.059,258.089,270.228z M239.415,288.012
			c0.543,0.05,1.053,0.133,0.89,0.889c-7.101-3.413-14.94-5.5-23.12-6.224c0.318,5.055,3.029,4.844,6.225,5.335
			c14.18,19.723,27.129,28.124,43.571,11.56c1.742-1.755,5.43-9.981,10.671-9.781c0.716-4.91,3.192-6.153,0-8.893
			C265.612,287.783,250.523,293.651,239.415,288.012z M293.657,288.012c1.782-0.08,5.127-3.06,2.667-4.446
			C296.05,285.664,293.236,285.22,293.657,288.012z M294.546,294.237c0.852-1.817,1.816-3.519,2.668-5.336
			C292.475,288.646,291.814,293.09,294.546,294.237z M242.972,312.91c0.488,0.051,1.014,0.679,0,0.89
			c-5.205-1.909-5.991-8.235-12.448-8.893c0.528,1.842-1.1,5.842,0.889,6.225c1.968-1.28-1.119-2.17,0.89-2.668
			c1.694,0.932-0.571,3.636,0,4.446c2.146,3.045,1.373-2.048,3.557-0.889c0.962,0.511,0.375,3.833,0.889,4.445
			c5.349,6.373,19.689,3.826,24.898,0c0.869-0.638,0.685-3.371,0.889-3.557c1.293-1.167,6.051-0.17,3.558-4.446
			C263.878,313.871,249.864,313.616,242.972,312.91z M218.074,231.103c2.026,0.248,3.343-0.214,3.557-1.779
			c-3.089-2.993-7.768,1.917-9.781,0c0.737,5.787-3.467,2.592-4.446,5.335c7.76,5.656,13.583,6.216,21.342,0.889
			c-5.549,1.992-3.455-3.658-6.225-4.445c-1.58,1.859,0.699,3.342-0.89,4.445C221.029,233.483,218.676,233.168,218.074,231.103z
			 M206.515,241.773c3.944,12.269,19.174,4.446,24.009-0.889C220.923,244.567,217.301,245.694,206.515,241.773z"/>
		<path fill-rule="evenodd" clip-rule="evenodd" fill="#F4E2CF" d="M182.506,232.881c1.225,1.104,0.51,2.586-0.889,4.446
			c3.632-3.498,3.841-2.112,8.892-0.89c-3.63,3.483-8.37,5.857-13.338,8.003c0.89-2.154,1.171-3.933-1.778-5.335
			c0.813-1.56,1.653-3.09,4.446-2.668c-3.185-0.657-2.914-4.844,1.778-6.225c0.521,3.122-4.203,2.925-1.778,5.335
			C181.119,235.05,182.008,234.162,182.506,232.881z"/>
		<path fill-rule="evenodd" clip-rule="evenodd" fill="#F4E2CF" d="M189.62,246.219c0.498-2.576,1.387,1.364,2.667,0.89
			c-1.408,0.455-5.175,2.831-8.003,4.445C181.44,252.386,190.387,246.162,189.62,246.219z"/>
		<path fill-rule="evenodd" clip-rule="evenodd" d="M214.518,219.543c1.405,1.388,16.691,4.651,14.228,12.449
			c3.245-0.577,4.735,0.6,6.224,1.778c-10.522,5.598-7.082-14.511-23.119-9.781c-3.876,1.144-6.837,13.461-10.67,7.114
			c-2.857,3.167-7.394,4.364-10.67,0.889c5.285-0.738,7.827-3.397,12.449-1.778c-1.709-16.667,16.131-14.557,23.12-10.67
			c-3.859,2.267-18.273-5.669-20.452,4.446C208.019,223.697,210.781,220.089,214.518,219.543z"/>
		<path fill-rule="evenodd" clip-rule="evenodd" d="M218.074,183.085c2.075-0.233,11.026,1.049,8.003,7.114
			c-3.139-1.292-1.485-4.727-2.668-6.225c-2.994,0.803-0.104,1.989-1.778,3.557c-2.339,0.264-0.7-3.45-3.557-2.667
			C218.621,184.072,219.149,183.273,218.074,183.085z"/>
		<path fill-rule="evenodd" clip-rule="evenodd" d="M273.205,182.196c2.835,1.25,1.594,5.111-1.778,6.224
			c-0.163,0.757,0.347,0.839,0.889,0.89C269.149,189.998,271.97,183.709,273.205,182.196z"/>
		<path fill-rule="evenodd" clip-rule="evenodd" d="M226.966,184.864c3.415-2.003,5.022,5.496,4.446,8.892
			C226.938,193.783,230.597,185.68,226.966,184.864z"/>
		<path fill-rule="evenodd" clip-rule="evenodd" d="M209.182,190.199c1.445-2.24,2.887,2.971,3.558,4.446
			c1.042-0.144,0.75-1.621,0.889-2.667c2.316,2.378,5.65,2.367,5.336,5.335c5.854-1.374,7.339,3.592,13.338,5.335
			c1.791,6.006,4.049,8.466,0,13.338c-7.222-3.692-13.982-7.118-20.452-13.338c-7.837-0.154-11.96,1.958-13.338,8.003
			c-2.629-1.286-0.768-1.986-1.778-5.335c1.168,0.314,1.398,1.566,2.667,1.779c-0.18-2.582-1.385-2.307-1.778-6.225
			c5.898,1.78,0.939-8.631,4.446-4.446c-0.263-1.692,2.735-2.422,2.667-6.224c1.281-0.475,2.17,3.465,2.667,0.889
			c1.645,0.134,0.546,3.011,1.778,3.557C210.635,195.046,210.635,189.798,209.182,190.199z"/>
		<path fill-rule="evenodd" clip-rule="evenodd" d="M287.433,197.313c-1.221-2.027,2.292-3.343,0-3.557
			c2.214-3.775,1.663,6.535,3.557,0.889c1.7,1.852,0.203,3.75,0,5.335c3.527-1.403,1.151-3.181,3.557-5.335
			c6.387,2.092,4.293,3.162,8.003,5.335c-0.378,1.696-2.541,1.609-1.778,4.446c2.811-1.104,0.168-2.586,2.668-4.446
			c2.734,3.452,4.866,7.462,0,9.781c-3.054,0.876-3.172-3.596-5.336-4.446c0.279,0.11-5.315,0.387-8.002,0.889
			c-6.111,1.143-15.995,6.451-17.785,10.671c-4.022-0.578-4.033,0.599-4.445,1.778c-8.128-3.879,2.399-16.185,7.113-15.117
			C277.882,197.829,280.184,198.649,287.433,197.313z"/>
		<path fill-rule="evenodd" clip-rule="evenodd" d="M245.64,208.873c3.411-0.767,2.766,5.599,8.893,7.114
			c-7.692,2.877-15.051-7.091-11.561-16.006C245.647,204.234,247.452,204.686,245.64,208.873z"/>
		<path fill-rule="evenodd" clip-rule="evenodd" d="M258.978,211.54c0.327-1.513-0.693-1.678-1.778-1.778
			c-0.772-3.44,2.172-3.164,2.668-5.335c3.021,0.602,0.872,2.955-0.89,3.557c0.22,1.118,1.769,0.897,1.778,0
			C262.642,208.263,260.949,212.198,258.978,211.54c-0.163,0.756,0.347,0.839,0.89,0.889
			C260.342,215.005,256.402,211.065,258.978,211.54z"/>
		<path fill-rule="evenodd" clip-rule="evenodd" d="M300.771,230.213c6.794-3.459,10.037-13.08,8.893-3.557
			c-3.024,2.403-7.44,8.815-15.117,6.225c0.222-4.608-2.439-10.805-11.56-8.893c-5.588,1.172-7.179,8.636-12.449,9.781
			c0.125,2.544,3.709,1.626,6.225,1.778c1.59-3.101,3.169-5.462,3.557-6.224c1.377-1.224,5.338-1.79,6.225-0.889
			c1.875,2.411-2.017,2.213,0,5.335c5.274-4.668,2.948,4.205,6.225,0c-2.166,7.299-14.48,4.617-21.341,3.558
			c-2.493-1.932-0.625-3.536-4.446-3.558c6.189-4.508,17.329-19.984,28.455-8.002c-0.28-9.723-22.453-7.754-22.23,0.889
			c-4.243-4.917,9.433-9.882,8.893-9.781C289.817,215.438,298.061,220.852,300.771,230.213z"/>
		<path fill-rule="evenodd" clip-rule="evenodd" fill="#F4E2CF" d="M335.45,222.21c1.979,1.753-1.767,6.517-1.779,8.893
			C330.019,229.289,333.854,225.592,335.45,222.21z"/>
		<path fill-rule="evenodd" clip-rule="evenodd" fill="#F4E2CF" d="M161.165,239.995c0.466,1.117,2.702,3.916,3.557,7.114
			c-8.108,5.802-4.95,18.859,2.667,23.119c2.209-5.02-10.787-12.077-1.778-16.006c0.676,3.3,1.514,3.302,1.778,8.003
			c4.021-0.871,0.578-4.867,0.889-7.114c0.124-0.89,2.65-4.549,2.668-4.445c-0.352-2.105-3.25-2.652-4.446-4.446
			c-2.404-3.604-2.044-9.809-6.225-13.338c-3.778,0.729-1.489,2.007-3.557,4.446c-3.887-3.104,1.34-10.609,3.557-13.339
			c18.75,15.222,8.997,44.545,8.003,62.245c-2.172-0.887-1.895-0.296-5.335-0.89c-3.474-3.393-3.479-16.511-2.668-18.673
			C155.079,260.562,155.679,245.22,161.165,239.995z"/>
		<path fill-rule="evenodd" clip-rule="evenodd" fill="#F4E2CF" d="M189.62,223.989c1.394,0.314-0.778,1.565,0.889,1.779
			c-1.532,0.839-1.456,3.287-4.446,2.667C186.665,226.369,189.018,226.055,189.62,223.989z"/>
		<path fill-rule="evenodd" clip-rule="evenodd" d="M306.995,237.328c1.009,0.168,0.494,0.892,0,0.889
			c1.724-0.463,8.108-1.213,9.781,4.446c-5.329-2.663-6.274-2.051-11.56-2.668C305.531,238.827,306.782,238.596,306.995,237.328z"/>
		<path fill-rule="evenodd" clip-rule="evenodd" d="M295.436,239.995c1.229,0.716-1.89,4.572-2.668,6.225
			c-4.205-0.262-16.124,2.562-19.562-1.778c-1.28-0.201-0.31-2.654-1.778-2.668c1.558-2.63,4.738,0.514,7.113,0
			c-1.066,1.168-0.346,1.398,0,2.668C284.93,245.745,293.492,243.479,295.436,239.995z"/>
		<path fill-rule="evenodd" clip-rule="evenodd" d="M297.214,276.453c-1.279,2.154-2.321,3.933-1.778,5.335
			c-0.395,1.292-0.781-0.09-1.778,0c0-0.593,0-1.186,0-1.778c0.593,0,1.186,0,1.778,0c-0.144-1.042-1.621-0.75-2.668-0.89
			C293.58,277.561,294.421,276.031,297.214,276.453z"/>
		<path fill-rule="evenodd" clip-rule="evenodd" d="M296.324,265.782c1.045,1.683-3.795,5.062-6.224,6.225
			c2.616,2.844,3.024-4.039,7.113-2.668c-0.921,2.341-3.525,2.995-4.446,5.336c1.977-0.691,3.468-1.868,6.225-1.778
			c-1.354,2.529-7.082,5.326-8.892,4.445c-0.61,1.503-2.473,5.53-1.779,8.003c-0.275,1.207-2.227,0.738-3.557,0.89
			c0.541-4.092-0.594-13.083-5.335-12.449c-2.845,0.381-3.73,5.817-8.893,8.893c-0.834,0.496-5.122,0.33-6.224,0.889
			c-5.322,2.697-4.169,5.367-10.671,4.446c-1.381-4.027-0.486-5.785,0-8.893c5.002-0.935,11.542-2.518,13.338-6.224
			c0.472,2.73,3.702,6.439,8.893,0c0.599-0.743-0.825-4.096,0-5.336c2.123-3.19,11.532-7.251,14.228-7.113
			c-3.244,1.499-5.542,3.944-8.003,6.225c2.773-0.211,7.853-5.767,13.338-6.225c-2.839,3.978-8.722,4.914-11.56,8.892
			c5.656,0.024,4.866-6.397,11.56-5.335c-3.345,0.806-3.755,4.544-8.003,4.446c0.547,0.792,1.075,1.59,0,1.778
			C290.442,270.81,293.28,265.811,296.324,265.782z"/>
		<path fill-rule="evenodd" clip-rule="evenodd" d="M278.54,263.114c1.471,1.457-0.793,3.72-3.557,3.558
			c2.176-2.098-1.327-1.654-0.889-4.446c4.103-1.232,5.506-5.165,10.67-5.335c-1.541,2.607-4.481,3.817-8.003,4.445
			c1.278,1.564,0.815,2.027-1.778,1.778c5.112,1.243,9.851-5.55,15.117-7.113c3.432,0.496-1.145,3.44,3.557,2.668
			c-0.22,0.966-1.769,0.603-1.778,1.778C284.205,256.89,284.448,263.703,278.54,263.114z"/>
		<path fill-rule="evenodd" clip-rule="evenodd" fill="#F4E2CF" d="M68.687,330.694c4.898-9.36,8.529-18.953,3.557-29.344
			c2.804-2.254,5.361-9.433,7.113-9.781c1.771-7.038,10.111-14.631,18.673-17.784c-0.92,2.34-3.526,2.995-4.446,5.335
			c2.751-0.936,4.665-1.521,6.225-5.335c7.593-0.518,8.793,2.434,17.784,1.778c-1.443,3.213-7.601,3.702-8.892,4.446
			c-3.562-1.144,0.244-1.839,0-4.446c-2.884,0.08-2.869,3.06-4.446,4.446c3.16,5.513,10.797,0.937,16.006-2.668
			c-2.159,14.256-18.057,10.704-27.565,12.449c0.602,0.983,2.955,4.612,3.557,2.668c0.406,7.345-8.037,11.655-15.117,16.005
			c1.229,2.585,4.107,1.869,5.335-0.889c0.258,4.043,1.792-2.133,4.446,0c0.102,9.986-11.404,11.752-16.895,13.338
			c4.535,5.831,9.956-0.587,16.895-2.667c2.053,2.688,1.409,8.075,2.667,11.56c12.26,1.415,14.78,10.852,25.787,11.56
			c-2.068,6.967,5.663,11.413,11.56,13.338c0.833-5.161-8.225-7.649-9.781-13.338c4.846,1.093,10.993,8.562,18.673,9.781
			c0.951-5.397-5.479-3.413-6.225-7.114c-1.009,0.17-0.494,0.893,0,0.89c-6.768-2.35-14.767-9.772-11.56-16.895
			c4.175,1.528,7.531,3.196,11.56-0.89c-6.92-3.157-9.875-10.28-16.005-14.228c-0.097-6.495,2.375-13.684,8.892-16.006
			c6.459,2.921,4.95,13.959,13.338,16.896c1.673,12.726-2.439,21.092,3.557,33.79c-7.379,13.568,5.621,25.947,1.778,40.903
			c-1.972,0.489-1.266-1.697-2.668-1.778c1.332,3.804,1.855,8.058-0.889,13.338c-2.567-2.229-1.959-7.138-4.446-9.781
			c-3.663,2.641,4.43,6.886,1.778,14.228c-1.77-2.012-1.444-8.425-5.335-10.671c-0.098,2.69,4.652,10.206,2.668,15.117
			c-3.53-0.406,0.531-9.586-4.446-10.671c2.328,2.113,1.348,9.238,1.778,10.671c-3.036,2.688-0.447-7.813-3.557-8.003
			c-0.104,1.858,0.961,7.465,0,10.67c4.43,0.477,1.278,2.569,6.225,2.668c-4.635,18.756-1.125,28.658-12.449,42.682
			c-0.982-6.22,2.382-12.616,3.557-17.784c-6.107,2.785-5.985,11.8-9.781,16.896c1.078,2.772-0.475,3.826,1.778,6.225
			c-7.895,11.057-28.257,10.891-32.901,2.667c0.773-2.626,1.332,2.063,3.557,0.89c3.16-4.208,2.883-9.931,0-11.56
			c-0.317,0.088,7.254-0.191,6.224,3.557c2.097-1.145,1.654,0.116,4.446-0.89c0.187-1.521-1.516-2.303,0-2.667
			c-4.569,0.411-11.491-2.816-14.228-8.893c14.481,3.62,33.478-3.733,34.679-19.562c-1.645,0.134-0.546,3.012-1.778,3.557
			c-1.645-0.134-0.546-3.012-1.778-3.557c-1.963,2.467-2.053,4.159-2.668,6.225c-2.448-1.104-1.367-2.586-0.889-4.446
			c-3.598,1.787-2.344,5.294-5.335,8.893c-1.604-4.13,0.435-8.979,0.889-14.228c-4.854,3.225-4.461,11.175-0.889,15.116
			c-3.017,3.329-5.287,3.665-9.782,3.557c0.369-5.394,0.571-11.953,3.557-16.005c2.12,4.548-3.414,9.606-0.889,15.116
			c3.415-6.565,2.25-12.389,5.335-18.674c-0.889-1.481-4.112-0.629-4.446-2.667c-2.788,0.176-0.111,5.816-3.557,5.335
			c0.602-2.096,0.991-5.722,2.668-8.893c-6.007,1.325-4.371,9.286-5.335,13.339c-1.011,4.246-4.916,8.406-1.778,13.338
			c2.508-7.296-0.146-10.752,4.446-16.895c1.373,4.859-3.094,10.954-1.778,17.784c-4.494,0.011-11.758,0.826-13.338-5.336
			c3.177,0.38,2.968,4.145,7.114,3.557c1.326-8.703,4.3-18.859,5.335-27.565c-5.923,6.049-2.708,10.514-6.224,20.452
			c-4.926-3.95,4.473-16.102,2.667-22.23c-3.213-0.249-2.033,3.895-3.557,5.336c-1.257-0.967-0.262-3.633,0.89-6.225
			c-1.331-1.008-3.711-1.189-4.446,0.889c-2.292-0.214,1.221-1.53,0-3.557c-6.675,1.692-3.949,8.94-5.335,16.896
			c-7.903-4.993,1.062-11.828,0.889-18.674c-6.665,2.899-1.15,12.141-8.892,14.228c-2.584-4.178-5.039-6.253-10.671-12.449
			c2.784-5.175,3.138-8.761,4.446-14.228c-3.377,2.22-3.315,6.37-4.446,12.449c-7.024-2.516,2.508-10.007,0-13.338
			c-2.886,2.486-2.989,4.885-3.557,8.003c-4.398-0.642-4.193-5.885-7.114-8.003c0.528-4.215,0.728-8.757,2.667-11.56
			c-4.066,0.946-3.627,6.049-4.446,8.003c-2.514-2.904,0.962-9.08,2.667-14.228c-4.058,0.388-3.543,5.349-5.335,8.003
			c-4.192-1.922,0.646-5.07,0.889-9.781c-1.549,2.007-2.753,4.36-4.446,6.224c-5.184-3.203-2.667-10.26-8.892-8.002
			c0.907-1.168,0.872-3.278,1.778-4.446c-2.787-0.416-2.506,2.236-3.557,3.557c-2.63-1.558,0.514-4.738,0-7.113
			c-2.281,0.09-1.429,3.313-2.667,4.445c-2.606-0.753,0.531-2.862,0-4.445c-1.521-0.039-2.303,0.66-2.668,1.778
			c-1.035-1.435,1.407-4.521-3.557-2.668c-1.672-2.835,1.925-5.42-1.778-6.225c0.765-0.717,0.528-2.436,1.778-2.667
			c-2.507-1.528-2.063-1.103-2.667-3.558c-0.792,0.395-1.59,0.781-1.778,1.778c-2.689-1.346,0.737-3.902,0-6.224
			c-2.877-1.099-0.68,2.877-3.557,1.778c2.548-4.66-5.976-4.702-2.667-12.449c-3.03-4.973-7.085-8.921-9.781-14.228
			c12.273-12.421,16.124,6.447,26.676,19.562c4.748,5.9,8.688,7.928,10.67,15.117c-0.833,3.908-4.391,5.095-3.557,10.67
			c4.318-3.969,7.935-12.42,9.781-16.006c-1.478-1.922-2.388,3.534-5.335,0.89c1.679-2.751,1.314-4.897,1.778-7.114
			c-2.172-2.254-1.895,1.875-5.335,0.89c0.602-2.065,2.955-2.38,3.557-4.446c-2.204-2.999-2.951,2.907-6.225,1.778
			c0.498-2.467,3.06-2.868,3.557-5.335c-0.553-0.401-3.715-0.168-3.557,1.778c-4.876-0.583,4.292-3.278,0.889-5.335
			c-2.739-0.665-1.083,3.065-4.446,1.778c0.463-1.315,1.315-2.241,1.778-3.557c-2.607,0.839-3.302,1.33-4.446,1.778
			c-1.945-0.602,1.685-2.955,2.667-3.557c-0.144-1.042-1.621-0.751-2.667-0.89c4.209-12.361,1.924-25.812,8.003-37.347
			c3.478-6.6,12.42-7.727,14.227-16.006c3.074,1.973,4.779-3.746,6.225-6.225c2.837-0.762,2.75,1.4,4.446,1.778
			c2.352,14.432-8.068,27.749-16.895,25.787c1.723,4.2,5.946,1.927,8.003,4.446c0.956,12.578-9.222,23.77-18.673,17.784
			c1.445,7.305,9.485,3.681,15.117,1.778c4.132,4.103,3.689,13.067,4.446,16.006c1.559-0.812,3.089-1.653,2.668-4.446
			C60.037,336.567,65.103,331.62,68.687,330.694z M59.795,389.382c-2.947,0.352-4.621,6.591-2.667,8.892
			C58.122,395.416,59.561,393.001,59.795,389.382z M82.025,344.921c2.54-1.996,11.169-13.985,8.003-18.674
			C88.917,334.487,81.702,337.307,82.025,344.921z M90.028,360.927c1.903-4.068,0.51-8.002,0.889-11.56
			c0.747-7,4.806-13.27,3.557-17.784C90.572,339.456,86.175,351.349,90.028,360.927z M104.255,344.032
			c0.239-1.523,1.897-3.496-0.889-3.557c-1.752,1.341-3.307,8.863,0,9.781c0.014-2.357-0.493-5.236,1.778-5.335
			c0.576,4.166-1.163,10.648,0.889,13.338c0.349-7.377,1.018-11.747,0.889-16.895C105.974,342.194,106.646,344.644,104.255,344.032z
			 M110.48,364.484c-1.451-9.907,0.59-11.668-0.889-20.452C108.105,352.216,106.353,357.545,110.48,364.484z M108.702,381.379
			c-2.451,0.276,2.806,4.702,3.557,1.778c-10.767-11.171-12.887-25.648-18.673-36.458C91.604,359.934,99.711,373.15,108.702,381.379
			z M115.815,373.376c-2.534-6.998-1.582-19.183-3.557-24.898C111.894,357.472,109.631,363.551,115.815,373.376z M54.46,366.262
			c4.048-0.422,7.898-5.703,7.113-8.003C59.417,361.142,55.784,362.547,54.46,366.262z M56.238,370.708
			c1.533-2.913,4.691-4.2,6.224-7.113C58.758,363.774,54.259,367.8,56.238,370.708z M125.597,379.6
			c-0.961-3.919-2.837-9.165-3.557-10.67C120.636,371.929,121.871,378.879,125.597,379.6z M116.704,361.816
			c0.193,7.705,0.715,17.947,5.335,15.117C118.016,371.822,120.013,364.144,116.704,361.816z M128.264,410.723
			c1.08-5.768-0.829-10.301-3.557-13.339c-11.518-12.823-37.086-17.562-45.35-33.789C87.318,387.15,120.502,387.61,128.264,410.723z
			 M59.795,375.155c2.016,2.029,3.231-1.282,3.557-3.557C61.089,371.707,59.903,372.891,59.795,375.155z M60.684,368.041
			c-0.679,2.582-4.214,2.307-3.557,6.225C59.602,373.647,64.059,369.027,60.684,368.041z M129.153,379.6
			c0.034-2.179-1.366-7.431-2.667-5.335C127.352,374.818,126.095,379.048,129.153,379.6z M54.46,393.828
			c0.521-2.506,4.682-9.642,0.889-10.67C55.428,386.737,50.283,391.725,54.46,393.828z M142.491,393.828
			c-0.638,0.287-0.619-7.581-3.557-4.445C141.216,390.535,139.627,395.524,142.491,393.828z M66.02,408.945
			c1.354-2.386,5.072-10.571,0.889-10.671C69.153,400.403,63.061,405.448,66.02,408.945z M68.687,412.501
			c4.732-1.939,3.013-8.188,4.446-11.56c-0.593,0-1.186,0-1.779,0c-0.542,0.05-1.052,0.133-0.889,0.889
			C72.431,403.52,68.604,407.699,68.687,412.501z M74.022,416.058c-0.122-2.885,5.108-10.342,0.889-13.338
			C76.243,407.362,69.991,412.382,74.022,416.058z M128.264,430.286c2.949-0.546,4.103-6.164,3.557-8.893
			C131.051,424.773,127.803,425.674,128.264,430.286z M119.372,437.399c0.715,4.908-8.763,6.941-4.446,9.781
			c1.471-1.492,0.708-5.221,4.446-4.445C118.408,440.457,122.073,438.495,119.372,437.399z M116.704,448.07c0.593,0,1.186,0,1.779,0
			c0.542-0.051,1.052-0.133,0.889-0.89c-0.939-1.532,3.309-4.691,1.778-6.225C120.25,443.909,116.229,443.741,116.704,448.07z"/>
		<path fill-rule="evenodd" clip-rule="evenodd" d="M277.651,280.898c3.192,2.739,0.716,3.982,0,8.893
			c-5.241-0.2-8.929,8.026-10.671,9.781c-16.442,16.564-29.392,8.163-43.571-11.56c-3.195-0.491-5.906-0.28-6.225-5.335
			c8.18,0.724,16.02,2.811,23.12,6.224c0.163-0.756-0.347-0.839-0.89-0.889C250.523,293.651,265.612,287.783,277.651,280.898z
			 M245.64,291.569c-5.19-0.852-13.97-3.015-12.449,1.778c12.968,3.565,25.411,6.521,37.347-3.557
			c-1.667-0.213,0.505-1.464-0.889-1.778C263.684,292.991,253.571,292.872,245.64,291.569z M258.978,300.461
			c-3.984,1.832-14.959-0.177-18.673-0.89c-1.552,1.813,0.662,1.744-0.89,3.557C249.312,302.875,255.16,307.615,258.978,300.461z"/>
		<path fill-rule="evenodd" clip-rule="evenodd" fill="#FFFFFF" d="M269.648,288.012c1.394,0.314-0.778,1.565,0.889,1.778
			c-11.936,10.078-24.379,7.122-37.347,3.557c-1.521-4.793,7.259-2.63,12.449-1.778
			C253.571,292.872,263.684,292.991,269.648,288.012z"/>
		<path fill-rule="evenodd" clip-rule="evenodd" fill="#FFFFFF" d="M250.975,376.933c-9.525,4.099-23.803-7.906-32.011-10.671
			c-5.82-1.961-11.683-2.361-14.228-3.557c-12.691-5.912-37.51,2.911-48.906-4.446c-4.528-2.923-4.197-9.588-8.892-7.113
			c3.952,28.34,46.441,15.498,66.69,19.562c3.079,2.982,4.208,6.973,6.225,8.892c-10.07,3.074-24.637,0.144-36.458,4.446
			c12.471,5.118,27.114-5.415,48.017,3.557c-28.088,9.373-58.558,5.963-85.364-14.227c-2.604-15.261-1.341-33.482-2.667-51.574
			c-0.553-7.542-2.929-16.395,5.335-16.896c-0.46,22.697,3.008,42.105,20.452,40.015c-9.17-10.232-8.129-22.075-8.002-39.125
			c4.472-1.451,3.012-4.859,5.335-7.114c4.095,7.232,4.043,19.64,8.892,27.565c1.883,3.079,4.737,4.324,5.335,8.003
			c5.777,2.522,9.729,6.87,14.227,10.671c1.009-0.169,0.494-0.892,0-0.89c10.69,9.461,34.552,11.197,45.35,19.563
			C244.013,366.467,247.541,372.136,250.975,376.933z"/>
		<path fill-rule="evenodd" clip-rule="evenodd" fill="#FFFFFF" d="M239.415,303.128c1.552-1.812-0.662-1.743,0.89-3.557
			c3.714,0.713,14.688,2.722,18.673,0.89C255.16,307.615,249.312,302.875,239.415,303.128z"/>
		<path fill-rule="evenodd" clip-rule="evenodd" d="M266.092,308.463c2.493,4.276-2.265,3.279-3.558,4.446
			c-0.204,0.186-0.02,2.919-0.889,3.557c-5.209,3.826-19.55,6.373-24.898,0c-0.514-0.612,0.073-3.935-0.889-4.445
			c-2.184-1.159-1.41,3.934-3.557,0.889c-0.571-0.811,1.694-3.515,0-4.446c-2.009,0.498,1.078,1.388-0.89,2.668
			c-1.988-0.383-0.36-4.383-0.889-6.225c6.457,0.657,7.243,6.983,12.448,8.893c1.014-0.211,0.488-0.839,0-0.89
			C249.864,313.616,263.878,313.871,266.092,308.463z"/>
		<path fill-rule="evenodd" clip-rule="evenodd" fill="#FFFFFF" d="M114.037,315.578c2.981,0.279,0.897,5.624,3.557,6.225
			C115.539,324.282,112.15,317.187,114.037,315.578z"/>
		<path fill-rule="evenodd" clip-rule="evenodd" d="M106.923,341.365c0.129,5.147-0.541,9.518-0.889,16.895
			c-2.052-2.689-0.313-9.172-0.889-13.338c-2.271,0.099-1.765,2.978-1.778,5.335c-3.307-0.918-1.752-8.44,0-9.781
			c2.786,0.061,1.128,2.033,0.889,3.557C106.646,344.644,105.974,342.194,106.923,341.365z"/>
		<path fill-rule="evenodd" clip-rule="evenodd" d="M266.092,377.822c1.009,0.17,0.494,0.893,0,0.89
			c15.032-5.05,29.156-27.353,43.571-22.23c-1.398,9.34-11.579,14.414-19.562,14.228c1.581-1.976,3.968-3.146,7.113-3.557
			c-1.552-1.813,0.662-1.744-0.89-3.557c-11.519,6.579-20.979,15.802-33.79,18.673C263.137,380.203,265.489,379.888,266.092,377.822
			z"/>
		<path fill-rule="evenodd" clip-rule="evenodd" d="M61.573,358.259c0.785,2.3-3.065,7.581-7.113,8.003
			C55.784,362.547,59.417,361.142,61.573,358.259z"/>
		<path fill-rule="evenodd" clip-rule="evenodd" fill="#FFFFFF" d="M254.532,374.265c1.045-1.908-6.132-2.208-3.558-5.335
			c-6.065,0.363-3.616-5.96-8.003-5.335c10.734-1.182,21.139,1.367,33.79-3.558C271.212,367.029,258.294,373.394,254.532,374.265z"
			/>
		<path fill-rule="evenodd" clip-rule="evenodd" d="M122.04,368.93c0.72,1.505,2.596,6.751,3.557,10.67
			C121.871,378.879,120.636,371.929,122.04,368.93z"/>
		<path fill-rule="evenodd" clip-rule="evenodd" d="M126.486,374.265c1.301-2.096,2.702,3.156,2.667,5.335
			C126.095,379.048,127.352,374.818,126.486,374.265z"/>
		<path fill-rule="evenodd" clip-rule="evenodd" d="M138.935,389.382c2.938-3.136,2.918,4.732,3.557,4.445
			C139.627,395.524,141.216,390.535,138.935,389.382z"/>
		<path fill-rule="evenodd" clip-rule="evenodd" d="M66.909,398.274c4.183,0.1,0.464,8.285-0.889,10.671
			C63.061,405.448,69.153,400.403,66.909,398.274z"/>
		<path fill-rule="evenodd" clip-rule="evenodd" fill="#FFFFFF" d="M259.867,418.726c0.144-1.033-0.196-1.582-0.89-1.778
			c4.414-3.579,4.555-9.562,8.893-15.117c1.784,5.643-2.568,9.192-1.778,13.338c2.877,15.101,9.487,30.084,8.892,45.351
			c-0.365,9.36-1.915,23.67-6.225,33.789c-3.742,8.789-6.826,19.104-15.116,25.787c0.052-11.83-9.578-21.634-10.671-34.679
			c16.966-14.648,28.554-41.642,22.23-58.688c-0.992-2.677-4.07-4.252,1.778-7.114C266.318,417.609,261.993,419.268,259.867,418.726
			z"/>
		<path fill-rule="evenodd" clip-rule="evenodd" fill="#F4E2CF" d="M84.693,412.501c1.052,3.75,1.11,9.947-0.889,15.116
			C80.344,423.343,83.738,417.192,84.693,412.501z"/>
		<path fill-rule="evenodd" clip-rule="evenodd" fill="#F4E2CF" d="M88.25,417.836c2.202,1.634-1.54,7.485-0.889,10.671
			C83.856,428.862,87.552,420.616,88.25,417.836z"/>
		<path fill-rule="evenodd" clip-rule="evenodd" d="M119.372,442.735c-3.739-0.775-2.975,2.953-4.446,4.445
			c-4.316-2.84,5.161-4.873,4.446-9.781C122.073,438.495,118.408,440.457,119.372,442.735z"/>
		<path fill-rule="evenodd" clip-rule="evenodd" d="M121.15,440.956c1.53,1.533-2.718,4.692-1.778,6.225
			c0.163,0.757-0.347,0.839-0.889,0.89c-0.593,0-1.186,0-1.779,0C116.229,443.741,120.25,443.909,121.15,440.956z"/>
		<path fill-rule="evenodd" clip-rule="evenodd" d="M53.57,488.973c-3.425-3.096-7.221-5.82-9.781-9.781
			c9.066-13.163,15.204-29.257,28.455-38.236c2.393,6.011-2.467,12.349-2.668,16.896C63.897,462.612,61.604,478.411,53.57,488.973z"
			/>
		<path fill-rule="evenodd" clip-rule="evenodd" d="M221.631,235.548c1.589-1.104-0.69-2.586,0.89-4.445
			c2.77,0.787,0.676,6.438,6.225,4.445c-7.759,5.327-13.582,4.768-21.342-0.889c0.979-2.743,5.184,0.451,4.446-5.335
			c2.014,1.917,6.692-2.993,9.781,0c-0.214,1.564-1.53,2.027-3.557,1.779C218.676,233.168,221.029,233.483,221.631,235.548z"/>
	</g>
</g>
</svg>
