<svg style="transform: fit(0 0 792 612)"     >
<!-- Creator: Aladdin Ghostscript 510 (svg) -->
<!-- CreationDate: 1999/08/19 21:54:11 -->
<!-- Page: 1 1 -->

<path id="p0" style="fill:none; stroke-miterlimit:10;" d="M0 0 L792 0 L792 612 L0 612 "/>
<rect style="fill:#ffffff; stroke:none" x="549" y="423" width="108" height="36"/>
<!-- image data -->
<!-- image data -->
<!-- image data -->
<!-- image data -->
<path id="p1" style="fill:#0000ff; stroke-miterlimit:10;" fillrule="evenodd" d="M216 202.92 L216 186.48 L216.36 184.68 L217.44 183.24 L219 182.16 L220.68 181.8 L253.56 181.8 L255.24 182.16 L256.8 183.24 L257.76 184.68 L258.24 186.48 L258.24 219.24 L257.76 221.04 L256.8 222.48 L255.24 223.56 L253.56 223.92 L220.68 223.92 L219 223.56 L217.44 222.48 L216.36 221.04 L216 219.24 L216 202.92 "/>
<path id="p2" style="fill:#ffffff; stroke-miterlimit:10;" fillrule="evenodd" d="M229.08 195.96 L229.08 185.04 L230.4 184.2 L231.48 183.84 L232.56 183.72 L233.52 183.84 L234.36 184.2 L234.96 184.68 L235.8 186.12 L236.04 187.8 L235.56 189.36 L235.08 190.08 L234.24 190.56 L233.28 190.92 L232.08 191.04 L232.08 197.04 L241.08 197.04 L241.08 200.04 L232.08 200.04 L232.08 203.04 L244.08 203.04 L244.44 203.64 L246.6 208.08 L248.76 212.4 L249.12 213 L249.36 213 L250.56 212.52 L251.88 212.04 L252.12 212.04 L252.24 212.16 L252.6 213.48 L253.08 214.8 L253.08 215.04 L252.72 215.16 L250.08 216 L247.44 216.96 L247.08 217.08 L246.84 216.36 L244.56 212.04 L242.4 207.6 L242.16 207 L229.08 207 L229.08 195.96 "/>
<path id="p3" style="fill:#ffffff; stroke-miterlimit:10;" fillrule="evenodd" d="M242.76 210.36 L244.32 213.36 L244.08 213.96 L243.48 215.04 L242.76 216.12 L242.04 217.08 L240.12 218.76 L239.16 219.48 L236.76 220.44 L235.56 220.8 L234.36 220.92 L233.04 221.04 L230.64 220.8 L229.44 220.44 L227.04 219.48 L226.08 218.76 L225 217.92 L224.16 217.08 L223.32 216.12 L222.12 213.96 L221.64 212.76 L221.4 211.56 L221.16 210.24 L221.04 209.04 L221.16 207.72 L221.64 205.32 L222.12 204.12 L223.32 201.96 L225 200.04 L226.08 199.32 L227.04 198.6 L228.24 198 L228.24 200.52 L226.56 201.72 L225.84 202.44 L224.64 204.12 L224.16 205.08 L223.8 206.04 L223.56 207 L223.44 207.96 L223.32 209.04 L223.44 210 L223.56 211.08 L223.8 212.04 L224.16 213 L224.64 213.96 L225.24 214.8 L225.84 215.52 L226.56 216.24 L227.4 216.96 L229.08 217.92 L230.04 218.28 L231.12 218.52 L232.08 218.76 L234.12 218.76 L235.08 218.52 L236.16 218.28 L237.12 217.92 L238.8 216.96 L239.64 216.24 L240.36 215.52 L240.96 214.8 L241.56 213.96 L242.04 213 L242.4 212.04 L242.64 211.08 L242.76 210.36 "/>
<path id="p4" style="fill:#0000ff; stroke-miterlimit:10;" fillrule="evenodd" d="M312.6 223.44 L312.6 207.36 L309.96 210 L307.32 210 L324.72 192.48 L328.8 196.56 L328.8 191.16 L332.88 191.16 L332.88 200.64 L342.24 210 L339.6 210 L336.84 207.36 L336.84 223.44 L348.96 223.44 L347.64 227.52 L279 227.52 L279 223.44 L291.12 223.44 L291.12 208.68 L283.08 211.44 L285.72 207.36 L281.64 208.68 L286.2 199.32 L281.64 201.96 L288.36 192.48 L283.08 195.24 L289.8 184.44 L284.4 187.2 L289.8 179.04 L287.04 179.04 L293.76 171 L300.48 179.04 L296.52 179.04 L303.24 187.2 L296.52 184.44 L304.56 193.92 L299.16 192.48 L305.88 200.64 L301.92 199.32 L305.88 207.36 L300.48 206.04 L304.56 211.44 L296.52 208.68 L296.52 223.44 L312.6 223.44 "/>
<rect style="fill:#ffffff; stroke:none" x="316.68" y="211.44" width="5.3999" height="10.6799"/>
<rect style="fill:#ffffff; stroke:none" x="328.8" y="211.44" width="4.07983" height="5.27979"/>
<path id="p5" style="fill:#0000ff; stroke-miterlimit:10;" fillrule="evenodd" d="M368.52 216.96 L380.04 216.96 L380.04 214.08 L380.28 210 L380.88 206.04 L381.6 202.08 L381.96 197.76 L381.84 194.28 L381.48 191.04 L380.88 188.04 L379.8 185.52 L379.08 184.44 L378.12 183.48 L377.16 182.76 L375.96 182.04 L373.08 181.44 L369.48 181.56 L368.28 181.92 L367.2 182.52 L366.12 183.48 L365.28 184.68 L363.84 187.68 L362.88 191.16 L362.4 194.76 L362.52 198.24 L363.24 201.24 L363.96 202.56 L364.68 203.52 L365.88 204.96 L366.72 206.52 L367.56 209.88 L368.52 216.96 "/>
<path id="p6" style="fill:#0000ff; stroke-miterlimit:10;" d="M368.52 216.96 L380.04 216.96 L380.04 214.08 L380.28 210 L380.88 206.04 L381.6 202.08 L381.96 197.76 L381.84 194.28 L381.48 191.04 L380.88 188.04 L379.8 185.52 L379.8 185.64 L379.08 184.56 L378.12 183.6 L377.16 182.88 L375.96 182.16 L373.08 181.56 L369.48 181.68 L368.28 182.04 L367.2 182.64 L367.32 182.64 L366.24 183.6 L365.4 184.8 L365.4 184.68 L363.96 187.68 L363 191.16 L362.52 194.76 L362.64 198.24 L363.36 201.24 L364.08 202.56 L364.8 203.52 L366 204.96 L366.84 206.52 L367.68 209.88 L368.64 216.96 L368.52 216.96 L367.56 209.88 L366.72 206.52 L365.88 204.96 L365.88 205.08 L364.68 203.64 L363.96 202.68 L363.96 202.56 L363.24 201.24 L362.52 198.24 L362.4 194.76 L362.88 191.16 L363.84 187.68 L365.28 184.68 L366.12 183.48 L367.2 182.52 L368.28 181.92 L369.48 181.56 L373.08 181.44 L375.96 182.04 L376.08 182.04 L377.28 182.76 L378.24 183.48 L379.2 184.44 L379.92 185.52 L381 188.04 L381.6 191.04 L381.96 194.28 L382.08 197.76 L381.72 202.08 L381 206.04 L380.4 210 L380.16 214.08 L380.16 216.96 L380.04 217.08 L368.52 217.08 L368.52 216.96 "/>
<path id="p7" style="fill:#0000ff; stroke-miterlimit:10;" d="M368.64 216.96 L368.52 216.96 L368.52 217.08 L368.52 216.96 L368.64 216.96 "/>
<path id="p8" style="fill:#0000ff; stroke-miterlimit:10;" fillrule="evenodd" d="M366.6 218.88 L380.04 218.88 L380.04 226.44 L378.96 228.36 L377.4 229.68 L375.48 230.52 L373.32 230.76 L371.16 230.52 L369.24 229.68 L367.68 228.36 L366.6 226.44 L366.6 218.88 "/>
<path id="p9" style="fill:#0000ff; stroke-miterlimit:10;" d="M366.6 218.88 L380.16 218.88 L380.16 226.44 L379.08 228.36 L379.08 228.48 L377.52 229.8 L377.4 229.8 L375.48 230.64 L373.32 230.88 L371.16 230.64 L369.24 229.8 L367.68 228.48 L367.68 228.36 L366.6 226.44 L366.6 218.88 L366.72 218.88 L366.72 226.44 L367.8 228.36 L369.36 229.68 L369.24 229.68 L371.16 230.52 L373.32 230.76 L375.48 230.52 L377.4 229.68 L378.96 228.36 L380.04 226.44 L380.04 218.88 L380.04 219 L366.6 219 L366.6 218.88 "/>
<path id="p10" style="fill:#0000ff; stroke-miterlimit:10;" d="M366.6 218.88 L366.6 219 L366.72 218.88 L366.6 218.88 "/>
<path id="p11" style="fill:#0000ff; stroke-miterlimit:10;" fillrule="evenodd" d="M436.32 226.68 L436.56 226.56 L437.88 225.24 L439.08 223.92 L439.32 223.8 L439.08 223.56 L437.88 222.24 L436.56 221.04 L436.32 220.8 L437.76 218.52 L438.84 216.12 L439.68 213.48 L440.28 210.84 L440.64 208.2 L440.64 205.56 L440.4 203.04 L439.92 200.52 L439.2 198.24 L438 196.08 L436.68 194.16 L434.88 192.48 L432.84 191.16 L430.44 190.2 L427.68 189.6 L424.56 189.48 L421.56 189.6 L418.8 190.2 L416.4 191.16 L414.36 192.48 L412.56 194.16 L411.12 196.08 L410.04 198.24 L409.2 200.52 L408.72 203.04 L408.48 205.56 L408.6 208.2 L408.96 210.84 L409.56 213.48 L410.4 216.12 L411.48 218.52 L412.8 220.8 L412.68 221.04 L411.36 222.24 L410.04 223.56 L409.92 223.8 L412.8 226.68 L413.16 226.32 L415.8 223.8 L418.32 221.16 L418.68 220.8 L416.76 217.44 L415.32 213.48 L414.6 209.28 L414.72 205.08 L414.96 203.16 L415.56 201.36 L416.4 199.68 L417.48 198.24 L418.8 197.04 L420.48 196.08 L422.4 195.48 L424.56 195.36 L426.84 195.48 L428.76 196.08 L430.32 197.04 L431.76 198.24 L432.84 199.68 L433.56 201.36 L434.16 203.16 L434.52 205.08 L434.52 209.28 L433.8 213.48 L432.48 217.44 L430.44 220.8 L436.32 226.68 "/>
<path id="p12" style="fill:#0000ff; stroke-miterlimit:10;" fillrule="evenodd" d="M450 208.2 L452.52 205.32 L455.28 202.8 L458.28 200.64 L461.4 198.84 L464.64 197.4 L468.12 196.44 L471.6 195.84 L475.08 195.72 L478.68 195.84 L482.16 196.44 L485.52 197.4 L488.88 198.84 L492 200.64 L495 202.8 L497.76 205.32 L500.28 208.2 L497.76 211.2 L495 213.72 L492 215.88 L488.88 217.68 L485.52 219 L482.16 220.08 L478.68 220.56 L475.08 220.8 L471.6 220.56 L468.12 220.08 L464.64 219 L461.4 217.68 L458.28 215.88 L455.28 213.72 L452.52 211.2 L450 208.2 "/>
<path id="p13" style="fill:#ffffff; stroke-miterlimit:10;" fillrule="evenodd" d="M457.32 208.2 L459.12 206.4 L461.04 204.84 L463.2 203.4 L465.36 202.32 L467.76 201.48 L470.16 200.88 L472.68 200.52 L475.08 200.4 L477.6 200.52 L480.12 200.88 L482.52 201.48 L484.92 202.32 L487.08 203.4 L489.24 204.84 L491.16 206.4 L492.96 208.2 L491.16 210.12 L489.24 211.68 L487.08 213 L484.92 214.08 L482.52 215.04 L480.12 215.64 L477.6 216 L475.08 216.12 L472.68 216 L470.16 215.64 L467.76 215.04 L465.36 214.08 L463.2 213 L461.04 211.68 L459.12 210.12 L457.32 208.2 "/>
<path id="p14" style="fill:#0000ff; stroke-miterlimit:10;" fillrule="evenodd" d="M483.48 208.2 L483.36 206.52 L482.88 204.96 L482.04 203.52 L481.08 202.32 L479.76 201.24 L478.44 200.52 L476.88 200.04 L475.08 199.92 L473.4 200.04 L471.84 200.52 L470.4 201.24 L469.2 202.32 L468.24 203.52 L467.4 204.96 L466.92 206.52 L466.8 208.2 L466.92 209.88 L467.4 211.56 L468.24 212.88 L469.2 214.2 L470.4 215.16 L471.84 216 L473.4 216.48 L475.08 216.6 L476.88 216.48 L478.44 216 L479.76 215.16 L481.08 214.2 L482.04 212.88 L482.88 211.56 L483.36 209.88 L483.48 208.2 "/>
<path id="p15" style="fill:#0000ff; stroke-miterlimit:10;" fillrule="evenodd" d="M251.76 276 L232.92 243 L214.08 276 L207 276 L207 280.68 L258.84 280.68 L258.84 276 L224.64 276 L232.92 260.64 L241.2 276 L251.76 276 "/>
<path id="p16" style="fill:#0000ff; stroke-miterlimit:10;" fillrule="evenodd" d="M327.84 234.24 L317.4 258.48 L326.16 258.48 L326.16 282.84 L315.72 282.84 L312.24 277.56 L322.68 277.56 L322.68 274.08 L310.56 274.08 L315.72 267.24 L319.2 267.24 L319.2 263.76 L291.48 263.76 L291.48 267.24 L294.96 267.24 L300.12 274.08 L289.68 274.08 L289.68 277.56 L298.44 277.56 L294.96 282.84 L301.92 282.84 L305.28 277.56 L305.28 272.4 L301.92 267.24 L308.76 267.24 L305.28 272.4 L305.28 277.56 L308.76 282.84 L288 282.84 L288 288 L338.28 288 L338.28 282.84 L329.64 282.84 L329.64 258.48 L338.28 258.48 L327.84 234.24 "/>
<path id="p17" style="fill:#0000ff; stroke-miterlimit:10;" fillrule="evenodd" d="M373.56 272.04 L372.72 271.2 L375.24 268.92 L377.76 266.88 L380.28 265.08 L382.8 263.76 L385.32 262.56 L387.84 261.84 L390.36 261.36 L392.88 261.24 L395.4 261.36 L397.92 261.84 L400.44 262.56 L402.84 263.76 L405.36 265.08 L407.88 266.88 L410.4 268.92 L412.92 271.2 L413.52 270.72 L417.96 267 L422.4 263.4 L423 262.92 L422.76 263.52 L421.32 267.84 L419.88 272.28 L419.64 272.88 L421.32 277.92 L422.76 282.36 L423 282.96 L422.4 282.48 L417.96 278.76 L413.52 275.16 L412.92 274.56 L410.4 276.96 L407.88 279 L405.36 280.68 L402.84 282.12 L400.44 283.2 L397.92 284.04 L395.4 284.52 L392.88 284.64 L390.36 284.52 L387.84 284.04 L385.32 283.2 L382.8 282.12 L380.28 280.68 L377.76 279 L375.24 276.96 L372.72 274.56 L374.4 272.88 L373.56 272.04 "/>
<path id="p18" style="fill:#0000ff; stroke-miterlimit:10;" fillrule="evenodd" d="M495 267.96 L494.64 264 L493.44 260.16 L491.64 256.8 L489.12 253.8 L486.24 251.4 L482.76 249.6 L479.04 248.4 L474.96 248.04 L471 248.4 L467.16 249.6 L463.8 251.4 L460.8 253.8 L458.4 256.8 L456.6 260.16 L455.4 264 L455.04 267.96 L455.4 272.04 L456.6 275.76 L458.4 279.12 L460.8 282.12 L463.8 284.64 L467.16 286.44 L471 287.64 L474.96 288 L479.04 287.64 L482.76 286.44 L486.24 284.64 L489.12 282.12 L491.64 279.12 L493.44 275.76 L494.64 272.04 L495 267.96 "/>
<path id="p19" style="fill:#0000ff; stroke-miterlimit:10;" d="M495 267.96 L494.64 264 L493.44 260.16 L491.64 256.8 L491.64 256.92 L489.12 253.92 L486.24 251.52 L482.76 249.72 L479.04 248.52 L474.96 248.16 L471 248.52 L467.16 249.72 L463.8 251.52 L463.92 251.52 L460.92 253.92 L458.52 256.92 L458.52 256.8 L456.72 260.16 L455.52 264 L455.16 267.96 L455.52 272.04 L456.72 275.76 L458.52 279.12 L460.92 282.12 L463.92 284.64 L463.8 284.64 L467.16 286.44 L471 287.64 L474.96 288 L479.04 287.64 L482.76 286.44 L486.24 284.64 L489.12 282.12 L491.64 279.12 L493.44 275.76 L494.64 272.04 L495 267.96 L495.12 267.96 L494.76 272.04 L493.56 275.76 L491.76 279.12 L491.76 279.24 L489.24 282.24 L486.36 284.76 L486.24 284.76 L482.76 286.56 L479.04 287.76 L474.96 288.12 L471 287.76 L467.16 286.56 L463.8 284.76 L460.8 282.24 L458.4 279.24 L458.4 279.12 L456.6 275.76 L455.4 272.04 L455.04 267.96 L455.4 264 L456.6 260.16 L458.4 256.8 L460.8 253.8 L463.8 251.4 L467.16 249.6 L471 248.4 L474.96 248.04 L479.04 248.4 L482.76 249.6 L486.24 251.4 L486.36 251.4 L489.24 253.8 L491.76 256.8 L493.56 260.16 L494.76 264 L495.12 267.96 L495 267.96 "/>
<path id="p20" style="fill:#0000ff; stroke-miterlimit:10;" d="M495 267.96 L495.12 267.96 L495 267.96 "/>
<path id="p21" style="fill:#ffffff; stroke-miterlimit:10;" fillrule="evenodd" d="M460.8 272.76 L460.8 263.28 L470.28 263.28 L470.28 253.8 L479.76 253.8 L479.76 263.28 L489.12 263.28 L489.12 272.76 L479.76 272.76 L479.76 282.12 L470.28 282.12 L470.28 272.76 L460.8 272.76 "/>
<path id="p22" style="fill:#0000ff; stroke-miterlimit:10;" fillrule="evenodd" d="M546.84 183.84 L546.84 194.16 L548.52 194.16 L548.52 186.72 L552 194.16 L553.68 194.16 L553.68 183.84 L552.12 183.84 L552.12 191.16 L548.64 183.84 L546.84 183.84 "/>
<rect style="fill:#0000ff; stroke:none" x="546.84" y="183.84" width="0.23999" height="10.4399"/>
<rect style="fill:#0000ff; stroke:none" x="546.84" y="194.04" width="1.7998" height="0.23999"/>
<path id="p23" style="fill:#0000ff; stroke-miterlimit:10;" d="M548.52 194.16 L548.52 186.72 L548.64 186.72 L552.12 194.16 L552 194.28 L552 194.16 L548.52 186.72 L548.64 186.72 L548.64 194.16 L548.52 194.16 "/>
<rect style="fill:#0000ff; stroke:none" x="552" y="194.04" width="1.7998" height="0.23999"/>
<rect style="fill:#0000ff; stroke:none" x="553.68" y="183.84" width="0.23999" height="10.3198"/>
<rect style="fill:#0000ff; stroke:none" x="552.12" y="183.72" width="1.55981" height="0.23999"/>
<path id="p24" style="fill:#0000ff; stroke-miterlimit:10;" d="M552.24 183.84 L552.24 191.16 L552.12 191.16 L548.64 183.84 L548.76 183.84 L552.24 191.16 L552.12 191.16 L552.12 183.84 L552.24 183.84 "/>
<rect style="fill:#0000ff; stroke:none" x="546.84" y="183.72" width="1.7998" height="0.23999"/>
<path id="p25" style="fill:#0000ff; stroke-miterlimit:10;" fillrule="evenodd" d="M578.76 217.32 L584.88 217.32 L584.88 218.88 L580.44 218.88 L580.44 221.52 L584.52 221.52 L584.52 222.96 L580.44 222.96 L580.44 225.96 L585 225.96 L585 227.52 L578.76 227.52 L578.76 217.32 "/>
<rect style="fill:#0000ff; stroke:none" x="578.76" y="217.2" width="6.23999" height="0.23999"/>
<rect style="fill:#0000ff; stroke:none" x="584.88" y="217.32" width="0.23999" height="1.67993"/>
<rect style="fill:#0000ff; stroke:none" x="580.44" y="218.76" width="4.43994" height="0.23999"/>
<rect style="fill:#0000ff; stroke:none" x="580.44" y="218.88" width="0.23999" height="2.75977"/>
<rect style="fill:#0000ff; stroke:none" x="580.44" y="221.4" width="4.19995" height="0.23999"/>
<rect style="fill:#0000ff; stroke:none" x="584.52" y="221.52" width="0.23999" height="1.55981"/>
<rect style="fill:#0000ff; stroke:none" x="580.44" y="222.84" width="4.07983" height="0.23999"/>
<rect style="fill:#0000ff; stroke:none" x="580.44" y="222.96" width="0.23999" height="3.11987"/>
<rect style="fill:#0000ff; stroke:none" x="580.44" y="225.84" width="4.67993" height="0.23999"/>
<rect style="fill:#0000ff; stroke:none" x="585" y="225.96" width="0.23999" height="1.67993"/>
<rect style="fill:#0000ff; stroke:none" x="578.76" y="227.4" width="6.23999" height="0.23999"/>
<rect style="fill:#0000ff; stroke:none" x="578.76" y="217.32" width="0.23999" height="10.2"/>
<path id="p26" style="fill:#0000ff; stroke-miterlimit:10;" fillrule="evenodd" d="M511.68 217.32 L513.48 217.32 L514.8 225 L516.12 217.32 L517.92 217.32 L519.24 225 L520.56 217.32 L522.24 217.32 L519.96 227.52 L518.52 227.52 L517.08 219.6 L515.64 227.52 L514.08 227.52 L511.68 217.32 "/>
<path id="p27" style="fill:#0000ff; stroke-miterlimit:10;" d="M511.68 217.32 L513.6 217.32 L514.92 225 L514.8 225 L516.12 217.32 L518.04 217.32 L519.36 225 L519.24 225 L520.56 217.32 L522.36 217.32 L520.08 227.52 L520.08 227.64 L518.52 227.64 L518.52 227.52 L517.08 219.6 L517.2 219.6 L515.76 227.52 L515.76 227.64 L514.08 227.64 L514.08 227.52 L515.64 227.52 L515.64 227.64 L515.64 227.52 L517.08 219.6 L517.2 219.6 L518.64 227.52 L518.52 227.52 L519.96 227.52 L519.96 227.64 L519.96 227.52 L522.24 217.32 L522.36 217.32 L522.24 217.44 L520.56 217.44 L520.56 217.32 L520.68 217.32 L519.36 225 L519.24 225 L517.92 217.32 L518.04 217.32 L517.92 217.44 L516.12 217.44 L516.12 217.32 L516.24 217.32 L514.92 225 L514.8 225 L513.48 217.32 L513.6 217.32 L513.48 217.44 L511.68 217.44 L511.68 217.32 "/>
<path id="p28" style="fill:#0000ff; stroke-miterlimit:10;" d="M514.08 227.52 L511.68 217.32 L511.8 217.32 L514.2 227.52 L514.08 227.52 "/>
<path id="p29" style="fill:#0000ff; stroke-miterlimit:10;" fillrule="evenodd" d="M550.44 250.68 L548.88 250.92 L548.28 251.16 L547.68 251.76 L547.2 252.96 L547.08 254.28 L547.44 255.24 L548.16 255.84 L548.4 255.96 L549.36 256.2 L550.08 256.44 L550.68 256.56 L551.04 256.8 L551.4 256.92 L551.64 257.04 L551.88 257.52 L551.88 258.12 L551.76 258.84 L551.28 259.32 L550.56 259.56 L549.84 259.44 L549.36 259.32 L549 258.96 L548.52 257.88 L548.52 257.64 L546.96 257.64 L546.96 258 L547.08 258.6 L547.32 259.32 L548.16 260.28 L549.36 260.88 L550.44 261 L551.4 260.76 L552.72 260.04 L553.2 259.44 L553.44 258.72 L553.56 257.52 L553.32 256.44 L552.6 255.72 L551.76 255.36 L551.16 255.12 L550.44 255 L549.36 254.64 L548.88 254.4 L548.64 253.92 L548.76 252.96 L549.36 252.24 L550.08 252.12 L551.16 252.48 L551.76 253.56 L551.76 253.92 L553.2 253.92 L553.2 253.56 L552.96 252.24 L552.6 251.64 L552.12 251.16 L551.28 250.8 L550.44 250.68 "/>
<path id="p30" style="fill:#0000ff; stroke-miterlimit:10;" d="M550.44 250.8 L548.88 251.04 L548.28 251.28 L548.4 251.28 L547.8 251.88 L547.8 251.76 L547.32 252.96 L547.2 254.28 L547.56 255.24 L548.28 255.84 L548.16 255.84 L548.4 255.96 L549.36 256.2 L550.08 256.44 L550.68 256.56 L550.8 256.56 L551.16 256.8 L551.04 256.8 L551.4 256.92 L551.64 257.04 L551.76 257.04 L552 257.52 L552 258.12 L551.88 258.84 L551.88 258.96 L551.4 259.44 L551.28 259.44 L550.56 259.68 L549.84 259.56 L549.36 259.44 L549 259.08 L549 258.96 L548.52 257.88 L548.52 257.64 L548.52 257.76 L546.96 257.76 L547.08 257.64 L547.08 258 L547.2 258.6 L547.44 259.32 L548.28 260.28 L548.16 260.28 L549.36 260.88 L550.44 261 L551.4 260.76 L552.72 260.04 L553.2 259.44 L553.44 258.72 L553.56 258.72 L553.32 259.44 L553.32 259.56 L552.84 260.16 L552.72 260.16 L551.4 260.88 L550.44 261.12 L549.36 261 L548.16 260.4 L547.32 259.44 L547.32 259.32 L547.08 258.6 L546.96 258 L546.96 257.64 L548.64 257.64 L548.64 257.88 L549.12 258.96 L549.48 259.32 L549.36 259.32 L549.84 259.44 L550.56 259.56 L551.28 259.32 L551.76 258.84 L551.88 258.12 L551.88 257.52 L551.64 257.04 L551.64 257.16 L551.4 257.04 L551.04 256.92 L550.68 256.68 L550.08 256.56 L549.36 256.32 L548.4 256.08 L548.16 255.96 L547.44 255.36 L547.44 255.24 L547.08 254.28 L547.2 252.96 L547.68 251.76 L548.28 251.16 L548.88 250.92 L550.44 250.68 L550.44 250.8 "/>
<path id="p31" style="fill:#0000ff; stroke-miterlimit:10;" d="M553.44 258.72 L553.56 257.52 L553.32 256.44 L553.32 256.56 L552.6 255.84 L551.76 255.48 L551.16 255.24 L550.44 255.12 L549.36 254.76 L548.88 254.52 L548.88 254.4 L548.64 253.92 L548.76 252.96 L549.36 252.24 L550.08 252.12 L551.16 252.48 L551.28 252.48 L551.88 253.56 L551.88 253.92 L551.76 253.92 L553.2 253.92 L553.2 253.56 L552.96 252.24 L552.96 252.36 L552.6 251.76 L552.12 251.28 L551.28 250.92 L550.44 250.8 L550.44 250.68 L551.28 250.8 L552.12 251.16 L552.24 251.16 L552.72 251.64 L553.08 252.24 L553.32 253.56 L553.32 253.92 L553.2 254.04 L551.76 254.04 L551.76 253.56 L551.16 252.48 L551.16 252.6 L550.08 252.24 L549.36 252.36 L549.48 252.36 L548.88 253.08 L548.88 252.96 L548.76 253.92 L549 254.4 L548.88 254.4 L549.36 254.64 L550.44 255 L551.16 255.12 L551.76 255.36 L552.6 255.72 L552.72 255.72 L553.44 256.44 L553.68 257.52 L553.56 258.72 L553.44 258.72 "/>
<path id="p32" style="fill:#ffffff; stroke-miterlimit:10;" fillrule="evenodd" d="M550.32 209.52 L550.32 195.48 L545.16 210.84 L550.32 209.52 "/>
<path id="p33" style="fill:#0000ff; stroke-miterlimit:10;" d="M550.32 209.52 L550.32 195.48 L550.44 195.48 L545.28 210.84 L545.16 210.96 L545.16 210.84 L550.32 195.48 L550.44 195.48 L550.44 209.52 L550.32 209.52 "/>
<path id="p34" style="fill:#0000ff; stroke-miterlimit:10;" d="M545.16 210.84 L550.32 209.52 L550.44 209.52 L550.44 209.64 L550.32 209.64 L545.16 210.96 L545.16 210.84 "/>
<path id="p35" style="fill:#0000ff; stroke-miterlimit:10;" fillrule="evenodd" d="M550.32 209.52 L550.32 195.48 L555.48 210.84 L550.32 209.52 "/>
<path id="p36" style="fill:#0000ff; stroke-miterlimit:10;" d="M550.32 209.52 L550.32 195.48 L550.44 195.48 L555.6 210.84 L555.48 210.96 L555.48 210.84 L550.32 195.48 L550.44 195.48 L550.44 209.52 L550.32 209.52 "/>
<path id="p37" style="fill:#0000ff; stroke-miterlimit:10;" d="M555.48 210.96 L550.32 209.64 L550.32 209.52 L555.48 210.84 L555.48 210.96 "/>
<path id="p38" style="fill:#ffffff; stroke-miterlimit:10;" fillrule="evenodd" d="M550.32 235.32 L550.32 249.48 L555.48 234 L550.32 235.32 "/>
<path id="p39" style="fill:#0000ff; stroke-miterlimit:10;" d="M550.44 235.32 L550.44 249.48 L550.32 249.48 L555.48 234 L555.6 234 L550.44 249.48 L550.32 249.48 L550.32 235.32 L550.44 235.32 "/>
<path id="p40" style="fill:#0000ff; stroke-miterlimit:10;" d="M555.48 234.12 L550.32 235.44 L550.32 235.32 L555.48 234 L555.48 234.12 "/>
<path id="p41" style="fill:#0000ff; stroke-miterlimit:10;" fillrule="evenodd" d="M550.32 235.32 L550.32 249.48 L545.16 234 L550.32 235.32 "/>
<path id="p42" style="fill:#0000ff; stroke-miterlimit:10;" d="M550.44 235.32 L550.44 249.48 L550.32 249.48 L545.16 234 L545.28 234 L550.44 249.48 L550.32 249.48 L550.32 235.32 L550.44 235.32 "/>
<path id="p43" style="fill:#0000ff; stroke-miterlimit:10;" d="M545.16 234 L550.32 235.32 L550.44 235.32 L550.32 235.44 L545.16 234.12 L545.16 234 "/>
<path id="p44" style="fill:#ffffff; stroke-miterlimit:10;" fillrule="evenodd" d="M563.16 222.48 L577.32 222.48 L561.84 217.32 L563.16 222.48 "/>
<path id="p45" style="fill:#0000ff; stroke-miterlimit:10;" d="M563.16 222.48 L577.32 222.48 L577.32 222.6 L561.84 217.44 L561.84 217.32 L577.32 222.48 L577.32 222.6 L563.16 222.6 L563.16 222.48 "/>
<path id="p46" style="fill:#0000ff; stroke-miterlimit:10;" d="M561.96 217.32 L563.28 222.48 L563.16 222.6 L563.16 222.48 L561.84 217.32 L561.96 217.32 "/>
<path id="p47" style="fill:#0000ff; stroke-miterlimit:10;" fillrule="evenodd" d="M563.16 222.48 L577.32 222.48 L561.84 227.52 L563.16 222.48 "/>
<path id="p48" style="fill:#0000ff; stroke-miterlimit:10;" d="M563.16 222.48 L577.32 222.48 L577.32 222.6 L561.84 227.64 L561.84 227.52 L577.32 222.48 L577.32 222.6 L563.16 222.6 L563.16 222.48 "/>
<path id="p49" style="fill:#0000ff; stroke-miterlimit:10;" d="M561.84 227.52 L563.16 222.48 L563.28 222.48 L561.96 227.52 L561.84 227.52 "/>
<path id="p50" style="fill:#ffffff; stroke-miterlimit:10;" fillrule="evenodd" d="M537.48 222.48 L523.32 222.48 L538.68 227.52 L537.48 222.48 "/>
<path id="p51" style="fill:#0000ff; stroke-miterlimit:10;" d="M537.48 222.6 L523.32 222.6 L523.32 222.48 L538.68 227.52 L538.8 227.52 L538.8 227.64 L538.68 227.64 L523.32 222.6 L523.32 222.48 L537.48 222.48 L537.48 222.6 "/>
<path id="p52" style="fill:#0000ff; stroke-miterlimit:10;" d="M538.68 227.52 L537.48 222.48 L537.6 222.48 L538.8 227.52 L538.68 227.52 "/>
<path id="p53" style="fill:#0000ff; stroke-miterlimit:10;" fillrule="evenodd" d="M537.48 222.48 L523.32 222.48 L538.68 217.32 L537.48 222.48 "/>
<path id="p54" style="fill:#0000ff; stroke-miterlimit:10;" d="M537.48 222.6 L523.32 222.6 L523.32 222.48 L538.68 217.32 L538.8 217.32 L538.68 217.44 L523.32 222.6 L523.32 222.48 L537.48 222.48 L537.48 222.6 "/>
<path id="p55" style="fill:#0000ff; stroke-miterlimit:10;" d="M538.8 217.32 L537.6 222.48 L537.6 222.6 L537.48 222.6 L537.48 222.48 L538.68 217.32 L538.8 217.32 "/>
<path id="p56" style="fill:#0000ff; stroke-miterlimit:10;" fillrule="evenodd" d="M563.16 222.48 L562.92 219.84 L562.08 217.44 L561 215.28 L559.44 213.36 L557.52 211.8 L555.24 210.6 L552.84 209.88 L550.32 209.52 L547.68 209.88 L545.28 210.6 L543.12 211.8 L541.2 213.36 L539.64 215.28 L538.44 217.44 L537.72 219.84 L537.48 222.48 L537.72 225 L538.44 227.4 L539.64 229.56 L541.2 231.48 L543.12 233.04 L545.28 234.24 L547.68 234.96 L550.32 235.32 L552.84 234.96 L555.24 234.24 L557.52 233.04 L559.44 231.48 L561 229.56 L562.08 227.4 L562.92 225 L563.16 222.48 "/>
<path id="p57" style="fill:#0000ff; stroke-miterlimit:10;" d="M563.16 222.48 L562.92 219.84 L562.08 217.44 L561 215.28 L561 215.4 L559.44 213.48 L557.52 211.92 L555.24 210.72 L552.84 210 L550.32 209.64 L547.68 210 L545.28 210.72 L543.12 211.92 L543.24 211.92 L541.32 213.48 L539.76 215.4 L539.76 215.28 L538.56 217.44 L537.84 219.84 L537.6 222.48 L537.84 225 L538.56 227.4 L539.76 229.56 L541.32 231.48 L543.24 233.04 L543.12 233.04 L545.28 234.24 L547.68 234.96 L550.32 235.32 L552.84 234.96 L555.24 234.24 L557.52 233.04 L559.44 231.48 L561 229.56 L562.08 227.4 L562.92 225 L563.16 222.48 L563.28 222.48 L563.04 225 L562.2 227.4 L561.12 229.56 L561.12 229.68 L559.56 231.6 L557.64 233.16 L557.52 233.16 L555.24 234.36 L552.84 235.08 L550.32 235.44 L547.68 235.08 L545.28 234.36 L543.12 233.16 L541.2 231.6 L539.64 229.68 L539.64 229.56 L538.44 227.4 L537.72 225 L537.48 222.48 L537.72 219.84 L538.44 217.44 L539.64 215.28 L541.2 213.36 L543.12 211.8 L545.28 210.6 L547.68 209.88 L550.32 209.52 L552.84 209.88 L555.24 210.6 L557.52 211.8 L557.64 211.8 L559.56 213.36 L561.12 215.28 L562.2 217.44 L563.04 219.84 L563.28 222.48 L563.16 222.48 "/>
<path id="p58" style="fill:#0000ff; stroke-miterlimit:10;" d="M563.16 222.48 L563.28 222.48 L563.16 222.48 "/>
<path id="p59" style="fill:#ffffff; stroke-miterlimit:10;" fillrule="evenodd" d="M561.84 222.48 L561.6 220.08 L561 217.92 L559.92 216 L558.48 214.2 L556.8 212.88 L554.76 211.8 L552.6 211.08 L550.32 210.84 L547.92 211.08 L545.76 211.8 L543.84 212.88 L542.16 214.2 L540.72 216 L539.64 217.92 L538.92 220.08 L538.68 222.48 L538.92 224.76 L539.64 226.92 L540.72 228.84 L542.16 230.64 L543.84 231.96 L545.76 233.04 L547.92 233.76 L550.32 234 L552.6 233.76 L554.76 233.04 L556.8 231.96 L558.48 230.64 L559.92 228.84 L561 226.92 L561.6 224.76 L561.84 222.48 "/>
<path id="p60" style="fill:#0000ff; stroke-miterlimit:10;" d="M561.84 222.48 L561.6 220.08 L561 217.92 L559.92 216 L559.92 216.12 L558.48 214.32 L556.8 213 L554.76 211.92 L552.6 211.2 L550.32 210.96 L547.92 211.2 L545.76 211.92 L543.84 213 L543.96 213 L542.28 214.32 L540.84 216.12 L540.84 216 L539.76 217.92 L539.04 220.08 L538.8 222.48 L539.04 224.76 L539.76 226.92 L540.84 228.84 L542.28 230.64 L543.96 231.96 L543.84 231.96 L545.76 233.04 L547.92 233.76 L550.32 234 L552.6 233.76 L554.76 233.04 L556.8 231.96 L558.48 230.64 L559.92 228.84 L561 226.92 L561.6 224.76 L561.84 222.48 L561.96 222.48 L561.72 224.76 L561.12 226.92 L560.04 228.84 L560.04 228.96 L558.6 230.76 L556.92 232.08 L556.8 232.08 L554.76 233.16 L552.6 233.88 L550.32 234.12 L547.92 233.88 L545.76 233.16 L543.84 232.08 L542.16 230.76 L540.72 228.96 L540.72 228.84 L539.64 226.92 L538.92 224.76 L538.68 222.48 L538.92 220.08 L539.64 217.92 L540.72 216 L542.16 214.2 L543.84 212.88 L545.76 211.8 L547.92 211.08 L550.32 210.84 L552.6 211.08 L554.76 211.8 L556.8 212.88 L556.92 212.88 L558.6 214.2 L560.04 216 L561.12 217.92 L561.72 220.08 L561.96 222.48 L561.84 222.48 "/>
<path id="p61" style="fill:#0000ff; stroke-miterlimit:10;" d="M561.84 222.48 L561.96 222.48 L561.84 222.48 "/>
<path id="p62" style="fill:#b3b3ff; stroke-miterlimit:10;" fillrule="evenodd" d="M542.52 222.48 L544.92 222.48 L550.32 227.76 L555.6 222.48 L558 222.48 L550.32 230.16 L542.52 222.48 "/>
<path id="p63" style="fill:#0000ff; stroke-miterlimit:10;" d="M542.52 222.48 L545.04 222.48 L550.44 227.76 L550.44 227.88 L550.32 227.76 L555.6 222.48 L558.24 222.48 L550.44 230.28 L550.32 230.28 L550.32 230.16 L558 222.48 L558.12 222.6 L555.6 222.6 L555.6 222.48 L555.72 222.6 L550.44 227.88 L550.32 227.88 L544.92 222.6 L545.04 222.48 L544.92 222.6 L542.52 222.6 L542.52 222.48 "/>
<path id="p64" style="fill:#0000ff; stroke-miterlimit:10;" d="M550.32 230.28 L542.52 222.6 L542.4 222.48 L542.64 222.48 L550.44 230.16 L550.32 230.28 "/>
<path id="p65" style="fill:#0000ff; stroke-miterlimit:10;" fillrule="evenodd" d="M542.52 222.48 L550.32 214.68 L558 222.48 L555.6 222.48 L550.32 217.08 L544.92 222.48 L542.52 222.48 "/>
<path id="p66" style="fill:#0000ff; stroke-miterlimit:10;" d="M542.52 222.48 L550.32 214.68 L550.32 214.56 L550.44 214.68 L558.12 222.48 L558.24 222.6 L555.6 222.6 L550.32 217.2 L550.32 217.08 L550.44 217.2 L545.04 222.6 L544.92 222.6 L544.92 222.48 L550.44 216.96 L550.44 217.08 L555.72 222.48 L555.6 222.6 L555.6 222.48 L558 222.48 L558 222.6 L550.32 214.8 L550.44 214.68 L550.44 214.8 L542.64 222.6 L542.52 222.48 "/>
<path id="p67" style="fill:#0000ff; stroke-miterlimit:10;" d="M544.92 222.6 L542.4 222.6 L542.52 222.48 L544.92 222.48 L544.92 222.6 "/>
<path id="p68" style="fill:#0000ff; stroke-miterlimit:10;" fillrule="evenodd" d="M235.32 349.08 L235.08 348.72 L232.8 346.08 L230.4 343.2 L228.48 340.32 L227.28 337.68 L226.68 335.28 L226.44 332.88 L226.68 330.72 L227.28 328.68 L228.24 326.64 L229.44 324.72 L230.76 322.8 L237.24 315.6 L240.12 312 L241.32 310.2 L242.28 308.28 L242.4 308.64 L243.12 311.16 L243.72 313.68 L244.08 316.32 L244.08 318.84 L243.84 321.36 L242.76 326.4 L241.2 331.44 L237.48 340.68 L236.04 345 L235.32 349.08 "/>
<path id="p69" style="fill:#0000ff; stroke-miterlimit:10;" fillrule="evenodd" d="M237 348.36 L237.72 345 L238.8 341.76 L241.8 335.52 L243.24 332.28 L244.44 329.04 L245.28 325.68 L245.52 322.08 L246.6 323.64 L247.56 325.32 L248.76 328.92 L249.24 332.88 L248.88 336.72 L247.8 340.44 L246.84 342 L245.76 343.56 L244.56 344.88 L243.12 346.08 L241.44 346.92 L239.52 347.64 L237.24 348.24 L237 348.36 "/>
<path id="p70" style="fill:#0000ff; stroke-miterlimit:10;" fillrule="evenodd" d="M231.6 346.08 L230.16 345 L228.96 343.8 L227.76 342.48 L226.8 340.92 L225.96 339.24 L225.48 337.32 L225.24 335.28 L225.24 333.12 L225 330.48 L224.76 330 L224.52 330.84 L223.92 331.8 L222.84 333.24 L221.88 334.44 L221.28 335.76 L220.8 337.08 L220.68 338.28 L220.92 340.8 L222 342.96 L222.84 343.92 L223.68 344.76 L225.96 345.96 L228.72 346.44 L231.6 346.08 "/>
<path id="p71" style="fill:#0000ff; stroke-miterlimit:10;" fillrule="evenodd" d="M225.24 348 L226.44 348.24 L235.44 350.16 L244.44 352.2 L245.64 352.44 L244.68 353.4 L244.2 354.48 L244.32 355.68 L244.92 356.88 L243.72 356.52 L234.84 354.12 L225.96 351.6 L224.76 351.36 L224.16 350.4 L224.04 349.56 L224.4 348.72 L225.24 348 "/>
<path id="p72" style="fill:#0000ff; stroke-miterlimit:10;" fillrule="evenodd" d="M247.92 354.96 L247.44 353.64 L246.96 353.16 L246.48 353.04 L245.88 353.16 L245.52 353.64 L245.04 354.96 L245.52 356.28 L245.88 356.76 L246.48 356.88 L246.96 356.76 L247.44 356.28 L247.92 354.96 "/>
<path id="p73" style="fill:#0000ff; stroke-miterlimit:10;" fillrule="evenodd" d="M242.28 348 L238.32 349.32 L237.72 349.56 L237.96 349.68 L239.88 350.16 L241.8 350.76 L242.04 350.76 L242.4 350.64 L247.92 348.72 L248.28 348.6 L248.4 347.76 L248.28 347.16 L247.8 346.56 L246.96 346.44 L246.36 346.56 L242.28 348 "/>
<path id="p74" style="fill:#0000ff; stroke-miterlimit:10;" fillrule="evenodd" d="M232.08 354.36 L231.6 354.48 L227.88 355.68 L224.28 356.88 L223.68 357.12 L223.92 356.16 L223.92 355.2 L223.44 354.48 L222.48 354.36 L222.72 354.24 L224.88 353.52 L226.92 352.92 L227.28 352.8 L227.64 352.92 L229.68 353.52 L231.84 354.24 L232.08 354.36 "/>
<path id="p75" style="fill:#0000ff; stroke-miterlimit:10;" fillrule="evenodd" d="M223.08 355.92 L222.84 355.08 L222.36 354.72 L221.88 355.08 L221.64 355.92 L221.88 356.76 L222.36 357.12 L222.84 356.76 L223.08 355.92 "/>
<path id="p76" style="fill:#0000ff; stroke-miterlimit:10;" fillrule="evenodd" d="M300 306 L298.2 308.88 L296.28 311.52 L291.96 317.04 L289.32 321 L286.92 325.2 L285.24 329.52 L284.52 333.72 L284.52 335.64 L284.76 337.44 L285.36 339.24 L286.32 340.8 L287.64 342.12 L289.32 343.32 L291.36 344.28 L294 345 L295.92 345.24 L297.12 345.24 L297.96 345 L297.96 351 L302.04 351 L302.04 345 L302.88 345.24 L304.08 345.24 L306 345 L308.52 344.28 L310.68 343.32 L312.36 342.12 L313.68 340.8 L314.64 339.24 L315.24 337.44 L315.48 335.64 L315.48 333.72 L314.64 329.52 L313.08 325.2 L310.68 321 L308.04 317.04 L303.72 311.52 L301.8 308.88 L300 306 "/>
<path id="p77" style="fill:#ffffff; stroke-miterlimit:10;" fillrule="evenodd" d="M297.96 330.96 L297.96 333.96 L297.36 333.6 L293.04 330.96 L288.6 328.32 L288 327.96 L288.6 326.04 L290.04 324 L290.52 324.24 L294 326.04 L297.48 327.72 L297.96 327.96 L297.96 330.96 "/>
<path id="p78" style="fill:#ffffff; stroke-miterlimit:10;" fillrule="evenodd" d="M297.96 321.96 L297.96 324.96 L297.6 324.84 L292.32 322.2 L291.96 321.96 L292.2 320.52 L292.8 319.08 L293.64 317.88 L294.96 317.04 L295.2 317.16 L297.84 318.84 L297.96 318.96 L297.96 321.96 "/>
<path id="p79" style="fill:#ffffff; stroke-miterlimit:10;" fillrule="evenodd" d="M297.96 312 L297.96 315.96 L297 315 L296.28 314.04 L297 312.96 L297.96 312 "/>
<path id="p80" style="fill:#ffffff; stroke-miterlimit:10;" fillrule="evenodd" d="M297.96 342.96 L297.96 336.96 L297.36 336.6 L292.44 333.96 L287.64 331.32 L287.04 330.96 L286.32 333.48 L286.32 335.88 L287.04 337.92 L288.36 339.6 L290.16 341.04 L292.44 342.12 L295.08 342.72 L297.96 342.96 "/>
<path id="p81" style="fill:#ffffff; stroke-miterlimit:10;" fillrule="evenodd" d="M302.04 330.96 L302.04 333.96 L302.64 333.6 L306.96 330.96 L311.4 328.32 L312 327.96 L311.4 326.04 L309.96 324 L309.48 324.24 L306 326.04 L302.52 327.72 L302.04 327.96 L302.04 330.96 "/>
<path id="p82" style="fill:#ffffff; stroke-miterlimit:10;" fillrule="evenodd" d="M302.04 321.96 L302.04 324.96 L302.4 324.84 L307.68 322.2 L308.04 321.96 L307.8 320.52 L307.2 319.08 L306.36 317.88 L305.04 317.04 L304.8 317.16 L302.16 318.84 L302.04 318.96 L302.04 321.96 "/>
<path id="p83" style="fill:#ffffff; stroke-miterlimit:10;" fillrule="evenodd" d="M302.04 312 L302.04 315.96 L303 315 L303.72 314.04 L303 312.96 L302.04 312 "/>
<path id="p84" style="fill:#ffffff; stroke-miterlimit:10;" fillrule="evenodd" d="M302.04 342.96 L302.04 336.96 L302.64 336.6 L307.44 333.96 L312.36 331.32 L312.96 330.96 L313.68 333.48 L313.68 335.88 L312.96 337.92 L311.64 339.6 L309.84 341.04 L307.56 342.12 L304.92 342.72 L302.04 342.96 "/>
<path id="p85" style="fill:#0000ff; stroke-miterlimit:10;" fillrule="evenodd" d="M375.48 347.04 L391.56 347.04 L391.32 348.84 L390.72 350.4 L389.64 351.6 L387.96 352.44 L380.88 352.44 L380.88 357.72 L380.76 357.72 L379.92 357.36 L379.2 356.88 L379.08 356.88 L378.96 356.52 L378.24 354.6 L377.4 352.68 L377.28 352.44 L370.56 351.48 L364.8 350.76 L363.96 350.64 L362.64 350.28 L361.32 349.56 L360.36 348.36 L359.52 347.04 L375.48 347.04 "/>
<path id="p86" style="fill:#0000ff; stroke-miterlimit:10;" fillrule="evenodd" d="M373.68 345.24 L373.68 315 L396 345.24 L373.68 345.24 "/>
<path id="p87" style="fill:#0000ff; stroke-miterlimit:10;" fillrule="evenodd" d="M363.48 345.24 L372.84 345.24 L370.8 341.88 L369.48 338.28 L368.64 334.56 L368.52 330.84 L368.88 326.88 L369.72 323.04 L371.04 318.96 L372.84 315 L369.36 318.12 L366.24 321.48 L363.6 325.08 L361.2 328.8 L359.04 332.76 L357.24 336.84 L354.12 345.24 L363.48 345.24 "/>
<path id="p88" style="fill:#0000ff; stroke-miterlimit:10;" fillrule="evenodd" d="M432 313.92 L434.16 334.08 L436.2 334.08 L435.24 316.08 L438.36 316.08 L438.36 334.08 L439.44 334.08 L439.44 316.08 L442.68 316.08 L442.68 334.08 L443.64 334.08 L443.64 316.08 L446.88 316.08 L446.88 334.08 L447.96 334.08 L447.96 316.08 L451.08 316.08 L451.08 334.08 L452.16 334.08 L452.16 316.08 L455.4 316.08 L455.4 334.08 L456.48 334.08 L456.48 316.08 L459.6 316.08 L458.64 334.08 L434.16 334.08 L434.16 336.24 L458.64 336.24 L458.64 344.76 L434.16 344.76 L434.16 346.92 L460.68 346.92 L460.68 334.08 L462.84 313.92 L465 309.6 L463.92 309.6 L461.76 313.92 L432 313.92 "/>
<rect style="fill:#0000ff; stroke:none" x="434.16" y="324.6" width="26.5198" height="0.959961"/>
<rect style="fill:#0000ff; stroke:none" x="434.16" y="329.28" width="26.5198" height="1.07983"/>
<path id="p89" style="fill:#0000ff; stroke-miterlimit:10;" fillrule="evenodd" d="M466.08 309.6 L465.72 308.88 L465 308.64 L464.16 308.88 L463.92 309.6 L464.16 310.44 L465 310.68 L465.72 310.44 L466.08 309.6 "/>
<path id="p90" style="fill:#0000ff; stroke-miterlimit:10;" fillrule="evenodd" d="M461.76 350.64 L461.52 349.56 L461.04 348.72 L460.2 348.12 L459.12 347.88 L458.04 348.12 L457.2 348.72 L456.72 349.56 L456.48 350.64 L456.72 351.6 L457.2 352.44 L458.04 353.04 L459.12 353.28 L460.2 353.04 L461.04 352.44 L461.52 351.6 L461.76 350.64 "/>
<path id="p91" style="fill:#0000ff; stroke-miterlimit:10;" fillrule="evenodd" d="M437.28 350.64 L437.16 349.56 L436.56 348.72 L435.72 348.12 L434.64 347.88 L433.68 348.12 L432.72 348.72 L432.24 349.56 L432 350.64 L432.24 351.6 L432.72 352.44 L433.68 353.04 L434.64 353.28 L435.72 353.04 L436.56 352.44 L437.16 351.6 L437.28 350.64 "/>
<rect style="fill:#0000ff; stroke:none" x="434.16" y="319.8" width="26.5198" height="1.07983"/>
<path id="p92" style="fill:#0000ff; stroke-miterlimit:10;" fillrule="evenodd" d="M485.76 316.2 L485.76 315 L505.8 315 L505.8 325.08 L500.76 325.08 L501.24 325.8 L504.6 330.72 L507.84 335.64 L508.32 336.36 L508.8 335.64 L512.16 330.72 L515.4 325.8 L515.88 325.08 L510.84 325.08 L510.84 315 L531 315 L531 317.52 L529.32 317.52 L528.12 317.88 L527.76 318.12 L527.52 318.6 L527.28 320.04 L527.28 337.68 L526.56 340.08 L525.24 342.12 L523.44 343.92 L520.92 345.48 L518.16 346.56 L515.04 347.4 L511.8 347.88 L508.32 348 L504.96 347.88 L501.6 347.4 L498.6 346.56 L495.72 345.48 L493.32 343.92 L491.4 342.12 L490.08 340.08 L489.48 337.68 L489.48 320.04 L489.24 318.6 L489 318.12 L488.52 317.88 L487.32 317.52 L485.76 317.52 L485.76 316.2 "/>
<path id="p93" style="fill:#0000ff; stroke-miterlimit:10;" d="M485.52 316.2 L485.52 315 L485.76 314.76 L505.8 314.76 L506.04 315 L506.04 325.08 L505.8 325.32 L500.76 325.32 L501 324.96 L501.48 325.68 L504.84 330.6 L508.08 335.52 L508.56 336.24 L508.2 336.24 L508.68 335.52 L512.04 330.6 L515.28 325.68 L515.76 324.96 L515.88 325.32 L510.84 325.32 L510.6 325.08 L510.6 315 L510.84 314.76 L531 314.76 L531.24 315 L531.24 317.52 L531 317.76 L529.32 317.76 L529.44 317.76 L528.24 318.12 L527.88 318.36 L528 318.24 L527.52 318 L527.64 318 L528 317.76 L528.12 317.64 L529.32 317.28 L531 317.28 L530.76 317.52 L530.76 315 L531 315.24 L510.84 315.24 L511.08 315 L511.08 325.08 L510.84 324.84 L515.88 324.84 L516.12 325.2 L515.64 325.92 L512.4 330.84 L509.04 335.76 L508.56 336.48 L508.2 336.48 L507.72 335.76 L504.48 330.84 L501.12 325.92 L500.64 325.2 L500.76 324.84 L505.8 324.84 L505.56 325.08 L505.56 315 L505.8 315.24 L485.76 315.24 L486 315 L486 316.2 L485.52 316.2 "/>
<path id="p94" style="fill:#0000ff; stroke-miterlimit:10;" d="M528 318.24 L527.76 318.72 L527.52 320.16 L527.52 320.04 L527.52 337.8 L526.8 340.2 L525.48 342.24 L525.48 342.36 L523.68 344.16 L523.56 344.16 L521.04 345.72 L518.28 346.8 L515.16 347.64 L511.92 348.12 L511.8 348.12 L508.32 348.24 L504.96 348.12 L501.6 347.64 L498.6 346.8 L495.72 345.72 L495.6 345.72 L493.2 344.16 L491.28 342.36 L491.28 342.24 L489.96 340.2 L489.84 340.2 L489.24 337.8 L489.24 320.04 L489.24 320.16 L489 318.72 L488.76 318.24 L488.88 318.36 L488.4 318.12 L488.52 318.12 L487.32 317.76 L485.76 317.76 L485.52 317.52 L485.52 316.2 L486 316.2 L486 317.52 L485.76 317.28 L487.44 317.28 L488.64 317.64 L489.12 317.88 L489.24 318 L489.48 318.48 L489.48 318.6 L489.72 320.04 L489.72 337.68 L490.32 340.08 L490.32 339.96 L491.64 342 L493.56 343.8 L493.44 343.8 L495.84 345.36 L495.84 345.24 L498.72 346.32 L501.72 347.16 L505.08 347.64 L504.96 347.64 L508.32 347.76 L511.8 347.64 L515.04 347.16 L518.16 346.32 L520.92 345.24 L520.8 345.36 L523.32 343.8 L525.12 342 L526.44 339.96 L526.32 340.08 L527.04 337.68 L527.04 320.04 L527.28 318.6 L527.28 318.48 L527.52 318 L528 318.24 "/>
<path id="p95" style="fill:#ffffff; stroke-miterlimit:10;" fillrule="evenodd" d="M561.6 295.32 L561.6 320.4 L549 333 L561.6 295.32 "/>
<path id="p96" style="fill:#0000ff; stroke-miterlimit:10;" d="M561.72 295.32 L561.72 320.52 L549.12 333.12 L549 333 L549.12 333 L549 333 L561.6 320.4 L561.72 320.52 L561.6 320.4 L561.6 295.32 L561.72 295.32 "/>
<path id="p97" style="fill:#0000ff; stroke-miterlimit:10;" d="M549 333 L561.6 295.32 L561.72 295.32 L561.6 295.32 L561.72 295.32 L549.12 333 L549 333 "/>
<path id="p98" style="fill:#0000ff; stroke-miterlimit:10;" fillrule="evenodd" d="M561.6 295.32 L561.6 320.4 L574.08 333 L561.6 295.32 "/>
<path id="p99" style="fill:#0000ff; stroke-miterlimit:10;" d="M561.72 295.32 L561.72 320.4 L561.6 320.52 L561.72 320.4 L574.2 333 L574.08 333 L574.2 333 L574.08 333.12 L561.6 320.52 L561.6 295.32 L561.72 295.32 "/>
<path id="p100" style="fill:#0000ff; stroke-miterlimit:10;" d="M574.08 333 L561.6 295.32 L561.72 295.32 L561.6 295.32 L561.72 295.32 L574.2 333 L574.08 333 "/>
<path id="p101" style="fill:#0000ff; stroke-miterlimit:10;" fillrule="evenodd" d="M557.04 282.72 L557.04 283.2 L557.52 283.2 L557.52 292.68 L557.04 292.68 L557.04 293.28 L559.08 293.28 L559.08 292.68 L558.48 292.68 L558.48 284.52 L564.6 293.28 L565.68 293.28 L565.68 283.2 L566.16 283.2 L566.16 282.72 L564.12 282.72 L564.12 283.2 L564.6 283.2 L564.6 291 L558.72 282.72 L557.04 282.72 "/>
<rect style="fill:#0000ff; stroke:none" x="557.04" y="282.72" width="0.23999" height="0.599854"/>
<rect style="fill:#0000ff; stroke:none" x="557.04" y="283.08" width="0.599854" height="0.23999"/>
<rect style="fill:#0000ff; stroke:none" x="557.52" y="283.2" width="0.23999" height="9.59985"/>
<rect style="fill:#0000ff; stroke:none" x="557.04" y="292.56" width="0.47998" height="0.23999"/>
<rect style="fill:#0000ff; stroke:none" x="557.04" y="292.68" width="0.23999" height="0.719971"/>
<rect style="fill:#0000ff; stroke:none" x="557.04" y="293.16" width="2.15991" height="0.23999"/>
<rect style="fill:#0000ff; stroke:none" x="559.08" y="292.68" width="0.23999" height="0.599854"/>
<rect style="fill:#0000ff; stroke:none" x="558.48" y="292.56" width="0.599854" height="0.23999"/>
<path id="p102" style="fill:#0000ff; stroke-miterlimit:10;" d="M558.48 292.68 L558.48 284.4 L558.6 284.52 L564.72 293.28 L564.6 293.4 L558.48 284.64 L558.6 284.52 L558.6 292.68 L558.48 292.68 "/>
<rect style="fill:#0000ff; stroke:none" x="564.6" y="293.16" width="1.19995" height="0.23999"/>
<rect style="fill:#0000ff; stroke:none" x="565.68" y="283.2" width="0.23999" height="10.0798"/>
<rect style="fill:#0000ff; stroke:none" x="565.68" y="283.08" width="0.599854" height="0.23999"/>
<rect style="fill:#0000ff; stroke:none" x="566.16" y="282.72" width="0.23999" height="0.47998"/>
<rect style="fill:#0000ff; stroke:none" x="564.12" y="282.6" width="2.03979" height="0.23999"/>
<rect style="fill:#0000ff; stroke:none" x="564.12" y="282.72" width="0.23999" height="0.599854"/>
<rect style="fill:#0000ff; stroke:none" x="564.12" y="283.08" width="0.599854" height="0.23999"/>
<path id="p103" style="fill:#0000ff; stroke-miterlimit:10;" d="M564.72 283.2 L564.72 291.24 L564.6 291.12 L558.72 282.84 L558.72 282.72 L558.84 282.72 L564.72 291 L564.6 291.12 L564.6 283.2 L564.72 283.2 "/>
<rect style="fill:#0000ff; stroke:none" x="557.04" y="282.6" width="1.67993" height="0.23999"/>
<path id="p104" style="fill:#0000ff; stroke-miterlimit:10;" fillrule="evenodd" d="M264.84 378.48 L220.44 378.48 L264.84 409.56 L264.84 378.48 "/>
<path id="p105" style="fill:#0000ff; stroke-miterlimit:10;" fillrule="evenodd" d="M216 382.92 L260.4 414 L216 414 L216 382.92 "/>
<path id="p106" style="fill:#0000ff; stroke-miterlimit:10;" fillrule="evenodd" d="M330.6 354.48 L331.68 354.48 L333.48 354.84 L334.44 355.32 L335.04 355.56 L336 356.28 L336.36 356.64 L337.8 358.56 L337.92 359.04 L338.16 359.64 L338.28 360.12 L338.52 360.72 L338.52 363.12 L338.28 363.6 L338.16 364.2 L337.92 364.8 L337.8 365.28 L336.36 367.2 L336 367.56 L335.04 368.28 L334.56 368.52 L333.72 369.36 L333.6 369.36 L333.6 374.28 L338.52 374.28 L338.52 375.6 L333.6 375.6 L333.6 407.76 L337.32 407.76 L339.72 407.52 L342.12 406.68 L344.4 405.48 L346.68 403.92 L348.6 402 L350.28 399.96 L351.48 397.68 L352.2 395.4 L352.2 394.44 L351.72 394.08 L351 394.2 L351.24 393.72 L353.4 391.08 L355.68 388.32 L355.92 387.96 L356.04 388.32 L355.92 391.08 L355.2 395.28 L354 399.24 L352.32 402.72 L350.16 405.84 L348.96 407.28 L347.52 408.48 L344.28 410.52 L340.44 411.96 L336.12 412.8 L333.24 413.16 L331.8 413.52 L331.08 414 L330.48 413.52 L329.04 413.16 L326.16 412.8 L321.84 411.96 L318 410.52 L314.76 408.48 L313.32 407.28 L312 405.84 L309.84 402.72 L308.16 399.24 L307.08 395.28 L306.36 391.08 L306.24 388.32 L306.36 387.96 L306.6 388.32 L308.76 391.08 L310.92 393.72 L311.28 394.2 L310.56 394.08 L310.08 394.44 L310.08 395.4 L310.8 397.68 L312 399.96 L313.68 402 L315.6 403.92 L317.76 405.48 L320.16 406.68 L322.56 407.52 L324.96 407.76 L328.68 407.76 L328.68 375.6 L323.64 375.6 L323.64 374.28 L328.68 374.28 L328.68 369.36 L328.56 369.36 L327.72 368.52 L327.24 368.28 L326.28 367.56 L325.44 366.72 L325.08 366.24 L324.84 365.76 L324.48 365.28 L324.24 364.8 L324.12 364.2 L323.88 363.6 L323.76 363.12 L323.76 362.52 L323.64 361.92 L323.76 361.32 L323.76 360.72 L323.88 360.12 L324.12 359.64 L324.24 359.04 L324.48 358.56 L324.84 358.08 L325.08 357.6 L325.44 357.12 L326.28 356.28 L327.24 355.56 L327.72 355.32 L328.32 355.08 L328.8 354.84 L330.6 354.48 "/>
<path id="p107" style="fill:#ffffff; stroke-miterlimit:10;" fillrule="evenodd" d="M336.12 361.92 L335.64 360 L334.68 358.44 L333 357.36 L331.08 357 L329.16 357.36 L327.6 358.44 L326.52 360 L326.16 361.92 L326.52 363.84 L327.6 365.4 L329.16 366.48 L331.08 366.84 L333 366.48 L334.68 365.4 L335.64 363.84 L336.12 361.92 "/>
<path id="p108" style="fill:#0000ff; stroke-miterlimit:10;" fillrule="evenodd" d="M402 411 L403.56 411 L403.8 409.44 L405.48 398.76 L407.28 388.08 L407.52 386.52 L405.48 386.52 L405.48 384.48 L407.52 384.48 L407.52 380.4 L405.48 380.4 L405.48 378.36 L407.52 378.36 L407.88 377.16 L408.36 376.08 L408.96 375.12 L409.8 374.4 L411.6 373.32 L413.64 373.08 L415.8 373.32 L417.6 374.4 L418.32 375.12 L419.04 376.08 L419.52 377.16 L419.76 378.36 L421.8 378.36 L421.8 380.4 L419.76 380.4 L419.76 384.48 L421.8 384.48 L421.8 386.52 L419.76 386.52 L420 388.08 L423.6 409.44 L423.84 411 L432 411 L432 414 L383.16 414 L383.16 411 L387.24 411 L387.24 406.92 L385.2 406.92 L385.8 406.44 L393.72 401.16 L394.32 400.8 L394.8 401.16 L402 406.44 L402.48 406.92 L400.44 406.92 L400.44 411 L402 411 "/>
<path id="p109" style="fill:#ffffff; stroke-miterlimit:10;" fillrule="evenodd" d="M416.76 382.44 L416.52 381.24 L415.8 380.28 L414.84 379.68 L413.64 379.44 L412.44 379.68 L411.48 380.28 L410.88 381.24 L410.64 382.44 L410.88 383.64 L411.48 384.6 L412.44 385.32 L413.64 385.56 L414.84 385.32 L415.8 384.6 L416.52 383.64 L416.76 382.44 "/>
<path id="p110" style="fill:#0000ff; stroke-miterlimit:10;" fillrule="evenodd" d="M500.52 378.12 L502.2 379.8 L500.04 381.96 L485.16 396.96 L470.16 411.84 L468 414 L474.84 414 L503.64 385.2 L505.68 383.28 L509.04 386.64 L509.76 387.12 L510.48 387.48 L512.28 387.48 L514.2 386.76 L515.88 385.56 L517.32 384 L518.16 382.08 L518.4 380.04 L518.04 379.08 L517.56 378.12 L517.2 377.64 L511.2 371.64 L510.72 371.28 L503.88 378.12 L502.2 376.44 L500.76 374.88 L500.52 374.64 L498.84 376.32 L498.84 376.44 L500.52 378.12 "/>
<path id="p111" style="fill:#ffffff; stroke-miterlimit:10;" fillrule="evenodd" d="M509.04 383.28 L507.6 381.72 L507.36 381.48 L510.48 378.36 L512.52 376.44 L515.88 379.8 L515.52 382.08 L515.16 382.92 L514.56 383.64 L513.84 384.24 L513 384.6 L510.72 384.96 L509.04 383.28 "/>
<path id="p112" style="fill:#0000ff; stroke-miterlimit:10;" fillrule="evenodd" d="M488.52 378.12 L486.84 379.8 L489 381.96 L503.88 396.96 L518.88 411.84 L521.04 414 L514.2 414 L498.84 398.64 L485.28 385.2 L483.36 383.28 L483.12 383.4 L481.68 384.96 L480 386.64 L479.28 387.12 L478.44 387.48 L476.76 387.48 L474.84 386.76 L473.16 385.56 L471.72 384 L470.88 382.08 L470.64 380.04 L470.88 379.08 L471.48 378.12 L471.84 377.64 L477.84 371.64 L478.32 371.28 L485.16 378.12 L485.28 377.88 L486.84 376.44 L488.28 374.88 L488.52 374.64 L489.36 375.48 L490.08 376.32 L490.2 376.44 L489.96 376.56 L488.52 378.12 "/>
<path id="p113" style="fill:#ffffff; stroke-miterlimit:10;" fillrule="evenodd" d="M480 383.28 L481.44 381.72 L481.68 381.48 L478.44 378.36 L476.52 376.44 L476.28 376.56 L474.84 378.12 L473.16 379.8 L473.4 382.08 L473.88 382.92 L474.36 383.64 L475.08 384.24 L476.04 384.6 L478.32 384.96 L478.44 384.72 L480 383.28 "/>
<path id="p114" style="fill:#0000ff; stroke-miterlimit:10;" fillrule="evenodd" d="M545.16 406.56 L545.16 409.08 L566.28 409.08 L567 410.64 L568.2 411.84 L569.64 412.56 L571.32 412.8 L572.88 412.56 L574.44 411.84 L575.52 410.64 L576.24 409.08 L585 409.08 L585 404.04 L584.52 403.44 L581.28 399 L578.04 394.68 L577.56 394.08 L577.44 393.12 L576.96 386.64 L576.36 380.04 L576.24 379.08 L576.12 378.24 L575.64 377.28 L574.8 376.44 L573.84 375.72 L571.08 374.52 L567.6 374.16 L567.6 371.64 L571.32 371.64 L571.32 369.12 L558.84 369.12 L558.84 371.64 L562.56 371.64 L562.56 374.16 L559.08 374.52 L556.32 375.72 L555.36 376.44 L554.52 377.28 L554.04 378.24 L553.92 379.08 L553.8 380.04 L553.2 386.64 L552.72 393.12 L552.6 394.08 L552.12 394.68 L548.88 399 L545.64 403.44 L545.16 404.04 L545.16 406.56 "/>
<path id="p115" style="fill:#0000ff; stroke-miterlimit:10;" d="M545.4 406.56 L545.4 409.08 L545.16 408.84 L566.28 408.84 L566.52 408.96 L567.24 410.52 L568.44 411.72 L568.32 411.6 L569.76 412.32 L571.44 412.56 L571.32 412.56 L572.88 412.32 L572.76 412.32 L574.32 411.6 L574.32 411.72 L575.4 410.52 L575.28 410.52 L576 408.96 L576.24 408.84 L585 408.84 L584.76 409.08 L584.76 404.04 L584.88 404.16 L584.4 403.56 L581.16 399.12 L577.92 394.8 L577.44 394.2 L577.32 394.08 L577.2 393.12 L576.72 386.64 L576.12 380.04 L576 379.08 L576 379.2 L575.88 378.36 L575.4 377.4 L575.52 377.52 L574.68 376.68 L573.72 375.96 L570.96 374.76 L571.08 374.76 L567.6 374.4 L567.36 374.16 L567.36 371.64 L567.6 371.4 L567.84 371.4 L567.84 371.88 L567.6 371.88 L567.84 371.64 L567.84 374.16 L567.6 373.92 L571.08 374.28 L571.2 374.28 L573.96 375.48 L573.96 375.6 L574.92 376.32 L575.04 376.32 L575.88 377.16 L576.36 378.12 L576.36 378.24 L576.48 379.08 L576.6 380.04 L577.2 386.64 L577.68 393.12 L577.8 394.08 L577.8 393.96 L578.28 394.56 L581.52 398.88 L584.76 403.32 L585.24 403.92 L585.24 409.08 L585 409.32 L576.24 409.32 L576.48 409.2 L575.76 410.76 L575.76 410.88 L574.68 412.08 L574.56 412.08 L573 412.8 L571.44 413.04 L571.32 413.04 L569.64 412.8 L569.52 412.8 L568.08 412.08 L566.76 410.76 L566.04 409.2 L566.28 409.32 L545.16 409.32 L544.92 409.08 L544.92 406.56 L545.4 406.56 "/>
<path id="p116" style="fill:#0000ff; stroke-miterlimit:10;" d="M567.84 371.4 L571.32 371.4 L571.08 371.64 L571.08 369.12 L571.32 369.36 L558.84 369.36 L559.08 369.12 L559.08 371.64 L558.84 371.4 L562.56 371.4 L562.8 371.64 L562.8 374.16 L562.56 374.4 L559.08 374.76 L559.2 374.76 L556.44 375.96 L555.48 376.68 L555.6 376.68 L554.76 377.52 L554.76 377.4 L554.28 378.36 L554.16 379.2 L554.16 379.08 L554.04 380.04 L553.44 386.64 L552.96 393.12 L552.84 394.08 L552.84 394.2 L552.36 394.8 L549.12 399.12 L545.88 403.56 L545.4 404.16 L545.4 404.04 L545.4 406.56 L544.92 406.56 L544.92 404.04 L545.04 403.92 L545.52 403.32 L548.76 398.88 L552 394.56 L552.48 393.96 L552.36 394.08 L552.48 393.12 L552.96 386.64 L553.56 380.04 L553.68 379.08 L553.8 378.24 L553.8 378.12 L554.28 377.16 L554.4 377.16 L555.24 376.32 L556.2 375.6 L556.2 375.48 L558.96 374.28 L559.08 374.28 L562.56 373.92 L562.32 374.16 L562.32 371.64 L562.56 371.88 L558.84 371.88 L558.6 371.64 L558.6 369.12 L558.84 368.88 L571.32 368.88 L571.56 369.12 L571.56 371.64 L571.32 371.88 L567.84 371.88 L567.84 371.4 "/>
<rect style="fill:#0000ff; stroke:none" x="572.52" y="367.92" width="2.51978" height="5.03979"/>
<rect style="fill:#0000ff; stroke:none" x="572.52" y="367.68" width="2.75977" height="0.47998"/>
<rect style="fill:#0000ff; stroke:none" x="574.8" y="367.92" width="0.47998" height="5.27979"/>
<rect style="fill:#0000ff; stroke:none" x="572.28" y="372.72" width="2.75977" height="0.47998"/>
<rect style="fill:#0000ff; stroke:none" x="572.28" y="367.68" width="0.47998" height="5.27979"/>
<rect style="fill:#0000ff; stroke:none" x="555.12" y="367.92" width="2.51978" height="5.03979"/>
<rect style="fill:#0000ff; stroke:none" x="555.12" y="367.68" width="2.75977" height="0.47998"/>
<rect style="fill:#0000ff; stroke:none" x="557.4" y="367.92" width="0.47998" height="5.27979"/>
<rect style="fill:#0000ff; stroke:none" x="554.88" y="372.72" width="2.75977" height="0.47998"/>
<rect style="fill:#0000ff; stroke:none" x="554.88" y="367.68" width="0.47998" height="5.27979"/>
</svg>
