<?xml version="1.0" encoding="UTF-8" standalone="no"?>
<!-- Created with Inkscape (http://www.inkscape.org/) -->
<svg
   xmlns:dc="http://purl.org/dc/elements/1.1/"
   xmlns:cc="http://web.resource.org/cc/"
   xmlns:rdf="http://www.w3.org/1999/02/22-rdf-syntax-ns#"
   xmlns:svg="http://www.w3.org/2000/svg"
   xmlns="http://www.w3.org/2000/svg"
   xmlns:xlink="http://www.w3.org/1999/xlink"
   xmlns:sodipodi="http://sodipodi.sourceforge.net/DTD/sodipodi-0.dtd"
   xmlns:inkscape="http://www.inkscape.org/namespaces/inkscape"
   id="svg2"
   sodipodi:version="0.32"
   inkscape:version="0.45.1"
   width="387"
   height="393"
   version="1.0"
   sodipodi:docbase="E:\My Documents\My Videos"
   sodipodi:docname="P human body.svg"
   inkscape:output_extension="org.inkscape.output.svg.inkscape">
  <metadata
     id="metadata7">
    <rdf:RDF>
      <cc:Work
         rdf:about="">
        <dc:format>image/svg+xml</dc:format>
        <dc:type
           rdf:resource="http://purl.org/dc/dcmitype/StillImage" />
      </cc:Work>
    </rdf:RDF>
  </metadata>
  <defs
     id="defs5">
    <linearGradient
       id="linearGradient2889">
      <stop
         id="stop2891"
         offset="0"
         style="stop-color:#a0a3e1;stop-opacity:1" />
      <stop
         id="stop2893"
         offset="1"
         style="stop-color:#dedcfa;stop-opacity:1" />
    </linearGradient>
    <linearGradient
       gradientUnits="userSpaceOnUse"
       xlink:href="#linearGradient2889"
       id="linearGradient3199"
       y2="26.290426"
       x2="263.82959"
       y1="304.50995"
       x1="92.604424" />
    <linearGradient
       inkscape:collect="always"
       xlink:href="#linearGradient2889"
       id="linearGradient2237"
       gradientUnits="userSpaceOnUse"
       x1="92.604424"
       y1="304.50995"
       x2="263.82959"
       y2="26.290426" />
  </defs>
  <sodipodi:namedview
     inkscape:window-height="968"
     inkscape:window-width="1280"
     inkscape:pageshadow="2"
     inkscape:pageopacity="0.0"
     guidetolerance="10.0"
     gridtolerance="10.0"
     objecttolerance="10.0"
     borderopacity="1.0"
     bordercolor="#666666"
     pagecolor="#ffffff"
     id="base"
     inkscape:zoom="1.3458419"
     inkscape:cx="166.37708"
     inkscape:cy="203.27089"
     inkscape:window-x="-4"
     inkscape:window-y="-4"
     inkscape:current-layer="svg2" />
  <g
     id="g2232"
     transform="matrix(2.0095776,0,0,2.0095776,-185.1512,-181.46181)">
    <g
       transform="matrix(0.4800771,0,0,0.4800771,93.927521,101.74661)"
       id="layer1">
      <path
         d="M 374,169 C 374,252.94728 288.9341,321 184,321 C 79.065898,321 -6,252.94728 -6,169 C -6,85.052718 79.065898,17 184,17 C 288.9341,17 374,85.052718 374,169 z "
         transform="matrix(0.851641,-0.524127,0.524127,0.851641,-45.27941,132.512)"
         style="fill:#FF0000;fill-opacity:1;stroke:none;stroke-width:3.125;stroke-linecap:butt;stroke-linejoin:round;stroke-miterlimit:4;stroke-dasharray:none;stroke-dashoffset:0;stroke-opacity:1"
         id="path2869" />
    </g>
    <path
       id="path2167"
       d="M 141.13768,125.58269 C 135.18816,124.27319 129.7579,119.91607 124.63758,118.23337 C 119.19784,115.4288 114.37605,113.63956 111.18759,110.88824 C 104.89547,110.26355 106.77393,108.2191 106.73236,103.18594 C 106.24018,94.763193 114.15056,103.15435 118.3514,103.14223 C 122.11367,109.31676 129.55059,111.17933 136.78162,112.24437 C 144.77259,114.59548 150.48085,120.8584 159.01643,121.3952 C 162.87198,122.36701 172.50624,124.8575 173.84964,122.04658 C 167.93762,121.08754 175.50592,118.00097 170.61255,117.77615 C 173.23056,113.75701 173.85654,113.14595 170.75265,110.20021 C 172.56371,107.563 177.84249,108.51067 173.02397,105.48574 C 176.78537,106.31679 178.26169,101.02743 182.43148,99.345285 C 187.80208,98.902946 199.51791,99.644593 200.92011,101.89353 C 197.0854,105.50981 206.64193,104.29448 203.68542,107.95166 C 201.89079,111.37644 208.03984,114.26347 204.39407,114.94063 C 202.29716,112.639 206.58074,119.89615 202.96947,121.54848 C 202.65649,128.11554 212.37638,118.62157 217.00764,122.12292 C 223.50465,119.09201 230.1324,118.31699 235.89958,113.93401 C 241.7932,111.27342 250.10113,108.52836 254.68902,107.23656 C 257.0162,104.80354 260.48728,101.80817 259.24127,101.18251 C 263.80024,97.221957 276.87071,98.379608 272.55373,104.04754 C 273.40049,104.47439 276.68942,111.13943 270.45226,109.23408 C 265.90796,111.6974 259.59096,115.13993 256.88857,115.35661 C 254.36766,118.07725 250.50838,116.76786 248.62294,120.27436 C 243.18531,125.0796 234.05718,123.85741 229.57796,129.13297 C 219.93183,129.5292 236.18689,131.83995 239.09531,129.59725 C 245.65514,129.86274 258.44593,130.03931 260.96663,128.32549 C 266.06838,125.84739 271.30566,124.76818 275.87973,128.02069 C 277.08555,131.96482 276.85024,136.22342 272.31256,136.52154 C 266.04566,138.81845 256.78871,137.01327 249.60016,139.13359 C 239.89183,141.68445 229.77738,137.77315 219.84577,139.48253 C 210.56846,137.30199 206.45804,145.76348 206.01776,153.1441 C 203.31547,161.09383 202.80595,170.71957 206.61775,178.29365 C 206.04569,187.24565 213.47257,193.30079 215.02522,201.76394 C 216.5118,209.7401 218.07021,217.12501 221.15687,224.6627 C 223.1183,229.99287 228.34335,234.16056 229.57355,238.18098 C 231.87797,244.26619 232.23324,251.18599 237.25212,256.65453 C 240.3456,258.21353 237.74329,254.8346 241.33523,257.75029 C 244.68181,255.43225 253.4144,258.21581 249.22445,259.16042 C 246.21649,263.63518 235.81131,270.93554 231.52998,267.3883 C 228.39119,262.32782 228.51494,252.56531 231.11317,262.05127 C 230.79061,272.21883 239.38788,264.36077 242.90204,262.79207 C 248.94749,262.20013 247.11816,255.25632 241.68261,258.64116 C 237.61256,257.78023 235.33558,259.27548 233.88295,260.02076 C 240.02966,256.63475 229.90041,250.69497 230.50668,244.85238 C 228.79754,235.49915 220.12782,229.40692 218.75409,220.21348 C 214.91299,212.09386 215.50877,202.58339 211.39981,194.28444 C 206.30731,189.17996 206.51938,182.51281 204.48778,176.27843 C 204.10475,181.44297 204.51143,186.72833 203.93719,191.80883 C 204.47965,184.73726 201.65179,175.37754 203.65906,169.95274 C 200.00696,161.59197 207.06784,153.19379 205.20938,145.29654 C 197.58479,148.32814 188.49607,142.99064 180.26103,147.18775 C 171.67324,141.99967 174.3823,156.16915 173.14987,152.03829 C 171.46315,144.45768 167.14284,138.21248 158.11949,139.84689 C 150.42995,136.73209 142.0713,141.4392 135.05079,139.80092 C 127.92777,138.81824 119.00256,137.96229 113.02819,137.70194 C 106.29968,135.57266 99.466195,139.42352 100.70703,130.34312 C 102.77303,121.66368 108.33077,127.02357 115.17619,128.40643 C 122.83602,131.37508 131.21426,129.29985 139.33412,129.70545 L 141.35127,129.62348 L 142.24825,129.48121 M 182.75007,278.83079 C 175.29467,276.02082 182.24774,266.2597 176.20754,261.47022 C 173.93396,253.78092 170.41234,246.12071 172.57033,237.91699 C 173.57332,234.30474 174.78388,224.99748 174.16576,233.79571 C 172.48278,240.50941 172.54698,248.44368 174.91387,253.83926 C 174.88712,260.26255 184.70455,269.89232 179.92947,273.36525 C 179.9526,278.95135 183.221,274.38406 185.07604,276.23039 C 187.06187,274.92972 187.16216,281.84128 187.36549,275.68203 C 194.95656,278.22629 185.68049,271.48906 186.21817,267.29961 C 181.68832,258.58578 185.57398,248.20505 182.3121,239.19353 C 184.88618,233.22466 173.55885,233.54486 182.1762,233.21859 C 186.08351,227.81854 185.82292,219.78927 186.08734,212.85552 C 186.44336,208.06965 189.61174,201.8733 188.9775,210.41511 C 189.78072,221.13318 189.32095,231.90371 187.25666,242.44701 C 186.6406,250.21771 191.76336,254.3758 190.37956,261.77414 C 193.66685,266.7376 192.03043,273.39458 193.73429,277.86968 C 198.03731,277.54619 210.53425,276.63447 209.99265,278.36566 C 202.41261,279.50436 194.12014,276.90007 188.00081,279.08252 C 186.26974,279.53709 184.45933,279.20705 182.75007,278.83079 z M 192.12312,272.66882 C 190.82102,264.19962 188.4278,255.62333 186.42158,247.35621 C 186.20704,237.59975 189.68392,228.10156 188.44249,218.27483 C 188.91434,214.44834 187.44091,205.69793 186.76551,214.26591 C 188.44953,222.85455 183.41447,230.7777 183.4875,239.1118 C 185.86133,249.19162 183.10787,260.31868 188.3087,269.67387 C 188.3163,271.23176 190.942,276.78332 192.12312,272.66882 z M 212.57928,278.44195 C 211.00061,277.56984 220.79272,274.29318 216.60009,278.24237 C 215.24475,278.21125 213.951,278.8286 212.57928,278.44195 z M 210.07172,274.85583 C 203.43478,273.10717 197.74434,268.89636 198.13545,261.19556 C 199.56745,251.78424 196.4358,242.10868 198.68417,232.91767 C 199.65572,226.08286 201.05703,219.48987 203.18897,212.88085 C 201.32895,210.06587 194.68993,202.82306 201.43375,209.41099 C 206.42909,213.10136 203.19938,197.18944 204.80893,195.88755 C 205.56418,203.87352 202.22079,212.5588 207.46223,219.61705 C 212.78751,227.82958 212.46209,238.96123 220.13322,245.60106 C 219.55061,249.83948 229.80505,256.18374 226.91233,256.52783 C 220.78847,249.19106 213.90195,241.57996 211.60872,232.06967 C 209.17701,226.58397 207.70702,218.69459 203.55571,215.17342 C 200.50551,223.62169 200.59029,232.22771 198.92354,240.9255 C 200.07131,249.90126 197.75105,259.41055 201.11635,268.00117 C 202.24121,273.45037 214.23854,272.79922 215.02048,275.86889 C 213.34452,275.67088 211.70553,275.26321 210.07172,274.85583 z M 196.19594,273.60136 C 198.33279,271.00445 196.27254,277.19055 196.19594,273.60136 z M 194.25308,273.32734 C 193.77447,269.40799 196.02259,276.47352 194.25308,273.32734 z M 184.40037,145.26078 C 188.08597,143.73424 189.09255,142.44435 190.74827,143.52108 C 190.87723,140.80446 198.30043,144.98496 201.29709,144.42449 C 197.81481,147.93942 206.28037,139.81175 207.31953,138.18924 C 211.34423,136.77528 212.38988,126.52413 206.47764,128.6464 C 201.14178,128.10009 201.44353,130.30738 201.20871,133.62674 C 196.87224,131.18843 198.71161,132.13955 200.14752,131.42819 C 195.26096,127.54661 187.2408,133.04857 182.70404,130.06098 C 175.89742,131.00867 177.35087,126.75428 171.10416,128.9598 C 166.53196,126.07348 166.09108,135.95914 165.10617,129.55091 C 160.48798,130.41927 158.4662,132.57441 164.18603,132.30287 C 171.47202,137.43903 156.77767,130.7318 153.3105,130.9243 C 149.73897,130.95081 143.00701,135.96207 144.62224,132.13687 C 137.83956,129.32579 126.63859,131.88788 122.48755,132.01315 C 118.73947,130.31941 118.43026,137.29822 122.59566,134.16382 C 127.44838,136.17822 123.28237,135.03448 122.97279,135.03032 C 128.51207,139.75305 137.51476,139.64335 144.23943,137.77908 C 148.67517,136.58756 157.96481,139.61323 162.17563,139.27451 C 152.98786,137.66796 167.00795,137.32392 167.47033,139.33806 C 173.46304,142.55757 163.45475,132.9223 170.74137,138.12832 C 173.48439,139.19138 177.08934,145.07744 181.09742,145.02767 C 172.39469,145.88676 183.2776,147.5903 184.40037,145.26078 z M 154.84109,137.1296 C 158.90731,136.69899 155.06439,138.05374 154.84109,137.1296 z M 148.96441,136.0382 C 145.47419,134.14973 157.65579,137.94519 150.60325,136.62317 L 148.96441,136.0382 L 148.96441,136.0382 z M 177.19335,133.48557 C 178.71834,127.20626 177.04888,138.58399 177.19335,133.48557 z M 187.89157,133.21308 C 188.0517,131.03325 193.95327,132.33817 188.42957,133.79231 L 187.89157,133.21308 L 187.89157,133.21308 z M 208.73902,133.31718 C 210.90936,130.45643 208.01144,135.94474 208.73902,133.31718 z M 179.69484,132.33678 C 180.60181,130.58688 180.95631,134.2885 179.69484,132.33678 z M 161.88842,131.50907 C 163.33737,129.25974 163.47034,132.71653 161.88842,131.50907 z M 171.12758,142.04138 C 169.04914,138.13552 172.53597,147.57842 171.12758,142.04138 z M 207.6487,141.48085 C 209.45785,139.3596 210.76663,136.19151 206.26862,140.74859 C 205.61096,142.63967 206.96422,144.74036 207.6487,141.48085 z M 248.33573,138.12501 C 253.45569,136.45229 259.99159,137.91713 258.95897,134.33719 C 259.1068,127.56564 246.20922,132.87122 241.32881,130.92605 C 237.09211,128.5302 232.55882,135.3711 233.22346,135.06129 C 231.05307,127.68293 218.62397,132.1954 213.27122,134.57614 C 207.37525,141.82419 220.26109,137.77628 223.13844,138.13176 C 231.74745,136.29257 235.92526,140.13771 244.39878,139.01413 C 245.72616,138.79093 247.0418,138.49625 248.33573,138.12501 z M 222.82275,136.71669 C 226.21417,135.75876 232.08459,136.11759 224.70254,136.84701 L 223.23845,136.88582 L 222.82275,136.71669 L 222.82275,136.71669 z M 117.94525,136.36003 C 114.26299,134.4878 106.45956,135.50557 114.86692,136.9662 C 115.84729,137.00626 117.21975,137.28218 117.94525,136.36003 z M 266.23785,134.873 C 264.09041,133.76568 257.96287,136.3346 264.90351,136.2987 L 265.85811,135.76494 L 266.23784,134.87299 L 266.23785,134.873 z M 109.33077,135.78317 C 107.56163,134.00599 109.16856,137.73994 109.33077,135.78317 z M 118.30724,134.23691 C 120.31703,132.74736 113.45581,126.80005 109.13655,131.12897 C 113.71719,128.58195 114.65562,137.52395 118.30724,134.23691 z M 212.96485,133.87012 C 219.44948,131.92979 220.44302,128.97627 212.8932,128.71114 C 210.68376,126.95955 210.82607,137.23535 212.96485,133.87012 z M 273.27427,132.54147 C 269.50644,131.43341 268.13368,134.36682 273.27427,132.54147 z M 265.56775,132.33678 C 260.71127,130.093 274.24505,131.03924 267.60411,128.42892 C 269.63501,130.28954 258.33525,127.15839 262.78182,132.52528 C 263.61181,132.94302 264.88973,133.19973 265.56775,132.33678 z M 106.50691,131.04437 C 102.29239,129.48346 100.78949,132.89284 106.50691,131.04437 L 106.50691,131.04437 z M 108.2418,130.19472 C 107.10055,131.2405 109.01962,132.39563 108.2418,130.19472 z M 152.41082,130.36502 C 160.45016,129.68625 146.52582,127.37961 144.04645,126.35358 C 137.14437,130.08166 149.37901,132.60391 152.41082,130.36502 z M 273.03495,130.61357 C 270.12136,128.34767 273.43102,132.62743 273.03495,130.61357 z M 160.4221,130.08823 C 160.56431,126.66906 175.56,130.21968 175.185,125.66886 C 168.04971,122.25391 160.99824,124.84129 153.97268,120.8868 C 146.09779,120.4608 141.27227,112.47218 133.1684,112.48311 C 128.95722,110.97846 120.2837,110.20413 120.07154,109.06223 C 123.35285,108.63445 114.11905,101.08822 118.603,106.82349 C 111.88692,103.52772 114.73398,107.21242 117.55744,110.43531 C 121.50928,111.14226 115.00962,113.67607 120.88232,114.71436 C 128.0145,115.15816 130.65072,121.73681 137.96501,123.33523 C 145.6777,124.46396 153.44169,128.88115 160.4221,130.08823 L 160.4221,130.08823 z M 153.12883,126.83863 C 148.19012,122.74326 161.20321,130.23638 153.12882,126.83863 L 153.12883,126.83863 z M 146.95401,120.84876 C 145.47243,118.75581 150.11182,122.6846 146.95401,120.84876 z M 123.40359,115.10476 C 121.89034,113.0033 126.7889,116.62415 123.40359,115.10476 z M 122.00571,113.40853 C 119.25386,111.21271 126.73484,114.09245 122.00571,113.40853 z M 225.30323,128.31596 C 233.39132,124.3643 242.7765,123.65491 249.99762,117.81598 C 252.84029,116.65164 261.03753,111.67829 256.8223,111.22773 C 259.5035,115.07966 251.18224,112.33238 256.67723,109.93515 C 259.4302,106.60372 262.18893,109.81695 263.18509,104.98914 C 270.19966,103.86602 257.81765,104.15119 258.84168,105.77062 C 253.36272,110.29073 245.2877,111.33722 238.49857,113.84164 C 231.37598,119.25129 222.82434,120.50972 215.20988,125.02628 C 209.18774,128.11974 219.73871,121.21948 211.4622,122.96044 C 206.33377,123.90021 207.20976,125.95936 201.22207,127.10678 C 208.96836,125.70748 217.80507,130.60807 224.60955,128.63862 L 225.30323,128.31596 L 225.30323,128.31596 z M 220.18831,128.88746 C 221.33264,124.45506 225.80622,129.18756 220.18831,128.88746 z M 105.02277,129.23901 C 103.11712,127.21983 102.46457,130.32083 105.02277,129.23901 z M 111.2143,128.79695 C 106.99542,123.96877 110.9444,131.75471 111.2143,128.79695 z M 186.64151,126.99127 C 183.90718,118.72464 183.35334,128.84782 187.07232,128.59243 L 187.02723,127.72078 L 186.64152,126.99127 L 186.64151,126.99127 z M 273.31636,128.25416 C 265.64689,126.19432 275.74878,130.88597 273.31635,128.25416 L 273.31636,128.25416 z M 182.56685,127.99486 C 181.24189,125.96976 181.47985,130.77624 182.56685,127.99486 z M 189.77718,128.36503 C 191.40267,124.68306 185.73776,129.79403 189.77718,128.36503 z M 199.07491,127.63036 C 196.21917,124.91829 195.82997,125.5887 195.6957,128.05182 C 191.67983,130.50355 193.22338,122.62506 191.25386,128.30734 C 193.18708,129.07786 197.76669,129.53684 199.07491,127.63036 z M 229.09331,128.33399 C 227.39154,127.06851 226.53048,130.31886 229.09331,128.33399 z M 180.85517,126.86609 C 182.58639,123.68785 177.19921,129.75848 180.85517,126.86609 z M 190.60845,126.01836 C 196.80555,122.53474 188.87931,123.55057 188.69379,126.20983 C 189.15969,126.65501 190.41057,126.85358 190.60845,126.01836 z M 200.94768,125.12286 C 199.3511,124.02577 199.82212,127.15363 200.94768,125.12286 z M 202.09647,124.29516 C 200.77391,122.01285 201.11599,126.36724 202.09647,124.29516 z M 192.12491,119.30175 C 188.6759,120.17437 184.17839,121.37605 190.40433,121.69108 C 191.13835,121.12274 192.28287,120.40434 192.12491,119.30175 z M 200.31001,118.76214 C 198.72478,116.78886 200.0852,123.73741 200.31001,118.76214 z M 193.64099,118.40755 C 192.28676,113.68705 193.11572,115.68676 194.64608,115.67552 C 197.55001,108.17506 189.27242,114.07747 192.35001,117.34836 C 185.66885,114.55077 193.15488,120.22918 193.64099,118.40755 z M 184.63709,116.40912 C 183.49584,117.45488 185.41492,118.61001 184.63709,116.40912 z M 186.01325,115.07085 C 184.8575,113.81104 184.74811,116.97722 186.01325,115.07085 z M 201.01894,114.37718 C 199.30369,113.47198 202.58062,116.92994 201.01894,114.37718 z M 184.49778,114.24316 C 181.53553,108.28965 181.93177,116.95613 184.49778,114.24316 z M 189.46846,114.09956 C 192.8802,115.97914 187.61377,105.44386 188.41108,112.50947 C 188.02429,112.66097 188.88758,117.20226 189.46846,114.09956 z M 201.85449,113.51148 C 199.28307,111.48492 204.50596,117.03108 201.85449,113.51148 z M 186.79664,113.09765 C 184.13576,110.74142 187.42142,116.04483 186.79664,113.09765 z M 262.66296,111.69455 C 267.78897,103.96957 254.62507,115.23432 262.66295,111.69455 L 262.66296,111.69455 z M 261.68096,111.01268 C 265.03497,109.15874 260.15541,112.98815 261.68096,111.01268 z M 113.9858,109.51631 C 112.84454,110.56207 114.76366,111.7172 113.9858,109.51631 z M 200.08607,110.50955 C 198.31691,108.73235 199.92386,112.46633 200.08607,110.50955 z M 112.17405,109.46984 C 105.81846,105.7058 109.17659,109.78426 112.17405,109.46984 z M 195.62327,109.58888 C 197.59018,103.77675 194.88462,103.09721 194.70734,108.78635 C 195.44165,104.09319 185.03677,103.10847 184.61825,106.27576 C 180.8241,112.03283 192.83222,107.73844 195.62327,109.58888 z M 199.78225,108.80878 C 200.45141,107.45421 196.22153,108.08475 198.61642,104.34515 C 196.59594,98.579373 186.61188,99.953982 191.56147,103.30037 C 195.63687,98.565437 197.39831,105.64307 198.61931,109.27833 L 199.78224,108.80878 L 199.78225,108.80878 z M 265.28055,108.21195 C 263.8522,104.01662 264.91844,112.07751 265.28055,108.21195 z M 180.84365,108.5606 C 178.938,106.5414 178.28545,109.64241 180.84365,108.5606 z M 202.09647,107.31645 C 200.49992,106.21934 200.97092,109.3472 202.09647,107.31645 z M 269.01009,107.64412 C 268.38706,106.42208 266.59588,109.55537 269.01009,107.64412 z M 273.78884,107.09905 C 272.53698,105.25011 271.71827,110.15291 273.78884,107.09905 z M 110.50279,105.4589 C 106.58796,102.89515 107.22255,106.17441 110.50279,105.4589 L 110.50279,105.4589 z M 270.16295,104.0862 C 273.19509,100.67878 261.78381,108.64431 270.16295,104.0862 L 270.16295,104.0862 z M 112.77717,103.61675 C 111.00803,101.83955 112.61497,105.5735 112.77717,103.61675 z M 262.11727,103.62332 C 261.49432,102.40126 259.70307,105.53456 262.11727,103.62332 z M 183.81508,102.98913 C 189.48405,105.04723 189.85167,97.749759 183.30075,100.88833 C 182.69341,101.20977 181.04122,105.49167 183.81508,102.98913 z M 109.93899,102.16246 C 104.59256,99.188008 112.59185,104.96512 109.93899,102.16246 z M 264.70615,101.85011 C 262.40926,100.65088 262.67472,104.72177 264.70615,101.85011 z M 268.56067,100.38701 C 266.09178,99.745723 264.24298,103.66616 268.56067,100.38701 z M 272.28105,101.50115 C 268.74938,100.92498 273.34787,102.61239 272.28105,101.50115 z M 140.94699,266.13298 C 145.99007,261.94314 144.84937,250.67897 150.68762,245.02806 C 152.59504,240.09159 156.81535,240.35973 152.36062,243.54349 C 146.30469,249.98183 146.67226,260.29414 142.4229,266.60441 C 142.19738,266.64709 140.54177,267.04842 140.94699,266.13298 z M 137.62,265.2692 C 132.90594,262.37575 141.93697,265.08916 136.12229,262.93895 C 128.33189,264.26051 135.3086,255.5216 136.48407,258.20048 C 141.35015,252.9703 140.71615,245.50014 143.06165,238.31736 C 144.44569,230.92562 150.10941,224.57449 155.83125,217.34807 C 159.34664,215.31523 162.20533,205.44468 162.36673,205.43374 C 162.79131,213.16396 155.78691,218.46998 151.60519,224.25432 C 143.72161,232.62542 143.3249,244.61979 140.1054,255.0305 C 139.38795,259.14023 129.62183,262.12939 136.41314,260.58905 C 135.19512,260.70686 143.98724,268.00011 137.62,265.2692 z M 139.76112,263.85366 C 141.47015,260.84696 144.71552,265.91765 139.76112,263.85366 L 139.76112,263.85366 z M 244.14157,259.44532 C 247.45606,255.4541 245.36689,262.06467 243.22597,260.59436 L 244.14157,259.44532 L 244.14157,259.44532 z M 190.65381,256.74236 C 191.10969,253.82733 191.20602,259.0759 190.65381,256.74236 z M 154.99562,239.17529 C 159.7533,232.29787 156.43679,237.2265 154.99562,239.17529 z M 191.90086,233.59427 C 197.97473,233.31949 194.6856,234.14186 191.90086,233.59427 z M 156.94823,235.77963 C 160.02225,230.48711 160.44731,223.22358 167.09221,220.55893 C 162.40413,224.93258 159.2095,229.7767 156.94823,235.77963 z M 174.39008,229.71509 C 175.21468,225.83204 175.25549,218.13579 173.39685,212.82079 C 172.6321,212.57318 163.59245,225.10364 168.53422,217.22795 C 171.4882,215.19314 174.74162,201.07277 174.35712,210.84579 C 175.24311,217.37115 177.61377,224.13326 174.39008,229.71509 z M 192.95141,225.15033 C 193.40728,222.23518 193.50364,227.48393 192.95141,225.15033 z M 217.3181,224.24088 C 217.45186,222.15897 219.04415,226.1017 217.3181,224.24088 z M 212.43568,221.36887 C 213.8648,219.13265 213.8648,223.6051 212.43568,221.36887 z M 211.07064,220.48507 C 209.90378,216.43704 212.85501,223.03211 211.07064,220.48507 z M 213.31157,209.32957 C 212.68893,206.54161 215.83807,210.03506 213.31157,209.32957 z M 172.91402,204.99845 C 173.02579,200.34562 173.35089,208.5462 172.91402,204.99845 z M 195.39054,202.2712 C 194.57544,197.0526 188.75071,198.0735 192.00831,192.94536 C 192.82269,186.8006 192.5056,197.07162 194.04606,195.93527 C 193.78699,196.87763 199.07098,208.59009 195.39054,202.2712 z M 162.78062,202.41365 C 163.232,196.3873 167.62409,195.15733 162.78062,202.41365 z M 189.01851,201.83924 C 189.40393,197.27801 189.30093,206.11683 189.01851,201.83924 z M 179.98206,201.83924 C 184.84405,197.93969 177.18551,205.52358 179.98206,201.83924 z M 172.3137,196.84716 C 172.3463,188.08635 173.56339,195.68068 172.55371,200.08024 C 172.18272,199.04477 172.47367,197.90803 172.3137,196.84716 z M 183.76177,197.24405 C 186.7648,191.78487 182.39559,200.98831 183.76177,197.24405 z M 189.45966,197.24405 C 183.44316,196.01979 192.97082,194.69188 189.45966,197.24404 L 189.45966,197.24405 z M 165.38018,195.22509 C 167.34733,188.57301 172.01528,182.99915 173.2763,176.05786 C 174.3641,168.6422 176.91887,164.00128 174.41251,156.46159 C 179.68249,160.8516 173.71678,169.66908 177.53985,172.93964 C 169.88761,173.47128 175.87678,189.03916 170.55846,186.16835 C 168.47161,188.73327 166.80021,193.18279 165.38018,195.22509 z M 186.08332,194.08484 C 188.73231,189.57598 186.63803,189.71409 183.87073,187.015 C 188.86682,186.39284 191.53408,190.15517 189.00261,194.08056 C 188.27156,187.47702 185.49878,199.0884 186.08332,194.08484 z M 172.91402,189.48963 C 173.02579,184.83676 173.35089,193.03739 172.91402,189.48963 z M 191.30478,189.33882 C 187.83673,187.37353 192.18618,179.46813 191.27784,186.99945 C 194.41618,190.64949 193.87032,181.51903 195.68045,186.67796 C 199.44345,181.08176 195.25418,192.51038 191.30478,189.33882 z M 189.45181,172.14792 C 187.26965,166.40244 192.93728,171.35062 189.45182,172.14792 L 189.45181,172.14792 z M 188.35621,168.34266 C 189.60612,163.58591 192.26504,167.33063 188.35621,168.34266 z M 182.56685,164.5371 C 183.77089,162.47468 184.12922,165.80638 182.56685,164.5371 z M 189.20278,163.97785 C 189.24735,161.02308 191.86555,165.25942 189.20278,163.97785 z M 196.36125,162.92359 C 198.31438,157.76392 199.45602,165.13635 196.36125,162.92359 z M 173.74312,155.0256 C 175.38756,152.35632 173.83591,157.8684 173.74312,155.0256 z M 171.65324,122.31866 C 172.58078,120.43642 174.06862,123.56195 171.65324,122.31866 L 171.65324,122.31866 z M 170.3499,112.43038 C 174.41613,111.99977 170.57321,113.3545 170.3499,112.43038 z "
       style="fill:#000000" />
  </g>
</svg>
