<?xml version="1.0" encoding="UTF-8" standalone="no"?>
<!-- Created with Inkscape (http://www.inkscape.org/) -->
<svg
   xmlns:dc="http://purl.org/dc/elements/1.1/"
   xmlns:cc="http://creativecommons.org/ns#"
   xmlns:rdf="http://www.w3.org/1999/02/22-rdf-syntax-ns#"
   xmlns:svg="http://www.w3.org/2000/svg"
   xmlns="http://www.w3.org/2000/svg"
   xmlns:xlink="http://www.w3.org/1999/xlink"
   xmlns:sodipodi="http://sodipodi.sourceforge.net/DTD/sodipodi-0.dtd"
   xmlns:inkscape="http://www.inkscape.org/namespaces/inkscape"
   width="234.49323"
   height="234.49323"
   id="svg6363"
   sodipodi:version="0.32"
   inkscape:version="0.46"
   version="1.0"
   sodipodi:docname="earth.svg"
   inkscape:output_extension="org.inkscape.output.svg.inkscape">
  <defs
     id="defs6365">
    <linearGradient
       inkscape:collect="always"
       id="linearGradient5850">
      <stop
         style="stop-color:#2e3436;stop-opacity:1;"
         offset="0"
         id="stop5852" />
      <stop
         style="stop-color:#2e3436;stop-opacity:0;"
         offset="1"
         id="stop5854" />
    </linearGradient>
    <linearGradient
       inkscape:collect="always"
       xlink:href="#linearGradient5850"
       id="linearGradient5856"
       x1="20.916479"
       y1="32.256645"
       x2="20.562359"
       y2="26.220106"
       gradientUnits="userSpaceOnUse"
       gradientTransform="matrix(9.7661323,-4.9367792,4.9367792,9.7661323,58.06144,453.42896)" />
    <linearGradient
       id="linearGradient3562">
      <stop
         style="stop-color:#4e9a06;stop-opacity:1;"
         offset="0"
         id="stop3564" />
      <stop
         style="stop-color:#595b5b;stop-opacity:0.57615894;"
         offset="1"
         id="stop3566" />
    </linearGradient>
    <radialGradient
       inkscape:collect="always"
       xlink:href="#linearGradient3562"
       id="radialGradient3568"
       cx="127.04796"
       cy="383.233"
       fx="127.04796"
       fy="383.233"
       r="110.1875"
       gradientTransform="matrix(1.1160848,1.1147293,-1.017189,1.0184261,601.33904,-3.7697074)"
       gradientUnits="userSpaceOnUse" />
    <linearGradient
       inkscape:collect="always"
       id="linearGradient5495">
      <stop
         style="stop-color:#ffffff;stop-opacity:1;"
         offset="0"
         id="stop5497" />
      <stop
         style="stop-color:#ffffff;stop-opacity:0;"
         offset="1"
         id="stop5499" />
    </linearGradient>
    <linearGradient
       inkscape:collect="always"
       xlink:href="#linearGradient5495"
       id="linearGradient5501"
       x1="416.13235"
       y1="757.6485"
       x2="423.55698"
       y2="829.77338"
       gradientUnits="userSpaceOnUse"
       gradientTransform="matrix(1.0873425,-0.5631731,0.5631731,1.0873425,-577.6033,-147.28387)" />
    <linearGradient
       inkscape:collect="always"
       id="linearGradient7803">
      <stop
         style="stop-color:#eff3f8;stop-opacity:1;"
         offset="0"
         id="stop7805" />
      <stop
         style="stop-color:#eff3f8;stop-opacity:0;"
         offset="1"
         id="stop7807" />
    </linearGradient>
    <linearGradient
       inkscape:collect="always"
       xlink:href="#linearGradient7803"
       id="linearGradient7809"
       x1="110.91663"
       y1="364.73892"
       x2="131.95299"
       y2="428.73206"
       gradientUnits="userSpaceOnUse"
       gradientTransform="translate(223.53922,136.379)" />
    <inkscape:perspective
       sodipodi:type="inkscape:persp3d"
       inkscape:vp_x="0 : 526.18109 : 1"
       inkscape:vp_y="0 : 1000 : 0"
       inkscape:vp_z="744.09448 : 526.18109 : 1"
       inkscape:persp3d-origin="372.04724 : 350.78739 : 1"
       id="perspective6371" />
  </defs>
  <sodipodi:namedview
     id="base"
     pagecolor="#ffffff"
     bordercolor="#666666"
     borderopacity="1.0"
     inkscape:pageopacity="0.0"
     inkscape:pageshadow="2"
     inkscape:zoom="0.35"
     inkscape:cx="350"
     inkscape:cy="520"
     inkscape:document-units="px"
     inkscape:current-layer="layer1"
     showgrid="false"
     inkscape:window-width="640"
     inkscape:window-height="635"
     inkscape:window-x="268"
     inkscape:window-y="172" />
  <metadata
     id="metadata6368">
    <rdf:RDF>
      <cc:Work
         rdf:about="">
        <dc:format>image/svg+xml</dc:format>
        <dc:type
           rdf:resource="http://purl.org/dc/dcmitype/StillImage" />
      </cc:Work>
    </rdf:RDF>
  </metadata>
  <g
     inkscape:label="Capa 1"
     inkscape:groupmode="layer"
     id="layer1"
     transform="translate(-232.75339,-415.11557)">
    <path
       id="path3300"
       style="fill:#3465a4;fill-opacity:1;fill-rule:nonzero;stroke:none;stroke-width:8;stroke-linecap:butt;stroke-linejoin:miter;marker:none;stroke-miterlimit:4;stroke-dashoffset:0;stroke-opacity:1;visibility:visible;display:inline;overflow:visible"
       d="M 467.24661,532.36218 C 467.24661,597.1157 414.75352,649.60879 350.00001,649.60879 C 285.24649,649.60879 232.75339,597.1157 232.75339,532.36218 C 232.75339,467.60866 285.24649,415.11557 350.00001,415.11557 C 414.75352,415.11557 467.24661,467.60866 467.24661,532.36218 L 467.24661,532.36218 z" />
    <path
       style="fill:url(#linearGradient5856);fill-opacity:1;fill-rule:nonzero;stroke:none;stroke-width:8;stroke-linecap:butt;stroke-linejoin:miter;marker:none;stroke-miterlimit:4;stroke-dashoffset:0;stroke-opacity:1;visibility:visible;display:inline;overflow:visible"
       d="M 325.5985,640.05791 C 349.88854,646.22308 376.22557,643.97059 400.3471,631.77717 C 424.46864,619.58373 441.89904,599.71177 451.33745,576.49689 L 325.5985,640.05791 z"
       id="path5843" />
    <path
       style="font-size:40px;font-style:normal;font-variant:normal;font-weight:normal;font-stretch:normal;fill:url(#radialGradient3568);fill-opacity:1;stroke:none;stroke-width:1px;stroke-linecap:butt;stroke-linejoin:miter;stroke-opacity:1;font-family:GeoBats;-inkscape-font-specification:GeoBats"
       d="M 332.38365,431.39986 C 331.82156,431.25678 331.24367,431.12017 330.64773,430.99567 C 330.49816,430.93133 330.18766,430.992 329.68892,431.18985 C 329.26101,431.35972 328.97332,431.52694 328.83777,431.70444 C 328.75155,431.90373 328.62055,432.36385 328.44087,433.05388 C 328.31053,433.76571 328.27394,434.25149 328.33752,434.51499 C 326.41044,433.50588 324.5528,432.65991 322.76759,432.00691 C 320.98196,431.3542 319.2094,430.88201 317.46606,430.54244 C 316.04704,430.22187 314.58647,430.0206 313.06558,429.9364 C 309.20168,431.39506 305.42166,433.03206 301.75257,434.90819 C 302.28378,435.09696 302.77645,435.27994 303.19008,435.45836 C 303.759,435.6452 304.18361,435.78379 304.43272,435.89114 L 303.91758,437.07916 L 300.46605,435.59651 C 299.6633,436.02036 298.86847,436.44983 298.07645,436.89321 C 298.21718,437.26279 298.40341,437.58926 298.61878,437.88133 C 299.06551,438.48793 299.59336,439.03064 300.22603,439.48082 C 300.87981,439.88149 301.58117,440.24425 302.32812,440.56658 C 303.09618,440.83939 303.82841,441.1183 304.52557,441.41914 C 305.22235,441.72025 305.80898,442.13599 306.2991,442.64274 C 306.8601,443.12148 307.2481,443.74587 307.43838,444.53662 C 307.69954,445.29935 307.73811,446.25871 307.53578,447.4115 C 307.40433,448.53629 306.96138,449.92148 306.25216,451.5642 C 306.65023,451.73631 307.04683,451.75777 307.40343,451.61623 C 307.80942,451.49642 308.13271,451.48184 308.38183,451.5892 C 308.33864,451.68889 308.34338,451.92538 308.41372,452.30995 C 308.48367,452.69478 308.44528,452.90336 308.30292,452.95979 C 308.23144,452.9882 308.09856,453.01087 307.87813,452.97453 C 307.70709,452.95994 307.50906,452.91637 307.28863,452.88002 C 307.0678,452.84394 306.85922,452.80556 306.63879,452.76922 C 306.41796,452.73314 306.25491,452.74765 306.18383,452.7758 C 306.08406,452.73294 305.9851,452.79125 305.8993,452.99028 C 305.87761,453.04019 305.84673,453.12404 305.80394,453.22348 C 305.81053,453.34467 305.8559,453.42386 305.90589,453.44524 L 308.21046,456.65738 L 308.2056,456.91503 C 308.03342,457.31342 307.71486,457.56451 307.25909,457.66282 C 306.82441,457.71159 306.32294,457.8299 305.7744,458.00627 C 305.24694,458.13311 304.725,458.35638 304.16174,458.7036 C 303.61958,459.00128 303.15552,459.54946 302.81175,460.34587 C 302.76856,460.44556 302.70977,460.57254 302.64547,460.72176 C 302.63057,460.89272 302.63747,461.02025 302.61617,461.06992 C 302.57297,461.16961 302.53754,461.33745 302.52981,461.62925 C 302.59298,461.893 302.64309,462.20868 302.66365,462.57177 C 302.7336,462.95658 302.7506,463.30485 302.74287,463.59664 C 302.78454,463.91016 302.80665,464.10873 302.78534,464.1584 C 302.77044,464.32936 302.67846,464.67547 302.49196,465.24448 C 302.30508,465.81371 302.08736,466.44393 301.85787,467.11251 C 301.64949,467.73152 301.43178,468.36173 301.22378,468.98053 C 301.0369,469.54976 300.94491,469.89588 300.9304,470.06661 C 300.80009,470.77839 300.82648,471.4394 301.05295,472.00955 C 301.35033,472.55161 301.72087,473.0537 302.1612,473.53898 C 302.65092,474.04597 303.16876,474.52819 303.68037,474.9852 C 304.26286,475.41413 304.69926,475.89044 305.01853,476.38252 C 305.01833,476.38263 305.03409,476.38797 305.06257,476.45915 C 305.16193,476.50226 305.23763,476.56329 305.28762,476.58469 C 306.03417,476.90727 306.877,476.64444 307.82649,475.81386 C 308.82535,475.00499 309.81942,474.04314 310.77683,472.92064 C 311.80511,471.77007 312.75675,470.68831 313.64967,469.71516 C 314.54217,468.74224 315.34179,468.29125 316.02539,468.34997 C 317.56282,468.48246 319.10406,468.62313 320.64191,468.75541 C 322.22911,468.90939 323.80122,468.96621 325.35379,468.92765 C 326.97719,468.86102 328.54991,468.66559 330.11041,468.33509 C 331.74174,467.97652 333.33058,467.40027 334.84242,466.6353 L 330.91532,463.43805 C 331.18665,463.08288 331.48954,462.98671 331.83825,463.13707 C 332.20801,463.23788 332.54876,463.34562 332.84769,463.47448 C 333.69378,463.84007 334.30842,464.37292 334.71258,465.07883 C 335.16606,465.80648 335.81327,466.37247 336.65983,466.7378 L 336.95337,466.84946 C 337.0742,466.84279 337.25701,466.81534 337.47109,466.73035 C 337.75599,466.61733 337.90919,466.51601 337.93091,466.46612 C 337.97368,466.36666 337.93876,466.12204 337.86885,465.73721 C 337.86975,465.32435 337.85741,465.05232 337.80107,464.90965 L 339.22229,465.52016 C 339.6735,464.47483 339.78983,463.53115 339.5717,462.66887 C 341.52207,462.8025 342.90072,461.88431 343.73936,459.94264 L 343.99286,459.36371 C 344.01412,459.31404 344.03274,459.11843 344.04089,458.8264 C 344.09836,458.55611 344.15706,458.26887 344.18672,457.92706 C 344.26568,457.60697 344.29941,457.32217 344.28608,457.0799 C 344.34355,456.80962 344.38953,456.63658 344.43277,456.53687 C 344.47553,456.43743 344.588,456.33317 344.80208,456.24819 C 345.06548,456.18495 345.25883,456.1523 345.38015,456.14538 C 345.50097,456.13873 345.73971,456.18527 346.06016,456.26433 C 346.4299,456.36516 346.77359,456.43217 347.09404,456.51125 C 347.48528,456.56229 347.84581,456.65707 348.16624,456.73614 C 348.4862,456.81547 348.69997,456.8644 348.79978,456.90728 C 348.82104,456.85762 348.81879,456.80635 348.84053,456.75643 C 348.93307,456.67849 349.00467,456.59758 349.0264,456.54768 C 349.15515,456.2491 349.09743,455.89788 348.85667,455.49836 C 348.66522,455.12058 348.40132,454.75597 348.08929,454.38471 C 347.82655,454.03522 347.57012,453.73241 347.26487,453.48223 C 346.98064,453.18252 346.79254,453.03917 346.74299,453.01756 C 348.11745,452.84345 349.10292,452.48453 349.68134,451.9662 C 350.33054,451.41983 350.924,450.95543 351.45941,450.53667 C 352.04413,450.13966 352.7291,449.90189 353.52702,449.83276 C 354.39573,449.73559 355.70055,450.04126 357.44323,450.79354 L 357.97467,449.54518 C 357.99591,449.49553 357.92237,449.32553 357.68842,449.04705 C 357.52524,448.74056 357.23638,448.37833 356.87457,447.98558 C 356.56204,447.61459 356.21655,447.27036 355.83324,446.9274 C 355.52071,446.55642 355.23411,446.24546 354.97865,446.01678 C 354.97839,446.01692 354.88159,445.96628 354.63292,445.85865 C 354.45504,445.72301 354.29029,445.62054 354.19097,445.57741 C 353.39418,445.23359 352.585,445.05134 351.73101,444.97765 C 350.94779,444.87596 350.15213,444.64776 349.35583,444.30367 L 349.07044,444.16184 C 349.56238,443.84291 350.01031,443.67559 350.44504,443.62679 C 350.95055,443.55 351.4317,443.51034 351.8947,443.53284 C 352.4285,443.52732 352.90963,443.4877 353.34437,443.43889 C 353.82838,443.41186 354.31705,443.24749 354.80947,442.92829 L 354.1007,441.11833 C 354.12195,441.06867 353.93905,440.93588 353.56252,440.71399 C 353.207,440.44258 352.76255,440.15668 352.23667,439.87029 C 351.73179,439.53439 351.19294,439.22281 350.61728,438.91492 C 350.09091,438.62879 349.6511,438.41914 349.30286,438.26852 L 348.49889,437.8895 C 347.95102,437.65316 347.308,437.38938 346.61127,437.08826 C 345.98534,436.75914 345.36488,436.46799 344.71793,436.18837 L 342.98115,435.42789 C 340.84023,434.50363 338.8497,433.68031 336.98644,432.93454 C 335.60478,432.33809 334.06991,431.82909 332.38365,431.39986 z M 343.15135,440.07041 C 343.35773,440.12258 343.55168,440.21316 343.73843,440.29374 L 346.12261,441.29385 L 346.73171,441.5555 C 346.98038,441.66312 347.24193,441.81624 347.51938,441.99486 C 347.86763,442.14548 348.1647,442.29099 348.41386,442.39834 L 348.9406,442.60537 C 348.3339,443.05243 347.89302,443.32096 347.62964,443.38419 C 347.43705,443.4194 347.1015,443.32223 346.6039,443.10711 L 345.85211,442.77455 C 345.70252,442.71019 345.38969,442.55934 344.91359,442.29443 C 344.43702,442.0298 343.91631,441.74858 343.39043,441.46217 C 342.88556,441.12628 342.39798,440.81246 341.92188,440.54755 C 341.49509,440.30443 341.21538,440.12101 341.03798,439.98508 C 341.83378,439.8859 342.53222,439.91391 343.15135,440.07041 z M 387.18084,460.89825 C 386.90109,461.54557 386.89421,462.26544 387.15584,463.02792 C 387.48821,463.76234 387.96471,464.49387 388.53976,465.21449 C 389.13575,465.88554 389.7632,466.46448 390.42424,466.98598 C 391.13451,467.52918 391.71354,467.90941 392.16188,468.10277 C 392.36073,468.18887 392.78774,468.35243 393.4567,468.58202 C 394.12511,468.81182 394.80435,468.97601 395.51632,469.10601 C 396.29899,469.20796 397.01889,469.21484 397.646,469.13101 C 398.32231,469.0689 398.75504,468.83051 398.94881,468.38236 C 398.97002,468.33269 398.96537,468.25643 398.93737,468.18505 C 398.98008,468.08558 399.00799,468.04247 399.00829,468.04235 C 397.4319,466.35773 395.55732,464.97696 393.43163,463.88158 C 391.30536,462.78645 389.22168,461.77977 387.18084,460.89825 z M 378.23305,459.03147 C 377.82732,458.94496 377.42303,458.9747 377.03288,459.16045 C 376.53364,459.35857 376.18646,459.74477 375.95026,460.29229 L 375.64214,460.95357 C 375.67017,461.02497 375.72779,461.21592 375.79142,461.47945 C 375.92579,461.71492 376.02494,461.97707 376.11685,462.31187 C 376.27951,462.6186 376.44139,462.92203 376.55481,463.20705 C 376.68917,463.44252 376.75216,463.61772 376.78072,463.68889 C 376.78723,463.81007 376.70573,463.99073 376.52722,464.26781 C 376.36968,464.49535 376.21658,464.7569 376.08786,465.05549 C 375.87261,465.55344 375.94778,466.02699 376.28862,466.46927 C 377.10751,466.35057 377.77682,466.26774 378.33264,466.21217 C 378.88791,466.15684 379.46516,466.25984 380.06283,466.51769 C 380.16213,466.56079 380.2943,466.63016 380.42243,466.74431 C 380.57151,466.8089 380.65536,466.83978 380.65563,466.83968 C 379.79998,467.17922 379.08948,467.48506 378.56929,467.73275 C 378.04855,467.98065 377.65074,468.46364 377.32853,469.21031 C 377.15628,469.60869 377.1424,470.0408 377.31239,470.46838 C 377.53162,470.91767 377.81071,471.35335 378.15155,471.79564 C 378.51334,472.18837 378.90195,472.56052 379.33557,472.92474 C 379.79013,473.2394 380.18627,473.48681 380.53503,473.63719 C 380.98281,473.83077 381.41788,473.80393 381.81755,473.56282 C 382.21667,473.32194 382.5609,472.97645 382.87573,472.52149 C 383.23977,472.08827 383.5612,471.6362 383.82624,471.15975 C 384.09072,470.68353 384.34575,470.32291 384.57458,470.0671 C 384.62409,470.0887 384.67537,470.08645 384.72542,470.10784 C 384.79642,470.07968 384.87267,470.07502 384.92273,470.0964 C 385.42029,470.31148 385.75299,470.60964 385.94447,470.98744 C 386.1354,471.36546 386.28698,471.80802 386.43547,472.2854 C 386.60492,472.71319 386.84088,473.12097 387.13194,473.54175 C 387.42244,473.96276 387.92283,474.32264 388.62008,474.62351 L 389.65036,472.24747 C 389.67157,472.19781 389.59818,472.00147 389.45704,471.64496 C 389.33684,471.23887 389.18007,470.78575 388.98234,470.28666 C 388.83384,469.80931 388.63393,469.32824 388.36494,468.85745 C 388.16665,468.3586 387.97901,467.98933 387.79487,467.73236 C 387.7663,467.66119 387.62707,467.49063 387.37164,467.26196 C 387.13716,466.98374 386.84999,466.73849 386.54479,466.48831 C 386.26051,466.18859 385.97912,465.88819 385.67389,465.63802 C 385.4394,465.35981 385.28442,465.18386 385.20663,465.09099 C 385.00043,464.88405 384.79473,464.64469 384.56079,464.36624 C 384.3263,464.08802 384.21445,463.94 384.23622,463.89012 C 384.1375,463.43426 384.12587,463.07023 384.23363,462.82121 C 384.41213,462.54413 384.52675,462.33089 384.54175,462.15993 C 384.62746,461.96091 384.52151,461.73146 384.26608,461.5028 C 384.05988,461.29586 383.52621,460.99485 382.63038,460.60777 L 381.78268,462.54757 C 381.38414,462.37571 381.06665,462.14862 380.83272,461.87015 C 380.66952,461.56364 380.48654,461.2706 380.27409,460.94237 C 380.1324,460.58607 379.91683,460.25994 379.63311,459.95996 C 379.42013,459.63196 379.09505,459.36933 378.64726,459.17573 C 378.51029,459.11665 378.36829,459.06031 378.23305,459.03147 z M 423.90449,478.81383 C 423.64115,478.77394 423.37371,478.76604 423.07121,478.78295 C 422.46557,478.81699 422.03749,479.13162 421.77984,479.72892 L 421.62985,480.04447 C 421.68612,480.18714 421.7595,480.38344 421.82317,480.64699 C 421.90771,480.86094 421.97125,480.97046 422.02134,480.99185 L 425.71892,481.08432 C 425.71861,481.08442 425.72156,481.04369 425.74337,480.99381 C 425.83584,480.91583 425.89928,480.86511 425.92109,480.81523 C 426.13575,480.31749 426.07043,479.93077 425.71548,479.6591 C 425.40967,479.40914 425.05665,479.18966 424.65871,479.01757 C 424.43453,478.92088 424.16783,478.85371 423.90449,478.81383 z M 288.95517,442.61891 C 287.11955,443.89489 285.30077,445.20857 283.54346,446.59522 C 283.93533,447.0137 284.28003,447.46291 284.54161,447.93306 C 285.02342,448.732 285.07782,449.51014 284.75553,450.25675 C 284.38989,451.10321 283.83422,451.61127 283.04352,451.80123 C 282.27395,451.94166 281.44455,451.9983 280.56898,451.97441 C 279.69307,451.95077 278.85845,451.99687 278.11074,452.08725 C 277.38418,452.12811 276.88211,452.49864 276.58131,453.19549 L 276.46965,453.48903 C 276.48192,454.14426 276.82695,454.71444 277.55916,455.20763 C 278.31254,455.65128 279.00334,456.01923 279.60092,456.27709 C 280.09858,456.49219 280.36828,456.61513 280.39674,456.68628 C 280.50293,456.85047 280.75866,457.24528 281.15598,457.83011 C 281.60272,458.43669 282.00368,459.08086 282.40778,459.78676 C 282.86131,460.5144 283.28949,461.20745 283.6653,461.84207 C 284.06227,462.42714 284.32615,462.79177 284.43268,462.95573 C 284.48908,463.0984 284.61094,463.30689 284.84533,463.58512 C 285.12914,463.88507 285.32485,464.06393 285.4031,464.1566 C 285.4527,464.17822 285.50343,464.24167 285.58168,464.33432 C 285.73085,464.39894 285.81469,464.42982 285.81488,464.42968 C 286.18016,463.58347 286.63437,462.94852 287.16973,462.52976 C 287.72622,462.06146 288.17523,461.41595 288.54087,460.5695 C 288.79866,459.97222 288.90166,459.39496 288.8464,458.83931 C 288.84056,458.30538 288.98428,457.73109 289.24243,457.13357 L 289.3541,456.84003 L 291.94233,459.4814 C 292.1492,459.2756 292.43984,459.06763 292.81793,458.8763 C 293.21715,458.63541 293.61195,458.37967 293.96175,458.11707 C 294.36096,457.8762 294.68193,457.65008 294.96045,457.41574 C 295.2601,457.13188 295.45168,456.82199 295.53107,456.50167 C 295.53881,456.20988 295.34131,455.75382 294.96586,455.11893 C 294.59004,454.48431 294.16411,453.84253 293.66759,453.21446 C 293.24198,452.55835 292.83125,451.98764 292.4411,451.52361 C 292.05057,451.05983 291.87742,450.85361 291.87761,450.85347 C 291.92042,450.75403 291.9513,450.67017 291.97297,450.62027 C 292.06557,450.54233 292.10405,450.494 292.10423,450.49387 C 292.19682,450.41593 292.37273,450.26097 292.65126,450.02661 C 293.00069,449.76425 293.20972,449.5767 293.25291,449.47699 C 293.63968,448.58102 293.6769,447.84296 293.40101,447.25109 C 293.19603,446.6312 292.85861,446.09654 292.34738,445.6393 C 291.83578,445.18234 291.28467,444.75899 290.68066,444.37982 C 290.07629,444.00091 289.57071,443.63045 289.20882,443.23772 C 289.18035,443.16657 289.11217,442.98079 288.99921,442.69555 C 288.98846,442.66853 288.96591,442.64592 288.95517,442.61891 z M 337.99219,461.20635 C 338.08295,461.22705 338.1861,461.27505 338.28573,461.31801 C 338.33528,461.33963 338.3836,461.37812 338.41212,461.44927 C 338.46167,461.47089 338.5048,461.49882 338.55482,461.52018 C 338.1201,461.56897 337.71305,461.71292 337.36366,461.9753 C 337.01381,462.23792 336.73303,462.53268 336.48321,462.83804 C 336.50448,462.78837 336.49463,462.70157 336.48807,462.5804 C 336.55233,462.43117 336.61113,462.30417 336.65435,462.2045 C 336.82609,461.80636 337.05025,461.5296 337.30732,461.34505 C 337.49978,461.20682 337.71992,461.14424 337.99219,461.20635 z M 454.12943,493.22592 C 453.92492,493.15237 453.70819,493.1212 453.48773,493.08495 C 453.11741,492.98433 452.75858,493.00654 452.40252,493.14787 C 452.09555,493.31089 451.83293,493.63598 451.61829,494.13372 C 451.57496,494.23338 451.48825,494.40348 451.3811,494.65231 C 451.34454,494.87303 451.32352,495.04368 451.28088,495.14316 C 451.50795,495.30051 451.91223,495.51779 452.48848,495.82544 C 453.06404,496.13328 453.64604,496.47277 454.25057,496.85172 C 454.9257,497.20256 455.5432,497.53443 456.11946,497.84212 C 456.27526,497.92545 456.33329,497.93161 456.46518,498.00025 C 455.96155,496.50459 455.37908,495.04296 454.81273,493.57235 C 454.77425,493.55572 454.73866,493.52622 454.7002,493.50958 C 454.51164,493.39875 454.33393,493.29947 454.12943,493.22592 z M 337.76173,463.37763 C 338.10999,463.52823 338.16545,463.82819 337.97221,464.27611 C 337.79999,464.6745 337.54022,464.79862 337.19197,464.64801 C 336.84326,464.49765 336.75468,464.23026 336.92688,463.83189 C 337.12013,463.38395 337.41302,463.22726 337.76173,463.37763 z M 427.49684,490.91954 C 424.7473,490.13102 422.18868,490.02261 419.81628,490.59277 C 416.67394,491.30339 413.54628,492.95819 410.41361,495.56269 L 410.30194,495.85623 C 410.17265,496.15502 410.16174,496.54639 410.31025,497.02379 C 410.52944,497.47307 410.8056,497.94948 411.12496,498.44156 C 411.44371,498.93383 411.79906,499.36485 412.16143,499.75739 C 412.59446,500.1218 412.95508,500.37683 413.25408,500.50573 L 413.53947,500.64756 C 413.71002,500.66235 413.98723,500.66058 414.35074,500.64012 C 414.7849,500.59155 415.02954,500.55666 415.07964,500.57806 C 415.07933,500.57815 415.07415,500.56757 415.09594,500.51772 C 415.18841,500.43972 415.2548,500.34828 415.29811,500.24863 C 415.44828,499.90023 415.50529,499.49604 415.45695,499.06147 C 415.40799,498.62707 415.32747,498.16927 415.17955,497.69174 C 415.08082,497.23584 415.0027,496.80303 414.95435,496.36847 C 414.92688,495.8843 415.00661,495.42642 415.2004,494.97828 L 415.59815,493.98514 C 416.13189,493.97957 417.15932,493.96651 418.66219,493.90647 C 420.21423,493.8681 421.80442,493.79497 423.44984,493.67836 C 425.11615,493.51213 426.64038,493.30455 427.98713,493.05893 C 429.35473,492.76371 430.13403,492.39137 430.32783,491.94324 C 429.36941,491.52943 428.41335,491.18237 427.49684,490.91954 z M 454.34201,504.06259 C 453.41607,503.79573 452.42007,503.67971 451.29341,503.72462 C 449.84029,503.80615 448.37949,503.96304 446.93384,504.16547 C 445.48751,504.36806 444.11871,504.52565 442.81562,504.67152 C 441.51186,504.81755 440.48899,504.74659 439.74257,504.42406 L 439.43446,505.08534 C 439.24065,505.53347 439.14811,505.94526 439.16882,506.30839 C 439.26013,506.64337 439.52107,507.04871 439.91175,507.51255 L 439.59619,507.36257 C 439.09802,507.14766 438.67853,506.85936 438.31681,506.46667 C 437.97591,506.02434 437.5268,505.66221 436.97951,505.42566 C 436.6307,505.27525 436.35053,505.31777 436.1438,505.52361 C 436.0077,505.70131 435.8801,505.89477 435.72316,506.12212 C 435.56556,506.34961 435.40485,506.57563 435.24791,506.80299 C 435.11181,506.9807 434.87772,507.0104 434.57934,506.88135 C 434.52923,506.85994 434.47555,506.8372 434.37631,506.79414 C 434.29791,506.70144 434.25253,506.62223 434.27436,506.57238 C 434.24575,506.50117 434.26141,506.34626 434.29795,506.12557 C 434.33383,505.90501 434.37221,505.69643 434.40875,505.47573 C 434.46613,505.20538 434.47433,504.98868 434.48938,504.81774 C 434.52526,504.59718 434.53797,504.48301 434.48852,504.46143 L 434.27977,504.27556 C 433.88118,504.10366 433.55787,504.11823 433.30136,504.3026 C 433.0442,504.4871 432.68834,504.46856 432.2406,504.27502 C 431.89178,504.12461 431.65817,503.92836 431.52384,503.69296 C 431.38887,503.4577 431.26477,503.19792 431.15194,502.91272 C 431.03847,502.62767 430.90382,502.37312 430.71971,502.11619 C 430.58474,501.88093 430.32093,501.67654 429.97278,501.52598 C 429.27549,501.2251 428.68017,501.25203 428.16681,501.6208 C 427.72409,501.96144 427.26219,502.40062 426.75562,502.89047 C 426.24841,503.38047 425.71841,503.79413 425.15527,504.14141 C 424.66277,504.46056 424.02968,504.44383 423.28325,504.12127 L 416.78625,501.33039 C 416.61395,501.72874 416.61582,502.16621 416.81414,502.6651 C 417.06162,503.18564 417.27942,503.56309 417.41438,503.79835 C 417.16515,503.69094 416.69984,503.54937 416.08124,503.34111 C 415.46204,503.133 414.78573,502.9281 414.04607,502.72661 C 413.37708,502.49701 412.7415,502.29503 412.10141,502.13656 C 411.4822,501.92845 411.02207,501.79745 410.75197,501.73967 C 409.59872,501.53721 408.4105,501.61602 407.19222,501.97576 C 406.04463,502.30736 404.90177,502.46538 403.73442,502.43362 C 404.23422,501.82272 404.46714,501.26354 404.44029,500.7792 C 404.48412,500.26673 404.36807,499.81656 404.05609,499.44536 C 403.76501,499.02454 403.35383,498.67976 402.87779,498.41492 C 402.42265,498.10046 401.97524,497.85527 401.52748,497.66172 C 400.83926,499.25488 400.05827,500.35765 399.14549,500.96742 C 398.25361,501.52757 397.34974,501.86609 396.48109,501.9633 C 395.68313,502.0324 394.96843,502.03605 394.33511,501.99864 C 393.72271,501.9116 393.34063,502.05314 393.19043,502.40157 L 392.72991,503.50723 C 391.43525,502.94837 390.66346,502.34857 390.45895,501.72845 C 390.27538,501.05871 390.52673,499.98342 391.17195,498.48983 L 396.84867,500.96202 C 397.19687,501.11257 397.43927,501.02639 397.61833,500.74911 C 397.7968,500.47199 397.94992,500.21043 398.05769,499.96143 C 398.20789,499.61304 398.28475,499.35612 398.29975,499.1852 C 398.33566,498.96465 398.21154,498.70489 397.92785,498.40497 L 390.95724,490.17746 C 390.61866,488.9092 390.11469,487.99486 389.45422,487.47317 C 388.84295,486.97316 387.99126,486.51074 386.89631,486.03769 C 385.30294,485.34987 383.54624,485.04329 381.65926,485.1733 C 379.82152,485.32499 377.95815,485.7284 376.02704,486.37095 C 374.16668,486.98541 372.37103,487.80052 370.65263,488.7712 C 368.95519,489.69229 367.47534,490.61751 366.24119,491.56106 C 365.97844,491.21152 365.41398,491.15463 364.53058,491.42267 C 363.66816,491.64114 362.72583,492.02795 361.73493,492.54495 C 360.8148,493.03382 359.94344,493.59201 359.0804,494.22326 C 358.26664,494.87619 357.79256,495.36388 357.64233,495.71226 C 356.88966,497.45478 356.5277,499.07181 356.58791,500.57428 C 356.66913,502.02713 357.5541,503.2781 359.23907,504.30085 C 358.30537,504.54759 357.57907,505.03463 357.03621,505.74511 C 356.49286,506.45573 356.15811,507.27421 356.04182,508.22795 C 354.46094,508.1952 353.26976,508.31476 352.45763,508.55456 C 351.6665,508.74472 350.92102,508.99248 350.23674,509.34654 C 349.62325,509.67247 348.88189,510.06217 348.05504,510.47281 C 347.29899,510.85531 346.20454,511.21207 344.74408,511.58537 C 344.12381,511.79023 343.4569,511.89806 342.75224,511.88894 C 342.04712,511.87995 341.35739,511.88122 340.65274,511.87209 C 339.94761,511.8631 339.24053,511.90227 338.54266,512.01423 C 337.91559,512.09804 337.31223,512.31538 336.74899,512.66266 C 336.74084,512.95465 336.862,513.25516 337.09644,513.5334 C 337.3802,513.83331 337.66977,514.10354 337.97549,514.35352 C 338.28074,514.60364 338.56565,514.79763 338.84309,514.97633 C 339.12007,515.15516 339.32794,515.28553 339.42773,515.32848 C 339.17067,515.51297 339.05307,515.76692 339.09517,516.08027 C 339.18659,516.41525 339.29558,516.7642 339.41574,517.17034 C 339.60672,517.54831 339.75069,517.95536 339.87086,518.36149 C 340.01205,518.71796 340.02665,519.04126 339.89789,519.33989 C 339.55369,520.1365 338.94744,520.55484 338.10023,520.60228 C 337.27405,520.60007 336.36886,520.43541 335.38019,520.12647 C 334.46236,519.78936 333.56004,519.42373 332.66415,519.03672 C 331.78932,518.60004 331.10541,518.35961 330.59309,518.31541 C 330.45709,518.49311 330.22999,518.81059 329.91567,519.26537 C 329.65068,519.74177 329.33686,520.22938 329.00105,520.73392 C 328.73606,521.21032 328.48794,521.69843 328.2234,522.17473 C 327.97991,522.60134 327.79889,522.90601 327.71312,523.1051 L 327.59331,523.4288 C 326.86217,525.1215 326.67659,526.35759 327.03773,527.16314 C 327.39844,527.96878 328.15286,528.60652 329.29811,529.10091 L 331.84701,530.21025 C 331.99614,530.27481 332.34689,530.44304 332.94452,530.70094 C 333.5632,530.90918 333.94707,531.04483 334.09665,531.10928 C 335.17922,530.92716 336.07548,530.55312 336.72517,530.0066 C 337.44567,529.43187 338.06773,528.83233 338.63935,528.19303 C 339.2105,527.55382 339.7515,526.90901 340.25185,526.29797 C 340.82299,525.65875 341.50324,525.18449 342.28757,524.8733 C 343.09292,524.51243 344.06737,524.38466 345.21377,524.46606 C 346.35968,524.5476 347.83166,524.98068 349.62412,525.75454 L 349.91765,525.8662 C 349.77484,525.92284 349.53254,526.16926 349.16845,526.60255 C 348.80388,527.03596 348.53606,527.35047 348.40052,527.52807 L 348.28886,527.8216 L 348.13888,528.13716 C 348.08093,528.40762 347.98895,528.75374 347.8455,529.22323 C 347.77284,529.66455 347.67736,530.11706 347.55541,530.53678 C 347.48275,530.9781 347.42335,531.35732 347.34438,531.67747 C 347.26494,531.99773 347.21895,532.17075 347.19769,532.22051 C 347.20424,532.34162 347.19913,532.49131 347.23444,532.68362 C 347.31906,532.89752 347.42037,533.0507 347.49867,533.14344 C 348.11054,533.23061 348.6068,533.10176 348.99966,532.73965 C 349.44181,532.39913 349.76565,531.97203 350.00236,531.42437 C 350.30987,530.84852 350.54038,530.26438 350.65604,529.72348 C 350.82099,529.20419 350.91297,528.85811 350.94942,528.63741 C 351.04762,529.09344 351.29878,529.57224 351.71766,530.10737 C 352.18584,530.6641 352.63729,531.23776 353.03466,531.82268 C 353.50283,532.3794 353.87284,532.94717 354.17065,533.48908 C 354.46797,534.0311 354.51817,534.50703 354.32494,534.95505 C 354.10971,535.45294 353.70491,535.64818 353.09304,535.56101 C 352.53047,535.49543 352.05987,535.52987 351.70371,535.67126 C 351.70346,535.6713 351.665,535.71963 351.57246,535.79765 C 351.55073,535.84747 351.52279,535.8906 351.50155,535.94035 C 351.47981,535.99016 351.44893,536.07403 351.40618,536.17355 C 351.41272,536.29465 351.41737,536.3709 351.41762,536.37086 C 351.47395,536.51346 351.69471,536.85018 352.04231,537.4136 C 352.41091,537.92732 352.62888,538.27843 352.73548,538.44247 C 352.96378,538.18681 353.38947,537.84721 353.97467,537.45003 C 354.58087,537.00316 355.19713,536.64535 355.86041,536.34092 C 356.59446,536.00834 357.24392,535.77818 357.82122,535.6729 C 358.46929,535.53943 358.91662,535.62438 359.15107,535.90266 C 359.38502,536.18104 359.5394,536.6092 359.57358,537.21449 C 359.62877,537.77007 359.60443,538.36763 359.51756,538.97971 C 359.43018,539.59186 359.29461,540.136 359.12967,540.65528 C 359.01401,541.19614 358.91388,541.57243 358.82814,541.77152 C 358.90596,541.86434 359.08886,541.99712 359.36632,542.17586 C 359.71455,542.32639 359.92778,542.44103 360.0276,542.48397 C 360.7741,542.80649 361.3467,542.83321 361.74635,542.59219 C 362.19528,542.37273 362.53711,542.00225 362.75234,541.50439 C 363.03834,540.9783 363.25551,540.41379 363.41417,539.77334 C 363.59382,539.0832 363.77841,538.48554 363.99365,537.98767 L 365.88127,538.7889 C 365.47255,539.73484 365.10173,540.62659 364.80781,541.4446 C 364.58465,542.2344 364.51191,542.98006 364.5529,543.70639 C 364.66466,544.40453 364.96826,545.06376 365.48672,545.64189 C 366.05444,546.2416 366.95152,546.78323 368.14658,547.29913 L 368.43197,547.44096 C 368.55277,547.43421 368.79742,547.3993 369.16087,547.3789 C 369.59509,547.33028 369.87229,547.3285 369.97214,547.37146 C 370.37014,547.54348 370.50946,547.8743 370.41581,548.3653 C 370.32164,548.85638 370.19358,549.27578 370.04336,549.62423 L 369.90725,550.00828 C 370.25547,550.1588 370.55085,550.18734 370.81474,550.12394 C 371.0996,550.01083 371.31865,549.88377 371.50447,549.72759 C 371.76105,549.54319 372.03817,549.38117 372.29528,549.1967 C 372.57335,548.96253 372.87678,548.80066 373.19047,548.75875 C 373.1472,548.85835 373.02961,549.11229 372.85791,549.51053 C 372.73544,549.93033 372.62545,550.21983 372.56123,550.36913 L 372.00535,551.70799 C 371.68262,552.45477 371.20809,553.1684 370.61547,553.85741 C 370.04383,554.49669 369.34899,554.64765 368.55272,554.30367 C 366.81003,553.55127 365.19105,552.59158 363.64236,551.3911 C 362.14294,550.21215 360.50193,549.21414 358.70997,548.44021 C 358.46081,548.33274 358.07933,548.22208 357.61003,548.07834 C 357.21152,547.90638 357.03086,547.82488 357.03111,547.82485 C 356.86,547.81017 356.55782,547.81437 356.17338,547.88448 C 355.83822,547.97616 355.49685,548.12066 355.1192,548.31185 C 354.76254,548.45332 354.38806,548.63039 354.0104,548.82159 C 353.70352,548.98456 353.48689,549.13656 353.37286,549.2644 C 352.30793,548.03682 351.32569,546.96113 350.42417,546.04011 C 349.54365,545.06937 348.8561,544.11422 348.31777,543.17283 C 347.77896,542.2315 347.45557,541.23843 347.37322,540.19859 C 347.31188,539.10906 347.61217,537.81999 348.25736,536.32643 C 346.31555,535.48807 344.1067,534.69981 341.63811,533.98808 C 339.24035,533.24815 337.0612,532.69398 335.09723,532.3183 C 334.99744,532.27536 334.75574,532.26954 334.39277,532.28985 C 334.05085,532.26049 333.65131,532.27973 333.21706,532.32833 C 332.80385,532.32725 332.40191,532.32153 331.98915,532.32034 C 331.64723,532.29097 331.43865,532.25258 331.33931,532.20953 C 331.2893,532.18809 331.16529,532.08858 330.98787,531.95275 C 330.88129,531.78873 330.73391,531.64834 330.5565,531.51252 C 330.40013,531.327 330.25036,531.16163 330.07293,531.02582 C 329.91657,530.84031 329.81751,530.73841 329.76796,530.71685 L 329.06836,530.43076 L 328.48943,530.17726 C 327.53426,530.47376 326.51327,530.84027 325.44428,531.26451 C 324.39634,531.63906 323.49185,532.22982 322.73512,533.02518 L 319.56232,536.86178 C 319.39805,536.96817 319.02876,537.15583 318.43722,537.43185 C 317.91655,537.67967 317.31782,537.97327 316.655,538.27759 C 316.04154,538.60349 315.44802,538.90764 314.85648,539.18367 C 314.28602,539.40999 313.95226,539.59003 313.83819,539.71785 C 313.50986,539.93061 313.05386,540.28835 312.47589,540.8065 C 311.89752,541.32474 311.31928,541.86018 310.7696,542.44964 C 310.24101,542.98937 309.76398,543.51778 309.30709,544.02914 C 308.87127,544.49081 308.60343,544.80536 308.53915,544.95466 L 303.34701,556.98569 C 303.60704,558.16129 303.79012,559.462 303.87178,560.91474 C 304.02433,562.33926 304.26574,563.73896 304.61103,565.12833 C 304.95592,566.51777 305.47913,567.83163 306.15253,569.00833 C 306.89682,570.15677 307.96873,571.0216 309.36287,571.62353 C 310.65704,572.18247 311.65377,572.5738 312.37245,572.82495 C 313.11221,573.02635 313.73258,573.15728 314.24534,573.20139 C 314.77917,573.19575 315.33137,573.14086 315.90861,573.03566 C 316.50693,572.88067 317.35963,572.70462 318.44262,572.52248 C 318.4922,572.54397 318.57845,572.59985 318.72801,572.66431 C 318.89865,572.67903 319.02856,572.69713 319.12835,572.74008 C 319.5264,572.91208 319.80836,573.14678 319.97151,573.4534 C 320.15572,573.71024 320.12889,574.12258 319.84284,574.6487 C 319.97048,574.76299 320.17914,574.96163 320.51313,575.28295 C 320.91798,575.57601 321.32396,575.9102 321.70773,576.25305 C 322.16235,576.5676 322.54633,576.86349 322.88032,577.18483 C 323.28515,577.47789 323.55136,577.70727 323.67944,577.82151 L 324.06348,577.95762 C 324.51132,578.1511 324.92552,578.26861 325.33871,578.26973 C 325.82275,578.24258 326.36207,578.32821 326.90991,578.56468 C 326.35075,579.85906 325.74228,581.07349 325.09869,582.15404 C 324.45468,583.23456 323.85729,584.37814 323.32007,585.62274 L 322.94677,586.52537 C 322.93184,586.69621 322.92091,587.08761 322.95507,587.69293 C 322.98879,588.29826 323.05349,588.93728 323.11595,589.61386 C 323.17796,590.29045 323.2125,590.92126 323.24665,591.52663 C 323.28037,592.13194 323.29963,592.53146 323.28512,592.70234 C 323.31319,592.77361 323.26138,593.18837 323.10999,593.94984 C 322.97966,594.6615 322.81034,595.49046 322.62274,596.47257 C 322.43471,597.45464 322.23917,598.44368 322.05157,599.4258 C 321.86354,600.40788 321.714,601.22386 321.62709,601.83601 L 321.51543,602.12954 C 320.93478,603.47368 320.13813,604.73134 319.10985,605.88206 C 318.10265,606.98292 317.28102,608.24299 316.6578,609.68676 C 316.44262,610.18456 316.35994,610.68318 316.3873,611.16745 C 316.41425,611.65168 316.46445,612.12761 316.54159,612.63341 C 316.68961,613.11084 316.81847,613.60709 316.94538,614.1344 C 317.09339,614.61183 317.17615,615.12093 317.18203,615.65498 C 317.14901,617.23557 316.99313,618.70578 316.70482,620.05788 C 316.43758,621.36014 316.16985,622.68235 315.90303,623.98467 C 315.6358,625.28692 315.39141,626.65003 315.18118,628.0949 C 314.99201,629.48993 314.93519,631.06202 315.00894,632.80677 C 315.04946,633.53311 315.13519,634.00145 315.27004,634.23685 C 315.45425,634.49364 315.77413,634.74572 316.27218,634.96074 C 318.41267,635.88508 320.48276,636.27682 322.42001,636.16827 C 324.35683,636.0596 326.16893,635.65845 327.90139,634.92987 C 329.65491,634.15139 331.29039,633.14977 332.82484,631.92225 C 334.40864,630.71608 335.92519,629.46528 337.36009,628.19473 L 338.24713,627.78695 C 338.36796,627.78012 338.65038,627.78889 339.04209,627.83984 C 339.50463,627.86241 339.73591,627.84716 339.77915,627.74761 C 340.41366,627.37192 340.93901,626.882 341.36806,626.29936 C 341.79665,625.71662 342.21239,625.12996 342.59166,624.52583 C 342.99196,623.8718 343.41065,623.24443 343.8397,622.6618 C 344.31806,622.10056 344.91966,621.60601 345.62592,621.20211 C 346.07487,620.98257 346.55832,620.80765 347.10732,620.63118 C 347.72711,620.42635 348.33049,620.20899 348.90098,619.98275 C 349.52078,619.77792 350.04327,619.48897 350.4859,619.14844 C 350.97784,618.82934 351.34532,618.3645 351.60355,617.76711 L 356.53405,606.34517 C 357.07125,605.10056 357.88706,604.08219 358.95766,603.24493 C 360.02776,602.40763 361.23049,601.64443 362.57829,600.98597 C 363.94709,600.27766 365.39322,599.63725 366.89037,599.04326 C 368.45829,598.42096 369.9429,597.7322 371.33371,596.97416 C 372.7455,596.16629 374.00182,595.26555 375.13692,594.27896 C 376.2715,593.29233 377.17697,592.06311 377.82217,590.56963 C 378.05837,590.02201 378.18177,589.52636 378.18318,589.11338 C 378.23382,588.72188 377.94201,588.40037 377.34488,588.14242 C 376.49828,587.77696 375.65653,587.56158 374.80256,587.48804 C 373.94806,587.41448 373.07372,587.166 372.17789,586.77903 C 372.02827,586.71453 371.63921,586.5683 371.04206,586.31036 C 370.51568,586.02409 370.15971,585.84531 369.96084,585.75933 C 369.9255,585.56698 369.8806,585.26182 369.8107,584.87715 C 369.79008,584.51395 369.72717,584.15217 369.65728,583.76749 C 369.65814,583.35451 369.6365,582.92999 369.56661,582.54531 C 369.4962,582.16061 369.45073,581.92118 369.44421,581.8001 C 369.41567,581.72881 369.33693,581.54826 369.17426,581.24163 C 369.03257,580.88522 368.85843,580.47002 368.68898,580.04233 C 368.519,579.61464 368.36688,579.23776 368.22571,578.88134 C 368.08403,578.52494 368.00303,578.29307 367.99651,578.17203 C 367.73602,576.99645 367.72583,575.76806 367.92183,574.49403 C 368.1886,573.19174 368.29554,571.93531 368.22791,570.72467 C 368.19936,570.6534 368.12598,570.45709 368.0346,570.12216 C 367.94269,569.78726 367.84944,569.44365 367.75806,569.10873 C 367.68765,568.72406 367.58922,568.36988 367.49783,568.03496 C 367.40593,567.70005 367.36566,567.47117 367.35913,567.35009 C 367.38037,567.30032 367.46243,567.05396 367.58489,566.63419 C 367.75661,566.23593 367.89692,565.92829 368.00466,565.67937 C 368.04741,565.57982 368.16499,565.32587 368.33722,564.92759 C 368.58023,564.50105 368.70317,564.23133 368.74642,564.13176 C 368.71448,565.29942 368.73738,566.41367 368.82024,567.45345 C 368.97385,568.46497 369.1394,569.4831 369.29353,570.49461 C 369.51842,571.47786 369.73765,572.51871 369.96986,573.62298 C 370.22304,574.6775 370.46266,575.79997 370.70166,577.0253 C 370.80662,577.60234 370.83284,578.28967 370.73128,579.07262 C 370.62918,579.85559 370.52574,580.65877 370.47395,581.46323 C 370.47141,582.28918 370.5891,583.04288 370.77265,583.71272 C 370.95568,584.38254 371.40784,584.86419 372.15485,585.18667 C 372.7022,585.42315 373.56948,585.57041 374.7159,585.6519 C 375.88328,585.68358 377.15776,585.66061 378.56103,585.55763 C 379.96375,585.45467 381.42231,585.2465 382.96135,584.96594 C 384.49983,584.68535 385.92277,584.32456 387.23441,583.88668 C 388.59526,583.47031 389.74849,582.98659 390.71164,582.39823 C 391.72401,581.83138 392.40936,581.20744 392.71061,580.51046 C 392.8608,580.16198 392.88468,579.79036 392.81483,579.40566 C 392.74439,579.02098 392.60282,578.63889 392.4119,578.26097 C 392.27018,577.90456 392.16933,577.52544 392.09948,577.14073 C 392.05054,576.70626 392.13546,576.25893 392.32923,575.81088 L 392.58273,575.23196 L 393.29149,577.04192 L 393.6152,577.16173 L 393.99109,577.32801 L 396.81794,577.76793 L 397.39686,578.02143 C 398.8403,578.64486 400.12589,579.39836 401.22029,580.28431 C 402.36389,581.19173 403.25476,582.36122 403.92035,583.82988 L 403.02516,584.26783 C 403.20136,584.81658 403.41408,585.3437 403.66215,585.86418 C 403.90964,586.38464 404.29755,586.84879 404.78098,587.23463 C 404.74447,587.45525 404.69562,587.82925 404.63029,588.39161 C 404.61415,588.97543 404.56483,589.5754 404.52779,590.20902 C 404.49016,590.84263 404.46045,591.45596 404.39513,592.01828 C 404.40049,592.55231 404.42268,592.91114 404.45805,593.10349 C 404.46341,593.63752 404.43628,594.59633 404.41848,596.00611 C 404.44985,597.43738 404.49496,598.91044 404.55522,600.41301 C 404.66466,601.93705 404.8117,603.31102 405.00093,604.51493 C 405.18958,605.71876 405.46286,606.39614 405.81164,606.54665 C 406.55809,606.8691 407.30886,606.79215 408.03668,606.33845 C 408.7639,605.88472 409.41907,605.25264 410.00548,604.44252 C 410.64105,603.65388 411.2123,602.83067 411.72063,601.92779 C 412.22834,601.02487 412.63478,600.28575 412.92134,599.75964 C 413.58972,599.9893 414.40928,599.84588 415.40074,599.32882 C 416.46285,598.78345 417.60384,598.18796 418.83064,597.53625 C 420.10661,596.90602 421.41302,596.32101 422.76769,595.78357 C 424.1715,595.26762 425.54029,595.11007 426.88591,595.27752 L 427.62485,597.09563 C 427.71617,597.43053 427.77102,597.98274 427.79058,598.75891 C 427.80949,599.53506 427.78522,600.2929 427.755,601.04757 C 427.77391,601.82372 427.75941,602.50812 427.69412,603.07044 C 427.67795,603.65425 427.68496,603.94199 427.68526,603.94204 C 427.76301,604.0348 427.94591,604.16761 428.22344,604.34638 C 428.50032,604.52513 428.78002,604.70856 429.10734,604.90885 C 429.43401,605.1091 429.74388,605.30071 430.02141,605.47947 C 430.29829,605.65822 430.48119,605.79102 430.55959,605.88381 C 430.56605,606.00486 430.52767,606.21339 430.44879,606.53365 C 430.36926,606.85382 430.26394,607.21951 430.16356,607.58955 C 430.11232,607.98102 430.05292,608.36025 429.95253,608.73024 C 429.87301,609.05041 429.83463,609.25898 429.84173,609.38008 C 429.84141,609.38006 429.90199,609.53032 430.01546,609.81545 C 430.14978,610.05076 430.21036,610.20101 430.18918,610.25082 C 430.22631,610.34491 430.24383,610.51012 430.2561,610.72208 C 443.29014,597.59254 453.17656,580.99487 458.34636,561.85667 C 463.50919,542.74431 463.32729,523.4485 458.69531,505.56224 C 458.557,505.6321 458.42615,505.70699 458.28196,505.77429 C 457.76114,506.02215 457.16358,505.99781 456.51674,505.71826 C 456.11812,505.54635 455.90946,505.34772 455.84645,505.08401 C 455.80424,504.77068 455.60907,504.52612 455.26094,504.37556 C 454.9746,504.25197 454.65066,504.15153 454.34201,504.06259 z M 335.43028,472.8473 L 335.18078,472.81228 L 332.13163,474.51348 L 334.07143,475.36118 C 333.62202,475.58079 333.30106,475.80689 333.07273,476.0625 C 332.91524,476.29002 332.73421,476.5947 332.56245,476.99287 C 332.39025,477.39124 332.41414,477.86703 332.61237,478.3659 C 332.83164,478.81519 333.11073,479.25087 333.45153,479.69316 C 333.86314,480.10738 334.28433,480.51265 334.7179,480.87687 C 335.2223,481.21301 335.62658,481.43028 335.92551,481.55915 C 336.27377,481.70973 336.70077,481.87332 337.22034,482.03841 C 337.81071,482.17542 338.38036,482.24289 338.91464,482.23713 C 339.49824,482.25306 340.01025,482.12958 340.45967,481.90997 C 340.95841,481.71207 341.3328,481.37474 341.54801,480.8768 C 341.82725,480.2297 341.92504,479.6419 341.86984,479.08627 C 341.86395,478.55232 341.75612,477.88542 341.56627,477.09443 C 341.02521,476.97913 340.29818,476.71076 339.35252,476.30221 C 338.80467,476.06584 338.3399,475.85858 337.99164,475.708 C 337.66441,475.50785 337.38712,475.34936 337.15992,475.192 C 337.10991,475.17061 337.01085,475.0687 336.85494,474.88302 C 336.72008,474.64778 336.56044,474.39563 336.37624,474.13868 C 336.24137,473.90344 336.08934,473.68682 335.93343,473.50114 C 335.84834,473.2874 335.81793,473.14532 335.78987,473.07392 C 335.78965,473.07403 335.7082,473.06812 335.60886,473.02503 C 335.58034,472.95386 335.52962,472.89041 335.43028,472.8473 z M 275.21118,456.70979 C 275.03863,456.66482 274.88822,456.65191 274.74235,456.64789 C 274.47176,456.59031 274.07742,456.6201 273.55034,456.7467 C 272.63369,458.5956 271.67121,460.22901 270.70625,461.64319 C 269.74096,463.05761 268.88785,464.6538 268.1141,466.44589 L 265.88075,465.48652 C 265.73011,465.83512 265.68071,466.27484 265.7578,466.78048 C 265.90586,467.25807 266.22629,467.44447 266.73221,467.3674 C 265.75561,467.71374 264.92738,468.29985 264.22038,469.11664 C 263.58434,469.90536 263.04861,470.72098 262.61203,471.59548 C 262.56889,471.69515 262.44656,471.71261 262.24758,471.62651 C 261.84915,471.45464 261.70464,471.11328 261.8202,470.57233 C 261.9218,470.09568 262.04839,469.54145 262.18364,468.98726 C 255.65924,478.11515 250.45933,488.38145 246.89266,499.58981 C 247.4259,499.48869 247.97545,499.39392 248.51189,499.34744 C 249.30942,499.27851 250.05274,499.13971 250.79398,498.92806 C 250.79383,498.92815 251.03839,498.73299 251.50243,498.34255 C 251.96618,497.95229 252.48562,497.54382 253.04244,497.07531 C 253.67025,496.57869 254.2032,496.12429 254.66724,495.73387 C 255.20227,495.31531 255.48011,495.06126 255.52325,494.96163 C 256.10919,494.1516 256.88375,493.54275 257.83205,493.12518 C 258.78006,492.70777 259.69153,492.40478 260.53235,492.2361 C 261.37286,492.0676 262.0777,491.97715 262.68318,491.94311 C 263.35963,491.88097 263.7138,491.78254 263.75695,491.68288 C 263.79978,491.58341 263.79505,491.34689 263.72506,490.96212 C 263.67625,490.52773 263.66391,490.25571 263.65727,490.13456 L 263.76894,489.84102 L 263.91892,489.52547 C 264.9744,488.85914 266.1603,488.56878 267.49896,488.61508 C 268.8588,488.61179 270.03951,488.65768 271.04327,488.79562 L 270.19557,490.73543 L 275.70312,490.11913 C 275.6113,489.78431 275.44701,489.4559 275.21297,489.17747 C 275.00009,488.84945 274.79214,488.55879 274.60788,488.30188 C 274.42329,488.04512 274.28862,487.79057 274.17564,487.50535 C 274.06233,487.22031 274.09141,486.85925 274.26356,486.46088 C 274.43538,486.0627 274.63161,485.82907 274.84562,485.74412 C 275.05929,485.65937 275.25507,485.65166 275.47587,485.68778 C 275.76762,485.69579 276.04483,485.69401 276.28714,485.68034 C 276.5291,485.66685 276.79406,485.5533 277.05107,485.36878 L 277.16273,485.07524 C 277.27005,484.82641 277.35211,484.58006 277.38849,484.35934 C 277.49581,484.11051 277.57732,483.92987 277.64198,483.78042 C 277.74931,483.53158 277.8949,483.39476 278.06591,483.40938 C 278.28638,483.44568 278.65745,483.53525 279.19845,483.65057 C 279.7889,483.78757 280.2007,483.88008 280.4215,483.91622 C 280.55662,483.94511 280.65845,483.95572 280.70117,483.95939 C 280.69942,483.95492 280.70399,483.93185 280.67915,483.92107 L 284.37673,484.01354 L 284.72245,484.17167 L 285.04616,484.29148 C 284.15327,485.26462 283.08808,486.08139 281.86176,486.73303 C 280.65659,487.33504 279.54067,488.08838 278.49877,488.99685 L 281.6266,490.3597 L 281.75644,491.91616 L 285.3205,493.46158 C 285.42781,493.21275 285.58083,492.79094 285.73941,492.15046 C 285.89763,491.51016 285.98551,491.0221 285.99361,490.73011 C 286.01493,490.68041 285.9521,490.47888 285.86063,490.14389 C 285.76881,489.80907 285.65982,489.4601 285.54006,489.05382 C 285.46973,488.66923 285.40961,488.29305 285.31815,487.95803 C 285.22632,487.62321 285.19367,487.42983 285.21534,487.37997 C 285.22308,487.08814 285.3028,486.63029 285.46139,485.98978 C 285.6694,485.37099 285.88192,484.73018 286.11178,484.06142 C 286.36278,483.34306 286.60842,482.6697 286.81679,482.0507 C 287.02479,481.4319 287.1582,480.99675 287.26587,480.74772 C 287.3381,480.30656 287.19878,479.97576 286.82219,479.75388 C 286.44525,479.53221 286.06137,479.39655 285.67007,479.34554 C 285.32366,478.36922 285.17844,477.27241 285.2318,476.05489 C 285.35608,474.80928 285.46542,473.57782 285.59006,472.33199 C 285.71434,471.08638 285.72231,469.8883 285.61161,468.77711 C 285.50055,467.66614 285.06003,466.70108 284.28631,465.89423 L 283.46877,467.84219 L 279.64135,466.19326 L 281.49488,461.96792 C 280.8973,461.71007 280.3614,461.35777 279.89994,460.92204 C 279.45964,460.43676 279.01805,459.94988 278.57808,459.46439 C 278.15927,458.92934 277.71768,458.44247 277.25622,458.00673 C 276.81592,457.52147 276.31553,457.16158 275.76808,456.92497 C 275.56887,456.83904 275.38373,456.75476 275.21118,456.70979 z M 389.68687,489.6077 C 390.03507,489.75829 390.11551,490.0558 389.94381,490.45399 C 389.75005,490.90214 389.49547,491.0368 389.14728,490.88623 C 388.79851,490.73584 388.71287,490.42776 388.90664,489.9796 C 389.07834,489.58142 389.33811,489.45733 389.68687,489.6077 z M 440.33983,507.72529 C 440.41731,507.7255 440.49398,507.75289 440.58118,507.79049 C 440.92933,507.94105 440.9848,508.241 440.79166,508.68897 C 440.61934,509.08731 440.35957,509.21143 440.01142,509.06087 C 439.66261,508.91046 439.57402,508.64307 439.74633,508.24474 C 439.89119,507.90877 440.10741,507.72468 440.33983,507.72529 z M 430.54191,507.92715 C 430.57929,507.94326 430.60717,507.97371 430.64628,508.02008 C 430.85188,508.22722 430.92302,508.37227 430.88035,508.47175 C 430.79403,508.67095 430.60826,508.73914 430.33817,508.68136 C 430.13871,508.59546 430.1031,508.4428 430.21091,508.19381 C 430.30741,507.96984 430.42977,507.87881 430.54191,507.92715 z M 430.78827,508.93243 C 430.8644,508.93575 430.94242,508.96002 431.02962,508.99763 C 431.37777,509.14819 431.46637,509.41554 431.29471,509.81375 C 431.1009,510.26188 430.81617,510.38838 430.46801,510.23783 C 430.11921,510.08742 430.05558,509.81765 430.24939,509.36952 C 430.37814,509.07087 430.55988,508.92248 430.78827,508.93243 z M 379.81552,495.71345 C 379.99927,495.74108 380.16652,495.78214 380.32839,495.85199 C 380.02715,496.54903 379.58807,497.09479 379.02487,497.44207 C 378.46113,497.78951 377.8728,498.10421 377.21004,498.40849 C 376.54674,498.71293 375.92529,499.06021 375.3406,499.45726 C 374.77687,499.8047 374.34073,500.30972 374.06153,500.95684 C 373.7388,501.70368 373.67893,502.30885 373.8987,502.75795 C 374.16771,503.22871 374.48753,503.66733 374.82836,504.10966 C 375.16866,504.55213 375.41168,505.06111 375.58846,505.60979 C 375.83597,506.13033 375.7889,506.78157 375.44521,507.57804 C 375.38044,507.72747 375.18887,508.03734 374.87459,508.49211 C 374.60956,508.96852 374.4511,509.24583 374.35859,509.32383 C 374.64458,508.79777 374.70158,508.39358 374.51743,508.13667 C 374.35423,507.83012 374.07227,507.59543 373.67427,507.42336 C 373.57444,507.38045 373.41434,507.3542 373.24376,507.33943 C 373.14393,507.29652 373.09025,507.27379 373.04073,507.25222 C 372.90469,507.42992 372.64501,507.71429 372.28095,508.14756 C 371.96614,508.60247 371.60105,509.09229 371.21549,509.57536 C 370.90068,510.03028 370.57686,510.45737 370.21279,510.89064 C 369.91948,511.29575 369.71734,511.61085 369.58183,511.78841 C 369.28173,512.07247 368.79603,512.19612 368.14118,512.2085 C 367.48581,512.22102 366.78329,512.17618 366.02209,512.02451 C 365.31015,511.89446 364.57334,511.69955 363.83364,511.49808 C 363.11492,511.24697 362.55039,511.02979 362.10259,510.83625 C 361.50493,510.57835 361.04302,510.17012 360.7457,509.62809 C 360.46938,509.03642 360.28235,508.41489 360.22038,507.7382 C 360.17939,507.01188 360.25198,506.29254 360.38235,505.58079 C 360.53371,504.8194 360.73862,504.14309 360.99685,503.54562 L 361.66628,503.82356 C 361.6649,504.23662 361.62829,504.72242 361.56292,505.28467 C 361.54683,505.86856 361.56321,506.46908 361.5974,507.07434 C 361.65259,507.62994 361.78904,508.16174 362.03708,508.68213 C 362.28461,509.20267 362.66508,509.60498 363.21295,509.84139 C 363.8101,510.09943 364.47925,510.04288 365.16404,509.68867 C 365.91959,509.3063 366.61038,508.82687 367.2601,508.2803 C 367.93079,507.68409 368.50678,507.09738 369.00714,506.48632 C 369.50698,505.87541 369.87673,505.46185 370.08405,505.25583 L 370.25033,504.87994 L 370.36199,504.5864 L 370.57615,502.47546 L 370.74243,502.09956 C 370.97864,501.55202 371.47427,500.82801 372.25298,499.98274 C 373.08093,499.15914 373.98534,498.40813 374.94167,497.69862 C 375.89748,496.98928 376.88582,496.42939 377.88402,496.03331 C 378.63227,495.73638 379.26426,495.63053 379.81552,495.71345 z M 431.43827,510.24097 C 431.4917,510.24555 431.55697,510.26302 431.61928,510.28986 C 431.91766,510.41893 431.94512,510.60175 431.73839,510.80759 C 431.55251,510.9638 431.41042,510.9942 431.31117,510.95115 C 431.11172,510.86522 431.04058,510.72017 431.07711,510.49948 C 431.15748,510.31284 431.27798,510.22721 431.43827,510.24097 z M 394.2276,502.87596 C 394.30507,502.87616 394.38176,502.90356 394.46895,502.94116 C 394.81715,503.09171 394.90279,503.39982 394.7096,503.84779 C 394.53733,504.24612 394.27756,504.37026 393.92936,504.21968 C 393.58059,504.06927 393.49201,503.8019 393.66427,503.40356 C 393.80916,503.06758 393.99519,502.87535 394.2276,502.87596 z M 348.37671,495.02207 C 347.97646,494.92306 347.60749,494.88149 347.28006,494.88768 C 346.67449,494.9217 346.10959,495.09072 345.61765,495.40971 C 345.17502,495.75035 344.77718,496.23339 344.37689,496.88727 C 344.0474,497.51304 343.69224,498.24993 343.32702,499.09617 C 343.06881,499.69365 342.92509,500.26794 342.93099,500.80191 C 342.9579,501.28626 343.30045,501.6712 343.94787,501.95059 C 343.56067,502.84677 343.20838,503.38268 342.90199,503.54554 C 342.64492,503.73003 342.38516,503.85414 342.12176,503.91743 C 341.92918,503.95258 341.70029,503.99285 341.43689,504.05613 C 341.22282,504.14106 340.99796,504.50981 340.71872,505.15694 C 340.611,505.40592 340.43982,505.7974 340.20358,506.34495 C 340.03815,506.86437 340.10587,507.27609 340.46139,507.54755 C 340.24052,507.51142 339.76753,507.52089 339.01987,507.61133 C 338.27175,507.70191 337.7976,508.02932 337.56135,508.57689 C 337.66069,508.61996 337.88447,508.7294 338.28297,508.9013 C 338.7025,509.02357 338.95941,509.10043 339.05921,509.14335 C 339.25811,509.22942 339.64199,509.36505 340.21134,509.55169 C 340.78022,509.73844 341.37788,509.92304 341.99701,510.13116 C 342.68696,510.31113 343.30959,510.49331 343.82915,510.65845 C 344.41953,510.79542 344.7982,510.92054 344.99758,511.00645 C 345.58116,511.02236 346.00925,510.70775 346.28895,510.06048 C 346.3962,509.81164 346.48122,509.52456 346.53916,509.25408 C 346.59662,508.98374 346.68334,508.81363 346.77635,508.73549 C 346.79762,508.68577 346.89953,508.58672 347.08533,508.43051 C 347.32043,508.29594 347.56964,508.17703 347.80522,508.04232 C 348.1116,507.87947 348.33065,507.75239 348.49495,507.64597 C 348.73005,507.51139 348.87268,507.41531 348.89443,507.36544 C 348.89419,507.36551 348.82197,506.85125 348.71812,505.86116 C 348.61379,504.87121 348.50113,503.80756 348.36221,502.62512 C 348.2443,501.39305 348.13514,500.22299 348.00301,499.1616 C 347.94167,498.07208 347.91249,497.4255 347.94894,497.20479 C 347.99169,497.10531 348.16762,496.95031 348.49597,496.73753 C 348.84534,496.47512 349.08696,496.32068 349.17998,496.24253 C 349.20123,496.19283 349.27059,496.06064 349.4066,495.88293 C 349.54213,495.70538 349.63645,495.57079 349.67968,495.47115 C 349.20661,495.26696 348.77696,495.12107 348.37671,495.02207 z M 284.15019,478.74076 C 284.2263,478.74407 284.30437,478.76836 284.39154,478.80596 C 284.73985,478.95654 284.82843,479.22391 284.65663,479.62208 C 284.46297,480.07023 284.20026,480.23505 283.85195,480.08448 C 283.50329,479.9341 283.41765,479.62602 283.61131,479.17785 C 283.74016,478.87923 283.92185,478.73083 284.15019,478.74076 z M 379.29434,506.86982 C 379.46689,506.91479 379.62181,506.9909 379.82108,507.07685 C 379.92037,507.11992 380.05256,507.18925 380.18068,507.30347 C 380.32976,507.36804 380.416,507.42389 380.46606,507.4453 C 379.98832,507.5936 379.59102,507.66409 379.2496,507.63462 C 378.97891,507.57698 378.64631,507.43909 378.24831,507.26703 L 377.63922,507.00538 C 378.11642,506.85724 378.50315,506.79193 378.79535,506.79977 C 378.94117,506.80376 379.1218,506.82485 379.29434,506.86982 z M 340.85664,499.85313 C 340.60941,499.7759 340.38568,499.72691 340.21495,499.71216 C 339.87301,499.68283 339.54972,499.69739 339.23654,499.73919 C 338.97268,499.80262 338.66459,499.88827 338.32991,499.97983 C 338.01627,500.02177 337.5788,500.02365 336.9952,500.00773 C 336.95198,500.10737 336.83199,500.33636 336.61045,500.71305 C 336.43824,501.11139 336.31771,501.40608 336.25345,501.55534 C 336.23172,501.60521 336.1374,501.7398 335.98036,501.96713 C 335.89413,502.16634 335.81728,502.42324 335.73831,502.74336 C 335.68037,503.01385 335.61405,503.26558 335.55659,503.5359 C 335.56993,503.77811 335.71436,503.95921 335.96351,504.06663 C 337.40701,504.69014 338.42933,504.82676 339.0643,504.45107 C 339.77009,504.04722 340.3059,503.39184 340.6931,502.49567 L 341.70708,500.17997 C 341.38337,500.04027 341.10386,499.93035 340.85664,499.85313 z M 355.17915,526.64009 L 356.13397,527.05987 L 358.32061,532.50606 C 358.32036,532.5061 358.23355,532.51596 358.06296,532.5012 C 357.91336,532.43675 357.78638,532.37798 357.68706,532.33492 C 357.23877,532.14149 356.78911,531.84503 356.37751,531.43088 C 355.98691,530.96703 355.65708,530.46792 355.35977,529.92589 C 355.13323,529.35569 354.99973,528.78319 354.94454,528.22759 C 354.91035,527.62233 354.98541,527.0882 355.17915,526.64009 z M 350.66874,527.0402 C 350.74486,527.04351 350.82291,527.06779 350.91009,527.10539 C 351.25833,527.25593 351.34691,527.52329 351.17518,527.92151 C 350.98146,528.36962 350.68857,528.52629 350.34033,528.37577 C 349.9916,528.22533 349.93613,527.9254 350.12985,527.47729 C 350.25865,527.17863 350.44037,527.03025 350.66874,527.0402 z M 358.53108,533.40453 L 359.28287,533.73709 L 358.74328,535.01562 C 358.39567,534.45219 358.31586,533.90241 358.53108,533.40453 z M 356.88669,534.57884 C 356.93566,534.5852 356.97525,534.59272 357.03754,534.61959 C 357.28621,534.72713 357.34678,534.87736 357.21126,535.05496 C 357.12501,535.25415 356.97477,535.31471 356.77589,535.22868 C 356.62629,535.16424 356.56571,535.01398 356.60217,534.79331 C 356.62913,534.62787 356.7398,534.55976 356.88669,534.57884 z M 244.51176,511.27966 C 244.31814,511.72779 244.20529,512.21825 244.21109,512.75221 C 244.21661,513.28633 244.52362,513.67888 245.12117,513.93678 L 245.99331,511.90647 L 244.51176,511.27966 z M 361.79055,543.86656 C 361.60725,543.84648 361.43443,543.8412 361.2671,543.88701 C 360.93194,543.97869 360.66171,544.26826 360.44699,544.76606 L 363.22909,545.97077 C 363.61578,545.07471 363.30938,544.4299 362.36375,544.0214 C 362.16449,543.93543 361.97384,543.88665 361.79055,543.86656 z M 246.78044,514.385 C 246.73051,514.36358 246.68444,514.37636 246.6133,514.40459 C 246.56337,514.38317 246.52025,514.35524 246.47061,514.33367 L 245.59846,516.36398 C 245.9468,516.51454 246.27475,516.57619 246.5883,516.53426 C 246.97285,516.46418 247.23092,516.2231 247.38154,515.87455 C 247.4029,515.82483 247.3901,515.77873 247.36195,515.70741 C 247.40481,515.6079 247.43272,515.56479 247.43287,515.56471 C 247.48364,515.1733 247.35488,514.83727 247.04953,514.58717 C 247.04939,514.58724 247.00626,514.55931 246.90684,514.51625 C 246.87841,514.44503 246.83008,514.40657 246.78044,514.385 z M 247.47221,517.09673 L 247.21871,517.67566 L 248.49723,518.21524 L 248.75073,517.63632 L 247.47221,517.09673 z M 243.01296,515.98927 C 242.86721,516.90892 242.7496,517.81493 242.62766,518.73375 C 242.93449,518.87236 243.24179,519.00143 243.59063,519.12336 C 243.19901,519.07251 242.93165,519.16107 242.77451,519.38845 C 242.64235,519.57945 242.5494,519.77518 242.45253,519.98125 C 242.41342,520.30425 242.35677,520.62621 242.32057,520.94907 C 242.5371,521.15095 242.82072,521.37711 243.27625,521.72515 C 243.83052,522.08276 244.20168,522.33259 244.42924,522.48979 L 244.7448,522.63977 L 245.03834,522.75144 C 245.28712,522.85898 245.83645,523.00509 246.69761,523.19966 C 247.62978,523.36605 248.2396,523.50217 248.51016,523.5598 C 248.53152,523.51008 248.55944,523.46694 248.58108,523.41711 C 248.67372,523.3391 248.71514,523.25005 248.73678,523.20021 C 248.95161,522.70244 248.67834,522.02503 247.92607,521.16848 C 247.2233,520.33352 246.38549,519.43897 245.3843,518.47493 C 244.57585,517.63864 243.78734,516.811 243.01296,515.98927 z M 250.06663,523.42996 L 249.52704,524.70848 L 252.05392,525.77951 L 252.61553,524.53931 L 250.06663,523.42996 z M 387.62582,565.54147 C 387.89596,565.59918 388.15286,565.67606 388.40206,565.78352 C 389.09874,566.0845 389.53444,566.65281 389.67502,567.42219 C 389.88631,568.16329 390.0327,568.94215 390.13029,569.81108 C 390.22731,570.68004 390.37021,571.56527 390.58885,572.42745 C 390.82843,573.23984 391.40685,573.87228 392.28174,574.30903 C 391.98955,574.30112 391.37678,574.20571 390.44475,574.03939 C 389.58343,573.84479 389.03411,573.69867 388.78547,573.59117 L 388.46991,573.44119 L 388.17638,573.32953 C 388.27906,572.1336 388.27181,570.86448 388.12615,569.56103 C 388.00141,568.20783 387.56151,566.99051 386.84559,565.91336 C 387.09536,565.60788 387.35513,565.48377 387.62582,565.54147 z M 368.57724,561.04327 C 368.92546,561.19377 369.01111,561.50185 368.81789,561.9499 C 368.64564,562.34818 368.38588,562.47229 368.03765,562.3218 C 367.73869,562.19283 367.66066,561.92026 367.8329,561.52197 C 368.02612,561.07394 368.27827,560.91431 368.57724,561.04327 z M 368.70709,562.59974 C 369.05531,562.75024 369.14094,563.05833 368.94773,563.50637 C 368.77548,563.90465 368.51573,564.02877 368.1675,563.87827 C 367.81875,563.7278 367.73016,563.46044 367.9024,563.06214 C 368.09562,562.61411 368.35833,562.44929 368.70709,562.59974 z M 244.48966,529.3362 C 244.40353,529.53539 244.15362,529.7463 243.70457,529.96575 C 243.27674,530.13551 242.92033,530.18267 242.67154,530.07514 C 242.62162,530.05369 242.52257,529.95177 242.36657,529.76616 C 242.23179,529.53087 242.07215,529.27872 241.88786,529.02182 C 241.83545,528.93031 241.7861,528.84511 241.73373,528.75359 C 240.87835,549.87506 246.18797,570.36064 256.36787,588.05956 C 256.63345,587.76236 256.92223,587.47772 257.18799,587.18052 C 257.55217,586.74717 257.84807,586.36322 258.11977,586.00794 C 258.41266,585.60288 258.61185,585.32852 258.72628,585.20067 L 259.05884,584.44888 L 259.57398,583.26087 L 260.08912,582.07285 L 260.36706,581.40342 C 261.13177,580.31609 262.05944,579.44569 263.11523,578.77929 C 264.19221,578.0631 265.24469,577.36047 266.3005,576.69405 C 267.42726,575.99935 268.46157,575.26644 269.38954,574.4857 C 270.33865,573.65524 271.11429,572.56821 271.69489,571.22404 C 272.16768,570.1288 272.34752,569.29468 272.24248,568.71761 C 272.20837,568.1123 272.00623,567.57994 271.66582,567.13755 C 271.32509,566.69518 270.8887,566.21884 270.32767,565.74023 C 269.81609,565.28314 269.27024,564.68381 268.71713,563.91327 C 268.66039,563.77073 268.49782,563.55926 268.21398,563.25943 C 268.00111,562.93132 267.85427,562.72525 267.75487,562.68223 C 267.67664,562.58946 267.40989,562.42579 266.98349,562.18252 C 266.55677,561.93928 266.10936,561.69412 265.63319,561.42933 C 265.17818,561.11481 264.73373,560.82889 264.30733,560.58562 C 263.88062,560.34238 263.61907,560.18927 263.51966,560.14626 C 262.53174,559.42442 261.69099,558.57059 260.95344,557.54321 C 260.21558,556.51587 259.31208,555.62078 258.2747,554.87739 C 258.8414,553.29114 259.15226,551.99685 259.21917,551.02152 C 259.33556,550.06774 259.28357,549.31457 259.05744,548.7443 C 258.831,548.17408 258.50582,547.7512 258.05114,547.43662 C 257.64593,547.14361 257.1561,546.77849 256.62334,546.37116 C 256.14006,545.98536 255.65239,545.51128 255.13434,544.93309 C 254.61598,544.35497 254.19533,543.53718 253.89225,542.46114 C 253.44066,540.90769 252.78457,539.6165 251.92596,538.59587 C 251.06705,537.57534 250.14539,536.64991 249.15099,535.80695 C 248.22759,534.93577 247.31648,534.00518 246.43636,533.03433 C 245.55596,532.06359 244.91268,530.81844 244.48966,529.3362 z M 298.7341,546.74072 L 296.91599,547.47965 L 298.9463,548.3518 C 299.22557,547.70466 299.14575,547.15487 298.7341,546.74072 z M 410.42471,605.52687 C 410.33162,605.60492 410.16626,605.75471 409.93801,606.01043 C 409.75894,606.28762 409.5568,606.60269 409.30705,606.90821 C 409.12798,607.18539 408.94454,607.4651 408.74458,607.79211 C 408.56551,608.06929 408.43513,608.27712 408.39243,608.37675 L 408.2343,608.72248 L 408.11449,609.04619 C 408.12098,609.16723 408.15659,609.3199 408.24175,609.53374 C 408.3478,609.69778 408.44391,609.84042 408.52228,609.93322 C 408.52197,609.9332 408.52957,609.96872 408.55817,610.04003 C 408.65742,610.083 408.74127,610.11387 408.79137,610.13539 C 408.84085,610.15687 408.88398,610.18478 408.93406,610.20631 C 409.05482,610.1995 409.1009,610.1867 409.1012,610.18672 C 409.29324,610.1516 409.63444,610.03343 410.06245,609.86372 C 410.51133,609.64419 410.80663,609.51247 410.94948,609.45593 C 410.94918,609.45591 410.94399,609.44534 410.96578,609.39559 C 411.05826,609.31749 411.12985,609.2366 411.15165,609.18684 C 411.38782,608.63919 411.36625,608.02811 411.13347,607.33684 C 410.90009,606.64549 410.6722,606.04727 410.42471,605.52687 z M 363.12508,617.41583 C 362.44822,617.47801 361.83964,617.68478 361.34772,618.00392 C 360.85528,618.32294 360.3532,618.69352 359.81828,619.11217 C 359.35413,619.50248 358.82709,619.87543 358.24238,620.2726 C 357.65718,620.66969 356.95188,620.98609 356.13974,621.22601 C 355.99693,621.28253 355.69108,621.41947 355.19237,621.6175 C 354.76443,621.78717 354.46393,621.90834 354.32163,621.96495 C 353.8507,622.23418 353.36902,622.68637 352.84767,623.34714 C 352.37561,624.02936 351.89814,624.7837 351.43335,625.58707 C 351.03936,626.36206 350.64573,627.14726 350.25223,627.92236 C 349.90802,628.71885 349.62447,629.37482 349.38823,629.9225 L 348.944,630.96782 C 348.64279,631.66475 348.41237,632.40912 348.31077,633.19216 C 348.25847,633.99657 348.58,634.55218 349.22743,634.83169 C 350.17308,635.24008 350.96409,635.39203 351.59116,635.30835 C 352.26753,635.24606 352.84073,635.02057 353.35466,634.65177 C 353.88959,634.23309 354.39678,633.71283 354.84734,633.08042 C 355.3472,632.46938 355.87247,631.8192 356.4158,631.10872 C 356.57283,630.88125 356.89199,630.37793 357.40706,629.59613 C 357.9929,628.78597 358.60783,627.92498 359.23716,627.01534 C 359.91578,626.12712 360.53365,625.22539 361.09171,624.34404 C 361.69905,623.48409 362.15327,622.84912 362.44656,622.44412 C 362.4678,622.39429 362.49347,622.29988 362.55822,622.15058 C 362.69374,621.9729 362.78805,621.83834 362.83131,621.7388 C 363.08902,621.14135 363.13608,620.49013 362.97455,619.77055 C 362.81251,619.05091 362.88041,618.25535 363.12508,617.41583 z"
       id="flowRoot2511" />
    <path
       style="opacity:0.91941175;fill:url(#linearGradient5501);fill-opacity:1;stroke:none;stroke-width:7.08661413;stroke-linecap:round;stroke-linejoin:bevel;stroke-miterlimit:4;stroke-dashoffset:0;stroke-opacity:1"
       d="M 409.87173,452.67685 C 427.34737,486.41782 377.9306,440.45421 321.47185,486.27325 C 282.31802,518.0485 265.11639,570.44297 247.64075,536.702 C 230.16511,502.96103 252.32172,456.75543 297.09747,433.56449 C 341.87322,410.37354 392.39608,418.93588 409.87173,452.67685 z"
       id="path5492"
       sodipodi:nodetypes="csssc" />
    <path
       style="font-size:40px;font-style:normal;font-variant:normal;font-weight:normal;font-stretch:normal;fill:url(#linearGradient7809);fill-opacity:1;stroke:none;stroke-width:1px;stroke-linecap:butt;stroke-linejoin:miter;stroke-opacity:1;font-family:GeoBats;-inkscape-font-specification:GeoBats"
       d="M 423.10112,479.59681 C 422.50252,479.63046 422.07453,479.94395 421.81987,480.53431 L 421.66362,480.81556 C 421.71926,480.95658 421.78819,481.18008 421.85112,481.44056 C 421.93467,481.65201 422.02036,481.76317 422.06987,481.78431 L 425.72612,481.87806 C 425.7258,481.87814 425.73581,481.83361 425.75737,481.78431 C 425.84876,481.70722 425.89206,481.64611 425.91362,481.59681 C 426.12579,481.10489 426.07695,480.74033 425.72612,480.47181 C 425.42385,480.22479 425.05694,480.0169 424.66362,479.84681 C 424.44205,479.75128 424.1739,479.66748 423.91362,479.62806 C 423.65334,479.58865 423.4001,479.58009 423.10112,479.59681 z M 383.50737,485.90931 C 383.05772,485.88832 382.62988,485.90844 382.16362,485.94056 C 380.34724,486.09045 378.5098,486.46172 376.60112,487.09681 C 374.76237,487.70411 372.98706,488.51241 371.28862,489.47181 C 369.6109,490.38215 368.16468,491.28922 366.94487,492.22181 C 366.68517,491.87633 366.09925,491.83189 365.22612,492.09681 C 364.3737,492.31276 363.42426,492.67957 362.44487,493.19056 C 361.53542,493.67373 360.67289,494.22289 359.81987,494.84681 C 359.01556,495.49215 358.56211,496.00248 358.41362,496.34681 C 357.66971,498.06909 357.32286,499.64305 357.38237,501.12806 C 357.46264,502.56406 358.31072,503.8047 359.97612,504.81556 C 359.05327,505.05949 358.35642,505.55084 357.81987,506.25306 C 357.28281,506.95543 356.93481,507.7479 356.81987,508.69056 C 355.25735,508.65818 354.09131,508.79729 353.28862,509.03431 C 352.50668,509.2223 351.77745,509.46562 351.10112,509.81556 C 350.49474,510.1377 349.76211,510.50344 348.94487,510.90931 C 348.19758,511.28739 347.13836,511.66535 345.69487,512.03431 C 345.0818,512.23681 344.39134,512.32458 343.69487,512.31556 C 342.99795,512.30665 342.32883,512.32459 341.63237,512.31556 C 340.93542,512.30664 340.22838,512.3299 339.53862,512.44056 C 338.91883,512.52337 338.34532,512.72231 337.78862,513.06556 C 337.78058,513.35419 337.90065,513.66556 338.13237,513.94056 C 338.41283,514.23694 338.67395,514.50599 338.97612,514.75306 C 339.27783,515.0003 339.5769,515.17019 339.85112,515.34681 C 340.12488,515.52353 340.34624,515.67935 340.44487,515.72181 C 340.1908,515.90414 340.05951,516.1621 340.10112,516.47181 C 340.19147,516.80286 340.29486,517.13289 340.41362,517.53431 C 340.60239,517.90788 340.73234,518.3204 340.85112,518.72181 C 340.99067,519.07412 341.00964,519.39539 340.88237,519.69056 C 340.54216,520.47794 339.93849,520.86242 339.10112,520.90931 C 338.28454,520.90715 337.3908,520.77716 336.41362,520.47181 C 335.50645,520.13861 334.6116,519.76057 333.72612,519.37806 C 332.86146,518.94643 332.20124,518.70299 331.69487,518.65931 C 331.56045,518.83491 331.31804,519.17856 331.00737,519.62806 C 330.74546,520.09894 330.46428,520.53563 330.13237,521.03431 C 329.87047,521.50521 329.61258,522.03229 329.35112,522.50306 C 329.11045,522.92472 328.9359,523.18128 328.85112,523.37806 L 328.72612,523.72181 C 328.00347,525.39483 327.80668,526.61312 328.16362,527.40931 C 328.52014,528.20562 329.25043,528.82692 330.38237,529.31556 L 332.91362,530.44056 C 333.06102,530.50439 333.41669,530.6544 334.00737,530.90931 C 334.61886,531.1151 335.01578,531.25186 335.16362,531.31556 C 336.2336,531.13553 337.11523,530.76198 337.75737,530.22181 C 338.4695,529.65372 339.06739,529.07243 339.63237,528.44056 C 340.19688,527.80877 340.73158,527.16951 341.22612,526.56556 C 341.79062,525.93377 342.48215,525.46689 343.25737,525.15931 C 344.05336,524.80263 345.03054,524.67261 346.16362,524.75306 C 347.29622,524.83366 348.73574,525.23819 350.50737,526.00306 L 350.78862,526.12806 C 350.64746,526.18405 350.39848,526.41855 350.03862,526.84681 C 349.67827,527.27517 349.42259,527.60877 349.28862,527.78431 L 349.16362,528.06556 L 349.00737,528.37806 C 348.95008,528.64535 348.89915,528.97652 348.75737,529.44056 C 348.68555,529.87671 348.59665,530.33822 348.47612,530.75306 C 348.4043,531.18923 348.33542,531.56163 348.25737,531.87806 C 348.17885,532.19458 348.12213,532.36013 348.10112,532.40931 C 348.10762,532.52899 348.09747,532.68799 348.13237,532.87806 C 348.21601,533.08949 348.33623,533.25514 348.41362,533.34681 C 349.0184,533.433 349.49408,533.29846 349.88237,532.94056 C 350.31939,532.60401 350.64841,532.16936 350.88237,531.62806 C 351.1863,531.05893 351.39306,530.47518 351.50737,529.94056 C 351.67041,529.42731 351.75259,529.06494 351.78862,528.84681 C 351.88566,529.2975 352.15586,529.78665 352.56987,530.31556 C 353.0326,530.86579 353.48962,531.42493 353.88237,532.00306 C 354.3451,532.55331 354.68177,533.15495 354.97612,533.69056 C 355.26998,534.22629 355.32335,534.68524 355.13237,535.12806 C 354.91964,535.62016 354.54964,535.80797 353.94487,535.72181 C 353.38884,535.65699 352.89064,535.67581 352.53862,535.81556 C 352.53838,535.81563 352.50509,535.89469 352.41362,535.97181 C 352.39215,536.02102 352.37211,536.04764 352.35112,536.09681 C 352.32963,536.14603 352.29962,536.24845 352.25737,536.34681 C 352.26384,536.4665 352.25712,536.53435 352.25737,536.53431 C 352.31306,536.67524 352.53881,536.97744 352.88237,537.53431 C 353.24669,538.04206 353.46451,538.40343 353.56987,538.56556 C 353.79552,538.31285 354.21022,537.95812 354.78862,537.56556 C 355.38778,537.12387 356.00804,536.80396 356.66362,536.50306 C 357.38915,536.17437 358.03053,535.95087 358.60112,535.84681 C 359.24165,535.71492 359.6819,535.79051 359.91362,536.06556 C 360.14484,536.34065 360.28609,536.74855 360.31987,537.34681 C 360.37442,537.89589 360.34323,538.49184 360.25737,539.09681 C 360.17101,539.70183 360.04539,540.23982 359.88237,540.75306 C 359.76804,541.2877 359.65461,541.65004 359.56987,541.84681 C 359.64677,541.93857 359.85813,542.0764 360.13237,542.25306 C 360.47656,542.40182 360.68996,542.52312 360.78862,542.56556 C 361.52645,542.88435 362.08111,542.89753 362.47612,542.65931 C 362.91984,542.44237 363.26339,542.08889 363.47612,541.59681 C 363.75881,541.07684 363.97555,540.51107 364.13237,539.87806 C 364.30992,539.19593 364.51338,538.62015 364.72612,538.12806 L 366.56987,538.90931 C 366.16591,539.84427 365.79788,540.7258 365.50737,541.53431 C 365.2868,542.3149 365.21686,543.06642 365.25737,543.78431 C 365.36785,544.47436 365.65118,545.11915 366.16362,545.69056 C 366.72474,546.2833 367.6387,546.80566 368.81987,547.31556 L 369.10112,547.44056 C 369.22052,547.43387 369.46064,547.39822 369.81987,547.37806 C 370.24905,547.33 370.50243,547.3356 370.60112,547.37806 C 370.74066,547.43837 370.83828,547.5272 370.91362,547.62806 C 373.74651,544.90998 376.66087,542.26602 379.75737,539.75306 C 413.71544,512.19442 445.01084,517.81201 460.85112,519.34681 C 460.26993,514.85423 459.41477,510.41417 458.28862,506.06556 C 458.15191,506.13464 458.02488,506.21779 457.88237,506.28431 C 457.3676,506.52929 456.7717,506.49811 456.13237,506.22181 C 455.73839,506.05189 455.53839,505.85745 455.47612,505.59681 C 455.43441,505.28709 455.25771,505.02687 454.91362,504.87806 C 454.63062,504.7559 454.31244,504.68471 454.00737,504.59681 C 453.09218,504.33304 452.08969,504.20867 450.97612,504.25306 C 449.53989,504.33363 448.12372,504.45923 446.69487,504.65931 C 445.26534,504.85957 443.88907,505.04638 442.60112,505.19056 C 441.31251,505.33486 440.30762,505.25934 439.56987,504.94056 L 439.25737,505.59681 C 439.06582,506.03968 438.9869,506.45665 439.00737,506.81556 C 439.09763,507.14663 439.33998,507.51336 439.72612,507.97181 L 439.41362,507.84681 C 438.92125,507.6344 438.52114,507.35994 438.16362,506.97181 C 437.82668,506.53463 437.3608,506.17437 436.81987,505.94056 C 436.47511,505.79193 436.2117,505.83087 436.00737,506.03431 C 435.87284,506.20998 435.75624,506.40335 435.60112,506.62806 C 435.44533,506.85293 435.28748,507.05959 435.13237,507.28431 C 434.99784,507.45996 434.73978,507.47436 434.44487,507.34681 C 434.39535,507.32565 434.35546,507.32687 434.25737,507.28431 C 434.17988,507.19268 434.14205,507.11483 434.16362,507.06556 C 434.13535,506.9952 434.12751,506.84618 434.16362,506.62806 C 434.19909,506.41006 434.25251,506.18995 434.28862,505.97181 C 434.34534,505.70459 434.33625,505.48452 434.35112,505.31556 C 434.38658,505.09758 434.4,504.99314 434.35112,504.97181 L 434.16362,504.78431 C 433.76965,504.61443 433.4484,504.63334 433.19487,504.81556 C 432.9407,504.99795 432.60616,504.9756 432.16362,504.78431 C 431.81884,504.63568 431.57764,504.45448 431.44487,504.22181 C 431.31147,503.98929 431.21264,503.72245 431.10112,503.44056 C 430.98896,503.15884 430.84559,502.91325 430.66362,502.65931 C 430.53022,502.42676 430.25773,502.21437 429.91362,502.06556 C 429.22444,501.76816 428.63977,501.79482 428.13237,502.15931 C 427.69477,502.49596 427.2268,502.9564 426.72612,503.44056 C 426.22481,503.92486 425.72022,504.31606 425.16362,504.65931 C 424.67684,504.97476 424.02638,504.94687 423.28862,504.62806 L 416.88237,501.90931 C 416.71207,502.30309 416.7176,502.69746 416.91362,503.19056 C 417.15821,503.70505 417.37398,504.11429 417.50737,504.34681 C 417.26106,504.24065 416.77504,504.0839 416.16362,503.87806 C 415.55163,503.67236 414.89469,503.45221 414.16362,503.25306 C 413.5024,503.02612 412.89002,502.81594 412.25737,502.65931 C 411.64534,502.45359 411.18058,502.34142 410.91362,502.28431 C 409.77376,502.08422 408.5865,502.1475 407.38237,502.50306 C 406.24811,502.83084 405.12991,503.0032 403.97612,502.97181 C 404.4701,502.36801 404.69016,501.82552 404.66362,501.34681 C 404.70695,500.84031 404.62822,500.36995 404.31987,500.00306 C 404.03219,499.58715 403.60288,499.26482 403.13237,499.00306 C 402.68253,498.69225 402.26243,498.44437 401.81987,498.25306 C 401.13966,499.82772 400.31579,500.93162 399.41362,501.53431 C 398.5321,502.08791 397.64718,502.40698 396.78862,502.50306 C 395.99993,502.57138 395.32084,502.57128 394.69487,502.53431 C 394.0896,502.44832 393.71832,502.59618 393.56987,502.94056 L 393.10112,504.03431 C 391.8215,503.48193 391.08451,502.86597 390.88237,502.25306 C 390.70094,501.59112 390.90089,500.57305 391.53862,499.09681 L 397.16362,501.53431 C 397.50778,501.68311 397.76789,501.58962 397.94487,501.31556 C 398.12128,501.04167 398.27585,500.78042 398.38237,500.53431 C 398.53083,500.19001 398.58629,499.922 398.60112,499.75306 C 398.63661,499.53505 398.53777,499.2995 398.25737,499.00306 L 391.35112,490.87806 C 391.01648,489.62452 390.50392,488.70619 389.85112,488.19056 C 389.24696,487.69638 388.43335,487.22061 387.35112,486.75306 C 386.16998,486.24318 384.85634,485.97219 383.50737,485.90931 z M 389.85112,490.22181 C 389.92632,490.22505 390.01494,490.24716 390.10112,490.28431 C 390.44527,490.43314 390.52082,490.76574 390.35112,491.15931 C 390.15961,491.60225 389.91402,491.68313 389.56987,491.53431 C 389.22515,491.38569 389.12835,491.10227 389.31987,490.65931 C 389.44715,490.36418 389.62554,490.21205 389.85112,490.22181 z M 422.60112,490.94056 C 421.66979,490.96317 420.76168,491.07299 419.88237,491.28431 C 416.77652,491.98667 413.66614,493.61632 410.56987,496.19056 L 410.44487,496.47181 C 410.3171,496.76714 410.32934,497.15621 410.47612,497.62806 C 410.69277,498.07215 410.97297,498.54794 411.28862,499.03431 C 411.60366,499.52083 411.96171,499.92758 412.31987,500.31556 C 412.74788,500.67576 413.08684,500.93815 413.38237,501.06556 L 413.66362,501.22181 C 413.83219,501.23644 414.11683,501.21079 414.47612,501.19056 C 414.90523,501.14258 415.14535,501.13816 415.19487,501.15931 C 415.19456,501.15943 415.20458,501.14608 415.22612,501.09681 C 415.31752,501.0197 415.33956,500.91405 415.38237,500.81556 C 415.53081,500.47118 415.5864,500.05758 415.53862,499.62806 C 415.49023,499.19871 415.43482,498.75629 415.28862,498.28431 C 415.19103,497.83372 415.11766,497.40132 415.06987,496.97181 C 415.04272,496.49329 415.09708,496.03974 415.28862,495.59681 L 415.69487,494.62806 C 416.2224,494.62256 417.24071,494.59365 418.72612,494.53431 C 420.26013,494.49639 421.81857,494.43082 423.44487,494.31556 C 425.09182,494.15122 426.61377,493.96458 427.94487,493.72181 C 429.29659,493.42999 430.06582,493.03974 430.25737,492.59681 C 429.31009,492.18783 428.38198,491.82534 427.47612,491.56556 C 425.77761,491.07847 424.15332,490.90286 422.60112,490.94056 z M 452.60112,493.69056 C 452.42272,493.70105 452.27708,493.74572 452.10112,493.81556 C 451.79771,493.97668 451.53201,494.2611 451.31987,494.75306 C 451.27704,494.8516 451.17578,495.03837 451.06987,495.28431 C 451.03373,495.50247 451.01827,495.68598 450.97612,495.78431 C 451.20054,495.93983 451.59406,496.13649 452.16362,496.44056 C 452.7325,496.74486 453.31612,497.06602 453.91362,497.44056 C 454.58093,497.78732 455.1878,498.13644 455.75737,498.44056 C 455.91137,498.52288 455.97076,498.52897 456.10112,498.59681 C 455.60334,497.11855 455.03589,495.64409 454.47612,494.19056 C 454.4381,494.17415 454.38913,494.14451 454.35112,494.12806 C 454.16476,494.01857 453.99075,493.95075 453.78862,493.87806 C 453.5865,493.80535 453.35027,493.78889 453.13237,493.75306 C 452.94937,493.70332 452.77952,493.68004 452.60112,493.69056 z M 348.19487,495.50306 C 347.59633,495.53668 347.02485,495.71903 346.53862,496.03431 C 346.10114,496.37097 345.71551,496.82553 345.31987,497.47181 C 344.99421,498.09033 344.61835,498.8229 344.25737,499.65931 C 344.00216,500.24983 343.87654,500.85029 343.88237,501.37806 C 343.90896,501.85674 344.24247,502.19566 344.88237,502.47181 C 344.49967,503.35759 344.15395,503.90459 343.85112,504.06556 C 343.59705,504.24788 343.36146,504.37801 343.10112,504.44056 C 342.91077,504.47525 342.67396,504.53426 342.41362,504.59681 C 342.20203,504.68075 341.97087,505.0197 341.69487,505.65931 C 341.5884,505.90536 341.39711,506.30562 341.16362,506.84681 C 341.00012,507.36017 341.09348,507.766 341.44487,508.03431 C 341.22656,507.99862 340.74635,508.00742 340.00737,508.09681 C 339.26794,508.18635 338.80338,508.4931 338.56987,509.03431 C 338.66806,509.07691 338.89475,509.20816 339.28862,509.37806 C 339.70328,509.49892 339.97123,509.58564 340.06987,509.62806 C 340.26645,509.71315 340.63214,509.81859 341.19487,510.00306 C 341.75714,510.18766 342.36418,510.35985 342.97612,510.56556 C 343.65804,510.74345 344.24385,510.93359 344.75737,511.09681 C 345.34089,511.2322 345.7478,511.35565 345.94487,511.44056 C 346.52167,511.45631 346.91842,511.14281 347.19487,510.50306 C 347.30088,510.25712 347.3876,509.98915 347.44487,509.72181 C 347.50167,509.45465 347.60294,509.29904 347.69487,509.22181 C 347.7159,509.17263 347.82373,509.06371 348.00737,508.90931 C 348.23974,508.7763 348.49328,508.63621 348.72612,508.50306 C 349.02894,508.34211 349.21998,508.23324 349.38237,508.12806 C 349.61473,507.99503 349.73587,507.8961 349.75737,507.84681 C 349.75713,507.84688 349.70377,507.35665 349.60112,506.37806 C 349.49801,505.39958 349.36342,504.32801 349.22612,503.15931 C 349.10959,501.94154 349.01297,500.77087 348.88237,499.72181 C 348.82175,498.64494 348.78384,498.0337 348.81987,497.81556 C 348.86211,497.71719 349.05784,497.55712 349.38237,497.34681 C 349.72769,497.08743 349.97793,496.92405 350.06987,496.84681 C 350.09087,496.79769 350.15419,496.6787 350.28862,496.50306 C 350.42259,496.32761 350.52714,496.19529 350.56987,496.09681 C 350.10229,495.89495 349.65297,495.75716 349.25737,495.65931 C 348.86175,495.56145 348.5185,495.49694 348.19487,495.50306 z M 379.91362,496.31556 C 380.06035,496.3127 380.21492,496.32632 380.35112,496.34681 C 380.53275,496.37409 380.65988,496.40277 380.81987,496.47181 C 380.52213,497.16079 380.12653,497.69106 379.56987,498.03431 C 379.01269,498.37773 378.44368,498.70232 377.78862,499.00306 C 377.13303,499.30393 376.49152,499.64187 375.91362,500.03431 C 375.35644,500.37774 374.93957,500.89471 374.66362,501.53431 C 374.34464,502.27247 374.29015,502.84042 374.50737,503.28431 C 374.77326,503.74957 375.07675,504.19087 375.41362,504.62806 C 375.74997,505.06539 375.98889,505.58575 376.16362,506.12806 C 376.40825,506.64253 376.34707,507.27835 376.00737,508.06556 C 375.94336,508.21324 375.7555,508.52233 375.44487,508.97181 C 375.18292,509.44271 375.0363,509.70721 374.94487,509.78431 C 375.22755,509.26434 375.28313,508.85074 375.10112,508.59681 C 374.93982,508.29377 374.65074,508.07938 374.25737,507.90931 C 374.15869,507.86685 374.01971,507.83016 373.85112,507.81556 C 373.75245,507.77315 373.68131,507.74313 373.63237,507.72181 C 373.49791,507.89743 373.2422,508.19982 372.88237,508.62806 C 372.57121,509.07766 372.2322,509.5256 371.85112,510.00306 C 371.53998,510.4527 371.21096,510.91857 370.85112,511.34681 C 370.56122,511.7472 370.3288,512.04632 370.19487,512.22181 C 369.89826,512.50253 369.43586,512.61582 368.78862,512.62806 C 368.14087,512.64049 367.47848,512.62172 366.72612,512.47181 C 366.02245,512.34328 365.30098,512.13969 364.56987,511.94056 C 363.85951,511.69237 363.26246,511.4756 362.81987,511.28431 C 362.22916,511.02944 361.80123,510.6013 361.50737,510.06556 C 361.23427,509.48077 361.03737,508.89064 360.97612,508.22181 C 360.93561,507.50393 361.00352,506.80029 361.13237,506.09681 C 361.28196,505.34429 361.50214,504.65609 361.75737,504.06556 L 362.38237,504.34681 C 362.38101,504.75507 362.35323,505.22859 362.28862,505.78431 C 362.27271,506.36144 362.28608,506.93609 362.31987,507.53431 C 362.37441,508.08347 362.51221,508.64496 362.75737,509.15931 C 363.00201,509.6738 363.40336,510.05065 363.94487,510.28431 C 364.53509,510.53937 365.17428,510.47815 365.85112,510.12806 C 366.59789,509.75011 367.27145,509.29328 367.91362,508.75306 C 368.57653,508.16376 369.16907,507.60702 369.66362,507.00306 C 370.15766,506.39926 370.52121,505.95669 370.72612,505.75306 L 370.88237,505.37806 L 370.97612,505.09681 L 371.19487,503.00306 L 371.38237,502.62806 C 371.61584,502.08683 372.08146,501.36976 372.85112,500.53431 C 373.66945,499.72026 374.56215,498.98558 375.50737,498.28431 C 376.45208,497.5832 377.42702,497.05079 378.41362,496.65931 C 378.96829,496.43918 379.4734,496.32417 379.91362,496.31556 z M 340.72612,500.25306 C 340.5653,500.25817 340.38089,500.2949 340.22612,500.31556 C 339.96534,500.37826 339.65066,500.44381 339.31987,500.53431 C 339.00986,500.57576 338.61544,500.5813 338.03862,500.56556 C 337.9959,500.66406 337.85133,500.912 337.63237,501.28431 C 337.46216,501.67805 337.35213,501.94929 337.28862,502.09681 C 337.26713,502.14608 337.16258,502.27837 337.00737,502.50306 C 336.92215,502.69997 336.83542,502.96791 336.75737,503.28431 C 336.70012,503.55161 336.65791,503.79838 336.60112,504.06556 C 336.6143,504.30493 336.76111,504.49064 337.00737,504.59681 C 338.4341,505.21307 339.44227,505.31189 340.06987,504.94056 C 340.76745,504.54141 341.28092,503.92007 341.66362,503.03431 L 342.66362,500.75306 C 342.34367,500.61495 342.06422,500.48563 341.81987,500.40931 C 341.57551,500.33297 341.36362,500.29889 341.19487,500.28431 C 341.02589,500.26981 340.88694,500.24792 340.72612,500.25306 z M 394.56987,503.40931 C 394.64643,503.40951 394.7337,503.43464 394.81987,503.47181 C 395.16403,503.62063 395.26081,503.93529 395.06987,504.37806 C 394.89961,504.7717 394.63278,504.87064 394.28862,504.72181 C 393.94391,504.57314 393.83711,504.33427 394.00737,503.94056 C 394.15058,503.6085 394.34016,503.40871 394.56987,503.40931 z M 379.31987,507.28431 C 379.46398,507.28827 379.64933,507.30237 379.81987,507.34681 C 379.99042,507.3912 380.15417,507.44936 380.35112,507.53431 C 380.44926,507.5769 380.59949,507.67142 380.72612,507.78431 C 380.87346,507.84818 380.92664,507.88815 380.97612,507.90931 C 380.50393,508.05587 380.12607,508.12594 379.78862,508.09681 C 379.52108,508.03983 379.18199,507.92312 378.78862,507.75306 L 378.16362,507.47181 C 378.63528,507.32534 379.03106,507.27656 379.31987,507.28431 z M 440.16362,508.19056 C 440.2402,508.19074 440.29618,508.2159 440.38237,508.25306 C 440.72647,508.40187 440.79201,508.71654 440.60112,509.15931 C 440.43081,509.55303 440.16398,509.68312 439.81987,509.53431 C 439.47512,509.38564 439.39956,509.11551 439.56987,508.72181 C 439.71304,508.38974 439.9339,508.18996 440.16362,508.19056 z M 430.38237,508.37806 C 430.41078,508.3729 430.44841,508.39737 430.47612,508.40931 C 430.51307,508.42524 430.56246,508.45723 430.60112,508.50306 C 430.80434,508.70784 430.86204,508.84223 430.81987,508.94056 C 430.73455,509.13742 430.55557,509.21641 430.28862,509.15931 C 430.09148,509.07437 430.05706,508.90541 430.16362,508.65931 C 430.23516,508.49326 430.29712,508.39358 430.38237,508.37806 z M 430.56987,509.40931 C 430.61974,509.3923 430.66969,509.40685 430.72612,509.40931 C 430.80136,509.41261 430.88993,509.43463 430.97612,509.47181 C 431.32023,509.6206 431.39578,509.85947 431.22612,510.25306 C 431.03454,510.696 430.75773,510.83936 430.41362,510.69056 C 430.06887,510.54191 430.00331,510.28973 430.19487,509.84681 C 430.2903,509.62539 430.42027,509.46035 430.56987,509.40931 z M 431.35112,510.69056 C 431.40394,510.69513 431.47704,510.69528 431.53862,510.72181 C 431.83355,510.84942 431.8367,511.04961 431.63237,511.25306 C 431.44865,511.40746 431.32422,511.42061 431.22612,511.37806 C 431.02901,511.29314 430.97126,511.15869 431.00737,510.94056 C 431.0868,510.75605 431.19269,510.67696 431.35112,510.69056 z M 356.00737,526.87806 L 356.91362,527.31556 L 359.10112,532.69056 C 359.10088,532.69058 359.01973,532.70515 358.85112,532.69056 C 358.70325,532.62686 358.57428,532.57687 358.47612,532.53431 C 358.03303,532.34309 357.57044,532.0374 357.16362,531.62806 C 356.77756,531.1696 356.45748,530.69504 356.16362,530.15931 C 355.93973,529.59572 355.81192,529.02095 355.75737,528.47181 C 355.72359,527.87359 355.81588,527.32097 356.00737,526.87806 z M 351.50737,527.28431 C 351.58261,527.28758 351.6712,527.30964 351.75737,527.34681 C 352.10156,527.49561 352.17711,527.79696 352.00737,528.19056 C 351.81591,528.63351 351.57032,528.74558 351.22612,528.59681 C 350.88145,528.44813 350.81591,528.16472 351.00737,527.72181 C 351.13468,527.42662 351.28166,527.27448 351.50737,527.28431 z M 329.60112,530.40931 C 328.65705,530.70235 327.65769,531.02125 326.60112,531.44056 C 325.56535,531.81076 324.66155,532.43569 323.91362,533.22181 L 320.78861,537.00306 C 320.62626,537.10822 320.24827,537.29274 319.66361,537.56556 C 319.14898,537.8105 318.56874,538.10853 317.91361,538.40931 C 317.30727,538.73148 316.71704,539.01148 316.13236,539.28431 C 315.56853,539.50799 315.2451,539.68923 315.13236,539.81556 C 314.80784,540.02582 314.35987,540.39718 313.78861,540.90931 C 313.21696,541.42152 312.61317,541.92045 312.06986,542.50306 C 311.54741,543.03657 311.11521,543.59139 310.66361,544.09681 C 310.23287,544.55311 309.9459,544.8555 309.88236,545.00306 L 304.75736,556.90931 C 305.01438,558.07122 305.2079,559.3172 305.28861,560.75306 C 305.43939,562.16106 305.66609,563.56733 306.00736,564.94056 C 306.34825,566.31386 306.87303,567.59003 307.53861,568.75306 C 308.27425,569.88817 309.31692,570.75187 310.69486,571.34681 C 311.97401,571.89926 312.98453,572.28608 313.69486,572.53431 C 314.42604,572.73337 315.03181,572.86572 315.53861,572.90931 C 316.06625,572.90376 316.59307,572.85704 317.16361,572.75306 C 317.755,572.59986 318.59321,572.43308 319.66361,572.25306 C 319.71263,572.2743 319.79705,572.31435 319.94486,572.37806 C 320.11354,572.39261 320.25248,572.42936 320.35111,572.47181 C 320.74455,572.64178 321.03361,572.8875 321.19486,573.19056 C 321.37696,573.44439 321.3526,573.8268 321.06986,574.34681 C 321.19603,574.45974 321.39599,574.65422 321.72611,574.97181 C 322.12626,575.26147 322.50306,575.60169 322.88237,575.94056 C 323.33171,576.2515 323.73976,576.52921 324.06987,576.84681 C 324.46999,577.13644 324.75578,577.3589 324.88237,577.47181 L 325.22612,577.62806 C 325.66876,577.81931 326.09898,577.93945 326.50737,577.94056 C 326.98578,577.91369 327.49715,577.98809 328.03862,578.22181 C 327.48597,579.50118 326.89348,580.68506 326.25737,581.75306 C 325.62084,582.82105 325.03835,583.96042 324.50737,585.19056 L 324.13237,586.09681 C 324.11761,586.2657 324.09861,586.62352 324.13237,587.22181 C 324.1657,587.82015 324.25814,588.49059 324.31987,589.15931 C 324.38117,589.828 324.41112,590.43598 324.44487,591.03431 C 324.4782,591.63255 324.49046,592.02166 324.47612,592.19056 C 324.50386,592.26095 324.43825,592.65668 324.28862,593.40931 C 324.1598,594.11265 324.00529,594.93861 323.81987,595.90931 C 323.63404,596.87996 323.41155,597.8761 323.22612,598.84681 C 323.15756,599.20486 323.12378,599.41097 323.06987,599.72181 C 333.97443,594.15892 346.98605,572.21784 365.97612,552.50306 C 365.42135,552.14801 364.88269,551.79012 364.35112,551.37806 C 362.86911,550.21283 361.24726,549.2055 359.47612,548.44056 C 359.22985,548.33435 358.84621,548.23888 358.38237,548.09681 C 357.98849,547.92682 357.81962,547.81559 357.81987,547.81556 C 357.65075,547.80105 357.32484,547.80876 356.94487,547.87806 C 356.6136,547.96868 356.31813,548.1266 355.94487,548.31556 C 355.59236,548.45537 355.19314,548.62658 354.81987,548.81556 C 354.51655,548.97665 354.30757,549.12671 354.19487,549.25306 C 353.1423,548.03974 352.17966,546.97588 351.28862,546.06556 C 350.41833,545.1061 349.72695,544.18351 349.19487,543.25306 C 348.66232,542.32264 348.37002,541.31207 348.28862,540.28431 C 348.22801,539.20742 348.49467,537.94802 349.13237,536.47181 C 347.21311,535.64319 345.04103,534.86277 342.60112,534.15931 C 340.23121,533.42801 338.07353,532.87437 336.13237,532.50306 C 336.03373,532.46062 335.80363,532.45174 335.44487,532.47181 C 335.10693,532.44279 334.71782,532.48628 334.28862,532.53431 C 333.88021,532.53321 333.44658,532.50423 333.03862,532.50306 C 332.70068,532.474 332.54306,532.45186 332.44487,532.40931 C 332.39543,532.38811 332.24523,532.29356 332.06987,532.15931 C 331.96451,531.99721 331.83896,531.8248 331.66362,531.69056 C 331.50907,531.50718 331.33899,531.35605 331.16362,531.22181 C 331.00908,531.03851 330.90009,530.96187 330.85112,530.94056 L 330.19487,530.65931 L 329.60112,530.40931 z M 359.31987,533.59681 L 360.03862,533.90931 L 359.50737,535.19056 C 359.1638,534.63371 359.10715,534.08891 359.31987,533.59681 z M 357.66362,534.75306 C 357.71201,534.75932 357.7583,534.75775 357.81987,534.78431 C 358.06564,534.89061 358.14132,535.04627 358.00737,535.22181 C 357.92212,535.41869 357.76644,535.46309 357.56987,535.37806 C 357.42201,535.3144 357.34634,535.15866 357.38237,534.94056 C 357.40902,534.77703 357.51843,534.7342 357.66362,534.75306 z M 362.25737,543.90931 C 362.17136,543.91117 362.09006,543.91791 362.00737,543.94056 C 361.6761,544.03117 361.40709,544.32354 361.19487,544.81556 L 363.94487,546.00306 C 364.32706,545.11745 364.00452,544.50057 363.06987,544.09681 C 362.87293,544.01184 362.68853,543.96041 362.50737,543.94056 C 362.41679,543.93062 362.34339,543.90743 362.25737,543.90931 z"
       id="path7758" />
  </g>
</svg>
