<?xml version="1.0" encoding="UTF-8" standalone="no"?>
<!-- Created with Inkscape (http://www.inkscape.org/) -->
<svg xmlns:dc="http://purl.org/dc/elements/1.1/" xmlns:cc="http://creativecommons.org/ns#" xmlns:rdf="http://www.w3.org/1999/02/22-rdf-syntax-ns#" xmlns:svg="http://www.w3.org/2000/svg" xmlns="http://www.w3.org/2000/svg" xmlns:xlink="http://www.w3.org/1999/xlink" xmlns:sodipodi="http://sodipodi.sourceforge.net/DTD/sodipodi-0.dtd" xmlns:inkscape="http://www.inkscape.org/namespaces/inkscape" id="svg3061" sodipodi:version="0.32" inkscape:version="0.46" width="891.49683" height="551.19269" version="1.0" sodipodi:docname="sport car.svg" inkscape:output_extension="org.inkscape.output.svg.inkscape">
  <metadata id="metadata3066">
    <rdf:RDF>
      <cc:Work rdf:about="">
        <dc:format>image/svg+xml</dc:format>
        <dc:type rdf:resource="http://purl.org/dc/dcmitype/StillImage"/>
      </cc:Work>
    </rdf:RDF>
  </metadata>
  <defs id="defs3064">
    <linearGradient inkscape:collect="always" id="linearGradient2933">
      <stop style="stop-color: rgb(0, 0, 0); stop-opacity: 1;" offset="0" id="stop2935"/>
      <stop style="stop-color: rgb(0, 0, 0); stop-opacity: 0;" offset="1" id="stop2937"/>
    </linearGradient>
    <linearGradient inkscape:collect="always" id="linearGradient2883">
      <stop style="stop-color: rgb(255, 255, 255); stop-opacity: 1;" offset="0" id="stop2885"/>
      <stop style="stop-color: rgb(255, 255, 255); stop-opacity: 0;" offset="1" id="stop2887"/>
    </linearGradient>
    <linearGradient inkscape:collect="always" id="linearGradient2869">
      <stop style="stop-color: rgb(0, 0, 0); stop-opacity: 1;" offset="0" id="stop2871"/>
      <stop style="stop-color: rgb(0, 0, 0); stop-opacity: 0;" offset="1" id="stop2873"/>
    </linearGradient>
    <linearGradient inkscape:collect="always" id="linearGradient2849">
      <stop style="stop-color: rgb(0, 0, 0); stop-opacity: 1;" offset="0" id="stop2851"/>
      <stop style="stop-color: rgb(0, 0, 0); stop-opacity: 0;" offset="1" id="stop2853"/>
    </linearGradient>
    <linearGradient inkscape:collect="always" id="linearGradient2833">
      <stop style="stop-color: rgb(0, 0, 0); stop-opacity: 1;" offset="0" id="stop2835"/>
      <stop style="stop-color: rgb(0, 0, 0); stop-opacity: 0;" offset="1" id="stop2837"/>
    </linearGradient>
    <linearGradient inkscape:collect="always" id="linearGradient2825">
      <stop style="stop-color: rgb(0, 0, 0); stop-opacity: 1;" offset="0" id="stop2827"/>
      <stop style="stop-color: rgb(0, 0, 0); stop-opacity: 0;" offset="1" id="stop2829"/>
    </linearGradient>
    <linearGradient inkscape:collect="always" id="linearGradient2781">
      <stop style="stop-color: rgb(255, 255, 255); stop-opacity: 1;" offset="0" id="stop2783"/>
      <stop style="stop-color: rgb(255, 255, 255); stop-opacity: 0;" offset="1" id="stop2785"/>
    </linearGradient>
    <linearGradient inkscape:collect="always" id="linearGradient2767">
      <stop style="stop-color: rgb(0, 0, 0); stop-opacity: 1;" offset="0" id="stop2769"/>
      <stop style="stop-color: rgb(0, 0, 0); stop-opacity: 0;" offset="1" id="stop2771"/>
    </linearGradient>
    <linearGradient inkscape:collect="always" id="linearGradient2751">
      <stop style="stop-color: rgb(0, 0, 0); stop-opacity: 1;" offset="0" id="stop2753"/>
      <stop style="stop-color: rgb(0, 0, 0); stop-opacity: 0;" offset="1" id="stop2755"/>
    </linearGradient>
    <linearGradient inkscape:collect="always" id="linearGradient2737">
      <stop style="stop-color: rgb(0, 0, 0); stop-opacity: 1;" offset="0" id="stop2739"/>
      <stop style="stop-color: rgb(0, 0, 0); stop-opacity: 0;" offset="1" id="stop2741"/>
    </linearGradient>
    <linearGradient inkscape:collect="always" id="linearGradient2723">
      <stop style="stop-color: rgb(0, 0, 0); stop-opacity: 1;" offset="0" id="stop2725"/>
      <stop style="stop-color: rgb(0, 0, 0); stop-opacity: 0;" offset="1" id="stop2727"/>
    </linearGradient>
    <linearGradient inkscape:collect="always" id="linearGradient2713">
      <stop style="stop-color: rgb(0, 0, 0); stop-opacity: 1;" offset="0" id="stop2715"/>
      <stop style="stop-color: rgb(0, 0, 0); stop-opacity: 0;" offset="1" id="stop2717"/>
    </linearGradient>
    <linearGradient inkscape:collect="always" id="linearGradient2699">
      <stop style="stop-color: rgb(0, 0, 0); stop-opacity: 1;" offset="0" id="stop2701"/>
      <stop style="stop-color: rgb(0, 0, 0); stop-opacity: 0;" offset="1" id="stop2703"/>
    </linearGradient>
    <linearGradient inkscape:collect="always" id="linearGradient2691">
      <stop style="stop-color: rgb(0, 0, 0); stop-opacity: 1;" offset="0" id="stop2693"/>
      <stop style="stop-color: rgb(0, 0, 0); stop-opacity: 0;" offset="1" id="stop2695"/>
    </linearGradient>
    <linearGradient inkscape:collect="always" id="linearGradient2655">
      <stop style="stop-color: rgb(51, 51, 51); stop-opacity: 1;" offset="0" id="stop2657"/>
      <stop style="stop-color: rgb(51, 51, 51); stop-opacity: 0;" offset="1" id="stop2659"/>
    </linearGradient>
    <linearGradient inkscape:collect="always" id="linearGradient2629">
      <stop style="stop-color: rgb(0, 0, 0); stop-opacity: 1;" offset="0" id="stop2631"/>
      <stop style="stop-color: rgb(0, 0, 0); stop-opacity: 0;" offset="1" id="stop2633"/>
    </linearGradient>
    <linearGradient inkscape:collect="always" id="linearGradient2599">
      <stop style="stop-color: rgb(0, 0, 0); stop-opacity: 1;" offset="0" id="stop2601"/>
      <stop style="stop-color: rgb(0, 0, 0); stop-opacity: 0;" offset="1" id="stop2603"/>
    </linearGradient>
    <inkscape:perspective sodipodi:type="inkscape:persp3d" inkscape:vp_x="0 : 526.18109 : 1" inkscape:vp_y="0 : 1000 : 0" inkscape:vp_z="744.09448 : 526.18109 : 1" inkscape:persp3d-origin="372.04724 : 350.78739 : 1" id="perspective3068"/>
    <linearGradient inkscape:collect="always" xlink:href="#linearGradient2599" id="linearGradient2605" x1="691.55042" y1="240.3562" x2="254.11143" y2="255.91255" gradientUnits="userSpaceOnUse" gradientTransform="translate(-61.672, -111.49)"/>
    <linearGradient inkscape:collect="always" xlink:href="#linearGradient2629" id="linearGradient2635" x1="625.0824" y1="179.54503" x2="489.3179" y2="205.00087" gradientUnits="userSpaceOnUse" gradientTransform="translate(-61.672, -111.49)"/>
    <linearGradient inkscape:collect="always" xlink:href="#linearGradient2655" id="linearGradient2661" x1="5.6568542" y1="534.51263" x2="246.07317" y2="418.54712" gradientUnits="userSpaceOnUse" gradientTransform="translate(-61.672, -111.49)"/>
    <linearGradient inkscape:collect="always" xlink:href="#linearGradient2691" id="linearGradient2697" x1="147.07822" y1="257.32678" x2="31.112698" y2="402.99075" gradientUnits="userSpaceOnUse"/>
    <linearGradient inkscape:collect="always" xlink:href="#linearGradient2699" id="linearGradient2705" x1="175.36249" y1="199.34401" x2="106.06602" y2="724.01727" gradientUnits="userSpaceOnUse"/>
    <linearGradient inkscape:collect="always" xlink:href="#linearGradient2713" id="linearGradient2719" x1="130.10765" y1="697.14716" x2="376.18082" y2="445.41718" gradientUnits="userSpaceOnUse" gradientTransform="translate(-61.672, -111.49)"/>
    <linearGradient inkscape:collect="always" xlink:href="#linearGradient2723" id="linearGradient2729" x1="667.50879" y1="62.165295" x2="592.48883" y2="234.69936" gradientUnits="userSpaceOnUse" gradientTransform="translate(-61.672, -111.49)"/>
    <linearGradient inkscape:collect="always" xlink:href="#linearGradient2737" id="linearGradient2743" x1="691.55042" y1="360.56436" x2="752.36163" y2="401.89865" gradientUnits="userSpaceOnUse" gradientTransform="translate(-61.672, -111.49)"/>
    <linearGradient inkscape:collect="always" xlink:href="#linearGradient2751" id="linearGradient2757" x1="936.20935" y1="619.36542" x2="717.00629" y2="224.79985" gradientUnits="userSpaceOnUse" gradientTransform="translate(-61.672, -111.49)"/>
    <linearGradient inkscape:collect="always" xlink:href="#linearGradient2751" id="linearGradient2759" x1="936.20935" y1="619.36542" x2="717.00629" y2="224.79985" gradientUnits="userSpaceOnUse" gradientTransform="translate(-61.672, -111.49)"/>
    <linearGradient inkscape:collect="always" xlink:href="#linearGradient2751" id="linearGradient2761" x1="936.20935" y1="619.36542" x2="717.00629" y2="224.79985" gradientUnits="userSpaceOnUse" gradientTransform="translate(-61.672, -111.49)"/>
    <linearGradient inkscape:collect="always" xlink:href="#linearGradient2767" id="linearGradient2773" x1="936.20935" y1="79.135857" x2="736.80524" y2="141.36125" gradientUnits="userSpaceOnUse" gradientTransform="translate(-61.672, -111.49)"/>
    <linearGradient inkscape:collect="always" xlink:href="#linearGradient2767" id="linearGradient2775" x1="936.20935" y1="79.135857" x2="736.80524" y2="141.36125" gradientUnits="userSpaceOnUse" gradientTransform="translate(-61.672, -111.49)"/>
    <linearGradient inkscape:collect="always" xlink:href="#linearGradient2781" id="linearGradient2787" x1="1043.6896" y1="411.47604" x2="1040.8612" y2="405.81918" gradientUnits="userSpaceOnUse" gradientTransform="translate(-61.672, -111.49)"/>
    <linearGradient inkscape:collect="always" xlink:href="#linearGradient2825" id="linearGradient2831" x1="319.61227" y1="719.7746" x2="574.17072" y2="453.22873" gradientUnits="userSpaceOnUse" gradientTransform="translate(-61.672, -111.49)"/>
    <linearGradient inkscape:collect="always" xlink:href="#linearGradient2833" id="linearGradient2839" x1="91.923882" y1="650.47815" x2="974.39313" y2="550.06897" gradientUnits="userSpaceOnUse" gradientTransform="translate(-61.672, -111.49)"/>
    <linearGradient inkscape:collect="always" xlink:href="#linearGradient2849" id="linearGradient2855" x1="26.870058" y1="671.69135" x2="387.49451" y2="459.48444" gradientUnits="userSpaceOnUse" gradientTransform="translate(-61.672, -111.49)"/>
    <linearGradient inkscape:collect="always" xlink:href="#linearGradient2849" id="linearGradient2857" x1="26.870058" y1="671.69135" x2="387.49451" y2="459.48444" gradientUnits="userSpaceOnUse" gradientTransform="translate(-61.672, -111.49)"/>
    <linearGradient inkscape:collect="always" xlink:href="#linearGradient2849" id="linearGradient2859" x1="26.870058" y1="671.69135" x2="387.49451" y2="459.48444" gradientUnits="userSpaceOnUse" gradientTransform="translate(-61.672, -111.49)"/>
    <linearGradient inkscape:collect="always" xlink:href="#linearGradient2849" id="linearGradient2861" x1="26.870058" y1="671.69135" x2="387.49451" y2="459.48444" gradientUnits="userSpaceOnUse" gradientTransform="translate(-61.672, -111.49)"/>
    <linearGradient inkscape:collect="always" xlink:href="#linearGradient2869" id="linearGradient2875" x1="476.58997" y1="687.24768" x2="409.77014" y2="472.28723" gradientUnits="userSpaceOnUse" gradientTransform="translate(-61.672, -111.49)"/>
    <linearGradient inkscape:collect="always" xlink:href="#linearGradient2869" id="linearGradient2877" x1="476.58997" y1="687.24768" x2="409.77014" y2="472.28723" gradientUnits="userSpaceOnUse" gradientTransform="translate(-61.672, -111.49)"/>
    <linearGradient inkscape:collect="always" xlink:href="#linearGradient2869" id="linearGradient2879" x1="476.58997" y1="687.24768" x2="409.77014" y2="472.28723" gradientUnits="userSpaceOnUse" gradientTransform="translate(-61.672, -111.49)"/>
    <linearGradient inkscape:collect="always" xlink:href="#linearGradient2883" id="linearGradient2889" x1="299.81326" y1="178.13081" x2="322.4407" y2="301.16739" gradientUnits="userSpaceOnUse" gradientTransform="translate(-61.672, -111.49)"/>
    <linearGradient inkscape:collect="always" xlink:href="#linearGradient2849" id="linearGradient2929" x1="374.7666" y1="562.79688" x2="287.08536" y2="439.76031" gradientUnits="userSpaceOnUse" gradientTransform="translate(-61.672, -111.49)"/>
    <linearGradient inkscape:collect="always" xlink:href="#linearGradient2933" id="linearGradient2939" x1="111.72287" y1="265.81204" x2="246.07317" y2="366.22122" gradientUnits="userSpaceOnUse" gradientTransform="translate(-61.672, -111.49)"/>
  </defs>
  <sodipodi:namedview inkscape:window-height="732" inkscape:window-width="1263" inkscape:pageshadow="2" inkscape:pageopacity="0.0" guidetolerance="10.0" gridtolerance="10.0" objecttolerance="10.0" borderopacity="1.0" bordercolor="#666666" pagecolor="#ffffff" id="base" showgrid="false" inkscape:zoom="0.70710678" inkscape:cx="546.59292" inkscape:cy="277.41179" inkscape:window-x="1" inkscape:window-y="0" inkscape:current-layer="svg3061"/>
  <path style="fill: rgb(212, 0, 0); fill-rule: evenodd; stroke: rgb(0, 0, 0); stroke-width: 1px; stroke-linecap: butt; stroke-linejoin: miter; stroke-opacity: 1;" d="M 383.74194,513.2022 C 383.74194,513.2022 363.57264,523.08529 354.47534,526.15624 C 345.08144,529.32735 332.06784,531.96719 322.33014,533.83271 C 313.47374,535.5294 301.59384,537.78484 292.58384,538.15073 C 276.58864,538.80029 254.99614,538.07686 239.32832,534.79227 C 215.93134,529.88734 164.48273,507.44485 164.48273,507.44485 L 93.955156,471.46139 C 93.955156,471.46139 56.252476,445.95499 42.138976,432.59926 C 31.898961,422.90904 17.665141,409.48708 11.912881,396.6158 C 9.0060413,390.11143 8.5544213,373.10661 8.5544213,373.10661 L 13.352211,367.34926 C 13.352211,367.34926 8.4971813,361.69339 7.5948613,358.71323 C 7.1360513,357.19789 7.4741313,355.01431 7.5948613,353.43565 C 7.7392113,351.54801 8.6605413,349.0887 8.5544213,347.19852 C 8.0612113,338.41354 1.7386813,327.64816 0.87795134,318.89154 C 0.059361336,310.56368 0.51415134,299.1149 2.7970713,291.06433 C 5.4141713,281.83528 12.254551,270.67537 17.670231,262.75735 C 28.440761,247.01023 45.388056,227.71509 59.411036,214.7794 C 72.424296,202.77514 91.522496,188.51319 106.9092,179.75551 C 119.12976,172.79991 136.96624,166.57429 150.08935,161.52389 C 172.13782,153.03858 224.45516,135.6158 224.45516,135.6158 C 224.45516,135.6158 258.74794,118.00762 274.83194,116.9044 C 277.47974,116.72279 280.81414,118.79912 283.46804,118.82352 C 285.31074,118.84046 288.21424,118.93332 289.48784,117.60146 C 290.66154,116.37409 289.30564,113.33637 290.36494,112.00905 C 293.71144,107.81605 302.24274,107.91266 306.97724,105.3897 C 312.82584,102.27301 319.80764,96.75562 325.20884,92.91543 C 334.68744,86.17624 346.28304,75.63236 356.39444,69.88602 C 374.17374,59.78202 399.69384,49.49157 419.24564,43.49815 C 436.08624,38.3358 459.87414,36.7922 476.81914,31.98345 C 481.98894,30.51633 488.60574,27.70148 493.61144,25.74632 C 508.10154,20.08666 526.90014,11.19614 541.58934,6.0753602 C 546.96604,4.2010002 554.17354,1.5250202 559.82094,0.79778019 C 565.39024,0.080610194 572.93514,0.82711019 578.53234,1.2775602 C 590.26014,2.2214002 605.71084,5.1681202 617.39444,6.5551402 C 625.87084,7.5614102 637.16784,9.6289802 645.70144,9.4338202 C 649.62904,9.3440002 654.72914,7.6467702 658.65554,7.5147002 C 669.47894,7.1506302 683.93444,8.7526702 694.63894,10.39337 C 716.38244,13.72603 744.94364,20.77387 766.12614,26.70587 C 777.52184,29.89716 793.06644,33.68784 803.54894,39.18014 C 808.01114,41.51816 813.67154,45.45885 816.98274,49.25551 C 818.93074,51.48917 819.48214,56.02036 821.78054,57.89154 C 833.00714,67.03134 855.45354,64.79061 867.83934,72.28492 C 872.19324,74.91932 877.57934,79.71723 879.83384,84.2794 C 884.65864,94.04287 884.63164,120.26286 884.63164,120.26286 L 884.15184,141.37315 L 880.31364,156.24632 C 880.31364,156.24632 876.57084,138.70884 872.63714,132.25735 C 870.62374,128.95526 864.02434,127.49745 860.33934,126.32352 C 853.80094,124.2406 845.94784,125.48472 839.91104,128.74754 C 832.65364,132.67002 824.16834,142.81058 818.28724,149.91163 C 812.40614,157.01268 807.21804,164.4909 802.10954,174.47793 C 797.00114,184.46496 792.11254,203.06358 789.63534,213.34007 C 787.15804,223.61656 787.35124,226.83338 786.78214,235.71232 C 786.51494,239.88033 786.75684,250.10646 788.14564,254.04534 C 788.62434,255.40277 788.70464,257.17267 789.43334,258.41391 C 790.15104,259.63639 790.56334,263.33162 790.11504,264.67646 C 785.63224,278.12484 748.85404,287.70587 748.85404,287.70587 L 692.24004,319.8511 L 640.42394,347.6783 L 504.16654,433.55882 C 512.33984,412.65222 510.96134,414.22049 512.39214,398.93261 C 514.38574,382.02854 512.30304,375.17207 511.59674,362.31797 C 503.72214,343.16517 502.94484,342.64241 492.48764,331.92767 C 484.49134,330.64826 482.11374,329.36885 470.74614,329.77506 C 452.88674,335.13046 451.88334,335.99089 437.95694,345.2794 C 427.80804,353.98049 416.64514,365.69611 405.26264,379.81075 C 398.25574,388.49956 392.17884,402.7167 385.42754,419.31684 C 381.12014,429.90801 379.24144,444.20476 378.46434,455.62867 C 377.64224,467.71395 377.84024,480.0497 378.94414,492.0919 C 379.59944,499.24088 382.14264,506.16543 383.74194,513.2022 z" id="path3078" sodipodi:nodetypes="cssssccssccssssssssscssssssssssssssssssssssscccssszzzsssscccccccccssssc" inkscape:transform-center-x="-479.94259" inkscape:transform-center-y="-303.53985"/>
  <path style="fill: none; fill-rule: evenodd; stroke: rgb(0, 0, 0); stroke-width: 1px; stroke-linecap: butt; stroke-linejoin: miter; stroke-opacity: 1;" d="M 7.5562813,371.47561 C 7.5562813,371.47561 17.390121,391.91969 23.288691,399.56921 C 31.441691,410.14238 44.897656,422.12147 55.315386,430.47217 C 72.970816,444.6245 98.629336,460.77123 118.24505,472.05069 C 135.36672,481.89602 159.05576,493.56367 177.24161,501.26803 C 192.06702,507.54875 212.23263,515.17569 227.81008,519.24794 C 239.39229,522.27575 255.26864,524.45468 267.14114,525.9904 C 276.70634,527.22767 288.40904,527.54984 298.04404,527.11414 C 313.27104,526.42557 334.34974,523.35396 349.17444,519.80981 C 359.44404,517.35465 382.88674,509.69611 382.88674,509.69611" id="path3084" sodipodi:nodetypes="csssssssss"/>
  <path style="fill: none; fill-rule: evenodd; stroke: rgb(0, 0, 0); stroke-width: 1px; stroke-linecap: butt; stroke-linejoin: miter; stroke-opacity: 1;" d="M 40.706716,418.67285 L 35.649871,397.88359 C 35.649871,397.88359 57.035106,414.73811 66.552826,421.48221 C 77.081146,428.94241 91.224346,438.82984 102.51263,445.08083 C 114.52148,451.73084 131.26631,459.28976 144.09116,464.18448 C 152.65909,467.45451 173.3085,473.17443 173.3085,473.17443 L 172.74663,472.05069" id="path3086" sodipodi:nodetypes="ccssscc"/>
  <path style="fill: none; fill-rule: evenodd; stroke: rgb(0, 0, 0); stroke-width: 1px; stroke-linecap: butt; stroke-linejoin: miter; stroke-opacity: 1;" d="M 323.32834,509.69611 C 316.58584,502.76636 309.84334,495.8366 303.10094,488.90685 C 300.58664,482.96451 300.05884,481.98846 299.72964,478.23128 C 298.92374,474.23001 298.71374,474.00313 300.29154,469.80321 C 302.52764,465.76785 302.97594,465.90419 307.59594,463.06074 C 319.58254,459.68951 331.56914,456.31828 343.55574,452.94705 C 351.04734,450.13769 358.53894,447.32833 366.03054,444.51897 C 365.24734,457.73741 365.25874,457.64619 365.46874,468.67946 C 365.80924,479.99643 365.75244,479.79159 368.27804,498.45867 C 353.29484,502.20448 338.31154,505.9503 323.32834,509.69611 z" id="path3088" sodipodi:nodetypes="cccccccccc"/>
  <path style="fill: none; fill-rule: evenodd; stroke: rgb(0, 0, 0); stroke-width: 1px; stroke-linecap: butt; stroke-linejoin: miter; stroke-opacity: 1;" d="M 367.71624,497.89679 L 331.75644,489.46872 L 330.07074,456.88014 L 330.07074,456.31827" id="path3090"/>
  <path style="fill: none; fill-rule: evenodd; stroke: rgb(0, 0, 0); stroke-width: 1px; stroke-linecap: butt; stroke-linejoin: miter; stroke-opacity: 1;" d="M 331.29674,488.87276 L 328.45334,491.55163 C 326.60114,493.34892 318.68384,494.92893 311.03534,497.17035" id="path3094" sodipodi:nodetypes="ccc"/>
  <path style="fill: none; fill-rule: evenodd; stroke: rgb(0, 0, 0); stroke-width: 1px; stroke-linecap: butt; stroke-linejoin: miter; stroke-opacity: 1;" d="M 183.54219,503.94272 L 174.00691,472.95305 C 167.17685,461.21846 168.39802,453.43062 172.4177,441.96338 C 172.4177,441.96338 188.53019,419.25535 196.25591,410.1791 C 208.05782,396.31411 224.41058,378.1657 238.37007,366.47572 C 259.71024,348.60499 291.49804,329.01137 315.44694,314.82627 C 333.24374,304.28508 357.52024,290.95366 376.63164,283.04199 C 381.02024,281.22525 391.72914,278.27435 391.72914,278.27435" id="path3096" sodipodi:nodetypes="cccssssc"/>
  <path style="fill: none; fill-rule: evenodd; stroke: rgb(0, 0, 0); stroke-width: 1px; stroke-linecap: butt; stroke-linejoin: miter; stroke-opacity: 1;" d="M 188.79185,436.85006 C 188.79185,436.85006 201.72001,418.6983 208.65702,412.21725 C 217.16201,404.27128 229.88611,394.87348 240.4413,389.96825 C 251.40054,384.87526 267.40754,381.3042 279.37704,379.63836 C 293.07324,377.7322 311.63794,378.6117 325.46424,378.84375 C 339.54494,379.08007 372.34604,381.22757 372.34604,381.22757 C 372.34604,381.22757 342.16224,407.32178 328.64264,417.77949 C 318.91054,425.30749 306.23334,436.03449 295.26914,441.6177 C 286.53644,446.06463 273.95274,450.37784 264.27954,451.94759 C 257.45574,453.05494 248.10674,452.71101 241.23591,451.94759 C 231.52202,450.86827 218.80524,447.63065 209.45163,444.79613 C 203.09647,442.87026 188.79185,436.85006 188.79185,436.85006 z" id="path3098" sodipodi:nodetypes="csssscsssssc"/>
  <path style="fill: none; fill-rule: evenodd; stroke: rgb(0, 0, 0); stroke-width: 1px; stroke-linecap: butt; stroke-linejoin: miter; stroke-opacity: 1;" d="M 372.62694,381.55671 C 377.53374,381.94185 375.69794,381.20324 381.44754,381.86931 C 386.46394,381.50529 394.85164,383.38874 399.58714,387.80063" id="path3100" sodipodi:nodetypes="ccc"/>
  <path style="fill: none; fill-rule: evenodd; stroke: rgb(0, 0, 0); stroke-width: 1px; stroke-linecap: butt; stroke-linejoin: miter; stroke-opacity: 1;" d="M 19.917451,343.38201 C 19.917451,343.38201 38.252431,328.30015 43.516076,319.78339 C 47.999836,312.52851 50.860496,301.1819 52.506026,292.81353 C 54.461716,282.86784 55.189646,269.22798 54.753516,259.10122 C 54.371936,250.24111 50.258536,229.88388 50.258536,229.88388 C 50.258536,229.88388 17.627961,262.13692 8.6800213,279.32861 C 6.2637513,283.971 4.7568713,290.98254 4.1850413,296.18477 C 3.3002413,304.23426 2.6574013,315.50299 5.3087813,323.15462 C 7.7595813,330.22739 19.917451,343.38201 19.917451,343.38201 z" id="path3102" sodipodi:nodetypes="cssscsssc"/>
  <path style="fill: none; fill-rule: evenodd; stroke: rgb(0, 0, 0); stroke-width: 1px; stroke-linecap: butt; stroke-linejoin: miter; stroke-opacity: 1;" d="M 18.793711,342.25827 C 18.793711,342.25827 34.121431,357.65899 41.268586,363.6094 C 51.840366,372.411 66.650486,383.34724 78.352136,390.57926 C 95.795926,401.36011 120.11192,414.14119 139.03431,422.04408 C 150.15087,426.68689 177.2416,434.40527 177.2416,434.40527" id="path3106" sodipodi:nodetypes="csssc"/>
  <path style="fill: rgb(145, 111, 111); fill-rule: evenodd; stroke: rgb(0, 0, 0); stroke-width: 1px; stroke-linecap: butt; stroke-linejoin: miter; stroke-opacity: 1;" d="M 307.68944,107.24173 L 231.93942,160.24173 L 200.18942,192.24173 L 192.93942,206.99173 L 193.93942,220.49173 L 201.18942,230.24173 L 218.18942,245.74173 C 218.18942,245.74173 247.44774,264.04347 260.93944,269.99173 C 266.92924,272.63253 275.29424,275.3443 281.68944,276.74173 C 294.37694,279.51413 311.71044,281.28917 324.68944,281.74173 C 340.97184,282.30947 362.75094,281.07806 378.93944,279.24173 C 398.10264,277.06796 423.43104,272.22214 442.18944,267.74173 C 465.47774,262.17938 496.24804,253.33837 518.68944,244.99173 C 531.87244,240.08859 549.31354,232.86869 561.43944,225.74173 C 578.12154,215.93687 598.28114,199.57743 613.18944,187.24173 C 620.87794,180.87998 637.68944,164.74173 637.68944,164.74173 L 641.18934,149.49173 L 637.43944,130.49173 L 633.68944,115.74173 C 633.68944,115.74173 605.66964,124.25269 593.68944,127.99173 C 577.38704,133.07973 556.00534,141.0913 539.43944,145.24173 C 529.45104,147.74423 515.89834,150.14657 505.68944,151.49173 C 489.65274,153.60477 468.09924,153.95061 451.93944,153.24173 C 434.76804,152.48847 412.20254,150.03957 395.43944,146.24173 C 381.36304,143.05258 362.58054,138.37634 349.18944,132.99173 C 343.52434,130.71378 336.40454,126.66746 331.18944,123.49173 C 326.81804,120.82975 317.18944,113.74173 317.18944,113.74173 L 312.68944,106.99173 L 311.43944,105.24173 L 307.68944,107.24173 z" id="path3108" sodipodi:nodetypes="cccccccssssssssccccssssssscccc"/>
  <path style="fill: none; fill-rule: evenodd; stroke: rgb(0, 0, 0); stroke-width: 1px; stroke-linecap: butt; stroke-linejoin: miter; stroke-opacity: 1;" d="M 32.345231,354.89428 L 111.54119,277.11253 L 197.80822,195.08814" id="path3110"/>
  <path style="fill: none; fill-rule: evenodd; stroke: rgb(0, 0, 0); stroke-width: 1px; stroke-linecap: butt; stroke-linejoin: miter; stroke-opacity: 1;" d="M 6.8893813,341.1057 C 6.8893813,341.1057 23.103561,359.08125 30.931011,365.85443 C 42.418216,375.79445 59.145766,387.36845 71.943206,395.55292 C 88.745756,406.29882 112.50802,420.31998 129.92596,428.07983 C 145.62987,435.07606 172.59188,445.33929 189.32293,449.29303 C 209.08145,453.96219 251.54834,463.43516 251.54834,463.43516 L 278.41834,457.77832 C 278.41834,457.77832 294.57074,452.55398 301.04584,449.29303 C 308.71844,445.42896 318.26704,438.95997 325.08744,433.73669 C 334.15074,426.7957 338.86024,423.24473 355.49304,409.69505 C 372.46664,395.86773 393.59984,370.26568 411.35444,354.54072 C 427.58024,340.16978 448.97294,320.61121 466.50874,307.87167 C 483.46384,295.55402 507.85934,281.75712 525.90574,271.10212 C 539.31914,263.18252 571.16054,245.64628 571.16054,245.64628" id="path3112" sodipodi:nodetypes="cssssccsszssss"/>
  <path style="fill: none; fill-rule: evenodd; stroke: rgb(0, 0, 0); stroke-width: 1px; stroke-linecap: butt; stroke-linejoin: miter; stroke-opacity: 1;" d="M 195.55488,479.60844 C 195.43366,480.61621 195.73612,481.9914 196.05678,482.95445 C 196.52499,484.36065 197.47341,486.14672 198.39899,487.30427 C 200.30969,489.69384 203.59854,492.22728 206.09482,493.9963 C 208.82745,495.93281 212.76407,498.09911 215.79826,499.51722 C 219.04986,501.03694 224.34129,503.66386 227.7172,504.88273 C 233.01728,506.79632 239.28378,508.48684 244.74128,509.88986 C 248.24154,510.7897 253.01824,511.59527 256.61964,511.89747 C 260.97084,512.26259 267.07634,513.40396 271.17474,511.89747 C 272.41134,511.44295 273.89744,510.21399 274.52084,509.05336 C 275.11874,507.94001 275.18334,506.12435 275.02274,504.87084 C 274.63884,501.87557 272.80224,498.14529 271.34204,495.502 C 269.62384,492.39144 266.88664,488.41887 264.31544,485.96587 C 262.61334,484.34195 259.93194,482.5906 257.79074,481.61605 C 255.18654,480.43074 251.39604,479.66181 248.58914,479.10654 C 244.61966,478.32127 239.21773,477.95599 235.20514,477.43353 C 230.3836,476.80574 223.97996,475.76601 219.14427,475.25862 C 215.79059,474.90673 211.30612,474.5085 207.93513,474.42212 C 205.77708,474.36682 200.7412,474.58942 200.7412,474.58942 C 200.7412,474.58942 197.90764,475.11362 197.06058,475.92783 C 196.20048,476.75457 195.69736,478.42397 195.55488,479.60844 z" id="path3114" sodipodi:nodetypes="cssssssssssssssssscss"/>
  <path style="fill: none; fill-rule: evenodd; stroke: rgb(0, 0, 0); stroke-width: 1px; stroke-linecap: butt; stroke-linejoin: miter; stroke-opacity: 1;" d="M 209.80414,474.38848 C 209.80414,474.38848 210.99315,480.07711 212.14635,482.25161 C 212.81478,483.51201 214.11647,484.95698 215.15776,485.93223 C 216.41826,487.11278 218.32253,488.45774 219.84218,489.27824 C 222.1632,490.53143 225.55458,491.57334 228.03991,492.45695 C 231.56931,493.71175 236.35147,495.16067 239.91826,496.30487 C 244.18054,497.67218 249.87154,499.47046 254.13884,500.82199 C 257.95224,502.02977 262.96654,503.89294 266.85364,504.8372 C 268.28894,505.18586 270.22844,505.66959 271.70534,505.67371 C 272.62124,505.67627 274.71684,505.1718 274.71684,505.1718" id="path3116" sodipodi:nodetypes="csssssssss"/>
  <path style="fill: none; fill-rule: evenodd; stroke: rgb(0, 0, 0); stroke-width: 1px; stroke-linecap: butt; stroke-linejoin: miter; stroke-opacity: 1;" d="M 530.02494,242.16109 L 534.28374,253.99104 C 534.28374,253.99104 537.75104,269.47077 538.06934,276.23133 C 538.51794,285.7585 536.31224,298.41731 535.70334,307.93558 C 535.02264,318.57591 533.98794,332.76481 533.81054,343.42542 C 533.69244,350.52382 531.93064,360.38724 534.28374,367.08531 C 535.82724,371.47868 539.33284,377.90721 543.74764,379.38845 C 549.46834,381.30786 552.36584,378.94648 563.38544,372.29049 C 566.70434,370.28584 570.89934,366.83071 573.55914,364.00952 C 577.19504,360.153 577.97234,353.83372 581.13034,349.57699 C 594.40994,331.67698 625.25534,321.08579 640.28004,304.6232 C 642.98844,301.65559 645.78804,296.95616 647.37804,293.26645 C 648.71344,290.16761 648.46324,285.26562 650.21714,282.3829 C 658.15864,269.32997 688.07304,248.31266 688.07304,248.31266 C 688.07304,248.31266 706.56834,211.12883 710.31334,193.89492 C 711.06754,190.4241 711.59014,185.52469 710.78654,182.06497 C 709.90994,178.2907 707.47664,173.34236 704.63494,170.70823 C 700.30094,166.69072 686.65344,162.66387 686.65344,162.66387 L 669.61834,157.93189 C 669.61834,157.93189 660.01254,135.84158 654.47594,127.17403 C 651.92184,123.17566 647.98084,118.13625 644.53884,114.87089 C 640.85134,111.37264 630.81604,104.93374 630.81604,104.93374 C 630.81604,104.93374 603.01254,115.91721 591.06744,120.54926 C 579.58824,125.00064 565.50684,129.8866 553.68484,133.3256 C 545.47794,135.71297 524.81974,140.89677 524.81974,140.89677 L 524.81974,245.00028 L 530.02494,242.16109 z" id="path3118" sodipodi:nodetypes="ccssssssssssscsssccsscssccc"/>
  <path style="fill: none; fill-rule: evenodd; stroke: rgb(0, 0, 0); stroke-width: 1px; stroke-linecap: butt; stroke-linejoin: miter; stroke-opacity: 1;" d="M 536.01174,250.57381 C 536.01174,250.57381 555.31684,241.88011 563.44904,237.85895 C 567.31294,235.94834 572.42214,233.30703 576.16384,231.16693 C 599.32854,217.91767 629.89024,199.58125 651.78374,184.32274 C 668.91634,172.38232 690.39154,154.58915 706.65834,141.49376 C 717.43064,132.82168 731.91114,121.80793 743.12994,113.72185 C 750.22534,108.60777 759.49074,101.3261 766.88664,96.65718 C 774.75094,91.6926 826.44564,61.18943 826.44564,61.18943" id="path3120" sodipodi:nodetypes="csssssss"/>
  <path style="fill: none; fill-rule: evenodd; stroke: rgb(0, 0, 0); stroke-width: 1px; stroke-linecap: butt; stroke-linejoin: miter; stroke-opacity: 1;" d="M 578.29104,355.25536 L 589.64784,356.20176 L 630.34284,328.75628 L 690.91214,292.79325 L 726.87514,266.29418 L 748.64224,222.75998 L 758.10624,187.74335 L 699.42974,227.49196" id="path3122" sodipodi:nodetypes="cccccccc"/>
  <path style="fill: none; fill-rule: evenodd; stroke: rgb(0, 0, 0); stroke-width: 1px; stroke-linecap: butt; stroke-linejoin: miter; stroke-opacity: 1;" d="M 751.48144,191.52892 L 740.12474,226.54556 L 733.49994,237.9023 C 733.49994,237.9023 727.59854,239.70871 724.98234,239.7951 C 721.25004,239.91835 715.69694,240.10207 712.67924,237.9023 C 710.62714,236.40641 710.11564,232.55723 708.89364,230.33114 C 708.09694,228.8799 706.49634,227.19461 706.05444,225.59916 C 705.97864,225.32555 706.05444,224.65277 706.05444,224.65277" id="path3124" sodipodi:nodetypes="cccsssss"/>
  <path style="fill: none; fill-rule: evenodd; stroke: rgb(0, 0, 0); stroke-width: 1px; stroke-linecap: butt; stroke-linejoin: miter; stroke-opacity: 1;" d="M 737.28554,230.33115 L 727.82164,253.99103 L 718.35764,267.24057 L 618.98614,331.59547 L 592.48704,350.52338" id="path3126"/>
  <path style="fill: none; fill-rule: evenodd; stroke: rgb(0, 0, 0); stroke-width: 1px; stroke-linecap: butt; stroke-linejoin: miter; stroke-opacity: 1;" d="M 741.24504,101.48684 C 741.24504,101.48684 726.68884,95.95686 716.63874,92.02288 C 708.10434,88.68223 696.36204,84.87823 687.30054,83.50532 C 671.85864,81.1657 650.79694,81.08275 635.24874,82.55893 C 618.78464,84.12206 597.17704,89.27201 581.30424,93.91567 C 570.52424,97.06942 556.83644,103.30844 546.28754,107.16521 C 541.48034,108.92276 530.19884,112.84358 530.19884,112.84358" id="path3130" sodipodi:nodetypes="csssssc"/>
  <path style="fill: none; fill-rule: evenodd; stroke: rgb(0, 0, 0); stroke-width: 1px; stroke-linecap: butt; stroke-linejoin: miter; stroke-opacity: 1;" d="M 578.94354,73.68781 C 579.88994,65.17025 560.83444,65.54207 551.96594,63.63101 C 540.55604,61.17231 524.82414,60.27648 513.16374,60.79182 C 500.80664,61.33796 484.61274,65.06717 472.46874,67.41659 C 458.47004,70.12482 439.67534,73.48174 426.09534,77.82694 C 420.52064,79.61068 408.11384,85.39811 408.11384,85.39811 C 408.11384,85.39811 404.70504,89.93699 405.27464,92.02288 C 406.66584,97.11752 414.69964,100.16843 419.47054,102.43323 C 426.62464,105.82935 445.02324,109.058 445.02324,109.058 L 461.11194,107.16521 C 461.11194,107.16521 490.24854,98.51085 502.75334,94.86206 C 519.48814,89.97898 538.70704,82.73481 555.76224,79.12689 C 562.91184,77.61444 570.62784,75.17464 579.08534,74.03507 C 587.54284,72.89551 596.74164,73.0562 604.02844,72.50212 C 622.43224,71.10272 649.93114,70.44686 668.37254,71.20218 C 680.05864,71.68082 695.85174,72.25753 707.17474,74.98776 C 718.49774,77.718 728.73914,79.92174 734.65244,84.5875 C 740.56574,89.25325 741.34144,88.97617 742.16114,91.57658 C 742.98084,94.177 742.06264,92.15528 742.69144,95.72648 C 743.32024,99.29768 741.91854,102.39647 741.68254,101.92442" id="path3132" sodipodi:nodetypes="csssscssccsszsszzzzc"/>
  <path style="fill: none; fill-rule: evenodd; stroke: rgb(0, 0, 0); stroke-width: 1px; stroke-linecap: butt; stroke-linejoin: miter; stroke-opacity: 1;" d="M 418.91934,101.74755 C 410.91014,99.23627 401.07694,93.46602 399.36974,87.17353 C 401.64524,80.52634 407.15564,78.03773 411.87464,76.22272 C 411.87464,76.22272 435.95244,68.39378 446.67324,65.20466 C 457.69384,61.92638 465.21294,60.81313 476.57734,59.06701 C 490.01364,57.00257 506.68084,54.5265 520.27164,54.82216 C 530.28394,55.03997 552.39354,56.25372 562.33044,57.49897 C 579.85234,59.69473 585.86734,62.52785 585.86734,62.52785 C 588.99034,67.70132 591.16684,69.08921 590.97744,72.36988" id="path3134" sodipodi:nodetypes="ccssssscc"/>
  <path style="fill: none; fill-rule: evenodd; stroke: rgb(0, 0, 0); stroke-width: 1px; stroke-linecap: butt; stroke-linejoin: miter; stroke-opacity: 1;" d="M 804.86054,56.15259 L 727.04904,30.50716 L 650.39104,17.25764 L 642.81984,18.20403 L 625.78474,22.93601 L 759.22654,61.73822 L 759.52834,78.93935" id="path3136" sodipodi:nodetypes="ccccccc"/>
  <path style="fill: none; fill-rule: evenodd; stroke: rgb(0, 0, 0); stroke-width: 1px; stroke-linecap: butt; stroke-linejoin: miter; stroke-opacity: 1;" d="M 580.35774,219.78628 L 642.81994,180.98406 L 672.15814,157.32418 L 737.45944,108.11161 L 760.17294,78.77334 L 818.42264,52.85635" id="path3138" sodipodi:nodetypes="cccccc"/>
  <path style="fill: none; fill-rule: evenodd; stroke: rgb(0, 0, 0); stroke-width: 1px; stroke-linecap: butt; stroke-linejoin: miter; stroke-opacity: 1;" d="M 631.97174,60.3843 C 631.97174,60.3843 606.66494,48.30148 595.20224,44.82796 C 586.52224,42.1977 574.47234,40.52144 565.50374,39.1711 C 550.30754,36.88313 529.95874,33.35927 514.59204,33.51425 C 498.33184,33.67824 475.50294,32.41262 459.43774,34.92846" id="path3140" sodipodi:nodetypes="cssss"/>
  <path style="fill: none; fill-rule: evenodd; stroke: rgb(0, 0, 0); stroke-width: 1px; stroke-linecap: butt; stroke-linejoin: miter; stroke-opacity: 1;" d="M 626.31494,57.55588 L 592.37384,71.69801" id="path3142"/>
  <path style="fill: none; fill-rule: evenodd; stroke: rgb(0, 0, 0); stroke-width: 1px; stroke-linecap: butt; stroke-linejoin: miter; stroke-opacity: 1;" d="M 634.80024,8.0584002 L 565.50374,36.34267" id="path3144" sodipodi:nodetypes="cc"/>
  <path style="fill: none; fill-rule: evenodd; stroke: rgb(0, 0, 0); stroke-width: 1px; stroke-linecap: butt; stroke-linejoin: miter; stroke-opacity: 1;" d="M 633.38594,29.2716 L 602.27324,44.82795" id="path3146"/>
  <path style="fill: none; fill-rule: evenodd; stroke: rgb(0, 0, 0); stroke-width: 1px; stroke-linecap: butt; stroke-linejoin: miter; stroke-opacity: 1;" d="M 525.36334,140.60883 C 525.36334,140.60883 498.57244,145.16532 486.86334,146.10883 C 478.46914,146.78523 464.28434,147.02618 455.86334,147.10883 C 447.15214,147.19433 438.01504,145.62918 429.36334,144.60883 C 417.09184,143.16157 400.84244,140.13956 388.86334,137.10883 C 378.93014,134.59571 365.63804,130.96371 356.36334,126.60883 C 348.00114,122.68242 340.46434,119.85925 332.86334,114.60883 C 329.16074,112.05128 321.06164,104.71009 318.36334,101.10883 C 317.59484,100.08319 316.86334,97.10883 316.86334,97.10883 L 315.86334,97.60883" id="path3150" sodipodi:nodetypes="cssssssscc"/>
  <path style="fill: rgb(145, 111, 111);" d="M 439.39304,107.3036 C 428.66084,105.09375 420.30474,102.63605 418.92464,101.2834 C 418.68334,101.0469 417.88784,100.662 417.15684,100.42806 C 414.74124,99.65497 410.34814,97.19251 408.63214,95.64971 C 407.70314,94.81448 406.64954,93.47999 406.29064,92.68419 L 405.63814,91.23728 L 406.96844,88.61646 L 408.29874,85.99565 L 412.77034,83.97609 C 427.63664,77.26198 433.38604,75.71988 471.15894,68.31535 C 505.21194,61.64 506.55774,61.45374 520.65634,61.4651 C 531.71554,61.47402 540.87114,62.22263 549.72014,63.84153 C 552.30544,64.3145 556.32994,64.95085 558.66334,65.25562 C 568.49054,66.53916 572.50414,67.42493 575.25084,68.91634 C 577.06444,69.90107 578.28204,71.4396 578.28424,72.74924 C 578.28574,73.57172 578.27594,73.57527 574.04294,74.29263 C 570.56454,74.88212 548.72934,80.10983 543.10704,81.6992 C 538.15044,83.10037 530.46934,85.47259 513.57434,90.82001 C 508.60974,92.39136 494.76934,96.56753 482.81794,100.10039 L 461.08824,106.52379 L 453.00764,107.48343 L 444.92704,108.44308 L 439.39304,107.3036 z" id="path3154"/>
  <path sodipodi:type="arc" style="fill: rgb(40, 11, 11);" id="path3160" sodipodi:cx="521.84479" sodipodi:cy="410.76895" sodipodi:rx="48.08326" sodipodi:ry="68.589355" d="M 569.92805,410.76895 A 48.08326,68.589355 0 1 1 473.76153,410.76895 A 48.08326,68.589355 0 1 1 569.92805,410.76895 z" transform="matrix(1.07921, 0, -0.155762, 1.25515, 339.311, -308.464)"/>
  <path style="fill: none; fill-rule: evenodd; stroke: rgb(0, 0, 0); stroke-width: 1px; stroke-linecap: butt; stroke-linejoin: miter; stroke-opacity: 1;" d="M 815.61504,290.72954 L 780.87844,270.93055" id="path3162" sodipodi:nodetypes="cc"/>
  <path style="fill: rgb(72, 55, 55);" d="M 793.37504,277.90048 L 781.24474,270.84095 L 784.91684,268.39491 C 784.60584,267.71218 789.57704,264.27874 787.20894,263.97866 C 786.79524,263.92623 789.99344,263.57345 789.06514,260.92227 C 788.46054,259.19574 789.70844,258.25602 788.08904,254.84264 C 787.27224,253.12106 786.37544,249.20713 786.21894,248.13741 C 785.28404,241.74495 785.69744,241.20776 785.61274,239.65212 L 786.16574,237.26564 L 790.40264,257.86012 C 795.72194,271.28464 790.66614,258.44548 795.78944,270.73181 C 796.68084,272.86952 809.57694,287.62221 809.41844,287.45254 C 809.30934,287.33575 800.06004,282.27889 793.72864,277.7237 L 793.37504,277.90048 z" id="path3164" sodipodi:nodetypes="cccsssscccsscc"/>
  <path sodipodi:type="arc" style="fill: rgb(227, 219, 219);" id="path3166" sodipodi:cx="521.84479" sodipodi:cy="410.76895" sodipodi:rx="48.08326" sodipodi:ry="68.589355" d="M 569.92805,410.76895 A 48.08326,68.589355 0 1 1 473.76153,410.76895 A 48.08326,68.589355 0 1 1 569.92805,410.76895 z" transform="matrix(0.875542, 0, -0.126367, 1.00001, 432.374, -202.665)"/>
  <path sodipodi:type="arc" style="fill: rgb(0, 0, 0);" id="path3174" sodipodi:cx="521.84479" sodipodi:cy="410.76895" sodipodi:rx="48.08326" sodipodi:ry="68.589355" d="M 569.92805,410.76895 A 48.08326,68.589355 0 1 1 473.76153,410.76895 A 48.08326,68.589355 0 1 1 569.92805,410.76895 z" transform="matrix(0.732976, 0, -0.10579, 0.868797, 498.319, -150.266)"/>
  <path sodipodi:type="arc" style="fill: rgb(227, 219, 219);" id="path3176" sodipodi:cx="521.84479" sodipodi:cy="410.76895" sodipodi:rx="48.08326" sodipodi:ry="68.589355" d="M 569.92805,410.76895 A 48.08326,68.589355 0 1 1 473.76153,410.76895 A 48.08326,68.589355 0 1 1 569.92805,410.76895 z" transform="matrix(0.210215, 0, -0.0303402, 0.249168, 740.459, 106.233)"/>
  <path transform="matrix(1.48735, 0, -0.214669, 1.6705, -238.508, -249.576)" d="M 569.92805,410.76895 A 48.08326,68.589355 0 1 1 473.76153,410.76895 A 48.08326,68.589355 0 1 1 569.92805,410.76895 z" sodipodi:ry="68.589355" sodipodi:rx="48.08326" sodipodi:cy="410.76895" sodipodi:cx="521.84479" id="path3178" style="fill: rgb(40, 11, 11);" sodipodi:type="arc"/>
  <path sodipodi:nodetypes="cc" id="path3180" d="M 417.92924,547.89889 L 370.05564,521.54817" style="fill: none; fill-rule: evenodd; stroke: rgb(0, 0, 0); stroke-width: 1.35434px; stroke-linecap: butt; stroke-linejoin: miter; stroke-opacity: 1;"/>
  <path sodipodi:nodetypes="cccsssscccsscc" id="path3182" d="M 387.27834,530.82454 L 370.56044,521.42893 L 375.62134,518.17346 C 375.19264,517.2648 382.04384,512.6952 378.78024,512.29582 C 378.21004,512.22604 382.61784,511.75652 381.33844,508.22802 C 380.50514,505.93018 382.22504,504.67948 379.99314,500.13658 C 378.86744,497.8453 377.63154,492.63621 377.41584,491.21251 C 376.12734,482.7047 376.69714,481.98975 376.58034,479.91932 L 377.34254,476.74313 L 383.18184,504.15258 C 390.51274,522.01944 383.54494,504.93164 390.60584,521.28366 C 391.83434,524.12877 409.60754,543.76331 409.38914,543.53749 C 409.23874,543.38205 396.49154,536.65182 387.76554,530.58925 L 387.27834,530.82454 z" style="fill: rgb(72, 55, 55);"/>
  <path transform="matrix(1.20666, 0, -0.174157, 1.33093, -110.25, -108.767)" d="M 569.92805,410.76895 A 48.08326,68.589355 0 1 1 473.76153,410.76895 A 48.08326,68.589355 0 1 1 569.92805,410.76895 z" sodipodi:ry="68.589355" sodipodi:rx="48.08326" sodipodi:cy="410.76895" sodipodi:cx="521.84479" id="path3184" style="fill: rgb(227, 219, 219);" sodipodi:type="arc"/>
  <path transform="matrix(1.01018, 0, -0.145799, 1.15629, -19.3649, -39.0276)" d="M 569.92805,410.76895 A 48.08326,68.589355 0 1 1 473.76153,410.76895 A 48.08326,68.589355 0 1 1 569.92805,410.76895 z" sodipodi:ry="68.589355" sodipodi:rx="48.08326" sodipodi:cy="410.76895" sodipodi:cx="521.84479" id="path3186" style="fill: rgb(172, 147, 147);" sodipodi:type="arc"/>
  <path transform="matrix(0.289715, 0, -0.0418146, 0.33162, 314.081, 301.057)" d="M 569.92805,410.76895 A 48.08326,68.589355 0 1 1 473.76153,410.76895 A 48.08326,68.589355 0 1 1 569.92805,410.76895 z" sodipodi:ry="68.589355" sodipodi:rx="48.08326" sodipodi:cy="410.76895" sodipodi:cx="521.84479" id="path3190" style="fill: rgb(227, 219, 219);" sodipodi:type="arc"/>
  <rect style="fill: rgb(227, 219, 219);" id="rect3192" width="6.3639612" height="57.698582" x="843.79431" y="217.26973" transform="matrix(1, 0, -0.0490207, 0.998798, 0, 0)"/>
  <rect transform="matrix(0.764067, 0.645137, -0.681817, 0.731523, 0, 0)" y="-387.98312" x="750.55548" height="57.698563" width="6.3639612" id="use3196" style="fill: rgb(227, 219, 219);"/>
  <use x="0" y="0" xlink:href="#use3196" id="use3198" transform="translate(33.9411, -34.6482)" width="1044" height="782"/>
  <rect transform="matrix(1, 0, -0.0490207, 0.998798, 0, 0)" y="142.22623" x="843.65112" height="57.698586" width="6.3639612" id="use3200" style="fill: rgb(227, 219, 219);"/>
  <use x="0" y="0" xlink:href="#use3200" id="use3202" transform="matrix(0.803279, 0, 0.551946, 0.607362, 84.7714, 120.477)" width="1044" height="782"/>
  <use x="0" y="0" xlink:href="#use3202" id="use3204" transform="matrix(1, 0, 0, 0.949495, -30.7591, -21.3776)" width="1044" height="782"/>
  <path sodipodi:nodetypes="cc" id="path3210" d="M 420.82554,547.95966 L 375.15584,521.97778" style="fill: none; fill-rule: evenodd; stroke: rgb(0, 0, 0); stroke-width: 1.31351px; stroke-linecap: butt; stroke-linejoin: miter; stroke-opacity: 1;"/>
  <path sodipodi:nodetypes="cccsssscccsscc" id="path3212" d="M 391.58564,531.1243 L 375.63744,521.86021 L 380.46534,518.6503 C 380.05644,517.75438 386.59234,513.24874 383.47884,512.85495 C 382.93494,512.78615 387.13974,512.32318 385.91924,508.8441 C 385.12434,506.57841 386.76504,505.34523 384.63584,500.86591 C 383.56194,498.60671 382.38304,493.47052 382.17724,492.06675 C 380.94804,483.67804 381.49164,482.9731 381.38024,480.93166 L 382.10734,477.79993 L 387.67774,504.8257 C 394.67124,522.44244 388.02414,505.59384 394.75994,521.71699 C 395.93194,524.52226 412.88694,543.88196 412.67854,543.65931 C 412.53514,543.50604 400.37474,536.87001 392.05054,530.89232 L 391.58564,531.1243 z" style="fill: rgb(72, 55, 55);"/>
  <path transform="matrix(1.15111, 0, -0.16614, 1.3123, -83.0381, -99.5138)" d="M 569.92805,410.76895 A 48.08326,68.589355 0 1 1 473.76153,410.76895 A 48.08326,68.589355 0 1 1 569.92805,410.76895 z" sodipodi:ry="68.589355" sodipodi:rx="48.08326" sodipodi:cy="410.76895" sodipodi:cx="521.84479" id="path3214" style="fill: rgb(227, 219, 219);" sodipodi:type="arc"/>
  <path transform="matrix(0.963676, 0, -0.139087, 1.14011, 3.66255, -30.7511)" d="M 569.92805,410.76895 A 48.08326,68.589355 0 1 1 473.76153,410.76895 A 48.08326,68.589355 0 1 1 569.92805,410.76895 z" sodipodi:ry="68.589355" sodipodi:rx="48.08326" sodipodi:cy="410.76895" sodipodi:cx="521.84479" id="path3216" style="fill: rgb(0, 0, 0);" sodipodi:type="arc"/>
  <path transform="matrix(0.276378, 0, -0.0398896, 0.326978, 322.015, 305.849)" d="M 569.92805,410.76895 A 48.08326,68.589355 0 1 1 473.76153,410.76895 A 48.08326,68.589355 0 1 1 569.92805,410.76895 z" sodipodi:ry="68.589355" sodipodi:rx="48.08326" sodipodi:cy="410.76895" sodipodi:cx="521.84479" id="path3218" style="fill: rgb(227, 219, 219);" sodipodi:type="arc"/>
  <rect transform="matrix(1, 0, -0.0491125, 0.998793, 0, 0)" y="453.17804" x="464.71347" height="75.717171" width="8.3669767" id="rect3220" style="fill: rgb(227, 219, 219);"/>
  <rect style="fill: rgb(227, 219, 219);" id="rect3222" width="8.3604612" height="75.782852" x="622.90497" y="40.23428" transform="matrix(0.764662, 0.644431, -0.6825, 0.730886, 0, 0)"/>
  <use height="782" width="1044" transform="matrix(1.31474, 4.15134e-08, 4.59114e-08, 1.31228, -608.289, 122.386)" id="use3224" xlink:href="#use3196" y="0" x="0"/>
  <rect style="fill: rgb(227, 219, 219);" id="rect3226" width="8.3669767" height="75.717171" x="464.52524" y="354.69934" transform="matrix(1, 0, -0.0491125, 0.998793, 0, 0)"/>
  <use height="782" width="1044" transform="matrix(1.05611, 0, 0.725667, 0.79703, -541.461, 325.954)" id="use3228" xlink:href="#use3200" y="0" x="0"/>
  <use height="782" width="1044" transform="matrix(1.31474, 0, 0, 1.24601, -693.354, 139.801)" id="use3230" xlink:href="#use3202" y="0" x="0"/>
  <path style="fill: none; fill-rule: evenodd; stroke: rgb(0, 0, 0); stroke-width: 1px; stroke-linecap: butt; stroke-linejoin: miter; stroke-opacity: 1;" d="M 560.02594,223.97735 C 564.54154,225.9801 571.00924,227.86038 575.93584,228.21999 C 578.70454,228.42208 582.42354,227.78432 585.12824,227.15933 C 588.85434,226.29834 593.62894,224.41111 597.14904,222.91669 C 601.07874,221.24846 607.23614,219.90693 609.87704,216.55273 C 610.75244,215.44089 610.74244,213.35811 610.93764,211.95654 C 611.23064,209.85287 611.69494,206.97073 611.29124,204.88547 C 611.00264,203.39452 610.05984,201.51982 609.16994,200.28927 C 607.89454,198.52583 605.75754,196.41678 603.86664,195.33953 C 599.92954,193.09664 593.71204,192.39535 589.37094,191.09689 C 585.54574,189.95274 580.63564,187.21796 576.64294,187.2078 C 574.42824,187.20216 571.57274,188.37956 569.57194,189.32912 C 565.63854,191.19584 560.66874,194.42168 557.55114,197.46085 C 556.24444,198.73465 554.65834,200.70271 554.01554,202.41059 C 552.88914,205.4035 552.87624,209.82032 552.95494,213.0172 C 553.00774,215.1616 552.85314,218.28546 554.01554,220.08826 C 555.17934,221.89326 558.06274,223.10661 560.02594,223.97735 z" id="path3232" sodipodi:nodetypes="cssssssssssssssss"/>
  <path style="fill: none; fill-rule: evenodd; stroke: rgb(0, 0, 0); stroke-width: 1px; stroke-linecap: butt; stroke-linejoin: miter; stroke-opacity: 1;" d="M 576.32934,228.54348 L 577.35014,241.30147 C 577.35014,241.30147 571.26094,243.62791 568.51124,243.77634 C 566.57854,243.88067 563.98794,243.31423 562.14734,242.71568 C 561.01954,242.34896 559.40514,241.82923 558.61174,240.94791 C 558.00544,240.27441 557.67704,239.01692 557.55114,238.11949 C 557.18134,235.4852 558.25824,229.28065 558.25824,229.28065 L 559.17444,223.91265" id="path3234" sodipodi:nodetypes="ccsssscc"/>
  <path style="fill: none; fill-rule: evenodd; stroke: rgb(0, 0, 0); stroke-width: 1px; stroke-linecap: butt; stroke-linejoin: miter; stroke-opacity: 1;" d="M 560.51944,224.00218 C 560.51944,224.00218 575.77554,224.68698 580.17854,223.97735 C 584.55404,223.27215 590.08904,220.81959 593.96714,218.67405 C 597.67944,216.62018 602.07574,212.96856 605.28084,210.18877 C 607.09394,208.61628 610.93764,204.53191 610.93764,204.53191" id="path3236" sodipodi:nodetypes="csssc"/>
  <path style="fill: rgb(0, 0, 0);" d="M 561.89294,223.31075 C 559.56754,223.04585 556.33834,221.27323 555.31994,219.70271 C 554.28064,218.09978 554.08894,216.32315 554.29034,210.15913 C 554.51144,203.3896 554.97284,201.95345 557.96394,198.72262 C 562.15014,194.20107 570.73544,189.06462 575.75854,188.07638 C 578.03054,187.62939 579.75464,187.98882 585.25704,190.05675 C 587.61564,190.94315 592.18924,192.31719 595.42044,193.11018 C 599.01484,193.99226 602.05734,194.92375 603.25784,195.50966 C 605.72304,196.71281 609.00494,199.95434 610.21984,202.38603 L 611.07914,204.10592 L 608.74114,206.47973 C 604.26234,211.02709 597.64844,216.2058 593.18594,218.65955 C 590.24734,220.27535 584.85754,222.37174 582.00384,223.00892 C 579.84614,223.49067 578.35844,223.56496 571.50474,223.53313 C 567.11284,223.51274 562.78754,223.41267 561.89294,223.31075 L 561.89294,223.31075 z" id="path3248"/>
  <path style="fill: rgb(0, 0, 0);" d="M 573.42714,227.13817 C 570.58894,226.6214 565.19124,225.20545 564.88254,224.89673 C 564.81194,224.82608 568.26934,224.77556 572.56564,224.78446 C 580.06094,224.79999 580.48904,224.76993 583.14074,224.04221 C 587.81234,222.76013 593.11754,220.39677 597.08704,217.82945 C 600.14934,215.84884 604.96844,211.90479 608.25154,208.69215 L 611.28294,205.72577 L 611.27354,207.48249 C 611.26114,209.81037 610.54834,215.05563 610.14104,215.81676 C 609.22174,217.53447 607.09784,218.68045 599.20034,221.71979 C 584.59274,227.34161 579.92904,228.32206 573.42714,227.13817 z" id="path3250"/>
  <path style="fill: rgb(0, 0, 0);" d="M 564.25894,242.44074 C 561.24974,241.63971 559.82864,240.86115 559.23114,239.68639 C 558.58904,238.42371 558.69664,234.62393 559.52664,229.2521 C 560.18724,224.97711 560.26224,224.72645 560.83824,224.86809 C 561.17434,224.95071 562.80724,225.49946 564.46694,226.08753 C 567.67614,227.22463 573.28414,228.60062 574.75794,228.61259 C 575.24594,228.61655 575.79624,228.71757 575.98084,228.83708 C 576.26924,229.02382 577.45124,240.66737 577.20494,240.89615 C 577.16044,240.93754 575.79314,241.3929 574.16644,241.90805 C 570.16014,243.17684 567.55104,243.31713 564.25894,242.44075 L 564.25894,242.44074 z" id="path3252"/>
  <path style="fill: none; fill-rule: evenodd; stroke: rgb(0, 0, 0); stroke-width: 1px; stroke-linecap: butt; stroke-linejoin: miter; stroke-opacity: 1;" d="M 301.78564,99.20465 C 299.98644,101.05494 295.90184,100.5024 293.42054,101.21226 C 290.67384,101.99806 287.23494,104.0068 284.38634,104.22367 C 280.83204,104.49427 276.02704,103.42925 272.67524,102.21606 C 270.60304,101.466 267.45254,100.4247 266.31784,98.53545 C 264.86984,96.12442 264.97924,91.79373 265.98324,89.16661 C 267.27584,85.78453 271.53054,82.74059 274.34824,80.46698 C 278.66264,76.98579 284.53114,70.70405 290.07454,70.76354 C 292.10694,70.78535 294.36264,72.97073 295.76274,74.44415 C 297.83834,76.62838 299.66404,80.34571 300.78184,83.14379 C 301.89274,85.92473 303.08004,89.85292 303.12404,92.84723 C 303.15264,94.79605 303.14434,97.80728 301.78564,99.20465 z" id="path3278" sodipodi:nodetypes="csssssssssss"/>
  <path style="fill: none; fill-rule: evenodd; stroke: rgb(0, 0, 0); stroke-width: 0.87115px; stroke-linecap: butt; stroke-linejoin: miter; stroke-opacity: 1;" d="M 278.80514,103.16735 C 278.80514,103.16735 277.39894,114.34673 279.30944,117.99461 C 279.87334,119.07128 281.35574,119.56092 282.33504,119.67952 C 284.10814,119.89425 286.53094,119.02939 288.13414,117.99461 C 289.10224,117.36978 290.50854,116.29591 290.90764,114.96177 C 292.03964,111.17775 289.64694,101.48243 289.64694,101.48243 L 290.15124,103.50434" id="path3282" sodipodi:nodetypes="csssscc"/>
  <path style="fill: rgb(0, 0, 0);" d="M 277.82614,102.95822 C 273.03304,101.92976 267.92634,99.73246 266.98284,98.29257 C 265.56534,96.12917 265.72004,90.89159 267.27934,88.25373 C 268.33464,86.4685 270.21864,84.68937 276.96544,79.107 C 283.38674,73.79392 285.82974,72.21752 288.50184,71.66278 C 290.21884,71.30633 290.48274,71.33681 291.81944,72.04594 C 297.58324,75.1036 303.59104,88.85945 302.27404,95.98344 C 301.77474,98.68462 300.97794,99.4118 298.04144,99.84624 C 296.76864,100.03453 294.74864,100.41959 293.55244,100.70191 C 292.35624,100.98424 290.95284,101.2584 290.43374,101.31116 C 289.91474,101.36393 289.31244,101.63564 289.09534,101.91497 C 287.99074,103.33642 282.12114,103.87981 277.82614,102.95822 L 277.82614,102.95822 z" id="path3284"/>
  <path style="fill: rgb(0, 0, 0);" d="M 281.24324,118.71577 C 280.55684,118.40785 279.97504,117.80937 279.69564,117.12398 C 279.04224,115.52065 278.74894,111.56061 279.01034,107.87287 L 279.23884,104.6492 L 282.79864,104.6492 C 285.42154,104.6492 286.73454,104.49509 287.78734,104.06365 C 288.57314,103.74159 289.27134,103.4781 289.33874,103.4781 C 289.71694,103.4781 290.35174,108.49838 290.36184,111.56863 C 290.37344,115.08165 290.35694,115.1596 289.38004,116.18072 C 287.27024,118.38626 283.28004,119.62943 281.24324,118.71577 L 281.24324,118.71577 z" id="path3286"/>
  <path style="fill: none; fill-rule: evenodd; stroke: rgb(0, 0, 0); stroke-width: 1px; stroke-linecap: butt; stroke-linejoin: miter; stroke-opacity: 1;" d="M 169.86334,304.10883 L 227.61334,250.85883 L 209.11334,266.35883 L 242.61334,282.10883 L 260.36334,270.85883 L 192.61334,317.10883 L 231.86334,290.10883 L 206.11334,279.10883 L 200.86334,282.35883 L 192.61334,288.35883 L 182.36334,295.60883 L 169.86334,304.10883 z" id="path3288" sodipodi:nodetypes="cccccccccccc"/>
  <path style="fill: none; fill-rule: evenodd; stroke: rgb(0, 0, 0); stroke-width: 1px; stroke-linecap: butt; stroke-linejoin: miter; stroke-opacity: 1;" d="M 207.61334,279.85883 L 208.61334,266.60883" id="path3290"/>
  <path style="fill: none; fill-rule: evenodd; stroke: rgb(0, 0, 0); stroke-width: 1px; stroke-linecap: butt; stroke-linejoin: miter; stroke-opacity: 1;" d="M 503.36334,321.60883 C 503.36334,321.60883 534.92234,296.87903 549.36334,287.60883 C 571.28514,273.53643 603.36814,259.56637 625.36334,245.60883 C 665.99944,219.82225 717.17204,180.89479 755.36334,151.60883 C 774.99454,136.55512 797.61364,111.39653 819.36334,99.60883 C 834.87784,91.20044 875.36334,81.60883 875.36334,81.60883" id="path3292" sodipodi:nodetypes="csssss"/>
  <path sodipodi:nodetypes="cccccccssssssssccccssssssscccc" id="path2581" d="M 307.68939,107.24173 L 231.93939,160.24173 L 200.18939,192.24173 L 192.93939,206.99173 L 193.93939,220.49173 L 201.18939,230.24173 L 218.18939,245.74173 C 218.18939,245.74173 247.44769,264.04347 260.93939,269.99173 C 266.92919,272.63253 275.29419,275.3443 281.68939,276.74173 C 294.37689,279.51413 311.71039,281.28917 324.68939,281.74173 C 340.97179,282.30947 362.75089,281.07806 378.93939,279.24173 C 398.10259,277.06796 423.43099,272.22214 442.18939,267.74173 C 465.47769,262.17938 496.24799,253.33837 518.68939,244.99173 C 531.87239,240.08859 549.31349,232.86869 561.43939,225.74173 C 578.12149,215.93687 598.28109,199.57743 613.18939,187.24173 C 620.87789,180.87998 637.68939,164.74173 637.68939,164.74173 L 641.18929,149.49173 L 637.43939,130.49173 L 633.68939,115.74173 C 633.68939,115.74173 605.66959,124.25269 593.68939,127.99173 C 577.38699,133.07973 556.00529,141.0913 539.43939,145.24173 C 529.45099,147.74423 515.89829,150.14657 505.68939,151.49173 C 489.65269,153.60477 468.09919,153.95061 451.93939,153.24173 C 434.76799,152.48847 412.20249,150.03957 395.43939,146.24173 C 381.36299,143.05258 362.58049,138.37634 349.18939,132.99173 C 343.52429,130.71378 336.40449,126.66746 331.18939,123.49173 C 326.81799,120.82975 317.18939,113.74173 317.18939,113.74173 L 312.68939,106.99173 L 311.43939,105.24173 L 307.68939,107.24173 z" style="fill: url(&quot;#linearGradient2605&quot;) rgb(0, 0, 0); fill-opacity: 1; fill-rule: evenodd; stroke: rgb(0, 0, 0); stroke-width: 1px; stroke-linecap: butt; stroke-linejoin: miter; stroke-opacity: 1;"/>
  <path id="path2627" d="M 439.39304,107.3036 C 428.66084,105.09375 420.30474,102.63605 418.92464,101.2834 C 418.68334,101.0469 417.88784,100.662 417.15684,100.42806 C 414.74124,99.65497 410.34814,97.19251 408.63214,95.64971 C 407.70314,94.81448 406.64954,93.47999 406.29064,92.68419 L 405.63814,91.23728 L 406.96844,88.61646 L 408.29874,85.99565 L 412.77034,83.97609 C 427.63664,77.26198 433.38604,75.71988 471.15894,68.31535 C 505.21194,61.64 506.55774,61.45374 520.65634,61.4651 C 531.71554,61.47402 540.87114,62.22263 549.72014,63.84153 C 552.30544,64.3145 556.32994,64.95085 558.66334,65.25562 C 568.49054,66.53916 572.50414,67.42493 575.25084,68.91634 C 577.06444,69.90107 578.28204,71.4396 578.28424,72.74924 C 578.28574,73.57172 578.27594,73.57527 574.04294,74.29263 C 570.56454,74.88212 548.72934,80.10983 543.10704,81.6992 C 538.15044,83.10037 530.46934,85.47259 513.57434,90.82001 C 508.60974,92.39136 494.76934,96.56753 482.81794,100.10039 L 461.08824,106.52379 L 453.00764,107.48343 L 444.92704,108.44308 L 439.39304,107.3036 z" style="fill: url(&quot;#linearGradient2635&quot;) rgb(0, 0, 0); fill-opacity: 1;"/>
  <path style="fill: rgb(51, 51, 51); fill-opacity: 0.846662;" d="M 307.27481,492.10317 C 298.07161,481.99886 298.35716,468.15516 307.84556,464.43345 C 313.65676,462.1541 328.20938,458.17618 328.68043,458.73832 C 328.9037,459.00476 329.4898,465.64992 329.98292,473.50541 C 331.00224,489.74328 330.42321,490.95061 320.28662,493.72248 C 312.27402,495.91357 310.55,495.699 307.27484,492.10317 L 307.27481,492.10317 z" id="path2647"/>
  <path style="fill: rgb(51, 51, 51); fill-opacity: 0.846662;" d="M 247.45462,497.62312 C 234.62063,493.52239 222.00377,489.05022 219.41716,487.68494 C 215.08927,485.40054 209.56724,476.68562 211.90157,475.8237 C 212.45203,475.62039 221.91261,476.65259 232.92499,478.11737 C 256.41467,481.24184 261.85336,483.53954 268.31427,493.06861 C 272.58993,499.37468 274.31322,505.25455 271.8498,505.13178 C 271.26644,505.10267 260.28861,501.72381 247.45462,497.6231 L 247.45462,497.62312 z" id="path2649"/>
  <path style="fill: rgb(51, 51, 51); fill-opacity: 0.846662;" d="M 148.45967,486.37597 C 107.88072,466.02206 70.725216,442.64458 48.613766,423.55495 C 42.534476,418.30648 40.866286,415.85577 39.502146,410.1694 C 38.583746,406.34094 38.15074,402.89013 38.539976,402.50089 C 38.929236,402.11168 45.842176,406.8275 53.902136,412.98056 C 92.553796,442.48767 124.49608,459.71189 160.62899,470.53087 L 173.50542,474.38631 L 177.24596,486.88221 C 179.30333,493.75494 180.98658,499.72996 180.98658,500.16004 C 180.98658,502.24514 175.25681,499.81702 148.45967,486.37593 L 148.45967,486.37597 z" id="path2651"/>
  <path style="fill: url(&quot;#linearGradient2661&quot;) rgb(0, 0, 0); fill-opacity: 1;" d="M 715.91743,237.85589 C 713.0137,236.6886 705.71191,224.53543 707.16085,223.28131 C 708.28337,222.3097 747.35592,196.18943 748.37571,195.72895 C 749.99979,194.99549 738.83599,226.84218 735.51528,232.41541 C 733.13784,236.40562 731.29654,237.73187 727.19277,238.41025 C 720.68117,239.48668 719.87563,239.44708 715.91745,237.85591 L 715.91743,237.85589 z" id="path2653"/>
  <path style="fill: rgb(51, 51, 51); fill-opacity: 0.846662;" d="M 220.07712,284.15115 C 209.16091,279.63574 209.11702,279.59634 209.11699,274.31428 C 209.11701,271.00712 209.78408,269.01098 210.8893,269.01098 C 211.86409,269.01098 219.20359,272.12811 227.1993,275.93794 L 241.73693,282.86489 L 236.92728,285.83743 C 234.28199,287.47233 231.87456,288.78179 231.57746,288.74736 C 231.28037,288.71295 226.10522,286.64465 220.07715,284.15116 L 220.07712,284.15115 z" id="path2707"/>
  <path style="fill: rgb(0, 0, 0); fill-opacity: 0.846662;" d="M 715.82304,237.87791 C 712.49129,236.53652 706.28884,225.92168 707.59854,223.80254 C 708.90202,221.6935 746.67397,196.57053 747.41996,197.31647 C 748.6994,198.59602 740.60162,222.97575 736.46504,230.29747 C 733.26793,235.95649 731.40159,237.7396 727.9536,238.4292 C 722.3164,239.55663 719.69699,239.43759 715.82304,237.87791 z" id="path2709"/>
  <path style="fill: url(&quot;#linearGradient2719&quot;) rgb(0, 0, 0); fill-opacity: 1;" d="M 223.96621,456.27818 C 187.0925,447.8059 173.76163,444.19783 173.76163,442.69001 C 173.76163,440.35117 195.28644,412.79741 210.04483,396.24411 C 232.57745,370.97102 251.4657,355.73833 290.1894,331.61025 C 344.44868,297.80224 381.84566,279.46988 402.15712,276.72263 C 423.63973,273.81697 468.74572,262.51418 501.6221,251.79838 C 513.5479,247.91126 523.65479,245.08035 524.0819,245.50747 C 524.50898,245.93457 525.97736,245.68525 527.34486,244.95338 C 530.07416,243.49268 530.24274,243.82141 533.64046,257.23209 L 535.49327,264.54507 L 514.19297,276.92501 C 486.861,292.81066 467.37865,305.67688 452.65038,317.56801 C 446.19775,322.77768 438.24276,328.691 434.97271,330.7087 C 431.70271,332.72639 418.84484,344.87307 406.39976,357.7013 L 383.77234,381.02535 L 358.62249,379.46538 C 344.79005,378.60741 322.04124,377.90542 308.06955,377.90542 C 261.06155,377.90542 236.34768,386.05374 210.34029,410.12736 C 205.53749,414.57308 198.489,422.3297 194.67705,427.36427 C 186.31011,438.4148 185.89152,437.87055 208.20106,444.94981 C 244.41801,456.44217 265.77368,455.9726 293.26267,443.07948 C 305.15255,437.5028 319.73409,426.70412 352.8831,398.92626 C 367.15914,386.96342 373.9576,382.14806 376.57118,382.14806 C 378.58727,382.14806 380.23681,382.63862 380.23681,383.23821 C 380.23681,385.84059 353.83778,410.03432 335.3777,424.34988 C 306.16461,447.00423 291.92081,454.26619 267.09972,459.16014 C 260.48827,460.46372 254.12431,461.73764 252.95759,461.99109 C 251.79086,462.24459 238.74474,459.67374 223.96621,456.27815 L 223.96621,456.27818 z" id="path2711"/>
  <path style="fill: url(&quot;#linearGradient2729&quot;) rgb(0, 0, 0); fill-opacity: 1;" d="M 662.77617,141.37328 C 654.53753,124.58164 647.66884,115.6257 637.38255,108.26252 L 631.12688,103.78467 L 607.85881,112.89506 C 549.05362,135.91966 516.86955,143.65216 472.05113,145.52403 C 431.37087,147.22305 378.2383,136.6761 345.87488,120.47769 C 333.45406,114.2609 319.03165,102.91864 319.70821,99.8994 C 319.94168,98.85745 327.13309,92.54114 335.68908,85.86312 C 364.92609,63.04344 404.70922,46.45081 449.53327,38.38137 C 473.5775,34.05283 475.14755,33.94665 504.6876,34.65227 C 534.30026,35.35965 554.44331,37.61884 584.34489,43.58652 C 593.65846,45.44532 614.88608,52.88821 621.61698,56.65503 C 622.81887,57.32766 617.85151,60.0731 607.95372,64.20665 L 592.40199,70.70141 L 589.50425,66.01285 C 587.01288,61.98169 585.27557,61.02304 577.11335,59.17552 C 552.1991,53.53618 509.997,52.85423 479.23176,57.59384 C 449.84158,62.12161 408.99825,74.56898 402.6276,80.93962 C 397.57453,85.99269 397.59713,88.16383 402.75639,93.32308 C 408.25337,98.82009 420.54751,104.49967 433.80204,107.66543 C 450.17619,111.5763 457.15153,110.19015 518.82974,90.76869 C 557.67755,78.53614 572.98672,75.39718 602.26834,73.66054 C 616.65796,72.8071 644.02299,72.44034 663.07952,72.8455 C 693.45358,73.49126 699.39271,74.00181 711.2243,76.98428 C 731.79191,82.16888 743.95189,90.38153 741.67628,97.55116 C 740.81332,100.27017 740.22374,100.16433 726.42441,94.81306 C 698.53965,83.99957 690.10995,82.14018 665.20084,81.30866 C 651.54661,80.85286 637.72225,81.20037 630.3405,82.18499 C 610.28503,84.86012 580.39593,92.88912 556.3064,102.07251 C 543.86132,106.81683 532.79239,111.01382 531.7088,111.39918 C 530.6252,111.78454 530.0799,112.44113 530.49704,112.85827 C 530.91421,113.27537 541.54679,109.75176 554.12508,105.02796 C 598.92123,88.20469 622.15762,83.37969 658.83688,83.28467 C 681.25584,83.2266 684.85035,83.56804 697.02065,86.91183 C 704.40991,88.94205 717.32564,93.27482 725.72225,96.54024 C 740.45298,102.26895 740.90426,102.57072 738.58127,105.13758 C 737.25714,106.6007 722.11403,118.40136 704.92992,131.36127 C 687.74581,144.32117 672.98722,155.45425 672.13289,156.10147 C 671.10292,156.88191 667.95163,151.9217 662.77617,141.37327 L 662.77617,141.37328 z" id="path2721"/>
  <path style="fill: rgb(0, 0, 0); fill-opacity: 0.846662;" d="M 435.39114,150.93916 C 412.61197,149.22832 376.1821,141.36568 354.22808,133.42179 C 340.21609,128.3517 318.38302,114.459 314.82943,108.35193 C 311.79607,103.13891 311.79103,102.93265 314.67001,101.82788 C 316.25489,101.21971 319.52036,103.35727 325.01959,108.60264 C 342.53039,125.30507 378.97807,138.29599 428.50157,145.48631 C 453.52087,149.11886 491.17683,147.91079 519.8904,142.55439 C 523.89528,141.80729 524.48659,142.08112 524.48659,144.68281 C 524.48659,146.32502 524.00929,147.6888 523.42593,147.71347 C 522.84257,147.73813 516.00131,148.68035 508.22314,149.8073 C 495.31841,151.67698 453.80512,152.32213 435.39114,150.93915 L 435.39114,150.93916 z" id="path2731"/>
  <path style="fill: rgb(0, 0, 0); fill-opacity: 0.846662;" d="M 607.50327,197.48128 C 605.37674,195.13143 605.7533,194.53343 613.29452,188.28468 C 617.73066,184.60886 625.30284,177.94397 630.12158,173.47382 C 638.11271,166.06075 639.03181,164.60038 640.57613,156.86101 C 642.0718,149.36574 641.89941,146.62653 639.09941,133.38352 C 637.35597,125.13782 635.40096,117.53596 634.7548,116.49052 C 633.56446,114.5644 628.68528,115.94942 557.41199,138.44574 C 546.35275,141.93639 534.67425,145.21297 531.45968,145.72701 C 526.32322,146.54834 525.67515,146.35244 526.11145,144.11029 C 526.48691,142.18095 530.12325,140.61436 541.02739,137.68425 C 560.87142,132.35188 574.71642,127.67799 604.20143,116.35761 C 618.09863,111.02195 630.06922,106.65643 630.80277,106.65643 C 633.13536,106.65643 644.69276,116.16546 649.16507,121.7644 C 652.76764,126.27433 668.73637,156.00859 668.73637,158.20665 C 668.73637,159.96662 640.89772,180.93083 626.60407,189.9349 C 617.82094,195.46768 610.4419,199.99452 610.20625,199.99452 C 609.97054,199.99452 608.75426,198.86356 607.5033,197.48127 L 607.50327,197.48128 z" id="path2733"/>
  <path style="fill: url(&quot;#linearGradient2743&quot;) rgb(0, 0, 0); fill-opacity: 1;" d="M 582.54798,354.31118 L 579.09109,353.34633 L 584.6693,347.12901 C 587.73734,343.70951 599.47527,334.84403 610.75362,327.42794 C 639.99828,308.19814 646.70646,301.35298 649.64789,287.73987 C 650.95236,281.70252 662.28841,269.49847 678.06608,257.14591 C 687.95299,249.40541 690.05267,246.9662 693.43703,239.2904 C 696.88106,231.48002 701.5194,225.57809 704.28956,225.48182 C 704.78722,225.46451 706.55032,228.33484 708.2075,231.86031 C 711.78192,239.46465 716.08156,241.59213 725.65847,240.4952 C 729.3531,240.07199 732.37599,239.96122 732.37599,240.249 C 732.37599,240.53679 731.10079,243.74724 729.54218,247.38336 C 723.01177,262.61814 720.67012,264.58358 670.26146,297.14217 C 612.87867,334.20536 592.21162,348.60542 593.05041,350.94026 C 593.39545,351.90068 592.47047,353.33255 590.99493,354.12224 C 588.04182,355.7027 587.57104,355.71323 582.54799,354.31119 L 582.54798,354.31118 z" id="path2735"/>
  <path style="fill: url(&quot;#linearGradient2757&quot;) rgb(0, 0, 0); fill-opacity: 1;" d="M 522.59842,405.40318 C 520.31653,367.10175 506.40293,338.20228 484.88861,327.07734 C 476.33167,322.65255 474.78331,322.32899 462.49006,322.39621 C 452.96974,322.44826 449.83122,322.05356 451.24499,320.98199 C 452.32359,320.16447 457.12848,316.45413 461.92248,312.73682 C 472.07905,304.8613 493.99306,290.87069 518.37091,276.69833 L 535.58978,266.68793 L 536.55116,272.37863 C 537.07999,275.50849 537.07661,282.14087 536.54368,287.11724 L 535.57476,296.16515 L 519.28411,308.27961 C 510.3242,314.94258 503.30997,320.71068 503.6969,321.09761 C 504.0838,321.48453 511.2788,316.69403 519.6857,310.45204 C 528.09258,304.21006 535.07792,299.23654 535.20862,299.39978 C 535.33934,299.56302 534.59789,313.3791 533.56105,330.10217 C 532.21127,351.87183 532.09673,362.09018 533.15769,366.0792 C 534.90432,372.64643 542.70429,381.01386 547.0794,381.01386 C 554.18513,381.01386 578.22671,363.51052 578.22671,358.33723 C 578.22671,357.58647 580.97949,356.97223 584.344,356.97223 C 589.72696,356.97223 592.74036,355.42027 609.44629,344.04415 C 619.88807,336.93373 642.432,322.79883 659.54399,312.6333 C 676.65597,302.46776 699.0813,287.92796 709.37804,280.32265 L 728.09954,266.49481 L 738.58028,245.56808 C 746.31363,230.12713 750.39604,219.79897 754.1536,206.16902 C 756.95459,196.00923 759.24604,187.24822 759.24604,186.70011 C 759.24604,186.15199 746.47499,194.39125 730.86575,205.00957 C 715.25665,215.62788 702.1319,223.96194 701.69957,223.5297 C 701.26739,223.09744 702.64667,218.42069 704.76474,213.13692 C 706.88266,207.85314 709.66612,199.3 710.94994,194.12994 L 713.2841,184.7298 L 737.32573,166.39223 C 750.54863,156.30658 767.04981,143.03574 773.99516,136.90149 C 814.35738,101.25259 819.27531,98.32749 856.86581,87.61023 C 866.41147,84.88871 874.60344,82.25883 875.07013,81.76609 C 877.38944,79.31735 841.12774,89.56982 827.2963,95.27341 C 812.37974,101.42455 805.74029,106.34034 769.6473,137.9564 C 761.98198,144.67084 745.84637,157.61702 733.7902,166.72567 L 711.86989,183.28688 L 710.63174,179.00734 C 708.82183,172.75152 702.72997,167.64264 692.78776,164.04263 L 684.02162,160.86857 L 700.06714,148.11713 C 738.60065,117.49421 764.4618,99.20531 794.5929,81.26922 L 826.17073,62.47189 L 840.43802,65.59455 C 862.1199,70.34 867.45417,72.38023 873.48735,78.23525 C 880.7383,85.27208 882.22704,91.25573 883.25475,117.4926 C 884.29943,144.16554 883.77349,146.02081 877.62067,137.36674 C 849.77636,98.20298 801.04793,131.54792 787.52706,199.01807 C 784.91515,212.05193 784.57687,241.71057 786.9222,252.05827 C 789.06643,261.51823 788.58489,263.78994 783.452,268.43516 C 781.84263,269.89159 780.84264,271.59561 781.22971,272.22188 C 782.06537,273.57398 767.40775,280.64753 756.41762,284.19587 C 752.13962,285.57709 734.95692,294.45665 718.23385,303.92823 C 701.51077,313.39983 677.32772,326.77235 664.49373,333.64498 C 646.59191,343.23149 533.3375,412.86691 525.05588,419.37957 C 523.96046,420.24101 523.2375,416.12946 522.59845,405.40316 L 522.59842,405.40318 z" id="path2745"/>
  <path style="fill: url(&quot;#linearGradient2759&quot;) rgb(0, 0, 0); fill-opacity: 1;" d="M 544.01446,377.8867 C 541.4973,377.02958 539.13791,374.38049 537.04969,370.06677 C 533.9031,363.56672 533.89762,363.42584 535.54641,331.14203 C 536.45648,313.32145 537.56184,298.15739 538.00265,297.44415 C 539.61661,294.83268 555.36829,284.99732 573.98407,274.97732 C 614.08679,253.39186 624.70389,247.27431 641.15921,236.27111 C 659.17983,224.22119 688.13514,203.65488 701.61684,193.32934 C 708.09125,188.37066 709.74489,187.62255 709.73032,189.65882 C 709.69681,194.36485 704.02906,210.43329 695.94245,228.74844 L 687.93008,246.89576 L 675.85751,256.52319 C 659.52221,269.5499 649.52669,280.34054 648.2283,286.3501 C 645.33538,299.7402 638.00863,307.34118 611.08528,324.88324 C 588.38316,339.67503 581.48018,345.82319 577.43875,354.85091 C 573.80248,362.97364 569.14417,367.73085 559.13482,373.54357 C 549.66009,379.04583 548.44403,379.39512 544.01443,377.88672 L 544.01446,377.8867 z" id="path2747"/>
  <path style="fill: url(&quot;#linearGradient2761&quot;) rgb(0, 0, 0); fill-opacity: 1;" d="M 538.62873,281.59014 C 538.62873,274.95284 538.31136,268.67477 537.92347,267.63889 C 537.45994,266.40085 542.91167,262.53607 553.83338,256.36035 C 562.97175,251.19306 570.31429,246.33556 570.15022,245.56593 C 569.98615,244.7963 571.6985,243.79729 573.95544,243.3459 C 577.62117,242.61276 578.10565,241.88057 578.4964,236.48382 L 578.93381,230.44246 L 592.70357,225.47155 C 607.29765,220.20307 612.13143,217.13732 612.22596,213.08985 C 612.26389,211.46634 618.53261,206.66779 630.25718,199.28742 C 640.14239,193.06488 655.71189,182.40524 664.85606,175.59934 C 674.00022,168.79344 682.40871,163.22497 683.54135,163.22497 C 688.08098,163.22497 700.96616,169.12407 704.51301,172.82615 C 709.85195,178.39876 710.72353,184.49974 706.59784,187.41867 C 704.83064,188.66904 694.84997,195.92597 684.41873,203.54518 C 662.20964,219.76728 630.28839,241.58365 619.29818,248.05144 C 615.05277,250.54986 600.73387,258.35157 587.47838,265.38852 C 565.35967,277.1307 552.69594,284.36989 542.51781,291.0901 L 538.62873,293.6579 L 538.62873,281.59014 z" id="path2749"/>
  <path style="fill: url(&quot;#linearGradient2773&quot;) rgb(0, 0, 0); fill-opacity: 1;" d="M 543.66556,35.16536 C 536.71306,34.15499 519.36448,33.12176 505.11314,32.86927 C 490.8618,32.61682 480.32209,31.95884 481.69156,31.40717 C 483.06105,30.8555 497.40688,24.98751 513.57121,18.36719 C 549.98219,3.4545902 554.87434,1.9939502 568.23034,2.0477002 C 578.08174,2.0873602 625.72759,8.0219202 627.08394,9.3782602 C 627.40876,9.7030902 613.84411,15.59025 596.94023,22.46081 C 580.03632,29.33136 565.99376,35.49438 565.73449,36.15636 C 565.12777,37.70539 559.36271,37.44651 543.66553,35.16535 L 543.66556,35.16536 z" id="path2763"/>
  <path style="fill: url(&quot;#linearGradient2775&quot;) rgb(0, 0, 0); fill-opacity: 1;" d="M 743.68969,94.7041 C 743.68969,83.75519 719.01789,74.06702 683.58562,71.10229 C 672.33569,70.16095 652.05304,69.9226 631.32203,70.48807 C 612.68867,70.99633 597.76354,71.09183 598.15505,70.70032 C 598.54654,70.30879 605.06366,67.40946 612.63748,64.25732 C 623.5842,59.70143 626.97803,58.83119 629.18744,60.01363 C 630.71612,60.83177 631.96682,60.93319 631.96682,60.23908 C 631.96682,59.54497 624.17783,55.65212 614.65795,51.5883 C 598.9017,44.86234 577.16788,38.85241 568.39792,38.79634 C 566.37439,38.78341 565.49197,38.27137 566.2766,37.56541 C 567.01554,36.9006 582.57541,30.33456 600.85412,22.97424 L 634.08814,9.5918202 L 661.66531,9.7905202 C 692.77999,10.01473 703.21165,11.59552 746.29793,22.61554 C 778.964,30.97043 793.82356,35.50395 801.8143,39.55317 C 808.80518,43.09568 817.2288,49.61155 817.2288,51.47656 C 817.2288,53.57558 806.8571,56.88359 804.55122,55.52008 C 803.35678,54.81385 786.15146,48.82891 766.31711,42.22023 C 732.4228,30.92685 727.83537,29.77944 690.0152,23.1351 C 647.02268,15.58207 644.88227,15.50976 629.30268,21.08408 C 625.21435,22.54687 624.6842,23.11619 626.65949,23.9227 C 628.01848,24.4776 657.9291,33.29887 693.12746,43.52557 L 757.12472,62.11958 L 757.83183,70.81952 L 758.53894,79.51948 L 751.11431,88.98135 C 744.52988,97.37241 743.68969,98.02005 743.68969,94.70412 L 743.68969,94.7041 z M 632.98613,29.42254 C 632.05242,28.48889 602.26834,43.36524 602.26834,44.76525 C 602.26834,45.37225 609.3358,42.32441 617.9738,37.99229 C 626.61175,33.66018 633.36733,29.80379 632.9861,29.42255 L 632.98613,29.42254 z" id="path2765"/>
  <path sodipodi:nodetypes="ccccccc" id="path2777" d="M 804.86054,56.15259 L 727.04904,30.50716 L 650.39104,17.25764 L 642.81984,18.20403 L 625.78474,22.93601 L 759.22654,61.73822 L 759.52834,78.93935" style="fill: url(&quot;#linearGradient2787&quot;) rgb(0, 0, 0); fill-opacity: 1; fill-rule: evenodd; stroke: rgb(0, 0, 0); stroke-width: 1px; stroke-linecap: butt; stroke-linejoin: miter; stroke-opacity: 1;"/>
  <path style="fill: url(&quot;#linearGradient2839&quot;) rgb(0, 0, 0); fill-opacity: 1;" d="M 239.81429,450.60373 C 223.83343,448.40211 196.07691,440.16043 192.3272,436.50346 C 188.94047,433.20049 215.13135,406.32168 231.25336,396.55487 C 252.16692,383.88528 271.63483,379.85582 310.73942,380.10284 C 326.40456,380.20182 346.18415,380.67909 354.69397,381.1635 L 370.16638,382.04424 L 349.74418,399.1095 C 319.65106,424.2561 303.66616,436.06064 292.46734,441.40737 C 274.93502,449.77797 256.80541,452.94447 239.81425,450.6037 L 239.81429,450.60373 z" id="path2821"/>
  <path style="fill: url(&quot;#linearGradient2831&quot;) rgb(0, 0, 0); fill-opacity: 1;" d="M 12.818497,332.90032 C 8.3884873,326.92593 5.9594483,322.0521 5.3232223,317.86112 C 4.0156963,309.24801 5.5324693,291.37668 8.2178343,283.7564 C 11.094514,275.59326 21.262837,262.0809 37.095198,245.38222 L 49.642006,232.14892 L 51.571616,242.74986 C 55.470076,264.1678 52.753246,296.36969 45.633456,313.13267 C 43.156986,318.96333 22.932288,341.73916 20.231182,341.73916 C 19.758877,341.73916 16.4232,337.76168 12.818497,332.90032 z" id="path2823"/>
  <path style="fill: url(&quot;#linearGradient2859&quot;) rgb(0, 0, 0); fill-opacity: 1;" d="M 152.70484,465.89027 C 120.9517,455.24544 89.516096,437.63964 53.893396,410.55001 C 44.271606,403.23303 36.096437,397.54922 35.726351,397.9193 C 35.356294,398.28943 35.706029,401.65193 36.503617,405.39161 C 37.301248,409.13126 37.767118,412.37768 37.538963,412.60584 C 36.103466,414.04138 20.695397,394.42051 15.664671,384.75081 C 9.9243783,373.71723 9.7400223,372.99452 12.022605,370.4723 C 14.292559,367.96402 14.260074,367.54573 11.440967,362.98431 C 8.4166013,358.09086 7.5857503,351.43819 9.6023903,348.26363 C 10.363011,347.06629 13.985632,349.83975 21.248001,357.17929 C 49.005716,385.2319 110.58939,422.99557 154.96611,439.17634 L 169.24823,444.38393 L 169.10822,453.76129 C 169.03127,458.91884 169.51458,464.88875 170.18227,467.02775 C 171.76254,472.09028 171.06377,472.0448 152.70484,465.89022 L 152.70484,465.89027 z" id="path2841"/>
  <path style="fill: url(&quot;#linearGradient2861&quot;) rgb(0, 0, 0); fill-opacity: 1;" d="M 148.32141,434.35574 C 101.47544,415.69711 48.658256,382.34861 21.049997,353.99722 C 11.454911,344.14379 8.2543203,339.77787 5.8472013,333.25873 C 1.6154643,321.79786 1.8980383,316.89615 6.2515103,326.24663 C 12.491431,339.64884 41.752426,367.20555 69.266236,385.59111 C 95.526306,403.13888 132.16844,421.25571 157.65459,429.29263 C 166.9884,432.23596 174.87046,434.83073 175.17027,435.05871 C 175.9749,435.67055 171.19905,442.63709 169.99636,442.60596 C 169.43096,442.59132 159.67718,438.87873 148.32139,434.35575 L 148.32141,434.35574 z" id="path2843"/>
  <path style="fill: url(&quot;#linearGradient2857&quot;) rgb(0, 0, 0); fill-opacity: 1;" d="M 251.69979,535.89194 C 225.69171,532.69708 183.35458,516.29848 128.66321,488.23566 C 83.532176,465.07835 51.883836,442.89794 29.324687,418.61519 C 17.599627,405.99432 11.877719,395.85438 10.557154,385.35691 L 9.6676283,378.28585 L 15.61598,388.89245 C 22.947023,401.96439 42.642496,422.01501 63.116526,437.24947 C 113.48792,474.73015 191.73848,512.61061 238.97187,522.37954 C 278.57606,530.57055 321.26776,528.67542 362.16025,516.91098 C 368.85685,514.98442 375.38062,513.00725 376.65747,512.51728 C 377.93435,512.02732 378.97901,512.28425 378.97901,513.08826 C 378.97901,516.97761 350.07175,527.28463 324.46789,532.52445 C 303.98841,536.71554 270.87817,538.2478 251.69979,535.89191 L 251.69979,535.89194 z" id="path2845"/>
  <path style="fill: url(&quot;#linearGradient2855&quot;) rgb(0, 0, 0); fill-opacity: 1;" d="M 267.96325,525.09683 C 244.1295,522.00391 226.09028,517.90593 206.73173,511.18679 C 194.74607,507.02668 184.80326,503.42355 184.63667,503.17981 C 184.47004,502.93609 181.22131,493.21426 177.41722,481.5758 C 170.77191,461.24479 169.04482,449.76853 172.16141,446.65194 C 172.77192,446.04147 177.39439,446.75063 182.43358,448.22793 C 187.47279,449.7052 204.90076,453.92149 221.16248,457.59742 L 250.72924,464.28089 L 264.29599,461.77331 C 281.62412,458.57035 299.94993,451.56144 312.91711,443.17756 C 328.7731,432.92592 358.6443,408.68654 371.87672,395.33402 C 383.01382,384.09586 388.66452,380.79291 390.76032,384.29625 C 391.1093,384.87962 388.91426,392.76564 385.88244,401.82075 C 382.85062,410.8759 379.42443,424.55838 378.26865,432.22634 C 375.39136,451.31602 375.47892,485.33928 378.43567,497.11021 C 379.69251,502.11359 380.39571,507.05428 379.99843,508.08959 C 379.18549,510.20811 354.43746,517.69447 337.25971,521.01819 C 314.59118,525.40436 284.14298,527.19645 267.96325,525.09681 L 267.96325,525.09683 z M 273.00595,511.8793 C 280.51388,507.86116 271.25841,487.98099 258.90589,481.59327 C 253.53667,478.81672 220.84326,473.81617 207.78846,473.77469 C 197.44424,473.74182 195.13125,475.1144 195.13125,481.28574 C 195.13125,493.82132 234.96823,512.6156 262.75292,513.18829 C 266.88761,513.27351 271.50147,512.68446 273.00596,511.87928 L 273.00595,511.8793 z M 346.20057,504.95748 C 358.11843,501.93851 368.18522,499.1526 368.57123,498.76657 C 368.95729,498.38055 368.54398,491.79323 367.65286,484.12806 C 366.76172,476.46291 366.24088,464.30739 366.49541,457.11584 C 366.79852,448.5529 366.44065,444.0414 365.45858,444.04352 C 364.63375,444.04535 359.86082,445.66137 354.85198,447.63476 C 349.8431,449.60813 337.79004,453.42451 328.06732,456.11558 C 307.40173,461.83539 302.10646,464.26092 299.94941,468.99517 C 295.87583,477.93577 299.53859,486.7864 312.88889,500.26177 C 318.47576,505.90094 323.38092,510.49947 323.78928,510.4807 C 324.19765,510.46194 334.28275,507.97651 346.20058,504.95752 L 346.20057,504.95748 z" id="path2847"/>
  <path style="fill: url(&quot;#linearGradient2879&quot;) rgb(0, 0, 0); fill-opacity: 1;" d="M 253.15405,510.31603 C 220.6131,504.92327 189.27261,485.82644 198.24252,476.85653 C 199.17588,475.92314 201.91184,475.15948 204.32238,475.15948 C 208.05649,475.15948 208.97296,475.9 210.5143,480.16248 C 211.60682,483.18375 214.38021,486.5016 217.51591,488.53859 C 222.40334,491.71355 263.92926,505.58297 271.40977,506.53887 C 274.69694,506.95889 274.74132,507.0937 272.36941,509.45415 C 269.66848,512.14209 265.34359,512.33607 253.15403,510.316 L 253.15405,510.31603 z" id="path2863"/>
  <path style="fill: url(&quot;#linearGradient2875&quot;) rgb(0, 0, 0); fill-opacity: 1;" d="M 347.51276,492.3618 L 332.30996,488.70058 L 332.2977,480.16223 C 332.29091,475.46619 331.9338,468.44196 331.5041,464.55287 L 330.72286,457.48181 L 347.22852,452.09857 C 356.30662,449.13778 363.89912,446.91039 364.10073,447.14881 C 364.30232,447.38722 364.79777,458.56014 365.20167,471.97749 C 365.73708,489.76218 365.4997,496.32532 364.32579,496.19788 C 363.44017,496.10174 355.8743,494.37553 347.51276,492.36183 L 347.51276,492.3618 z" id="path2865"/>
  <path style="fill: url(&quot;#linearGradient2877&quot;) rgb(0, 0, 0); fill-opacity: 1;" d="M 318.42039,502.99724 C 313.92666,498.36086 313.7876,496.37268 317.95703,496.37268 C 319.13744,496.37268 322.80908,495.06281 326.1162,493.46186 L 332.12913,490.55104 L 348.1295,494.40535 L 364.12977,498.25956 L 345.74499,502.93551 C 335.63337,505.50723 326.37137,507.62825 325.16277,507.64888 C 323.95417,507.66956 320.9201,505.57625 318.42038,502.99721 L 318.42039,502.99724 z" id="path2867"/>
  <path style="fill: url(&quot;#linearGradient2889&quot;) rgb(0, 0, 0); fill-opacity: 1;" d="M 26.818602,348.40932 L 21.999966,343.43769 L 32.76513,332.49942 C 44.346066,320.73224 47.917436,314.87601 51.547226,301.7011 C 54.722086,290.17746 55.946026,259.19603 53.804926,244.55295 C 51.295796,227.39292 51.590726,227.6192 42.908616,236.19347 C 38.737666,240.3126 35.325111,242.9981 35.325111,242.16126 C 35.325111,239.02776 66.306596,209.34464 81.287056,198.1255 C 106.17399,179.48718 126.73538,170.22224 196.28435,146.30783 C 211.30818,141.14187 229.76367,134.16139 237.29655,130.79564 C 262.72588,119.43361 270.00455,117.58742 281.72968,119.52561 L 287.01085,120.39861 L 259.10222,139.90766 C 235.8352,156.17213 228.2537,162.40594 213.51602,177.39048 C 203.79331,187.27607 170.38251,219.72004 139.26981,249.48823 C 108.15711,279.2564 71.571146,314.81016 57.967686,328.49657 C 44.364186,342.18299 32.87483,353.38094 32.435703,353.38094 C 31.996547,353.38094 29.468909,351.14372 26.81863,348.40932 L 26.818602,348.40932 z" id="path2881"/>
  <path style="fill: rgb(255, 0, 0); fill-opacity: 0.846662;" d="M 154.71335,426.32727 C 129.69267,417.92301 95.466846,400.69255 70.680446,384.02224 C 58.732556,375.98658 38.015256,360.15791 35.536423,357.17109 C 34.217089,355.58136 41.448036,347.73798 73.151416,316.37017 C 94.737986,295.01207 126.08227,264.57588 142.80535,248.73416 C 159.52842,232.89247 178.2307,215.11459 184.36597,209.22781 C 190.50121,203.34103 194.99444,199.79735 194.35084,201.35299 C 193.70723,202.90862 192.93274,207.71975 192.62969,212.04438 C 192.11093,219.44713 192.40975,220.32616 197.73493,227.06301 C 203.23513,234.02126 219.92127,249.12969 223.67281,250.54839 C 224.89262,251.00967 223.58251,252.89428 219.88182,256.00162 C 216.77159,258.61319 210.4076,264.56833 205.73969,269.23524 C 201.07179,273.90214 191.04771,283.38915 183.46399,290.31748 C 175.88027,297.24582 169.6754,303.49251 169.6754,304.199 C 169.6754,305.38326 181.28031,297.77725 198.70157,285.17485 L 205.80741,280.03454 L 216.96826,284.8877 C 223.10673,287.55694 228.38246,289.99424 228.69215,290.30392 C 229.00182,290.61361 220.95793,296.50037 210.81681,303.38562 C 200.67571,310.27088 192.36143,316.41914 192.34064,317.04841 C 192.29129,318.54171 190.80694,319.49726 228.56034,293.73167 L 261.28233,271.39985 L 269.41052,274.19634 C 287.55333,280.4384 301.22463,281.92717 339.93856,281.87667 L 376.55851,281.82889 L 363.98019,287.67992 C 335.68633,300.84126 276.49204,336.51122 249.90387,356.42131 C 232.64971,369.34174 204.38473,398.02365 188.44339,418.78832 C 182.59092,426.41148 176.81881,432.56876 175.53431,432.5587 C 174.25644,432.5487 164.887,429.74455 154.71331,426.32727 L 154.71335,426.32727 z" id="path2923"/>
  <path id="path2925" d="M 154.71335,426.32727 C 129.69267,417.92301 95.466846,400.69255 70.680446,384.02224 C 58.732556,375.98658 38.015256,360.15791 35.536423,357.17109 C 34.217089,355.58136 41.448036,347.73798 73.151416,316.37017 C 94.737986,295.01207 126.08227,264.57588 142.80535,248.73416 C 159.52842,232.89247 178.2307,215.11459 184.36597,209.22781 C 190.50121,203.34103 194.99444,199.79735 194.35084,201.35299 C 193.70723,202.90862 192.93274,207.71975 192.62969,212.04438 C 192.11093,219.44713 192.40975,220.32616 197.73493,227.06301 C 203.23513,234.02126 219.92127,249.12969 223.67281,250.54839 C 224.89262,251.00967 223.58251,252.89428 219.88182,256.00162 C 216.77159,258.61319 210.4076,264.56833 205.73969,269.23524 C 201.07179,273.90214 191.04771,283.38915 183.46399,290.31748 C 175.88027,297.24582 169.6754,303.49251 169.6754,304.199 C 169.6754,305.38326 181.28031,297.77725 198.70157,285.17485 L 205.80741,280.03454 L 216.96826,284.8877 C 223.10673,287.55694 228.38246,289.99424 228.69215,290.30392 C 229.00182,290.61361 220.95793,296.50037 210.81681,303.38562 C 200.67571,310.27088 192.36143,316.41914 192.34064,317.04841 C 192.29129,318.54171 190.80694,319.49726 228.56034,293.73167 L 261.28233,271.39985 L 269.41052,274.19634 C 287.55333,280.4384 301.22463,281.92717 339.93856,281.87667 L 376.55851,281.82889 L 363.98019,287.67992 C 335.68633,300.84126 276.49204,336.51122 249.90387,356.42131 C 232.64971,369.34174 204.38473,398.02365 188.44339,418.78832 C 182.59092,426.41148 176.81881,432.56876 175.53431,432.5587 C 174.25644,432.5487 164.887,429.74455 154.71331,426.32727 L 154.71335,426.32727 z" style="fill: url(&quot;#linearGradient2929&quot;) rgb(0, 0, 0); fill-opacity: 1;"/>
  <path style="fill: url(&quot;#linearGradient2939&quot;) rgb(0, 0, 0); fill-opacity: 1;" d="M 154.71335,426.32727 C 129.69267,417.92301 95.466846,400.69255 70.680446,384.02224 C 58.732556,375.98658 38.015256,360.15791 35.536423,357.17109 C 34.217089,355.58136 41.448036,347.73798 73.151416,316.37017 C 94.737986,295.01207 126.08227,264.57588 142.80535,248.73416 C 159.52842,232.89247 178.2307,215.11459 184.36597,209.22781 C 190.50121,203.34103 194.99444,199.79735 194.35084,201.35299 C 193.70723,202.90862 192.93274,207.71975 192.62969,212.04438 C 192.11093,219.44713 192.40975,220.32616 197.73493,227.06301 C 203.23513,234.02126 219.92127,249.12969 223.67281,250.54839 C 224.89262,251.00967 223.58251,252.89428 219.88182,256.00162 C 216.77159,258.61319 210.4076,264.56833 205.73969,269.23524 C 201.07179,273.90214 191.04771,283.38915 183.46399,290.31748 C 175.88027,297.24582 169.6754,303.49251 169.6754,304.199 C 169.6754,305.38326 181.28031,297.77725 198.70157,285.17485 L 205.80741,280.03454 L 216.96826,284.8877 C 223.10673,287.55694 228.38246,289.99424 228.69215,290.30392 C 229.00182,290.61361 220.95793,296.50037 210.81681,303.38562 C 200.67571,310.27088 192.36143,316.41914 192.34064,317.04841 C 192.29129,318.54171 190.80694,319.49726 228.56034,293.73167 L 261.28233,271.39985 L 269.41052,274.19634 C 287.55333,280.4384 301.22463,281.92717 339.93856,281.87667 L 376.55851,281.82889 L 363.98019,287.67992 C 335.68633,300.84126 276.49204,336.51122 249.90387,356.42131 C 232.64971,369.34174 204.38473,398.02365 188.44339,418.78832 C 182.59092,426.41148 176.81881,432.56876 175.53431,432.5587 C 174.25644,432.5487 164.887,429.74455 154.71331,426.32727 L 154.71335,426.32727 z" id="path2931"/>
</svg>