<?xml version="1.0" encoding="UTF-8" standalone="no"?>
<!-- Generator: Adobe Illustrator 12.0.1, SVG Export Plug-In . SVG Version: 6.00 Build 51448)  -->
<svg
   xmlns:dc="http://purl.org/dc/elements/1.1/"
   xmlns:cc="http://web.resource.org/cc/"
   xmlns:rdf="http://www.w3.org/1999/02/22-rdf-syntax-ns#"
   xmlns:svg="http://www.w3.org/2000/svg"
   xmlns="http://www.w3.org/2000/svg"
   xmlns:sodipodi="http://sodipodi.sourceforge.net/DTD/sodipodi-0.dtd"
   xmlns:inkscape="http://www.inkscape.org/namespaces/inkscape"
   version="1.0"
   id="Layer_1"
   width="400"
   height="400"
   viewBox="0 0 567.23 758.923"
   overflow="visible"
   enable-background="new 0 0 567.23 758.923"
   xml:space="preserve"
   sodipodi:version="0.32"
   inkscape:version="0.45.1"
   sodipodi:docname="eiflle tower paris.svg"
   inkscape:output_extension="org.inkscape.output.svg.inkscape"
   sodipodi:docbase="C:\Documents and Settings\animator\Desktop"
   inkscape:export-filename="C:\Documents and Settings\animator\Desktop\eiflle tower paris.png"
   inkscape:export-xdpi="90"
   inkscape:export-ydpi="90"><metadata
   id="metadata3351"><rdf:RDF><cc:Work
       rdf:about=""><dc:format>image/svg+xml</dc:format><dc:type
         rdf:resource="http://purl.org/dc/dcmitype/StillImage" /></cc:Work></rdf:RDF></metadata><defs
   id="defs3349" /><sodipodi:namedview
   inkscape:window-height="968"
   inkscape:window-width="1280"
   inkscape:pageshadow="2"
   inkscape:pageopacity="0.0"
   guidetolerance="10.0"
   gridtolerance="10.0"
   objecttolerance="10.0"
   borderopacity="1.0"
   bordercolor="#666666"
   pagecolor="#ffffff"
   id="base"
   inkscape:zoom="0.71078963"
   inkscape:cx="24"
   inkscape:cy="24"
   inkscape:window-x="-4"
   inkscape:window-y="-4"
   inkscape:current-layer="Layer_1"
   width="400px"
   height="400px" />












































































































<g
   id="g3353"
   transform="translate(-7.7597514,2.668269)"><path
     id="path3130"
     d="M 171.597,560.406 C 171.597,560.406 175.928,573.939 173.221,579.894 C 170.515,585.851 398.437,583.143 398.437,583.143 C 398.437,583.143 397.353,567.984 399.519,564.195 C 401.685,560.406 400.06,561.489 400.06,561.489 L 171.597,560.406 z "
     style="fill:#808284" /><path
     id="path3132"
     d="M 196.499,537.668 C 196.499,537.668 238.727,421.813 238.727,418.022 C 238.727,414.231 244.141,414.774 244.141,414.774 L 215.448,538.209 L 196.499,537.668 z "
     style="fill:#808284" /><polygon
     id="polygon3134"
     points="231.146,406.654 240.35,401.239 337.257,402.864 345.919,406.112 347.003,401.239 337.8,397.992 241.975,396.909 230.064,399.616 231.146,406.654 "
     style="fill:#808284" /><path
     id="path3136"
     d="M 245.764,390.954 L 257.675,392.577 L 282.037,87.78 L 277.165,91.029 C 277.165,91.029 267.961,208.509 267.961,213.381 C 267.961,218.253 246.846,389.329 245.764,390.954 z "
     style="fill:#808284" /><path
     id="path3138"
     d="M 289.078,45.823 L 297.199,46.364 C 297.199,46.364 295.576,6.302 295.033,2.512 C 294.492,-1.277 292.328,0.347 292.328,0.347 L 289.078,45.823 z "
     style="fill:#808284" /><path
     id="path3140"
     d="M 278.25,60.709 C 277.061,61.816 290.16,36.348 306.943,56.92 L 306.806,62.065 C 306.806,62.065 293.681,46.362 278.25,60.709 z "
     style="fill:#808284" /><path
     id="path3142"
     d="M 273.781,68.425 L 274.052,75.733 L 280.684,70.049 L 304.368,70.049 L 305.181,83.042 C 305.181,83.042 309.648,76.004 310.732,75.192 C 311.814,74.379 311.951,68.56 311.951,68.56 L 306.672,63.418 L 279.467,63.688 L 273.781,68.425 z "
     style="fill:#808284" /><path
     id="path3144"
     d="M 290.7,87.781 L 295.031,86.697 C 295.031,86.697 291.783,369.3 303.152,390.954 L 273.918,390.954 C 273.918,390.954 299.363,93.194 290.7,87.781 z "
     style="fill:#808284" /><path
     id="path3146"
     d="M 237.105,538.212 L 244.142,538.752 C 244.142,538.752 265.796,441.304 265.256,442.387 C 264.715,443.47 259.842,441.847 259.842,441.847 C 259.842,441.847 238.729,537.129 237.105,538.212 z "
     style="fill:#808284" /><path
     id="path3148"
     d="M 309.107,444.012 C 310.732,444.012 314.521,445.094 314.521,445.094 C 314.521,445.094 345.38,530.09 347.005,535.504 C 348.628,540.919 348.628,539.295 348.628,539.295 L 332.929,539.836 L 309.107,444.012 z "
     style="fill:#808284" /><path
     id="path3150"
     d="M 337.802,416.942 C 337.802,418.565 375.698,538.212 375.698,538.212 L 367.577,539.836 C 367.577,539.836 328.056,418.025 326.431,418.025 C 324.808,418.025 337.802,416.942 337.802,416.942 z "
     style="fill:#808284" /><path
     id="path3152"
     d="M 313.441,390.955 L 329.681,390.955 C 329.681,390.955 304.236,100.776 304.236,98.608 C 304.236,96.444 312.357,389.33 313.441,390.955 z "
     style="fill:#808284" /><path
     id="path3154"
     d="M 235.749,408.278 C 235.749,408.278 237.916,410.715 237.645,412.068 C 237.373,413.422 338.613,413.692 338.613,413.692 C 338.613,413.692 339.695,410.714 340.508,410.174 C 341.32,409.632 235.749,408.278 235.749,408.278 z "
     style="fill:#808284" /><path
     id="path3156"
     d="M 172.95,539.563 C 173.761,539.563 399.789,541.188 399.789,541.188 C 399.789,541.188 397.623,544.707 397.623,546.872 C 397.623,549.04 179.446,546.332 178.634,547.956 C 177.821,549.579 172.95,539.563 172.95,539.563 z "
     style="fill:#808284" /><path
     id="path3158"
     d="M 170.783,585.311 C 170.514,586.124 111.232,672.203 111.232,672.203 C 111.232,672.203 117.999,678.43 118.811,678.159 C 119.623,677.888 159.416,613.734 161.311,613.464 C 163.205,613.193 175.116,590.725 174.304,589.372 C 173.491,588.018 170.783,585.311 170.783,585.311 z "
     style="fill:#808284" /><path
     id="path3160"
     d="M 180.258,729.86 C 180.258,728.776 195.146,681.947 221.673,663.268 C 248.2,644.591 269.586,641.342 272.022,641.074 C 274.458,640.803 297.197,640.802 307.482,642.967 C 317.767,645.134 350.523,663.812 352.959,667.06 C 355.395,670.308 370.014,690.88 373.531,696.024 C 377.051,701.167 383.547,721.199 385.172,732.026 C 386.795,742.853 387.608,747.997 387.608,747.997 C 387.608,747.997 383.006,708.205 386.524,706.309 C 390.045,704.414 394.917,702.52 394.917,702.52 C 394.917,702.52 376.239,667.06 342.944,641.075 C 309.649,615.087 200.56,608.861 178.093,729.59 L 180.258,729.86 z "
     style="fill:#808284" /><path
     id="path3162"
     d="M 403.306,590.724 C 403.306,590.724 459.07,674.638 459.611,676.263 C 460.152,677.887 447.158,684.113 447.158,684.113 L 400.33,591.536 L 403.306,590.724 z "
     style="fill:#808284" /><path
     id="path3164"
     d="M 174.371,614.95 C 173.355,616.373 167.468,626.319 167.468,626.319 L 161.783,617.387 L 174.371,614.95 z "
     style="fill:#808284" /><path
     id="path3166"
     d="M 144.729,644.795 C 145.338,644.592 154.678,644.998 154.678,644.998 L 161.174,633.832 L 144.729,644.795 z "
     style="fill:#808284" /><path
     id="path3168"
     d="M 140.872,650.073 L 150.82,650.886 L 143.308,661.24 L 140.465,650.683 C 140.466,650.683 141.075,649.668 140.872,650.073 z "
     style="fill:#808284" /><polygon
     id="polygon3170"
     points="180.867,642.967 187.972,632.817 172.95,631.396 180.867,642.967 "
     style="fill:#808284" /><polygon
     id="polygon3172"
     points="177.01,626.727 191.627,627.538 197.312,617.185 177.01,626.727 "
     style="fill:#808284" /><polygon
     id="polygon3174"
     points="180.258,613.53 171.528,624.493 193.047,615.153 180.258,613.53 "
     style="fill:#808284" /><polygon
     id="polygon3176"
     points="175.994,652.915 168.686,663.474 150.415,663.879 175.994,652.915 "
     style="fill:#808284" /><polygon
     id="polygon3178"
     points="165.438,668.752 157.723,679.511 149.196,668.345 165.438,668.752 "
     style="fill:#808284" /><polygon
     id="polygon3180"
     points="144.121,669.97 152.647,681.339 127.879,676.871 144.121,669.97 "
     style="fill:#808284" /><polygon
     id="polygon3182"
     points="135.594,657.787 125.443,671.796 140.263,664.488 135.594,657.787 "
     style="fill:#808284" /><polygon
     id="polygon3184"
     points="168.077,634.644 160.362,644.998 175.589,644.998 168.077,634.644 "
     style="fill:#808284" /><path
     id="path3186"
     d="M 247.152,424.621 C 247.863,425.433 250.706,429.494 250.706,429.494 L 251.822,420.765 L 247.152,424.621 z "
     style="fill:#808284" /><path
     id="path3188"
     d="M 242.38,417.82 L 246.137,422.591 L 251.517,417.515 L 242.178,415.789 C 242.178,415.789 238.32,431.218 238.625,431.321 C 238.93,431.421 248.065,431.625 248.065,431.625 L 245.122,426.143 L 240.351,428.174 L 242.38,417.82 z "
     style="fill:#808284" /><polygon
     id="polygon3190"
     points="257.304,416.906 266.338,417.516 261.262,422.592 257.304,416.906 "
     style="fill:#808284" /><polygon
     id="polygon3192"
     points="260.349,425.737 254.563,431.322 262.886,431.322 260.349,425.737 "
     style="fill:#808284" /><polygon
     id="polygon3194"
     points="254.359,419.343 253.345,429.088 258.623,424.621 254.359,419.343 "
     style="fill:#808284" /><path
     id="path3196"
     d="M 267.047,420.561 C 267.047,420.866 266.235,428.885 266.235,428.885 L 262.581,424.621 L 267.047,420.561 z "
     style="fill:#808284" /><polygon
     id="polygon3198"
     points="271.007,419.851 269.281,429.494 275.88,424.926 271.007,419.851 "
     style="fill:#808284" /><polygon
     id="polygon3200"
     points="273.24,417.413 285.116,417.719 278.822,423.199 273.24,417.413 "
     style="fill:#808284" /><path
     id="path3202"
     d="M 278.012,425.839 C 277.606,426.144 271.312,431.219 271.312,431.219 L 284.101,431.727 L 278.012,425.537 L 278.012,425.839 z "
     style="fill:#808284" /><polygon
     id="polygon3204"
     points="280.854,424.418 286.639,430.407 287.146,418.734 280.854,424.418 "
     style="fill:#808284" /><polygon
     id="polygon3206"
     points="289.379,419.242 289.076,430.915 295.064,425.332 289.379,419.242 "
     style="fill:#808284" /><polygon
     id="polygon3208"
     points="291.309,432.234 297.703,426.651 305.013,432.134 291.309,432.234 "
     style="fill:#808284" /><polygon
     id="polygon3210"
     points="305.621,420.357 305.621,429.393 300.343,424.824 305.621,420.357 "
     style="fill:#808284" /><polygon
     id="polygon3212"
     points="316.382,444.314 326.431,450.404 326.33,443.909 316.382,444.314 "
     style="fill:#808284" /><polygon
     id="polygon3214"
     points="282.037,73.164 303.423,73.028 293.542,85.208 282.037,73.164 "
     style="fill:#808284" /><path
     id="path3216"
     d="M 311.273,77.494 C 310.867,78.171 305.318,87.239 305.318,87.239 L 305.994,107.811 L 307.482,94.954 L 310.597,90.758 L 311.273,77.494 z "
     style="fill:#808284" /><path
     id="path3218"
     d="M 274.594,77.494 C 274.594,77.494 280.278,84.533 280.007,85.75 C 279.736,86.968 276.219,89.269 276.219,89.269 L 274.187,88.727 L 274.594,77.494 z "
     style="fill:#808284" /><path
     id="path3220"
     d="M 267.826,474.192 C 268.232,474.192 308.025,475.004 308.025,475.004 L 317.091,536.721 L 326.294,536.586 L 308.294,468.913 L 267.556,471.62 L 267.826,474.192 z "
     style="fill:#808284" /><path
     id="path3222"
     d="M 266.474,471.755 C 266.474,472.161 262.141,524.27 256.458,536.315 L 251.043,536.452 L 265.119,471.756 L 266.474,471.756 L 266.474,471.755 z "
     style="fill:#808284" /><polygon
     id="polygon3224"
     points="268.909,453.349 267.556,465.665 306.265,466.477 307.482,454.701 306.4,454.567 304.642,462.959 272.158,462.822 270.939,453.889 290.7,453.619 298.414,453.755 268.774,450.911 268.909,453.349 "
     style="fill:#808284" /><path
     id="path3226"
     d="M 314.656,447.935 C 315.738,448.341 327.107,454.837 327.107,454.837 C 327.107,454.837 319.935,461.335 319.664,461.74 C 319.392,462.146 314.656,447.935 314.656,447.935 z "
     style="fill:#808284" /><polygon
     id="polygon3228"
     points="319.392,466.477 328.597,459.033 330.355,467.289 319.257,467.289 319.392,466.477 "
     style="fill:#808284" /><polygon
     id="polygon3230"
     points="347.951,516.387 359.117,524.607 351.91,527.958 347.951,516.387 "
     style="fill:#808284" /><path
     id="path3232"
     d="M 322.777,470.605 C 323.488,470.807 331.201,470.807 331.201,470.807 L 333.74,478.624 L 322.777,470.605 z "
     style="fill:#808284" /><path
     id="path3234"
     d="M 248.371,454.465 C 248.473,454.16 259.435,447.866 259.435,447.866 L 256.39,462.586 L 248.371,454.465 z "
     style="fill:#808284" /><polygon
     id="polygon3236"
     points="249.588,442.894 248.065,450.303 258.42,443.401 249.588,442.894 "
     style="fill:#808284" /><polygon
     id="polygon3238"
     points="245.833,443.909 236.292,442.486 243.802,450.303 245.833,443.909 "
     style="fill:#808284" /><path
     id="path3240"
     d="M 234.768,447.866 C 235.277,448.272 242.179,454.059 242.179,454.059 L 231.52,460.86 L 234.768,447.866 z "
     style="fill:#808284" /><polygon
     id="polygon3242"
     points="246.644,457.814 244.005,466.342 255.171,467.053 246.644,457.814 "
     style="fill:#808284" /><polygon
     id="polygon3244"
     points="253.345,474.361 240.555,482.786 249.69,491.211 253.345,474.361 "
     style="fill:#808284" /><polygon
     id="polygon3246"
     points="247.457,503.291 232.23,511.919 242.99,522.578 247.457,503.291 "
     style="fill:#808284" /><path
     id="path3248"
     d="M 229.692,516.589 C 229.388,516.994 222.383,536.384 222.383,536.384 L 237.711,527.856 L 229.692,516.589 z "
     style="fill:#808284" /><polygon
     id="polygon3250"
     points="238.017,486.847 232.535,506.133 244.209,499.738 245.934,493.648 238.017,486.847 "
     style="fill:#808284" /><path
     id="path3252"
     d="M 241.671,459.846 C 241.57,460.151 239.945,467.561 239.945,467.561 L 229.793,466.139 L 241.671,459.846 z "
     style="fill:#808284" /><path
     id="path3254"
     d="M 220.522,614.885 L 216.355,608.269 C 215.775,607.141 214.578,606.357 213.18,606.357 C 211.219,606.357 209.627,607.887 209.627,609.775 C 209.627,610.483 209.85,611.14 210.233,611.685 C 210.34,611.836 210.462,611.975 210.591,612.108 L 214.972,618.132 L 220.522,614.885 z "
     style="fill:#808284" /><path
     id="path3256"
     d="M 228.921,611.246 L 225.428,604.979 C 224.953,603.918 223.886,603.134 222.587,603.051 C 220.762,602.936 219.194,604.236 219.085,605.952 C 219.044,606.597 219.213,607.207 219.54,607.726 C 219.628,607.869 219.735,608.003 219.848,608.13 L 223.573,613.873 L 228.921,611.246 z "
     style="fill:#808284" /><path
     id="path3258"
     d="M 231.621,610.823 L 238.185,608.793 C 238.185,608.793 235.479,601.147 232.027,603.176 C 232.027,603.176 228.439,605.613 231.553,610.688 C 234.667,615.763 231.621,610.823 231.621,610.823 z "
     style="fill:#808284" /><path
     id="path3260"
     d="M 198.529,627.133 C 198.521,627.376 203.74,623.884 203.74,623.884 C 203.74,623.884 198.665,623.207 198.529,627.133 z "
     style="fill:#808284" /><path
     id="path3262"
     d="M 206.176,622.395 C 206.718,621.922 211.793,618.945 211.793,618.945 L 210.033,616.102 C 210.033,616.102 203.537,613.87 204.145,619.553 L 206.176,622.395 z "
     style="fill:#808284" /><path
     id="path3264"
     d="M 240.555,608.049 L 247.388,606.83 L 247.117,604.934 C 247.117,604.934 242.515,601.01 240.35,605.815 L 240.555,608.049 z "
     style="fill:#808284" /><path
     id="path3266"
     d="M 250.028,605.95 L 256.796,604.731 C 256.796,604.731 253.344,601.416 250.028,605.95 z "
     style="fill:#808284" /><path
     id="path3268"
     d="M 230.335,468.508 C 231.689,468.914 238.049,470.131 238.049,470.131 L 236.154,477.44 L 228.711,470.945 L 230.335,468.508 z "
     style="fill:#808284" /><path
     id="path3270"
     d="M 228.441,475.409 C 227.804,477.319 234.803,482.313 234.803,482.313 L 225.599,486.779 C 225.599,486.779 228.577,475.004 228.441,475.409 z "
     style="fill:#808284" /><path
     id="path3272"
     d="M 223.298,495.17 C 223.839,495.17 231.419,495.848 231.419,495.848 L 233.45,486.78 L 223.298,492.465 L 223.433,494.63 L 230.201,499.367 L 227.358,507.758 L 221.539,498.691 L 225.193,515.745 L 214.773,528.738 L 223.298,495.17 z "
     style="fill:#808284" /><polygon
     id="polygon3274"
     points="312.017,432.438 321.154,432.031 315.671,427.159 312.017,432.438 "
     style="fill:#808284" /><polygon
     id="polygon3276"
     points="170.311,609.064 203.605,610.079 219.237,586.123 200.56,603.786 170.311,609.064 "
     style="fill:#808284" /><path
     id="path3278"
     d="M 324.603,606.425 L 331.304,608.454 C 331.304,608.454 331.101,600.943 324.603,606.425 z "
     style="fill:#808284" /><path
     id="path3280"
     d="M 373.734,619.824 C 374.14,620.636 379.013,629.771 379.013,629.771 L 395.661,629.162 L 381.448,626.522 L 373.734,619.824 z "
     style="fill:#808284" /><path
     id="path3282"
     d="M 382.667,634.644 C 383.478,635.863 389.163,644.998 389.163,644.998 L 397.284,635.253 L 389.163,639.314 L 382.667,634.644 z "
     style="fill:#808284" /><path
     id="path3284"
     d="M 394.037,654.337 C 394.646,655.352 400.939,665.503 400.939,665.503 L 410.277,665.3 L 402.158,662.254 L 394.037,654.337 z "
     style="fill:#808284" /><path
     id="path3286"
     d="M 333.943,609.875 L 371.908,630.179 C 371.908,630.179 340.845,603.989 337.597,604.191 C 334.349,604.394 333.74,608.658 333.74,609.267"
     style="fill:#808284" /><polygon
     id="polygon3288"
     points="325.009,477.508 334.552,483.802 328.664,490.703 325.009,477.508 "
     style="fill:#808284" /><polygon
     id="polygon3290"
     points="336.175,488.268 330.289,496.795 339.019,500.246 336.175,488.268 "
     style="fill:#808284" /><polygon
     id="polygon3292"
     points="337.8,513.035 346.125,522.578 341.861,526.638 337.8,513.035 "
     style="fill:#808284" /><polygon
     id="polygon3294"
     points="331.708,426.956 328.054,431.626 334.146,432.234 331.708,426.956 "
     style="fill:#808284" /><path
     id="path3296"
     d="M 255.984,383.511 C 257.405,384.728 261.669,388.586 261.669,388.586 L 272.834,376.811 L 267.557,369.3 L 255.782,378.029 L 255.984,383.511 z "
     style="fill:#808284" /><path
     id="path3298"
     d="M 259.029,360.163 C 259.638,361.178 263.902,368.487 263.902,368.487 L 256.39,373.562 L 259.029,360.163 z "
     style="fill:#808284" /><path
     id="path3300"
     d="M 258.623,349.2 C 259.232,350.418 266.338,360.366 266.338,360.366 L 275.676,350.824 L 268.774,340.673 L 258.623,349.2 z "
     style="fill:#808284" /><polygon
     id="polygon3302"
     points="259.841,344.53 265.932,337.628 259.841,329.711 259.841,344.53 "
     style="fill:#808284" /><polygon
     id="polygon3304"
     points="260.45,320.778 269.992,314.078 262.48,304.942 260.45,320.778 "
     style="fill:#808284" /><polygon
     id="polygon3306"
     points="263.901,283.828 261.669,297.836 272.429,290.528 263.901,283.828 "
     style="fill:#808284" /><polygon
     id="polygon3308"
     points="264.307,276.113 274.661,267.79 266.135,259.06 263.901,277.129 264.307,276.113 "
     style="fill:#808284" /><polygon
     id="polygon3310"
     points="266.541,253.579 266.744,254.593 277.504,246.27 267.556,237.54 266.541,253.579 "
     style="fill:#808284" /><polygon
     id="polygon3312"
     points="269.79,215.817 267.962,233.277 277.504,226.374 269.79,215.817 "
     style="fill:#808284" /><polygon
     id="polygon3314"
     points="270.601,213.583 278.723,206.681 271.007,198.967 270.601,213.583 "
     style="fill:#808284" /><polygon
     id="polygon3316"
     points="272.022,195.718 279.939,190.237 272.631,182.116 272.022,195.718 "
     style="fill:#808284" /><polygon
     id="polygon3318"
     points="273.037,179.68 280.955,173.387 273.849,165.062 273.037,179.68 "
     style="fill:#808284" /><polygon
     id="polygon3320"
     points="274.255,163.438 280.955,158.972 275.27,150.851 274.255,163.438 "
     style="fill:#808284" /><polygon
     id="polygon3322"
     points="275.88,148.618 282.376,143.543 277.098,138.67 275.88,148.618 "
     style="fill:#808284" /><path
     id="path3324"
     d="M 276.895,135.625 L 282.58,131.361 C 282.58,131.361 278.315,124.865 278.315,125.676 C 278.314,126.489 276.895,135.625 276.895,135.625 z "
     style="fill:#808284" /><polygon
     id="polygon3326"
     points="277.504,122.429 283.798,119.181 278.314,112.887 277.504,122.429 "
     style="fill:#808284" /><polygon
     id="polygon3328"
     points="279.33,111.668 284.406,107.811 279.33,102.33 279.33,111.668 "
     style="fill:#808284" /><polygon
     id="polygon3330"
     points="280.549,100.097 284.203,97.864 281.563,93.397 280.549,100.097 "
     style="fill:#808284" /><path
     id="path3332"
     d="M 265.254,329.779 C 266.067,330.32 268.774,336.004 268.774,336.004 L 277.436,325.988 L 270.127,325.447 L 265.796,319.762 L 265.254,329.779 z "
     style="fill:#808284" /><polygon
     id="polygon3334"
     points="266.878,304.874 271.75,310.83 278.248,305.146 272.833,304.604 268.232,297.295 266.338,297.836 266.878,304.874 "
     style="fill:#808284" /><polygon
     id="polygon3336"
     points="268.503,282.407 274.187,287.82 279.602,281.595 273.104,281.055 271.21,273.474 268.503,275.099 268.503,282.407 "
     style="fill:#808284" /><polygon
     id="polygon3338"
     points="270.668,259.128 277.165,265.625 280.955,263.458 275.541,259.669 279.602,249.112 270.397,255.88 270.668,259.128 "
     style="fill:#808284" /><polygon
     id="polygon3340"
     points="278.52,243.699 271.752,238.826 272.022,235.036 280.144,228.27 277.436,235.307 278.52,243.699 "
     style="fill:#808284" /><path
     id="path3342"
     d="M 567.23,621.686 C 561.121,618.505 553.087,615.199 542.447,611.7 C 511.588,601.548 519.709,635.655 519.709,635.655 C 481.947,620.632 462.863,662.859 462.863,662.859 C 430.787,654.332 409.265,695.749 409.265,695.749 C 352.015,701.839 373.941,758.278 373.941,758.278 L 383.244,758.924 C 383.762,742.966 391.424,724.65 422.666,721.326 C 422.666,721.326 444.186,679.912 476.262,688.438 C 476.262,688.438 495.346,646.21 533.108,661.233 C 533.108,661.233 524.987,627.127 555.846,637.277 C 560.035,638.656 563.807,640.003 567.231,641.325 L 567.231,621.686 L 567.23,621.686 z "
     style="fill:#808284" /><path
     id="path3344"
     d="M 188.977,718.289 C 191.143,711.252 179.773,704.214 179.773,704.214 C 174.36,691.762 115.62,680.664 115.62,680.664 C 96.942,653.867 41.721,653.323 41.721,653.323 C 31.215,626.812 5.913,635.617 0,636.933 L 0,662.925 C 9.044,660.714 29.344,657.084 38.473,680.122 C 38.473,680.122 93.693,680.665 112.371,707.463 C 112.371,707.463 169.994,719.588 177.032,730.551 C 177.032,730.551 180.683,733.59 183.491,737.185 L 194.389,737.185 C 194.367,724.79 186.814,725.317 188.977,718.289 z "
     style="fill:#808284" /><path
     id="path3346"
     d="M 422.83,705.497 C 282.23,472.44 144.94,705.49 146.964,703.061 C 287.706,534.04 376.06,649.83 406.8,705.497 L 422.83,705.497 z "
     style="fill:#808284" /></g>
</svg>