<?xml version="1.0" encoding="UTF-8" standalone="no"?>
<!-- Created with Inkscape (http://www.inkscape.org/) -->
<svg xmlns:dc="http://purl.org/dc/elements/1.1/" xmlns:cc="http://creativecommons.org/ns#" xmlns:rdf="http://www.w3.org/1999/02/22-rdf-syntax-ns#" xmlns:svg="http://www.w3.org/2000/svg" xmlns="http://www.w3.org/2000/svg" xmlns:xlink="http://www.w3.org/1999/xlink" xmlns:sodipodi="http://sodipodi.sourceforge.net/DTD/sodipodi-0.dtd" xmlns:inkscape="http://www.inkscape.org/namespaces/inkscape" width="140.18764" height="250.00461" id="svg2" sodipodi:version="0.32" inkscape:version="0.46" sodipodi:docname="Homebrewing_Manometers.svg" inkscape:output_extension="org.inkscape.output.svg.inkscape" version="1.0">
  <defs id="defs4">
    <linearGradient inkscape:collect="always" id="linearGradient7313">
      <stop style="stop-color: rgb(236, 236, 236); stop-opacity: 1;" offset="0" id="stop7315"/>
      <stop style="stop-color: rgb(236, 236, 236); stop-opacity: 0;" offset="1" id="stop7317"/>
    </linearGradient>
    <linearGradient id="linearGradient6318">
      <stop style="stop-color: rgb(160, 90, 44); stop-opacity: 1;" offset="0" id="stop6320"/>
      <stop style="stop-color: rgb(67, 37, 17); stop-opacity: 1;" offset="1" id="stop6322"/>
    </linearGradient>
    <linearGradient id="linearGradient6261">
      <stop offset="0" style="stop-color: rgb(130, 130, 130); stop-opacity: 1;" id="stop6263"/>
      <stop id="stop6273" style="stop-color: rgb(255, 255, 255); stop-opacity: 1;" offset="0.24496379"/>
      <stop offset="0.48992759" style="stop-color: rgb(255, 255, 255); stop-opacity: 1;" id="stop6265"/>
      <stop offset="0.62234044" style="stop-color: rgb(186, 186, 186); stop-opacity: 1;" id="stop6267"/>
      <stop offset="0.75" style="stop-color: rgb(0, 0, 0); stop-opacity: 1;" id="stop6269"/>
      <stop offset="1" style="stop-color: rgb(255, 255, 255); stop-opacity: 1;" id="stop6271"/>
    </linearGradient>
    <linearGradient inkscape:collect="always" id="linearGradient6232">
      <stop style="stop-color: rgb(0, 0, 0); stop-opacity: 1;" offset="0" id="stop6234"/>
      <stop style="stop-color: rgb(0, 0, 0); stop-opacity: 0;" offset="1" id="stop6236"/>
    </linearGradient>
    <inkscape:perspective sodipodi:type="inkscape:persp3d" inkscape:vp_x="0 : 526.18109 : 1" inkscape:vp_y="0 : 1000 : 0" inkscape:vp_z="744.09448 : 526.18109 : 1" inkscape:persp3d-origin="372.04724 : 350.78739 : 1" id="perspective10"/>
    <inkscape:perspective id="perspective2617" inkscape:persp3d-origin="372.04724 : 350.78739 : 1" inkscape:vp_z="744.09448 : 526.18109 : 1" inkscape:vp_y="0 : 1000 : 0" inkscape:vp_x="0 : 526.18109 : 1" sodipodi:type="inkscape:persp3d"/>
    <inkscape:perspective id="perspective2630" inkscape:persp3d-origin="372.04724 : 350.78739 : 1" inkscape:vp_z="744.09448 : 526.18109 : 1" inkscape:vp_y="0 : 1000 : 0" inkscape:vp_x="0 : 526.18109 : 1" sodipodi:type="inkscape:persp3d"/>
    <linearGradient y2="563.6969" x2="405.51514" y1="563.6969" x1="310.48056" gradientTransform="matrix(0.677215, 0, 0, 1.58369, 221.322, -561.492)" gradientUnits="userSpaceOnUse" id="linearGradient14115" xlink:href="#linearGradient10084" inkscape:collect="always"/>
    <linearGradient y2="563.61621" x2="302.52487" y1="563.61621" x1="207.49031" gradientTransform="matrix(0.677215, 0, 0, 1.58369, 226.211, -561.492)" gradientUnits="userSpaceOnUse" id="linearGradient14113" xlink:href="#linearGradient8150" inkscape:collect="always"/>
    <linearGradient y2="518.42151" x2="405.51514" y1="519.68945" x1="311.43484" gradientTransform="matrix(0.677215, 0, 0, 1.58369, 221.117, -411.47)" gradientUnits="userSpaceOnUse" id="linearGradient14111" xlink:href="#linearGradient2359" inkscape:collect="always"/>
    <linearGradient y2="523.61627" x2="302.52487" y1="523.61627" x1="207.49031" gradientTransform="matrix(0.677215, 0, 0, 1.58369, 226.006, -411.47)" gradientUnits="userSpaceOnUse" id="linearGradient14109" xlink:href="#linearGradient2347" inkscape:collect="always"/>
    <linearGradient y2="483.69693" x2="405.51514" y1="483.69693" x1="310.48056" gradientTransform="matrix(0.677215, 0, 0, 1.58369, 221.293, -391.704)" gradientUnits="userSpaceOnUse" id="linearGradient14107" xlink:href="#linearGradient7230" inkscape:collect="always"/>
    <linearGradient y2="483.61627" x2="302.52487" y1="483.61627" x1="207.49031" gradientTransform="matrix(0.677215, 0, 0, 1.58369, 226.182, -391.704)" gradientUnits="userSpaceOnUse" id="linearGradient14105" xlink:href="#linearGradient7242" inkscape:collect="always"/>
    <radialGradient r="86.807602" fy="326.55841" fx="147.33928" cy="326.55841" cx="147.33928" gradientTransform="matrix(1.30822, -1.38882e-08, 1.45074e-08, 1.36655, -41.7143, -116.267)" gradientUnits="userSpaceOnUse" id="radialGradient14091" xlink:href="#linearGradient10084" inkscape:collect="always"/>
    <linearGradient gradientTransform="matrix(0.677215, 0, 0, 1.58369, 226.211, -561.492)" gradientUnits="userSpaceOnUse" y2="563.61621" x2="302.52487" y1="563.61621" x1="207.49031" id="linearGradient13096" xlink:href="#linearGradient8150" inkscape:collect="always"/>
    <linearGradient gradientTransform="matrix(0.677215, 0, 0, 1.58369, 221.322, -561.492)" gradientUnits="userSpaceOnUse" y2="563.6969" x2="405.51514" y1="563.6969" x1="310.48056" id="linearGradient13094" xlink:href="#linearGradient10084" inkscape:collect="always"/>
    <linearGradient gradientTransform="matrix(0.677215, 0, 0, 1.58369, 226.006, -411.47)" gradientUnits="userSpaceOnUse" y2="523.61627" x2="302.52487" y1="523.61627" x1="207.49031" id="linearGradient13092" xlink:href="#linearGradient2347" inkscape:collect="always"/>
    <linearGradient gradientTransform="matrix(0.677215, 0, 0, 1.58369, 221.117, -411.47)" gradientUnits="userSpaceOnUse" y2="518.42151" x2="405.51514" y1="519.68945" x1="311.43484" id="linearGradient12121" xlink:href="#linearGradient2359" inkscape:collect="always"/>
    <linearGradient gradientTransform="matrix(0.677215, 0, 0, 1.58369, 226.182, -391.704)" gradientUnits="userSpaceOnUse" y2="483.61627" x2="302.52487" y1="483.61627" x1="207.49031" id="linearGradient11150" xlink:href="#linearGradient7242" inkscape:collect="always"/>
    <linearGradient gradientTransform="matrix(0.677215, 0, 0, 1.58369, 221.293, -391.704)" gradientUnits="userSpaceOnUse" y2="483.69693" x2="405.51514" y1="483.69693" x1="310.48056" id="linearGradient9208" xlink:href="#linearGradient7230" inkscape:collect="always"/>
    <radialGradient r="86.807602" fy="326.55841" fx="147.33928" cy="326.55841" cx="147.33928" gradientTransform="matrix(1.30822, -1.38882e-08, 1.45074e-08, 1.36655, -41.7143, -116.267)" gradientUnits="userSpaceOnUse" id="radialGradient7228" xlink:href="#linearGradient7230" inkscape:collect="always"/>
    <radialGradient r="86.807602" fy="312.267" fx="134.28101" cy="312.267" cx="134.28101" gradientTransform="matrix(1.30791, -0.0284413, 0.0271426, 1.24819, -50.5324, -73.4246)" gradientUnits="userSpaceOnUse" id="radialGradient7226" xlink:href="#linearGradient7242" inkscape:collect="always"/>
    <radialGradient r="74.919426" fy="417.9837" fx="159.4702" cy="417.9837" cx="159.4702" gradientTransform="matrix(1, 0, 0, 0.348294, 0, 272.402)" gradientUnits="userSpaceOnUse" id="radialGradient7224" xlink:href="#linearGradient6260" inkscape:collect="always"/>
    <radialGradient r="86.807602" fy="326.55841" fx="147.33928" cy="326.55841" cx="147.33928" gradientTransform="matrix(1.30822, -1.38882e-08, 1.45074e-08, 1.36655, -41.7143, -116.267)" gradientUnits="userSpaceOnUse" id="radialGradient2345" xlink:href="#linearGradient2359" inkscape:collect="always"/>
    <radialGradient r="86.807602" fy="312.267" fx="134.28101" cy="312.267" cx="134.28101" gradientTransform="matrix(1.30791, -0.0284413, 0.0271426, 1.24819, -50.5324, -73.4246)" gradientUnits="userSpaceOnUse" id="radialGradient2343" xlink:href="#linearGradient2347" inkscape:collect="always"/>
    <radialGradient r="74.919426" fy="417.9837" fx="159.4702" cy="417.9837" cx="159.4702" gradientTransform="matrix(1, 0, 0, 0.348294, 0, 272.402)" gradientUnits="userSpaceOnUse" id="radialGradient2341" xlink:href="#linearGradient6260" inkscape:collect="always"/>
    <radialGradient gradientUnits="userSpaceOnUse" gradientTransform="matrix(1, 0, 0, 0.348294, 0, 272.402)" r="74.919426" fy="417.9837" fx="159.4702" cy="417.9837" cx="159.4702" id="radialGradient4227" xlink:href="#linearGradient6260" inkscape:collect="always"/>
    <radialGradient r="86.807602" fy="326.55841" fx="147.33928" cy="326.55841" cx="147.33928" gradientTransform="matrix(1.30822, -1.38882e-08, 1.45074e-08, 1.36655, -41.7143, -116.267)" gradientUnits="userSpaceOnUse" id="radialGradient3254" xlink:href="#linearGradient10084" inkscape:collect="always"/>
    <radialGradient gradientTransform="matrix(1.30791, -0.0284413, 0.0271426, 1.24819, -50.5324, -73.4246)" gradientUnits="userSpaceOnUse" r="86.807602" fy="312.267" fx="134.28101" cy="312.267" cx="134.28101" id="radialGradient2271" xlink:href="#linearGradient8150" inkscape:collect="always"/>
    <linearGradient id="linearGradient10084">
      <stop id="stop10086" style="stop-color: rgb(255, 255, 255); stop-opacity: 0;" offset="0"/>
      <stop id="stop10090" style="stop-color: rgb(108, 108, 108); stop-opacity: 0;" offset="0.62234044"/>
      <stop id="stop10092" style="stop-color: rgb(52, 52, 52); stop-opacity: 1;" offset="0.70001513"/>
      <stop id="stop18048" style="stop-color: rgb(255, 255, 255); stop-opacity: 0;" offset="0.82341313"/>
      <stop id="stop10094" style="stop-color: rgb(255, 255, 255); stop-opacity: 0;" offset="1"/>
    </linearGradient>
    <linearGradient id="linearGradient6260">
      <stop id="stop6262" offset="0" style="stop-color: rgb(0, 0, 0); stop-opacity: 1;"/>
      <stop id="stop6264" offset="1" style="stop-color: rgb(0, 0, 0); stop-opacity: 0;"/>
    </linearGradient>
    <linearGradient id="linearGradient8150">
      <stop id="stop8152" style="stop-color: rgb(255, 255, 255); stop-opacity: 1;" offset="0"/>
      <stop id="stop8154" style="stop-color: rgb(255, 255, 255); stop-opacity: 1;" offset="0.48992759"/>
      <stop id="stop8156" style="stop-color: rgb(186, 186, 186); stop-opacity: 1;" offset="0.62234044"/>
      <stop id="stop8158" style="stop-color: rgb(0, 0, 0); stop-opacity: 1;" offset="0.75"/>
      <stop id="stop8160" style="stop-color: rgb(255, 255, 255); stop-opacity: 1;" offset="1"/>
    </linearGradient>
    <linearGradient id="linearGradient2347">
      <stop offset="0" style="stop-color: rgb(255, 253, 210); stop-opacity: 1;" id="stop2349"/>
      <stop offset="0.48992759" style="stop-color: rgb(255, 221, 113); stop-opacity: 1;" id="stop2351"/>
      <stop offset="0.62234044" style="stop-color: rgb(255, 239, 110); stop-opacity: 1;" id="stop2353"/>
      <stop offset="0.75" style="stop-color: rgb(72, 46, 0); stop-opacity: 1;" id="stop2355"/>
      <stop offset="1" style="stop-color: rgb(255, 219, 72); stop-opacity: 1;" id="stop2357"/>
    </linearGradient>
    <linearGradient id="linearGradient2359">
      <stop offset="0" style="stop-color: rgb(255, 255, 255); stop-opacity: 0;" id="stop2361"/>
      <stop offset="0.62234044" style="stop-color: rgb(216, 171, 0); stop-opacity: 0;" id="stop2363"/>
      <stop offset="0.70001513" style="stop-color: rgb(83, 65, 0); stop-opacity: 1;" id="stop2365"/>
      <stop offset="0.82341313" style="stop-color: rgb(255, 244, 223); stop-opacity: 0;" id="stop2367"/>
      <stop offset="1" style="stop-color: rgb(255, 246, 215); stop-opacity: 0;" id="stop2369"/>
    </linearGradient>
    <linearGradient id="linearGradient7230">
      <stop id="stop7232" style="stop-color: rgb(255, 255, 255); stop-opacity: 0;" offset="0"/>
      <stop id="stop7234" style="stop-color: rgb(228, 129, 60); stop-opacity: 0;" offset="0.62234044"/>
      <stop id="stop7236" style="stop-color: rgb(83, 31, 0); stop-opacity: 1;" offset="0.70001513"/>
      <stop id="stop7238" style="stop-color: rgb(255, 236, 223); stop-opacity: 0;" offset="0.82341313"/>
      <stop id="stop7240" style="stop-color: rgb(255, 246, 215); stop-opacity: 0;" offset="1"/>
    </linearGradient>
    <linearGradient id="linearGradient7242">
      <stop id="stop7244" style="stop-color: rgb(255, 232, 210); stop-opacity: 1;" offset="0"/>
      <stop id="stop7246" style="stop-color: rgb(255, 180, 113); stop-opacity: 1;" offset="0.48992759"/>
      <stop id="stop7248" style="stop-color: rgb(235, 169, 109); stop-opacity: 1;" offset="0.62234044"/>
      <stop id="stop7250" style="stop-color: rgb(72, 29, 0); stop-opacity: 1;" offset="0.75"/>
      <stop id="stop7252" style="stop-color: rgb(255, 147, 72); stop-opacity: 1;" offset="1"/>
    </linearGradient>
    <inkscape:perspective id="perspective95" inkscape:persp3d-origin="147.24754 : 105.17885 : 1" inkscape:vp_z="294.49509 : 157.76828 : 1" inkscape:vp_y="0 : 1000 : 0" inkscape:vp_x="0 : 157.76828 : 1" sodipodi:type="inkscape:persp3d"/>
    <linearGradient inkscape:collect="always" xlink:href="#linearGradient6261" id="linearGradient7121" gradientUnits="userSpaceOnUse" gradientTransform="matrix(0.999773, 0, 0, 1.1552, -5.44133, -122.893)" x1="-146.65648" y1="800.61615" x2="-146.65648" y2="784.45807"/>
    <linearGradient inkscape:collect="always" xlink:href="#linearGradient6261" id="linearGradient7123" gradientUnits="userSpaceOnUse" gradientTransform="matrix(-0.999773, 0, 0, 1.1552, -223.13, -122.893)" x1="-146.65648" y1="800.61615" x2="-146.65648" y2="784.45807"/>
    <linearGradient inkscape:collect="always" xlink:href="#linearGradient6261" id="linearGradient7128" gradientUnits="userSpaceOnUse" gradientTransform="matrix(1.22252, 0, 0, 1.85314, 548.126, -703.79)" x1="-140.39781" y1="771.26459" x2="-97.005127" y2="771.26459"/>
    <linearGradient inkscape:collect="always" xlink:href="#linearGradient6261" id="linearGradient7134" gradientUnits="userSpaceOnUse" gradientTransform="matrix(0.999803, 0, 0, 1.17795, 521.689, -205.921)" x1="-140.39781" y1="771.26459" x2="-97.005127" y2="771.26459"/>
    <linearGradient inkscape:collect="always" xlink:href="#linearGradient7242" id="linearGradient7137" gradientUnits="userSpaceOnUse" gradientTransform="matrix(1.15663, 0, 0, 0.999625, 535.86, -79.1006)" x1="-124.45" y1="761.87085" x2="-105.26726" y2="761.87085"/>
    <linearGradient inkscape:collect="always" xlink:href="#linearGradient6232" id="linearGradient7139" gradientUnits="userSpaceOnUse" gradientTransform="matrix(1.15663, 0, 0, 0.999625, 535.86, -79.1006)" x1="-124.45" y1="761.87085" x2="-105.26726" y2="761.87085"/>
    <linearGradient inkscape:collect="always" xlink:href="#linearGradient6261" id="linearGradient7142" gradientUnits="userSpaceOnUse" gradientTransform="matrix(0.762688, 0, 0, 1.8549, 493.544, -673.836)" x1="-140.39781" y1="771.26459" x2="-97.005127" y2="771.26459"/>
    <linearGradient inkscape:collect="always" xlink:href="#linearGradient6318" id="linearGradient7145" gradientUnits="userSpaceOnUse" gradientTransform="matrix(1.11656, 0, 0, 0.744059, 532.585, 149.291)" x1="-116.04658" y1="854.27106" x2="-116.04658" y2="843.69641"/>
    <radialGradient inkscape:collect="always" xlink:href="#linearGradient8150" id="radialGradient7149" gradientUnits="userSpaceOnUse" gradientTransform="matrix(1.30791, -0.0284413, 0.0271426, 1.24819, -50.5324, -73.4246)" cx="134.28101" cy="312.267" fx="134.28101" fy="312.267" r="86.807602"/>
    <linearGradient inkscape:collect="always" xlink:href="#linearGradient8150" id="linearGradient7216" gradientUnits="userSpaceOnUse" gradientTransform="matrix(0.897537, 0, 0, 1.0002, 506.546, -86.9379)" x1="-134.82524" y1="755.73767" x2="-95.882713" y2="755.73767"/>
    <linearGradient inkscape:collect="always" xlink:href="#linearGradient7313" id="linearGradient7319" x1="-758.46533" y1="389.26886" x2="-758.56879" y2="393.80133" gradientUnits="userSpaceOnUse" gradientTransform="matrix(0.889017, 0, 0, 0.889017, 0.261624, 90.4481)"/>
  </defs>
  <sodipodi:namedview id="base" pagecolor="#ffffff" bordercolor="#666666" borderopacity="1.0" gridtolerance="10000" guidetolerance="10" objecttolerance="10" inkscape:pageopacity="0.0" inkscape:pageshadow="2" inkscape:zoom="2.1958724" inkscape:cx="79.352607" inkscape:cy="121.98983" inkscape:document-units="px" inkscape:current-layer="layer1" showgrid="false" inkscape:window-width="1436" inkscape:window-height="948" inkscape:window-x="87" inkscape:window-y="43"/>
  <metadata id="metadata7">
    <rdf:RDF>
      <cc:Work rdf:about="">
        <dc:format>image/svg+xml</dc:format>
        <dc:type rdf:resource="http://purl.org/dc/dcmitype/StillImage"/>
        <dc:title>Homebrewing Manometer</dc:title>
        <dc:date>2009-05-26</dc:date>
        <dc:creator>
          <cc:Agent>
            <dc:title>Stefano Ciurleo</dc:title>
          </cc:Agent>
        </dc:creator>
        <dc:publisher>
          <cc:Agent>
            <dc:title>openclipart.org</dc:title>
          </cc:Agent>
        </dc:publisher>
        <dc:subject>
          <rdf:Bag>
            <rdf:li>manometer</rdf:li>
            <rdf:li>homebrewing</rdf:li>
            <rdf:li>brewing</rdf:li>
          </rdf:Bag>
        </dc:subject>
        <cc:license rdf:resource="http://creativecommons.org/licenses/publicdomain/"/>
      </cc:Work>
      <cc:License rdf:about="http://creativecommons.org/licenses/publicdomain/">
        <cc:permits rdf:resource="http://creativecommons.org/ns#Reproduction"/>
        <cc:permits rdf:resource="http://creativecommons.org/ns#Distribution"/>
        <cc:permits rdf:resource="http://creativecommons.org/ns#DerivativeWorks"/>
      </cc:License>
    </rdf:RDF>
  </metadata>
  <g inkscape:label="Layer 1" inkscape:groupmode="layer" id="layer1" transform="translate(-37.474, -35.3548)">
    <g id="g7229" transform="translate(-295.102, -504.578)">
      <g id="g7218">
        <rect ry="3.8150978" y="769.22968" x="387.50476" height="15.643361" width="31.013136" id="rect6314" style="fill: url(&quot;#linearGradient7145&quot;) rgb(0, 0, 0); fill-opacity: 1; stroke: rgb(0, 0, 0); stroke-width: 0.15; stroke-linejoin: round; stroke-miterlimit: 4; stroke-dasharray: none; stroke-opacity: 1;"/>
        <rect style="fill: url(&quot;#linearGradient7142&quot;) rgb(0, 0, 0); fill-opacity: 1; stroke: rgb(0, 0, 0); stroke-width: 0.15; stroke-linejoin: round; stroke-miterlimit: 4; stroke-dasharray: none; stroke-opacity: 1;" id="rect6310" width="32.999729" height="33.264439" x="386.51147" y="740.14752"/>
        <rect style="fill: url(&quot;#linearGradient7137&quot;) rgb(0, 0, 0); fill-opacity: 1; stroke: url(&quot;#linearGradient7139&quot;) rgb(0, 0, 0); stroke-width: 0.15; stroke-linejoin: round; stroke-miterlimit: 4; stroke-dasharray: none; stroke-opacity: 1;" id="rect6230" width="22.042713" height="21.900969" x="391.98996" y="671.53394" ry="0"/>
        <rect style="fill: url(&quot;#linearGradient7134&quot;) rgb(0, 0, 0); fill-opacity: 1; stroke: rgb(0, 0, 0); stroke-width: 0.15; stroke-linejoin: round; stroke-miterlimit: 4; stroke-dasharray: none; stroke-opacity: 1;" id="rect6250" width="43.259167" height="21.124523" x="381.38174" y="692.02686" ry="3.7743597"/>
        <g id="g6302" transform="translate(517.297, -71.4161)" style="stroke-width: 0.15; stroke-miterlimit: 4; stroke-dasharray: none;">
          <path id="rect6275" d="M -165.28794,783.39799 C -167.73392,783.65197 -169.6307,785.7946 -169.6307,788.37979 L -169.6307,790.5819 C -169.63156,790.64862 -169.6307,790.73146 -169.6307,790.7985 L -169.6307,791.34 C -169.41373,797.52565 -165.512,802.38663 -160.69523,802.3866 L -139.35633,802.3866 C -134.53973,802.38659 -130.63977,797.5253 -130.42086,791.34 L -130.38962,791.34 L -130.38962,790.7985 C -130.38962,790.73169 -130.38877,790.64842 -130.38962,790.5819 L -130.38962,788.37979 C -130.38962,785.62225 -132.5515,783.39799 -135.23227,783.39799 L -164.78805,783.39799 C -164.9556,783.39799 -165.12487,783.38105 -165.28794,783.39799 z" style="opacity: 1; fill: url(&quot;#linearGradient7121&quot;) rgb(0, 0, 0); fill-opacity: 1; stroke: rgb(0, 0, 0); stroke-width: 0.15; stroke-linejoin: round; stroke-miterlimit: 4; stroke-dasharray: none; stroke-opacity: 1;"/>
          <path style="opacity: 1; fill: url(&quot;#linearGradient7123&quot;) rgb(0, 0, 0); fill-opacity: 1; stroke: rgb(0, 0, 0); stroke-width: 0.15; stroke-linejoin: round; stroke-miterlimit: 4; stroke-dasharray: none; stroke-opacity: 1;" d="M -63.283771,783.39799 C -60.837795,783.65197 -58.941015,785.7946 -58.941015,788.37979 L -58.941015,790.5819 C -58.940155,790.64862 -58.941015,790.73146 -58.941015,790.7985 L -58.941015,791.34 C -59.157985,797.52565 -63.059711,802.38663 -67.876481,802.3866 L -89.215381,802.3866 C -94.031981,802.38659 -97.931934,797.5253 -98.150844,791.34 L -98.182084,791.34 L -98.182084,790.7985 C -98.182084,790.73169 -98.182934,790.64842 -98.182084,790.5819 L -98.182084,788.37979 C -98.182084,785.62225 -96.020204,783.39799 -93.339441,783.39799 L -63.783661,783.39799 C -63.616111,783.39799 -63.446841,783.38105 -63.283771,783.39799 z" id="path6298"/>
        </g>
        <rect y="708.85107" x="376.5636" height="33.232864" width="52.895485" id="rect6294" style="fill: url(&quot;#linearGradient7128&quot;) rgb(0, 0, 0); fill-opacity: 1; stroke: rgb(0, 0, 0); stroke-width: 0.15; stroke-linejoin: round; stroke-miterlimit: 4; stroke-dasharray: none; stroke-opacity: 1;"/>
        <rect style="fill: url(&quot;#linearGradient7216&quot;) rgb(0, 0, 0); fill-opacity: 1; stroke: rgb(0, 0, 0); stroke-width: 0.15; stroke-linejoin: round; stroke-miterlimit: 4; stroke-dasharray: none; stroke-opacity: 1;" id="rect6218" width="34.840164" height="26.371872" x="385.59125" y="655.76422" ry="6.4315648"/>
      </g>
      <g transform="translate(518.081, -66.2923)" id="g6153">
        <g id="g6145" transform="matrix(0.912453, 0, 0, 0.912453, -408.724, -197.445)" style="stroke: rgb(0, 0, 0); stroke-width: 0.109595; stroke-miterlimit: 4; stroke-dasharray: none; stroke-opacity: 1;">
          <path transform="matrix(0.822641, 0, 0, 0.822233, 195.783, 685.018)" d="M 237.3459,329.99237 A 86.307602,86.307602 0 1 1 64.730698,329.99237 A 86.307602,86.307602 0 1 1 237.3459,329.99237 z" sodipodi:ry="86.307602" sodipodi:rx="86.307602" sodipodi:cy="329.99237" sodipodi:cx="151.0383" id="path2269" style="fill: url(&quot;#radialGradient7149&quot;) rgb(0, 0, 0); fill-opacity: 1; fill-rule: evenodd; stroke: rgb(0, 0, 0); stroke-width: 0.133256; stroke-linecap: butt; stroke-linejoin: miter; marker: none; stroke-miterlimit: 4; stroke-dasharray: none; stroke-dashoffset: 0pt; stroke-opacity: 1; visibility: visible; display: inline; overflow: visible;" sodipodi:type="arc"/>
          <path id="path7187" d="M 256.34391,986.9053 C 268.29813,1011.2188 293.7067,1027.6083 322.5356,1026.6123 C 350.74745,1025.6377 374.52443,1008.2961 385.13462,984.05056 C 369.06205,995.28662 347.05448,1002.6264 322.54917,1003.4731 C 296.84458,1004.3611 273.38345,997.93691 256.34391,986.9053 z" style="opacity: 0.2; fill: rgb(255, 255, 255); fill-opacity: 1; fill-rule: evenodd; stroke: rgb(0, 0, 0); stroke-width: 0.109595; stroke-linecap: butt; stroke-linejoin: miter; marker: none; stroke-miterlimit: 4; stroke-dasharray: none; stroke-dashoffset: 0pt; stroke-opacity: 1; visibility: visible; display: inline; overflow: visible;"/>
        </g>
        <path sodipodi:type="arc" style="opacity: 1; fill: rgb(255, 255, 255); fill-opacity: 1; stroke: rgb(0, 0, 0); stroke-width: 0.0617434; stroke-linejoin: round; stroke-miterlimit: 4; stroke-dasharray: none; stroke-opacity: 1;" id="path6151" sodipodi:cx="-226.62999" sodipodi:cy="649.76709" sodipodi:rx="36.228111" sodipodi:ry="36.228111" d="M -190.40188,649.76709 A 36.228111,36.228111 0 1 1 -262.8581,649.76709 A 36.228111,36.228111 0 1 1 -190.40188,649.76709 z" transform="matrix(1.61961, 0, 0, 1.61961, 250.343, -377.189)"/>
        <g id="g5797">
          <path style="fill: none; fill-opacity: 0.75; fill-rule: evenodd; stroke: rgb(0, 0, 0); stroke-width: 0.2; stroke-linecap: butt; stroke-linejoin: miter; marker: none; stroke-miterlimit: 4; stroke-dasharray: none; stroke-dashoffset: 0pt; stroke-opacity: 1; visibility: visible; display: inline; overflow: visible;" d="M -175.27769,679.7882 L -58.139908,670.56926" id="path5597"/>
          <path id="path5599" d="M -174.73549,684.36925 L -58.682109,665.98821" style="fill: none; fill-opacity: 0.75; fill-rule: evenodd; stroke: rgb(0, 0, 0); stroke-width: 0.2; stroke-linecap: butt; stroke-linejoin: miter; marker: none; stroke-miterlimit: 4; stroke-dasharray: none; stroke-dashoffset: 0pt; stroke-opacity: 1; visibility: visible; display: inline; overflow: visible;"/>
          <path style="fill: none; fill-opacity: 0.75; fill-rule: evenodd; stroke: rgb(0, 0, 0); stroke-width: 0.2; stroke-linecap: butt; stroke-linejoin: miter; marker: none; stroke-miterlimit: 4; stroke-dasharray: none; stroke-dashoffset: 0pt; stroke-opacity: 1; visibility: visible; display: inline; overflow: visible;" d="M -173.83553,688.89364 L -59.582068,661.46382" id="path5601"/>
          <path id="path5603" d="M -172.58337,693.33347 L -60.834229,657.02399" style="fill: none; fill-opacity: 0.75; fill-rule: evenodd; stroke: rgb(0, 0, 0); stroke-width: 0.2; stroke-linecap: butt; stroke-linejoin: miter; marker: none; stroke-miterlimit: 4; stroke-dasharray: none; stroke-dashoffset: 0pt; stroke-opacity: 1; visibility: visible; display: inline; overflow: visible;"/>
          <path id="path5607" d="M -169.05544,701.85066 L -64.362166,648.5068" style="fill: none; fill-opacity: 0.75; fill-rule: evenodd; stroke: rgb(0, 0, 0); stroke-width: 0.2; stroke-linecap: butt; stroke-linejoin: miter; marker: none; stroke-miterlimit: 4; stroke-dasharray: none; stroke-dashoffset: 0pt; stroke-opacity: 1; visibility: visible; display: inline; overflow: visible;"/>
          <path style="fill: none; fill-opacity: 0.75; fill-rule: evenodd; stroke: rgb(0, 0, 0); stroke-width: 0.2; stroke-linecap: butt; stroke-linejoin: miter; marker: none; stroke-miterlimit: 4; stroke-dasharray: none; stroke-dashoffset: 0pt; stroke-opacity: 1; visibility: visible; display: inline; overflow: visible;" d="M -166.80141,705.87551 L -66.616188,644.48195" id="path5609"/>
          <path id="path5611" d="M -164.23855,709.7111 L -69.179048,640.64636" style="fill: none; fill-opacity: 0.75; fill-rule: evenodd; stroke: rgb(0, 0, 0); stroke-width: 0.2; stroke-linecap: butt; stroke-linejoin: miter; marker: none; stroke-miterlimit: 4; stroke-dasharray: none; stroke-dashoffset: 0pt; stroke-opacity: 1; visibility: visible; display: inline; overflow: visible;"/>
          <path style="fill: none; fill-opacity: 0.75; fill-rule: evenodd; stroke: rgb(0, 0, 0); stroke-width: 0.2; stroke-linecap: butt; stroke-linejoin: miter; marker: none; stroke-miterlimit: 4; stroke-dasharray: none; stroke-dashoffset: 0pt; stroke-opacity: 1; visibility: visible; display: inline; overflow: visible;" d="M -161.38266,713.33379 L -72.034946,637.02367" id="path5613"/>
          <path style="fill: none; fill-opacity: 0.75; fill-rule: evenodd; stroke: rgb(0, 0, 0); stroke-width: 0.2; stroke-linecap: butt; stroke-linejoin: miter; marker: none; stroke-miterlimit: 4; stroke-dasharray: none; stroke-dashoffset: 0pt; stroke-opacity: 1; visibility: visible; display: inline; overflow: visible;" d="M -140.77652,703.36155 L -78.535287,630.48645" id="path5617"/>
          <path id="path5619" d="M -138.58471,705.29522 L -82.158114,627.63069" style="fill: none; fill-opacity: 0.75; fill-rule: evenodd; stroke: rgb(0, 0, 0); stroke-width: 0.2; stroke-linecap: butt; stroke-linejoin: miter; marker: none; stroke-miterlimit: 4; stroke-dasharray: none; stroke-dashoffset: 0pt; stroke-opacity: 1; visibility: visible; display: inline; overflow: visible;"/>
          <path style="fill: none; fill-opacity: 0.75; fill-rule: evenodd; stroke: rgb(0, 0, 0); stroke-width: 0.2; stroke-linecap: butt; stroke-linejoin: miter; marker: none; stroke-miterlimit: 4; stroke-dasharray: none; stroke-dashoffset: 0pt; stroke-opacity: 1; visibility: visible; display: inline; overflow: visible;" d="M -137.4047,708.96163 L -85.995741,625.06987" id="path5621"/>
          <path id="path5623" d="M -133.99445,709.12061 L -90.01929,622.81455" style="fill: none; fill-opacity: 0.75; fill-rule: evenodd; stroke: rgb(0, 0, 0); stroke-width: 0.2; stroke-linecap: butt; stroke-linejoin: miter; marker: none; stroke-miterlimit: 4; stroke-dasharray: none; stroke-dashoffset: 0pt; stroke-opacity: 1; visibility: visible; display: inline; overflow: visible;"/>
          <path id="path5627" d="M -128.33966,711.01203 L -98.536128,619.28625" style="fill: none; fill-opacity: 0.75; fill-rule: evenodd; stroke: rgb(0, 0, 0); stroke-width: 0.2; stroke-linecap: butt; stroke-linejoin: miter; marker: none; stroke-miterlimit: 4; stroke-dasharray: none; stroke-dashoffset: 0pt; stroke-opacity: 1; visibility: visible; display: inline; overflow: visible;"/>
          <path style="fill: none; fill-opacity: 0.75; fill-rule: evenodd; stroke: rgb(0, 0, 0); stroke-width: 0.2; stroke-linecap: butt; stroke-linejoin: miter; marker: none; stroke-miterlimit: 4; stroke-dasharray: none; stroke-dashoffset: 0pt; stroke-opacity: 1; visibility: visible; display: inline; overflow: visible;" d="M -124.72036,708.61478 L -102.97316,618.03129" id="path5629"/>
          <path id="path5631" d="M -122.23937,710.20254 L -107.49847,617.13225" style="fill: none; fill-opacity: 0.75; fill-rule: evenodd; stroke: rgb(0, 0, 0); stroke-width: 0.2; stroke-linecap: butt; stroke-linejoin: miter; marker: none; stroke-miterlimit: 4; stroke-dasharray: none; stroke-dashoffset: 0pt; stroke-opacity: 1; visibility: visible; display: inline; overflow: visible;"/>
          <path style="fill: none; fill-opacity: 0.75; fill-rule: evenodd; stroke: rgb(0, 0, 0); stroke-width: 0.2; stroke-linecap: butt; stroke-linejoin: miter; marker: none; stroke-miterlimit: 4; stroke-dasharray: none; stroke-dashoffset: 0pt; stroke-opacity: 1; visibility: visible; display: inline; overflow: visible;" d="M -119.49794,710.84657 L -112.07979,616.59032" id="path5633"/>
          <path style="fill: none; fill-opacity: 0.75; fill-rule: evenodd; stroke: rgb(0, 0, 0); stroke-width: 0.2; stroke-linecap: butt; stroke-linejoin: miter; marker: none; stroke-miterlimit: 4; stroke-dasharray: none; stroke-dashoffset: 0pt; stroke-opacity: 1; visibility: visible; display: inline; overflow: visible;" d="M -113.9197,710.84643 L -121.33779,616.59032" id="path5637"/>
          <path id="path5639" d="M -111.3816,708.92452 L -125.92021,617.13115" style="fill: none; fill-opacity: 0.75; fill-rule: evenodd; stroke: rgb(0, 0, 0); stroke-width: 0.2; stroke-linecap: butt; stroke-linejoin: miter; marker: none; stroke-miterlimit: 4; stroke-dasharray: none; stroke-dashoffset: 0pt; stroke-opacity: 1; visibility: visible; display: inline; overflow: visible;"/>
          <path style="fill: none; fill-opacity: 0.75; fill-rule: evenodd; stroke: rgb(0, 0, 0); stroke-width: 0.2; stroke-linecap: butt; stroke-linejoin: miter; marker: none; stroke-miterlimit: 4; stroke-dasharray: none; stroke-dashoffset: 0pt; stroke-opacity: 1; visibility: visible; display: inline; overflow: visible;" d="M -108.08621,711.15302 L -130.4422,618.03351" id="path5641"/>
          <path id="path5643" d="M -105.89346,708.50683 L -134.88369,619.28401" style="fill: none; fill-opacity: 0.75; fill-rule: evenodd; stroke: rgb(0, 0, 0); stroke-width: 0.2; stroke-linecap: butt; stroke-linejoin: miter; marker: none; stroke-miterlimit: 4; stroke-dasharray: none; stroke-dashoffset: 0pt; stroke-opacity: 1; visibility: visible; display: inline; overflow: visible;"/>
          <path id="path5647" d="M -100.85154,706.31986 L -143.40096,622.81187" style="fill: none; fill-opacity: 0.75; fill-rule: evenodd; stroke: rgb(0, 0, 0); stroke-width: 0.2; stroke-linecap: butt; stroke-linejoin: miter; marker: none; stroke-miterlimit: 4; stroke-dasharray: none; stroke-dashoffset: 0pt; stroke-opacity: 1; visibility: visible; display: inline; overflow: visible;"/>
          <path style="fill: none; fill-opacity: 0.75; fill-rule: evenodd; stroke: rgb(0, 0, 0); stroke-width: 0.2; stroke-linecap: butt; stroke-linejoin: miter; marker: none; stroke-miterlimit: 4; stroke-dasharray: none; stroke-dashoffset: 0pt; stroke-opacity: 1; visibility: visible; display: inline; overflow: visible;" d="M -98.666233,704.63455 L -147.42615,625.06555" id="path5649"/>
          <path id="path5651" d="M -94.016375,706.41864 L -151.25828,627.63187" style="fill: none; fill-opacity: 0.75; fill-rule: evenodd; stroke: rgb(0, 0, 0); stroke-width: 0.2; stroke-linecap: butt; stroke-linejoin: miter; marker: none; stroke-miterlimit: 4; stroke-dasharray: none; stroke-dashoffset: 0pt; stroke-opacity: 1; visibility: visible; display: inline; overflow: visible;"/>
          <path style="fill: none; fill-opacity: 0.75; fill-rule: evenodd; stroke: rgb(0, 0, 0); stroke-width: 0.2; stroke-linecap: butt; stroke-linejoin: miter; marker: none; stroke-miterlimit: 4; stroke-dasharray: none; stroke-dashoffset: 0pt; stroke-opacity: 1; visibility: visible; display: inline; overflow: visible;" d="M -92.845281,703.12253 L -154.88255,630.48619" id="path5653"/>
          <path style="fill: none; fill-opacity: 0.75; fill-rule: evenodd; stroke: rgb(0, 0, 0); stroke-width: 0.2; stroke-linecap: butt; stroke-linejoin: miter; marker: none; stroke-miterlimit: 4; stroke-dasharray: none; stroke-dashoffset: 0pt; stroke-opacity: 1; visibility: visible; display: inline; overflow: visible;" d="M -72.034978,713.3338 L -161.38262,637.02366" id="path5657"/>
          <path id="path5659" d="M -69.179079,709.71111 L -164.23852,640.64635" style="fill: none; fill-opacity: 0.75; fill-rule: evenodd; stroke: rgb(0, 0, 0); stroke-width: 0.2; stroke-linecap: butt; stroke-linejoin: miter; marker: none; stroke-miterlimit: 4; stroke-dasharray: none; stroke-dashoffset: 0pt; stroke-opacity: 1; visibility: visible; display: inline; overflow: visible;"/>
          <path style="fill: none; fill-opacity: 0.75; fill-rule: evenodd; stroke: rgb(0, 0, 0); stroke-width: 0.2; stroke-linecap: butt; stroke-linejoin: miter; marker: none; stroke-miterlimit: 4; stroke-dasharray: none; stroke-dashoffset: 0pt; stroke-opacity: 1; visibility: visible; display: inline; overflow: visible;" d="M -66.616218,705.87552 L -166.80138,644.48194" id="path5661"/>
          <path id="path5663" d="M -64.362196,701.85067 L -169.05541,648.50679" style="fill: none; fill-opacity: 0.75; fill-rule: evenodd; stroke: rgb(0, 0, 0); stroke-width: 0.2; stroke-linecap: butt; stroke-linejoin: miter; marker: none; stroke-miterlimit: 4; stroke-dasharray: none; stroke-dashoffset: 0pt; stroke-opacity: 1; visibility: visible; display: inline; overflow: visible;"/>
          <path id="path5667" d="M -60.834258,693.33348 L -172.58334,657.02398" style="fill: none; fill-opacity: 0.75; fill-rule: evenodd; stroke: rgb(0, 0, 0); stroke-width: 0.2; stroke-linecap: butt; stroke-linejoin: miter; marker: none; stroke-miterlimit: 4; stroke-dasharray: none; stroke-dashoffset: 0pt; stroke-opacity: 1; visibility: visible; display: inline; overflow: visible;"/>
          <path style="fill: none; fill-opacity: 0.75; fill-rule: evenodd; stroke: rgb(0, 0, 0); stroke-width: 0.2; stroke-linecap: butt; stroke-linejoin: miter; marker: none; stroke-miterlimit: 4; stroke-dasharray: none; stroke-dashoffset: 0pt; stroke-opacity: 1; visibility: visible; display: inline; overflow: visible;" d="M -59.582096,688.89365 L -173.83551,661.46381" id="path5669"/>
          <path id="path5671" d="M -58.682137,684.36926 L -174.73547,665.9882" style="fill: none; fill-opacity: 0.75; fill-rule: evenodd; stroke: rgb(0, 0, 0); stroke-width: 0.2; stroke-linecap: butt; stroke-linejoin: miter; marker: none; stroke-miterlimit: 4; stroke-dasharray: none; stroke-dashoffset: 0pt; stroke-opacity: 1; visibility: visible; display: inline; overflow: visible;"/>
          <path style="fill: none; fill-opacity: 0.75; fill-rule: evenodd; stroke: rgb(0, 0, 0); stroke-width: 0.2; stroke-linecap: butt; stroke-linejoin: miter; marker: none; stroke-miterlimit: 4; stroke-dasharray: none; stroke-dashoffset: 0pt; stroke-opacity: 1; visibility: visible; display: inline; overflow: visible;" d="M -58.139935,679.78821 L -175.27767,670.56925" id="path5673"/>
          <path transform="matrix(1.19885, 0, 0, 1.19885, -63.6028, 140.676)" d="M 0.55720139,445.84766 A 44.854771,44.854771 0 1 1 -89.15234,445.84766 A 44.854771,44.854771 0 1 1 0.55720139,445.84766 z" sodipodi:ry="44.854771" sodipodi:rx="44.854771" sodipodi:cy="445.84766" sodipodi:cx="-44.297569" id="path2636" style="opacity: 1; fill: rgb(255, 255, 255); fill-opacity: 1; stroke: none; stroke-width: 0.0834136; stroke-linejoin: round; stroke-miterlimit: 4; stroke-dasharray: none; stroke-opacity: 1;" sodipodi:type="arc"/>
          <path style="fill: none; fill-opacity: 0.75; fill-rule: evenodd; stroke: rgb(0, 0, 0); stroke-width: 1.4; stroke-linecap: butt; stroke-linejoin: miter; marker: none; stroke-miterlimit: 4; stroke-dasharray: none; stroke-dashoffset: 0pt; stroke-opacity: 1; visibility: visible; display: inline; overflow: visible;" d="M -158.25133,716.72124 L -75.16627,633.63622" id="path5675"/>
          <path style="fill: none; fill-opacity: 0.75; fill-rule: evenodd; stroke: rgb(0, 0, 0); stroke-width: 1.4; stroke-linecap: butt; stroke-linejoin: miter; marker: none; stroke-miterlimit: 4; stroke-dasharray: none; stroke-dashoffset: 0pt; stroke-opacity: 1; visibility: visible; display: inline; overflow: visible;" d="M -116.70881,707.4428 L -116.70878,616.31651" id="path5677"/>
          <path style="fill: none; fill-opacity: 0.75; fill-rule: evenodd; stroke: rgb(0, 0, 0); stroke-width: 1.4; stroke-linecap: butt; stroke-linejoin: miter; marker: none; stroke-miterlimit: 4; stroke-dasharray: none; stroke-dashoffset: 0pt; stroke-opacity: 1; visibility: visible; display: inline; overflow: visible;" d="M -75.1663,716.72125 L -158.25129,633.63621" id="path5679"/>
          <path style="fill: none; fill-opacity: 0.75; fill-rule: evenodd; stroke: rgb(0, 0, 0); stroke-width: 1.4; stroke-linecap: butt; stroke-linejoin: miter; marker: none; stroke-miterlimit: 4; stroke-dasharray: none; stroke-dashoffset: 0pt; stroke-opacity: 1; visibility: visible; display: inline; overflow: visible;" d="M -175.4588,675.17873 L -57.9588,675.17873" id="path5691"/>
          <path id="path5773" d="M -170.98673,697.66137 L -62.430876,652.69609" style="fill: none; fill-opacity: 0.75; fill-rule: evenodd; stroke: rgb(0, 0, 0); stroke-width: 0.2; stroke-linecap: butt; stroke-linejoin: miter; marker: none; stroke-miterlimit: 4; stroke-dasharray: none; stroke-dashoffset: 0pt; stroke-opacity: 1; visibility: visible; display: inline; overflow: visible;"/>
          <path id="path5775" d="M -130.53735,708.59095 L -94.206938,620.88162" style="fill: none; fill-opacity: 0.75; fill-rule: evenodd; stroke: rgb(0, 0, 0); stroke-width: 0.161593; stroke-linecap: butt; stroke-linejoin: miter; marker: none; stroke-miterlimit: 4; stroke-dasharray: none; stroke-dashoffset: 0pt; stroke-opacity: 1; visibility: visible; display: inline; overflow: visible;"/>
          <path id="path5777" d="M -104.89957,703.72225 L -139.21511,620.87714" style="fill: none; fill-opacity: 0.75; fill-rule: evenodd; stroke: rgb(0, 0, 0); stroke-width: 0.152631; stroke-linecap: butt; stroke-linejoin: miter; marker: none; stroke-miterlimit: 4; stroke-dasharray: none; stroke-dashoffset: 0pt; stroke-opacity: 1; visibility: visible; display: inline; overflow: visible;"/>
          <path id="path5779" d="M -62.430906,697.66138 L -170.9867,652.69608" style="fill: none; fill-opacity: 0.75; fill-rule: evenodd; stroke: rgb(0, 0, 0); stroke-width: 0.2; stroke-linecap: butt; stroke-linejoin: miter; marker: none; stroke-miterlimit: 4; stroke-dasharray: none; stroke-dashoffset: 0pt; stroke-opacity: 1; visibility: visible; display: inline; overflow: visible;"/>
          <path sodipodi:type="arc" style="opacity: 1; fill: rgb(255, 255, 255); fill-opacity: 1; stroke: none; stroke-width: 0.0834136; stroke-linejoin: round; stroke-miterlimit: 4; stroke-dasharray: none; stroke-opacity: 1;" id="path5785" sodipodi:cx="-44.297569" sodipodi:cy="445.84766" sodipodi:rx="44.854771" sodipodi:ry="44.854771" d="M 0.55720139,445.84766 A 44.854771,44.854771 0 1 1 -89.15234,445.84766 A 44.854771,44.854771 0 1 1 0.55720139,445.84766 z" transform="matrix(1.12795, 0, 0, 1.12795, -66.7436, 172.287)"/>
        </g>
        <path style="font-size: 13.3035px; font-style: normal; font-weight: normal; fill: rgb(0, 0, 0); fill-opacity: 1; stroke: none; stroke-width: 1px; stroke-linecap: butt; stroke-linejoin: miter; stroke-opacity: 1; font-family: Bitstream Vera Sans;" d="M -146.14567,711.83236 C -146.53,712.00974 -146.97591,712.09843 -147.48341,712.09843 C -147.99092,712.09843 -148.43683,712.01221 -148.82115,711.83976 C -149.20055,711.6673 -149.51097,711.43572 -149.7524,711.14502 C -149.98891,710.85431 -150.18353,710.49462 -150.33628,710.06595 C -150.48409,709.63236 -150.58757,709.18152 -150.64669,708.71343 C -150.70089,708.24535 -150.72799,707.7206 -150.72799,707.13918 C -150.72799,705.33582 -150.46192,704.07938 -149.92978,703.36986 C -149.644,702.98061 -149.29171,702.68252 -148.87289,702.47556 C -148.45408,702.26863 -147.99092,702.16516 -147.48341,702.16515 C -146.93157,702.16516 -146.43392,702.28588 -145.99046,702.5273 C -145.54209,702.76874 -145.1824,703.11365 -144.9114,703.56202 C -144.46303,704.27647 -144.23884,705.4861 -144.23884,707.19092 C -144.23884,707.75755 -144.26841,708.26998 -144.32753,708.72821 C -144.38173,709.18645 -144.48274,709.6299 -144.63055,710.05856 C -144.77837,710.48723 -144.973,710.84692 -145.21443,711.13763 C -145.45094,711.42833 -145.76135,711.65991 -146.14567,711.83236 M -146.10133,707.14657 C -146.10133,706.43213 -146.13336,705.84086 -146.19741,705.37277 C -146.25654,704.90469 -146.35016,704.54993 -146.47826,704.30849 C -146.60637,704.06214 -146.74926,703.89461 -146.90693,703.80591 C -147.05968,703.71723 -147.25184,703.67289 -147.48341,703.67288 C -147.81354,703.67289 -148.07715,703.7739 -148.27423,703.9759 C -148.4664,704.17793 -148.61421,704.53269 -148.71768,705.04018 C -148.81623,705.54769 -148.8655,706.2449 -148.8655,707.13179 C -148.8655,707.81668 -148.83594,708.38577 -148.77681,708.83908 C -148.71769,709.28746 -148.62653,709.63236 -148.50335,709.87379 C -148.37524,710.1103 -148.23235,710.27536 -148.07468,710.36898 C -147.91208,710.45767 -147.715,710.50201 -147.48341,710.50201 C -146.94635,710.50201 -146.56695,710.21377 -146.34522,709.63729 C -146.27625,709.45498 -146.21958,709.12732 -146.17523,708.6543 C -146.12597,708.17637 -146.10133,707.67379 -146.10133,707.14657" id="text5841"/>
        <path style="font-size: 13.3035px; font-style: normal; font-weight: normal; fill: rgb(0, 0, 0); fill-opacity: 1; stroke: none; stroke-width: 1px; stroke-linecap: butt; stroke-linejoin: miter; stroke-opacity: 1; font-family: Bitstream Vera Sans;" d="M -162.1534,673.34091 L -164.415,673.34091 L -164.415,672.10664 C -162.78902,672.10664 -161.82328,671.54248 -161.51779,670.41413 L -160.29091,670.41413 L -160.29091,679.85223 L -162.1534,679.85223 L -162.1534,673.34091" id="text5845"/>
        <path style="font-size: 13.3035px; font-style: normal; font-weight: normal; fill: rgb(0, 0, 0); fill-opacity: 1; stroke: none; stroke-width: 1px; stroke-linecap: butt; stroke-linejoin: miter; stroke-opacity: 1; font-family: Bitstream Vera Sans;" d="M -144.48458,642.73351 C -144.48458,643.11784 -144.54371,643.47506 -144.66196,643.80518 C -144.78022,644.13531 -144.94035,644.42109 -145.14236,644.66252 C -145.34438,644.90396 -145.56857,645.13061 -145.81493,645.34248 C -146.06129,645.54942 -146.31997,645.74651 -146.59096,645.93374 C -146.86197,646.11605 -147.11818,646.29343 -147.35961,646.46588 C -147.60105,646.63834 -147.8277,646.83297 -148.03957,647.04976 C -148.24651,647.26163 -148.40172,647.47843 -148.50519,647.70015 L -144.51414,647.70015 L -144.51414,649.37048 L -150.92939,649.37048 C -150.88011,648.50329 -150.70273,647.81348 -150.39725,647.30105 C -150.09176,646.78369 -149.54237,646.24909 -148.74909,645.69724 C -148.02972,645.19466 -147.50743,644.79556 -147.18223,644.49992 C -146.85704,644.20429 -146.63778,643.9333 -146.52445,643.68693 C -146.4062,643.44057 -146.34707,643.13509 -146.34707,642.77047 C -146.34707,642.29746 -146.46532,641.92792 -146.70183,641.66184 C -146.93834,641.39085 -147.26353,641.25535 -147.67742,641.25534 C -148.10116,641.25535 -148.43129,641.4007 -148.66779,641.6914 C -148.89937,641.98212 -149.01516,642.38861 -149.01516,642.91089 L -149.01516,643.22131 L -150.79635,643.22131 C -150.80621,643.12277 -150.81113,643.01437 -150.81113,642.89611 C -150.81113,641.89589 -150.53767,641.11985 -149.99075,640.568 C -149.44383,640.01616 -148.68257,639.74023 -147.70698,639.74022 C -146.71661,639.74023 -145.93319,640.01123 -145.35669,640.55321 C -144.77529,641.09029 -144.48458,641.81705 -144.48458,642.73351" id="text5849"/>
        <path style="font-size: 13.3035px; font-style: normal; font-weight: normal; fill: rgb(0, 0, 0); fill-opacity: 1; stroke: none; stroke-width: 1px; stroke-linecap: butt; stroke-linejoin: miter; stroke-opacity: 1; font-family: Bitstream Vera Sans;" d="M -119.71784,630.22156 C -119.71784,629.73377 -119.64886,629.3051 -119.51089,628.93555 C -119.37293,628.56109 -119.20048,628.26792 -118.99353,628.05604 C -118.78659,627.84418 -118.54023,627.67173 -118.25445,627.53869 C -117.96375,627.40566 -117.69275,627.31943 -117.44146,627.28001 C -117.19017,627.23567 -116.92903,627.2135 -116.65803,627.21349 C -115.74157,627.2135 -115.01234,627.44508 -114.47034,627.90823 C -113.92835,628.37139 -113.65736,628.99715 -113.65735,629.7855 C -113.65736,630.21418 -113.7559,630.58864 -113.95298,630.90891 C -114.14515,631.22426 -114.46049,631.51742 -114.89901,631.78842 C -114.36688,632.04956 -113.97763,632.36737 -113.73126,632.74184 C -113.47998,633.11631 -113.35433,633.57947 -113.35433,634.13131 C -113.35433,635.04778 -113.65489,635.77947 -114.25601,636.32639 C -114.85221,636.87331 -115.65288,637.14677 -116.65803,637.14677 C -117.62377,637.14677 -118.39241,636.87085 -118.96397,636.319 C -119.53553,635.76715 -119.82377,635.02068 -119.8287,634.07958 L -118.01794,634.07958 C -117.96375,635.0601 -117.49812,635.55035 -116.62108,635.55035 C -116.21212,635.55035 -115.87707,635.41732 -115.61592,635.15125 C -115.34986,634.88025 -115.21682,634.54027 -115.21682,634.13131 C -115.21682,633.78641 -115.31044,633.48585 -115.49767,633.22963 C -115.67998,632.97342 -115.9288,632.80343 -116.24414,632.71966 C -116.50036,632.65561 -116.86251,632.62359 -117.3306,632.62358 L -117.3306,631.38192 L -117.168,631.38192 C -116.06923,631.38193 -115.51985,630.90645 -115.51984,629.95549 C -115.51985,629.56132 -115.62332,629.25829 -115.83026,629.04642 C -116.03228,628.82963 -116.31805,628.72123 -116.68759,628.72122 C -117.18032,628.72123 -117.51783,628.85673 -117.70014,629.12772 C -117.87752,629.39872 -117.9736,629.81507 -117.98838,630.37677 L -119.71784,630.37677 L -119.71784,630.22156" id="text5853"/>
        <path style="font-size: 13.3035px; font-style: normal; font-weight: normal; fill: rgb(0, 0, 0); fill-opacity: 1; stroke: none; stroke-width: 1px; stroke-linecap: butt; stroke-linejoin: miter; stroke-opacity: 1; font-family: Bitstream Vera Sans;" d="M -82.164948,645.73419 L -82.164948,647.27888 L -83.15532,647.27888 L -83.15532,649.37048 L -85.017811,649.37048 L -85.017811,647.27888 L -88.794529,647.27888 L -88.794529,645.71941 L -85.350399,639.93238 L -83.15532,639.93238 L -83.15532,645.73419 L -82.164948,645.73419 M -85.017811,645.73419 L -85.017811,641.70618 L -87.47896,645.73419 L -85.017811,645.73419" id="text5857"/>
        <path style="font-size: 13.3035px; font-style: normal; font-weight: normal; fill: rgb(0, 0, 0); fill-opacity: 1; stroke: none; stroke-width: 1px; stroke-linecap: butt; stroke-linejoin: miter; stroke-opacity: 1; font-family: Bitstream Vera Sans;" d="M -69.656709,670.26264 L -69.656709,671.93297 L -73.559072,671.93297 L -73.862096,673.89894 C -73.359522,673.51955 -72.815064,673.32985 -72.228721,673.32984 C -71.361534,673.32985 -70.654478,673.63287 -70.107551,674.23892 C -69.560635,674.84004 -69.287174,675.62347 -69.287168,676.5892 C -69.287174,677.60421 -69.602517,678.42706 -70.233195,679.05774 C -70.858958,679.68843 -71.67934,680.00377 -72.694344,680.00377 C -73.61081,680.00377 -74.35482,679.75002 -74.926377,679.24251 C -75.497935,678.73008 -75.793569,678.05998 -75.813277,677.2322 L -73.965568,677.2322 C -73.950788,677.61653 -73.832535,677.9097 -73.610808,678.11171 C -73.389085,678.3088 -73.076207,678.40735 -72.672171,678.40735 C -72.204089,678.40735 -71.834547,678.24968 -71.563546,677.93433 C -71.287626,677.61899 -71.149664,677.1854 -71.149659,676.63355 C -71.149664,676.05707 -71.285162,675.60869 -71.556155,675.28841 C -71.827156,674.96815 -72.199162,674.80801 -72.672171,674.80801 C -73.273296,674.80801 -73.669937,675.04699 -73.862096,675.52492 L -75.547207,675.52492 L -74.704652,670.26264 L -69.656709,670.26264" id="text5861"/>
        <path style="font-size: 13.3035px; font-style: normal; font-weight: normal; fill: rgb(0, 0, 0); fill-opacity: 1; stroke: none; stroke-width: 1px; stroke-linecap: butt; stroke-linejoin: miter; stroke-opacity: 1; font-family: Bitstream Vera Sans;" d="M -88.26611,705.43014 C -88.26611,702.0008 -87.10575,700.28613 -84.785025,700.28612 C -84.67663,700.28613 -84.570695,700.29106 -84.467219,700.3009 C -84.358825,700.30584 -84.215935,700.32555 -84.038551,700.36003 C -83.856248,700.39453 -83.688723,700.44134 -83.535974,700.50045 C -83.378308,700.55959 -83.210782,700.64828 -83.033397,700.76652 C -82.851095,700.88479 -82.693424,701.02521 -82.560383,701.1878 C -82.427354,701.34548 -82.304174,701.54996 -82.190841,701.80124 C -82.077522,702.04761 -81.998686,702.32354 -81.954334,702.62902 L -83.6764,702.62902 C -83.799585,702.32846 -83.949865,702.11413 -84.127241,701.98601 C -84.304625,701.85791 -84.541132,701.79386 -84.836761,701.79385 C -85.211234,701.79386 -85.526576,701.91211 -85.782788,702.14861 C -86.03408,702.38513 -86.201605,702.71525 -86.285365,703.13898 C -86.329713,703.34101 -86.356812,703.50114 -86.366665,703.61939 C -86.376521,703.73765 -86.388839,704.0456 -86.403619,704.54324 C -86.112915,704.23776 -85.827136,704.02343 -85.546282,703.90024 C -85.260506,703.77214 -84.920528,703.70808 -84.526346,703.70808 C -83.718286,703.70808 -83.060502,703.9914 -82.552992,704.55802 C -82.045495,705.12466 -81.791743,705.85882 -81.791736,706.76049 C -81.791743,707.78536 -82.082449,708.61806 -82.663855,709.2586 C -83.245273,709.89914 -84.004065,710.21941 -84.940233,710.21941 C -85.50194,710.21941 -86.016834,710.09623 -86.484918,709.84986 C -86.953006,709.6035 -87.322548,709.26106 -87.593544,708.82254 C -87.830051,708.44807 -88.002504,707.99477 -88.110902,707.46262 C -88.214374,706.93049 -88.26611,706.25299 -88.26611,705.43014 M -84.984578,705.16407 C -85.41325,705.16408 -85.763082,705.32668 -86.034077,705.65187 C -86.300149,705.97707 -86.433184,706.39835 -86.433182,706.9157 C -86.433184,707.41828 -86.300149,707.8297 -86.034077,708.14997 C -85.76801,708.46532 -85.423104,708.62299 -84.99936,708.62299 C -84.585477,708.62299 -84.243035,708.46039 -83.972033,708.13519 C -83.696114,707.80507 -83.558151,707.38872 -83.558146,706.88614 C -83.558151,706.36386 -83.688723,705.94751 -83.949861,705.63709 C -84.206081,705.32175 -84.550986,705.16408 -84.984578,705.16407" id="text5865"/>
        <path style="font-size: 9.93045px; font-style: normal; font-weight: normal; fill: rgb(0, 0, 0); fill-opacity: 1; stroke: none; stroke-width: 1px; stroke-linecap: butt; stroke-linejoin: miter; stroke-opacity: 1; font-family: Bitstream Vera Sans;" d="M -125.34703,698.32506 L -125.34703,700.97738 L -123.776,700.97738 C -123.2491,700.97738 -122.85957,700.86909 -122.60743,700.65251 C -122.35206,700.43269 -122.22437,700.09812 -122.22437,699.64879 C -122.22437,699.19624 -122.35206,698.86328 -122.60743,698.64993 C -122.85957,698.43335 -123.2491,698.32506 -123.776,698.32506 L -125.34703,698.32506 M -125.34703,695.34786 L -125.34703,697.52984 L -123.89722,697.52984 C -123.41881,697.52985 -123.06322,697.44095 -122.83048,697.26316 C -122.5945,697.08214 -122.47651,696.80737 -122.47651,696.43885 C -122.47651,696.07358 -122.5945,695.80043 -122.83048,695.6194 C -123.06322,695.43838 -123.41881,695.34787 -123.89722,695.34786 L -125.34703,695.34786 M -126.3265,694.54295 L -123.82449,694.54295 C -123.07777,694.54296 -122.50237,694.69812 -122.0983,695.00844 C -121.69423,695.31877 -121.4922,695.76002 -121.49219,696.33218 C -121.4922,696.77504 -121.59564,697.12739 -121.80252,697.38923 C -122.00941,697.65107 -122.31327,697.81431 -122.7141,697.87896 C -122.23246,697.98241 -121.85909,698.19899 -121.59402,698.52871 C -121.32572,698.8552 -121.19157,699.26412 -121.19156,699.75547 C -121.19157,700.40198 -121.41138,700.90141 -121.85101,701.25376 C -122.29064,701.60611 -122.91614,701.78229 -123.72751,701.78229 L -126.3265,701.78229 L -126.3265,694.54295 M -117.09913,695.50787 L -118.42772,699.11057 L -115.7657,699.11057 L -117.09913,695.50787 M -117.6519,694.54295 L -116.54151,694.54295 L -113.78252,701.78229 L -114.80078,701.78229 L -115.46022,699.92518 L -118.7235,699.92518 L -119.38294,701.78229 L -120.41575,701.78229 L -117.6519,694.54295 M -109.29733,698.38809 C -109.08722,698.45921 -108.88357,698.61114 -108.68638,698.84388 C -108.48596,699.07663 -108.28554,699.39665 -108.08512,699.80396 L -107.0911,701.78229 L -108.1433,701.78229 L -109.06943,699.92518 C -109.30865,699.44029 -109.54139,699.11865 -109.76767,698.96026 C -109.99072,698.80186 -110.2962,698.72267 -110.6841,698.72266 L -111.75085,698.72266 L -111.75085,701.78229 L -112.73032,701.78229 L -112.73032,694.54295 L -110.51924,694.54295 C -109.69171,694.54296 -109.07429,694.7159 -108.66698,695.06178 C -108.25968,695.40767 -108.05603,695.92973 -108.05602,696.62796 C -108.05603,697.08375 -108.1627,697.46196 -108.37605,697.76259 C -108.58617,698.06322 -108.89326,698.27172 -109.29733,698.38809 M -111.75085,695.34786 L -111.75085,697.91775 L -110.51924,697.91775 C -110.04729,697.91776 -109.69171,697.80947 -109.45249,697.59288 C -109.21006,697.37307 -109.08883,697.05143 -109.08883,696.62796 C -109.08883,696.2045 -109.21006,695.88609 -109.45249,695.67273 C -109.69171,695.45616 -110.04729,695.34787 -110.51924,695.34786 L -111.75085,695.34786" id="text5876"/>
        <path style="font-size: 6.37842px; font-style: normal; font-weight: normal; fill: rgb(0, 0, 0); fill-opacity: 1; stroke: none; stroke-width: 1px; stroke-linecap: butt; stroke-linejoin: miter; stroke-opacity: 1; font-family: Bitstream Vera Sans;" d="M -137.08829,655.693 L -136.15083,655.693 L -134.96422,658.8573 L -133.77138,655.693 L -132.83393,655.693 L -132.83393,660.3429 L -133.44748,660.3429 L -133.44748,656.25983 L -134.64655,659.44904 L -135.27878,659.44904 L -136.47785,656.25983 L -136.47785,660.3429 L -137.08829,660.3429 L -137.08829,655.693 M -130.0278,656.31278 L -130.88116,658.62683 L -129.17132,658.62683 L -130.0278,656.31278 M -130.38285,655.693 L -129.66964,655.693 L -127.89751,660.3429 L -128.55154,660.3429 L -128.97511,659.15006 L -131.07114,659.15006 L -131.49471,660.3429 L -132.15809,660.3429 L -130.38285,655.693 M -127.22167,655.693 L -126.37453,655.693 L -124.31276,659.58297 L -124.31276,655.693 L -123.70232,655.693 L -123.70232,660.3429 L -124.54946,660.3429 L -126.61123,656.45293 L -126.61123,660.3429 L -127.22167,660.3429 L -127.22167,655.693 M -120.56294,656.11968 C -121.01973,656.11969 -121.38309,656.28994 -121.65301,656.63046 C -121.92085,656.97097 -122.05477,657.43503 -122.05477,658.02262 C -122.05477,658.60814 -121.92085,659.07116 -121.65301,659.41167 C -121.38309,659.75219 -121.01973,659.92244 -120.56294,659.92244 C -120.10616,659.92244 -119.74488,659.75219 -119.47911,659.41167 C -119.21127,659.07116 -119.07735,658.60814 -119.07735,658.02262 C -119.07735,657.43503 -119.21127,656.97097 -119.47911,656.63046 C -119.74488,656.28994 -120.10616,656.11969 -120.56294,656.11968 M -120.56294,655.60891 C -119.91099,655.60892 -119.38983,655.82797 -118.99948,656.26606 C -118.60914,656.70209 -118.41397,657.28761 -118.41397,658.02262 C -118.41397,658.75556 -118.60914,659.34108 -118.99948,659.77918 C -119.38983,660.2152 -119.91099,660.43321 -120.56294,660.43321 C -121.21698,660.43321 -121.74021,660.2152 -122.13263,659.77918 C -122.52298,659.34315 -122.71815,658.75764 -122.71815,658.02262 C -122.71815,657.28761 -122.52298,656.70209 -122.13263,656.26606 C -121.74021,655.82797 -121.21698,655.60892 -120.56294,655.60891 M -117.42979,655.693 L -116.49234,655.693 L -115.30573,658.8573 L -114.11289,655.693 L -113.17544,655.693 L -113.17544,660.3429 L -113.78899,660.3429 L -113.78899,656.25983 L -114.98806,659.44904 L -115.62029,659.44904 L -116.81936,656.25983 L -116.81936,660.3429 L -117.42979,660.3429 L -117.42979,655.693 M -111.92342,655.693 L -108.98337,655.693 L -108.98337,656.22246 L -111.2943,656.22246 L -111.2943,657.59905 L -109.07992,657.59905 L -109.07992,658.12851 L -111.2943,658.12851 L -111.2943,659.81344 L -108.92731,659.81344 L -108.92731,660.3429 L -111.92342,660.3429 L -111.92342,655.693 M -108.53177,655.693 L -104.59821,655.693 L -104.59821,656.22246 L -106.24887,656.22246 L -106.24887,660.3429 L -106.88111,660.3429 L -106.88111,656.22246 L -108.53177,656.22246 L -108.53177,655.693 M -103.98777,655.693 L -101.04772,655.693 L -101.04772,656.22246 L -103.35865,656.22246 L -103.35865,657.59905 L -101.14427,657.59905 L -101.14427,658.12851 L -103.35865,658.12851 L -103.35865,659.81344 L -100.99166,659.81344 L -100.99166,660.3429 L -103.98777,660.3429 L -103.98777,655.693 M -97.746387,658.16277 C -97.61143,658.20845 -97.480623,658.30604 -97.353965,658.45553 C -97.225237,658.60503 -97.096506,658.81058 -96.967772,659.07219 L -96.329307,660.3429 L -97.005145,660.3429 L -97.600008,659.15006 C -97.753657,658.83861 -97.903151,658.63202 -98.04849,658.53028 C -98.191758,658.42854 -98.387969,658.37767 -98.637124,658.37767 L -99.322306,658.37767 L -99.322306,660.3429 L -99.951427,660.3429 L -99.951427,655.693 L -98.531232,655.693 C -97.9997,655.69301 -97.603125,655.80409 -97.341507,656.02625 C -97.079896,656.24842 -96.949088,656.58374 -96.949085,657.03222 C -96.949088,657.32498 -97.017607,657.56791 -97.154639,657.76101 C -97.289603,657.9541 -97.486852,658.08803 -97.746387,658.16277 M -99.322306,656.21 L -99.322306,657.86067 L -98.531232,657.86067 C -98.228093,657.86067 -97.9997,657.79111 -97.84605,657.652 C -97.69033,657.51081 -97.612468,657.30422 -97.612465,657.03222 C -97.612468,656.76023 -97.69033,656.55571 -97.84605,656.41867 C -97.9997,656.27956 -98.228093,656.21001 -98.531232,656.21 L -99.322306,656.21" id="text5880"/>
        <g id="g5901" transform="translate(-0.0903104)">
          <path id="text5886" d="M -133.87823,708.66935 L -133.87823,709.0724 C -134.03509,708.99739 -134.18308,708.94146 -134.3222,708.90463 C -134.46133,708.86781 -134.59568,708.8494 -134.72526,708.84939 C -134.95032,708.8494 -135.12422,708.89304 -135.24698,708.98034 C -135.36837,709.06763 -135.42907,709.19175 -135.42907,709.3527 C -135.42907,709.48774 -135.38883,709.59003 -135.30836,709.65959 C -135.22652,709.7278 -135.07239,709.78304 -134.84597,709.82532 L -134.59636,709.87647 C -134.28811,709.93512 -134.06101,710.03878 -133.91506,710.18745 C -133.76775,710.33476 -133.6941,710.53254 -133.69409,710.78078 C -133.6941,711.07676 -133.79367,711.30114 -133.9928,711.4539 C -134.19058,711.60667 -134.48111,711.68305 -134.86438,711.68305 C -135.00897,711.68305 -135.1631,711.66668 -135.32677,711.63395 C -135.48909,711.60121 -135.65754,711.55279 -135.83212,711.48868 L -135.83212,711.06312 C -135.66436,711.15724 -135.5,711.22817 -135.33905,711.2759 C -135.1781,711.32364 -135.01988,711.34751 -134.86438,711.34751 C -134.62842,711.34751 -134.44633,711.30114 -134.31811,711.20839 C -134.1899,711.11564 -134.12579,710.98333 -134.12579,710.81147 C -134.12579,710.66143 -134.17217,710.54413 -134.26492,710.45957 C -134.35631,710.375 -134.50702,710.31158 -134.71708,710.26929 L -134.96873,710.22019 C -135.27699,710.15881 -135.5,710.06265 -135.63776,709.93171 C -135.77552,709.80077 -135.8444,709.61868 -135.8444,709.38544 C -135.8444,709.11537 -135.7496,708.90259 -135.56001,708.7471 C -135.36906,708.59161 -135.10649,708.51386 -134.77232,708.51386 C -134.6291,708.51386 -134.48316,708.52682 -134.33448,708.55273 C -134.18581,708.57865 -134.03373,708.61752 -133.87823,708.66935 M -133.47313,708.5691 L -130.88908,708.5691 L -130.88908,708.91691 L -131.97344,708.91691 L -131.97344,711.62372 L -132.38877,711.62372 L -132.38877,708.91691 L -133.47313,708.91691 L -133.47313,708.5691 M -130.48807,708.5691 L -128.55668,708.5691 L -128.55668,708.91691 L -130.07479,708.91691 L -130.07479,709.82123 L -128.62011,709.82123 L -128.62011,710.16904 L -130.07479,710.16904 L -130.07479,711.2759 L -128.51986,711.2759 L -128.51986,711.62372 L -130.48807,711.62372 L -130.48807,708.5691 M -127.8365,708.5691 L -126.08107,708.5691 L -126.08107,708.91691 L -127.42322,708.91691 L -127.42322,709.81713 L -126.21201,709.81713 L -126.21201,710.16495 L -127.42322,710.16495 L -127.42322,711.62372 L -127.8365,711.62372 L -127.8365,708.5691 M -124.78597,708.97624 L -125.34657,710.49639 L -124.22334,710.49639 L -124.78597,708.97624 M -125.01921,708.5691 L -124.55069,708.5691 L -123.38654,711.62372 L -123.81619,711.62372 L -124.09444,710.84011 L -125.47137,710.84011 L -125.74962,711.62372 L -126.18541,711.62372 L -125.01921,708.5691 M -122.94256,708.5691 L -122.38606,708.5691 L -121.03163,711.1245 L -121.03163,708.5691 L -120.63063,708.5691 L -120.63063,711.62372 L -121.18713,711.62372 L -122.54155,709.06831 L -122.54155,711.62372 L -122.94256,711.62372 L -122.94256,708.5691 M -118.5683,708.84939 C -118.86837,708.8494 -119.10707,708.96124 -119.28438,709.18493 C -119.46034,709.40863 -119.54831,709.71347 -119.54831,710.09948 C -119.54831,710.48412 -119.46034,710.78828 -119.28438,711.01198 C -119.10707,711.23567 -118.86837,711.34751 -118.5683,711.34751 C -118.26822,711.34751 -118.03089,711.23567 -117.8563,711.01198 C -117.68035,710.78828 -117.59237,710.48412 -117.59237,710.09948 C -117.59237,709.71347 -117.68035,709.40863 -117.8563,709.18493 C -118.03089,708.96124 -118.26822,708.8494 -118.5683,708.84939 M -118.5683,708.51386 C -118.14001,708.51386 -117.79765,708.65776 -117.54122,708.94555 C -117.2848,709.23199 -117.15658,709.61663 -117.15658,710.09948 C -117.15658,710.58096 -117.2848,710.9656 -117.54122,711.2534 C -117.79765,711.53983 -118.14001,711.68305 -118.5683,711.68305 C -118.99795,711.68305 -119.34167,711.53983 -119.59946,711.2534 C -119.85589,710.96697 -119.9841,710.58232 -119.9841,710.09948 C -119.9841,709.61663 -119.85589,709.23199 -119.59946,708.94555 C -119.34167,708.65776 -118.99795,708.51386 -118.5683,708.51386 M -112.8887,708.80438 L -112.8887,709.24017 C -113.02783,709.1106 -113.1765,709.01376 -113.33472,708.94965 C -113.49158,708.88554 -113.65867,708.85349 -113.83598,708.85349 C -114.18516,708.85349 -114.4525,708.96056 -114.638,709.1747 C -114.8235,709.38748 -114.91625,709.69574 -114.91625,710.09948 C -114.91625,710.50185 -114.8235,710.81011 -114.638,711.02425 C -114.4525,711.23703 -114.18516,711.34342 -113.83598,711.34342 C -113.65867,711.34342 -113.49158,711.31137 -113.33472,711.24726 C -113.1765,711.18315 -113.02783,711.08631 -112.8887,710.95673 L -112.8887,711.38843 C -113.03329,711.48664 -113.18673,711.56029 -113.34905,711.6094 C -113.51,711.6585 -113.68049,711.68305 -113.86054,711.68305 C -114.32292,711.68305 -114.68711,711.54188 -114.95308,711.25954 C -115.21906,710.97583 -115.35204,710.58914 -115.35204,710.09948 C -115.35204,709.60845 -115.21906,709.22176 -114.95308,708.93942 C -114.68711,708.65571 -114.32292,708.51386 -113.86054,708.51386 C -113.67777,708.51386 -113.5059,708.53841 -113.34495,708.58751 C -113.18264,708.63525 -113.03056,708.70754 -112.8887,708.80438 M -112.24627,708.5691 L -111.83299,708.5691 L -111.83299,711.62372 L -112.24627,711.62372 L -112.24627,708.5691 M -111.05757,708.5691 L -110.64224,708.5691 L -110.64224,710.42478 C -110.64224,710.75214 -110.58291,710.98811 -110.46424,711.13269 C -110.34557,711.27591 -110.15325,711.34751 -109.88728,711.34751 C -109.62267,711.34751 -109.43103,711.27591 -109.31236,711.13269 C -109.1937,710.98811 -109.13437,710.75214 -109.13436,710.42478 L -109.13436,708.5691 L -108.71903,708.5691 L -108.71903,710.47593 C -108.71904,710.87421 -108.81792,711.17497 -109.0157,711.3782 C -109.21211,711.58144 -109.50264,711.68305 -109.88728,711.68305 C -110.27328,711.68305 -110.56517,711.58144 -110.76295,711.3782 C -110.95936,711.17497 -111.05757,710.87421 -111.05757,710.47593 L -111.05757,708.5691 M -106.49303,710.19154 C -106.40437,710.22155 -106.31844,710.28566 -106.23524,710.38387 C -106.15067,710.48207 -106.0661,710.61711 -105.98154,710.78897 L -105.56211,711.62372 L -106.00609,711.62372 L -106.39687,710.84011 C -106.4978,710.63552 -106.59601,710.4998 -106.69148,710.43297 C -106.7856,710.36613 -106.9145,710.33272 -107.07817,710.33272 L -107.52828,710.33272 L -107.52828,711.62372 L -107.94157,711.62372 L -107.94157,708.5691 L -107.00861,708.5691 C -106.65943,708.5691 -106.39891,708.64207 -106.22705,708.78801 C -106.05519,708.93396 -105.96926,709.15424 -105.96926,709.44886 C -105.96926,709.64118 -106.01427,709.80077 -106.10429,709.92762 C -106.19295,710.05447 -106.32253,710.14244 -106.49303,710.19154 M -107.52828,708.90873 L -107.52828,709.99309 L -107.00861,709.99309 C -106.80947,709.99309 -106.65943,709.94739 -106.5585,709.85601 C -106.4562,709.76326 -106.40505,709.62754 -106.40505,709.44886 C -106.40505,709.27018 -106.4562,709.13583 -106.5585,709.04581 C -106.65943,708.95442 -106.80947,708.90873 -107.00861,708.90873 L -107.52828,708.90873 M -105.02812,708.5691 L -104.61483,708.5691 L -104.61483,711.2759 L -103.12742,711.2759 L -103.12742,711.62372 L -105.02812,711.62372 L -105.02812,708.5691 M -102.69572,708.5691 L -100.76433,708.5691 L -100.76433,708.91691 L -102.28243,708.91691 L -102.28243,709.82123 L -100.82775,709.82123 L -100.82775,710.16904 L -102.28243,710.16904 L -102.28243,711.2759 L -100.7275,711.2759 L -100.7275,711.62372 L -102.69572,711.62372 L -102.69572,708.5691 M -98.804299,708.84939 C -99.104375,708.8494 -99.343071,708.96124 -99.520386,709.18493 C -99.69634,709.40863 -99.784316,709.71347 -99.784315,710.09948 C -99.784316,710.48412 -99.69634,710.78828 -99.520386,711.01198 C -99.343071,711.23567 -99.104375,711.34751 -98.804299,711.34751 C -98.504227,711.34751 -98.266895,711.23567 -98.092305,711.01198 C -97.916354,710.78828 -97.828378,710.48412 -97.828375,710.09948 C -97.828378,709.71347 -97.916354,709.40863 -98.092305,709.18493 C -98.266895,708.96124 -98.504227,708.8494 -98.804299,708.84939 M -98.804299,708.51386 C -98.376013,708.51386 -98.033656,708.65776 -97.777226,708.94555 C -97.520802,709.23199 -97.392588,709.61663 -97.392585,710.09948 C -97.392588,710.58096 -97.520802,710.9656 -97.777226,711.2534 C -98.033656,711.53983 -98.376013,711.68305 -98.804299,711.68305 C -99.233953,711.68305 -99.577674,711.53983 -99.835464,711.2534 C -100.09189,710.96697 -100.22011,710.58232 -100.22011,710.09948 C -100.22011,709.61663 -100.09189,709.23199 -99.835464,708.94555 C -99.577674,708.65776 -99.233953,708.51386 -98.804299,708.51386" style="font-size: 4.19013px; font-style: normal; font-weight: normal; fill: rgb(0, 0, 0); fill-opacity: 1; stroke: none; stroke-width: 1px; stroke-linecap: butt; stroke-linejoin: miter; stroke-opacity: 1; font-family: Bitstream Vera Sans;"/>
          <path id="text5890" d="M -138.63202,717.56086 L -136.87658,717.56086 L -136.87658,717.90867 L -138.21874,717.90867 L -138.21874,718.80889 L -137.00753,718.80889 L -137.00753,719.15671 L -138.21874,719.15671 L -138.21874,720.61548 L -138.63202,720.61548 L -138.63202,717.56086 M -134.76924,719.1833 C -134.68059,719.21331 -134.59466,719.27742 -134.51145,719.37563 C -134.42689,719.47383 -134.34232,719.60887 -134.25775,719.78073 L -133.83833,720.61548 L -134.2823,720.61548 L -134.67308,719.83187 C -134.77402,719.62728 -134.87223,719.49156 -134.9677,719.42473 C -135.06182,719.35789 -135.19071,719.32448 -135.35439,719.32448 L -135.8045,719.32448 L -135.8045,720.61548 L -136.21778,720.61548 L -136.21778,717.56086 L -135.28483,717.56086 C -134.93565,717.56086 -134.67513,717.63383 -134.50327,717.77977 C -134.33141,717.92572 -134.24548,718.146 -134.24548,718.44062 C -134.24548,718.63294 -134.29049,718.79253 -134.38051,718.91938 C -134.46917,719.04623 -134.59875,719.1342 -134.76924,719.1833 M -135.8045,717.90049 L -135.8045,718.98485 L -135.28483,718.98485 C -135.08569,718.98485 -134.93565,718.93916 -134.83471,718.84777 C -134.73242,718.75502 -134.68127,718.6193 -134.68127,718.44062 C -134.68127,718.26194 -134.73242,718.12759 -134.83471,718.03757 C -134.93565,717.94618 -135.08569,717.90049 -135.28483,717.90049 L -135.8045,717.90049 M -132.45526,717.968 L -133.01585,719.48815 L -131.89262,719.48815 L -132.45526,717.968 M -132.6885,717.56086 L -132.21997,717.56086 L -131.05582,720.61548 L -131.48547,720.61548 L -131.76373,719.83187 L -133.14066,719.83187 L -133.41891,720.61548 L -133.8547,720.61548 L -132.6885,717.56086 M -130.65891,717.56086 L -130.24357,717.56086 L -130.24357,719.41654 C -130.24358,719.7439 -130.18424,719.97987 -130.06558,720.12445 C -129.94691,720.26767 -129.75459,720.33927 -129.48861,720.33927 C -129.22401,720.33927 -129.03237,720.26767 -128.9137,720.12445 C -128.79504,719.97987 -128.7357,719.7439 -128.7357,719.41654 L -128.7357,717.56086 L -128.32037,717.56086 L -128.32037,719.46769 C -128.32037,719.86598 -128.41926,720.16673 -128.61703,720.36996 C -128.81345,720.5732 -129.10398,720.67481 -129.48861,720.67481 C -129.87462,720.67481 -130.16651,720.5732 -130.36429,720.36996 C -130.5607,720.16673 -130.65891,719.86598 -130.65891,719.46769 L -130.65891,717.56086 M -125.79565,719.15671 L -125.79565,720.27585 L -125.13276,720.27585 C -124.91043,720.27585 -124.74608,720.23016 -124.63968,720.13877 C -124.53193,720.04602 -124.47806,719.90485 -124.47805,719.71526 C -124.47806,719.5243 -124.53193,719.38381 -124.63968,719.29379 C -124.74608,719.2024 -124.91043,719.15671 -125.13276,719.15671 L -125.79565,719.15671 M -125.79565,717.90049 L -125.79565,718.82117 L -125.18391,718.82117 C -124.98204,718.82117 -124.83201,718.78366 -124.7338,718.70864 C -124.63423,718.63226 -124.58444,718.51632 -124.58444,718.36083 C -124.58444,718.2067 -124.63423,718.09145 -124.7338,718.01506 C -124.83201,717.93868 -124.98204,717.90049 -125.18391,717.90049 L -125.79565,717.90049 M -126.20894,717.56086 L -125.15322,717.56086 C -124.83814,717.56086 -124.59536,717.62633 -124.42486,717.75727 C -124.25436,717.88821 -124.16912,718.0744 -124.16911,718.31582 C -124.16912,718.50268 -124.21276,718.65136 -124.30005,718.76184 C -124.38735,718.87232 -124.51556,718.9412 -124.6847,718.96848 C -124.48146,719.01213 -124.32393,719.10351 -124.21208,719.24264 C -124.09887,719.3804 -124.04227,719.55294 -124.04226,719.76027 C -124.04227,720.03306 -124.13502,720.2438 -124.32051,720.39247 C -124.50602,720.54114 -124.76995,720.61548 -125.1123,720.61548 L -126.20894,720.61548 L -126.20894,717.56086 M -123.33641,717.56086 L -122.92312,717.56086 L -122.92312,720.26766 L -121.43571,720.26766 L -121.43571,720.61548 L -123.33641,720.61548 L -123.33641,717.56086 M -121.25566,717.56086 L -120.84033,717.56086 L -120.84033,719.41654 C -120.84033,719.7439 -120.781,719.97987 -120.66233,720.12445 C -120.54367,720.26767 -120.35135,720.33927 -120.08537,720.33927 C -119.82076,720.33927 -119.62913,720.26767 -119.51046,720.12445 C -119.39179,719.97987 -119.33246,719.7439 -119.33246,719.41654 L -119.33246,717.56086 L -118.91713,717.56086 L -118.91713,719.46769 C -118.91713,719.86598 -119.01602,720.16673 -119.21379,720.36996 C -119.41021,720.5732 -119.70073,720.67481 -120.08537,720.67481 C -120.47138,720.67481 -120.76327,720.5732 -120.96104,720.36996 C -121.15746,720.16673 -121.25566,719.86598 -121.25566,719.46769 L -121.25566,717.56086 M -115.85228,717.79614 L -115.85228,718.23193 C -115.9914,718.10236 -116.14008,718.00552 -116.2983,717.94141 C -116.45515,717.8773 -116.62224,717.84525 -116.79956,717.84525 C -117.14873,717.84525 -117.41607,717.95232 -117.60157,718.16646 C -117.78707,718.37924 -117.87982,718.6875 -117.87982,719.09124 C -117.87982,719.49361 -117.78707,719.80187 -117.60157,720.01601 C -117.41607,720.22879 -117.14873,720.33518 -116.79956,720.33518 C -116.62224,720.33518 -116.45515,720.30313 -116.2983,720.23902 C -116.14008,720.17492 -115.9914,720.07807 -115.85228,719.94849 L -115.85228,720.38019 C -115.99686,720.4784 -116.15031,720.55205 -116.31262,720.60116 C -116.47357,720.65026 -116.64406,720.67481 -116.82411,720.67481 C -117.2865,720.67481 -117.65068,720.53364 -117.91665,720.2513 C -118.18263,719.96759 -118.31561,719.5809 -118.31561,719.09124 C -118.31561,718.60021 -118.18263,718.21352 -117.91665,717.93118 C -117.65068,717.64747 -117.2865,717.50562 -116.82411,717.50562 C -116.64134,717.50562 -116.46948,717.53017 -116.30852,717.57927 C -116.14621,717.62701 -115.99413,717.6993 -115.85228,717.79614 M -115.20984,717.56086 L -114.79656,717.56086 L -114.79656,718.81299 L -113.29482,718.81299 L -113.29482,717.56086 L -112.88154,717.56086 L -112.88154,720.61548 L -113.29482,720.61548 L -113.29482,719.1608 L -114.79656,719.1608 L -114.79656,720.61548 L -115.20984,720.61548 L -115.20984,717.56086 M -112.05906,717.56086 L -110.12767,717.56086 L -110.12767,717.90867 L -111.64578,717.90867 L -111.64578,718.81299 L -110.1911,718.81299 L -110.1911,719.1608 L -111.64578,719.1608 L -111.64578,720.26766 L -110.09085,720.26766 L -110.09085,720.61548 L -112.05906,720.61548 L -112.05906,717.56086 M -107.95895,719.1833 C -107.8703,719.21331 -107.78437,719.27742 -107.70116,719.37563 C -107.6166,719.47383 -107.53203,719.60887 -107.44746,719.78073 L -107.02804,720.61548 L -107.47201,720.61548 L -107.86279,719.83187 C -107.96373,719.62728 -108.06194,719.49156 -108.15741,719.42473 C -108.25153,719.35789 -108.38042,719.32448 -108.5441,719.32448 L -108.99421,719.32448 L -108.99421,720.61548 L -109.40749,720.61548 L -109.40749,717.56086 L -108.47454,717.56086 C -108.12536,717.56086 -107.86484,717.63383 -107.69298,717.77977 C -107.52112,717.92572 -107.43519,718.146 -107.43519,718.44062 C -107.43519,718.63294 -107.4802,718.79253 -107.57022,718.91938 C -107.65888,719.04623 -107.78846,719.1342 -107.95895,719.1833 M -108.99421,717.90049 L -108.99421,718.98485 L -108.47454,718.98485 C -108.2754,718.98485 -108.12536,718.93916 -108.02442,718.84777 C -107.92213,718.75502 -107.87098,718.6193 -107.87098,718.44062 C -107.87098,718.26194 -107.92213,718.12759 -108.02442,718.03757 C -108.12536,717.94618 -108.2754,717.90049 -108.47454,717.90049 L -108.99421,717.90049 M -104.74679,719.15671 L -104.74679,720.27585 L -104.0839,720.27585 C -103.86158,720.27585 -103.69722,720.23016 -103.59082,720.13877 C -103.48307,720.04602 -103.4292,719.90485 -103.42919,719.71526 C -103.4292,719.5243 -103.48307,719.38381 -103.59082,719.29379 C -103.69722,719.2024 -103.86158,719.15671 -104.0839,719.15671 L -104.74679,719.15671 M -104.74679,717.90049 L -104.74679,718.82117 L -104.13505,718.82117 C -103.93318,718.82117 -103.78315,718.78366 -103.68494,718.70864 C -103.58537,718.63226 -103.53559,718.51632 -103.53558,718.36083 C -103.53559,718.2067 -103.58537,718.09145 -103.68494,718.01506 C -103.78315,717.93868 -103.93318,717.90049 -104.13505,717.90049 L -104.74679,717.90049 M -105.16008,717.56086 L -104.10436,717.56086 C -103.78928,717.56086 -103.5465,717.62633 -103.376,717.75727 C -103.2055,717.88821 -103.12026,718.0744 -103.12025,718.31582 C -103.12026,718.50268 -103.1639,718.65136 -103.25119,718.76184 C -103.33849,718.87232 -103.4667,718.9412 -103.63584,718.96848 C -103.43261,719.01213 -103.27507,719.10351 -103.16322,719.24264 C -103.05001,719.3804 -102.99341,719.55294 -102.9934,719.76027 C -102.99341,720.03306 -103.08616,720.2438 -103.27165,720.39247 C -103.45716,720.54114 -103.72109,720.61548 -104.06344,720.61548 L -105.16008,720.61548 L -105.16008,717.56086 M -102.28755,717.56086 L -100.35616,717.56086 L -100.35616,717.90867 L -101.87426,717.90867 L -101.87426,718.81299 L -100.41958,718.81299 L -100.41958,719.1608 L -101.87426,719.1608 L -101.87426,720.26766 L -100.31933,720.26766 L -100.31933,720.61548 L -102.28755,720.61548 L -102.28755,717.56086 M -99.63598,717.56086 L -97.704592,717.56086 L -97.704592,717.90867 L -99.222696,717.90867 L -99.222696,718.81299 L -97.768016,718.81299 L -97.768016,719.1608 L -99.222696,719.1608 L -99.222696,720.26766 L -97.667764,720.26766 L -97.667764,720.61548 L -99.63598,720.61548 L -99.63598,717.56086 M -95.535873,719.1833 C -95.447217,719.21331 -95.361286,719.27742 -95.278082,719.37563 C -95.193518,719.47383 -95.108951,719.60887 -95.024383,719.78073 L -94.60496,720.61548 L -95.048934,720.61548 L -95.439713,719.83187 C -95.540649,719.62728 -95.638855,719.49156 -95.734331,719.42473 C -95.828447,719.35789 -95.957343,719.32448 -96.121018,719.32448 L -96.57113,719.32448 L -96.57113,720.61548 L -96.984414,720.61548 L -96.984414,717.56086 L -96.051456,717.56086 C -95.70228,717.56086 -95.441761,717.63383 -95.269898,717.77977 C -95.098039,717.92572 -95.012109,718.146 -95.012107,718.44062 C -95.012109,718.63294 -95.05712,718.79253 -95.14714,718.91938 C -95.235801,719.04623 -95.365378,719.1342 -95.535873,719.1833 M -96.57113,717.90049 L -96.57113,718.98485 L -96.051456,718.98485 C -95.852317,718.98485 -95.70228,718.93916 -95.601344,718.84777 C -95.499048,718.75502 -95.447899,718.6193 -95.447897,718.44062 C -95.447899,718.26194 -95.499048,718.12759 -95.601344,718.03757 C -95.70228,717.94618 -95.852317,717.90049 -96.051456,717.90049 L -96.57113,717.90049" style="font-size: 4.19013px; font-style: normal; font-weight: normal; fill: rgb(0, 0, 0); fill-opacity: 1; stroke: none; stroke-width: 1px; stroke-linecap: butt; stroke-linejoin: miter; stroke-opacity: 1; font-family: Bitstream Vera Sans;"/>
          <path id="text5894" d="M -121.15541,715.77175 L -119.71301,715.77175 L -119.71301,716.11957 L -121.65258,716.11957 L -121.65258,715.77175 C -121.49572,715.60944 -121.28226,715.39189 -121.01219,715.11909 C -120.74076,714.84493 -120.57027,714.6683 -120.5007,714.58919 C -120.3684,714.44052 -120.27633,714.31503 -120.2245,714.21273 C -120.1713,714.10907 -120.14471,714.00745 -120.1447,713.90788 C -120.14471,713.74557 -120.20199,713.61327 -120.31656,713.51097 C -120.42978,713.40867 -120.57777,713.35752 -120.76054,713.35752 C -120.89012,713.35752 -121.0272,713.38003 -121.17178,713.42504 C -121.315,713.47005 -121.46844,713.53825 -121.63212,713.62963 L -121.63212,713.21226 C -121.46571,713.14542 -121.31022,713.09496 -121.16564,713.06085 C -121.02106,713.02676 -120.88875,713.00971 -120.76872,713.00971 C -120.45228,713.00971 -120.19995,713.08882 -120.01172,713.24704 C -119.82349,713.40526 -119.72938,713.61668 -119.72937,713.88129 C -119.72938,714.00677 -119.75325,714.12612 -119.80098,714.23933 C -119.84736,714.35118 -119.93261,714.48348 -120.05673,714.63625 C -120.09083,714.6758 -120.19926,714.79038 -120.38204,714.97997 C -120.56481,715.1682 -120.8226,715.43213 -121.15541,715.77175 M -117.95962,713.33706 C -118.1724,713.33706 -118.33266,713.44209 -118.44042,713.65214 C -118.54681,713.86083 -118.6,714.17522 -118.6,714.59533 C -118.6,715.01407 -118.54681,715.32846 -118.44042,715.53851 C -118.33266,715.7472 -118.1724,715.85155 -117.95962,715.85155 C -117.74547,715.85155 -117.58521,715.7472 -117.47882,715.53851 C -117.37106,715.32846 -117.31719,715.01407 -117.31718,714.59533 C -117.31719,714.17522 -117.37106,713.86083 -117.47882,713.65214 C -117.58521,713.44209 -117.74547,713.33706 -117.95962,713.33706 M -117.95962,713.00971 C -117.61726,713.00971 -117.35606,713.14542 -117.17601,713.41685 C -116.99461,713.68692 -116.9039,714.07975 -116.9039,714.59533 C -116.9039,715.10955 -116.99461,715.50237 -117.17601,715.7738 C -117.35606,716.04387 -117.61726,716.1789 -117.95962,716.1789 C -118.30198,716.1789 -118.56386,716.04387 -118.74527,715.7738 C -118.92531,715.50237 -119.01533,715.10955 -119.01533,714.59533 C -119.01533,714.07975 -118.92531,713.68692 -118.74527,713.41685 C -118.56386,713.14542 -118.30198,713.00971 -117.95962,713.00971 M -115.29168,713.33706 C -115.50446,713.33706 -115.66473,713.44209 -115.77248,713.65214 C -115.87887,713.86083 -115.93207,714.17522 -115.93207,714.59533 C -115.93207,715.01407 -115.87887,715.32846 -115.77248,715.53851 C -115.66473,715.7472 -115.50446,715.85155 -115.29168,715.85155 C -115.07754,715.85155 -114.91727,715.7472 -114.81088,715.53851 C -114.70313,715.32846 -114.64925,715.01407 -114.64925,714.59533 C -114.64925,714.17522 -114.70313,713.86083 -114.81088,713.65214 C -114.91727,713.44209 -115.07754,713.33706 -115.29168,713.33706 M -115.29168,713.00971 C -114.94933,713.00971 -114.68812,713.14542 -114.50808,713.41685 C -114.32667,713.68692 -114.23597,714.07975 -114.23596,714.59533 C -114.23597,715.10955 -114.32667,715.50237 -114.50808,715.7738 C -114.68812,716.04387 -114.94933,716.1789 -115.29168,716.1789 C -115.63404,716.1789 -115.89592,716.04387 -116.07733,715.7738 C -116.25738,715.50237 -116.3474,715.10955 -116.3474,714.59533 C -116.3474,714.07975 -116.25738,713.68692 -116.07733,713.41685 C -115.89592,713.14542 -115.63404,713.00971 -115.29168,713.00971 M -113.49533,716.05614 L -113.49533,715.67969 C -113.39166,715.72879 -113.28664,715.7663 -113.18025,715.79221 C -113.07386,715.81813 -112.96951,715.83109 -112.86722,715.83109 C -112.59442,715.83109 -112.38642,715.7397 -112.2432,715.55693 C -112.09862,715.37279 -112.0161,715.09386 -111.99564,714.72013 C -112.07475,714.83743 -112.175,714.92746 -112.29639,714.9902 C -112.41779,715.05294 -112.55214,715.08431 -112.69945,715.08431 C -113.00498,715.08431 -113.24708,714.99224 -113.42576,714.80811 C -113.60308,714.62261 -113.69174,714.36959 -113.69174,714.04905 C -113.69174,713.73534 -113.59899,713.48369 -113.41349,713.29409 C -113.22799,713.1045 -112.98111,713.00971 -112.67285,713.00971 C -112.31958,713.00971 -112.0502,713.14542 -111.86469,713.41685 C -111.67783,713.68692 -111.5844,714.07975 -111.5844,714.59533 C -111.5844,715.07681 -111.69897,715.46145 -111.92812,715.74925 C -112.1559,716.03568 -112.4628,716.1789 -112.8488,716.1789 C -112.95247,716.1789 -113.05749,716.16867 -113.16388,716.14821 C -113.27027,716.12775 -113.38075,716.09706 -113.49533,716.05614 M -112.67285,714.76105 C -112.48735,714.76105 -112.34072,714.69763 -112.23297,714.57077 C -112.12385,714.44393 -112.06929,714.27002 -112.06929,714.04905 C -112.06929,713.82946 -112.12385,713.65623 -112.23297,713.52938 C -112.34072,713.40117 -112.48735,713.33706 -112.67285,713.33706 C -112.85835,713.33706 -113.00566,713.40117 -113.11478,713.52938 C -113.22253,713.65623 -113.27641,713.82946 -113.27641,714.04905 C -113.27641,714.27002 -113.22253,714.44393 -113.11478,714.57077 C -113.00566,714.69763 -112.85835,714.76105 -112.67285,714.76105" style="font-size: 4.19013px; font-style: normal; font-weight: normal; fill: rgb(0, 0, 0); fill-opacity: 1; stroke: none; stroke-width: 1px; stroke-linecap: butt; stroke-linejoin: miter; stroke-opacity: 1; font-family: Bitstream Vera Sans;"/>
        </g>
        <path style="opacity: 1; fill: rgb(170, 0, 0); fill-opacity: 1; stroke: rgb(0, 0, 0); stroke-width: 0pt; stroke-linejoin: round; stroke-miterlimit: 4; stroke-dasharray: none; stroke-opacity: 1;" d="M -104.00445,653.23236 L -112.3025,665.42442 L -113.36211,666.97162 C -115.92066,665.92199 -118.93235,666.06895 -121.45436,667.64609 C -124.79093,669.73261 -126.22574,673.67096 -125.33418,677.29635 L -142.33746,689.47735 L -160.81122,702.72534 L -140.79653,691.94146 L -122.40144,681.98611 C -119.53215,684.37473 -115.36308,684.8087 -112.02653,682.72219 C -109.5099,681.14841 -108.05908,678.49518 -107.87773,675.74172 L -106.0228,675.46632 L -91.445058,673.31616 L -97.724756,663.27426 L -104.00445,653.23236 z" id="path5908" inkscape:transform-center-y="2.826709" inkscape:transform-center-x="9.409389"/>
        <path sodipodi:type="arc" style="opacity: 1; fill: rgb(200, 183, 183); fill-opacity: 1; stroke: none; stroke-width: 0pt; stroke-linejoin: round; stroke-miterlimit: 4; stroke-dasharray: none; stroke-opacity: 1;" id="path5783" sodipodi:cx="-152.24643" sodipodi:cy="759.98444" sodipodi:rx="8.884407" sodipodi:ry="8.884407" d="M -143.36202,759.98444 A 8.884407,8.884407 0 1 1 -161.13084,759.98444 A 8.884407,8.884407 0 1 1 -143.36202,759.98444 z" transform="matrix(0.617679, 0, 0, 0.617679, -22.6693, 205.752)"/>
        <path transform="matrix(0.146903, 0, 0, 0.146903, -94.3434, 563.535)" d="M -143.36202,759.98444 A 8.884407,8.884407 0 1 1 -161.13084,759.98444 A 8.884407,8.884407 0 1 1 -143.36202,759.98444 z" sodipodi:ry="8.884407" sodipodi:rx="8.884407" sodipodi:cy="759.98444" sodipodi:cx="-152.24643" id="path5915" style="opacity: 1; fill: rgb(0, 0, 0); fill-opacity: 1; stroke: none; stroke-width: 0pt; stroke-linejoin: round; stroke-miterlimit: 4; stroke-dasharray: none; stroke-opacity: 1;" sodipodi:type="arc"/>
      </g>
    </g>
  </g>
</svg>