<svg style="transform: fit(0 0 792 612)"     >
<!-- Creator: Aladdin Ghostscript 510 (svg) -->
<!-- CreationDate: 1999/08/19 21:54:29 -->
<!-- Page: 1 1 -->

<path id="p0" style="fill:none; stroke-miterlimit:10;" d="M0 0 L792 0 L792 612 L0 612 "/>
<rect style="fill:#ffffff; stroke:none" x="540" y="423" width="108" height="36"/>
<!-- image data -->
<!-- image data -->
<!-- image data -->
<!-- image data -->
<!-- image data -->
<!-- image data -->
<!-- image data -->
<path id="p1" style="fill:#0000ff; stroke-miterlimit:10;" fillrule="evenodd" d="M198 180 L266.4 180 L266.4 183.6 L201.6 183.6 L201.6 248.4 L266.4 248.4 L266.4 180 L270 180 L270 252 L198 252 L198 180 "/>
<rect style="fill:#ffffff; stroke:none" x="201.6" y="183.6" width="64.7998" height="64.7998"/>
<path id="p2" style="fill:#0000ff; stroke-miterlimit:10;" fillrule="evenodd" d="M204 216.84 L205.8 215.16 L258.72 215.16 L264 213.36 L264 216.84 L260.4 218.64 L205.8 218.64 L204 216.84 "/>
<path id="p3" style="fill:#0000ff; stroke-miterlimit:10;" fillrule="evenodd" d="M241.2 213.36 L246.6 213.36 L246.48 213.36 L247.2 213.24 L248.52 212.76 L248.88 212.28 L249 211.44 L248.4 210.36 L247.2 208.92 L242.76 204.48 L241.8 204.6 L228.84 207.24 L227.88 207.36 L227.16 208.08 L227.16 208.8 L227.64 209.4 L228.6 209.64 L229.2 209.64 L233.04 209.28 L237 208.92 L237.48 208.92 L237.6 209.04 L238.68 210 L239.76 211.08 L239.52 211.08 L237.48 210.72 L236.04 210.6 L234.96 210.72 L234 211.08 L233.04 211.92 L231.12 213.12 L230.88 213.36 L241.2 213.36 "/>
<path id="p4" style="fill:#0000ff; stroke-miterlimit:10;" fillrule="evenodd" d="M240.48 201.84 L240.24 200.76 L239.76 200.04 L238.92 199.44 L237.84 199.2 L236.88 199.44 L236.04 200.04 L235.44 200.76 L235.32 201.84 L235.44 202.8 L236.04 203.64 L236.88 204.24 L237.84 204.48 L238.92 204.24 L239.76 203.64 L240.24 202.8 L240.48 201.84 "/>
<path id="p5" style="fill:#0000ff; stroke-miterlimit:10;" fillrule="evenodd" d="M223.44 209.04 L240.48 226.08 L240.48 228 L245.28 232.8 L248.16 229.92 L243.36 225.12 L241.44 225.12 L224.4 208.08 L223.44 209.04 "/>
<path id="p6" style="fill:#0000ff; stroke-miterlimit:10;" fillrule="evenodd" d="M279 180 L347.4 180 L347.4 183.6 L282.6 183.6 L282.6 248.4 L347.4 248.4 L347.4 180 L351 180 L351 252 L279 252 L279 180 "/>
<rect style="fill:#ffffff; stroke:none" x="282.6" y="183.6" width="64.7998" height="64.7998"/>
<path id="p7" style="fill:#0000ff; stroke-miterlimit:10;" fillrule="evenodd" d="M283.44 216.96 L285.36 215.04 L340.92 215.04 L346.44 213.24 L346.44 216.96 L342.84 218.76 L285.36 218.76 L283.44 216.96 "/>
<path id="p8" style="fill:#0000ff; stroke-miterlimit:10;" fillrule="evenodd" d="M304.08 213.24 L309.72 213.24 L309.48 213.24 L310.32 213.12 L311.64 212.64 L312.12 212.04 L312.12 211.2 L311.64 210.12 L310.32 208.56 L305.64 203.88 L304.68 204 L297.84 205.44 L291 206.76 L290.04 207 L289.32 207.72 L289.2 208.44 L289.8 209.04 L290.76 209.28 L291.36 209.28 L295.44 208.92 L299.64 208.56 L300.12 208.56 L300.36 208.68 L301.32 209.76 L302.4 210.72 L302.52 210.84 L302.16 210.84 L300.12 210.48 L298.68 210.36 L297.48 210.48 L296.52 210.84 L295.44 211.68 L293.4 213 L293.16 213.24 L304.08 213.24 "/>
<path id="p9" style="fill:#0000ff; stroke-miterlimit:10;" fillrule="evenodd" d="M303.24 201.12 L303.12 200.04 L302.52 199.2 L301.68 198.6 L300.6 198.36 L299.52 198.6 L298.68 199.2 L298.08 200.04 L297.84 201.12 L298.08 202.2 L298.68 203.04 L299.52 203.64 L300.6 203.88 L301.68 203.64 L302.52 203.04 L303.12 202.2 L303.24 201.12 "/>
<path id="p10" style="fill:#0000ff; stroke-miterlimit:10;" fillrule="evenodd" d="M285.36 208.68 L303.36 226.56 L303.36 228.6 L308.28 233.64 L311.28 230.64 L306.24 225.6 L304.32 225.6 L286.32 207.6 L285.36 208.68 "/>
<path id="p11" style="fill:#0000ff; stroke-miterlimit:10;" fillrule="evenodd" d="M331.92 213.24 L337.56 213.24 L337.32 213.24 L338.16 213.12 L339.48 212.64 L339.96 212.04 L339.96 211.2 L339.36 210.12 L338.16 208.56 L333.96 204.48 L333.48 203.88 L332.4 204 L325.68 205.44 L318.84 206.76 L317.88 207 L317.04 207.72 L317.04 208.44 L317.64 209.04 L318.6 209.28 L319.2 209.28 L327.36 208.56 L327.96 208.56 L330.12 210.72 L330.36 210.84 L330 210.84 L327.96 210.48 L326.4 210.36 L325.2 210.48 L324.24 210.84 L323.28 211.68 L321.24 213 L321 213.24 L331.92 213.24 "/>
<path id="p12" style="fill:#0000ff; stroke-miterlimit:10;" fillrule="evenodd" d="M331.08 201.12 L330.84 200.04 L330.24 199.2 L329.4 198.6 L328.32 198.36 L327.24 198.6 L326.4 199.2 L325.8 200.04 L325.68 201.12 L325.8 202.2 L326.4 203.04 L327.24 203.64 L328.32 203.88 L329.4 203.64 L330.24 203.04 L330.84 202.2 L331.08 201.12 "/>
<path id="p13" style="fill:#0000ff; stroke-miterlimit:10;" fillrule="evenodd" d="M313.2 208.68 L331.08 226.56 L331.08 228.6 L336.12 233.64 L339.12 230.64 L334.08 225.6 L332.04 225.6 L314.16 207.6 L313.2 208.68 "/>
<path id="p14" style="fill:#0000ff; stroke-miterlimit:10;" fillrule="evenodd" d="M360 180 L428.4 180 L428.4 183.6 L363.6 183.6 L363.6 248.4 L428.4 248.4 L428.4 180 L432 180 L432 252 L360 252 L360 180 "/>
<rect style="fill:#ffffff; stroke:none" x="363.6" y="183.6" width="64.7998" height="64.7998"/>
<path id="p15" style="fill:#0000ff; stroke-miterlimit:10;" fillrule="evenodd" d="M365.64 216.48 L367.56 215.52 L423.48 215.52 L426.36 214.56 L426.36 216.48 L424.44 217.44 L367.56 217.44 L365.64 216.48 "/>
<path id="p16" style="fill:#0000ff; stroke-miterlimit:10;" fillrule="evenodd" d="M376.2 214.56 L379.08 214.56 L378.96 214.56 L380.04 214.32 L380.28 213.96 L380.4 213.6 L380.04 213 L379.44 212.16 L377.28 210.12 L377.04 209.76 L376.56 209.88 L372.96 210.6 L369.48 211.32 L369 211.44 L368.64 211.68 L368.64 212.16 L368.88 212.4 L369.48 212.52 L369.72 212.52 L371.76 212.4 L373.92 212.16 L374.16 212.16 L375.36 213.36 L375.24 213.36 L374.16 213.12 L372.84 213.12 L371.76 213.72 L370.8 214.44 L370.68 214.56 L376.2 214.56 "/>
<path id="p17" style="fill:#0000ff; stroke-miterlimit:10;" fillrule="evenodd" d="M375.84 208.44 L375.36 207.36 L374.4 207 L373.44 207.36 L372.96 208.44 L373.44 209.4 L374.4 209.76 L375.36 209.4 L375.84 208.44 "/>
<path id="p18" style="fill:#0000ff; stroke-miterlimit:10;" fillrule="evenodd" d="M366.6 212.28 L375.84 221.4 L375.84 222.48 L378.36 225 L379.92 223.44 L377.4 220.92 L376.32 220.92 L367.2 211.68 L366.6 212.28 "/>
<path id="p19" style="fill:#0000ff; stroke-miterlimit:10;" fillrule="evenodd" d="M390.36 214.56 L393.36 214.56 L393.24 214.56 L394.32 214.32 L394.56 213.96 L394.56 213.6 L394.32 213 L393.6 212.16 L391.2 209.76 L390.72 209.88 L383.76 211.32 L383.28 211.44 L382.8 211.68 L382.8 212.16 L383.16 212.4 L383.64 212.52 L383.88 212.52 L386.04 212.4 L388.08 212.16 L388.44 212.16 L388.44 212.28 L389.04 212.76 L389.52 213.36 L389.64 213.36 L389.52 213.36 L388.44 213.12 L387 213.12 L386.04 213.72 L384.96 214.44 L384.84 214.56 L390.36 214.56 "/>
<path id="p20" style="fill:#0000ff; stroke-miterlimit:10;" fillrule="evenodd" d="M390 208.44 L389.64 207.36 L388.56 207 L387.6 207.36 L387.24 208.44 L387.6 209.4 L388.56 209.76 L389.64 209.4 L390 208.44 "/>
<path id="p21" style="fill:#0000ff; stroke-miterlimit:10;" fillrule="evenodd" d="M380.88 212.28 L390 221.4 L390 222.48 L392.52 225 L394.08 223.44 L391.56 220.92 L390.48 220.92 L381.36 211.68 L380.88 212.28 "/>
<path id="p22" style="fill:#0000ff; stroke-miterlimit:10;" fillrule="evenodd" d="M404.64 214.56 L407.52 214.56 L407.4 214.56 L408.48 214.32 L408.72 213.96 L408.72 213.6 L408.48 213 L407.76 212.16 L405.36 209.76 L404.88 209.88 L397.92 211.32 L397.44 211.44 L397.08 211.68 L397.08 212.16 L397.32 212.4 L397.8 212.52 L398.16 212.52 L400.2 212.4 L402.36 212.16 L402.6 212.16 L403.8 213.36 L403.68 213.36 L402.6 213.12 L401.28 213.12 L400.2 213.72 L399.24 214.44 L399 214.56 L404.64 214.56 "/>
<path id="p23" style="fill:#0000ff; stroke-miterlimit:10;" fillrule="evenodd" d="M404.28 208.44 L403.8 207.36 L402.84 207 L401.88 207.36 L401.4 208.44 L401.88 209.4 L402.84 209.76 L403.8 209.4 L404.28 208.44 "/>
<path id="p24" style="fill:#0000ff; stroke-miterlimit:10;" fillrule="evenodd" d="M395.04 212.28 L404.28 221.4 L404.28 222.48 L406.8 225 L408.36 223.44 L405.72 220.92 L404.76 220.92 L395.52 211.68 L395.04 212.28 "/>
<path id="p25" style="fill:#0000ff; stroke-miterlimit:10;" fillrule="evenodd" d="M418.8 214.56 L421.68 214.56 L422.76 214.32 L423 213.96 L423 213.6 L422.64 213 L422.04 212.16 L419.88 210.12 L419.64 209.76 L419.16 209.88 L412.2 211.32 L411.6 211.44 L411.24 211.68 L411.24 212.16 L411.48 212.4 L412.08 212.52 L412.32 212.52 L414.48 212.4 L416.52 212.16 L416.88 212.16 L416.88 212.28 L417.48 212.76 L417.96 213.36 L418.08 213.36 L417.84 213.36 L416.88 213.12 L415.44 213.12 L414.48 213.72 L413.4 214.44 L413.28 214.56 L418.8 214.56 "/>
<path id="p26" style="fill:#0000ff; stroke-miterlimit:10;" fillrule="evenodd" d="M418.44 208.44 L418.08 207.36 L417 207 L416.04 207.36 L415.68 208.44 L416.04 209.4 L417 209.76 L418.08 209.4 L418.44 208.44 "/>
<path id="p27" style="fill:#0000ff; stroke-miterlimit:10;" fillrule="evenodd" d="M409.2 212.28 L418.44 221.4 L418.44 222.48 L420.96 225 L422.52 223.44 L420 220.92 L418.92 220.92 L409.8 211.68 L409.2 212.28 "/>
<path id="p28" style="fill:#0000ff; stroke-miterlimit:10;" fillrule="evenodd" d="M441 180 L509.4 180 L509.4 183.6 L444.6 183.6 L444.6 248.4 L509.4 248.4 L509.4 180 L513 180 L513 252 L441 252 L441 180 "/>
<rect style="fill:#ffffff; stroke:none" x="444.6" y="183.6" width="64.7998" height="64.7998"/>
<path id="p29" style="fill:#00ff00; stroke-miterlimit:10;" fillrule="evenodd" d="M470.64 213.12 L471.12 211.08 L472.08 209.4 L473.4 208.08 L475.2 206.76 L478.8 206.76 L478.92 207 L479.76 208.56 L480.48 210.24 L480.6 210.48 L486.12 210.48 L486.96 210.6 L487.68 210.96 L488.04 211.56 L488.16 212.28 L488.04 212.88 L487.68 213.48 L486.96 213.96 L486.12 214.08 L480.48 214.08 L480.36 213.96 L478.92 213.24 L478.8 213.12 L478.8 214.08 L478.92 214.92 L479.28 215.88 L479.64 216.72 L479.76 216.84 L485.28 216.96 L492.12 217.68 L499.8 219.12 L507.96 221.4 L499.8 223.68 L491.64 225.48 L483.6 226.44 L475.68 226.8 L467.88 226.44 L460.32 225.48 L453 223.68 L446.04 221.4 L448.92 220.08 L452.04 219.12 L458.64 217.68 L465.12 216.96 L470.64 216.84 L470.52 215.88 L470.64 213.12 "/>
<path id="p30" style="fill:#00ff00; stroke-miterlimit:10;" fillrule="evenodd" d="M480.6 202.68 L480.36 201.48 L479.76 200.4 L478.68 199.8 L477.48 199.44 L476.16 199.8 L475.2 200.4 L474.48 201.48 L474.24 202.68 L474.48 203.88 L475.2 204.96 L476.16 205.56 L477.48 205.92 L478.68 205.56 L479.76 204.96 L480.36 203.88 L480.6 202.68 "/>
<path id="p31" style="fill:#00ff00; stroke-miterlimit:10;" fillrule="evenodd" d="M496.56 196.08 L491.16 202.44 L490.92 205.92 L474.84 225.12 L471.48 225.96 L466.08 232.32 L470.28 235.92 L475.68 229.56 L475.92 226.08 L492 206.88 L495.36 206.04 L500.76 199.68 L496.56 196.08 "/>
<path id="p32" style="fill:#0000ff; stroke-miterlimit:10;" fillrule="evenodd" d="M594 180 L594 248.4 L590.4 248.4 L590.4 183.6 L525.6 183.6 L525.6 248.4 L594 248.4 L594 252 L522 252 L522 180 L594 180 "/>
<rect style="fill:#ffffff; stroke:none" x="525.6" y="183.6" width="64.7998" height="64.7998"/>
<path id="p33" style="fill:#0000ff; stroke-miterlimit:10;" fillrule="evenodd" d="M568.92 206.64 L569.04 206.88 L570.48 208.2 L571.8 209.64 L571.92 209.76 L571.92 222.24 L571.8 222.36 L570.48 223.8 L569.04 225.12 L568.92 225.36 L559.56 225.36 L558.48 225.12 L557.76 224.88 L557.4 224.28 L557.28 223.8 L557.4 223.2 L557.76 222.72 L558.48 222.36 L559.56 222.24 L568.08 222.24 L568.2 222.12 L568.44 221.76 L568.8 221.52 L568.92 221.4 L540.12 221.4 L538.56 221.28 L537.6 220.8 L537.36 220.2 L537.6 219.48 L538.2 218.76 L539.04 218.16 L540 217.68 L540.96 217.56 L541.8 217.44 L548.28 217.2 L554.76 216.84 L555.72 216.72 L555.72 215.16 L554.76 215.16 L541.8 214.44 L540.96 214.44 L540 214.32 L539.04 213.84 L538.32 213.24 L537.72 212.52 L537.6 211.8 L537.96 211.2 L539.04 210.72 L540.96 210.6 L568.92 210.6 L568.08 209.76 L559.56 209.76 L558.48 209.64 L557.76 209.28 L557.4 208.8 L557.28 208.2 L557.4 207.72 L557.76 207.12 L558.48 206.76 L559.56 206.64 L568.92 206.64 "/>
<path id="p34" style="fill:#0000ff; stroke-miterlimit:10;" fillrule="evenodd" d="M579.72 216.36 L579.72 217.08 L579.48 217.8 L579.24 218.16 L579.12 218.4 L578.88 218.76 L578.64 219 L578.28 219.24 L578.04 219.36 L577.68 219.6 L576.96 219.84 L575.52 219.84 L574.8 219.6 L574.56 219.36 L574.2 219.24 L573.96 219 L573.6 218.76 L573.48 218.4 L576.84 218.4 L576.84 214.32 L573.48 214.32 L573.6 214.08 L573.96 213.84 L574.2 213.6 L574.56 213.36 L574.8 213.24 L575.16 213 L575.52 213 L575.88 212.88 L576.6 212.88 L576.96 213 L577.32 213 L577.68 213.24 L578.04 213.36 L578.28 213.6 L578.64 213.84 L579.12 214.32 L579.24 214.68 L579.48 214.92 L579.72 215.64 L579.72 216.36 "/>
<path id="p35" style="fill:#0000ff; stroke-miterlimit:10;" fillrule="evenodd" d="M536.28 212.88 L532.44 212.88 L528.48 215.16 L530.88 215.16 L532.44 214.44 L537.84 214.44 L536.28 212.88 "/>
<path id="p36" style="fill:#0000ff; stroke-miterlimit:10;" fillrule="evenodd" d="M536.28 219.12 L532.44 219.12 L528.48 216.72 L530.88 216.72 L532.44 217.56 L537.84 217.56 L536.28 219.12 "/>
<rect style="fill:#0000ff; stroke:none" x="575.88" y="221.4" width="10.7998" height="0.839844"/>
<rect style="fill:#0000ff; stroke:none" x="575.88" y="210.6" width="7.7998" height="0.719971"/>
<rect style="fill:#0000ff; stroke:none" x="581.28" y="214.44" width="6.23999" height="0.719971"/>
<rect style="fill:#0000ff; stroke:none" x="581.28" y="217.56" width="3.83984" height="0.719971"/>
<path id="p37" style="fill:#0000ff; stroke-miterlimit:10;" fillrule="evenodd" d="M573.12 217.8 L572.76 216.72 L572.76 216 L573.12 214.92 L576.24 214.92 L576.24 217.8 L573.12 217.8 "/>
<path id="p38" style="fill:#ff0000; stroke-miterlimit:10;" fillrule="evenodd" d="M198 261 L266.4 261 L266.4 264.6 L201.6 264.6 L201.6 329.4 L266.4 329.4 L266.4 261 L270 261 L270 333 L198 333 L198 261 "/>
<rect style="fill:#ffffff; stroke:none" x="201.6" y="264.6" width="64.7998" height="64.7998"/>
<path id="p39" style="fill:#000000; stroke-miterlimit:10;" fillrule="evenodd" d="M234 282 L254.04 282 L258 285.96 L258 282.96 L261.96 282.96 L261.96 291 L258 291 L254.04 287.04 L254.04 294 L242.04 294 L242.04 285.96 L234 285.96 L234 282 "/>
<path id="p40" style="fill:#000000; stroke-miterlimit:10;" fillrule="evenodd" d="M242.04 294.96 L254.04 294.96 L255.96 306 L249 306 L249 303 L246.96 303 L246.96 306 L240 306 L242.04 294.96 "/>
<path id="p41" style="fill:#000000; stroke-miterlimit:10;" fillrule="evenodd" d="M242.04 306.96 L246 306.96 L246 318 L245.88 318.96 L245.4 319.68 L244.68 320.16 L243.96 320.28 L243.24 320.16 L242.64 319.68 L242.16 318.96 L242.04 318 L242.04 306.96 "/>
<path id="p42" style="fill:#000000; stroke-miterlimit:10;" fillrule="evenodd" d="M249.96 306.96 L254.04 306.96 L254.04 318 L253.8 318.96 L253.32 319.68 L252.72 320.16 L252 320.28 L251.28 320.16 L250.68 319.68 L250.2 318.96 L249.96 318 L249.96 306.96 "/>
<path id="p43" style="fill:#000000; stroke-miterlimit:10;" fillrule="evenodd" d="M225.96 284.04 L226.08 283.68 L226.08 283.2 L226.32 282.96 L226.44 282.6 L227.4 281.64 L227.88 281.52 L228.36 281.28 L228.72 281.16 L229.2 281.04 L230.76 281.04 L231.72 281.28 L232.2 281.52 L232.56 281.64 L232.92 282 L232.92 286.08 L232.2 286.56 L230.28 287.04 L229.8 287.04 L229.2 286.92 L228.72 286.8 L228.36 286.68 L227.88 286.56 L227.4 286.32 L227.04 286.08 L226.8 285.72 L226.44 285.48 L226.32 285.12 L226.08 284.76 L226.08 284.4 L225.96 284.04 "/>
<path id="p44" style="fill:#000000; stroke-miterlimit:10;" fillrule="evenodd" d="M260.04 275.04 L260.4 275.16 L260.76 275.16 L261.12 275.4 L261.48 275.52 L261.72 275.88 L262.08 276.12 L262.32 276.48 L262.56 276.96 L262.68 277.44 L262.8 277.8 L262.92 278.28 L263.04 278.88 L263.04 279.36 L262.56 281.28 L262.08 282 L258 282 L257.64 281.64 L257.52 281.28 L257.28 280.8 L257.04 279.84 L257.04 278.28 L257.16 277.8 L257.28 277.44 L257.52 276.96 L257.64 276.48 L258.6 275.52 L258.84 275.4 L259.2 275.16 L259.56 275.16 L260.04 275.04 "/>
<path id="p45" style="fill:#000000; stroke-miterlimit:10;" fillrule="evenodd" d="M252 276.96 L251.64 275.4 L250.8 274.2 L249.6 273.36 L248.04 273 L246.48 273.36 L245.16 274.2 L244.32 275.4 L243.96 276.96 L244.32 278.52 L245.16 279.84 L246.48 280.68 L248.04 281.04 L249.6 280.68 L250.8 279.84 L251.64 278.52 L252 276.96 "/>
<path id="p46" style="fill:#000000; stroke-miterlimit:10;" fillrule="evenodd" d="M216.96 282 L221.04 285.96 L221.04 282.96 L225 282.96 L225 291 L221.04 291 L216.96 287.04 L216.96 294 L207 294 L207 282 L216.96 282 "/>
<path id="p47" style="fill:#000000; stroke-miterlimit:10;" fillrule="evenodd" d="M207 306.96 L210.96 306.96 L210.96 318 L210.84 318.96 L210.36 319.68 L209.76 320.16 L209.04 320.28 L208.2 320.16 L207.6 319.68 L207.12 318.96 L207 318 L207 306.96 "/>
<path id="p48" style="fill:#000000; stroke-miterlimit:10;" fillrule="evenodd" d="M222.96 275.04 L223.32 275.16 L223.68 275.16 L224.04 275.4 L224.4 275.52 L225 276.12 L225.24 276.48 L225.72 277.44 L225.84 277.8 L225.96 278.28 L225.96 279.84 L225.72 280.8 L225.48 281.28 L225 282 L220.92 282 L220.44 281.28 L220.32 280.8 L220.08 280.32 L220.08 279.84 L219.96 279.36 L219.96 278.88 L220.08 278.28 L220.08 277.8 L220.32 277.44 L220.44 276.96 L220.68 276.48 L220.92 276.12 L221.28 275.88 L221.52 275.52 L221.88 275.4 L222.24 275.16 L222.6 275.16 L222.96 275.04 "/>
<path id="p49" style="fill:#000000; stroke-miterlimit:10;" fillrule="evenodd" d="M216 276.96 L215.64 275.4 L214.8 274.2 L213.6 273.36 L212.04 273 L210.48 273.36 L209.16 274.2 L208.32 275.4 L207.96 276.96 L208.32 278.52 L209.16 279.84 L210.48 280.68 L212.04 281.04 L213.6 280.68 L214.8 279.84 L215.64 278.52 L216 276.96 "/>
<path id="p50" style="fill:#000000; stroke-miterlimit:10;" fillrule="evenodd" d="M207 294.96 L216.96 294.96 L219 306 L213.96 306 L213.96 303 L213 303 L213 306 L204.96 306 L207 294.96 "/>
<path id="p51" style="fill:#000000; stroke-miterlimit:10;" fillrule="evenodd" d="M213 306.96 L216.96 306.96 L216.96 318 L216.84 318.96 L216.36 319.68 L215.76 320.16 L215.04 320.28 L214.2 320.16 L213.6 319.68 L213.12 318.96 L213 318 L213 306.96 "/>
<path id="p52" style="fill:#ff0000; stroke-miterlimit:10;" fillrule="evenodd" d="M279 261 L347.4 261 L347.4 264.6 L282.6 264.6 L282.6 329.4 L347.4 329.4 L347.4 261 L351 261 L351 333 L279 333 L279 261 "/>
<rect style="fill:#ffffff; stroke:none" x="282.6" y="264.6" width="64.7998" height="64.7998"/>
<path id="p53" style="fill:#000000; stroke-miterlimit:10;" fillrule="evenodd" d="M299.52 282.84 L330.48 282.84 L330.48 277.68 L338.16 277.68 L336.84 288 L326.52 290.52 L326.52 295.68 L308.52 295.68 L308.52 289.32 L299.52 290.52 L299.52 282.84 "/>
<path id="p54" style="fill:#000000; stroke-miterlimit:10;" fillrule="evenodd" d="M308.52 297 L327.84 297 L334.32 293.16 L334.32 295.68 L329.16 298.32 L334.32 300.84 L334.32 303.48 L327.84 299.52 L308.52 299.52 L308.52 297 "/>
<path id="p55" style="fill:#000000; stroke-miterlimit:10;" fillrule="evenodd" d="M330.48 276.48 L338.16 276.48 L338.16 273.84 L335.52 273.84 L335.4 272.64 L334.8 271.68 L333.96 271.2 L333 270.96 L332.04 271.2 L331.2 271.68 L330.6 272.64 L330.48 273.84 L330.48 276.48 "/>
<path id="p56" style="fill:#000000; stroke-miterlimit:10;" fillrule="evenodd" d="M298.32 282.84 L298.32 290.52 L295.68 290.52 L295.68 288 L294.48 287.76 L293.52 287.16 L293.04 286.32 L292.8 285.48 L293.04 284.52 L293.52 283.68 L294.48 283.08 L295.68 282.84 L298.32 282.84 "/>
<rect style="fill:#ffffff; stroke:none" x="315" y="285.48" width="5.15991" height="1.19995"/>
<rect style="fill:#ffffff; stroke:none" x="315" y="290.52" width="5.15991" height="1.31982"/>
<path id="p57" style="fill:#000000; stroke-miterlimit:10;" fillrule="evenodd" d="M322.68 276.48 L322.32 274.44 L321.24 272.76 L319.56 271.68 L317.52 271.32 L315.6 271.68 L313.92 272.76 L312.84 274.44 L312.48 276.48 L312.84 278.4 L313.92 280.08 L315.6 281.16 L317.52 281.52 L319.56 281.16 L321.24 280.08 L322.32 278.4 L322.68 276.48 "/>
<path id="p58" style="fill:#000000; stroke-miterlimit:10;" fillrule="evenodd" d="M317.52 300.84 L308.52 300.84 L308.04 301.32 L300.12 308.04 L299.52 308.52 L299.52 318.84 L299.88 320.52 L300.72 321.72 L302.04 322.44 L303.48 322.68 L304.8 322.44 L306.12 321.72 L306.96 320.52 L307.32 318.84 L309.84 318.84 L309.84 311.16 L310.32 310.8 L313.68 308.52 L317.04 306.36 L317.52 306 L318 306.36 L321.48 308.52 L324.84 310.8 L325.32 311.16 L325.32 318.84 L327.84 318.84 L328.2 320.52 L329.04 321.72 L330.24 322.44 L331.68 322.68 L333.12 322.44 L334.32 321.72 L335.28 320.52 L335.52 318.84 L335.52 308.52 L335.04 308.04 L327.12 301.32 L326.52 300.84 L317.52 300.84 "/>
<path id="p59" style="fill:#ff0000; stroke-miterlimit:10;" fillrule="evenodd" d="M360 261 L428.4 261 L428.4 264.6 L363.6 264.6 L363.6 329.4 L428.4 329.4 L428.4 261 L432 261 L432 333 L360 333 L360 261 "/>
<rect style="fill:#ffffff; stroke:none" x="363.6" y="264.6" width="64.7998" height="64.7998"/>
<path id="p60" style="fill:#000000; stroke-miterlimit:10;" fillrule="evenodd" d="M378 287.4 L384 287.4 L384.36 286.92 L387 283.8 L389.64 280.56 L390 280.2 L394.8 280.2 L395.04 280.68 L396.6 284.4 L398.16 288 L398.4 288.6 L398.64 288 L400.2 284.4 L401.76 280.68 L402 280.2 L408 280.2 L408.36 280.44 L411 282.6 L413.64 284.64 L414 285 L414.24 285.6 L415.2 289.8 L416.28 294 L416.4 294.6 L412.68 294.6 L412.56 295.8 L412.08 296.64 L411.24 297.12 L410.4 297.24 L409.56 297.12 L408.72 296.64 L408.24 295.8 L408 294.6 L408 287.4 L406.8 287.4 L406.8 294.6 L390 294.6 L390 288.6 L384 294.6 L378 294.6 L378 292.2 L376.8 291.96 L375.96 291.48 L375.36 290.64 L375.24 289.8 L375.36 288.84 L375.96 288.12 L376.8 287.52 L378 287.4 "/>
<path id="p61" style="fill:#000000; stroke-miterlimit:10;" fillrule="evenodd" d="M390 295.8 L406.8 295.8 L406.8 298.2 L402 298.2 L405.6 303 L403.2 303 L399.6 298.2 L398.4 299.4 L397.2 298.2 L394.8 303 L392.4 303 L394.8 298.2 L390 298.2 L390 295.8 "/>
<path id="p62" style="fill:#000000; stroke-miterlimit:10;" fillrule="evenodd" d="M391.2 299.4 L390 299.4 L389.64 300 L384.36 308.4 L384 309 L384 318.6 L384.24 320.64 L384.96 322.08 L385.92 322.92 L387 323.16 L388.08 322.92 L389.04 322.08 L389.76 320.64 L390 318.6 L393.6 318.6 L393.6 311.4 L393.84 311.04 L398.16 305.76 L398.4 305.4 L398.88 306.24 L406.32 317.76 L406.8 318.6 L409.2 318.6 L410.28 320.64 L411.48 322.08 L412.8 322.92 L414 323.16 L415.08 322.92 L415.68 322.08 L415.8 320.64 L415.2 318.6 L417.6 318.6 L417 317.4 L412.2 309 L407.52 300.6 L406.8 299.4 L404.4 299.4 L404.64 299.64 L407.76 303.96 L408 304.2 L401.88 304.2 L401.76 303.96 L400.8 302.52 L399.72 301.08 L399.6 300.84 L397.32 300.84 L397.2 301.08 L395.28 303.96 L395.16 304.2 L390 304.2 L392.4 299.4 L391.2 299.4 "/>
<path id="p63" style="fill:#000000; stroke-miterlimit:10;" fillrule="evenodd" d="M403.2 274.08 L402.84 272.28 L401.76 270.72 L400.32 269.76 L398.4 269.28 L396.48 269.76 L395.04 270.72 L393.96 272.28 L393.6 274.08 L393.96 276 L395.04 277.56 L396.48 278.52 L398.4 279 L400.32 278.52 L401.76 277.56 L402.84 276 L403.2 274.08 "/>
<path id="p64" style="fill:#0000ff; stroke-miterlimit:10;" fillrule="evenodd" d="M441 261 L509.4 261 L509.4 264.6 L444.6 264.6 L444.6 329.4 L509.4 329.4 L509.4 261 L513 261 L513 333 L441 333 L441 261 "/>
<rect style="fill:#ffffff; stroke:none" x="444.6" y="264.6" width="64.7998" height="64.7998"/>
<path id="p65" style="fill:#0000ff; stroke-miterlimit:10;" fillrule="evenodd" d="M473.04 293.88 L473.04 283.8 L473.4 283.68 L475.56 282.6 L477.72 281.4 L478.08 281.28 L493.08 281.28 L493.44 281.4 L495.6 282.6 L497.88 283.68 L498.12 283.8 L498.12 303.96 L497.88 305.16 L497.4 306 L496.56 306.6 L495.6 306.72 L494.76 306.6 L493.92 306 L493.32 305.16 L493.08 303.96 L493.08 288.84 L492.24 289.68 L486.24 295.8 L480.24 301.8 L479.28 302.64 L479.28 288.84 L478.08 288.84 L478.08 303.96 L477.84 305.16 L477.24 306 L476.52 306.6 L475.56 306.72 L474.6 306.6 L473.88 306 L473.28 305.16 L473.04 303.96 L473.04 293.88 "/>
<path id="p66" style="fill:#0000ff; stroke-miterlimit:10;" fillrule="evenodd" d="M471.84 297.6 L471.84 290.04 L470.88 289.56 L458.88 281.88 L457.92 281.28 L456.12 280.32 L454.56 280.2 L453.24 280.56 L452.16 281.4 L451.56 282.6 L451.44 283.92 L451.92 285.24 L453 286.32 L453.84 286.92 L467.04 295.8 L468 296.4 L468 298.92 L467.04 299.4 L453.84 307.08 L453 307.68 L451.8 308.76 L451.32 310.08 L451.2 311.4 L451.68 312.48 L452.64 313.44 L453.96 313.8 L455.76 313.68 L457.92 312.72 L458.88 312.24 L464.88 308.88 L470.88 305.64 L471.84 305.16 L471.84 297.6 "/>
<path id="p67" style="fill:#0000ff; stroke-miterlimit:10;" fillrule="evenodd" d="M473.04 308.88 L498.12 308.88 L498.12 324 L468 324 L468 313.92 L473.04 308.88 "/>
<path id="p68" style="fill:#0000ff; stroke-miterlimit:10;" fillrule="evenodd" d="M493.08 275.04 L492.72 273.12 L491.64 271.44 L490.08 270.36 L488.16 270 L486.12 270.36 L484.56 271.44 L483.48 273.12 L483.12 275.04 L483.48 276.96 L484.56 278.52 L486.12 279.6 L488.16 280.08 L490.08 279.6 L491.64 278.52 L492.72 276.96 L493.08 275.04 "/>
<path id="p69" style="fill:#0000ff; stroke-miterlimit:10;" fillrule="evenodd" d="M522 261 L590.4 261 L590.4 264.6 L525.6 264.6 L525.6 329.4 L590.4 329.4 L590.4 261 L594 261 L594 333 L522 333 L522 261 "/>
<rect style="fill:#ffffff; stroke:none" x="525.6" y="264.6" width="64.7998" height="64.7998"/>
<path id="p70" style="fill:#0000ff; stroke-miterlimit:10;" fillrule="evenodd" d="M571.08 279.48 L563.64 279.48 L563.4 279.96 L561.96 283.92 L560.52 288 L560.28 288.48 L554.64 288.48 L554.64 293.04 L562.56 293.04 L562.68 292.68 L563.64 290.16 L564.6 287.76 L564.84 287.4 L564.84 299.88 L564.48 300.48 L562.56 305.52 L560.52 310.44 L560.28 311.16 L560.28 322.44 L560.52 324 L561.12 324.96 L562.08 325.68 L563.04 325.92 L564.12 325.68 L565.08 324.96 L565.68 324 L565.92 322.44 L565.92 313.44 L566.16 312.96 L567.6 309.48 L569.16 306 L569.28 305.52 L571.56 305.52 L571.8 306 L573.24 309.48 L574.8 312.96 L575.04 313.44 L575.04 322.44 L575.28 324 L575.88 324.96 L576.72 325.68 L577.8 325.92 L578.88 325.68 L579.72 324.96 L580.44 324 L580.68 322.44 L580.68 312.24 L580.44 311.52 L579 306 L577.44 300.6 L577.2 299.88 L577.2 285.12 L577.44 285.36 L579 287.4 L580.44 289.32 L580.68 289.68 L580.44 289.8 L579 291.36 L577.44 292.8 L577.2 293.04 L577.2 298.68 L585.72 290.16 L586.32 289.68 L585.84 288.96 L578.88 280.08 L578.4 279.48 L571.08 279.48 "/>
<path id="p71" style="fill:#0000ff; stroke-miterlimit:10;" fillrule="evenodd" d="M570.48 267 L570.48 278.28 L569.64 278.16 L568.92 277.8 L568.44 277.32 L567.96 276.6 L567.24 274.68 L567.12 272.64 L567.24 270.6 L567.96 268.8 L568.44 268.08 L568.92 267.48 L569.64 267.12 L570.48 267 "/>
<path id="p72" style="fill:#0000ff; stroke-miterlimit:10;" fillrule="evenodd" d="M553.2 287.4 L553.2 294.12 L551.76 293.88 L550.8 293.16 L550.2 291.96 L549.96 290.76 L550.2 289.56 L550.8 288.48 L551.76 287.64 L553.2 287.4 "/>
<path id="p73" style="fill:#0000ff; stroke-miterlimit:10;" fillrule="evenodd" d="M571.56 268.08 L571.56 277.2 L573.84 276.84 L575.4 275.76 L576.36 274.32 L576.72 272.64 L576.36 270.96 L575.4 269.52 L573.84 268.56 L571.56 268.08 "/>
<rect style="fill:#0000ff; stroke:none" x="529.68" y="290.64" width="20.6399" height="0.359863"/>
<path id="p74" style="fill:#ff0000; stroke-miterlimit:10;" fillrule="evenodd" d="M198 342 L266.4 342 L266.4 345.6 L201.6 345.6 L201.6 410.4 L266.4 410.4 L266.4 342 L270 342 L270 414 L198 414 L198 342 "/>
<rect style="fill:#ffffff; stroke:none" x="201.6" y="345.6" width="64.7998" height="64.7998"/>
<path id="p75" style="fill:#0000ff; stroke-miterlimit:10;" fillrule="evenodd" d="M237.12 372.24 L245.52 372.24 L245.4 370.68 L244.92 369.48 L244.2 368.4 L243.48 367.44 L241.32 365.88 L239.28 367.44 L238.44 368.4 L237.84 369.48 L237.36 370.68 L237.12 372.24 "/>
<path id="p76" style="fill:#0000ff; stroke-miterlimit:10;" fillrule="evenodd" d="M215.04 360.6 L220.32 360.6 L220.92 360 L221.76 359.4 L224.04 359.04 L226.2 359.4 L227.04 360 L227.64 360.6 L236.04 360.6 L237.96 359.4 L240.36 359.04 L242.64 359.4 L244.56 360.6 L248.76 360.6 L248.76 373.32 L248.64 373.44 L247.68 374.28 L246.6 375.36 L246.6 372.12 L246.36 369.96 L245.76 368.4 L244.56 366.96 L244.56 364.8 L240.36 364.8 L238.2 366.6 L236.76 368.52 L235.92 370.56 L235.56 372.72 L235.92 374.88 L236.76 376.92 L238.2 378.96 L240.36 380.64 L240.6 381.24 L242.4 385.32 L244.2 389.52 L244.56 390.12 L252.96 390.12 L254.28 390.36 L255.36 391.08 L255.84 392.16 L256.08 393.24 L255.84 394.44 L255.36 395.4 L254.28 396.12 L252.96 396.36 L240.36 396.36 L239.88 395.64 L233.4 385.56 L232.92 384.84 L231.84 384.84 L231.84 402.72 L231.6 404.52 L230.76 405.72 L229.56 406.44 L228.24 406.68 L226.8 406.44 L225.72 405.72 L224.88 404.52 L224.52 402.72 L224.52 377.52 L224.4 376.68 L224.04 371.16 L223.56 365.64 L223.44 364.8 L210.84 364.8 L210.84 360.6 L210.96 359.28 L211.32 358.32 L211.92 357.72 L212.52 357.48 L213.24 357.72 L213.96 358.32 L214.56 359.28 L215.04 360.6 "/>
<path id="p77" style="fill:#0000ff; stroke-miterlimit:10;" fillrule="evenodd" d="M237.12 373.32 L245.52 373.32 L245.4 374.76 L244.92 376.08 L244.2 377.16 L243.48 378 L241.32 379.56 L239.28 378 L238.44 377.16 L237.84 376.08 L237.36 374.76 L237.12 373.32 "/>
<path id="p78" style="fill:#0000ff; stroke-miterlimit:10;" fillrule="evenodd" d="M231.96 348 L232.8 348.12 L233.52 348.24 L234.36 348.6 L235.08 349.08 L235.68 349.56 L236.28 350.28 L236.76 351 L237 351.72 L237.24 352.56 L237.24 354.24 L237 355.08 L236.76 355.8 L236.28 356.52 L235.68 357.24 L235.08 357.72 L234.36 358.2 L233.52 358.56 L232.8 358.68 L231.96 358.8 L226.32 358.8 L225.6 355.44 L231.96 355.44 L231.96 351.72 L226.8 351.72 L227.52 350.28 L228.12 349.56 L228.72 349.08 L229.44 348.6 L230.28 348.24 L231.96 348 "/>
<rect style="fill:#0000ff; stroke:none" x="227.4" y="352.2" width="3.95996" height="2.75977"/>
<path id="p79" style="fill:#ff0000; stroke-miterlimit:10;" fillrule="evenodd" d="M279 342 L347.4 342 L347.4 345.6 L282.6 345.6 L282.6 410.4 L347.4 410.4 L347.4 342 L351 342 L351 414 L279 414 L279 342 "/>
<rect style="fill:#ffffff; stroke:none" x="282.6" y="345.6" width="64.7998" height="64.7998"/>
<path id="p80" style="fill:#0000ff; stroke-miterlimit:10;" fillrule="evenodd" d="M309.48 357.36 L309.48 356.76 L309.84 354.96 L310.92 353.64 L312.36 352.92 L313.92 352.68 L315.48 352.92 L316.92 353.64 L317.88 354.96 L318.36 356.76 L322.68 356.76 L322.68 357.84 L309.48 357.84 L309.48 357.36 "/>
<path id="p81" style="fill:#0000ff; stroke-miterlimit:10;" fillrule="evenodd" d="M309.48 358.68 L318.36 358.68 L317.88 360.84 L316.92 362.4 L315.48 363.36 L313.92 363.6 L312.36 363.36 L310.92 362.4 L309.84 360.84 L309.48 358.68 "/>
<path id="p82" style="fill:#0000ff; stroke-miterlimit:10;" fillrule="evenodd" d="M307.44 365.16 L306.96 365.4 L303.24 367.32 L299.4 369.12 L297.96 370.2 L297.36 371.04 L297.24 371.76 L297.36 372.36 L297.96 373.32 L298.92 373.68 L307.44 373.68 L307.44 383.4 L307.08 384.36 L304.32 391.44 L301.44 398.4 L301.08 399.48 L300.24 401.88 L300.24 403.8 L300.84 405 L301.92 405.6 L303.24 405.48 L304.68 404.52 L306.12 402.96 L307.44 400.44 L307.92 399.72 L310.68 394.08 L313.56 388.44 L313.92 387.6 L314.28 388.44 L317.16 394.08 L319.92 399.72 L320.4 400.44 L321.72 402.96 L323.16 404.52 L324.6 405.48 L325.92 405.6 L327 405 L327.6 403.8 L327.6 401.88 L326.76 399.48 L326.4 398.4 L323.52 391.44 L320.76 384.36 L320.4 383.4 L320.4 373.68 L322.44 373.68 L324 373.44 L324.6 373.2 L325.08 372.72 L325.2 372.24 L325.08 371.4 L324.48 370.56 L323.52 369.48 L323.4 369.12 L321.96 367.32 L320.52 365.4 L320.4 365.16 L307.44 365.16 "/>
<path id="p83" style="fill:#0000ff; stroke-miterlimit:10;" fillrule="evenodd" d="M302.28 366.24 L302.52 366.12 L303.36 365.64 L304.32 365.16 L304.44 365.16 L304.08 364.32 L301.2 358.2 L298.44 352.08 L298.08 351.24 L297.24 350.28 L296.28 349.8 L295.44 349.68 L294.6 349.92 L294 350.4 L293.64 351.24 L293.52 352.2 L293.76 353.4 L294.24 354.12 L298.08 359.76 L301.8 365.4 L302.28 366.24 "/>
<path id="p84" style="fill:#0000ff; stroke-miterlimit:10;" fillrule="evenodd" d="M337.44 371.52 L337.32 370.68 L336.84 370.08 L336.24 369.6 L335.4 369.48 L334.56 369.6 L333.84 370.08 L333.36 370.68 L333.24 371.52 L333.36 372.36 L333.84 373.08 L334.56 373.56 L335.4 373.68 L336.24 373.56 L336.84 373.08 L337.32 372.36 L337.44 371.52 "/>
<path id="p85" style="fill:#0000ff; stroke-miterlimit:10;" fillrule="evenodd" d="M360 342 L428.4 342 L428.4 345.6 L363.6 345.6 L363.6 410.4 L428.4 410.4 L428.4 342 L432 342 L432 414 L360 414 L360 342 "/>
<rect style="fill:#ffffff; stroke:none" x="363.6" y="345.6" width="64.7998" height="64.7998"/>
<path id="p86" style="fill:#ff0000; stroke-miterlimit:10;" fillrule="evenodd" d="M402.84 375.72 L408.24 371.88 L410.52 371.04 L408.96 368.04 L408.96 365.64 L411.36 368.04 L412.08 371.04 L413.64 371.04 L412.08 368.04 L412.08 365.64 L414.36 368.04 L415.2 371.04 L416.76 371.04 L426 383.4 L422.88 386.52 L419.76 386.52 L416.76 383.4 L412.92 383.4 L407.76 393.48 L407.76 398.88 L370.32 398.88 L369.24 390.36 L368.16 398.88 L366 398.88 L368.16 386.04 L373.44 381.72 L382.08 380.64 L392.04 382.68 L399.72 380.4 L399.72 378.84 L402.84 375.72 "/>
<path id="p87" style="fill:#ff0000; stroke-miterlimit:10;" fillrule="evenodd" d="M381 384.36 L381.12 383.4 L381.96 377.28 L382.8 371.04 L382.92 370.2 L383.04 369.96 L383.88 368.76 L384.72 367.44 L384.72 367.32 L390.48 367.32 L390.6 367.8 L391.92 371.04 L393.12 374.4 L393.24 374.88 L396.12 374.88 L397.08 375.12 L397.68 375.6 L398.04 376.2 L398.04 376.92 L397.8 377.52 L397.44 378.12 L396.84 378.48 L396.12 378.72 L392.4 378.72 L392.4 384.36 L381 384.36 "/>
<path id="p88" style="fill:#ff0000; stroke-miterlimit:10;" fillrule="evenodd" d="M384.72 360.96 L384.72 360.48 L385.08 359.4 L385.8 358.56 L386.88 358.08 L388.2 357.96 L389.4 358.08 L390.48 358.56 L391.32 359.4 L391.56 360.48 L393.24 360.48 L393.24 361.32 L384.72 361.32 L384.72 360.96 "/>
<path id="p89" style="fill:#ff0000; stroke-miterlimit:10;" fillrule="evenodd" d="M384.72 362.16 L391.56 362.16 L391.32 363.84 L390.48 365.04 L389.4 365.76 L388.2 366 L386.88 365.76 L385.8 365.04 L385.08 363.84 L384.72 362.16 "/>
<path id="p90" style="fill:#0000ff; stroke-miterlimit:10;" fillrule="evenodd" d="M441 342 L509.4 342 L509.4 345.6 L444.6 345.6 L444.6 410.4 L509.4 410.4 L509.4 342 L513 342 L513 414 L441 414 L441 342 "/>
<rect style="fill:#ffffff; stroke:none" x="444.6" y="345.6" width="64.7998" height="64.7998"/>
<path id="p91" style="fill:#0000ff; stroke-miterlimit:10;" fillrule="evenodd" d="M481.8 377.16 L495.96 377.16 L495.96 405.36 L495.84 406.2 L495.36 406.8 L494.88 407.16 L494.16 407.28 L493.56 407.16 L492.96 406.8 L492.6 406.2 L492.48 405.36 L492.48 393.84 L491.52 393.84 L491.52 405.36 L491.4 406.2 L491.04 406.8 L490.44 407.16 L489.84 407.28 L489.12 407.16 L488.52 406.8 L488.16 406.2 L488.04 405.36 L488.04 380.64 L481.8 380.64 L480.96 380.52 L480.36 380.04 L480 379.56 L479.88 378.84 L480 378.24 L480.36 377.64 L480.96 377.28 L481.8 377.16 "/>
<path id="p92" style="fill:#0000ff; stroke-miterlimit:10;" fillrule="evenodd" d="M495.96 373.2 L495.72 372 L495.12 370.92 L494.04 370.32 L492.84 370.08 L491.64 370.32 L490.68 370.92 L490.08 372 L489.84 373.2 L490.08 374.4 L490.68 375.36 L491.64 375.96 L492.84 376.2 L494.04 375.96 L495.12 375.36 L495.72 374.4 L495.96 373.2 "/>
<path id="p93" style="fill:#0000ff; stroke-miterlimit:10;" fillrule="evenodd" d="M483.12 376.2 L482.76 376.2 L482.88 375.36 L484.44 369.12 L485.28 365.64 L485.52 362.28 L485.4 359.16 L484.8 356.28 L483.96 353.64 L482.64 351.48 L481.08 349.56 L479.16 348 L480.12 348 L481.68 349.2 L483.12 351 L484.44 353.04 L485.4 355.56 L486 358.56 L486.24 361.8 L486.12 365.28 L485.4 369.12 L483.84 375.36 L483.6 376.2 L483.12 376.2 "/>
<path id="p94" style="fill:#0000ff; stroke-miterlimit:10;" d="M478.44 348.84 L478.32 348.84 L478.44 348.84 "/>
<path id="p95" style="fill:#0000ff; stroke-miterlimit:10;" d="M461.64 385.92 L461.52 385.92 L461.64 385.92 "/>
<path id="p96" style="fill:#0000ff; stroke-miterlimit:10;" d="M478.44 348.84 L478.32 348.84 L461.52 385.92 L461.64 385.92 L478.44 348.84 "/>
<path id="p97" style="fill:#0000ff; stroke-miterlimit:10;" fillrule="evenodd" d="M459.36 394.8 L460.56 393.96 L460.68 393.84 L460.08 393.12 L459.72 392.28 L459.36 390.36 L459.72 388.44 L460.08 387.6 L460.68 386.88 L461.52 386.88 L462.12 387.6 L462.6 388.44 L462.84 390.36 L462.6 392.28 L462.12 393.12 L461.52 393.84 L461.52 394.08 L461.16 395.64 L460.68 397.2 L460.68 397.44 L460.68 397.32 L460.2 396.48 L459.84 395.76 L459.84 395.64 L458.04 395.64 L458.16 395.52 L459.36 394.8 "/>
<path id="p98" style="fill:#0000ff; stroke-miterlimit:10;" fillrule="evenodd" d="M482.76 374.52 L482.52 373.8 L481.8 373.56 L481.2 373.8 L480.96 374.52 L481.2 375.12 L481.8 375.36 L482.52 375.12 L482.76 374.52 "/>
<path id="p99" style="fill:#0000ff; stroke-miterlimit:10;" fillrule="evenodd" d="M522 342 L590.4 342 L590.4 345.6 L525.6 345.6 L525.6 410.4 L590.4 410.4 L590.4 342 L594 342 L594 414 L522 414 L522 342 "/>
<rect style="fill:#ffffff; stroke:none" x="525.6" y="345.6" width="64.7998" height="64.7998"/>
<path id="p100" style="fill:#0000ff; stroke-miterlimit:10;" fillrule="evenodd" d="M561.84 365.76 L561.48 364.32 L560.76 363.12 L559.44 362.28 L558 361.92 L556.56 362.28 L555.24 363.12 L554.52 364.32 L554.16 365.76 L554.52 367.32 L555.24 368.52 L556.56 369.36 L558 369.6 L559.44 369.36 L560.76 368.52 L561.48 367.32 L561.84 365.76 "/>
<path id="p101" style="fill:#0000ff; stroke-miterlimit:10;" fillrule="evenodd" d="M552.24 370.56 L564.72 370.56 L564.96 369.84 L566.64 364.32 L568.32 358.92 L568.56 358.2 L568.92 357.24 L569.52 356.52 L570.12 356.16 L570.84 356.04 L571.44 356.16 L571.92 356.52 L572.28 357.24 L572.4 358.2 L571.92 359.76 L569.04 370.56 L566.04 381.48 L565.68 383.04 L550.32 383.04 L549.96 381.48 L546.96 370.56 L544.08 359.76 L543.6 358.2 L543.72 357.24 L544.08 356.52 L544.56 356.16 L545.16 356.04 L545.88 356.16 L546.48 356.52 L547.08 357.24 L547.44 358.2 L547.8 358.92 L549.84 364.32 L552 369.84 L552.24 370.56 "/>
<path id="p102" style="fill:#0000ff; stroke-miterlimit:10;" fillrule="evenodd" d="M550.32 384 L565.68 384 L565.68 387.84 L565.92 388.08 L567.6 390.24 L569.28 392.28 L569.52 392.64 L569.52 401.16 L569.16 402.48 L568.44 403.32 L567.36 403.92 L566.16 404.04 L564.96 403.92 L563.88 403.32 L563.04 402.48 L562.8 401.16 L562.8 393.6 L562.56 393.36 L560.88 392.16 L559.2 390.84 L558.96 390.72 L557.04 390.72 L556.8 391.32 L555.12 395.88 L553.44 400.56 L553.2 401.16 L552.36 402.72 L551.28 403.8 L549.96 404.28 L548.76 404.4 L547.68 404.16 L546.84 403.44 L546.48 402.48 L546.48 401.16 L546.72 400.44 L548.4 395.04 L550.08 389.52 L550.32 388.8 L550.32 384 "/>
<rect style="fill:#0000ff; stroke:none" x="538.92" y="357.48" width="38.1599" height="0.959961"/>
<rect style="fill:#0000ff; stroke:none" x="534.12" y="350.04" width="3.83984" height="15.72"/>
<rect style="fill:#0000ff; stroke:none" x="578.04" y="350.04" width="3.83984" height="15.72"/>
</svg>
