<?xml version="1.0" standalone="no"?>
<!DOCTYPE svg PUBLIC "-//W3C//DTD SVG 20010904//EN"
 "http://www.w3.org/TR/2001/REC-SVG-20010904/DTD/svg10.dtd">
<svg version="1.0" xmlns="http://www.w3.org/2000/svg"
 width="150pt" height="170pt" viewBox="0 0 150 170"
 preserveAspectRatio="xMidYMid meet">
<metadata>
Created by potrace 1.8, written by Peter Selinger 2001-2007
</metadata>
<g transform="translate(0,170) scale(0.120000,-0.120000)"
fill="#000000" stroke="none">
<path d="M75 1413 c-4 0 -13 -2 -19 -4 -11 -3 -12 -4 -17 -9 -3 -3 -9 -8 -12
-11 -11 -10 -18 -24 -24 -50 -2 -8 -2 -12 -2 -28 0 -29 2 -38 17 -63 0 -1 2
-4 3 -6 1 -3 4 -6 7 -9 3 -2 7 -5 9 -6 1 -2 5 -4 9 -6 3 -1 8 -3 11 -5 4 -2 6
-3 15 -3 21 -2 32 -2 36 -1 3 0 8 1 13 2 5 1 10 2 14 4 4 2 9 4 12 5 6 2 29 5
30 4 1 0 30 0 64 0 69 -1 116 -2 156 -3 14 -1 41 -1 61 -1 45 0 71 -2 111 -7
21 -2 47 -9 61 -16 12 -5 19 -8 22 -8 4 0 9 2 17 8 6 5 8 7 11 13 6 11 8 12
15 13 4 0 38 -1 78 -1 39 -1 100 -1 137 -2 36 0 91 -1 122 -1 165 -3 162 -3
169 -5 11 -4 20 -1 23 8 1 2 2 5 3 7 4 4 9 19 10 30 2 11 5 49 5 53 -5 28 -15
51 -24 54 -2 0 -30 1 -61 1 -32 0 -74 0 -93 0 -20 1 -66 1 -102 2 -239 4 -275
4 -278 6 0 1 -1 3 -2 6 -1 7 -5 15 -11 20 -4 4 -6 5 -11 6 l-6 1 -12 -6 c-7
-3 -13 -6 -13 -6 -1 0 -3 -1 -6 -3 -17 -8 -32 -12 -52 -13 -21 -1 -20 -1 -75
0 -27 1 -67 1 -89 2 -23 0 -55 0 -72 1 -28 1 -81 2 -92 2 -2 0 -15 0 -27 0
-30 0 -37 1 -74 15 -28 11 -40 13 -67 10z m50 -17 c7 -1 14 -4 19 -6 5 -2 12
-5 16 -6 3 0 10 -2 15 -4 10 -3 23 -4 77 -5 23 0 63 0 90 -1 26 -1 69 -1 95
-2 26 0 58 -1 72 -1 33 -2 46 -2 64 0 19 2 31 5 42 10 10 5 12 6 12 3 0 -1 -1
-4 -3 -7 -1 -3 -2 -9 -3 -12 -1 -4 -2 -10 -2 -12 -4 -14 -6 -60 -4 -78 0 -3 0
-7 0 -7 -1 -1 -3 0 -8 1 -7 3 -12 5 -23 8 -12 2 -15 3 -25 4 -6 1 -12 1 -13 1
-2 1 -7 2 -12 2 -12 3 -45 5 -83 6 -17 1 -36 1 -41 2 -5 1 -12 1 -17 1 -4 0
-9 0 -11 1 -1 0 -38 1 -80 1 -43 1 -88 1 -100 1 -20 1 -23 1 -25 -1 -1 -1 -1
-2 1 -3 2 -2 4 -2 11 -2 5 0 11 0 14 -1 3 0 27 0 53 0 25 -1 60 -1 78 -2 17 0
35 -1 41 -1 12 0 21 0 70 -3 97 -4 138 -9 160 -19 3 -1 7 -3 9 -3 2 0 3 -1 3
-4 0 -4 1 -4 -10 1 -5 1 -10 2 -15 2 -9 1 -31 3 -32 4 -1 0 -46 4 -67 5 -25 1
-85 3 -125 3 -23 1 -32 1 -34 2 -2 1 -11 1 -38 1 -61 1 -116 2 -119 4 -4 2 -9
7 -9 8 1 1 1 6 2 11 1 10 0 14 -3 14 -1 0 -2 -2 -2 -6 -1 -3 -1 -6 -2 -6 -1
-1 -1 -2 -1 -3 0 -5 -6 -13 -17 -26 -9 -9 -18 -14 -33 -17 -24 -5 -34 -4 -49
5 -14 7 -18 10 -21 17 -1 3 -4 8 -5 12 -6 11 -6 13 -7 29 0 8 0 15 0 16 -2 1
-5 -4 -7 -9 -1 -7 -1 -18 1 -30 1 -11 3 -16 10 -27 7 -12 10 -15 29 -24 11 -5
18 -6 30 -7 9 0 11 0 14 1 2 1 7 3 11 4 5 0 11 2 14 3 17 8 17 8 33 9 8 1 19
2 24 2 6 0 14 1 18 0 5 0 14 0 20 1 9 1 18 1 44 0 41 -2 61 -3 131 -4 32 0 68
-1 82 -1 32 -1 72 -5 83 -7 15 -4 31 -8 34 -9 1 -1 4 -2 6 -2 1 -1 5 -3 8 -4
2 -2 5 -4 6 -4 2 0 3 -1 4 -1 2 -3 3 -8 2 -9 0 -1 -6 0 -13 3 -16 5 -40 10
-56 12 -8 1 -16 3 -20 3 -4 1 -25 1 -48 2 -24 0 -56 0 -73 0 -18 1 -62 1 -98
2 -77 2 -140 2 -154 0 -10 -1 -15 -2 -27 -6 -3 -1 -10 -3 -15 -5 -10 -2 -11
-2 -29 -2 -12 1 -21 1 -25 2 -8 2 -18 7 -24 11 -8 5 -19 15 -20 20 -1 2 -3 6
-5 9 -5 9 -8 20 -8 37 -2 27 4 52 16 66 3 2 6 6 7 8 1 2 4 5 6 7 4 3 18 11 27
13 6 3 39 4 43 2 2 0 8 -2 14 -3z m536 4 c1 0 3 -2 4 -3 1 -3 1 -3 -2 -6 -8
-9 -16 -26 -30 -58 -5 -12 -9 -22 -10 -22 -1 0 -1 1 -1 5 0 6 5 21 11 34 3 5
7 15 10 21 4 11 11 24 15 28 2 2 1 2 3 1z m-24 -26 c-5 -12 -7 -16 -7 -13 0 4
7 24 9 26 4 4 3 0 -2 -13z m34 11 c1 -3 1 -7 0 -8 -2 -1 -10 -2 -10 -1 0 2 6
12 8 12 0 0 1 -1 2 -3z m158 -20 c6 0 29 0 51 0 121 -2 158 -3 213 -4 33 0 70
0 81 -1 11 0 22 0 23 0 3 0 3 -1 -1 -9 -5 -10 -10 -32 -11 -45 0 -6 -1 -11 -1
-12 -1 -1 -10 -1 -44 -1 -67 1 -115 2 -148 2 -17 1 -51 1 -77 2 -83 0 -120 1
-164 2 -24 1 -44 1 -45 1 0 -1 -13 0 -29 0 -22 1 -28 2 -29 3 -1 1 -1 4 0 8 0
4 0 10 1 15 0 8 2 17 6 28 2 8 3 9 8 9 1 0 4 1 6 2 4 2 16 2 160 0z m385 -9
c0 -3 -15 -32 -16 -32 -2 0 -1 4 2 13 2 5 4 10 4 12 1 4 5 8 8 8 1 0 2 -1 2
-1z m8 -10 c0 -1 0 -4 0 -6 -1 -5 -25 -51 -26 -51 -1 0 -2 2 -3 5 0 5 0 7 2
10 1 2 4 8 7 13 3 5 7 15 11 21 3 6 6 11 7 11 0 0 1 -1 2 -3z m6 -20 c0 -3 -1
-6 -5 -15 -7 -17 -24 -51 -25 -51 -1 -1 -2 0 -3 7 l0 6 13 26 c15 29 17 32 18
32 1 0 2 -2 2 -5z m-591 -9 c0 -9 -1 -11 -4 -20 -6 -13 -8 -18 -9 -18 0 0 -1
3 -2 6 l-1 6 4 7 c2 4 4 9 5 12 2 5 6 13 7 13 1 0 1 -2 0 -6z m593 -14 c2 -7
1 -11 -4 -21 -3 -4 -9 -17 -14 -27 -5 -10 -10 -18 -10 -18 -1 0 -3 6 -4 13 0
6 0 6 2 6 3 0 4 2 9 12 2 5 5 10 5 11 1 1 4 7 7 13 7 14 8 15 9 11z m-480 -7
c20 -1 47 -1 61 -2 13 0 44 0 68 -1 127 -1 152 -1 160 -1 4 -1 27 -1 52 -2 24
0 44 0 44 -1 0 0 11 0 24 0 13 0 24 -1 25 -1 1 -1 1 -6 0 -9 -1 -2 -2 -2 -64
-2 -34 1 -75 1 -91 2 -16 0 -49 0 -74 0 -26 1 -64 1 -84 2 -21 0 -62 0 -90 1
-29 0 -59 0 -66 1 -8 0 -21 0 -30 0 -9 1 -18 1 -22 2 -5 0 -7 0 -10 -1 -2 -1
-3 -2 -4 -2 0 1 -1 13 -1 13 1 1 53 2 59 1 4 0 23 0 43 0z m-111 -12 c0 -6 -1
-9 -5 -20 -3 -7 -6 -13 -6 -13 -2 0 -3 5 -3 10 0 2 1 6 2 9 6 13 10 21 11 21
1 0 1 -3 1 -7z m591 -15 c-1 -7 -7 -26 -9 -30 -2 -5 -8 -11 -11 -11 -2 0 -3 1
-3 1 0 2 15 34 19 41 3 6 4 5 4 -1z m-492 3 c30 -1 67 -1 81 -2 13 0 50 0 82
-1 32 0 69 0 82 -1 28 0 140 -2 145 -2 1 0 15 0 30 0 l28 -1 0 -2 c0 -2 -1 -3
-11 -3 -11 -1 -64 0 -79 1 -5 0 -43 0 -84 1 -42 0 -92 0 -112 1 -21 0 -57 0
-81 1 -24 0 -50 0 -59 1 -9 0 -29 0 -45 0 -37 1 -60 2 -63 4 -1 1 -2 2 -2 2 0
1 3 2 16 1 8 0 41 0 72 0z m-94 -13 c1 -4 1 -5 -2 -14 -2 -4 -5 -11 -6 -14 -1
-3 -2 -6 -3 -6 -1 0 -4 7 -4 10 0 1 2 6 5 13 2 6 5 13 5 14 1 3 3 2 5 -3z
m147 -10 c33 0 62 -1 63 -1 1 0 14 0 28 0 13 -1 45 -1 69 -2 24 0 58 0 74 -1
38 0 68 -1 120 -1 24 -1 43 -1 44 -1 1 -1 4 -10 4 -12 0 -3 -2 -4 -11 -3 -8 1
-45 2 -119 3 -90 1 -112 1 -114 1 -3 1 -48 1 -212 3 l-72 0 -3 5 c-4 5 -5 9
-4 10 1 1 54 0 133 -1z m-138 -12 l2 -4 -4 -10 c-3 -6 -5 -12 -5 -13 0 -1 -1
-2 -1 -2 -2 0 -7 6 -7 8 0 3 7 22 9 25 1 2 1 2 3 1 1 -1 2 -4 3 -5z m12 -9 c2
-1 3 -4 1 -6 0 0 -2 -4 -4 -8 -4 -11 -7 -13 -12 -10 -1 2 -1 2 0 3 1 1 2 3 3
6 1 4 6 13 7 15 1 1 3 1 5 0z"/>
<path d="M149 1328 c-1 0 -1 -4 -1 -8 0 -17 -9 -35 -19 -40 -3 -1 -6 -3 -8 -4
-3 -2 -8 -4 -13 -5 -8 -2 -11 -2 -18 -2 -12 1 -19 3 -22 7 -1 2 -3 3 -5 4 -3
0 -4 1 -7 9 -2 4 -5 10 -5 12 -1 3 -2 5 -3 5 -7 1 -4 -13 4 -25 8 -11 20 -19
31 -19 2 0 7 -1 10 -1 5 -1 27 3 33 6 19 10 29 27 29 49 0 7 -4 15 -6 12z"/>
<path d="M184 1313 c-2 -2 0 -3 7 -4 3 0 28 -1 55 -2 26 0 51 0 55 -1 3 0 18
0 34 0 15 -1 30 -1 34 -2 6 -1 9 -1 9 1 0 1 -3 2 -16 2 -7 1 -16 1 -19 2 -4 0
-24 1 -45 2 -21 1 -38 1 -39 1 -5 1 -74 2 -75 1z"/>
<path d="M125 1301 c-6 -8 -12 -12 -19 -13 -3 0 -6 -1 -7 -2 -3 -3 -8 -3 -12
-1 -4 1 -7 1 -5 -2 2 -4 12 -5 22 -2 11 2 19 8 25 17 7 11 4 14 -4 3z"/>
<path d="M385 1305 c-2 -1 -2 -1 0 -2 2 -1 5 -1 7 -1 3 0 10 0 16 0 7 -1 12
-1 12 0 0 2 -32 5 -35 3z"/>
<path d="M496 1304 c-4 -1 -4 -2 -1 -4 3 -1 26 -3 39 -3 8 0 16 -1 19 -3 5 -3
26 -4 26 -2 1 1 -10 3 -22 5 -5 1 -13 2 -17 3 -5 0 -15 2 -22 3 -7 0 -15 1
-16 1 -2 1 -5 1 -6 0z"/>
<path d="M434 1302 c-3 0 -2 -2 0 -2 7 -2 13 -2 14 -1 2 2 2 2 -1 2 -5 1 -11
2 -13 1z"/>
<path d="M465 1301 c-6 -1 -7 -3 -2 -4 5 -2 12 0 12 3 0 2 -2 2 -10 1z"/>
<path d="M854 1080 c-11 -1 -22 -4 -25 -6 -2 -1 -6 -2 -9 -3 -4 -1 -6 -2 -11
-6 -8 -9 -14 -17 -17 -26 -6 -20 -6 -21 -3 -41 2 -10 9 -25 15 -35 7 -10 10
-23 10 -47 0 -10 0 -25 0 -35 1 -44 -2 -119 -4 -131 l-1 -6 -10 -1 c-15 -1
-27 -3 -45 -6 -9 -2 -26 -5 -37 -7 -12 -2 -28 -5 -36 -6 -7 -2 -20 -4 -28 -6
-24 -5 -57 -12 -72 -15 -8 -2 -16 -3 -17 -4 -5 -1 -5 1 -5 43 0 20 0 44 0 51
1 7 2 32 2 54 1 22 2 44 3 49 2 15 7 28 14 38 1 1 4 6 6 11 9 19 9 41 -1 62
-6 13 -9 16 -19 23 -18 12 -36 15 -62 11 -12 -2 -15 -2 -24 -7 -18 -9 -30 -23
-36 -42 -5 -18 -2 -41 9 -59 3 -5 5 -10 6 -12 1 -2 2 -4 3 -5 2 -2 3 -6 5 -23
2 -17 3 -36 1 -63 0 -11 -1 -44 -2 -73 0 -60 -1 -79 -5 -82 -1 -1 -8 -2 -17
-4 -19 -3 -54 -10 -71 -14 -2 -1 -7 -1 -11 -2 -4 0 -11 -1 -18 -3 -17 -5 -30
-8 -34 -8 -4 0 -14 -9 -22 -20 -3 -4 -6 -8 -7 -9 -1 0 -4 -2 -6 -3 -3 -3 -5
-4 -13 -5 -14 -2 -27 -4 -69 -15 -45 -11 -47 -12 -86 -23 -43 -12 -52 -15 -48
-18 3 -2 3 -2 34 6 12 2 39 9 46 11 4 1 14 3 23 5 13 3 38 9 48 11 2 1 6 1 9
2 3 0 10 2 16 3 6 1 14 3 19 4 4 0 10 2 12 2 2 1 9 2 15 3 10 1 10 1 17 -1 3
-2 10 -5 15 -7 4 -2 9 -4 11 -5 1 0 4 -1 7 -2 6 -4 28 -13 32 -14 2 -1 8 -3
14 -6 6 -3 12 -5 13 -6 2 0 5 -1 7 -2 3 -1 11 -5 18 -8 20 -7 26 -10 26 -12 0
0 0 -1 -1 -1 -2 -2 -62 -17 -105 -27 -29 -7 -55 -13 -67 -17 -4 -1 -13 -3 -17
-5 -18 -4 -43 -13 -46 -15 -2 -2 -9 -5 -15 -7 -10 -3 -13 -4 -12 -6 1 0 6 1
12 2 6 1 13 2 15 2 1 0 6 1 11 3 8 3 15 5 60 17 23 6 28 7 36 8 4 1 9 2 11 3
2 1 10 4 18 5 8 2 16 5 18 5 2 1 6 2 9 2 2 1 7 2 9 2 11 4 31 9 61 15 2 1 7 2
11 3 4 1 9 2 13 3 3 1 8 2 11 3 2 0 7 1 10 1 3 1 8 2 11 3 3 1 9 2 14 3 4 1
10 2 14 3 6 2 21 6 31 7 4 1 7 1 7 2 0 0 3 0 5 1 3 0 8 2 13 3 7 2 29 6 40 8
5 1 20 4 33 7 11 3 31 7 35 8 2 0 6 1 8 1 2 1 8 2 14 3 5 1 12 3 15 4 2 0 6 1
9 2 2 0 10 1 17 3 7 2 17 4 21 5 3 0 11 2 17 3 6 2 13 3 17 4 8 1 25 5 40 9 6
1 16 3 23 4 6 1 16 3 22 4 5 2 12 3 15 4 9 1 49 10 57 12 5 1 10 2 12 2 2 -1
7 0 13 1 4 2 11 3 13 4 6 2 21 5 27 6 6 1 40 8 49 10 3 1 10 3 15 4 4 1 12 3
18 4 5 1 14 3 21 5 6 1 13 3 16 4 15 3 22 5 25 8 1 1 4 3 7 3 4 1 9 4 8 6 -1
2 -7 1 -19 -1 -6 -1 -15 -3 -19 -3 -5 -1 -20 -4 -32 -6 -12 -3 -24 -5 -25 -5
-3 0 -4 1 -6 2 -1 2 -5 5 -8 7 -3 2 -8 5 -11 8 -6 4 -15 9 -25 13 -11 4 -47
20 -55 23 -4 2 -7 4 -7 5 0 1 0 1 11 3 3 1 9 3 12 4 3 1 6 2 8 2 3 0 14 2 30
6 6 1 15 3 20 3 22 4 37 8 38 11 0 0 -2 2 -4 3 -3 1 -4 1 -13 0 -5 -1 -17 -3
-26 -5 -10 -2 -22 -5 -28 -5 -17 -3 -41 -8 -53 -11 -13 -4 -15 -4 -26 2 -4 2
-13 6 -19 8 -15 5 -18 7 -19 10 -1 2 -2 71 -1 91 1 5 1 25 1 45 1 25 2 38 3
43 0 4 2 10 2 13 3 12 3 13 14 31 4 6 5 10 6 14 3 23 -2 43 -17 60 -4 4 -15
11 -21 14 -6 3 -9 3 -19 4 -7 1 -13 1 -13 1 -1 0 -5 -1 -8 -1z m15 -8 l15 -1
6 -4 c4 -2 8 -6 11 -7 5 -4 7 -7 12 -16 4 -8 5 -11 7 -20 1 -10 1 -10 -1 -19
-2 -7 -3 -12 -7 -18 -11 -19 -12 -23 -14 -50 -2 -30 -3 -96 -2 -134 0 -39 0
-50 2 -58 2 -8 8 -22 12 -27 3 -4 3 -6 3 -10 0 -5 -1 -6 -9 -11 -8 -4 -19 -8
-34 -11 -9 -2 -12 -2 -22 -2 -6 1 -13 2 -15 2 -3 1 -7 1 -11 2 -7 1 -15 4 -16
7 -2 2 1 11 5 16 9 14 11 36 11 122 1 37 1 57 2 61 1 4 1 13 1 31 -1 25 -2 33
-6 36 -1 1 -3 5 -6 10 -2 5 -5 11 -6 13 -5 8 -9 29 -7 38 5 24 5 23 13 30 3 3
8 6 10 7 2 1 4 2 6 3 2 4 6 6 13 8 8 3 7 3 27 2z m-337 -38 c6 0 22 -8 28 -14
6 -5 12 -15 16 -26 2 -6 2 -9 2 -20 0 -18 0 -19 -15 -44 -11 -17 -12 -22 -12
-60 0 -17 -1 -42 -1 -56 -2 -39 -1 -122 1 -127 1 -3 2 -8 3 -12 1 -5 4 -12 7
-17 4 -8 6 -10 12 -14 2 -1 3 -3 3 -4 0 -1 -4 -5 -8 -7 -2 -1 -5 -3 -7 -4 -4
-3 -17 -7 -26 -9 -4 0 -10 -1 -14 -2 -4 -1 -16 -1 -28 -1 -18 0 -22 0 -26 2
-6 2 -15 9 -15 11 0 1 2 4 4 8 10 13 14 27 16 50 1 8 2 19 2 25 1 6 1 26 2 46
0 20 0 47 1 62 0 14 0 31 0 38 -1 7 -1 18 0 25 0 15 -1 23 -5 31 -2 3 -3 8 -4
10 -1 2 -3 7 -5 10 -5 8 -9 16 -9 19 0 1 -1 6 -2 10 -2 3 -3 9 -3 11 0 6 5 26
8 30 3 5 17 18 22 21 8 5 11 6 21 7 5 1 10 2 10 3 0 0 4 0 9 0 5 -1 11 -1 13
-2z m397 -291 c9 -4 24 -11 35 -16 11 -5 23 -10 27 -12 4 -2 10 -4 14 -6 7 -4
28 -12 30 -12 2 0 3 -3 2 -4 0 -1 -5 -2 -10 -3 -24 -3 -44 -8 -47 -9 -1 -1 -9
-2 -17 -4 -8 -2 -22 -5 -31 -7 -10 -1 -31 -6 -46 -9 -16 -3 -36 -8 -45 -9 -9
-2 -18 -4 -20 -4 -5 0 -32 -5 -56 -11 -10 -3 -23 -6 -29 -7 -6 -1 -21 -4 -32
-7 -11 -2 -26 -5 -32 -7 -28 -5 -41 -8 -63 -13 -14 -3 -28 -7 -33 -8 -5 0 -17
-3 -27 -6 -38 -10 -46 -12 -55 -14 -6 -1 -12 -3 -14 -4 -3 -1 -4 -1 -17 5 -7
4 -21 10 -29 13 -9 4 -17 8 -18 8 -2 1 -17 8 -35 16 -19 8 -38 16 -43 19 -10
4 -12 6 -8 6 8 2 16 3 20 3 4 0 10 1 28 6 11 2 16 4 30 6 4 1 8 2 8 2 2 2 38
9 39 8 1 0 -1 -6 -7 -14 -2 -4 -4 -7 -4 -8 0 0 -1 -2 -3 -4 -4 -6 -4 -14 1
-17 2 -1 4 -3 5 -6 4 -5 13 -11 19 -10 6 2 11 1 21 0 8 -2 11 -2 18 -1 4 1 11
1 16 2 4 0 10 2 13 2 2 1 7 2 11 3 10 2 24 6 29 9 4 2 11 9 11 11 0 1 1 4 3 5
3 4 3 4 2 9 -2 6 -5 9 -13 14 -6 3 -7 4 -10 11 -2 4 -4 10 -5 14 -1 9 -1 9 8
10 3 1 10 2 15 3 5 1 15 3 22 4 7 1 16 3 21 4 4 0 12 2 17 3 4 0 13 2 20 3 6
2 18 4 27 5 8 2 18 4 22 5 4 0 13 2 21 4 22 3 59 11 65 13 3 1 6 1 6 0 1 0 0
-3 0 -6 -1 -2 -3 -7 -3 -10 -1 -4 -4 -9 -8 -14 -5 -9 -6 -10 -4 -15 3 -7 18
-15 32 -17 33 -5 40 -5 67 3 14 4 25 10 33 18 5 5 7 7 8 10 0 4 -1 6 -10 13
-2 1 -4 5 -7 11 -4 8 -4 10 -4 16 0 5 -2 5 19 -3z m129 -58 c5 -3 13 -10 13
-11 -1 -2 -6 -3 -26 -7 -9 -2 -22 -5 -29 -7 -7 -2 -33 -7 -57 -13 -24 -5 -52
-11 -62 -13 -22 -5 -41 -9 -50 -11 -8 -1 -53 -11 -73 -16 -7 -2 -15 -3 -18 -4
-4 -1 -12 -2 -18 -4 -6 -2 -21 -5 -33 -8 -13 -2 -36 -7 -51 -11 -16 -3 -33 -7
-37 -7 -19 -2 -25 -3 -41 -7 -18 -3 -68 -15 -94 -21 -8 -2 -15 -4 -16 -4 -2 0
-3 2 -1 5 1 1 3 5 5 9 4 10 5 11 17 12 10 1 21 3 30 6 2 1 8 3 13 3 12 3 22 5
31 7 4 2 11 3 15 3 3 1 10 2 13 3 4 1 10 3 14 3 10 2 30 6 42 9 4 1 14 3 21 5
7 1 14 2 16 3 1 1 3 1 5 1 1 0 5 1 9 2 7 1 29 6 36 7 2 1 12 3 22 5 9 2 21 4
26 5 5 1 12 3 16 3 3 1 10 3 16 4 5 1 14 3 21 4 15 4 17 5 30 7 18 4 40 8 53
11 6 1 16 3 21 4 5 1 15 3 22 5 7 2 16 3 21 4 4 1 9 2 11 3 6 2 27 6 34 6 1 0
4 1 6 1 1 1 4 2 6 2 1 0 5 1 9 2 8 2 9 2 12 0z m-744 -55 c3 -1 3 -2 -1 -6 -2
-2 -6 -6 -9 -9 -3 -5 -5 -6 -6 -5 -4 1 -1 8 7 17 5 4 6 5 9 3z m14 -6 c2 -1 1
-2 -8 -12 -8 -9 -11 -10 -12 -5 0 4 13 18 18 18 0 0 1 0 2 -1z m13 -6 c2 -1 3
-2 3 -3 0 0 -3 -3 -6 -6 -3 -4 -7 -8 -8 -9 -2 -2 -3 -3 -4 -2 -3 0 -5 2 -5 4
0 4 12 18 15 18 1 0 3 -1 5 -2z m15 -6 c2 -1 3 -3 3 -3 0 -1 -2 -4 -5 -7 -3
-4 -7 -8 -8 -9 l-3 -3 -3 1 c-4 2 -5 3 -3 7 2 2 14 16 15 16 1 0 2 -1 4 -2z
m15 -7 c2 -1 3 -2 3 -3 0 0 -3 -5 -7 -9 -8 -8 -10 -9 -14 -7 -1 2 -1 2 0 5 2
5 12 16 14 16 0 0 2 -1 4 -2z m16 -7 c0 -2 -10 -18 -12 -19 -2 -1 -7 1 -8 3 0
2 7 12 11 15 4 2 8 3 9 1z m16 -7 c2 -2 2 -2 -2 -6 -2 -2 -5 -6 -7 -9 -3 -4
-5 -5 -9 -3 -3 2 -2 4 2 11 2 3 4 7 5 8 1 2 2 2 5 2 2 -1 5 -2 6 -3z m13 -5
c2 -1 7 -3 11 -5 5 -2 8 -3 8 -4 0 -1 -1 -4 -3 -6 -2 -2 -5 -6 -7 -8 -4 -6 -5
-7 -9 -5 -3 3 -3 6 3 13 5 7 5 8 2 8 -3 0 -10 -7 -13 -12 -1 -2 -5 -3 -8 0 -3
2 -3 3 0 8 2 4 11 13 12 13 1 0 3 -1 4 -2z m33 -14 c3 -1 7 -3 9 -3 1 -1 3 -2
4 -2 2 0 1 -3 -4 -11 -3 -5 -5 -9 -5 -10 0 0 -1 -1 -1 -2 -2 -1 -3 -1 -6 1 -6
3 -6 3 -3 5 3 4 8 12 8 14 0 7 -10 -3 -13 -13 -1 -2 -1 -2 -5 0 -2 1 -4 3 -4
4 0 2 6 12 10 15 2 2 4 4 4 4 1 0 3 -1 6 -2z"/>
<path d="M824 1051 c-4 -4 -8 -12 -10 -21 -3 -12 -3 -17 4 -36 1 -4 3 -9 4
-10 1 -1 2 -4 3 -6 0 -2 2 -5 3 -7 4 -4 5 -9 8 -20 2 -8 2 -11 1 -55 0 -26 -1
-55 -1 -64 -2 -33 -2 -41 -1 -44 1 -3 1 -9 -2 -35 -3 -26 -3 -32 -5 -36 -3 -7
-3 -9 1 -9 1 0 3 0 4 1 3 2 6 9 7 15 0 2 2 8 3 13 2 9 4 33 4 63 1 11 1 30 2
43 0 12 1 40 1 61 0 47 0 49 9 59 4 4 5 5 12 6 8 1 14 4 21 9 7 5 14 13 14 14
-1 3 -4 2 -9 -2 -3 -3 -6 -5 -9 -6 -3 -1 -6 -2 -8 -2 -3 -1 -8 -1 -12 -2 -7 0
-10 0 -16 3 -11 3 -11 3 -12 6 0 3 -2 6 -7 9 -2 1 -4 3 -5 5 -1 1 -2 4 -3 5
-1 2 -2 7 -3 13 0 10 0 11 2 17 1 4 3 8 4 9 2 3 2 6 0 6 0 0 -2 -1 -4 -2z"/>
<path d="M837 1037 c-2 -6 -2 -12 -1 -18 3 -9 7 -15 11 -17 1 -1 4 -3 4 -5 1
-2 2 -2 6 -2 2 0 6 -1 9 -1 9 -3 20 -2 20 2 0 1 -1 1 -6 0 -7 0 -13 2 -23 8
-10 6 -12 8 -14 20 -1 6 -3 12 -4 13 l-1 3 -1 -3z"/>
<path d="M867 959 c-6 -4 -8 -20 -8 -75 0 -56 -2 -126 -3 -131 0 -2 -2 -8 -2
-14 -1 -6 -3 -14 -4 -18 -2 -8 -2 -11 -1 -13 3 -2 5 0 7 8 4 11 6 26 7 56 0
14 0 30 0 35 1 4 1 36 1 70 1 65 2 68 7 73 2 3 3 7 1 9 -2 1 -3 1 -5 0z"/>
<path d="M486 979 c-1 -2 1 -9 3 -13 4 -9 7 -13 16 -17 7 -3 8 -3 16 -3 13 0
27 5 23 8 -1 1 -3 0 -7 -1 -12 -5 -19 -5 -30 1 -5 3 -10 9 -14 19 -2 8 -5 10
-7 6z"/>
<path d="M465 974 c-3 -4 -3 -6 -3 -11 0 -10 5 -25 12 -33 2 -3 4 -6 4 -6 0
-1 1 -4 3 -6 3 -6 5 -13 7 -23 2 -14 2 -25 1 -56 -1 -17 -2 -51 -2 -76 0 -63
-2 -85 -6 -103 -1 -3 -2 -8 -2 -10 0 -3 -1 -5 -3 -8 -1 -3 -2 -4 -1 -5 1 -2 7
-1 8 1 0 1 2 4 4 7 4 7 8 18 9 24 1 7 5 78 5 90 0 19 0 33 0 47 1 10 1 37 1
61 0 40 0 44 2 46 1 0 5 2 11 2 9 1 15 3 19 7 1 1 5 3 8 4 6 3 15 10 15 12 0
1 2 4 4 8 4 7 5 10 2 11 -1 0 -4 -2 -8 -8 -9 -13 -15 -18 -21 -19 -12 -2 -25
0 -35 7 -3 2 -5 3 -6 3 -2 0 -10 9 -14 14 -3 5 -5 11 -7 21 -1 4 -4 4 -7 -1z"/>
<path d="M515 898 c0 -2 -1 -10 -1 -19 0 -9 -1 -20 -1 -25 -1 -6 -1 -9 0 -12
1 -3 1 -10 1 -43 0 -22 -1 -43 -2 -46 0 -3 -1 -16 -1 -28 0 -13 0 -30 -1 -39
-2 -29 -2 -44 -2 -46 1 -3 5 -4 5 -2 1 2 3 65 4 94 0 13 0 23 1 24 1 3 2 140
1 142 -1 3 -3 2 -4 0z"/>
<path d="M1022 634 c-8 -1 -33 -6 -61 -12 -5 -1 -11 -2 -13 -3 -4 0 -25 -5
-44 -9 -6 -2 -16 -4 -22 -6 -40 -8 -152 -36 -155 -37 -1 -1 -2 -2 -2 -2 0 -1
7 0 19 3 5 1 14 3 20 4 5 1 16 3 25 5 8 2 22 6 32 8 10 2 21 5 25 5 6 2 32 8
54 13 11 2 13 3 26 5 14 4 31 7 57 13 15 3 27 5 28 5 1 1 7 2 13 3 12 2 15 3
12 6 -2 0 -3 1 -3 1 -1 0 -6 -1 -11 -2z"/>
<path d="M1021 618 c-15 -3 -75 -15 -103 -22 -26 -5 -137 -33 -168 -41 -19 -5
-23 -7 -26 -9 -2 -2 -2 -2 0 -2 2 0 5 1 44 10 16 4 33 8 37 9 3 1 9 2 13 3 7
2 18 4 24 6 2 0 6 1 10 2 4 1 13 3 21 5 7 2 19 4 26 6 16 4 32 8 42 9 4 1 12
3 18 4 6 2 13 3 16 4 3 1 10 2 15 3 4 1 15 3 24 5 21 4 22 5 22 7 -1 2 -7 2
-15 1z"/>
<path d="M1028 597 c-3 -1 -13 -3 -22 -5 -10 -2 -21 -5 -26 -6 -5 -1 -12 -3
-17 -4 -13 -3 -31 -7 -35 -8 -8 -1 -41 -9 -44 -10 -1 -1 -8 -2 -15 -4 -8 -2
-20 -5 -27 -7 -7 -1 -19 -4 -26 -6 -12 -3 -20 -5 -33 -8 -4 -1 -13 -3 -22 -5
-9 -3 -19 -5 -24 -7 -5 -1 -15 -3 -22 -5 -8 -2 -16 -4 -17 -5 -2 0 -5 -1 -6
-2 -4 -1 -5 -3 -2 -3 1 0 3 1 4 2 2 0 5 1 6 1 2 0 6 1 10 2 3 1 8 2 10 2 2 1
7 2 9 2 2 1 7 2 11 3 9 2 27 6 35 8 4 1 8 2 10 2 5 1 16 4 29 7 10 3 16 4 36
8 4 1 14 4 23 6 47 12 76 18 100 23 2 1 9 2 14 3 13 4 47 11 49 11 3 0 5 3 3
5 -1 1 -4 1 -11 0z"/>
<path d="M1030 581 c-3 -1 -9 -2 -13 -2 -5 -1 -15 -3 -22 -5 -7 -2 -15 -3 -17
-4 -6 -1 -39 -9 -59 -14 -16 -4 -37 -9 -57 -15 -5 -1 -12 -2 -14 -3 -2 -1 -12
-3 -22 -6 -10 -3 -24 -6 -31 -8 -7 -3 -16 -5 -18 -6 -2 0 -10 -2 -16 -4 -7 -2
-14 -4 -16 -4 -2 -1 -5 -2 -7 -3 -3 0 -8 -1 -13 -3 -5 -1 -11 -3 -14 -4 -12
-4 -21 -6 -23 -8 -11 -4 -12 -4 -10 -5 1 0 8 1 14 3 6 2 13 4 15 4 2 1 9 2 15
4 6 2 14 4 17 5 3 0 10 2 15 3 4 2 14 4 21 6 7 2 15 4 19 5 3 1 10 3 16 4 6 2
15 4 21 6 6 2 15 4 21 5 5 2 14 4 21 6 6 1 18 5 28 7 10 2 19 5 20 5 1 1 7 2
12 3 4 1 13 3 18 4 11 3 33 8 48 11 18 5 34 8 37 8 4 0 6 2 4 5 -1 1 -4 1 -10
0z"/>
<path d="M1072 572 c-5 -1 -17 -3 -28 -6 -11 -2 -24 -5 -27 -6 -14 -2 -107
-26 -130 -32 -3 -1 -13 -4 -21 -6 -9 -2 -31 -8 -48 -13 -17 -4 -36 -9 -42 -11
-7 -2 -17 -4 -24 -6 -8 -2 -22 -6 -32 -9 -27 -7 -45 -12 -55 -14 -5 -2 -11 -4
-15 -4 -12 -4 -26 -8 -27 -9 0 -1 -1 -1 -2 -1 -1 0 -2 0 -2 -1 -2 -2 8 0 32 7
13 3 26 6 28 7 3 0 18 4 35 9 16 4 33 8 37 9 8 2 29 7 37 10 2 0 14 3 25 6 11
3 25 6 31 8 6 2 13 4 16 4 2 1 7 2 11 3 4 2 11 3 15 4 5 1 11 2 15 4 4 1 9 3
13 4 10 2 18 4 25 6 4 1 9 2 12 3 3 1 9 2 13 3 7 2 33 8 49 12 5 1 17 4 26 6
8 2 22 5 31 7 15 3 19 5 18 7 -1 1 -7 1 -16 -1z"/>
<path d="M1086 554 c-5 -1 -15 -3 -21 -5 -7 -1 -15 -3 -18 -4 -4 0 -8 -1 -10
-2 -3 0 -6 -1 -8 -2 -3 0 -12 -2 -21 -4 -15 -4 -27 -6 -50 -12 -5 -1 -9 -2
-10 -2 -1 0 -6 -1 -11 -2 -5 -2 -18 -5 -29 -8 -11 -2 -31 -7 -44 -11 -14 -3
-28 -7 -32 -8 -4 0 -8 -2 -11 -2 -2 -1 -22 -6 -42 -12 -21 -5 -41 -10 -43 -11
-2 0 -11 -3 -18 -4 -30 -8 -34 -9 -35 -11 -2 -2 -2 -2 0 -2 1 0 6 1 11 2 13 4
41 11 47 11 5 1 14 4 22 6 2 1 9 3 14 4 5 1 12 3 15 3 15 5 31 9 74 19 26 7
51 13 56 14 5 1 14 3 20 5 5 1 13 3 18 4 7 2 59 14 79 18 6 2 14 4 19 5 5 1
13 3 18 4 21 5 26 7 26 9 0 2 -7 1 -16 -2z"/>
<path d="M1192 547 c-22 -3 -45 -8 -85 -18 -11 -2 -22 -5 -25 -5 -3 0 -8 -2
-10 -2 -14 -5 -77 -20 -121 -29 -2 -1 -10 -2 -16 -3 -26 -6 -35 -8 -43 -10 -5
-1 -15 -3 -22 -5 -7 -2 -15 -3 -18 -3 -2 0 -5 -1 -6 -2 -2 0 -7 -2 -12 -3 -4
-1 -19 -4 -32 -7 -13 -4 -33 -8 -45 -11 -12 -3 -24 -6 -26 -7 -3 -1 -11 -4
-18 -5 -59 -13 -133 -31 -144 -35 -6 -1 -25 -6 -41 -10 -17 -4 -25 -6 -54 -14
-13 -3 -32 -8 -43 -11 -12 -3 -24 -7 -26 -7 -2 -1 -9 -2 -14 -3 -9 -2 -46 -11
-61 -15 -4 -1 -12 -3 -17 -5 -15 -3 -59 -16 -96 -27 -8 -3 -20 -6 -26 -8 -11
-4 -15 -6 -12 -8 1 -1 2 -1 6 0 12 3 16 3 20 3 3 0 3 0 3 -2 0 -1 0 -4 0 -5
-1 -2 -1 -3 0 -4 3 -3 5 -1 6 3 1 3 3 6 5 8 2 2 3 3 3 4 0 0 2 2 4 3 6 2 7 0
2 -7 -3 -4 -5 -8 -6 -11 -1 -4 -1 -4 0 -6 2 -2 5 0 6 3 0 2 3 8 8 15 4 7 8 11
12 12 4 2 4 -2 -2 -10 -7 -12 -13 -24 -12 -25 0 -1 1 -2 3 -2 4 0 7 4 7 8 0 2
3 7 7 15 9 14 12 18 15 19 5 2 5 0 -4 -18 -7 -13 -9 -19 -10 -23 0 -4 0 -5 2
-5 3 -1 5 1 5 4 0 4 6 21 10 25 1 3 5 8 7 13 4 8 7 10 11 10 3 0 3 -1 -3 -11
-4 -8 -11 -24 -14 -33 -1 -6 -1 -6 0 -8 3 -2 5 0 8 11 6 17 12 27 11 18 0 -8
0 -46 1 -48 0 -4 3 -5 5 -2 1 1 1 6 1 16 0 9 1 21 1 29 1 7 1 16 2 21 0 6 1 9
2 11 2 1 17 5 22 5 2 0 2 0 0 -13 -1 -9 -1 -16 -1 -32 2 -36 1 -35 5 -37 1 -1
2 0 4 2 2 2 2 3 1 7 0 4 0 6 2 11 2 3 6 12 9 20 3 7 8 18 11 23 8 13 20 31 22
32 2 1 7 1 7 0 0 -1 -2 -4 -4 -8 -21 -31 -45 -86 -40 -90 1 -1 1 -1 2 2 0 4
10 9 18 9 4 0 6 0 9 3 2 2 4 3 5 3 1 0 4 1 7 3 3 1 6 2 8 2 1 0 6 2 11 3 5 2
14 5 20 6 5 1 13 3 17 4 6 2 7 2 10 1 2 -1 3 -1 7 2 5 3 6 6 4 8 -1 1 -2 2 -2
3 0 3 5 14 6 13 1 0 1 -6 1 -13 0 -7 1 -15 1 -19 1 -6 1 -7 6 -12 7 -7 10 -9
16 -11 3 0 8 -2 10 -3 3 -1 8 -1 15 -1 10 0 11 0 16 3 2 1 7 4 10 6 12 7 21
19 21 28 0 3 -1 7 -1 10 -2 6 0 10 4 12 4 3 21 8 24 8 2 0 4 1 6 2 2 0 5 1 8
2 7 1 7 3 1 5 -6 2 -6 3 -4 11 2 7 12 27 13 27 0 0 1 -16 1 -36 1 -33 1 -44 4
-77 1 -17 4 -40 5 -45 0 -3 1 -4 3 -4 3 0 3 1 6 -18 4 -23 5 -28 7 -31 l2 -2
0 3 c0 2 -1 7 -1 11 -2 9 -5 28 -6 45 -1 7 -1 15 -2 18 -2 10 -2 90 -1 122 1
16 2 30 2 30 1 0 1 5 2 10 2 17 4 21 9 21 2 0 3 -3 1 -12 -1 -9 -3 -28 -4 -44
0 -7 0 -14 -1 -14 0 -1 -1 -52 -1 -75 0 -23 1 -36 4 -60 4 -36 11 -70 15 -71
3 0 3 4 0 18 -5 21 -7 33 -11 75 -2 17 -2 94 0 127 2 31 5 52 6 56 1 3 3 4 7
4 2 0 2 -1 1 -16 0 -9 -1 -19 -1 -23 -2 -12 -2 -62 -1 -83 1 -27 5 -61 8 -89
1 -6 2 -15 3 -20 1 -9 3 -13 4 -13 2 1 2 12 -1 35 0 8 -1 20 -2 26 -1 6 -1 16
-1 22 -1 6 -1 16 -2 21 -1 11 0 66 0 83 1 7 1 16 1 20 1 6 1 9 3 14 0 2 6 5 9
5 2 0 4 1 5 3 2 2 5 3 7 4 5 0 19 4 22 6 5 1 28 4 35 4 l6 0 -1 -5 c0 -3 0
-16 -1 -29 -1 -27 0 -64 3 -109 1 -18 3 -49 4 -70 2 -37 3 -42 6 -39 1 1 1 6
0 21 0 11 -1 33 -2 49 0 16 0 33 -1 38 -1 9 -1 10 0 51 1 34 1 34 3 36 1 1 3
2 5 3 1 0 5 1 8 3 4 2 7 2 11 3 3 0 6 0 7 1 3 3 6 4 9 2 3 -1 5 0 9 7 4 7 6 9
6 6 1 -1 1 -8 1 -16 0 -17 0 -20 9 -26 2 -2 5 -4 5 -5 1 -1 3 -2 5 -3 2 -1 6
-3 8 -5 9 -4 24 -4 44 1 5 1 13 9 17 16 2 4 2 5 3 22 0 10 0 18 0 20 2 4 20
10 69 22 6 1 11 2 12 3 1 0 5 1 10 2 8 2 8 2 11 0 2 -1 2 -1 5 2 1 1 3 3 4 3
2 1 2 2 1 4 -1 1 -2 2 -2 3 0 3 7 13 8 12 0 0 1 -24 1 -53 1 -45 2 -82 4 -101
7 -56 9 -72 13 -72 1 0 1 0 -1 24 -4 37 -6 69 -6 123 0 149 0 144 3 147 1 1 2
2 4 2 l2 0 0 -14 c-1 -7 -1 -20 -2 -29 -3 -45 -3 -84 -2 -114 1 -36 3 -71 6
-90 0 -7 1 -17 2 -21 0 -5 1 -13 2 -18 1 -6 1 -14 2 -19 0 -16 4 -48 5 -49 0
-1 2 -1 2 -1 2 1 2 6 1 21 -9 64 -14 141 -14 204 0 34 2 101 4 121 1 10 2 12
8 12 3 0 3 0 3 -2 0 -1 -1 -9 -1 -16 -1 -7 -2 -26 -3 -41 -1 -16 -1 -33 -2
-37 0 -5 0 -31 -1 -58 0 -53 1 -80 3 -83 2 -1 2 2 2 33 -1 30 0 72 2 73 1 1 1
-1 2 -20 4 -60 8 -110 13 -144 0 -6 2 -15 2 -19 1 -10 7 -49 10 -65 2 -13 3
-16 6 -16 2 0 2 3 1 11 -1 5 -3 14 -3 21 -1 6 -2 15 -3 19 -2 15 -7 66 -9 84
0 5 -1 15 -2 23 -3 32 -4 56 -4 114 0 34 0 39 1 40 8 4 13 6 17 8 2 0 8 2 12
4 3 1 8 3 10 3 2 1 8 2 13 4 9 3 12 5 10 7 -1 1 -3 1 -7 0 -8 -2 -30 -10 -44
-16 -6 -2 -11 -4 -12 -4 -1 1 -1 16 0 40 2 31 3 41 6 42 2 1 11 3 24 6 11 2
13 3 41 10 11 3 22 7 24 7 3 1 9 3 15 4 11 2 14 4 12 6 -1 2 -2 2 -7 1z m-168
-48 c0 -2 -3 -8 -11 -21 -14 -24 -26 -49 -28 -58 -1 -5 -4 -7 -8 -7 -4 0 -4 1
-1 8 5 14 12 29 26 51 3 6 8 15 10 18 4 7 8 10 11 10 0 0 1 0 1 -1z m-16 -3
c0 -1 -6 -11 -17 -30 -8 -12 -19 -35 -23 -47 l-3 -9 -6 -2 c-3 -1 -6 -1 -6 0
-2 2 7 22 21 46 2 4 4 8 4 8 0 1 2 4 5 8 2 4 6 10 7 12 6 11 15 18 18 14z
m-20 -5 c0 -1 -4 -7 -8 -15 -17 -27 -19 -31 -25 -42 -3 -6 -7 -15 -8 -20 -2
-8 -3 -9 -6 -10 -2 -1 -5 -2 -6 -2 -3 0 -3 0 -3 4 0 4 11 27 19 41 2 2 5 7 7
11 7 13 16 26 18 29 3 4 12 7 12 4z m42 -9 l-1 -8 -7 -12 c-8 -12 -21 -36 -21
-39 0 -3 -4 -6 -7 -6 -3 0 -3 0 -3 3 1 3 17 38 19 41 1 1 8 12 14 24 5 8 6 7
6 -3z m-63 4 c0 -2 -12 -23 -19 -33 -8 -12 -20 -36 -24 -48 -2 -7 -2 -8 -8 -9
-5 -2 -7 -1 -4 4 0 1 3 7 5 14 2 6 5 12 6 15 1 2 2 4 2 5 0 2 17 33 25 44 3 5
5 7 10 8 4 1 7 1 7 0z m-24 -6 c0 -1 -2 -4 -4 -7 -5 -8 -18 -33 -23 -46 -6
-12 -7 -11 -6 7 0 7 0 8 3 11 1 2 4 7 6 12 3 6 8 14 12 20 2 2 8 5 10 5 1 0 2
-1 2 -2z m-22 -3 c1 -1 0 -3 -3 -8 -2 -4 -5 -7 -5 -6 0 0 -1 3 -1 6 l0 6 3 2
c5 1 5 1 6 0z m-82 -22 c0 -2 -1 -4 -4 -6 -2 -2 -4 -4 -5 -4 -3 0 -2 9 1 12 4
2 7 1 8 -2z m189 -8 l0 -8 -4 -1 c-5 -1 -8 -4 -12 -11 -3 -6 -4 -7 -3 -1 3 8
16 30 18 30 1 0 1 -3 1 -9z m-129 3 c1 -1 1 -13 1 -31 -1 -17 -1 -32 -1 -33 0
-25 0 -29 -1 -33 -2 -5 -7 -11 -11 -13 -5 -2 -19 -5 -25 -4 -7 1 -6 0 -8 5 -3
8 -4 97 -1 103 0 3 5 5 12 7 8 1 33 1 34 -1z m-84 -1 c0 0 -3 -6 -7 -12 -3 -6
-9 -14 -11 -19 -8 -13 -17 -30 -22 -40 -2 -5 -3 -10 -4 -11 -1 -2 -9 -4 -9 -2
0 3 8 19 14 32 12 20 12 20 15 24 2 2 6 8 10 14 3 5 7 11 9 12 2 3 5 4 5 2z
m-14 -3 c-1 -1 -4 -7 -9 -13 -8 -13 -18 -28 -23 -38 -5 -8 -7 -11 -7 -10 -1 0
0 2 0 5 1 2 3 7 4 11 4 11 10 25 14 30 2 2 5 6 7 9 3 5 7 8 12 8 2 0 2 0 2 -2z
m-21 -4 c0 -1 -2 -4 -4 -7 -7 -10 -12 -18 -13 -20 -1 -4 -2 -1 -2 5 0 7 0 7 6
14 3 4 7 8 8 8 3 1 5 1 5 0z m58 -3 c1 -5 1 -92 0 -93 -1 -1 -1 -1 -3 0 -4 3
-5 5 -6 14 -1 11 -2 68 -1 71 2 6 10 12 10 8z m-84 -9 c-1 -8 -2 -10 -5 -10
-3 0 -3 1 -1 5 1 4 1 7 -2 7 -1 0 -3 -3 -6 -6 -4 -7 -8 -9 -11 -7 -1 1 -1 2 1
6 1 6 4 7 10 9 3 1 6 1 7 2 1 1 3 1 4 1 l3 0 0 -7z m63 3 c1 -5 0 -8 -4 -13
-4 -5 -18 -30 -22 -39 -2 -7 -4 -9 -6 -10 -3 -2 -3 -2 -5 -1 -1 2 0 4 8 20 5
9 11 21 13 25 7 11 14 22 15 22 0 0 1 -2 1 -4z m-95 -9 c-1 -6 -2 -8 -7 -8 -3
0 -4 0 -4 2 0 2 3 10 5 10 1 1 3 1 4 1 2 0 2 0 2 -5z m-18 -4 c-1 -6 -3 -8 -5
-8 -1 0 -2 1 -2 2 0 3 4 10 6 10 1 0 1 -1 1 -4z m-14 -4 c-1 -6 -3 -9 -6 -9
-2 0 -2 1 -2 3 0 5 4 11 7 11 1 0 1 -1 1 -5z m-16 -6 c-1 -6 -2 -9 -5 -9 -3 0
-3 2 -2 9 1 7 2 7 5 7 2 0 2 0 2 -7z m143 -5 c-1 -7 -1 -9 -7 -19 -6 -12 -6
-12 -10 -12 -3 0 -3 0 -3 3 0 4 17 35 19 35 1 0 1 -3 1 -7z m-193 -9 c-1 -1
-1 -1 -1 2 0 2 0 4 1 4 1 2 1 -4 0 -6z m-12 -4 c0 -7 -1 -10 -4 -15 -14 -28
-18 -38 -21 -45 -2 -7 -4 -9 -6 -10 -4 -2 -5 -1 -5 3 1 8 11 32 19 49 15 30
19 34 17 18z m-12 5 c0 0 -4 -8 -8 -17 -13 -26 -17 -35 -22 -55 -2 -6 -5 -10
-7 -9 -3 1 -2 3 0 14 4 12 8 25 13 36 7 14 13 27 13 29 1 4 11 6 11 2z m-19
-3 c0 -1 -2 -6 -5 -12 -5 -12 -12 -28 -16 -38 -1 -3 -3 -6 -3 -5 -2 1 -1 14 2
24 4 10 12 29 13 31 2 1 9 1 9 0z m-20 -6 c1 -1 -2 -8 -3 -8 -1 0 -2 5 0 8 0
1 3 1 3 0z m-78 -65 c0 -42 0 -48 1 -51 3 -4 1 -4 -5 1 -6 4 -6 4 -6 10 -1 3
-2 7 -2 9 -1 2 -1 6 0 17 1 14 2 21 2 47 0 12 1 14 7 14 l3 0 0 -47z m60 41
c4 -2 4 -8 4 -39 -1 -15 -1 -29 -1 -32 0 -2 -1 -7 -2 -11 -2 -7 -3 -7 -8 -11
-12 -8 -14 -9 -26 -9 l-11 0 -2 10 c-1 16 -1 68 0 72 2 3 7 8 8 7 0 0 0 -10 0
-22 0 -16 1 -21 2 -22 3 -1 3 5 3 28 1 23 1 25 5 27 6 4 23 5 28 2z m-79 -4
c0 -4 -1 -7 -6 -16 -12 -22 -17 -34 -20 -44 -1 -6 -3 -11 -3 -12 -1 0 -3 -1
-5 -1 -3 0 -4 0 -4 2 0 4 10 29 18 45 14 27 16 31 19 31 1 0 1 -1 1 -5z m-13
1 c0 -1 -2 -4 -4 -8 -10 -17 -29 -60 -29 -67 0 0 -1 -2 -3 -3 -3 -2 -7 0 -7 3
0 5 4 15 14 35 15 31 22 42 26 42 2 0 3 -1 3 -2z m-17 -3 c0 -1 -2 -5 -4 -8
-8 -15 -21 -40 -24 -47 -1 -4 -4 -11 -5 -15 0 -4 -1 -8 -2 -9 0 0 -2 -2 -5 -2
-8 -3 -9 -2 -5 7 4 11 16 37 22 46 5 7 11 17 13 21 1 2 3 5 4 6 2 2 6 3 6 1z
m-15 -4 c0 0 -5 -8 -11 -18 -13 -22 -24 -43 -28 -55 -3 -9 -3 -10 -7 -11 -2
-1 -4 -1 -4 0 -1 1 6 18 18 43 1 2 4 8 8 14 12 21 15 26 18 27 3 2 6 2 6 0z
m-20 -6 c0 -1 -7 -15 -11 -20 -6 -10 -18 -33 -27 -55 -1 -4 -3 -8 -4 -9 -3 -1
-6 -1 -6 0 0 2 8 20 12 28 1 4 4 9 5 13 7 16 26 44 30 44 0 0 1 -1 1 -1z m-36
-10 c0 -1 -2 -5 -6 -10 -7 -11 -9 -16 -18 -32 -3 -7 -7 -13 -7 -13 -1 0 2 17
5 24 4 10 3 9 9 18 7 10 10 13 14 13 2 0 3 0 3 0z m99 -10 c0 -5 0 -7 -2 -8
-1 -1 -5 -8 -8 -16 -6 -12 -9 -16 -9 -11 0 5 16 41 18 41 1 0 1 -3 1 -6z
m-120 4 c0 -2 -7 -13 -9 -14 -1 0 -1 1 -1 6 1 4 1 8 2 8 0 2 7 1 8 0z"/>
<path d="M1047 525 c-8 -2 -12 -3 -27 -7 -4 -1 -12 -3 -16 -4 -9 -2 -12 -3
-11 -5 1 0 5 1 11 2 5 2 15 4 22 5 17 4 33 9 33 10 0 1 -2 1 -12 -1z"/>
<path d="M315 230 c0 -1 11 -6 13 -6 0 0 5 -2 10 -4 14 -6 56 -23 82 -33 9 -4
35 -14 51 -21 5 -2 13 -5 17 -7 4 -1 12 -4 18 -7 15 -6 34 -14 40 -16 3 -1 8
-3 11 -4 2 -2 9 -4 14 -6 5 -3 12 -6 16 -7 4 -2 12 -6 20 -8 7 -3 14 -6 16 -7
5 -2 26 -10 31 -12 3 -1 10 -3 15 -5 13 -6 49 -19 67 -25 8 -3 17 -7 19 -8 5
-2 25 -10 39 -15 5 -2 15 -5 22 -8 18 -7 26 -10 31 -10 3 0 8 -1 11 -3 8 -3
33 -12 38 -13 2 -1 6 -2 9 -3 3 -1 6 -2 7 -2 3 2 -2 5 -18 11 -16 6 -20 7 -39
15 -5 2 -16 6 -24 9 -9 3 -20 7 -25 9 -6 2 -13 5 -16 6 -4 2 -7 3 -7 3 -3 0
-21 6 -44 15 -24 10 -28 12 -73 29 -33 13 -53 21 -87 35 -15 5 -30 12 -33 13
-4 2 -16 6 -25 10 -28 11 -83 32 -99 38 -2 1 -10 3 -16 6 -6 2 -20 7 -31 11
-11 5 -23 9 -25 10 -3 1 -9 3 -12 4 -4 1 -10 3 -13 5 -6 2 -10 3 -10 1z"/>
<path d="M417 171 c-1 -2 0 -2 14 -7 26 -9 30 -10 32 -11 1 -1 4 -3 8 -4 3 -1
9 -3 11 -5 3 -1 8 -3 11 -4 10 -3 14 -5 17 -7 2 -1 3 -2 3 -2 1 0 6 -2 11 -5
16 -7 42 -19 42 -19 1 0 20 -8 22 -9 0 0 3 -1 5 -2 2 -1 16 -7 30 -13 14 -7
34 -15 44 -19 9 -5 23 -11 29 -13 6 -3 14 -7 16 -7 3 -1 6 -3 7 -3 2 -1 5 -3
9 -4 4 -2 8 -4 11 -5 13 -6 49 -21 58 -23 4 -1 5 -1 3 2 -2 2 -4 3 -22 10 -27
11 -53 22 -57 25 -2 0 -10 4 -19 8 -8 4 -24 11 -35 15 -21 9 -34 15 -47 20 -5
2 -12 5 -15 7 -4 2 -13 5 -19 8 -6 3 -26 11 -43 19 -18 7 -34 14 -35 14 -2 1
-9 4 -15 7 -6 3 -11 5 -12 5 -1 0 -3 1 -5 2 -7 3 -21 9 -27 11 -3 1 -8 2 -11
4 -6 2 -17 6 -19 6 0 0 -1 0 -2 -1z"/>
<path d="M436 135 c0 -1 8 -5 10 -5 2 0 2 0 1 2 -3 3 -11 6 -11 3z"/>
<path d="M464 124 c0 -1 9 -6 16 -8 3 -2 13 -6 20 -9 7 -3 17 -7 22 -9 7 -3
14 -6 28 -12 2 -1 4 -2 4 -2 1 0 27 -11 34 -14 4 -2 10 -5 15 -7 4 -1 9 -4 12
-5 2 -1 4 -2 4 -2 1 0 28 -13 50 -23 9 -4 17 -9 19 -9 5 -2 8 -2 8 -1 0 2 -4
4 -48 26 -13 5 -30 13 -58 26 -18 7 -48 20 -54 22 -3 1 -7 3 -9 4 -10 4 -20 8
-22 9 -2 0 -7 2 -10 4 -13 6 -31 12 -31 10z"/>
<path d="M412 116 c0 -2 12 -7 40 -18 6 -2 18 -7 26 -10 8 -3 21 -9 28 -11 15
-6 21 -9 34 -15 5 -2 11 -5 14 -6 4 -2 27 -12 30 -14 5 -3 14 -6 16 -5 2 0 1
2 -1 3 -3 2 -44 21 -57 27 -15 6 -24 10 -27 12 -2 0 -9 3 -16 6 -7 3 -15 6
-18 7 -3 2 -18 7 -33 13 -27 11 -36 13 -36 11z"/>
</g>
</svg>
