<?xml version="1.0" encoding="UTF-8" standalone="no"?>
<!-- Created with Inkscape (http://www.inkscape.org/) -->
<svg
   xmlns:svg="http://www.w3.org/2000/svg"
   xmlns="http://www.w3.org/2000/svg"
   version="1.0"
   width="959.99994"
   height="960"
   id="svg10845">
  <defs
     id="defs10847" />
  <g
     transform="translate(-268.1991,361.5997)"
     id="layer1">
    <path
       d="M 268.19914,118.39332 C 268.19914,-146.68535 483.10364,-361.59975 748.19914,-361.59975 C 1013.2946,-361.59975 1228.1991,-146.68535 1228.1991,118.39332 C 1228.1991,383.48585 1013.2946,598.40025 748.19914,598.40025 C 483.10364,598.40025 268.19914,383.48585 268.19914,118.39332"
       style="fill:#176fc1;fill-rule:nonzero;stroke:none"
       id="path10446" />
    <path
       d="M 1005.8297,292.14445 C 1005.8297,292.14445 1005.8297,263.04724 998.55865,232.74342 C 993.14345,210.15078 980.30486,188.23772 974.12793,178.54327 C 973.40775,176.72643 972.29978,174.96507 970.67938,173.34239 L 959.37809,171.09561 C 975.30515,163.52312 986.30174,147.29636 986.30174,128.48997 C 986.30174,102.45781 965.19493,81.349151 939.15765,81.349151 C 913.12037,81.349151 892.01356,102.45781 892.01356,128.48997 C 892.01356,144.7722 895.10202,161.23473 907.64977,169.70871 C 911.70771,172.45477 917.73229,173.9665 923.95077,174.7709 L 914.92082,175.76947 C 914.92082,175.76947 915.6133,175.76947 914.36684,178.54327 C 908.14836,180.2769 894.38184,182.31565 868.857,178.19655 C 843.87229,174.17453 834.96699,157.29593 831.80927,146.42261 C 833.81747,144.60577 835.70102,142.51155 837.33527,140.20929 C 845.42345,128.90604 840.56223,112.73475 830.06422,105.46738 C 826.40792,102.92935 823.65185,100.01686 821.58826,97.28466 C 825.77084,89.739911 827.64054,83.651409 827.64054,83.651409 C 818.74909,58.590082 796.93594,-5.249037 796.93594,-5.249037 C 791.27145,-59.393708 791.27145,-127.28258 791.27145,-127.28258 C 791.27145,-127.28258 792.75336,-138.93256 776.72935,-149.09856 C 738.32436,-173.4387 708.63079,-183.31344 697.10791,-186.55879 L 695.84759,-201.93954 C 706.08246,-210.23322 713.86594,-223.64456 718.09007,-238.04061 C 718.31167,-238.78954 718.50556,-239.53847 718.68561,-240.28739 C 729.46061,-238.62311 737.46569,-237.58293 740.36026,-237.58293 C 752.47867,-237.58293 751.27375,-247.27738 735.51289,-255.76522 C 730.88712,-258.26165 726.88458,-260.1201 722.6743,-261.63182 C 723.86536,-268.38604 726.92613,-285.56976 728.83738,-295.16712 C 731.27491,-307.28865 716.71896,-310.3121 704.60055,-307.28865 C 692.48213,-304.25133 676.72127,-311.53257 670.04576,-315.77649 C 663.38409,-320.02041 659.74164,-318.20357 654.29874,-312.14281 C 649.82532,-307.1777 641.70944,-283.53101 638.91182,-275.12638 L 610.6586,-276.3746 C 610.6586,-276.3746 585.20301,-267.88675 605.81124,-261.82599 C 611.01869,-260.3004 621.41975,-257.98427 634.25835,-255.39076 C 633.80131,-253.4907 633.42737,-251.53517 633.15038,-249.5519 C 630.5882,-230.57908 637.27756,-212.8822 649.28518,-202.57752 L 646.47371,-191.64872 C 639.36886,-188.44498 623.45565,-180.95571 588.83161,-163.64716 C 558.39015,-148.41898 547.4628,-137.90626 543.8065,-131.4849 L 543.16942,-132.92728 C 543.16942,-132.92728 519.73587,-31.114768 518.93259,24.65258 C 518.11547,80.419927 518.11547,132.94192 518.11547,132.94192 L 531.52189,132.94192 C 528.93202,146.40874 527.40856,159.87557 530.24773,173.34239 C 531.05101,179.00095 535.89837,185.46392 541.56287,187.08659 C 548.83391,188.6954 548.83391,186.28219 556.10496,186.28219 C 556.10496,184.65951 567.90484,179.74988 568.22338,179.00095 C 570.64706,173.34239 573.07074,164.45235 564.99642,153.14909 C 560.56454,146.93577 559.33192,145.06345 556.90824,137.79608 C 556.5343,136.29823 555.30168,134.62007 553.98597,132.94192 L 562.57273,132.94192 C 562.57273,132.94192 562.57273,128.90604 566.60297,66.675723 C 570.49471,6.7892761 570.64706,10.520044 583.62415,-31.627921 L 586.00628,-26.260609 C 611.06024,65.053048 590.85365,82.833137 581.9622,110.30767 C 580.27254,115.52243 577.11483,148.29493 584.38588,150.72201 C 586.92036,151.56802 589.84263,152.2476 593.06959,152.81623 C 592.16936,172.70442 592.21091,208.54197 597.32142,267.097 C 606.21287,368.9095 622.37538,418.61609 619.13457,443.66354 C 619.13457,443.66354 573.88787,442.45694 585.20301,470.73588 C 596.50429,499.02869 622.37538,511.95462 622.37538,511.95462 L 628.84315,511.15022 L 632.07011,519.22199 L 645.80893,527.30763 C 645.80893,527.30763 657.12406,531.34352 663.59183,522.45347 C 670.04576,513.56343 668.4392,507.10046 668.4392,507.10046 L 673.28657,486.08889 C 673.28657,486.08889 673.28657,393.97083 662.77471,340.63056 C 652.2767,287.29029 657.12406,258.20695 661.16815,235.5727 C 662.66391,227.1542 665.84932,220.87154 669.24248,216.28089 C 676.41658,232.4383 685.03104,250.23226 695.14126,268.62259 C 697.10791,305.47259 701.55363,399.07463 698.34052,437.60278 C 698.10508,440.39046 697.93888,442.92849 697.81424,445.27235 L 687.02539,453.35799 C 687.02539,453.35799 685.80662,466.69999 689.44907,469.12707 C 693.07767,471.54028 694.29643,481.2486 694.29643,481.2486 C 694.29643,481.2486 706.41485,493.37013 716.10958,509.12534 C 725.81816,524.88055 745.20762,523.67395 752.47867,521.24687 C 759.74972,518.81979 758.5448,528.51424 757.32604,504.27118 C 756.43966,486.3524 746.27404,468.44749 741.02504,460.32024 C 750.40123,459.19685 758.4894,457.60191 759.74972,455.38287 C 762.57504,450.4455 762.32575,315.86048 762.21495,281.49304 C 762.69969,281.03536 762.99053,280.82733 762.99053,280.82733 C 762.99053,280.82733 768.91817,196.32336 731.06716,143.74589 C 739.75087,142.19256 746.70338,141.26334 750.05499,137.79608 C 757.43683,130.14038 753.2958,118.39332 753.2958,118.39332 C 753.2958,118.39332 750.95521,115.41148 741.98066,87.687295 C 723.39448,30.311142 744.40435,-32.723574 744.40435,-32.723574 C 744.40435,-32.723574 751.67539,20.616693 758.14316,40.809993 C 764.61094,61.017162 796.11881,122.4292 796.11881,122.4292 C 798.16856,121.55545 800.1075,120.51528 801.93565,119.35028 C 801.82485,123.4139 801.56171,127.75491 800.96618,131.31925 C 799.35962,141.02756 799.35962,143.44077 807.43395,150.72201 C 808.81891,151.97022 810.38392,152.80237 812.04587,153.28778 C 811.1318,164.79907 811.60268,187.23915 825.21686,208.50037 C 832.04472,219.17952 856.66933,227.66736 876.12805,232.90985 C 838.92798,279.95358 802.18494,306.69306 802.18494,306.69306 C 802.18494,306.69306 809.56679,321.46357 827.05885,335.48515 C 824.19198,361.85017 819.21997,415.05175 822.79317,440.02986 C 827.64054,473.96736 831.26914,448.5177 833.69282,465.47952 C 833.76207,465.88172 833.83132,466.28392 833.90057,466.67226 C 829.66258,466.07589 825.70159,466.89416 822.69623,469.37672 C 815.41133,475.40974 816.58855,488.87656 825.3415,499.44476 C 834.09446,510.02683 847.09925,513.70212 854.398,507.66909 C 856.36464,506.04642 857.69421,503.85511 858.44209,501.34482 L 859.16227,501.85797 C 859.16227,501.85797 862.79086,488.51597 860.36718,471.54028 C 858.082,455.49382 854.70269,432.94279 874.84003,366.98171 C 875.36632,384.12382 877.12522,404.45581 882.19418,414.56633 C 891.88891,433.9691 897.94119,433.9691 905.22609,444.88402 C 910.3366,452.53972 909.45022,466.20071 908.48075,473.63451 C 898.01044,481.87271 893.28772,491.31751 895.51751,495.79721 C 903.23174,511.20569 915.40556,502.8288 927.82866,494.16066 C 935.95839,488.48823 941.16584,480.83253 942.30151,474.03671 L 942.8001,473.96736 C 942.8001,473.96736 960.98464,478.82152 934.31028,437.60278 C 918.66022,413.4152 919.76819,402.4448 925.83432,380.62883 C 928.68734,370.35188 931.26337,362.51588 933.20231,357.07923 C 939.0053,355.95583 945.02989,354.54119 951.28991,352.75209 C 951.28991,352.75209 940.37642,324.87535 944.00501,293.35106 C 945.43153,280.99376 949.65566,264.17063 954.26758,248.27673 C 972.63217,257.52737 976.44082,279.82876 973.10306,290.92398 C 970.13924,300.81259 967.17542,309.07853 966.17825,311.79686 C 958.42247,314.27942 952.67487,322.97529 952.67487,333.34932 C 952.67487,345.66502 960.73535,355.63685 970.67938,355.63685 C 980.6234,355.63685 988.68388,345.66502 988.68388,333.34932 C 988.68388,329.8682 988.01909,326.56737 986.85573,323.62714 C 1003.5584,310.36835 1005.8297,292.14445 1005.8297,292.14445"
       style="fill:white;fill-rule:nonzero;stroke:none"
       id="path10448" />
  </g>
</svg>
