<?xml version="1.0" encoding="UTF-8" standalone="no"?>
<!-- Created with Inkscape (http://www.inkscape.org/) -->
<svg xmlns:svg="http://www.w3.org/2000/svg" xmlns="http://www.w3.org/2000/svg" version="1.0" width="1052.3622" height="744.09448" id="svg2">
  <defs id="defs4"/>
  <g id="layer1">
    <g transform="translate(1.41421)" style="stroke: rgb(0, 0, 0); stroke-width: 10.6299; stroke-miterlimit: 4; stroke-dasharray: none; stroke-opacity: 1;" id="g2269">
      <path d="M 907.55889,55.43788 C 915.54538,62.232106 944.4196,57.48816 949.33441,55.223417" style="fill: none; fill-rule: evenodd; stroke: rgb(0, 0, 0); stroke-width: 10.6299; stroke-linecap: round; stroke-linejoin: round; stroke-miterlimit: 4; stroke-dasharray: none; stroke-opacity: 1;" id="path3131"/>
      <path d="M 934.51921,43.177106 C 930.8331,46.008034 915.6585,92.761826 924.37913,104.82569" style="fill: none; fill-rule: evenodd; stroke: rgb(0, 0, 0); stroke-width: 10.6299; stroke-linecap: round; stroke-linejoin: round; stroke-miterlimit: 4; stroke-dasharray: none; stroke-opacity: 1;" id="path3133"/>
      <path d="M 944.57659,71.48638 C 944.57659,78.280606 923.83568,122.37745 905.8644,114.51649 C 889.66753,107.43169 899.75309,77.770666 926.08703,76.670641 C 949.77698,77.598502 963.13066,97.92131 948.11162,117.80202" style="fill: none; fill-rule: evenodd; stroke: rgb(0, 0, 0); stroke-width: 10.6299; stroke-linecap: round; stroke-linejoin: round; stroke-miterlimit: 4; stroke-dasharray: none; stroke-opacity: 1;" id="path3135"/>
    </g>
    <g transform="matrix(1.12432, 0, 0, 1.10544, -116.134, -18.3204)" style="stroke: rgb(0, 0, 0); stroke-width: 9.53497; stroke-miterlimit: 4; stroke-dasharray: none; stroke-opacity: 1;" id="g2274">
      <path d="M 913.62309,145.54129 C 902.65449,155.59525 902.94904,194.07298 912.60276,194.40025 C 918.03676,194.58446 920.54033,188.15509 924.58997,178.96104" style="fill: none; fill-rule: evenodd; stroke: rgb(0, 0, 0); stroke-width: 9.53497; stroke-linecap: round; stroke-linejoin: round; stroke-miterlimit: 4; stroke-dasharray: none; stroke-opacity: 1;" id="path4106"/>
      <path d="M 948.41446,146.81693 C 959.23376,153.10122 961.75808,189.59452 947.08961,195.27009" style="fill: none; fill-rule: evenodd; stroke: rgb(0, 0, 0); stroke-width: 9.53497; stroke-linecap: round; stroke-linejoin: round; stroke-miterlimit: 4; stroke-dasharray: none; stroke-opacity: 1;" id="path4108"/>
    </g>
    <g style="stroke: rgb(0, 0, 0); stroke-width: 10.6299; stroke-miterlimit: 4; stroke-dasharray: none; stroke-opacity: 1;" id="g2278">
      <path d="M 922.6185,220.40532 C 929.66153,223.42562 935.16974,224.82297 937.12798,227.88499" style="fill: none; fill-rule: evenodd; stroke: rgb(0, 0, 0); stroke-width: 10.6299; stroke-linecap: round; stroke-linejoin: round; stroke-miterlimit: 4; stroke-dasharray: none; stroke-opacity: 1;" id="path7017"/>
      <path d="M 912.50486,250.38108 C 922.207,237.19023 946.51002,239.09357 946.70434,255.8546 C 946.85897,269.19195 939.41069,278.08377 928.40196,293.57379" style="fill: none; fill-rule: evenodd; stroke: rgb(0, 0, 0); stroke-width: 10.6299; stroke-linecap: round; stroke-linejoin: round; stroke-miterlimit: 4; stroke-dasharray: none; stroke-opacity: 1;" id="path7019"/>
    </g>
    <g style="stroke: rgb(0, 0, 0); stroke-width: 10.6299; stroke-miterlimit: 4; stroke-dasharray: none; stroke-opacity: 1;" id="g2282">
      <path d="M 921.72594,310.64096 C 926.73665,316.28047 930.90145,317.90814 936.27633,319.23675" style="fill: none; fill-rule: evenodd; stroke: rgb(0, 0, 0); stroke-width: 10.6299; stroke-linecap: round; stroke-linejoin: round; stroke-miterlimit: 4; stroke-dasharray: none; stroke-opacity: 1;" id="path7021"/>
      <path d="M 913.81827,338.41138 C 921.95935,336.04095 946.83184,330.95941 946.83184,330.95941 C 932.08327,351.36676 905.45661,381.40467 905.68295,381.15403 C 913.22554,372.80189 925.47115,354.48234 932.49121,354.48234 C 942.29017,354.48234 935.04896,382.05049 941.23761,382.03144 C 948.66256,382.00704 955.76427,381.25743 959.82882,381.72129" style="fill: none; fill-rule: evenodd; stroke: rgb(0, 0, 0); stroke-width: 10.6299; stroke-linecap: round; stroke-linejoin: round; stroke-miterlimit: 4; stroke-dasharray: none; stroke-opacity: 1;" id="path7023"/>
    </g>
    <g style="stroke: rgb(0, 0, 0); stroke-width: 10.6299; stroke-miterlimit: 4; stroke-dasharray: none; stroke-opacity: 1;" id="g2286">
      <path d="M 909.40381,411.44594 C 916.98245,416.3209 937.12965,410.69609 937.12965,410.69609" style="fill: none; fill-rule: evenodd; stroke: rgb(0, 0, 0); stroke-width: 10.6299; stroke-linecap: round; stroke-linejoin: round; stroke-miterlimit: 4; stroke-dasharray: none; stroke-opacity: 1;" id="path7025"/>
      <path d="M 924.93102,397.98785 C 921.18049,434.0275 923.446,479.92907 904.3684,468.11228 C 891.95743,460.42484 900.33593,442.62418 936.13779,429.90571 C 963.13037,420.3167 968.49366,455.40538 949.75366,469.28035" style="fill: none; fill-rule: evenodd; stroke: rgb(0, 0, 0); stroke-width: 10.6299; stroke-linecap: round; stroke-linejoin: round; stroke-miterlimit: 4; stroke-dasharray: none; stroke-opacity: 1;" id="path7027"/>
      <path d="M 951.04499,404.44584 C 956.58157,407.12609 963.44408,409.54946 963.04308,417.02471" style="fill: none; fill-rule: evenodd; stroke: rgb(0, 0, 0); stroke-width: 10.6299; stroke-linecap: round; stroke-linejoin: round; stroke-miterlimit: 4; stroke-dasharray: none; stroke-opacity: 1;" id="path7029"/>
    </g>
    <g style="stroke: rgb(0, 0, 0); stroke-width: 10.6299; stroke-miterlimit: 4; stroke-dasharray: none; stroke-opacity: 1;" id="g2295">
      <path d="M 808.52018,64.892798 C 825.72918,67.653966 854.14031,53.518296 854.20692,74.676381 C 854.29574,102.22106 845.55648,108.33388 838.21434,115.50495 C 838.21434,115.50495 838.02776,110.60195 831.57251,105.57954" style="fill: none; fill-rule: evenodd; stroke: rgb(0, 0, 0); stroke-width: 10.6299; stroke-linecap: round; stroke-linejoin: round; stroke-miterlimit: 4; stroke-dasharray: none; stroke-opacity: 1;" id="path8969"/>
      <path d="M 842.13226,42.370304 C 833.34118,58.872467 816.8411,89.288597 807.30376,102.75112" style="fill: none; fill-rule: evenodd; stroke: rgb(0, 0, 0); stroke-width: 10.6299; stroke-linecap: round; stroke-linejoin: round; stroke-miterlimit: 4; stroke-dasharray: none; stroke-opacity: 1;" id="path8971"/>
      <path d="M 864.84125,57.228552 C 870.94575,59.430051 876.46817,72.668883 877.88608,77.489798" style="fill: none; fill-rule: evenodd; stroke: rgb(0, 0, 0); stroke-width: 10.6299; stroke-linecap: round; stroke-linejoin: round; stroke-miterlimit: 4; stroke-dasharray: none; stroke-opacity: 1;" id="path8973"/>
    </g>
    <g style="stroke: rgb(0, 0, 0); stroke-width: 10.6299; stroke-miterlimit: 4; stroke-dasharray: none; stroke-opacity: 1;" id="g2300">
      <path d="M 826.61154,142.58887 C 830.35628,145.50202 853.84603,143.1715 859.29293,141.71492" style="fill: none; fill-rule: evenodd; stroke: rgb(0, 0, 0); stroke-width: 10.6299; stroke-linecap: round; stroke-linejoin: round; stroke-miterlimit: 4; stroke-dasharray: none; stroke-opacity: 1;" id="path8975"/>
      <path d="M 822.98378,159.11543 C 830.91043,161.55002 862.49062,161.44506 868.94198,158.24149" style="fill: none; fill-rule: evenodd; stroke: rgb(0, 0, 0); stroke-width: 10.6299; stroke-linecap: round; stroke-linejoin: round; stroke-miterlimit: 4; stroke-dasharray: none; stroke-opacity: 1;" id="path8977"/>
      <path d="M 839.80546,132.61454 C 839.80546,137.1591 855.85584,168.25714 860.26497,175.63631 C 861.29087,177.35325 849.66988,181.99869 849.66988,181.99869" style="fill: none; fill-rule: evenodd; stroke: rgb(0, 0, 0); stroke-width: 10.6299; stroke-linecap: round; stroke-linejoin: round; stroke-miterlimit: 4; stroke-dasharray: none; stroke-opacity: 1;" id="path8979"/>
      <path d="M 821.07947,189.45987 C 829.82421,201.23854 835.82447,204.97801 852.84603,204.10406" style="fill: none; fill-rule: evenodd; stroke: rgb(0, 0, 0); stroke-width: 10.6299; stroke-linecap: round; stroke-linejoin: round; stroke-miterlimit: 4; stroke-dasharray: none; stroke-opacity: 1;" id="path8981"/>
    </g>
    <path d="M 860.21056,221.04583 C 851.85983,235.9841 828.89423,256.90553 823.42696,257.99898 C 830.31531,261.44316 854.16709,282.38168 858.31229,292.51778" style="fill: none; fill-rule: evenodd; stroke: rgb(0, 0, 0); stroke-width: 10.6299; stroke-linecap: round; stroke-linejoin: round; stroke-miterlimit: 4; stroke-dasharray: none; stroke-opacity: 1;" id="path8983"/>
    <g style="stroke: rgb(0, 0, 0); stroke-width: 10.6299; stroke-miterlimit: 4; stroke-dasharray: none; stroke-opacity: 1;" id="g4244">
      <path d="M 823.34191,311.9418 C 815.3941,323.3767 810.14323,367.94781 816.26125,380.05872 C 816.47543,380.4827 823.25546,373.18743 829.57388,365.30497" style="fill: none; fill-rule: evenodd; stroke: rgb(0, 0, 0); stroke-width: 10.6299; stroke-linecap: round; stroke-linejoin: round; stroke-miterlimit: 4; stroke-dasharray: none; stroke-opacity: 1;" id="path8985"/>
      <path d="M 835.64302,331.58834 C 843.73521,327.56287 866.39504,323.53738 874.15005,326.89195" style="fill: none; fill-rule: evenodd; stroke: rgb(0, 0, 0); stroke-width: 10.6299; stroke-linecap: round; stroke-linejoin: round; stroke-miterlimit: 4; stroke-dasharray: none; stroke-opacity: 1;" id="path8987"/>
      <path d="M 856.74523,308.60634 C 860.79132,317.99914 871.22069,366.49501 856.40806,380.39418" style="fill: none; fill-rule: evenodd; stroke: rgb(0, 0, 0); stroke-width: 10.6299; stroke-linecap: round; stroke-linejoin: round; stroke-miterlimit: 4; stroke-dasharray: none; stroke-opacity: 1;" id="path8989"/>
    </g>
    <g style="stroke: rgb(0, 0, 0); stroke-width: 10.6299; stroke-miterlimit: 4; stroke-dasharray: none; stroke-opacity: 1;" id="g4249">
      <path d="M 821.63181,409.99756 C 827.91689,413.78293 847.8012,400.2165 859.1979,407.35516 C 866.61793,412.00292 856.99566,416.80924 854.34146,419.92504" style="fill: none; fill-rule: evenodd; stroke: rgb(0, 0, 0); stroke-width: 10.6299; stroke-linecap: round; stroke-linejoin: round; stroke-miterlimit: 4; stroke-dasharray: none; stroke-opacity: 1;" id="path8991"/>
      <path d="M 819.77509,453.49142 C 824.4035,466.56159 852.67881,467.91832 861.76895,462.77621" style="fill: none; fill-rule: evenodd; stroke: rgb(0, 0, 0); stroke-width: 10.6299; stroke-linecap: round; stroke-linejoin: round; stroke-miterlimit: 4; stroke-dasharray: none; stroke-opacity: 1;" id="path8993"/>
    </g>
    <g style="stroke: rgb(0, 0, 0); stroke-width: 10.6299; stroke-miterlimit: 4; stroke-dasharray: none; stroke-opacity: 1;" id="g4253">
      <path d="M 726.78206,61.790097 C 735.2082,66.276055 774.80232,63.668874 780.43938,60.397712" style="fill: none; fill-rule: evenodd; stroke: rgb(0, 0, 0); stroke-width: 10.6299; stroke-linecap: round; stroke-linejoin: round; stroke-miterlimit: 4; stroke-dasharray: none; stroke-opacity: 1;" id="path9966"/>
      <path d="M 751.4526,43.265243 C 751.4526,47.727168 765.5206,76.259792 769.11046,83.504798 C 769.94572,85.190525 759.48407,91.751493 759.48407,91.751493" style="fill: none; fill-rule: evenodd; stroke: rgb(0, 0, 0); stroke-width: 10.6299; stroke-linecap: round; stroke-linejoin: round; stroke-miterlimit: 4; stroke-dasharray: none; stroke-opacity: 1;" id="path9968"/>
      <path d="M 733.6049,99.010879 C 736.87698,110.01696 750.85768,116.44081 765.73076,115.54843" style="fill: none; fill-rule: evenodd; stroke: rgb(0, 0, 0); stroke-width: 10.6299; stroke-linecap: round; stroke-linejoin: round; stroke-miterlimit: 4; stroke-dasharray: none; stroke-opacity: 1;" id="path9970"/>
    </g>
    <path d="M 741.60473,131.74953 C 746.02341,145.72513 724.91785,202.70209 749.85293,202.62576 C 770.10509,202.56286 774.11921,174.54084 774.00839,174.67457" style="fill: none; fill-rule: evenodd; stroke: rgb(0, 0, 0); stroke-width: 10.6299; stroke-linecap: round; stroke-linejoin: round; stroke-miterlimit: 4; stroke-dasharray: none; stroke-opacity: 1;" id="path9972"/>
    <g style="stroke: rgb(0, 0, 0); stroke-width: 10.6299; stroke-miterlimit: 4; stroke-dasharray: none; stroke-opacity: 1;" id="g4258">
      <path d="M 723.32754,232.02796 C 730.98587,237.39971 779.8988,236.10712 785.3437,234.10111" style="fill: none; fill-rule: evenodd; stroke: rgb(0, 0, 0); stroke-width: 10.6299; stroke-linecap: round; stroke-linejoin: round; stroke-miterlimit: 4; stroke-dasharray: none; stroke-opacity: 1;" id="path9974"/>
      <path d="M 762.42982,219.91269 C 761.57488,228.22896 770.85208,268.16934 752.39974,269.20339 C 746.84393,269.50996 743.09972,263.66978 743.22336,256.88072 C 743.38822,247.8283 764.94309,246.25989 764.43584,260.60617 C 764.0422,271.51708 765.23349,286.22233 753.25947,293.70245" style="fill: none; fill-rule: evenodd; stroke: rgb(0, 0, 0); stroke-width: 10.6299; stroke-linecap: round; stroke-linejoin: round; stroke-miterlimit: 4; stroke-dasharray: none; stroke-opacity: 1;" id="path9976"/>
    </g>
    <g style="stroke: rgb(0, 0, 0); stroke-width: 10.6299; stroke-miterlimit: 4; stroke-dasharray: none; stroke-opacity: 1;" id="g4262">
      <path d="M 718.60828,339.1552 C 725.16428,343.01167 781.65481,335.57003 787.43952,333.25615" style="fill: none; fill-rule: evenodd; stroke: rgb(0, 0, 0); stroke-width: 10.6299; stroke-linecap: round; stroke-linejoin: round; stroke-miterlimit: 4; stroke-dasharray: none; stroke-opacity: 1;" id="path9978"/>
      <path d="M 772.128,311.81687 C 774.05623,319.91546 769.47106,345.39732 767.08541,351.95331" style="fill: none; fill-rule: evenodd; stroke: rgb(0, 0, 0); stroke-width: 10.6299; stroke-linecap: round; stroke-linejoin: round; stroke-miterlimit: 4; stroke-dasharray: none; stroke-opacity: 1;" id="path9980"/>
      <path d="M 736.04756,309.81687 C 740.47579,321.50063 728.00299,366.54435 742.11932,374.1907 C 751.37484,379.2041 773.4127,373.80505 773.4127,373.80505" style="fill: none; fill-rule: evenodd; stroke: rgb(0, 0, 0); stroke-width: 10.6299; stroke-linecap: round; stroke-linejoin: round; stroke-miterlimit: 4; stroke-dasharray: none; stroke-opacity: 1;" id="path9982"/>
    </g>
    <path d="M 738.42915,399.18236 C 745.42996,405.65517 768.32281,400.21037 768.32281,400.51597 C 768.32281,400.51597 740.26275,419.74161 727.06673,431.99283 C 753.34757,425.13122 765.19043,428.42334 776.57403,429.54802 C 755.45919,440.75905 742.32038,458.21847 755.15317,470.1929" style="fill: none; fill-rule: evenodd; stroke: rgb(0, 0, 0); stroke-width: 10.6299; stroke-linecap: round; stroke-linejoin: round; stroke-miterlimit: 4; stroke-dasharray: none; stroke-opacity: 1;" id="path9984"/>
    <g transform="matrix(0.972025, 0, 0, 0.94635, 17.5736, 4.01649)" style="stroke: rgb(0, 0, 0); stroke-width: 11.0832; stroke-miterlimit: 4; stroke-dasharray: none; stroke-opacity: 1;" id="g4267">
      <path d="M 636.63743,62.616394 C 646.35237,68.045331 674.92573,64.616529 680.6404,62.902128" style="fill: none; fill-rule: evenodd; stroke: rgb(0, 0, 0); stroke-width: 11.0832; stroke-linecap: round; stroke-linejoin: round; stroke-miterlimit: 4; stroke-dasharray: none; stroke-opacity: 1;" id="path10955"/>
      <path d="M 662.63919,42.90078 C 657.21025,51.75852 641.20917,102.61909 633.49437,116.04857" style="fill: none; fill-rule: evenodd; stroke: rgb(0, 0, 0); stroke-width: 11.0832; stroke-linecap: round; stroke-linejoin: round; stroke-miterlimit: 4; stroke-dasharray: none; stroke-opacity: 1;" id="path10957"/>
      <path d="M 665.49652,83.474941 C 670.06826,86.044897 687.10064,77.288284 693.78414,82.332007" style="fill: none; fill-rule: evenodd; stroke: rgb(0, 0, 0); stroke-width: 11.0832; stroke-linecap: round; stroke-linejoin: round; stroke-miterlimit: 4; stroke-dasharray: none; stroke-opacity: 1;" id="path10959"/>
      <path d="M 662.06772,109.4767 C 668.92532,114.6199 681.78333,118.62017 694.35561,114.33417" style="fill: none; fill-rule: evenodd; stroke: rgb(0, 0, 0); stroke-width: 11.0832; stroke-linecap: round; stroke-linejoin: round; stroke-miterlimit: 4; stroke-dasharray: none; stroke-opacity: 1;" id="path10961"/>
    </g>
    <g transform="matrix(0.99208, 0, 0, 0.958006, 6.48261, 5.8339)" style="stroke: rgb(0, 0, 0); stroke-width: 10.9037; stroke-miterlimit: 4; stroke-dasharray: none; stroke-opacity: 1;" id="g4273">
      <path d="M 634.42549,148.89458 C 640.8828,153.38662 682.71492,150.5791 686.92621,147.49082" style="fill: none; fill-rule: evenodd; stroke: rgb(0, 0, 0); stroke-width: 10.9037; stroke-linecap: round; stroke-linejoin: round; stroke-miterlimit: 4; stroke-dasharray: none; stroke-opacity: 1;" id="path10963"/>
      <path d="M 665.86977,132.33018 C 660.81623,138.22599 638.35603,180.61961 638.35603,180.61961 C 638.35603,180.61961 670.32115,153.02497 681.87266,173.03929 C 691.73027,190.11873 670.35244,204.67464 654.63967,205.04508" style="fill: none; fill-rule: evenodd; stroke: rgb(0, 0, 0); stroke-width: 10.9037; stroke-linecap: round; stroke-linejoin: round; stroke-miterlimit: 4; stroke-dasharray: none; stroke-opacity: 1;" id="path10965"/>
    </g>
    <path d="M 632.34381,242.52787 C 641.93231,250.63135 683.1532,221.46977 691.67262,239.92318 C 701.93495,262.15179 671.29707,278.12531 656.91433,277.8359" style="fill: none; fill-rule: evenodd; stroke: rgb(0, 0, 0); stroke-width: 10.6299; stroke-linecap: round; stroke-linejoin: round; stroke-miterlimit: 4; stroke-dasharray: none; stroke-opacity: 1;" id="path10967"/>
    <path d="M 633.22918,315.25179 C 642.34697,322.23219 688.52222,313.34805 696.40834,313.34805 C 666.35237,328.6811 644.7658,350.43817 672.29425,378.07534" style="fill: none; fill-rule: evenodd; stroke: rgb(0, 0, 0); stroke-width: 10.6299; stroke-linecap: round; stroke-linejoin: round; stroke-miterlimit: 4; stroke-dasharray: none; stroke-opacity: 1;" id="path10969"/>
    <g transform="translate(-0.5, 3)" style="stroke: rgb(0, 0, 0); stroke-width: 10.6299; stroke-miterlimit: 4; stroke-dasharray: none; stroke-opacity: 1;" id="g4277">
      <path d="M 641.51237,397.20541 C 643.95991,403.73219 652.17084,421.2943 657.66227,425.05769" style="fill: none; fill-rule: evenodd; stroke: rgb(0, 0, 0); stroke-width: 10.6299; stroke-linecap: round; stroke-linejoin: round; stroke-miterlimit: 4; stroke-dasharray: none; stroke-opacity: 1;" id="path10971"/>
      <path d="M 690.87539,406.96024 C 668.80362,425.12727 640.47335,432.34321 642.11728,451.55131 C 643.42163,466.79177 666.62376,465.06952 694.55098,464.12198" style="fill: none; fill-rule: evenodd; stroke: rgb(0, 0, 0); stroke-width: 10.6299; stroke-linecap: round; stroke-linejoin: round; stroke-miterlimit: 4; stroke-dasharray: none; stroke-opacity: 1;" id="path10973"/>
    </g>
    <g style="stroke: rgb(0, 0, 0); stroke-width: 10.6299; stroke-miterlimit: 4; stroke-dasharray: none; stroke-opacity: 1;" id="g4349">
      <path d="M 547.36939,54.691769 C 555.48,59.224168 575.77943,54.338695 580.55038,52.907411" style="fill: none; fill-rule: evenodd; stroke: rgb(0, 0, 0); stroke-width: 10.6299; stroke-linecap: round; stroke-linejoin: round; stroke-miterlimit: 4; stroke-dasharray: none; stroke-opacity: 1;" id="path11948"/>
      <path d="M 567.0772,42.232001 C 562.0448,54.126969 549.18615,82.088397 542.24537,95.800126" style="fill: none; fill-rule: evenodd; stroke: rgb(0, 0, 0); stroke-width: 10.6299; stroke-linecap: round; stroke-linejoin: round; stroke-miterlimit: 4; stroke-dasharray: none; stroke-opacity: 1;" id="path11950"/>
      <path d="M 594.72104,59.825283 C 598.12942,64.187851 605.02439,68.651535 605.02439,68.651535 C 603.71139,70.182703 601.35112,70.164054 599.5378,74.729745" style="fill: none; fill-rule: evenodd; stroke: rgb(0, 0, 0); stroke-width: 10.6299; stroke-linecap: round; stroke-linejoin: round; stroke-miterlimit: 4; stroke-dasharray: none; stroke-opacity: 1;" id="path11954"/>
      <path d="M 581.98641,68.628629 C 582.70205,86.931976 590.99663,115.44138 571.49033,114.65878 C 562.39837,114.29401 560.83638,106.65268 563.67749,101.25432 C 570.67482,87.958785 597.12942,99.538666 603.80875,104.30962" style="fill: none; fill-rule: evenodd; stroke: rgb(0, 0, 0); stroke-width: 10.6299; stroke-linecap: round; stroke-linejoin: round; stroke-miterlimit: 4; stroke-dasharray: none; stroke-opacity: 1;" id="path11956"/>
    </g>
    <g transform="matrix(0.945689, 0, 0, 0.918684, 30.2796, 14.0504)" style="stroke: rgb(0, 0, 0); stroke-width: 11.4044; stroke-miterlimit: 4; stroke-dasharray: none; stroke-opacity: 1;" id="g4287">
      <path d="M 552.48665,135.06033 C 544.29386,148.90332 541.56742,194.89246 547.96649,204.36501 C 548.76213,198.28685 554.52477,186.67668 558.5494,182.65205" style="fill: none; fill-rule: evenodd; stroke: rgb(0, 0, 0); stroke-width: 11.4044; stroke-linecap: round; stroke-linejoin: round; stroke-miterlimit: 4; stroke-dasharray: none; stroke-opacity: 1;" id="path11958"/>
      <path d="M 573.6749,145.5132 C 584.41029,141.55807 589.38332,132.67021 607.4438,146.92575" style="fill: none; fill-rule: evenodd; stroke: rgb(0, 0, 0); stroke-width: 11.4044; stroke-linecap: round; stroke-linejoin: round; stroke-miterlimit: 4; stroke-dasharray: none; stroke-opacity: 1;" id="path11960"/>
      <path d="M 572.23992,183.82695 C 584.82093,199.23306 595.92976,203.27915 606.98865,199.36501" style="fill: none; fill-rule: evenodd; stroke: rgb(0, 0, 0); stroke-width: 11.4044; stroke-linecap: round; stroke-linejoin: round; stroke-miterlimit: 4; stroke-dasharray: none; stroke-opacity: 1;" id="path11962"/>
    </g>
    <g transform="matrix(0.922667, 0, 0, 0.987329, 43.5043, 5.74243)" style="stroke: rgb(0, 0, 0); stroke-width: 11.1372; stroke-miterlimit: 4; stroke-dasharray: none; stroke-opacity: 1;" id="g4292">
      <path d="M 550.64033,226.55988 C 553.77289,242.68563 562.13781,271.86513 570.42859,281.70404" style="fill: none; fill-rule: evenodd; stroke: rgb(0, 0, 0); stroke-width: 11.1372; stroke-linecap: round; stroke-linejoin: round; stroke-miterlimit: 4; stroke-dasharray: none; stroke-opacity: 1;" id="path11964"/>
      <path d="M 595.02441,221.75624 C 582.15424,242.14331 570.0514,288.9699 555.80146,289.35898 C 548.26906,289.55767 541.14006,286.09475 542.09976,275.96567 C 542.81818,268.38319 556.33583,257.90908 567.94791,251.88167 C 598.20514,236.17623 616.10616,260.34338 606.26939,281.16829 C 598.98279,296.59436 587.2402,289.04408 589.74079,280.15637 C 593.25277,267.67396 606.12758,273.30506 615.43515,289.83514" style="fill: none; fill-rule: evenodd; stroke: rgb(0, 0, 0); stroke-width: 11.1372; stroke-linecap: round; stroke-linejoin: round; stroke-miterlimit: 4; stroke-dasharray: none; stroke-opacity: 1;" id="path11966"/>
    </g>
    <g transform="matrix(0.963682, 0, 0, 1.01294, 20.9034, -3.45825)" style="stroke: rgb(0, 0, 0); stroke-width: 10.759; stroke-miterlimit: 4; stroke-dasharray: none; stroke-opacity: 1;" id="g4296">
      <path d="M 559.57628,311.30429 C 557.46403,322.90472 554.11827,372.37317 555.15788,377.97853" style="fill: none; fill-rule: evenodd; stroke: rgb(0, 0, 0); stroke-width: 10.759; stroke-linecap: round; stroke-linejoin: round; stroke-miterlimit: 4; stroke-dasharray: none; stroke-opacity: 1;" id="path11968"/>
      <path d="M 542.29762,327.50894 C 551.53206,328.05214 560.7665,325.60773 560.7665,325.60773 L 539.58161,366.0763 C 539.58161,366.0763 574.40606,319.94954 594.98824,318.2745 C 609.8835,317.06228 605.01869,374.07181 589.55622,374.22433 C 578.0337,374.33602 571.89017,365.86438 578.69217,357.92826 C 585.21052,350.3231 606.7824,363.54993 611.55591,372.32312" style="fill: none; fill-rule: evenodd; stroke: rgb(0, 0, 0); stroke-width: 10.759; stroke-linecap: round; stroke-linejoin: round; stroke-miterlimit: 4; stroke-dasharray: none; stroke-opacity: 1;" id="path11970"/>
    </g>
    <path d="M 573.44794,416.74659 C 574.3784,444.88035 559.81761,465.7113 547.8623,462.55706 C 535.98682,459.42388 543.14676,416.9483 577.8467,411.75924 C 608.50847,407.17405 619.61597,447.57913 596.58419,464.93051" style="fill: none; fill-rule: evenodd; stroke: rgb(0, 0, 0); stroke-width: 10.6299; stroke-linecap: round; stroke-linejoin: round; stroke-miterlimit: 4; stroke-dasharray: none; stroke-opacity: 1;" id="path11974"/>
    <g style="stroke: rgb(0, 0, 0); stroke-width: 10.6299; stroke-miterlimit: 4; stroke-dasharray: none; stroke-opacity: 1;" id="g4300">
      <path d="M 460.3033,46.63079 C 465.85304,55.379534 447.20404,110.80534 457.55455,115.86949 C 463.26855,118.66515 466.49866,104.28248 470.244,101.48808" style="fill: none; fill-rule: evenodd; stroke: rgb(0, 0, 0); stroke-width: 10.6299; stroke-linecap: round; stroke-linejoin: round; stroke-miterlimit: 4; stroke-dasharray: none; stroke-opacity: 1;" id="path12945"/>
      <path d="M 487.77465,61.111695 C 496.81486,63.178027 517.21988,57.753906 522.12742,58.012197" style="fill: none; fill-rule: evenodd; stroke: rgb(0, 0, 0); stroke-width: 10.6299; stroke-linecap: round; stroke-linejoin: round; stroke-miterlimit: 4; stroke-dasharray: none; stroke-opacity: 1;" id="path12947"/>
      <path d="M 508.95455,45.097624 C 509.63565,62.715741 520.92606,115.13827 499.65606,113.54486 C 489.31296,112.77002 482.31624,109.5145 483.3837,101.66345 C 485.40028,86.831795 509.42842,95.947876 521.43546,106.53783" style="fill: none; fill-rule: evenodd; stroke: rgb(0, 0, 0); stroke-width: 10.6299; stroke-linecap: round; stroke-linejoin: round; stroke-miterlimit: 4; stroke-dasharray: none; stroke-opacity: 1;" id="path12949"/>
    </g>
    <path d="M 452.25425,152.53985 C 460.84777,151.16306 470.8516,147.46097 479.10891,141.26799 C 471.0519,154.69634 459.17064,201.22563 482.5964,201.5601 C 512.25048,201.9835 508.79011,150.47111 508.79011,150.47111 C 510.34655,154.36221 517.28916,163.17811 522.26509,166.73046" style="fill: none; fill-rule: evenodd; stroke: rgb(0, 0, 0); stroke-width: 10.6299; stroke-linecap: round; stroke-linejoin: round; stroke-miterlimit: 4; stroke-dasharray: none; stroke-opacity: 1;" id="path12951"/>
    <g style="stroke: rgb(0, 0, 0); stroke-width: 10.6299; stroke-miterlimit: 4; stroke-dasharray: none; stroke-opacity: 1;" id="g4305">
      <path d="M 481.80814,222.20343 C 483.80746,226.72701 486.6161,230.204 489.18347,231.88732 L 484.34341,234.42259" style="fill: none; fill-rule: evenodd; stroke: rgb(0, 0, 0); stroke-width: 10.6299; stroke-linecap: round; stroke-linejoin: round; stroke-miterlimit: 4; stroke-dasharray: none; stroke-opacity: 1;" id="path12953"/>
      <path d="M 484.57389,250.45032 C 497.73711,256.83853 496.72032,288.8339 485.26533,290.09273 C 478.97342,290.78417 475.81568,283.17835 475.81568,283.17835" style="fill: none; fill-rule: evenodd; stroke: rgb(0, 0, 0); stroke-width: 10.6299; stroke-linecap: round; stroke-linejoin: round; stroke-miterlimit: 4; stroke-dasharray: none; stroke-opacity: 1;" id="path12955"/>
      <path d="M 466.59275,255.10272 C 465.44035,261.09517 461.20533,271.52603 453.68969,275.80302" style="fill: none; fill-rule: evenodd; stroke: rgb(0, 0, 0); stroke-width: 10.6299; stroke-linecap: round; stroke-linejoin: round; stroke-miterlimit: 4; stroke-dasharray: none; stroke-opacity: 1;" id="path12957"/>
      <path d="M 511.69611,250.83697 C 518.23533,261.06621 524.64465,275.0367 522.25534,277.11536 C 518.8126,280.11047 513.69013,273.11997 512.23138,272.34584" style="fill: none; fill-rule: evenodd; stroke: rgb(0, 0, 0); stroke-width: 10.6299; stroke-linecap: round; stroke-linejoin: round; stroke-miterlimit: 4; stroke-dasharray: none; stroke-opacity: 1;" id="path12959"/>
    </g>
    <path d="M 451.46532,371.61825 C 459.83576,365.82387 466.05454,353.15298 470.19562,347.97663 C 477.46622,354.23592 501.42907,367.83355 521.55402,375.06599" style="fill: none; fill-rule: evenodd; stroke: rgb(0, 0, 0); stroke-width: 10.6299; stroke-linecap: round; stroke-linejoin: round; stroke-miterlimit: 4; stroke-dasharray: none; stroke-opacity: 1;" id="path12961"/>
    <g transform="translate(0, 3)" style="stroke: rgb(0, 0, 0); stroke-width: 10.6299; stroke-miterlimit: 4; stroke-dasharray: none; stroke-opacity: 1;" id="g4311">
      <path d="M 459.61421,401.62718 C 453.30491,409.92951 450.12702,460.64715 456.66538,461.08304 C 460.74677,461.35514 465.73282,445.47838 465.73282,445.47838" style="fill: none; fill-rule: evenodd; stroke: rgb(0, 0, 0); stroke-width: 10.6299; stroke-linecap: round; stroke-linejoin: round; stroke-miterlimit: 4; stroke-dasharray: none; stroke-opacity: 1;" id="path12963"/>
      <path d="M 488.27935,403.67137 C 496.04313,402.00255 514.21751,403.49289 518.65147,404.75974" style="fill: none; fill-rule: evenodd; stroke: rgb(0, 0, 0); stroke-width: 10.6299; stroke-linecap: round; stroke-linejoin: round; stroke-miterlimit: 4; stroke-dasharray: none; stroke-opacity: 1;" id="path12965"/>
      <path d="M 487.69098,424.30627 C 495.51694,428.9596 514.59916,425.5041 519.19566,423.53418" style="fill: none; fill-rule: evenodd; stroke: rgb(0, 0, 0); stroke-width: 10.6299; stroke-linecap: round; stroke-linejoin: round; stroke-miterlimit: 4; stroke-dasharray: none; stroke-opacity: 1;" id="path12967"/>
      <path d="M 503.19332,404.75974 C 506.28169,433.01325 515.64763,469.14731 487.9561,462.17142 C 477.00698,459.41318 481.08669,441.00101 491.22122,442.5807 C 506.48007,444.95913 514.29687,447.9703 519.73984,456.41327" style="fill: none; fill-rule: evenodd; stroke: rgb(0, 0, 0); stroke-width: 10.6299; stroke-linecap: round; stroke-linejoin: round; stroke-miterlimit: 4; stroke-dasharray: none; stroke-opacity: 1;" id="path12969"/>
    </g>
    <g style="stroke: rgb(0, 0, 0); stroke-width: 10.6299; stroke-miterlimit: 4; stroke-dasharray: none; stroke-opacity: 1;" id="g4325">
      <path d="M 378.32592,60.700797 C 390.8457,62.534102 412.24181,51.691117 418.52725,54.043148 C 420.7842,54.887708 417.59442,55.869495 413.91455,62.463278" style="fill: none; fill-rule: evenodd; stroke: rgb(0, 0, 0); stroke-width: 10.6299; stroke-linecap: round; stroke-linejoin: round; stroke-miterlimit: 4; stroke-dasharray: none; stroke-opacity: 1;" id="path13940"/>
      <path d="M 382.05705,78.8813 C 389.40609,84.514696 414.30007,82.436226 418.10129,78.339211" style="fill: none; fill-rule: evenodd; stroke: rgb(0, 0, 0); stroke-width: 10.6299; stroke-linecap: round; stroke-linejoin: round; stroke-miterlimit: 4; stroke-dasharray: none; stroke-opacity: 1;" id="path13942"/>
      <path d="M 397.6259,43.481889 C 399.14639,60.126014 405.51148,117.71552 389.22276,115.24231 C 381.90158,114.13069 373.20829,113.52585 373.76445,104.48764 C 374.74859,88.494345 411.06714,100.49344 419.11496,109.48633" style="fill: none; fill-rule: evenodd; stroke: rgb(0, 0, 0); stroke-width: 10.6299; stroke-linecap: round; stroke-linejoin: round; stroke-miterlimit: 4; stroke-dasharray: none; stroke-opacity: 1;" id="path13944"/>
    </g>
    <g transform="matrix(0.962982, 0, 0, 0.96581, 17.1955, 2.65107)" style="stroke: rgb(0, 0, 0); stroke-width: 11.0224; stroke-miterlimit: 4; stroke-dasharray: none; stroke-opacity: 1;" id="g4336">
      <path d="M 378.57421,146.57357 C 384.18748,149.20507 396.19527,141.35091 396.19527,141.35091 C 396.42093,154.82525 385.11845,198.85994 370.3112,197.65551 C 355.36752,196.43998 362.31681,178.4706 373.75651,174.64383 C 399.52353,166.02435 426.40093,184.20569 432.18217,193.46932" style="fill: none; fill-rule: evenodd; stroke: rgb(0, 0, 0); stroke-width: 11.0224; stroke-linecap: round; stroke-linejoin: round; stroke-miterlimit: 4; stroke-dasharray: none; stroke-opacity: 1;" id="path13946"/>
      <path d="M 424.01031,161.31445 C 424.92393,175.0069 420.42837,195.11967 410.67049,203.84171" style="fill: none; fill-rule: evenodd; stroke: rgb(0, 0, 0); stroke-width: 11.0224; stroke-linecap: round; stroke-linejoin: round; stroke-miterlimit: 4; stroke-dasharray: none; stroke-opacity: 1;" id="path13948"/>
    </g>
    <g transform="matrix(0.93292, 0, 0, 0.877001, 24.2498, 31.1036)" style="stroke: rgb(0, 0, 0); stroke-width: 11.7519; stroke-miterlimit: 4; stroke-dasharray: none; stroke-opacity: 1;" id="g4340">
      <path d="M 370.2211,234.06427 C 374.37143,237.17702 389.15699,234.84245 389.15699,234.84245" style="fill: none; fill-rule: evenodd; stroke: rgb(0, 0, 0); stroke-width: 11.7519; stroke-linecap: round; stroke-linejoin: round; stroke-miterlimit: 4; stroke-dasharray: none; stroke-opacity: 1;" id="path13950"/>
      <path d="M 381.11572,221.61327 C 382.9127,248.58306 385.86001,274.95484 378.00297,273.75182 C 362.07265,271.31267 366.42092,250.81728 371.25868,250.4062 C 395.81416,248.31966 372.5993,284.48825 384.02545,291.37193 C 398.93865,300.35638 425.99103,295.82206 429.75427,288.2216 C 433.27539,281.11012 426.39924,270.77251 422.80695,264.85719" style="fill: none; fill-rule: evenodd; stroke: rgb(0, 0, 0); stroke-width: 11.7519; stroke-linecap: round; stroke-linejoin: round; stroke-miterlimit: 4; stroke-dasharray: none; stroke-opacity: 1;" id="path13952"/>
      <path d="M 415.85964,230.2636 C 418.67908,235.18082 423.68303,240.13571 430.03245,242.25218" style="fill: none; fill-rule: evenodd; stroke: rgb(0, 0, 0); stroke-width: 11.7519; stroke-linecap: round; stroke-linejoin: round; stroke-miterlimit: 4; stroke-dasharray: none; stroke-opacity: 1;" id="path13954"/>
    </g>
    <g transform="matrix(0.931869, 0, 0, 0.987773, 32.5602, 4.32173)" style="stroke: rgb(0, 0, 0); stroke-width: 11.0796; stroke-miterlimit: 4; stroke-dasharray: none; stroke-opacity: 1;" id="g4359">
      <path d="M 395.58784,399.6526 C 392.92603,416.95435 369.07963,468.02282 388.26787,470.52323 C 404.60237,472.65177 410.17364,462.33904 413.88048,453.88511" style="fill: none; fill-rule: evenodd; stroke: rgb(0, 0, 0); stroke-width: 11.0796; stroke-linecap: round; stroke-linejoin: round; stroke-miterlimit: 4; stroke-dasharray: none; stroke-opacity: 1;" id="path13956"/>
      <path d="M 377.12793,408.96346 C 389.66189,417.74587 400.85605,415.1121 404.73143,410.46164" style="fill: none; fill-rule: evenodd; stroke: rgb(0, 0, 0); stroke-width: 11.0796; stroke-linecap: round; stroke-linejoin: round; stroke-miterlimit: 4; stroke-dasharray: none; stroke-opacity: 1;" id="path13958"/>
      <path d="M 373.13886,432.92155 C 378.79372,436.58272 395.24715,442.74316 404.39688,435.42337" style="fill: none; fill-rule: evenodd; stroke: rgb(0, 0, 0); stroke-width: 11.0796; stroke-linecap: round; stroke-linejoin: round; stroke-miterlimit: 4; stroke-dasharray: none; stroke-opacity: 1;" id="path13960"/>
    </g>
    <g transform="translate(6)" style="stroke: rgb(0, 0, 0); stroke-width: 10.6299; stroke-miterlimit: 4; stroke-dasharray: none; stroke-opacity: 1;" id="g4355">
      <path d="M 374.38152,319.10678 C 375.57049,324.84422 389.20256,360.32539 395.80662,368.1357" style="fill: none; fill-rule: evenodd; stroke: rgb(0, 0, 0); stroke-width: 10.6299; stroke-linecap: round; stroke-linejoin: round; stroke-miterlimit: 4; stroke-dasharray: none; stroke-opacity: 1;" id="path13962"/>
      <path d="M 419.40321,316.44918 C 417.9648,321.96306 393.28615,371.34589 377.82658,374.36878 C 370.08035,375.88344 362.43505,371.03333 363.44254,358.54634 C 364.01689,351.42771 370.91432,344.29148 381.55301,338.55241 C 411.77191,322.25074 440.01157,351.85332 417.56081,375.64958" style="fill: none; fill-rule: evenodd; stroke: rgb(0, 0, 0); stroke-width: 10.6299; stroke-linecap: round; stroke-linejoin: round; stroke-miterlimit: 4; stroke-dasharray: none; stroke-opacity: 1;" id="path13964"/>
    </g>
    <g transform="matrix(0.912465, 0, 0, 0.922643, 28.6921, 5.01387)" style="stroke: rgb(0, 0, 0); stroke-width: 11.5852; stroke-miterlimit: 4; stroke-dasharray: none; stroke-opacity: 1;" id="g4364">
      <path d="M 270.26164,69.733718 C 281.36581,74.608716 335.00788,48.252967 341.76164,54.837884 C 352.59498,65.400384 335.53248,78.400383 331.74081,84.62955" style="fill: none; fill-rule: evenodd; stroke: rgb(0, 0, 0); stroke-width: 11.5852; stroke-linecap: round; stroke-linejoin: round; stroke-miterlimit: 4; stroke-dasharray: none; stroke-opacity: 1;" id="path14935"/>
      <path d="M 313.05331,44.275383 C 313.0504,52.125479 318.10774,67.384915 321.71998,72.442051" style="fill: none; fill-rule: evenodd; stroke: rgb(0, 0, 0); stroke-width: 11.5852; stroke-linecap: round; stroke-linejoin: round; stroke-miterlimit: 4; stroke-dasharray: none; stroke-opacity: 1;" id="path14937"/>
      <path d="M 280.28247,50.233717 C 285.42831,54.025384 311.15748,106.02539 310.61581,117.67122" style="fill: none; fill-rule: evenodd; stroke: rgb(0, 0, 0); stroke-width: 11.5852; stroke-linecap: round; stroke-linejoin: round; stroke-miterlimit: 4; stroke-dasharray: none; stroke-opacity: 1;" id="path14939"/>
    </g>
    <g transform="matrix(0.972743, 0, 0, 0.924054, 6.47258, 21.1889)" style="stroke: rgb(0, 0, 0); stroke-width: 11.212; stroke-miterlimit: 4; stroke-dasharray: none; stroke-opacity: 1;" id="g4369">
      <path d="M 279.46433,235.21848 C 286.29879,246.03554 284.71104,262.45029 284.71104,262.45029 C 288.34692,233.63192 340.56971,212.03898 342.17839,243.46375 C 343.37387,266.81672 309.3844,281.41362 299.20302,268.19557" style="fill: none; fill-rule: evenodd; stroke: rgb(0, 0, 0); stroke-width: 11.212; stroke-linecap: round; stroke-linejoin: round; stroke-miterlimit: 4; stroke-dasharray: none; stroke-opacity: 1;" id="path14941"/>
      <path d="M 311.69758,218.47807 C 321.44543,246.97406 319.44142,283.19098 312.69529,293.43511" style="fill: none; fill-rule: evenodd; stroke: rgb(0, 0, 0); stroke-width: 11.212; stroke-linecap: round; stroke-linejoin: round; stroke-miterlimit: 4; stroke-dasharray: none; stroke-opacity: 1;" id="path14943"/>
    </g>
    <path d="M 319.55416,418.01045 C 322.18267,419.3247 334.79954,415.38193 334.79954,415.38193" style="fill: none; fill-rule: evenodd; stroke: rgb(0, 0, 0); stroke-width: 10.6299; stroke-linecap: round; stroke-linejoin: round; stroke-miterlimit: 4; stroke-dasharray: none; stroke-opacity: 1;" id="path14945"/>
    <path d="M 315.61139,400.66225 C 319.02846,409.86205 327.4397,470.84359 309.30295,470.84359 C 289.81291,470.84359 278.1209,461.02331 288.27484,451.12973 C 298.52604,441.14137 334.24135,453.95611 341.37083,461.90664" style="fill: none; fill-rule: evenodd; stroke: rgb(0, 0, 0); stroke-width: 10.6299; stroke-linecap: round; stroke-linejoin: round; stroke-miterlimit: 4; stroke-dasharray: none; stroke-opacity: 1;" id="path14947"/>
    <g transform="matrix(0.926251, 0, 0, 0.955348, 10.6248, 5.32368)" style="stroke: rgb(0, 0, 0); stroke-width: 11.3002; stroke-miterlimit: 4; stroke-dasharray: none; stroke-opacity: 1;" id="g4391">
      <path d="M 119.72541,46.157017 C 119.8827,60.843167 116.54119,93.73638 116.63498,113.36537" style="fill: none; fill-rule: evenodd; stroke: rgb(0, 0, 0); stroke-width: 11.3002; stroke-linecap: round; stroke-linejoin: round; stroke-miterlimit: 4; stroke-dasharray: none; stroke-opacity: 1;" id="path14949"/>
      <path d="M 101.59391,62.606901 C 107.27402,62.379697 117.63498,66.516472 117.63498,66.516472 L 95.143272,107.91247 C 95.143272,107.91247 128.096,55.879667 152.39873,56.564326 C 171.60795,57.10549 169.80302,108.23086 149.98916,113.91096" style="fill: none; fill-rule: evenodd; stroke: rgb(0, 0, 0); stroke-width: 11.3002; stroke-linecap: round; stroke-linejoin: round; stroke-miterlimit: 4; stroke-dasharray: none; stroke-opacity: 1;" id="path14951"/>
    </g>
    <g transform="matrix(0.934771, 0, 0, 0.957349, 10.8825, 17.3625)" style="stroke: rgb(0, 0, 0); stroke-width: 11.2368; stroke-miterlimit: 4; stroke-dasharray: none; stroke-opacity: 1;" id="g4395">
      <path d="M 112.77807,415.20044 C 120.17085,415.99252 141.82111,410.976 141.82111,410.976" style="fill: none; fill-rule: evenodd; stroke: rgb(0, 0, 0); stroke-width: 11.2368; stroke-linecap: round; stroke-linejoin: round; stroke-miterlimit: 4; stroke-dasharray: none; stroke-opacity: 1;" id="path14953"/>
      <path d="M 134.16431,400.67892 C 117.10826,433.25382 122.82533,423.31651 114.36224,436.05862 C 119.95338,432.33119 119.73457,430.18966 128.09167,429.72196 C 134.92116,429.33975 143.55833,437.71167 143.14125,446.3557" style="fill: none; fill-rule: evenodd; stroke: rgb(0, 0, 0); stroke-width: 11.2368; stroke-linecap: round; stroke-linejoin: round; stroke-miterlimit: 4; stroke-dasharray: none; stroke-opacity: 1;" id="path14955"/>
      <path d="M 151.06208,424.70543 C 144.98944,428.40182 104.18482,457.49669 111.76155,467.47791 C 118.43189,476.26509 153.85416,469.85416 153.85416,469.85416" style="fill: none; fill-rule: evenodd; stroke: rgb(0, 0, 0); stroke-width: 11.2368; stroke-linecap: round; stroke-linejoin: round; stroke-miterlimit: 4; stroke-dasharray: none; stroke-opacity: 1;" id="path14957"/>
    </g>
    <path d="M 41.214462,48.938461 C 35.938019,75.142892 13.690241,112.97702 13.690241,112.97702 C 13.690241,112.97702 32.616924,79.774041 34.948272,79.614917 C 50.080319,78.582096 49.435312,111.67574 57.140725,111.66391 C 70.990442,111.64265 72.471136,90.753649 75.829099,85.635152" style="fill: none; fill-rule: evenodd; stroke: rgb(0, 0, 0); stroke-width: 10.6299; stroke-linecap: round; stroke-linejoin: round; stroke-miterlimit: 4; stroke-dasharray: none; stroke-opacity: 1;" id="path14959"/>
    <g transform="translate(1.5, -0.5)" style="stroke: rgb(0, 0, 0); stroke-width: 10.6299; stroke-miterlimit: 4; stroke-dasharray: none; stroke-opacity: 1;" id="g4373">
      <path d="M 211.99163,45.721694 C 215.2866,50.338382 222.97899,53.673165 227.98358,55.455929" style="fill: none; fill-rule: evenodd; stroke: rgb(0, 0, 0); stroke-width: 10.6299; stroke-linecap: round; stroke-linejoin: round; stroke-miterlimit: 4; stroke-dasharray: none; stroke-opacity: 1;" id="path15930"/>
      <path d="M 208.28335,61.018349 C 202.02562,71.447884 199.70795,93.465797 199.70795,93.465797 C 199.70795,93.465797 215.98656,68.951711 231.69186,80.950352 C 246.5502,92.301916 232.84755,114.9281 217.09051,113.62957" style="fill: none; fill-rule: evenodd; stroke: rgb(0, 0, 0); stroke-width: 10.6299; stroke-linecap: round; stroke-linejoin: round; stroke-miterlimit: 4; stroke-dasharray: none; stroke-opacity: 1;" id="path15932"/>
    </g>
    <g transform="matrix(0.919308, 0, 0, 0.958195, 18.9889, 8.31597)" style="stroke: rgb(0, 0, 0); stroke-width: 11.3259; stroke-miterlimit: 4; stroke-dasharray: none; stroke-opacity: 1;" id="g4377">
      <path d="M 206.85385,132.60176 C 202.56619,140.72317 202.29822,159.15254 206.31789,165.08742" style="fill: none; fill-rule: evenodd; stroke: rgb(0, 0, 0); stroke-width: 11.3259; stroke-linecap: round; stroke-linejoin: round; stroke-miterlimit: 4; stroke-dasharray: none; stroke-opacity: 1;" id="path15934"/>
      <path d="M 233.02752,132.47704 C 243.61911,165.78609 225.2073,197.51349 215.07298,205.56978" style="fill: none; fill-rule: evenodd; stroke: rgb(0, 0, 0); stroke-width: 11.3259; stroke-linecap: round; stroke-linejoin: round; stroke-miterlimit: 4; stroke-dasharray: none; stroke-opacity: 1;" id="path15936"/>
    </g>
    <path d="M 207.75573,225.98681 C 222.81687,226.77228 238.4159,223.63042 238.4159,223.63042 C 238.4159,223.63042 198.03315,257.61195 196.19092,259.35986 C 192.33008,263.02308 233.72756,230.9869 245.40858,250.8598 C 253.87124,265.25733 235.91887,290.61516 219.05158,290.9184 C 206.17717,291.14986 208.30856,277.74652 215.29882,274.82553 C 224.92035,270.80502 229.17251,278.8433 233.31839,281.37105" style="fill: none; fill-rule: evenodd; stroke: rgb(0, 0, 0); stroke-width: 10.6299; stroke-linecap: round; stroke-linejoin: round; stroke-miterlimit: 4; stroke-dasharray: none; stroke-opacity: 1;" id="path15938"/>
    <g transform="translate(-6.5, 0.5)" style="stroke: rgb(0, 0, 0); stroke-width: 10.6299; stroke-miterlimit: 4; stroke-dasharray: none; stroke-opacity: 1;" id="g4387">
      <path d="M 217.02672,310.47065 C 213.90623,337.09852 212.89237,356.62179 215.14343,379.10182" style="fill: none; fill-rule: evenodd; stroke: rgb(0, 0, 0); stroke-width: 10.6299; stroke-linecap: round; stroke-linejoin: round; stroke-miterlimit: 4; stroke-dasharray: none; stroke-opacity: 1;" id="path15940"/>
      <path d="M 200.28419,325.15368 C 207.55026,327.48604 222.57584,319.93114 222.57584,319.93114 C 215.1534,337.27819 211.6804,352.62438 195.4611,372.83736 C 221.82533,340.71833 241.06322,313.70025 256.44421,320.48898 C 247.79441,341.9913 246.38377,371.42164 259.55825,378.27951" style="fill: none; fill-rule: evenodd; stroke: rgb(0, 0, 0); stroke-width: 10.6299; stroke-linecap: round; stroke-linejoin: round; stroke-miterlimit: 4; stroke-dasharray: none; stroke-opacity: 1;" id="path15942"/>
    </g>
    <path d="M 202.13043,401.96814 C 220.03192,407.30167 234.06633,401.86798 234.06633,401.86798 C 225.73216,409.48016 208.0643,427.4255 195.06329,440.20426 C 195.06329,440.20426 231.52937,406.7304 242.20034,423.40293 C 253.88979,441.66676 235.7023,463.72118 216.76501,468.43982" style="fill: none; fill-rule: evenodd; stroke: rgb(0, 0, 0); stroke-width: 10.6299; stroke-linecap: round; stroke-linejoin: round; stroke-miterlimit: 4; stroke-dasharray: none; stroke-opacity: 1;" id="path15944"/>
    <text x="456.976" y="706.892" transform="scale(1.19679, 0.835568)" style="font-size: 65.8596px; font-style: normal; font-variant: normal; font-weight: 300; font-stretch: normal; text-align: center; line-height: 125%; text-anchor: middle; fill: rgb(0, 0, 0); fill-opacity: 1; stroke: none; stroke-width: 1px; stroke-linecap: butt; stroke-linejoin: miter; stroke-opacity: 1; font-family: Bookman Old Style;" id="text2303" xml:space="preserve"><tspan x="456.976" y="706.892" id="tspan2305">Hiragana</tspan><tspan x="456.976" y="789.216" id="tspan2307">(Japanese letters)</tspan></text>
  </g>
</svg>