<?xml version="1.0" encoding="UTF-8" standalone="no"?>
<!-- Created with Inkscape (http://www.inkscape.org/) -->
<svg xmlns:dc="http://purl.org/dc/elements/1.1/" xmlns:cc="http://creativecommons.org/ns#" xmlns:rdf="http://www.w3.org/1999/02/22-rdf-syntax-ns#" xmlns:svg="http://www.w3.org/2000/svg" xmlns="http://www.w3.org/2000/svg" xmlns:sodipodi="http://sodipodi.sourceforge.net/DTD/sodipodi-0.dtd" xmlns:inkscape="http://www.inkscape.org/namespaces/inkscape" width="128" height="128" id="svg2" sodipodi:version="0.32" inkscape:version="0.46" version="1.0" sodipodi:docname="general.svg" inkscape:output_extension="org.inkscape.output.svg.inkscape" inkscape:export-xdpi="90" inkscape:export-ydpi="90">
  <defs id="defs4">
    <filter inkscape:collect="always" id="filter3443" x="-0.12513924" width="1.2502785" y="-0.32663372" height="1.6532674">
      <feGaussianBlur inkscape:collect="always" stdDeviation="1.9634296" id="feGaussianBlur3445"/>
    </filter>
  </defs>
  <sodipodi:namedview id="base" pagecolor="#ffffff" bordercolor="#666666" borderopacity="1.0" gridtolerance="10000" guidetolerance="10" objecttolerance="10" inkscape:pageopacity="0" inkscape:pageshadow="2" inkscape:zoom="1" inkscape:cx="64" inkscape:cy="64" inkscape:document-units="px" inkscape:current-layer="g2868" showgrid="false" inkscape:window-width="1306" inkscape:window-height="841" inkscape:window-x="303" inkscape:window-y="130" showguides="true" inkscape:guide-bbox="true"/>
  <metadata id="metadata7">
    <rdf:RDF>
      <cc:Work rdf:about="">
        <dc:format>image/svg+xml</dc:format>
        <dc:type rdf:resource="http://purl.org/dc/dcmitype/StillImage"/>
        <cc:license rdf:resource="http://creativecommons.org/licenses/by-sa/3.0/"/>
        <dc:title>Fedora WEBCOMIC 2.0</dc:title>
        <dc:date>May 2008</dc:date>
        <dc:creator>
          <cc:Agent>
            <dc:title>Nicu Buculei</dc:title>
          </cc:Agent>
        </dc:creator>
        <dc:rights>
          <cc:Agent>
            <dc:title>Nicu Buculei</dc:title>
          </cc:Agent>
        </dc:rights>
        <dc:subject>
          <rdf:Bag>
            <rdf:li>fedora</rdf:li>
            <rdf:li>webcomic</rdf:li>
            <rdf:li>nicubunu</rdf:li>
          </rdf:Bag>
        </dc:subject>
        <dc:language>en-US</dc:language>
      </cc:Work>
      <cc:License rdf:about="http://creativecommons.org/licenses/by-sa/3.0/">
        <cc:permits rdf:resource="http://creativecommons.org/ns#Reproduction"/>
        <cc:permits rdf:resource="http://creativecommons.org/ns#Distribution"/>
        <cc:requires rdf:resource="http://creativecommons.org/ns#Notice"/>
        <cc:requires rdf:resource="http://creativecommons.org/ns#Attribution"/>
        <cc:permits rdf:resource="http://creativecommons.org/ns#DerivativeWorks"/>
        <cc:requires rdf:resource="http://creativecommons.org/ns#ShareAlike"/>
      </cc:License>
    </rdf:RDF>
  </metadata>
  <g inkscape:label="Layer 1" inkscape:groupmode="layer" id="layer1">
    <path id="path3149" d="M 60.74766,112.56568 C 55.28292,112.98806 53.92483,109.3058 49.25278,113.45519 C 47.83947,114.8685 47.52738,117.67244 47.91852,119.23698 C 50.79312,123.088 53.91713,122.11662 58.52389,123.68451 C 60.80022,124.2536 62.78681,124.57402 65.63994,124.57402 C 68.53975,124.57402 70.3239,126.01245 73.20075,124.57402 C 75.43184,123.45848 77.49146,123.80213 79.4273,122.35025 C 80.93966,121.21598 81.6537,119.22642 82.09582,117.45797 C 82.87965,114.32264 80.21919,113.85113 78.53779,113.01044 C 76.37679,111.92994 72.63142,112.59683 70.97698,113.01044 C 69.2037,113.45376 67.66096,110.78667 65.19519,110.78667 C 63.19584,110.78667 64.13577,112.56568 60.74766,112.56568 z" style="fill: rgb(0, 0, 0); fill-opacity: 0.728395; fill-rule: evenodd; stroke: none; stroke-width: 1px; stroke-linecap: butt; stroke-linejoin: miter; stroke-opacity: 1; filter: url(#filter3443);" sodipodi:nodetypes="ccccsssssssc" transform="matrix(1.22973, -0.0689981, 0.0614404, 0.909768, -26.1825, 13.7336)"/>
    <g transform="translate(-237.488, -101.709)" id="g3765"/>
    <g id="g4184" transform="translate(-302.488, -113.709)"/>
    <g id="g4406" transform="translate(-369.909, 245.291)"/>
    <g id="g5711" transform="matrix(0.737798, 0, 0, 0.737798, -303.817, -87.6843)">
      <g transform="matrix(1.25015, 0, 0, 1.25015, 365.815, 50.0294)" id="g2868">
        <path id="path2866" d="M 111.96309,97.631393 C 110.44213,98.057613 114.57915,102.73894 115.13746,103.71814 C 116.00291,105.23603 119.62893,106.80516 121.08956,107.92496 C 122.33017,108.87608 125.89194,106.64431 126.78163,105.96272 C 128.2789,104.81565 130.5003,105.18541 131.49354,105.74384 C 134.59286,107.48634 132.15365,104.35365 131.16618,103.26536 C 130.39061,102.41061 127.74502,101.70976 126.56274,101.25081 C 124.55296,100.47063 123.81278,99.131103 122.01355,98.119543 C 120.29643,97.154137 118.68307,97.584143 116.8658,98.093393 C 115.73057,98.411513 113.42916,97.520023 111.96309,97.631393 z" style="fill: rgb(40, 23, 11); fill-rule: evenodd; stroke: rgb(18, 10, 4); stroke-width: 1.38204px; stroke-linecap: butt; stroke-linejoin: miter; stroke-opacity: 1;"/>
        <path sodipodi:nodetypes="ccccccccc" id="path2820" d="M 109.54434,151.91032 C 111.72148,154.63478 111.50644,155.70744 114.36909,160.09598 C 113.8504,162.64129 114.81486,165.07827 114.99409,167.59598 C 114.479,169.80473 115.13072,173.29408 113.61909,174.84598 C 110.9891,176.83375 106.95429,176.74081 105.49409,174.22098 C 105.74435,173.21995 105.55392,172.62304 105.99409,171.59598 C 107.28017,168.85684 106.67106,165.73187 106.24409,162.84598 C 106.18637,159.05505 102.11791,156.27382 102.26033,152.47986 C 104.4277,151.67899 108.17626,150.31423 109.54434,151.91032 z" style="fill: rgb(38, 68, 38); fill-opacity: 1; fill-rule: evenodd; stroke: rgb(24, 44, 24); stroke-width: 1.38204px; stroke-linecap: butt; stroke-linejoin: miter; stroke-opacity: 1;"/>
        <path sodipodi:nodetypes="cccccccccc" id="path2818" d="M 114.44061,175.54161 C 116.79586,177.1801 120.09775,177.91245 122.3336,180.30015 C 122.65257,181.24283 122.51396,182.27295 122.51951,183.25895 C 122.22521,184.52704 121.37353,185.25056 120.33528,185.93892 C 117.67021,186.62513 114.91823,185.52159 112.378,184.73583 C 110.10848,184.3878 107.48259,183.54919 106.09968,181.62483 C 103.91664,179.04226 103.7843,177.11246 104.41599,173.94749 C 106.36596,173.81941 105.82861,166.11255 105.94801,164.29945 C 108.40518,167.23538 114.17199,166.12407 115.56813,166.13692 C 117.46106,166.44825 113.954,175.48437 114.44061,175.54161 z" style="fill: rgb(85, 34, 0); fill-rule: evenodd; stroke: rgb(43, 17, 0); stroke-width: 1.38204px; stroke-linecap: butt; stroke-linejoin: miter; stroke-opacity: 1;"/>
        <path sodipodi:nodetypes="ccc" id="path2824" d="M 121.69332,184.22973 C 118.50806,184.5305 115.09595,184.47852 112.79915,183.24187 C 109.94869,182.51797 107.43671,181.61369 105.10748,178.45164" style="fill: rgb(85, 34, 0); fill-rule: evenodd; stroke: rgb(43, 17, 0); stroke-width: 1.38204px; stroke-linecap: butt; stroke-linejoin: miter; stroke-opacity: 1;"/>
        <path sodipodi:nodetypes="cccccccc" style="fill: rgb(38, 68, 38); fill-opacity: 1; fill-rule: evenodd; stroke: rgb(24, 44, 24); stroke-width: 1.38204px; stroke-linecap: butt; stroke-linejoin: miter; stroke-opacity: 1;" d="M 95.076274,151.87111 C 94.931114,152.65014 91.888547,157.50139 92.153177,158.82453 C 93.096637,161.6196 91.98976,163.87711 91.29074,166.72098 C 91.30667,169.51064 90.41852,174.17055 92.41574,176.22098 C 95.26131,177.34799 98.12205,178.06625 100.54074,175.59598 C 99.29521,171.7442 100.0811,168.0558 100.67462,164.0442 C 100.7035,160.24373 103.56435,157.49833 103.42094,153.67809 C 101.25357,152.87722 96.444354,150.27502 95.076274,151.87111 z" id="path2822"/>
        <path sodipodi:nodetypes="cccccccccc" id="path2814" d="M 91.60174,176.09096 C 88.42592,176.71509 85.81277,177.31198 83.11646,179.27294 C 82.5163,179.99187 82.54353,180.68568 82.58613,181.57104 C 82.82342,182.33508 83.0968,183.08341 83.29323,183.86914 C 86.04536,184.12614 89.08559,185.77461 91.95966,184.84921 C 94.97836,184.88778 98.02951,183.83077 100.52896,182.01298 C 101.10645,180.30345 100.48659,177.98557 100.35218,176.09096 C 99.824311,176.24298 101.42663,168.07664 100.73129,165.76686 C 98.274873,166.93892 92.367714,167.25711 91.152512,167.08755 C 89.105284,169.7295 92.995301,176.31735 91.60174,176.09096 z" style="fill: rgb(85, 34, 0); fill-rule: evenodd; stroke: rgb(43, 17, 0); stroke-width: 1.38204px; stroke-linecap: butt; stroke-linejoin: miter; stroke-opacity: 1;"/>
        <path sodipodi:nodetypes="ccc" id="path2816" d="M 83.29323,182.36653 C 86.54463,181.81031 89.79462,183.94392 93.18002,183.4906 C 96.32375,183.3866 97.9551,181.10188 100.2638,180.95232" style="fill: rgb(85, 34, 0); fill-rule: evenodd; stroke: rgb(43, 17, 0); stroke-width: 1.38204px; stroke-linecap: butt; stroke-linejoin: miter; stroke-opacity: 1;"/>
        <path sodipodi:nodetypes="cccccccccccc" id="path2794" d="M 117.97547,156.60111 C 115.17036,153.13985 116.71496,147.1452 117.07274,143.18124 C 115.84461,138.22419 117.37916,133.33918 116.32642,128.38377 C 115.86065,125.27801 118.72275,122.4084 117.16221,119.70027 C 115.37794,117.2872 110.87,116.16424 107.84115,116.00942 C 103.9552,116.57859 100.03257,116.05412 96.17388,116.8933 C 93.32659,118.13218 88.36423,119.05934 88.04736,122.13225 C 87.90983,124.90618 90.803347,129.32371 89.517027,131.82831 C 89.129877,136.2797 87.808437,141.30819 88.434927,145.77223 C 89.329397,150.96561 87.795191,153.1276 88.370581,158.30714 C 92.852461,155.74134 98.10434,158.27693 103.19317,157.70726 C 107.46131,156.18144 115.3275,159.8375 117.97547,156.60111 z" style="fill: rgb(66, 119, 66); fill-opacity: 1; fill-rule: evenodd; stroke: rgb(42, 77, 42); stroke-width: 1.38204px; stroke-linecap: butt; stroke-linejoin: miter; stroke-opacity: 1;"/>
        <path sodipodi:nodetypes="ccccc" id="path2792" d="M 97.807265,120.16537 C 98.463587,125.02437 107.19555,125.5012 111.15665,121.94273 C 110.53071,119.25395 110.36352,116.16051 108.05711,114.29303 C 105.9077,113.52805 103.62211,113.6442 101.37766,113.76809 C 99.377825,114.69526 97.822491,118.38129 97.807265,120.16537 z" style="fill: rgb(233, 210, 175); fill-opacity: 1; fill-rule: evenodd; stroke: rgb(63, 45, 16); stroke-width: 1.38204px; stroke-linecap: butt; stroke-linejoin: miter; stroke-opacity: 1;"/>
        <path style="fill: rgb(233, 210, 175); fill-opacity: 1; fill-rule: evenodd; stroke: rgb(63, 45, 16); stroke-width: 1.38204px; stroke-linecap: butt; stroke-linejoin: miter; stroke-opacity: 1;" d="M 89.279811,82.54233 C 87.870609,87.342799 89.913205,92.996141 91.171351,97.697981 C 89.348077,103.55211 89.585202,108.88926 95.137545,113.55944 C 101.56249,115.64797 115.29241,116.61406 117.49179,107.56941 C 118.85831,96.191961 116.37862,102.74454 118.96472,93.240264 C 119.81956,80.926762 115.45061,72.580092 103.87502,73.474709 C 95.873213,73.212589 92.438815,77.339288 89.279811,82.54233 z" id="path4422" sodipodi:nodetypes="ccccccc"/>
        <path style="fill: rgb(40, 23, 11); fill-opacity: 1; fill-rule: evenodd; stroke: rgb(18, 10, 4); stroke-width: 1.38204px; stroke-linecap: butt; stroke-linejoin: miter; stroke-opacity: 1;" d="M 104.35922,100.14105 C 98.798159,99.829476 95.929596,103.11407 92.750161,105.08381 C 92.210837,105.26385 91.835315,105.99259 91.414983,106.48351 C 89.73506,109.99785 92.173912,113.82571 95.316767,116.01212 C 97.949604,117.54043 100.63204,118.04311 103.51999,117.54082 C 106.25057,117.05471 109.22093,117.1906 111.631,115.89424 C 115.61468,115.30905 116.99963,113.14022 117.46838,109.2492 C 117.293,106.60128 115.99321,103.46467 113.73158,102.16574 C 110.78506,101.3319 107.42272,99.631876 104.35922,100.14105 z M 103.58544,103.50974 C 105.40061,104.03526 108.92652,105.1016 110.32826,106.27836 C 110.89119,108.60009 109.79169,110.91055 107.39635,110.63074 C 105.84007,108.75412 102.72621,109.21477 100.97789,110.9743 C 98.892404,111.34645 98.019906,108.86486 98.073237,107.1281 C 98.750047,105.30285 102.00639,104.48378 103.58544,103.50974 z" id="path2654" sodipodi:nodetypes="ccccccccccccccc"/>
        <path style="fill: rgb(40, 23, 11); fill-opacity: 1; fill-rule: evenodd; stroke: rgb(18, 10, 4); stroke-width: 1.38204px; stroke-linecap: butt; stroke-linejoin: miter; stroke-opacity: 1;" d="M 103.91255,79.61335 C 108.39414,78.58335 107.65798,77.517133 108.79884,76.12303 C 117.55433,75.260836 117.9288,83.796936 116.93719,87.28325 C 118.59356,85.788842 117.72244,85.033859 119.76839,86.475248 C 120.2381,86.877758 119.88297,90.535862 119.80262,91.010154 C 119.71811,91.508977 117.94147,97.873173 118.31483,98.025207 C 122.79244,95.307876 123.60462,83.370776 118.83039,76.833845 C 115.30757,72.010352 109.09762,70.086169 103.75316,71.896201 C 88.380862,68.719525 83.018896,87.868585 90.577231,101.06765 C 91.458557,98.081851 88.944231,92.084485 90.054145,88.834191 C 90.977832,88.011247 91.220717,89.638304 92.414936,89.509889 C 88.396519,81.377879 92.809449,76.983032 98.192453,76.136528 C 99.574666,74.912975 99.543828,79.178157 103.91255,79.61335 z" id="path2665" sodipodi:nodetypes="ccccscscccccc"/>
        <path sodipodi:nodetypes="cccc" id="path2696" d="M 107.49076,89.269019 C 106.07539,92.244483 107.10304,94.019864 110.03496,93.634947 C 110.92686,94.045375 112.835,91.884764 112.42942,90.424136 C 112.81557,86.525844 109.43296,86.385098 107.49076,89.269019 z" style="fill: rgb(255, 255, 255); fill-rule: evenodd; stroke: rgb(51, 51, 51); stroke-width: 1.38204px; stroke-linecap: butt; stroke-linejoin: miter; stroke-opacity: 1;"/>
        <path sodipodi:nodetypes="ccc" id="path2698" d="M 99.577746,87.137765 C 96.985862,87.623514 95.743826,89.40089 96.202576,92.082583 C 99.10176,97.149182 104.89264,90.024319 99.577746,87.137765 z" style="fill: rgb(255, 255, 255); fill-rule: evenodd; stroke: rgb(51, 51, 51); stroke-width: 1.38204px; stroke-linecap: butt; stroke-linejoin: miter; stroke-opacity: 1;"/>
        <path sodipodi:nodetypes="cssc" id="path2700" d="M 110.47167,90.263282 C 110.99724,90.283145 109.86225,88.214723 108.52585,89.737664 C 107.49003,90.918068 108.56959,92.518906 109.32841,92.652544 C 110.85247,92.92095 111.12632,90.4736 110.47167,90.263282 z" style="fill: rgb(0, 0, 0); fill-rule: evenodd; stroke: rgb(0, 0, 0); stroke-width: 1.38204px; stroke-linecap: butt; stroke-linejoin: miter; stroke-opacity: 1;"/>
        <path sodipodi:nodetypes="cssc" id="path2702" d="M 98.352561,89.453592 C 98.825539,88.51258 96.178805,89.229925 96.819666,91.428492 C 97.261955,92.945815 98.93446,92.044513 99.061083,91.965662 C 100.75917,90.908258 99.446304,88.119267 98.352561,89.453592 z" style="fill: rgb(0, 0, 0); fill-rule: evenodd; stroke: rgb(0, 0, 0); stroke-width: 1.38204px; stroke-linecap: butt; stroke-linejoin: miter; stroke-opacity: 1;"/>
        <path sodipodi:nodetypes="ccc" id="path2704" d="M 102.30389,92.964012 C 101.16616,95.133429 97.916382,100.33316 102.9338,100.22544 C 107.61638,100.21461 105.18913,94.907528 105.05559,92.884542" style="fill: rgb(233, 210, 175); fill-opacity: 1; fill-rule: evenodd; stroke: rgb(63, 45, 16); stroke-width: 1.38204px; stroke-linecap: butt; stroke-linejoin: miter; stroke-opacity: 1;"/>
        <path sodipodi:nodetypes="cc" id="path2706" d="M 101.22219,106.74089 C 102.18013,107.16594 104.91763,106.99341 106.59645,106.82985" style="fill: none; fill-rule: evenodd; stroke: rgb(63, 45, 16); stroke-width: 1.38204px; stroke-linecap: butt; stroke-linejoin: miter; stroke-opacity: 1;"/>
        <path sodipodi:nodetypes="cc" id="path2708" d="M 118.25474,87.661411 C 125.66808,84.704179 122.59176,94.838346 118.4054,93.664726" style="fill: rgb(233, 210, 175); fill-opacity: 1; fill-rule: evenodd; stroke: rgb(63, 45, 16); stroke-width: 1.38204px; stroke-linecap: butt; stroke-linejoin: miter; stroke-opacity: 1;"/>
        <path sodipodi:nodetypes="cs" id="path2710" d="M 119.22978,89.177755 C 121.35734,87.594817 122.17113,90.781446 119.05514,92.175276" style="fill: rgb(233, 210, 175); fill-opacity: 1; fill-rule: evenodd; stroke: rgb(63, 45, 16); stroke-width: 1.38204px; stroke-linecap: butt; stroke-linejoin: miter; stroke-opacity: 1;"/>
        <path style="fill: rgb(233, 210, 175); fill-opacity: 1; fill-rule: evenodd; stroke: rgb(63, 45, 16); stroke-width: 1.38204px; stroke-linecap: butt; stroke-linejoin: miter; stroke-opacity: 1;" d="M 90.738489,89.739241 C 82.991532,87.818965 87.419082,97.439873 91.40665,95.70716" id="path2743" sodipodi:nodetypes="cc"/>
        <path style="fill: rgb(233, 210, 175); fill-opacity: 1; fill-rule: evenodd; stroke: rgb(63, 45, 16); stroke-width: 1.38204px; stroke-linecap: butt; stroke-linejoin: miter; stroke-opacity: 1;" d="M 89.979,91.374227 C 87.65571,90.095725 87.283404,93.363481 90.560156,94.320052" id="path2745" sodipodi:nodetypes="cs"/>
        <path style="fill: rgb(66, 119, 66); fill-opacity: 1; fill-rule: evenodd; stroke: rgb(42, 77, 42); stroke-width: 1.38204px; stroke-linecap: butt; stroke-linejoin: miter; stroke-opacity: 1;" d="M 90.84638,126.1353 C 91.338118,128.6314 89.510905,128.75973 89.289785,131.26561 C 89.23602,133.78899 89.937132,138.19983 90.520004,140.63842 C 86.332892,141.22557 81.701736,139.26191 77.306326,138.99783 C 77.23166,136.88233 78.462808,134.04163 78.348386,131.92175 C 78.330439,129.09774 79.454227,128.57959 80.052956,125.98569 C 80.91211,124.21783 87.939848,118.62701 91.056948,119.32155" id="path2798" sodipodi:nodetypes="ccccccc"/>
        <path sodipodi:nodetypes="ccccc" id="path5572" d="M 84.02324,120.70962 C 90.970121,137.77967 104.68745,145.82246 118.243,154.08095 L 118.80862,147.01076 C 108.44421,138.87352 96.596756,132.59006 91.941857,117.31593 L 84.02324,120.70962 z" style="fill: rgb(156, 0, 156); fill-opacity: 1; fill-rule: evenodd; stroke: rgb(61, 0, 61); stroke-width: 1.1055px; stroke-linecap: butt; stroke-linejoin: miter; stroke-opacity: 1;"/>
        <path sodipodi:nodetypes="ccccccccccc" id="path5580" d="M 85.562751,163.45638 C 86.188714,165.75158 87.655157,167.90344 89.162308,169.28066 C 90.448562,170.41655 91.836992,171.34588 93.261803,170.18055 C 94.094589,168.28272 93.340144,166.18548 92.761865,164.30627 C 91.947237,161.93876 90.718932,159.5667 89.38728,158.45699 C 86.306755,158.58917 85.587134,160.6656 85.562751,163.45638 z M 89.512264,160.10679 C 90.556032,161.0609 90.254397,162.05426 91.01208,164.25628 C 91.907179,166.86393 93.846019,170.63967 89.912215,167.78084 C 88.519723,166.50839 87.986412,165.36065 87.412523,163.2564 C 86.839947,160.97137 87.287679,160.51597 89.512264,160.10679 z" style="fill: rgb(80, 45, 22); fill-opacity: 1; fill-rule: evenodd; stroke: rgb(40, 23, 11); stroke-width: 1.38204px; stroke-linecap: butt; stroke-linejoin: miter; stroke-opacity: 1;"/>
        <path sodipodi:nodetypes="ccccccc" id="path2796" d="M 114.33496,128.70919 C 114.49613,129.60478 114.95959,129.9985 115.80168,132.36899 C 116.48612,134.79836 116.85867,136.292 116.90556,138.79883 C 121.10619,138.31787 124.30665,137.18382 128.49559,135.8266 C 128.03769,133.75991 126.3559,131.69236 125.93539,129.61146 C 125.24502,126.87308 123.56183,126.00509 122.33213,123.64403 C 120.74617,121.92205 117.95242,120.21098 116.06656,118.69137" style="fill: rgb(66, 119, 66); fill-opacity: 1; fill-rule: evenodd; stroke: rgb(42, 77, 42); stroke-width: 1.38204px; stroke-linecap: butt; stroke-linejoin: miter; stroke-opacity: 1;"/>
        <path sodipodi:nodetypes="ccsccsccc" transform="matrix(0.799901, 0, 0, 0.799901, -292.616, -40.0186)" id="path5578" d="M 476.5,250.25 C 476.66547,243.24869 485.91372,241.74678 489.75,238.75 C 496.10209,230.99192 504.03776,227.55917 509.58058,220.89604 C 510.35732,219.96231 510.2236,217.10172 511.625,216.75 C 512.90965,216.0788 516.0718,218.40426 515.375,220.375 C 514.53014,221.13476 512.2129,221.14702 511.41369,221.91093 C 504.60627,228.41763 499.10732,235.04329 489,241.25 C 486.04167,244.08333 485.32923,248.99264 478.375,252.25 L 476.5,250.25 z" style="fill: rgb(120, 68, 33); fill-rule: evenodd; stroke: rgb(40, 23, 11); stroke-width: 1.38204px; stroke-linecap: butt; stroke-linejoin: miter; stroke-opacity: 1;"/>
        <path style="fill: rgb(233, 210, 175); fill-opacity: 1; fill-rule: evenodd; stroke: rgb(63, 45, 16); stroke-width: 1.38204px; stroke-linecap: butt; stroke-linejoin: miter; stroke-opacity: 1;" d="M 88.410834,142.33456 C 89.772871,145.34889 91.926843,148.44611 94.823612,150.07252 C 96.365587,150.39785 96.769427,148.1522 98.355425,149.05176 C 98.873907,150.40462 97.943795,151.46613 97.05296,152.48966 C 98.868693,153.50552 101.23657,153.79575 100.84962,156.56409 C 99.498475,156.72465 98.027137,156.03161 97.064719,155.19379 C 97.753083,156.46217 100.35225,158.15295 97.461312,158.69364 C 95.824827,158.61039 95.55279,157.06173 94.675616,155.89757 C 94.710331,157.8272 95.808161,160.02443 93.092029,158.46998 C 92.274025,157.50393 92.289187,156.43936 92.28063,155.24929 C 91.714498,154.10169 90.595414,153.25258 89.702346,152.31364 C 86.876156,150.96819 84.82691,148.73163 82.743006,146.45017 C 82.915932,143.45736 79.515992,142.21135 79.451137,139.37191 L 88.068641,140.80236 C 88.124403,141.32664 88.223305,141.84137 88.410834,142.33456 z" id="path2810" sodipodi:nodetypes="ccccccccccccccc"/>
        <path sodipodi:nodetypes="cccccccccccccccc" id="path2808" d="M 118.3058,142.33007 C 116.52996,145.12072 113.95844,147.88109 110.86025,149.08017 C 109.28773,149.18348 109.20651,146.90326 107.50895,147.56875 C 106.8038,148.83439 107.57394,150.0171 108.31059,151.15664 C 106.36912,151.90467 103.98402,151.8561 103.97438,154.65133 C 105.28908,155.00193 106.84385,154.5246 107.91537,153.83177 C 107.05405,154.98968 104.24133,156.29468 107.02635,157.23998 C 108.6581,157.38969 109.14706,155.89528 110.18049,154.86732 C 109.87242,156.7725 108.47402,158.7918 111.38318,157.63834 C 112.32994,156.79808 112.46594,155.74213 112.64322,154.5653 C 113.36641,153.50961 114.59462,152.82782 115.61185,152.02505 C 118.60031,151.09409 120.94609,149.17083 123.33253,147.20804 C 123.58586,144.22096 127.19909,142.97493 127.66605,140.1734 C 128.06743,139.09221 127.67279,137.43025 127.77322,136.32747 L 119.29402,138.61037 C 119.04904,139.87473 118.92967,141.20334 118.3058,142.33007 z" style="fill: rgb(233, 210, 175); fill-opacity: 1; fill-rule: evenodd; stroke: rgb(63, 45, 16); stroke-width: 1.38204px; stroke-linecap: butt; stroke-linejoin: miter; stroke-opacity: 1;"/>
        <path sodipodi:nodetypes="cccc" transform="matrix(0.799901, 0, 0, 0.799901, -292.616, -40.0186)" id="path5576" d="M 472.70089,156.45733 C 488.02982,159.0086 504.52499,158.2036 520.78414,156.10377 C 514.07649,148.21755 516.95131,131.62303 498.51028,131.35503 C 471.26677,131.30324 481.06788,148.56112 472.70089,156.45733 z" style="fill: rgb(102, 102, 102); fill-opacity: 1; fill-rule: evenodd; stroke: rgb(26, 26, 26); stroke-width: 1.38204px; stroke-linecap: butt; stroke-linejoin: miter; stroke-opacity: 1;"/>
      </g>
      <path transform="matrix(1.40731, 0.539268, -0.43227, 1.65646, -81.702, -361.422)" d="M 463.5,197.25 L 463.4185,198.91133 L 465.04182,199.02773 L 463.80944,200.14484 L 464.875,201.375 L 463.21367,201.2935 L 463.09727,202.91682 L 461.98016,201.68444 L 460.75,202.75 L 460.8315,201.08867 L 459.20818,200.97227 L 460.44056,199.85516 L 459.375,198.625 L 461.03633,198.7065 L 461.15273,197.08318 L 462.26984,198.31556 L 463.5,197.25 z" inkscape:randomized="0" inkscape:rounded="0" inkscape:flatsided="false" sodipodi:arg2="-0.69962459" sodipodi:arg1="-1.1071487" sodipodi:r2="1.6906592" sodipodi:r1="3.0745933" sodipodi:cy="200" sodipodi:cx="462.125" sodipodi:sides="8" id="path5586" style="opacity: 1; fill: rgb(255, 203, 0); fill-opacity: 1; stroke: rgb(151, 65, 7); stroke-width: 0.691022; stroke-linejoin: round; stroke-miterlimit: 4; stroke-dasharray: none; stroke-dashoffset: 0pt; stroke-opacity: 1;" sodipodi:type="star"/>
      <path sodipodi:type="star" style="opacity: 1; fill: rgb(255, 203, 0); fill-opacity: 1; stroke: rgb(151, 65, 7); stroke-width: 0.691022; stroke-linejoin: round; stroke-miterlimit: 4; stroke-dasharray: none; stroke-dashoffset: 0pt; stroke-opacity: 1;" id="path5588" sodipodi:sides="8" sodipodi:cx="462.125" sodipodi:cy="200" sodipodi:r1="3.0745933" sodipodi:r2="1.6906592" sodipodi:arg1="-1.1071487" sodipodi:arg2="-0.69962459" inkscape:flatsided="false" inkscape:rounded="0" inkscape:randomized="0" d="M 463.5,197.25 L 463.4185,198.91133 L 465.04182,199.02773 L 463.80944,200.14484 L 464.875,201.375 L 463.21367,201.2935 L 463.09727,202.91682 L 461.98016,201.68444 L 460.75,202.75 L 460.8315,201.08867 L 459.20818,200.97227 L 460.44056,199.85516 L 459.375,198.625 L 461.03633,198.7065 L 461.15273,197.08318 L 462.26984,198.31556 L 463.5,197.25 z" transform="matrix(1.40731, 0.539268, -0.43227, 1.65646, -80.0608, -350.911)"/>
      <g transform="translate(42.5, 15.625)" id="g5596">
        <path style="fill: rgb(85, 0, 0); fill-rule: evenodd; stroke: rgb(43, 0, 0); stroke-width: 1.38204px; stroke-linecap: butt; stroke-linejoin: miter; stroke-opacity: 1;" d="M 456.375,195.875 L 454,192 L 460.75,192.375 L 458.125,196 L 456.375,195.875 z" id="path5594"/>
        <path sodipodi:type="arc" style="opacity: 1; fill: rgb(255, 203, 0); fill-opacity: 1; stroke: rgb(151, 65, 7); stroke-width: 0.691022; stroke-linejoin: round; stroke-miterlimit: 4; stroke-dasharray: none; stroke-dashoffset: 0pt; stroke-opacity: 1;" id="path5590" sodipodi:cx="457.375" sodipodi:cy="196.8125" sodipodi:rx="2.125" sodipodi:ry="2.1875" d="M 459.5,196.8125 A 2.125,2.1875 0 1 1 455.25,196.8125 A 2.125,2.1875 0 1 1 459.5,196.8125 z"/>
      </g>
      <g id="g5600" transform="translate(49.5, 15.625)">
        <path id="path5602" d="M 456.375,195.875 L 454,192 L 460.75,192.375 L 458.125,196 L 456.375,195.875 z" style="fill: rgb(255, 0, 255); fill-rule: evenodd; stroke: rgb(128, 0, 128); stroke-width: 1.38204px; stroke-linecap: butt; stroke-linejoin: miter; stroke-opacity: 1;"/>
        <path d="M 459.5,196.8125 A 2.125,2.1875 0 1 1 455.25,196.8125 A 2.125,2.1875 0 1 1 459.5,196.8125 z" sodipodi:ry="2.1875" sodipodi:rx="2.125" sodipodi:cy="196.8125" sodipodi:cx="457.375" id="path5604" style="opacity: 1; fill: rgb(255, 203, 0); fill-opacity: 1; stroke: rgb(151, 65, 7); stroke-width: 0.691022; stroke-linejoin: round; stroke-miterlimit: 4; stroke-dasharray: none; stroke-dashoffset: 0pt; stroke-opacity: 1;" sodipodi:type="arc"/>
      </g>
      <g id="g5606" transform="translate(43.375, 23.375)">
        <path id="path5608" d="M 456.375,195.875 L 454,192 L 460.75,192.375 L 458.125,196 L 456.375,195.875 z" style="fill: rgb(0, 0, 255); fill-rule: evenodd; stroke: rgb(0, 0, 128); stroke-width: 1.38204px; stroke-linecap: butt; stroke-linejoin: miter; stroke-opacity: 1;"/>
        <path d="M 459.5,196.8125 A 2.125,2.1875 0 1 1 455.25,196.8125 A 2.125,2.1875 0 1 1 459.5,196.8125 z" sodipodi:ry="2.1875" sodipodi:rx="2.125" sodipodi:cy="196.8125" sodipodi:cx="457.375" id="path5610" style="opacity: 1; fill: rgb(255, 203, 0); fill-opacity: 1; stroke: rgb(151, 65, 7); stroke-width: 0.691022; stroke-linejoin: round; stroke-miterlimit: 4; stroke-dasharray: none; stroke-dashoffset: 0pt; stroke-opacity: 1;" sodipodi:type="arc"/>
      </g>
      <g transform="translate(49.75, 23.375)" id="g5612">
        <path style="fill: rgb(0, 255, 0); fill-rule: evenodd; stroke: rgb(0, 128, 0); stroke-width: 1.38204px; stroke-linecap: butt; stroke-linejoin: miter; stroke-opacity: 1;" d="M 456.375,195.875 L 454,192 L 460.75,192.375 L 458.125,196 L 456.375,195.875 z" id="path5614"/>
        <path sodipodi:type="arc" style="opacity: 1; fill: rgb(255, 203, 0); fill-opacity: 1; stroke: rgb(151, 65, 7); stroke-width: 0.691022; stroke-linejoin: round; stroke-miterlimit: 4; stroke-dasharray: none; stroke-dashoffset: 0pt; stroke-opacity: 1;" id="path5616" sodipodi:cx="457.375" sodipodi:cy="196.8125" sodipodi:rx="2.125" sodipodi:ry="2.1875" d="M 459.5,196.8125 A 2.125,2.1875 0 1 1 455.25,196.8125 A 2.125,2.1875 0 1 1 459.5,196.8125 z"/>
      </g>
      <path transform="matrix(0.764155, 0, 0, 0.764155, 121.725, 33.0307)" d="M 490.025,150.09337 L 487.65828,148.73564 L 485.74706,150.32459 L 486.30697,147.65415 L 484.20519,146.32748 L 486.91795,146.03478 L 487.53021,143.62591 L 488.64687,146.11545 L 491.12704,145.95335 L 489.10442,147.78467 L 490.025,150.09337 z" inkscape:randomized="0" inkscape:rounded="0" inkscape:flatsided="false" sodipodi:arg2="1.6174202" sodipodi:arg1="0.88847977" sodipodi:r2="1.4723037" sodipodi:r1="3.6443448" sodipodi:cy="147.26494" sodipodi:cx="487.7269" sodipodi:sides="5" id="path5618" style="opacity: 1; fill: rgb(255, 203, 0); fill-opacity: 1; stroke: rgb(151, 65, 7); stroke-width: 0.691022; stroke-linejoin: round; stroke-miterlimit: 4; stroke-dasharray: none; stroke-dashoffset: 0pt; stroke-opacity: 1;" sodipodi:type="star"/>
      <path sodipodi:type="star" style="opacity: 1; fill: rgb(255, 203, 0); fill-opacity: 1; stroke: rgb(151, 65, 7); stroke-width: 0.691022; stroke-linejoin: round; stroke-miterlimit: 4; stroke-dasharray: none; stroke-dashoffset: 0pt; stroke-opacity: 1;" id="path5620" sodipodi:sides="5" sodipodi:cx="487.7269" sodipodi:cy="147.26494" sodipodi:r1="3.6443448" sodipodi:r2="1.4723037" sodipodi:arg1="0.88847977" sodipodi:arg2="1.6174202" inkscape:flatsided="false" inkscape:rounded="0" inkscape:randomized="0" d="M 490.025,150.09337 L 487.65828,148.73564 L 485.74706,150.32459 L 486.30697,147.65415 L 484.20519,146.32748 L 486.91795,146.03478 L 487.53021,143.62591 L 488.64687,146.11545 L 491.12704,145.95335 L 489.10442,147.78467 L 490.025,150.09337 z" transform="matrix(0.764155, 0, 0, 0.764155, 121.725, 27.6273)"/>
      <path transform="matrix(0.764155, 0, 0, 0.764155, 122.13, 38.164)" d="M 490.025,150.09337 L 487.65828,148.73564 L 485.74706,150.32459 L 486.30697,147.65415 L 484.20519,146.32748 L 486.91795,146.03478 L 487.53021,143.62591 L 488.64687,146.11545 L 491.12704,145.95335 L 489.10442,147.78467 L 490.025,150.09337 z" inkscape:randomized="0" inkscape:rounded="0" inkscape:flatsided="false" sodipodi:arg2="1.6174202" sodipodi:arg1="0.88847977" sodipodi:r2="1.4723037" sodipodi:r1="3.6443448" sodipodi:cy="147.26494" sodipodi:cx="487.7269" sodipodi:sides="5" id="path5622" style="opacity: 1; fill: rgb(255, 203, 0); fill-opacity: 1; stroke: rgb(151, 65, 7); stroke-width: 0.691022; stroke-linejoin: round; stroke-miterlimit: 4; stroke-dasharray: none; stroke-dashoffset: 0pt; stroke-opacity: 1;" sodipodi:type="star"/>
      <path sodipodi:type="star" style="opacity: 1; fill: rgb(255, 203, 0); fill-opacity: 1; stroke: rgb(151, 65, 7); stroke-width: 0.691022; stroke-linejoin: round; stroke-miterlimit: 4; stroke-dasharray: none; stroke-dashoffset: 0pt; stroke-opacity: 1;" id="path5624" sodipodi:sides="5" sodipodi:cx="487.7269" sodipodi:cy="147.26494" sodipodi:r1="3.6443448" sodipodi:r2="1.4723037" sodipodi:arg1="0.88847977" sodipodi:arg2="1.6174202" inkscape:flatsided="false" inkscape:rounded="0" inkscape:randomized="0" d="M 490.025,150.09337 L 487.65828,148.73564 L 485.74706,150.32459 L 486.30697,147.65415 L 484.20519,146.32748 L 486.91795,146.03478 L 487.53021,143.62591 L 488.64687,146.11545 L 491.12704,145.95335 L 489.10442,147.78467 L 490.025,150.09337 z" transform="matrix(0.764155, 0, 0, 0.764155, 115.376, 33.0307)"/>
      <path transform="matrix(0.764155, 0, 0, 0.764155, 127.939, 32.7606)" d="M 490.025,150.09337 L 487.65828,148.73564 L 485.74706,150.32459 L 486.30697,147.65415 L 484.20519,146.32748 L 486.91795,146.03478 L 487.53021,143.62591 L 488.64687,146.11545 L 491.12704,145.95335 L 489.10442,147.78467 L 490.025,150.09337 z" inkscape:randomized="0" inkscape:rounded="0" inkscape:flatsided="false" sodipodi:arg2="1.6174202" sodipodi:arg1="0.88847977" sodipodi:r2="1.4723037" sodipodi:r1="3.6443448" sodipodi:cy="147.26494" sodipodi:cx="487.7269" sodipodi:sides="5" id="path5626" style="opacity: 1; fill: rgb(255, 203, 0); fill-opacity: 1; stroke: rgb(151, 65, 7); stroke-width: 0.691022; stroke-linejoin: round; stroke-miterlimit: 4; stroke-dasharray: none; stroke-dashoffset: 0pt; stroke-opacity: 1;" sodipodi:type="star"/>
    </g>
  </g>
</svg>