<?xml version="1.0" encoding="UTF-8" standalone="no"?>
<!-- Created with Inkscape (http://www.inkscape.org/) -->
<svg xmlns:dc="http://purl.org/dc/elements/1.1/" xmlns:cc="http://creativecommons.org/ns#" xmlns:rdf="http://www.w3.org/1999/02/22-rdf-syntax-ns#" xmlns:svg="http://www.w3.org/2000/svg" xmlns="http://www.w3.org/2000/svg" xmlns:sodipodi="http://sodipodi.sourceforge.net/DTD/sodipodi-0.dtd" xmlns:inkscape="http://www.inkscape.org/namespaces/inkscape" width="128" height="128" id="svg2" sodipodi:version="0.32" inkscape:version="0.46" version="1.0" sodipodi:docname="graduation.svg" inkscape:output_extension="org.inkscape.output.svg.inkscape" inkscape:export-xdpi="90" inkscape:export-ydpi="90">
  <defs id="defs4">
    <filter inkscape:collect="always" id="filter3443" x="-0.12513924" width="1.2502785" y="-0.32663372" height="1.6532674">
      <feGaussianBlur inkscape:collect="always" stdDeviation="1.9634296" id="feGaussianBlur3445"/>
    </filter>
  </defs>
  <sodipodi:namedview id="base" pagecolor="#ffffff" bordercolor="#666666" borderopacity="1.0" gridtolerance="10000" guidetolerance="10" objecttolerance="10" inkscape:pageopacity="0" inkscape:pageshadow="2" inkscape:zoom="1" inkscape:cx="64" inkscape:cy="64" inkscape:document-units="px" inkscape:current-layer="layer1" showgrid="false" inkscape:window-width="1026" inkscape:window-height="741" inkscape:window-x="492" inkscape:window-y="179" showguides="true" inkscape:guide-bbox="true"/>
  <metadata id="metadata7">
    <rdf:RDF>
      <cc:Work rdf:about="">
        <dc:format>image/svg+xml</dc:format>
        <dc:type rdf:resource="http://purl.org/dc/dcmitype/StillImage"/>
        <cc:license rdf:resource="http://creativecommons.org/licenses/by-sa/3.0/"/>
        <dc:title>Fedora WEBCOMIC 2.0</dc:title>
        <dc:date>May 2008</dc:date>
        <dc:creator>
          <cc:Agent>
            <dc:title>Nicu Buculei</dc:title>
          </cc:Agent>
        </dc:creator>
        <dc:rights>
          <cc:Agent>
            <dc:title>Nicu Buculei</dc:title>
          </cc:Agent>
        </dc:rights>
        <dc:subject>
          <rdf:Bag>
            <rdf:li>fedora</rdf:li>
            <rdf:li>webcomic</rdf:li>
            <rdf:li>nicubunu</rdf:li>
          </rdf:Bag>
        </dc:subject>
        <dc:language>en-US</dc:language>
      </cc:Work>
      <cc:License rdf:about="http://creativecommons.org/licenses/by-sa/3.0/">
        <cc:permits rdf:resource="http://creativecommons.org/ns#Reproduction"/>
        <cc:permits rdf:resource="http://creativecommons.org/ns#Distribution"/>
        <cc:requires rdf:resource="http://creativecommons.org/ns#Notice"/>
        <cc:requires rdf:resource="http://creativecommons.org/ns#Attribution"/>
        <cc:permits rdf:resource="http://creativecommons.org/ns#DerivativeWorks"/>
        <cc:requires rdf:resource="http://creativecommons.org/ns#ShareAlike"/>
      </cc:License>
    </rdf:RDF>
  </metadata>
  <g inkscape:label="Layer 1" inkscape:groupmode="layer" id="layer1">
    <path id="path3018" d="M 60.36423,103.57532 C 54.89949,103.9977 53.5414,100.31544 48.86935,104.46483 C 47.45604,105.87814 47.14395,108.68208 47.53509,110.24662 C 50.40969,114.09764 53.5337,113.12626 58.14046,114.69415 C 60.41679,115.26324 62.40338,115.58366 65.25651,115.58366 C 68.15632,115.58366 69.94047,117.02209 72.81732,115.58366 C 75.04841,114.46812 77.10803,114.81177 79.04387,113.35989 C 80.55623,112.22562 81.27027,110.23606 81.71239,108.46761 C 82.49622,105.33228 79.83576,104.86077 78.15436,104.02008 C 75.99336,102.93958 72.24799,103.60647 70.59355,104.02008 C 68.82027,104.4634 67.27753,101.79631 64.81176,101.79631 C 62.81241,101.79631 63.75234,103.57532 60.36423,103.57532 z" style="fill: rgb(0, 0, 0); fill-opacity: 0.728395; fill-rule: evenodd; stroke: none; stroke-width: 1px; stroke-linecap: butt; stroke-linejoin: miter; stroke-opacity: 1; filter: url(#filter3443);" sodipodi:nodetypes="ccccsssssssc"/>
    <g transform="translate(-237.488, -101.709)" id="g3765"/>
    <g id="g4184" transform="translate(-302.488, -113.709)"/>
    <g id="g3779" transform="translate(-447.909, -92.7087)"/>
    <g id="g3843" transform="matrix(0.712111, 0, 0, 0.712111, -31.1185, -58.8825)">
      <path style="fill: rgb(43, 17, 0); fill-rule: evenodd; stroke: rgb(14, 3, 0); stroke-width: 1.40428px; stroke-linecap: butt; stroke-linejoin: miter; stroke-opacity: 1;" d="M 130.67852,228.29009 C 127.90999,231.91619 124.16302,232.79473 120.4115,233.35231 C 119.7061,234.1973 120.03194,233.6905 120.08201,234.73111 C 120.36091,235.62913 120.68223,236.50868 120.9131,237.43219 C 124.14782,237.73425 127.72116,239.67178 131.09921,238.58411 C 134.64724,238.62945 138.23341,237.38709 141.17115,235.25055 C 141.8499,233.24125 141.12135,230.51692 140.96337,228.29009 C 137.69121,229.31835 133.97161,229.15176 130.67852,228.29009 z" id="path3845" sodipodi:nodetypes="cccccccc"/>
      <path style="fill: none; fill-rule: evenodd; stroke: rgb(14, 3, 0); stroke-width: 1.40428px; stroke-linecap: butt; stroke-linejoin: miter; stroke-opacity: 1;" d="M 120.9131,235.66609 C 124.73464,235.01234 128.55452,237.52008 132.53356,236.98727 C 136.22855,236.86503 138.14596,234.17968 140.85949,234.0039" id="path3847" sodipodi:nodetypes="ccc"/>
      <path style="fill: rgb(43, 17, 0); fill-rule: evenodd; stroke: rgb(14, 3, 0); stroke-width: 1.40428px; stroke-linecap: butt; stroke-linejoin: miter; stroke-opacity: 1;" d="M 143.87222,228.91341 C 141.14049,232.92822 136.56498,234.36906 133.48348,235.41223 C 132.9817,236.46882 133.00203,236.07421 132.86015,237.22441 C 133.02956,238.74507 133.92436,239.70659 135.04179,240.65269 C 138.0585,241.81967 141.42244,240.90942 144.49555,240.34103 C 147.19255,240.24644 150.37293,239.62812 152.25146,237.57171 C 155.15437,234.85685 154.66759,232.27908 154.36484,228.49787 C 150.86748,228.76289 147.37881,228.91341 143.87222,228.91341 z" id="path3849" sodipodi:nodetypes="cccccccc"/>
      <path style="fill: rgb(255, 204, 170); fill-opacity: 1; fill-rule: evenodd; stroke: rgb(63, 45, 16); stroke-width: 1.40428px; stroke-linecap: butt; stroke-linejoin: miter; stroke-opacity: 1;" d="M 122.37937,183.19187 C 118.38499,188.50641 122.29452,192.66554 121.79169,197.14917 C 120.87811,199.07921 120.32894,200.33829 118.70639,201.70366 C 116.92501,201.78257 115.62859,202.68442 115.18034,204.20128 C 116.22163,205.25244 117.71007,204.89255 119.14715,204.78896 C 119.57442,206.38807 117.24132,208.47219 117.09028,210.37188 C 119.17895,212.86809 120.92787,208.73555 121.0571,206.84582 C 121.30552,208.66386 120.28993,211.62177 120.46942,212.8695 C 122.86307,213.33897 123.69083,209.32712 123.70164,207.28658 C 123.65428,209.52386 122.53887,211.76556 125.17083,211.69415 C 126.97696,210.36376 126.54663,207.88609 126.78693,205.81739 C 127.49687,202.55675 128.81688,199.46847 129.13764,196.12074 C 128.78222,191.2064 131.14004,185.10275 128.99072,180.54733 C 125.82913,178.96162 124.72787,181.90189 122.37937,183.19187 z" id="path3851" sodipodi:nodetypes="cccccccccccccc"/>
      <path style="fill: rgb(163, 0, 69); fill-opacity: 1; fill-rule: evenodd; stroke: rgb(98, 0, 42); stroke-width: 1.40428px; stroke-linecap: butt; stroke-linejoin: miter; stroke-opacity: 1;" d="M 130.23039,164.32199 C 127.05818,167.60766 123.91731,170.60714 122.55315,174.89845 C 120.84986,177.92658 119.77988,195.67559 119.40203,199.1969 C 124.06466,200.07671 123.48192,201.62728 128.1057,202.26253 C 130.22208,196.64337 135.51719,173.68415 135.63252,167.76448" id="path3853" sodipodi:nodetypes="ccccc"/>
      <path style="fill: rgb(0, 50, 92); fill-opacity: 1; fill-rule: evenodd; stroke: rgb(0, 25, 46); stroke-width: 1.40428px; stroke-linecap: butt; stroke-linejoin: miter; stroke-opacity: 1;" d="M 143.68261,202.87901 C 143.512,203.79465 141.31471,204.99683 141.62575,206.55199 C 141.05347,210.68406 143.42857,215.01667 143.09494,220.06853 C 143.70035,222.66459 140.87748,226.91272 142.65418,228.73675 C 145.74534,231.07308 153.42604,230.96384 155.14229,228.00215 C 153.94585,223.46829 152.67776,219.19565 153.37926,214.48561 C 153.44711,210.02993 154.28125,205.72214 154.11386,201.2629 C 151.56644,200.3216 145.29059,201.00305 143.68261,202.87901 z" id="path3855" sodipodi:nodetypes="cccccccc"/>
      <path id="path3857" d="M 130.60683,202.73209 C 130.43621,203.64773 128.38585,206.17218 128.69688,207.72734 C 129.80578,211.01253 131.13458,213.93452 130.31299,217.27707 C 130.33171,220.5559 126.7902,226.47369 129.13764,228.88367 C 132.48218,230.2083 138.34218,230.61175 141.18499,227.70832 C 139.72106,223.18112 139.60588,219.05373 140.30348,214.33869 C 140.33742,209.8718 141.20663,205.60611 141.03807,201.11599 C 138.49065,200.17468 132.2148,200.85613 130.60683,202.73209 z" style="fill: rgb(0, 50, 92); fill-opacity: 1; fill-rule: evenodd; stroke: rgb(0, 25, 46); stroke-width: 1.40428px; stroke-linecap: butt; stroke-linejoin: miter; stroke-opacity: 1;" sodipodi:nodetypes="cccccccc"/>
      <path style="fill: rgb(163, 0, 69); fill-opacity: 1; fill-rule: evenodd; stroke: rgb(98, 0, 42); stroke-width: 1.40428px; stroke-linecap: butt; stroke-linejoin: miter; stroke-opacity: 1;" d="M 161.82891,223.20024 C 158.53191,219.13204 158.85835,196.42202 159.27887,191.76297 C 157.83539,185.9367 161.58462,179.71869 160.34728,173.89434 C 159.79983,170.24398 158.58843,166.95724 156.75425,163.77423 C 154.65711,160.93802 151.85631,159.32431 148.29635,159.14235 C 143.72899,159.81132 139.11852,159.19488 134.58321,160.18122 C 131.23664,161.63734 128.93018,164.04935 128.55774,167.66109 C 128.3961,170.92144 127.8806,173.41864 126.36872,176.36242 C 125.91368,181.59437 124.17796,186.75957 124.91431,192.00639 C 125.96562,198.11043 122.66644,220.47222 123.34273,226.56 C 128.61051,223.54428 138.08962,224.2011 144.07078,223.53154 C 149.08734,221.73816 158.71661,227.00413 161.82891,223.20024 z" id="path3859" sodipodi:nodetypes="cccccccccccc"/>
      <path sodipodi:nodetypes="ccccc" id="path3861" d="M 143.375,202.125 C 140.23433,202.2611 139.06099,204.07799 138.25,207.875 L 152.5,211.75 L 154,207.875 L 143.375,202.125 z" style="fill: rgb(223, 213, 145); fill-opacity: 1; fill-rule: evenodd; stroke: rgb(103, 93, 27); stroke-width: 1.40428px; stroke-linecap: butt; stroke-linejoin: miter; stroke-opacity: 1;"/>
      <path sodipodi:nodetypes="ccccc" id="path3863" d="M 143.75,202.375 C 145.24924,206.45237 142.83614,208.44316 139.375,209.875 C 149.84014,212.91072 160.58598,213.98144 170.75,219.125 C 171.67256,217.75295 171.65536,215.91101 171.25,213.875 L 143.75,202.375 z" style="fill: rgb(223, 213, 145); fill-opacity: 1; fill-rule: evenodd; stroke: rgb(103, 93, 27); stroke-width: 1.40428px; stroke-linecap: butt; stroke-linejoin: miter; stroke-opacity: 1;"/>
      <path style="fill: rgb(255, 204, 170); fill-opacity: 1; fill-rule: evenodd; stroke: rgb(63, 45, 16); stroke-width: 1.40428px; stroke-linecap: butt; stroke-linejoin: miter; stroke-opacity: 1;" d="M 158.66835,193.91696 C 159.31827,197.75004 159.10345,201.74287 157.34608,205.22972 C 156.05597,206.5588 154.18855,204.63407 153.23235,206.55199 C 153.76851,208.00611 156.84131,206.47184 156.7584,209.04961 C 155.65449,211.2317 152.91102,213.31855 155.10497,215.76404 C 156.52784,215.03397 158.13276,213.14266 158.52143,211.69415 C 158.68253,213.38267 157.63258,217.23697 160.80637,215.86712 C 162.34748,214.71205 161.22149,212.52343 161.31289,210.81264 C 162.54529,212.717 162.79165,217.57996 164.4201,214.28183 C 164.58381,212.80303 163.99544,209.77492 163.22283,208.60885 C 163.0218,207.11832 163.55582,205.55598 163.81051,204.05436 C 165.68343,200.88781 166.94859,197.65602 167.48348,194.06388 C 165.35093,191.25905 166.78591,187.03162 164.98586,184.22031 C 164.48406,182.96109 164.00411,181.88211 163.22283,180.84117 C 159.91463,179.89499 160.58167,178.20645 159.08873,181.27482 C 160.00202,186.66257 161.59226,188.92664 158.66835,193.91696 z" id="path3865" sodipodi:nodetypes="cccccccccccccccc"/>
      <path style="fill: rgb(163, 0, 69); fill-opacity: 1; fill-rule: evenodd; stroke: rgb(98, 0, 42); stroke-width: 1.40428px; stroke-linecap: butt; stroke-linejoin: miter; stroke-opacity: 1;" d="M 148.924,170.24045 C 149.07522,173.22678 156.75366,182.76974 157.72049,185.56394 C 158.50149,188.4258 156.39812,201.156 156.42903,204.10277 C 161.37073,203.57804 162.59429,207.15886 167.53072,205.60413 C 167.01248,203.17071 170.76209,191.23583 170.28795,188.78607 C 169.50298,185.56094 163.15723,170.21496 161.73473,167.42812 C 159.9987,164.99968 156.46312,164.5871 153.49504,165.46164" id="path3867" sodipodi:nodetypes="ccccccc"/>
      <path style="fill: rgb(255, 204, 170); fill-opacity: 1; fill-rule: evenodd; stroke: rgb(63, 45, 16); stroke-width: 1.40428px; stroke-linecap: butt; stroke-linejoin: miter; stroke-opacity: 1;" d="M 133.77386,162.64412 C 128.52,176.98849 145.58256,166.69644 149.52983,161.12883 C 148.09816,158.21699 147.08409,154.71987 143.94691,153.19521 C 141.28267,152.89102 138.69687,153.63183 136.16021,154.37056 C 134.11723,155.96388 133.31684,160.59754 133.77386,162.64412 z" id="path3869" sodipodi:nodetypes="ccccc"/>
      <path style="fill: rgb(255, 204, 170); fill-opacity: 1; fill-rule: evenodd; stroke: rgb(63, 45, 16); stroke-width: 1.40428px; stroke-linecap: butt; stroke-linejoin: miter; stroke-opacity: 1;" d="M 137.01565,109.33904 C 124.73244,109.2671 119.87339,117.37145 119.7095,127.91274 C 119.7095,130.11788 120.72874,134.45782 121.27518,136.6436 C 121.02082,140.94745 119.95451,144.19961 121.22477,148.4007 C 122.70202,154.34414 126.6942,157.50778 132.44461,158.78944 C 137.54932,158.6892 143.23442,156.22096 147.06013,152.6527 C 152.53791,148.17045 153.4525,140.87773 155.46763,134.24681 C 156.1839,127.91293 155.02087,122.31121 153.22207,116.40338 C 150.71709,109.93857 143.14074,108.43419 137.01565,109.33904 z" id="path3871" sodipodi:nodetypes="ccccccccc"/>
      <path style="fill: rgb(160, 90, 44); fill-opacity: 1; fill-rule: evenodd; stroke: rgb(96, 59, 0); stroke-width: 1.40428px; stroke-linecap: butt; stroke-linejoin: miter; stroke-opacity: 1;" d="M 121.53446,118.95193 C 122.92946,107.99176 151.07636,99.712873 153.73413,111.39591 C 165.32871,115.09248 157.12909,136.55173 154.43055,143.83398 C 152.81557,143.81753 150.98898,143.61922 151.24747,142.80848 C 154.53415,132.50018 155.22129,131.35108 150.72878,129.28542 C 148.45917,128.71802 147.70074,130.45798 145.74219,130.94762 C 141.5938,128.28128 145.78934,120.07769 139.09339,117.23448 C 135.82387,118.55582 131.67977,120.59505 128.28912,117.23448 C 125.391,117.23448 124.00248,119.93914 121.53446,118.95193 z" id="path3873" sodipodi:nodetypes="cccsccccc"/>
      <path style="fill: rgb(255, 255, 255); fill-rule: evenodd; stroke: rgb(51, 51, 51); stroke-width: 1.40428px; stroke-linecap: butt; stroke-linejoin: miter; stroke-opacity: 1;" d="M 130.48944,128.50238 C 128.884,132.02665 130.12621,134.09307 133.56429,133.58369 C 134.62043,134.04867 136.08623,131.47242 135.58119,129.7638 C 134.63646,126.82841 132.64733,125.16105 130.48944,128.50238 z" id="path3875" sodipodi:nodetypes="cccc"/>
      <path style="fill: rgb(255, 255, 255); fill-rule: evenodd; stroke: rgb(51, 51, 51); stroke-width: 1.40428px; stroke-linecap: butt; stroke-linejoin: miter; stroke-opacity: 1;" d="M 122.99658,126.73936 C 120.23013,127.36062 119.37258,128.88586 119.91128,132.02844 C 123.10513,137.92626 128.73823,130.02822 122.99658,126.73936 z" id="path3877" sodipodi:nodetypes="ccc"/>
      <path style="fill: rgb(255, 204, 170); fill-opacity: 1; fill-rule: evenodd; stroke: rgb(63, 45, 16); stroke-width: 1.40428px; stroke-linecap: butt; stroke-linejoin: miter; stroke-opacity: 1;" d="M 125.34728,134.8199 C 124.61086,139.06679 121.54606,138.38507 121.67431,143.19428 C 125.17091,142.4883 127.48405,143.37756 127.8449,140.84357" id="path3879" sodipodi:nodetypes="ccc"/>
      <path style="fill: rgb(255, 204, 170); fill-opacity: 1; fill-rule: evenodd; stroke: rgb(63, 45, 16); stroke-width: 1.40428px; stroke-linecap: butt; stroke-linejoin: miter; stroke-opacity: 1;" d="M 148.11971,131.14692 C 155.01124,128.40892 153.7969,138.61531 148.70738,137.61136" id="path3881" sodipodi:nodetypes="cc"/>
      <path style="fill: rgb(255, 204, 170); fill-opacity: 1; fill-rule: evenodd; stroke: rgb(63, 45, 16); stroke-width: 1.40428px; stroke-linecap: butt; stroke-linejoin: miter; stroke-opacity: 1;" d="M 149.44198,132.76303 C 150.4423,131.00831 153.07674,134.1497 149.44198,135.84833" id="path3883" sodipodi:nodetypes="cs"/>
      <path style="fill: none; fill-rule: evenodd; stroke: rgb(63, 45, 16); stroke-width: 1.40428px; stroke-linecap: butt; stroke-linejoin: miter; stroke-opacity: 1;" d="M 123.73117,149.07104 C 123.98217,152.97492 131.52981,154.06842 135.63161,146.27958" id="path3885" sodipodi:nodetypes="cc"/>
      <path style="fill: rgb(0, 0, 0); fill-rule: evenodd; stroke: rgb(0, 0, 0); stroke-width: 1.40428px; stroke-linecap: butt; stroke-linejoin: miter; stroke-opacity: 1;" d="M 132.78264,130.27037 C 133.23696,129.85119 131.31109,129.50972 131.46037,131.88648 C 131.57607,133.72867 133.50885,133.13887 134.25183,132.62108 C 135.74407,131.58112 133.5024,129.90284 132.78264,130.27037 z" id="path3887" sodipodi:nodetypes="cssc"/>
      <path style="fill: rgb(0, 0, 0); fill-rule: evenodd; stroke: rgb(0, 0, 0); stroke-width: 1.40428px; stroke-linecap: butt; stroke-linejoin: miter; stroke-opacity: 1;" d="M 121.37002,131.02856 C 121.90756,129.91349 119.25185,129.92648 120.04775,132.49775 C 120.59704,134.27229 122.58544,133.22443 122.69229,133.08543 C 123.78578,131.66283 122.62942,129.4392 121.37002,131.02856 z" id="path3889" sodipodi:nodetypes="cssc"/>
      <path style="fill: none; fill-rule: evenodd; stroke: rgb(14, 3, 0); stroke-width: 1.40428px; stroke-linecap: butt; stroke-linejoin: miter; stroke-opacity: 1;" d="M 133.69126,238.47106 C 137.36812,239.25955 141.35821,239.66744 144.20909,238.5393 C 147.63585,238.08572 150.69227,237.3751 153.84541,234.0039" id="path3895" sodipodi:nodetypes="ccc"/>
      <path sodipodi:nodetypes="ccccc" id="path3897" d="M 123.75,106.75 L 119.25,121.25 C 134,124.4204 150.5,123.22084 160,119 L 154.75,103 L 123.75,106.75 z" style="fill: rgb(172, 1, 39); fill-opacity: 1; fill-rule: evenodd; stroke: rgb(48, 0, 9); stroke-width: 1.40428px; stroke-linecap: butt; stroke-linejoin: miter; stroke-opacity: 1;"/>
      <path sodipodi:nodetypes="ccccc" id="path3899" d="M 131.56066,95.318019 L 109.56066,113.31802 L 149.54289,117.43934 L 167.06066,98.318019 L 131.56066,95.318019 z" style="fill: rgb(172, 1, 39); fill-opacity: 1; fill-rule: evenodd; stroke: rgb(48, 0, 9); stroke-width: 1.40428px; stroke-linecap: butt; stroke-linejoin: miter; stroke-opacity: 1;"/>
      <path sodipodi:nodetypes="ccccc" id="path3901" d="M 139.65359,129.58727 L 140.71425,139.48676 C 144.18865,139.96793 146.54863,137.94165 148.13887,134.18346 L 141.77491,129.05694 L 139.65359,129.58727 z" style="fill: rgb(163, 0, 69); fill-opacity: 1; fill-rule: evenodd; stroke: rgb(98, 0, 42); stroke-width: 1.40428px; stroke-linecap: butt; stroke-linejoin: miter; stroke-opacity: 1;"/>
      <path sodipodi:nodetypes="ccccc" id="path3903" d="M 135.7645,104.48497 C 130.78236,112.82092 133.67477,121.64902 139.30004,130.64793 C 140.89327,131.24166 141.82801,130.51842 142.48202,129.23371 C 135.34372,120.24336 136.43993,113.50204 139.90359,105.17431 C 139.37234,103.81327 138.2865,103.19167 135.7645,104.48497 z" style="fill: rgb(172, 1, 39); fill-opacity: 1; fill-rule: evenodd; stroke: rgb(48, 0, 9); stroke-width: 1.40428px; stroke-linecap: butt; stroke-linejoin: miter; stroke-opacity: 1;"/>
      <path sodipodi:nodetypes="ccc" id="path3913" d="M 138.25,208.125 C 140.01059,207.25423 141.51237,206.27995 141.625,204.75 L 144.25,206" style="fill: none; fill-rule: evenodd; stroke: rgb(103, 93, 27); stroke-width: 1.40428px; stroke-linecap: butt; stroke-linejoin: miter; stroke-opacity: 1;"/>
    </g>
  </g>
</svg>