<?xml version="1.0" encoding="UTF-8" standalone="no"?>
<!-- Created with Inkscape (http://www.inkscape.org/) -->
<svg
   xmlns:dc="http://purl.org/dc/elements/1.1/"
   xmlns:cc="http://creativecommons.org/ns#"
   xmlns:rdf="http://www.w3.org/1999/02/22-rdf-syntax-ns#"
   xmlns:svg="http://www.w3.org/2000/svg"
   xmlns="http://www.w3.org/2000/svg"
   xmlns:sodipodi="http://sodipodi.sourceforge.net/DTD/sodipodi-0.dtd"
   xmlns:inkscape="http://www.inkscape.org/namespaces/inkscape"
   width="128"
   height="128"
   id="svg2"
   sodipodi:version="0.32"
   inkscape:version="0.46"
   version="1.0"
   sodipodi:docname="the-female-user.svg"
   inkscape:output_extension="org.inkscape.output.svg.inkscape">
  <defs
     id="defs4">
    <filter
       inkscape:collect="always"
       id="filter3533"
       x="-0.21768413"
       width="1.4353683"
       y="-0.50795257"
       height="2.0159051">
      <feGaussianBlur
         inkscape:collect="always"
         stdDeviation="3.2924533"
         id="feGaussianBlur3535" />
    </filter>
  </defs>
  <sodipodi:namedview
     id="base"
     pagecolor="#ffffff"
     bordercolor="#666666"
     borderopacity="1.0"
     gridtolerance="10000"
     guidetolerance="10"
     objecttolerance="10"
     inkscape:pageopacity="0.0"
     inkscape:pageshadow="2"
     inkscape:zoom="1"
     inkscape:cx="218.19689"
     inkscape:cy="64"
     inkscape:document-units="px"
     inkscape:current-layer="g3537"
     showgrid="false"
     inkscape:window-width="1538"
     inkscape:window-height="961"
     inkscape:window-x="127"
     inkscape:window-y="31" />
  <metadata
     id="metadata7">
    <rdf:RDF>
      <cc:Work
         rdf:about="">
        <dc:format>image/svg+xml</dc:format>
        <dc:type
           rdf:resource="http://purl.org/dc/dcmitype/StillImage" />
      </cc:Work>
    </rdf:RDF>
  </metadata>
  <g
     inkscape:label="Layer 1"
     inkscape:groupmode="layer"
     id="layer1">
    <g
       id="g3537"
       transform="translate(-314.87935,-44.07782)">
      <path
         sodipodi:nodetypes="cccccccc"
         id="path2552"
         d="M 387.14096,155.60482 C 382.57965,152.74462 372.84223,153.32511 369.46329,157.72614 C 367.77731,161.54716 375.5184,164.82614 378.65568,165.85786 C 383.03698,165.98566 386.91972,166.27979 391.03005,167.62563 C 396.0362,165.50791 394.72477,166.70884 396.6869,165.85786 C 400.31562,164.24489 404.97793,162.11667 405.52574,157.72614 C 405.28544,153.92487 402.41894,152.69892 399.16178,152.06928 C 395.52438,153.19951 389.79026,152.6596 387.14096,155.60482 z"
         style="fill:#000000;fill-opacity:0.77777782;fill-rule:evenodd;stroke:none;stroke-width:1px;stroke-linecap:butt;stroke-linejoin:miter;stroke-opacity:1;filter:url(#filter3533)"
         transform="matrix(1.151516,0,0,0.7750115,-58.443651,37.713841)" />
      <path
         sodipodi:nodetypes="cssccccssc"
         id="path2548"
         d="M 360.27091,103.90284 C 360.15606,103.44343 357.80382,102.33211 357.09781,102.71718 C 355.98084,103.3264 354.5135,100.42491 354.08372,99.83698 C 353.8072,99.45869 354.60407,102.72687 354.8034,103.83589 C 352.50436,104.15214 348.98251,103.90284 346.6591,103.90284 C 345.6186,103.90284 346.72769,104.85532 347.01266,105.14028 C 346.06768,106.63141 353.25426,107.74146 356.59521,107.62404 C 356.3873,107.1146 358.74508,106.9419 359.74058,107.43837 C 360.32049,107.72758 361.15479,106.0047 361.15479,105.31705 C 361.15479,104.49844 361.08277,104.30877 360.27091,103.90284 z"
         style="fill:#f4e3d7;fill-opacity:1;fill-rule:evenodd;stroke:#522f16;stroke-width:1px;stroke-linecap:butt;stroke-linejoin:miter;stroke-opacity:1" />
      <path
         sodipodi:nodetypes="ccccccc"
         id="path2540"
         d="M 383.25188,95.68272 C 378.69156,98.32392 374.80348,102.76509 371.76139,107.17321 C 367.9835,105.92819 364.90072,105.09199 361.07268,104.08589 C 359.96969,103.41515 361.93453,105.42126 360.09413,107.52676 C 364.27214,107.90521 366.87218,111.28908 370.34718,113.00684 C 378.55271,113.05534 386.63548,102.05491 386.96419,94.445283 C 386.77996,94.076825 383.6434,95.839328 383.25188,95.68272 z"
         style="fill:#00a0ff;fill-opacity:1;fill-rule:evenodd;stroke:#00598c;stroke-width:1px;stroke-linecap:butt;stroke-linejoin:miter;stroke-opacity:1" />
      <path
         style="fill:#d40000;fill-opacity:1;fill-rule:evenodd;stroke:#520000;stroke-width:1px;stroke-linecap:butt;stroke-linejoin:miter;stroke-opacity:0.96839001"
         d="M 396.25,157.875 L 399.125,155.5 L 398.125,161.125 L 397.375,161 L 396.25,157.875 z"
         id="path2536" />
      <path
         id="path2534"
         d="M 384.625,158.625 L 387.5,156.25 L 386.5,161.875 L 385.75,161.75 L 384.625,158.625 z"
         style="fill:#d40000;fill-opacity:1;fill-rule:evenodd;stroke:#520000;stroke-width:1px;stroke-linecap:butt;stroke-linejoin:miter;stroke-opacity:0.96839001" />
      <path
         style="fill:#d40000;fill-opacity:1;fill-rule:evenodd;stroke:#520000;stroke-width:1px;stroke-linecap:butt;stroke-linejoin:miter;stroke-opacity:0.96839001"
         d="M 379.25288,155.79147 C 377.40284,157.39559 374.79219,159.17425 374.80753,162.49611 C 377.87845,163.57173 380.571,160.14438 383.51486,158.962 C 384.1152,158.6597 385.45204,159.47914 385.85958,158.83472 C 388.38035,156.81561 387.81547,155.95383 387.3142,154.89908 C 386.84696,154.6036 386.26936,154.42244 385.69164,154.23168 C 383.38343,153.9979 381.33449,154.99786 379.25288,155.79147 z"
         id="path2532"
         sodipodi:nodetypes="ccccccc" />
      <path
         sodipodi:nodetypes="ccccccc"
         id="path2528"
         d="M 391.5,157 C 390.51499,158.90292 390.4747,160.89547 390.25,165 C 393.63132,165.01623 395.01153,161.60931 397.25,159.625 C 397.72529,159.14971 398.19007,157.48971 398.375,156.75 C 400.13557,154.04232 399.68171,154.46939 398.875,153.625 C 398.33867,153.49092 397.7334,153.5 397.125,153.5 C 394.85988,154.00175 393.2278,155.59373 391.5,157 z"
         style="fill:#d40000;fill-opacity:1;fill-rule:evenodd;stroke:#520000;stroke-width:1px;stroke-linecap:butt;stroke-linejoin:miter;stroke-opacity:0.96839001" />
      <path
         sodipodi:nodetypes="ccccccccccc"
         id="path2522"
         d="M 401.63665,127.32575 C 402.63117,128.99307 402.84205,130.38286 402.69731,132.2755 C 402.43551,136.21837 401.05093,139.71524 397.98499,142.10805 C 399.33147,145.94959 398.10018,150.20186 398.63145,152.7816 C 398.88442,154.04645 398.87484,154.48274 398.10111,155.25647 C 396.48088,157.09231 396.98175,158.92698 393.15137,160.73655 C 392.29243,161.38075 391.56038,160.93574 391.56038,160.02944 C 390.77339,156.36479 393.7471,154.61257 393.6817,151.36738 C 392.34219,147.98338 392.26748,144.35087 392.26748,140.76078 C 391.95588,135.35526 392.10894,129.87856 394.56558,125.11604 C 396.74804,122.20036 400.50687,125.00383 401.63665,127.32575 z"
         style="fill:#f4e3d7;fill-opacity:1;fill-rule:evenodd;stroke:#522f16;stroke-width:1px;stroke-linecap:butt;stroke-linejoin:miter;stroke-opacity:1" />
      <path
         style="fill:#f4e3d7;fill-opacity:1;fill-rule:evenodd;stroke:#522f16;stroke-width:1px;stroke-linecap:butt;stroke-linejoin:miter;stroke-opacity:1"
         d="M 389.26228,128.20963 C 390.2568,129.87695 390.55607,131.17835 390.41133,133.07099 C 390.14953,137.01386 387.26235,140.51073 384.19641,142.90354 C 385.8544,145.34326 385.87259,150.42523 386.25708,153.66548 C 386.51005,154.93033 386.50047,155.36662 385.72674,156.14035 C 384.10651,157.97619 383.98866,157.42437 380.15828,159.23394 C 379.29934,159.87814 376.71374,159.38396 376.71374,158.47766 C 378.92675,155.43801 381.37273,155.49645 381.30733,152.25126 C 379.96782,148.86726 378.74406,146.3838 378.74406,142.79371 C 378.43246,137.38819 382.38622,131.38116 384.84286,126.61864 C 387.02532,123.70296 388.1325,125.88771 389.26228,128.20963 z"
         id="path2526"
         sodipodi:nodetypes="ccccccccccc" />
      <path
         sodipodi:nodetypes="cccccccccc"
         id="path2512"
         d="M 384.5,94.974874 C 381.37044,99.47467 380.21113,103.53363 376.9519,107.96967 C 377.01457,109.37255 378.28878,112.3419 380.62162,112.60786 C 381.41185,114.57716 382.08003,115.98586 383.06434,118.1731 C 386.19695,122.31054 382.82275,125.83258 380.84099,133.61568 C 387.85756,131.50896 394.8257,132.11794 402.23744,133.20926 C 405.20533,127.52527 400.99469,121.6061 399.49632,117.76104 C 399.0358,114.20552 401.91017,111.73941 402.80914,107.8217 C 405.66204,99.60065 406.54307,98.63245 399.75,93.275126 C 395.0637,90.428926 389.45882,91.978713 384.5,94.974874 z"
         style="fill:#00a0ff;fill-opacity:1;fill-rule:evenodd;stroke:#00598c;stroke-width:1px;stroke-linecap:butt;stroke-linejoin:miter;stroke-opacity:1" />
      <path
         sodipodi:nodetypes="ccccccc"
         id="path2516"
         d="M 387.86872,84.542893 C 387.92818,87.150566 388.3708,89.75279 387.5,92.25 C 386.87256,94.447805 385.78966,96.225744 384.85355,98.25 C 384.45086,101.6608 383.35879,105.78669 387.03769,106.07322 C 392.49757,105.69536 393.18254,93.034325 399.75,93.360912 C 395.665,90.559904 395.49327,89.361445 395.25,84.5 C 393.41853,84.183844 389.96416,83.732137 387.86872,84.542893 z"
         style="fill:#f4e3d7;fill-opacity:1;fill-rule:evenodd;stroke:#522f16;stroke-width:1px;stroke-linecap:butt;stroke-linejoin:miter;stroke-opacity:1" />
      <path
         sodipodi:nodetypes="ccccccc"
         id="path2481"
         d="M 388.91253,52.368785 C 385.32935,51.882406 380.52031,54.055562 379.08075,58.443205 C 378.57486,63.837012 378.2065,69.293323 378.3001,74.722505 C 379.96199,81.000153 379.43896,88.080279 387.30902,92.10914 C 398.51764,89.605696 400.34914,80.047154 401.84481,73.329257 C 400.46111,66.950269 403.0052,61.707981 398.84399,56.260974 C 395.98592,53.682507 391.37464,51.70651 388.91253,52.368785 z"
         style="fill:#f4e3d7;fill-rule:evenodd;stroke:#522f16;stroke-width:1px;stroke-linecap:butt;stroke-linejoin:miter;stroke-opacity:1" />
      <path
         sodipodi:nodetypes="ccc"
         id="path2493"
         d="M 383.79337,69.885942 C 384.25476,70.157294 382.74152,73.220296 381.9952,73.884213 C 382.54346,74.241893 382.71652,74.538135 384.19487,74.723431"
         style="fill:none;fill-rule:evenodd;stroke:#522f16;stroke-width:1px;stroke-linecap:butt;stroke-linejoin:miter;stroke-opacity:1" />
      <path
         sodipodi:nodetypes="ccccccc"
         id="path2496"
         d="M 387.96176,50.325338 C 377.41123,47.842559 372.79208,60.347254 373.48661,68.97754 C 373.66662,73.575097 373.68969,75.559114 376.94249,78.583283 C 376.8272,79.453251 375.45819,82.895934 375.16524,83.65196 C 376.9468,82.898301 378.32308,81.964649 378.88747,80.087203 C 378.06965,72.473524 378.15727,68.478498 378.78938,63.073611 C 379.60363,55.599617 391.47722,53.29763 387.96176,50.325338 z"
         style="fill:#ffd600;fill-opacity:1;fill-rule:evenodd;stroke:#7e5a00;stroke-width:1px;stroke-linecap:butt;stroke-linejoin:miter;stroke-opacity:1" />
      <path
         sodipodi:nodetypes="cccc"
         id="path2506"
         d="M 386.07584,68.12378 C 386.2951,64.890351 389.74263,63.0553 391.80747,64.351377 C 392.1595,66.289151 391.88484,68.497846 390.64787,70.445254 C 387.0878,72.380004 386.34249,70.414876 386.07584,68.12378 z"
         style="fill:#ffffff;fill-rule:evenodd;stroke:#333333;stroke-width:1px;stroke-linecap:butt;stroke-linejoin:miter;stroke-opacity:1" />
      <path
         sodipodi:nodetypes="cccccccc"
         id="path2483"
         d="M 386.18388,52.026778 C 383.89883,55.755216 385.34684,59.856393 387.54451,63.283385 C 388.76922,64.859102 389.94137,65.668663 391.35732,67.036709 C 394.15407,70.27059 397.79352,72.706605 399.90012,76.466319 C 401.25183,80.197113 398.98688,84.056428 398.89422,88.024069 C 406.04277,82.378183 408.07501,76.501098 407.29082,70.961484 C 407.14486,63.18523 408.2346,54.178203 399.70411,50.697918 C 395.25344,48.093459 389.89466,48.541222 386.18388,52.026778 z"
         style="fill:#ffd600;fill-opacity:1;fill-rule:evenodd;stroke:#7e5a00;stroke-width:1px;stroke-linecap:butt;stroke-linejoin:miter;stroke-opacity:1" />
      <path
         sodipodi:nodetypes="cssccc"
         id="path2500"
         d="M 381.63256,82.855624 C 382.36232,82.150626 382.91961,80.558305 384.17085,81.368615 C 384.95844,81.878658 385.87129,82.581002 386.93793,81.417224 C 387.75414,80.526673 391.25247,82.385288 391.8805,82.942228 C 391.03711,83.835324 387.36216,84.936437 386.65635,85.021751 C 384.32933,85.159484 383.38323,84.383631 381.63256,82.855624 z"
         style="fill:#d40000;fill-opacity:1;fill-rule:evenodd;stroke:#520000;stroke-width:1px;stroke-linecap:butt;stroke-linejoin:miter;stroke-opacity:0.96839001" />
      <path
         sodipodi:nodetypes="cccc"
         id="path2502"
         d="M 378.28256,65.268026 C 377.81519,68.081897 378.57569,70.939495 381.20661,71.179741 C 383.29439,69.904408 383.18987,69.131334 382.64878,66.924572 C 380.35041,64.867345 379.37763,64.558907 378.28256,65.268026 z"
         style="fill:#ffffff;fill-rule:evenodd;stroke:#333333;stroke-width:1px;stroke-linecap:butt;stroke-linejoin:miter;stroke-opacity:1" />
      <path
         sodipodi:nodetypes="cscc"
         id="path2504"
         d="M 380.07337,67.487418 C 381.18942,66.436491 381.98718,67.785299 382.21058,68.200793 C 382.9092,69.500098 382.25785,70.302066 381.31507,70.655047 C 379.15032,70.905949 379.1201,67.79367 380.07337,67.487418 z"
         style="fill:#0000ff;fill-rule:evenodd;stroke:#000041;stroke-width:1px;stroke-linecap:butt;stroke-linejoin:miter;stroke-opacity:1" />
      <path
         sodipodi:nodetypes="cssc"
         id="path2508"
         d="M 388.6162,70.214373 C 387.96952,71.019417 387.69592,66.893733 388.94911,66.870125 C 390.4163,66.842485 391.04978,68.603793 391.06949,68.766882 C 391.29237,70.610808 389.9423,70.947797 388.6162,70.214373 z"
         style="fill:#0000ff;fill-rule:evenodd;stroke:#000041;stroke-width:1px;stroke-linecap:butt;stroke-linejoin:miter;stroke-opacity:1" />
      <path
         sodipodi:nodetypes="ccccsc"
         id="path2546"
         d="M 398.985,120.25468 C 397.01917,121.56156 394.16873,121.49486 394.14769,124.16521 C 395.52595,125.92524 395.67915,128.29354 398.00645,128.39897 C 400.03275,127.76651 402.02262,125.9942 401.076,124.5036 C 400.88907,123.7559 401.41852,121.50348 401.2831,120.96179 C 401.08621,120.17421 399.74018,120.25468 398.985,120.25468 z"
         style="fill:#f4e3d7;fill-opacity:1;fill-rule:evenodd;stroke:#522f16;stroke-width:1px;stroke-linecap:butt;stroke-linejoin:miter;stroke-opacity:1" />
      <path
         sodipodi:nodetypes="ccccccccc"
         id="path2538"
         d="M 399.86889,97.80404 C 398.30553,98.83756 398.79095,100.8581 398.985,102.57701 C 399.18502,103.3771 400.03724,104.15677 400.57599,104.87511 C 401.77995,107.17013 403.31496,108.89541 405.52574,110.17841 C 404.42785,113.1769 400.51206,117.09868 398.985,119.90113 C 398.7943,121.43594 399.5938,121.08355 400.57599,122.19922 C 405.24131,119.56233 409.3639,113.29592 411.53615,108.58742 C 410.25602,105.27965 406.90209,103.09597 404.81863,100.10214 C 403.54229,98.56204 401.80365,97.98628 399.86889,97.80404 z"
         style="fill:#00a0ff;fill-opacity:1;fill-rule:evenodd;stroke:#00598c;stroke-width:1px;stroke-linecap:butt;stroke-linejoin:miter;stroke-opacity:1" />
      <path
         sodipodi:nodetypes="cc"
         id="path2542"
         d="M 388.3784,110.00164 C 390.35972,117.73507 399.28785,112.50845 396.95207,108.32226"
         style="fill:#00a0ff;fill-opacity:1;fill-rule:evenodd;stroke:#00598c;stroke-width:1px;stroke-linecap:butt;stroke-linejoin:miter;stroke-opacity:1" />
      <path
         sodipodi:nodetypes="cc"
         id="path2544"
         d="M 380.60023,112.67473 C 382.68955,112.71961 384.50861,111.93905 385.19642,109.64808"
         style="fill:#00a0ff;fill-opacity:1;fill-rule:evenodd;stroke:#00598c;stroke-width:1px;stroke-linecap:butt;stroke-linejoin:miter;stroke-opacity:1" />
    </g>
  </g>
</svg>
