<?xml version="1.0" encoding="UTF-8" standalone="no"?>
<!-- Created with Inkscape (http://www.inkscape.org/) -->
<svg xmlns:dc="http://purl.org/dc/elements/1.1/" xmlns:cc="http://creativecommons.org/ns#" xmlns:rdf="http://www.w3.org/1999/02/22-rdf-syntax-ns#" xmlns:svg="http://www.w3.org/2000/svg" xmlns="http://www.w3.org/2000/svg" xmlns:sodipodi="http://sodipodi.sourceforge.net/DTD/sodipodi-0.dtd" xmlns:inkscape="http://www.inkscape.org/namespaces/inkscape" width="128" height="128" id="svg2" sodipodi:version="0.32" inkscape:version="0.46" version="1.0" sodipodi:docname="santa.svg" inkscape:output_extension="org.inkscape.output.svg.inkscape" inkscape:export-xdpi="90" inkscape:export-ydpi="90">
  <defs id="defs4">
    <filter height="1.6247323" y="-0.3123661" width="1.1398736" x="-0.069936782" id="filter3591" inkscape:collect="always">
      <feGaussianBlur id="feGaussianBlur3593" stdDeviation="1.9097902" inkscape:collect="always"/>
    </filter>
  </defs>
  <sodipodi:namedview id="base" pagecolor="#ffffff" bordercolor="#666666" borderopacity="1.0" gridtolerance="10000" guidetolerance="10" objecttolerance="10" inkscape:pageopacity="0" inkscape:pageshadow="2" inkscape:zoom="1" inkscape:cx="64" inkscape:cy="96.781408" inkscape:document-units="px" inkscape:current-layer="layer1" showgrid="false" inkscape:window-width="1026" inkscape:window-height="741" inkscape:window-x="472" inkscape:window-y="153" showguides="true" inkscape:guide-bbox="true"/>
  <metadata id="metadata7">
    <rdf:RDF>
      <cc:Work rdf:about="">
        <dc:format>image/svg+xml</dc:format>
        <dc:type rdf:resource="http://purl.org/dc/dcmitype/StillImage"/>
        <cc:license rdf:resource="http://creativecommons.org/licenses/by-sa/3.0/"/>
        <dc:title>Fedora WEBCOMIC 2.0</dc:title>
        <dc:date>May 2008</dc:date>
        <dc:creator>
          <cc:Agent>
            <dc:title>Nicu Buculei</dc:title>
          </cc:Agent>
        </dc:creator>
        <dc:rights>
          <cc:Agent>
            <dc:title>Nicu Buculei</dc:title>
          </cc:Agent>
        </dc:rights>
        <dc:subject>
          <rdf:Bag>
            <rdf:li>fedora</rdf:li>
            <rdf:li>webcomic</rdf:li>
            <rdf:li>nicubunu</rdf:li>
          </rdf:Bag>
        </dc:subject>
        <dc:language>en-US</dc:language>
      </cc:Work>
      <cc:License rdf:about="http://creativecommons.org/licenses/by-sa/3.0/">
        <cc:permits rdf:resource="http://creativecommons.org/ns#Reproduction"/>
        <cc:permits rdf:resource="http://creativecommons.org/ns#Distribution"/>
        <cc:requires rdf:resource="http://creativecommons.org/ns#Notice"/>
        <cc:requires rdf:resource="http://creativecommons.org/ns#Attribution"/>
        <cc:permits rdf:resource="http://creativecommons.org/ns#DerivativeWorks"/>
        <cc:requires rdf:resource="http://creativecommons.org/ns#ShareAlike"/>
      </cc:License>
    </rdf:RDF>
  </metadata>
  <g inkscape:label="Layer 1" inkscape:groupmode="layer" id="layer1">
    <g transform="matrix(0.958431, 0, 0, 0.958511, -676.555, -213.174)" id="g3765"/>
    <g id="g4184" transform="matrix(0.958431, 0, 0, 0.958511, -738.853, -224.676)"/>
    <path sodipodi:nodetypes="ccccc" id="path3472" d="M 16.60938,100.91603 L 39.30042,103.45148 L 49.84508,91.708404 L 27.42099,90.107077 L 16.60938,100.91603 z" style="fill: rgb(0, 108, 169); fill-opacity: 1; fill-rule: evenodd; stroke: rgb(0, 50, 80); stroke-width: 1px; stroke-linecap: butt; stroke-linejoin: miter; stroke-opacity: 1;"/>
    <path style="fill: rgb(255, 210, 0); fill-opacity: 1; fill-rule: evenodd; stroke: rgb(106, 87, 0); stroke-width: 1px; stroke-linecap: butt; stroke-linejoin: miter; stroke-opacity: 1;" d="M 38.27466,77.595058 C 38.27466,77.595058 37.691657,79.810803 39.382368,81.21022 C 41.073078,82.609639 42.763788,83.892439 42.938689,81.676694 C 43.11359,79.460948 39.615569,75.087767 38.27466,77.595058 z" id="path2693"/>
    <path style="fill: rgb(255, 210, 0); fill-opacity: 1; fill-rule: evenodd; stroke: rgb(106, 87, 0); stroke-width: 1px; stroke-linecap: butt; stroke-linejoin: miter; stroke-opacity: 1;" d="M 23.58297,70.481349 C 24.858983,67.079569 29.226109,62.902016 35.592844,59.985712 C 37.07094,68.609235 39.75049,71.725282 39.907071,71.997385 C 40.626497,73.247607 42.726252,77.181399 39.440667,79.34433 C 34.089515,82.867048 32.673778,72.820998 23.58297,70.481349 z" id="path2683" sodipodi:nodetypes="ccssc"/>
    <path style="fill: rgb(233, 210, 175); fill-opacity: 1; fill-rule: evenodd; stroke: rgb(76, 47, 10); stroke-width: 1px; stroke-linecap: butt; stroke-linejoin: miter; stroke-opacity: 1;" d="M 45.613416,70.990485 C 43.849863,72.139846 42.822993,71.20384 42.186009,69.543422 C 40.590295,68.6441 39.387339,67.515422 38.092763,66.196564 C 34.348239,66.152267 36.605143,69.179936 37.888982,70.720602 C 37.297192,76.301044 44.449573,78.55252 46.941312,76.208803 C 48.87624,74.130387 47.750987,72.267762 45.613416,70.990485 z" id="path3378" sodipodi:nodetypes="cccccc"/>
    <path style="fill: rgb(212, 0, 0); fill-opacity: 1; fill-rule: evenodd; stroke: rgb(82, 0, 0); stroke-width: 1px; stroke-linecap: butt; stroke-linejoin: miter; stroke-opacity: 1;" d="M 66.394313,57.358837 C 62.274035,56.754961 61.080921,65.495156 57.556165,67.268201 C 53.373791,69.124286 48.435191,67.108275 45.15067,70.501761 C 45.343099,72.924444 45.199745,76.527161 46.45018,78.384338 C 49.931784,77.783297 54.540731,75.732964 57.709015,74.096429 C 61.255552,72.463148 62.074639,68.81174 65.480546,66.993542" id="path3352" sodipodi:nodetypes="cccccc"/>
    <path style="fill: rgb(255, 255, 255); fill-rule: evenodd; stroke: rgb(179, 179, 179); stroke-width: 1px; stroke-linecap: butt; stroke-linejoin: miter; stroke-opacity: 1;" d="M 45.330421,68.022179 C 44.606975,68.597545 44.272088,69.580869 43.579909,70.318139 C 43.603303,72.285357 44.804814,72.766085 43.348778,74.314877 C 44.00982,77.861404 44.517025,78.658279 47.754186,79.205909 C 48.548732,78.571889 48.92412,77.525767 49.649013,76.709039 C 49.976317,75.125327 49.810221,73.522975 49.517983,71.944449 C 49.036067,70.636517 48.583394,69.552182 47.504391,68.67025 C 46.824767,68.361109 46.089585,68.182982 45.330421,68.022179 z" id="path2660" sodipodi:nodetypes="cccccccc"/>
    <path style="fill: rgb(0, 0, 0); fill-opacity: 0.633745; fill-rule: evenodd; stroke: none; stroke-width: 1px; stroke-linecap: butt; stroke-linejoin: miter; stroke-opacity: 1; filter: url(#filter3591);" d="M 72.73769,111.61023 C 67.81711,112.58964 59.28751,111.62268 53.23769,110.11023 C 52.61275,110.28608 47.66446,105.73535 46.46904,105.95209 C 37.56288,107.56681 18.9392,114.90059 14.11269,115.98523 C 7.769,120.43924 34.67482,122.85355 38.98769,123.11023 C 44.5248,123.12567 52.11656,112.42685 59.23769,120.11023 C 65.28286,121.0475 71.31288,119.74638 77.73769,120.11023 C 84.78766,120.8529 90.19509,116.12876 96.73769,114.61023 C 100.48403,113.86096 100.39046,114.2213 99.73769,111.61023 C 86.57402,102.57902 83.02533,107.43344 72.73769,111.61023 z" id="path3384" sodipodi:nodetypes="ccsccccccc" transform="matrix(0.932806, 0, 0, 0.932945, 3.41219, 8.22102)"/>
    <path style="fill: rgb(26, 26, 26); fill-rule: evenodd; stroke: rgb(0, 0, 0); stroke-width: 1px; stroke-linecap: butt; stroke-linejoin: miter; stroke-opacity: 1;" d="M 64.136083,110.71164 C 60.477591,111.79036 57.006873,111.68227 53.550847,113.64675 C 52.5224,114.16007 52.258761,114.0023 52.766758,115.01648 C 55.63243,117.09767 61.110659,115.90828 64.528132,115.21216 C 66.909426,115.14333 68.449153,113.47567 70.800859,113.05973 C 71.724495,113.52073 70.684921,114.49836 71.976996,114.8208 C 72.599056,114.97605 74.193641,114.56115 74.721329,114.42945 C 75.631896,113.17153 75.572039,110.69225 73.937231,110.32029 C 70.633634,109.97798 67.414448,110.23746 64.136083,110.71164 z" id="path3360" sodipodi:nodetypes="cccccsccc"/>
    <path id="path3364" d="M 80.994056,110.90732 C 77.997585,111.3746 77.693845,113.92646 74.6465,114.09119 C 72.789973,114.26605 69.984244,115.52503 70.147261,117.41764 C 73.420261,119.46368 75.951159,117.92353 79.600062,117.28349 C 81.929166,117.22159 82.647426,113.78309 84.718497,113.64675 C 85.642133,114.10774 84.60255,115.08538 85.894635,115.40782 C 86.516686,115.56306 88.11127,115.14816 88.638958,115.01648 C 89.549526,113.75855 90.808861,111.11434 89.174043,110.74239 C 86.856385,110.65415 83.308934,110.63203 80.994056,110.90732 z" style="fill: rgb(26, 26, 26); fill-rule: evenodd; stroke: rgb(0, 0, 0); stroke-width: 1px; stroke-linecap: butt; stroke-linejoin: miter; stroke-opacity: 1;" sodipodi:nodetypes="cccccsccc"/>
    <path style="fill: rgb(212, 0, 0); fill-opacity: 1; fill-rule: evenodd; stroke: rgb(82, 0, 0); stroke-width: 1px; stroke-linecap: butt; stroke-linejoin: miter; stroke-opacity: 1;" d="M 79.22985,88.404769 C 81.018011,92.888766 81.113184,97.177059 80.405987,101.9063 C 80.802625,103.90879 78.318993,109.48044 78.653759,111.84706 C 81.78306,110.71534 87.063562,111.30983 90.278654,111.30983 C 91.836728,108.22214 89.90846,103.04639 89.90846,99.465947 C 89.425062,95.543537 92.633597,91.952331 92.951459,88.209093 C 89.008713,87.738982 83.488201,87.469846 79.22985,88.404769 z" id="path3354" sodipodi:nodetypes="ccccccc"/>
    <path id="path3356" d="M 64.136083,88.404769 C 67.151732,94.87022 66.258758,102.54423 63.899664,110.10503 C 64.649369,112.20507 71.702527,110.32029 74.525291,110.32029 C 75.849688,105.96173 74.311594,100.93592 75.701428,94.470677 C 76.604338,92.354832 77.65893,90.549713 77.857683,88.209093 C 73.35683,87.611756 68.315557,87.745653 64.136083,88.404769 z" style="fill: rgb(212, 0, 0); fill-opacity: 1; fill-rule: evenodd; stroke: rgb(82, 0, 0); stroke-width: 1px; stroke-linecap: butt; stroke-linejoin: miter; stroke-opacity: 1;" sodipodi:nodetypes="cccccc"/>
    <path style="fill: rgb(212, 0, 0); fill-opacity: 1; fill-rule: evenodd; stroke: rgb(82, 0, 0); stroke-width: 1px; stroke-linecap: butt; stroke-linejoin: miter; stroke-opacity: 1;" d="M 95.431538,95.099623 C 95.573184,88.643734 96.361712,80.419718 96.616957,73.88297 C 96.60192,67.935099 97.336028,60.21212 94.171308,54.922133 C 92.218899,52.595246 92.558571,52.072517 90.011115,50.443958 C 82.815732,52.042429 74.676135,48.552075 67.664505,52.596374 C 63.277127,57.384362 62.014193,65.663488 61.783818,71.968137 C 62.313428,80.318567 61.391778,88.700167 61.391778,97.014446 C 65.722394,96.671692 70.07244,96.036076 74.525309,96.036076 C 81.194683,94.075193 88.746464,98.330889 95.431538,95.099623 z" id="path3332" sodipodi:nodetypes="ccccccccc"/>
    <path style="fill: rgb(255, 255, 255); fill-rule: evenodd; stroke: rgb(0, 0, 0); stroke-width: 1px; stroke-linecap: butt; stroke-linejoin: miter; stroke-opacity: 1;" d="M 67.926064,54.430107 L 85.306566,54.553116 L 74.033907,73.813036 L 67.926064,54.430107 z" id="path3342" sodipodi:nodetypes="cccc"/>
    <path style="fill: rgb(212, 0, 0); fill-opacity: 1; fill-rule: evenodd; stroke: rgb(82, 0, 0); stroke-width: 1px; stroke-linecap: butt; stroke-linejoin: miter; stroke-opacity: 1;" d="M 73.791835,64.655394 L 73.626943,73.561244 C 74.671294,72.765293 75.38585,70.728355 76.430211,68.613545 L 76.760004,63.995709 L 73.791835,64.655394 z" id="path3372" sodipodi:nodetypes="ccccc"/>
    <path style="fill: rgb(212, 0, 0); fill-opacity: 1; fill-rule: evenodd; stroke: rgb(82, 0, 0); stroke-width: 1px; stroke-linecap: butt; stroke-linejoin: miter; stroke-opacity: 1;" d="M 73.956736,60.202474 L 72.967347,63.171087 L 73.791835,64.655394 L 77.254699,64.325551 L 76.100417,60.532316 L 73.956736,60.202474 z" id="path3370"/>
    <path style="fill: rgb(255, 255, 255); fill-rule: evenodd; stroke: rgb(128, 128, 128); stroke-width: 1px; stroke-linecap: butt; stroke-linejoin: miter; stroke-opacity: 1;" d="M 75.935516,59.87263 L 78.244098,64.160634 C 79.62993,61.859384 81.076824,59.636353 82.696351,57.728628 C 80.449885,58.007085 77.592925,58.318268 75.935516,59.87263 z" id="path3366" sodipodi:nodetypes="cccc"/>
    <path style="fill: rgb(255, 255, 255); fill-rule: evenodd; stroke: rgb(128, 128, 128); stroke-width: 1px; stroke-linecap: butt; stroke-linejoin: miter; stroke-opacity: 1;" d="M 74.121637,59.707705 L 71.153468,64.82032 L 69.174689,57.728628 L 74.121637,59.707705 z" id="path3368"/>
    <path style="fill: rgb(212, 0, 0); fill-opacity: 1; fill-rule: evenodd; stroke: rgb(82, 0, 0); stroke-width: 1px; stroke-linecap: butt; stroke-linejoin: miter; stroke-opacity: 1;" d="M 73.227963,73.608936 C 70.935463,70.472225 67.487831,65.676904 65.769818,62.175988 C 66.580817,62.25346 67.939039,62.202083 67.739316,60.725184 C 66.856023,58.91401 64.040042,57.384866 62.717546,55.184804 C 63.577118,54.970301 66.815399,54.463609 67.935345,54.463609 C 72.196103,59.74283 73.292569,66.968987 73.227963,73.608936 z" id="path3340" sodipodi:nodetypes="cccccc"/>
    <path style="fill: rgb(212, 0, 0); fill-opacity: 1; fill-rule: evenodd; stroke: rgb(82, 0, 0); stroke-width: 1px; stroke-linecap: butt; stroke-linejoin: miter; stroke-opacity: 1;" d="M 90.403156,49.856929 C 87.394997,51.681389 84.178263,53.221345 80.994056,54.748792 C 81.544999,64.970058 74.447495,68.133591 73.645161,74.629224 C 79.795289,71.60023 80.647593,61.832833 87.070772,59.89782 C 87.687188,59.282496 84.873501,59.192009 83.038383,59.475718 C 84.838735,55.08941 90.99461,54.248388 94.715666,51.422328 C 93.271178,50.869213 91.895533,50.135554 90.403156,49.856929 z" id="path3338" sodipodi:nodetypes="ccccccc"/>
    <path style="fill: rgb(233, 210, 175); fill-opacity: 1; fill-rule: evenodd; stroke: rgb(76, 47, 10); stroke-width: 1px; stroke-linecap: butt; stroke-linejoin: miter; stroke-opacity: 1;" d="M 65.921642,23.74182 C 61.928533,30.662969 66.142912,40.108294 62.872784,51.933536 C 63.726433,57.088077 67.495313,58.560732 70.582181,59.595555 C 74.099745,60.305545 77.519177,60.272472 80.494259,58.202463 C 86.921457,54.367077 90.686318,49.900405 92.938838,42.859998 C 93.178178,37.656607 90.758302,32.440603 90.773479,27.206125 C 90.476082,21.907556 86.721184,19.066933 81.962728,17.802745 C 76.298107,16.848902 69.931549,19.978225 65.921642,23.74182 z" id="path2505" sodipodi:nodetypes="cccccccc"/>
    <path style="fill: rgb(212, 0, 0); fill-rule: evenodd; stroke: rgb(82, 0, 0); stroke-width: 1px; stroke-linecap: butt; stroke-linejoin: miter; stroke-opacity: 1;" d="M 89.678739,23.964967 C 88.648613,19.147971 87.578109,13.446908 89.986916,9.4176576 C 87.145823,9.0537248 90.852343,11.032625 87.79442,8.2019941 C 81.596708,6.5181798 62.281518,18.158408 65.647611,23.838587 C 71.110289,25.460363 83.77101,25.813719 89.678739,23.964967 z" id="path2510" sodipodi:nodetypes="ccccc"/>
    <path style="fill: rgb(233, 210, 175); fill-opacity: 1; fill-rule: evenodd; stroke: rgb(76, 47, 10); stroke-width: 1px; stroke-linecap: butt; stroke-linejoin: miter; stroke-opacity: 1;" d="M 69.278613,35.855351 C 66.537647,41.768293 63.100809,40.366935 61.77143,43.823535 C 64.191716,47.907382 67.259182,46.572663 70.215057,43.457167" id="path2514" sodipodi:nodetypes="ccc"/>
    <path style="fill: rgb(233, 210, 175); fill-opacity: 1; fill-rule: evenodd; stroke: rgb(76, 47, 10); stroke-width: 1px; stroke-linecap: butt; stroke-linejoin: miter; stroke-opacity: 1;" d="M 88.937904,31.000704 C 93.641418,23.460229 98.590521,36.986072 90.406373,37.228935" id="path2517" sodipodi:nodetypes="cc"/>
    <path style="fill: none; fill-rule: evenodd; stroke: rgb(76, 47, 10); stroke-width: 1px; stroke-linecap: butt; stroke-linejoin: miter; stroke-opacity: 1;" d="M 64.789317,51.941765 C 70.086199,53.391804 74.728708,54.344155 79.884064,49.342877" id="path2530" sodipodi:nodetypes="cc"/>
    <path style="fill: rgb(255, 255, 255); fill-rule: evenodd; stroke: rgb(51, 51, 51); stroke-width: 1px; stroke-linecap: butt; stroke-linejoin: miter; stroke-opacity: 1;" d="M 74.54501,30.528121 C 73.34434,32.49003 73.001665,35.740393 75.064192,37.004618 C 80.152003,37.076894 79.946683,34.2609 79.996383,31.564362 C 80.005561,28.538997 75.574865,28.233028 74.54501,30.528121 z" id="path2547" sodipodi:nodetypes="cccc"/>
    <path style="fill: rgb(255, 255, 255); fill-rule: evenodd; stroke: rgb(51, 51, 51); stroke-width: 1px; stroke-linecap: butt; stroke-linejoin: miter; stroke-opacity: 1;" d="M 65.778577,29.844346 C 63.475424,32.681023 64.204513,35.384382 66.546724,36.298229 C 67.743,36.764972 69.12165,34.897551 69.661782,33.28364 C 70.733603,30.599538 68.660481,28.472571 65.778577,29.844346 z" id="path2549" sodipodi:nodetypes="cscc"/>
    <path style="fill: rgb(0, 0, 0); fill-rule: evenodd; stroke: rgb(0, 0, 0); stroke-width: 1px; stroke-linecap: butt; stroke-linejoin: miter; stroke-opacity: 1;" d="M 66.781828,32.224047 C 65.229816,32.224047 65.401863,34.991873 66.262647,35.850891 C 68.824785,36.33564 70.25916,31.759506 66.781828,32.224047 z" id="path2551" sodipodi:nodetypes="ccc"/>
    <path style="fill: rgb(0, 0, 0); fill-rule: evenodd; stroke: rgb(0, 0, 0); stroke-width: 1px; stroke-linecap: butt; stroke-linejoin: miter; stroke-opacity: 1;" d="M 77.660087,32.412325 C 77.312598,30.847281 74.144622,34.542426 75.583372,36.298229 C 78.854106,37.04744 79.488918,35.220164 77.660087,32.412325 z" id="path2553" sodipodi:nodetypes="ccc"/>
    <path style="fill: none; fill-rule: evenodd; stroke: rgb(82, 0, 0); stroke-width: 1px; stroke-linecap: butt; stroke-linejoin: miter; stroke-opacity: 1;" d="M 73.638566,73.469275 C 73.472788,79.607112 72.469928,78.855971 71.780986,84.969394 C 71.440848,86.439548 71.533624,94.618904 71.976996,96.036067" id="path3346" sodipodi:nodetypes="ccc"/>
    <path style="fill: rgb(255, 255, 255); fill-rule: evenodd; stroke: rgb(179, 179, 179); stroke-width: 1px; stroke-linecap: butt; stroke-linejoin: miter; stroke-opacity: 1;" d="M 71.15151,94.065238 C 69.955924,92.037798 67.903051,93.168873 66.12211,92.498469 C 64.732948,91.79722 63.318908,92.445067 61.917209,92.828311 C 60.602485,93.50131 59.300278,93.536361 58.536786,94.560007 C 58.636065,95.789144 59.266296,96.891176 59.855979,97.940927 C 61.337395,98.585806 62.892476,98.062891 64.473124,98.435696 C 66.062206,98.90535 67.636856,98.835211 69.172731,98.435696 C 70.305679,96.817818 71.09681,96.09154 72.553144,97.776 C 73.439206,98.662196 76.425164,98.435696 77.747445,98.435696 C 80.023752,98.243201 82.075914,99.166313 84.260928,99.590159 C 86.030712,99.6351 87.773585,99.569588 89.53767,99.837539 C 91.844816,99.677428 93.297959,98.296146 95.72136,97.940927 C 97.445493,96.354248 97.383107,94.087834 96.793201,91.921236 C 95.110214,90.616465 92.855333,89.91171 91.186656,91.426468 C 89.076379,92.339298 86.604463,91.655776 84.425821,91.179088 C 83.235999,90.941084 81.674743,91.557724 80.550712,91.838773 C 78.859022,91.982382 77.545194,91.977334 76.180909,93.075701 C 75.515296,93.741413 72.250551,92.903973 71.23396,93.158163 C 70.911182,93.238872 71.123208,93.923701 71.15151,94.065238 z" id="path2664" sodipodi:nodetypes="cccccccccccccccccsc"/>
    <path style="fill: rgb(255, 197, 255); fill-opacity: 1; fill-rule: evenodd; stroke: rgb(255, 0, 255); stroke-width: 1px; stroke-linecap: butt; stroke-linejoin: miter; stroke-opacity: 1;" d="M 86.01784,91.442355 C 78.162039,92.964922 76.71037,100.56937 88.262404,102.11292 C 89.99315,100.52218 89.101639,99.368548 88.262404,98.206209 C 85.032928,97.421323 82.598285,96.356384 85.668038,94.911747 L 106.83106,95.844692 C 107.07803,94.567424 107.30881,92.89873 106.65617,91.47151 L 86.01784,91.442355 z" id="path4066" sodipodi:nodetypes="ccccccc"/>
    <path style="fill: rgb(255, 0, 255); fill-opacity: 1; fill-rule: evenodd; stroke: rgb(128, 0, 128); stroke-width: 1px; stroke-linecap: butt; stroke-linejoin: miter; stroke-opacity: 1;" d="M 86.01784,91.442355 C 84.769419,91.684315 83.709789,92.108114 82.81132,92.608537 C 84.134766,92.99723 85.170432,93.745695 85.872088,94.911747 L 89.749062,95.086673 C 89.493287,93.821832 89.253033,92.555574 87.329598,91.442355 L 86.01784,91.442355 z M 91.031671,91.442355 C 92.718938,92.819793 92.632411,94.000119 93.013883,95.232446 L 96.715955,95.407374 C 95.999047,93.843514 97.085701,93.323024 94.821194,91.442355 L 91.031671,91.442355 z M 99.01882,91.47151 L 101.70063,95.611455 L 105.54846,95.786383 C 105.49185,94.292074 105.25553,92.812741 103.3622,91.47151 L 99.01882,91.47151 z M 86.01784,97.535656 C 83.792203,97.247179 82.292689,98.120687 80.829108,99.051692 C 81.87511,100.24866 83.809226,101.26072 86.746594,101.85053 C 86.822478,100.3755 86.447752,99.350887 88.641356,98.789301 C 88.511799,98.595528 88.401205,98.398443 88.262404,98.206209 C 87.427468,98.003285 86.665132,97.777736 86.01784,97.535656 z" id="path4072" sodipodi:nodetypes="cccccccccccccccccccccc"/>
    <path style="fill: rgb(233, 210, 175); fill-opacity: 1; fill-rule: evenodd; stroke: rgb(76, 47, 10); stroke-width: 1px; stroke-linecap: butt; stroke-linejoin: miter; stroke-opacity: 1;" d="M 96.198593,84.436449 C 95.382883,84.232488 95.585227,87.642432 95.209204,88.3946 C 93.400997,89.836962 91.859871,88.8504 91.289936,91.353213 C 92.140291,91.553907 92.920145,91.342167 93.477543,91.444147 C 94.09007,91.556221 94.669519,91.104573 95.044311,91.198287 C 97.56007,92.467429 91.401257,96.118091 94.219814,97.630283 C 96.172036,97.016145 97.576496,94.608698 98.322266,92.829226 C 99.109964,93.97728 94.801931,99.9263 97.37946,98.881354 C 99.597943,98.171934 100.49317,94.470267 100.98064,92.682594 C 101.40581,94.465779 99.447826,98.343698 101.59851,98.020162 C 103.36659,96.489161 104.20279,91.075503 102.29983,88.889369 C 101.49517,87.663171 101.81665,85.926567 101.64024,84.436449 C 100.82507,80.615365 97.23786,80.475227 96.198593,84.436449 z" id="path3380" sodipodi:nodetypes="cccsccccccccc"/>
    <path style="fill: rgb(212, 0, 0); fill-opacity: 1; fill-rule: evenodd; stroke: rgb(82, 0, 0); stroke-width: 1px; stroke-linecap: butt; stroke-linejoin: miter; stroke-opacity: 1;" d="M 93.324954,58.620366 C 98.370836,63.335183 97.337605,67.154624 100.36921,71.316857 C 100.66458,74.57961 101.79079,80.305516 102.36056,83.512907 C 100.84545,84.050993 96.520364,87.108087 95.107705,85.861 C 94.633868,81.833801 94.167036,77.928091 93.343499,73.924869 C 91.996238,70.194981 90.756026,65.13253 88.268756,61.94682" id="path3350" sodipodi:nodetypes="cccccc"/>
    <path style="fill: rgb(212, 0, 0); fill-opacity: 1; fill-rule: evenodd; stroke: rgb(82, 0, 0); stroke-width: 1px; stroke-linecap: butt; stroke-linejoin: miter; stroke-opacity: 1;" d="M 80.717572,69.27324 L 87.808192,69.438167 L 87.6433,71.747085 L 80.552671,71.417242 L 80.717572,69.27324 z" id="path3376"/>
    <path sodipodi:nodetypes="cc" id="path3627" d="M 90.734646,31.297642 C 93.401836,29.964668 93.976967,33.661893 91.31765,35.146042" style="fill: none; fill-rule: evenodd; stroke: rgb(76, 47, 10); stroke-width: 1px; stroke-linecap: butt; stroke-linejoin: miter; stroke-opacity: 1;"/>
    <path style="fill: rgb(255, 255, 255); fill-rule: evenodd; stroke: rgb(179, 179, 179); stroke-width: 1px; stroke-linecap: butt; stroke-linejoin: miter; stroke-opacity: 1;" d="M 98.194834,82.438163 C 96.27374,82.667715 94.740934,83.772015 92.835642,83.675091 C 92.630191,83.777826 93.850777,85.782941 93.907473,86.066473 C 94.594232,88.104753 96.279794,87.402533 97.947482,86.891084 C 99.590993,87.202958 100.20933,87.198079 100.9981,85.654166 C 102.60368,84.31984 103.85921,85.431519 103.63648,82.85047 C 103.06525,81.124092 102.29272,80.859014 100.58585,80.624014 C 99.568345,80.913758 99.102678,81.85609 98.194834,82.438163 z" id="path2662" sodipodi:nodetypes="cccccccc"/>
    <path style="fill: rgb(255, 255, 255); fill-opacity: 1; fill-rule: evenodd; stroke: rgb(179, 179, 179); stroke-width: 1px; stroke-linecap: butt; stroke-linejoin: miter; stroke-opacity: 1;" d="M 90.307729,38.761205 C 88.303372,39.417616 87.945959,41.392465 86.722257,42.842842 C 84.8012,43.419205 83.3244,44.717726 81.446074,45.320977 C 80.056744,45.66836 78.742962,46.476617 77.5108,47.216023 C 76.817679,47.631957 76.512185,47.653332 75.674339,47.65334 C 74.106368,47.633646 72.539599,47.714608 70.981161,47.65334 C 69.903575,47.197756 68.726514,46.872419 67.65804,47.186868 C 65.685212,47.383636 64.450896,47.891167 63.081462,49.373459 C 62.867831,50.559839 62.582168,51.717316 62.177807,52.842849 C 61.444799,54.813165 62.115701,55.82709 63.722766,56.95364 C 64.869072,58.331386 64.686495,59.7911 66.025631,61.093585 C 67.30502,62.135686 67.538763,63.647757 68.007843,65.116912 C 68.66965,65.999451 70.364156,67.111569 71.330963,67.595049 C 72.784414,68.283488 73.81161,67.171501 75.033036,66.428867 C 76.534759,65.885911 78.176992,64.824761 79.813665,64.125659 C 82.004303,63.691596 81.773546,61.432963 82.932734,59.83994 C 84.250592,58.292138 85.214899,56.514895 86.314155,54.825359 C 87.545514,53.49788 88.217191,51.809892 89.112572,50.277249 C 90.343997,48.783176 90.219196,46.912713 90.278579,45.087742 C 90.396085,43.464752 91.101519,42.311576 90.861582,40.71456 C 90.700692,40.142272 90.365871,39.01242 90.307729,38.761205 z M 82.524632,48.294741 C 82.52464,49.226968 82.279238,49.879675 81.795877,50.685414 C 81.032823,52.14788 79.65492,52.966223 78.327006,53.834104 C 77.46083,54.411635 76.25169,54.02644 75.353688,54.475504 C 73.088583,54.58186 71.108992,55.978964 68.911498,55.816613 C 67.988804,55.355188 66.666673,55.903946 65.792429,55.466758 C 65.594637,55.367848 64.931599,54.153023 64.801323,53.892413 C 64.441819,53.173309 63.545598,53.070433 63.314664,52.492995 C 63.967012,50.6294 65.22685,50.450433 66.870985,51.006113 C 68.533926,51.464395 70.117952,50.830729 71.739065,50.539641 C 72.755217,50.539631 73.750605,50.860341 74.858134,50.860341 C 76.619151,49.93233 78.711005,49.425546 80.134316,47.974041 C 80.590402,47.365826 80.975316,47.231687 81.620976,47.07025 C 82.675373,47.172995 82.462935,46.977002 82.524632,48.294741 z" id="path2668" sodipodi:nodetypes="cccsccccccccccccccccccccccssccccccc"/>
    <path style="fill: rgb(255, 210, 0); fill-opacity: 1; fill-rule: evenodd; stroke: rgb(106, 87, 0); stroke-width: 1px; stroke-linecap: butt; stroke-linejoin: miter; stroke-opacity: 1;" d="M 23.58297,70.831204 C 23.814335,71.340274 36.157872,64.780838 35.592844,60.218949 C 35.197213,57.02474 20.121888,65.754693 23.58297,70.831204 z" id="path2681" sodipodi:nodetypes="csc"/>
    <path style="fill: rgb(233, 210, 175); fill-opacity: 1; fill-rule: evenodd; stroke: rgb(76, 47, 10); stroke-width: 1px; stroke-linecap: butt; stroke-linejoin: miter; stroke-opacity: 1;" d="M 31.203396,72.525348 C 31.408073,65.92378 21.766043,76.594921 29.568468,74.563293 C 28.309003,73.708398 27.168629,79.161706 31.950153,77.828144 C 31.254028,78.358216 32.050907,79.285433 32.424234,79.539968 C 33.94286,79.744172 35.851903,77.236555 35.933514,77.402404 C 38.290808,72.568059 33.184424,73.576115 33.236474,74.413107 C 35.798789,71.730469 32.474568,70.133715 31.203396,72.525348 z" id="path2687" sodipodi:nodetypes="ccccccc"/>
    <path style="fill: rgb(255, 210, 0); fill-opacity: 1; stroke: rgb(106, 87, 0); stroke-width: 1; stroke-linejoin: bevel; stroke-miterlimit: 4; stroke-opacity: 1;" d="M 30.11261,66.866185 C 30.024778,67.603128 26.635689,69.487174 25.302831,69.956567 C 23.982389,70.421584 23.116568,67.693241 23.116568,66.341404 C 23.116568,64.989566 25.477033,63.36764 26.87694,63.36764 C 28.276849,63.36764 30.11261,65.514347 30.11261,66.866185 z" id="path2689" sodipodi:nodetypes="csssc"/>
    <path style="fill: rgb(0, 108, 169); fill-opacity: 1; fill-rule: evenodd; stroke: rgb(0, 50, 80); stroke-width: 1px; stroke-linecap: butt; stroke-linejoin: miter; stroke-opacity: 1;" d="M 16.60938,100.91603 L 39.30042,103.45148 L 39.967805,122.26706 L 16.07547,118.1303 L 16.60938,100.91603 z" id="path3468" sodipodi:nodetypes="ccccc"/>
    <path sodipodi:nodetypes="ccccc" id="path3470" d="M 49.978555,91.975291 L 39.30042,103.45148 L 39.967805,122.26706 L 50.779415,107.32135 L 49.978555,91.975291 z" style="fill: rgb(0, 108, 169); fill-opacity: 1; fill-rule: evenodd; stroke: rgb(0, 50, 80); stroke-width: 1px; stroke-linecap: butt; stroke-linejoin: miter; stroke-opacity: 1;"/>
    <path style="fill: rgb(0, 50, 92); fill-opacity: 1; fill-rule: evenodd; stroke: rgb(0, 25, 46); stroke-width: 1px; stroke-linecap: butt; stroke-linejoin: miter; stroke-opacity: 1;" d="M 34.543438,90.18982 L 31.395219,94.067375 L 23.699571,93.221893 L 21.134356,95.904111 L 29.150655,96.807902 L 25.215381,101.6184 C 25.215381,101.6184 23.932773,118.8779 24.049374,119.34436 L 30.345812,120.39393 L 30.812214,102.31811 L 34.368537,97.390993 L 43.988096,98.469711 L 44.454498,116.19568 L 48.069121,111.29771 L 47.136315,95.787492 L 36.350749,94.621311 L 39.207466,90.656293 L 34.543438,90.18982 z" id="path3474"/>
    <g id="g4273" transform="matrix(0.958431, 0, 0, 0.958511, -642.455, 151.06)"/>
    <path style="fill: rgb(255, 255, 255); fill-opacity: 1; fill-rule: evenodd; stroke: rgb(179, 179, 179); stroke-width: 1px; stroke-linecap: butt; stroke-linejoin: miter; stroke-opacity: 1;" d="M 68.039206,21.767555 C 67.358274,21.542064 66.618632,21.619396 65.909466,21.594184 C 65.154075,21.625648 64.276508,21.444138 63.669849,22.017525 C 63.099787,22.550538 62.827335,23.41727 63.009316,24.176902 C 63.379702,25.125592 64.224537,25.805483 65.077098,26.310831 C 65.781222,26.63526 66.587174,26.481862 67.33532,26.443369 C 68.729779,26.279711 70.135871,26.375537 71.53616,26.351536 C 72.786077,26.396154 74.009655,26.740978 75.265867,26.699439 C 76.155304,26.722114 77.026121,26.913284 77.892769,27.093331 C 79.033194,27.204795 80.172567,26.973378 81.315262,27.029526 C 83.200274,27.017868 85.086747,27.054916 86.97075,27.009333 C 88.1352,26.887017 89.27857,26.575632 90.363297,26.139944 C 91.120725,25.682893 91.305374,24.705252 91.355504,23.887878 C 91.374916,23.212216 91.179756,22.539227 90.902536,21.929072 C 90.570759,21.269661 89.75124,21.22987 89.103567,21.262368 C 87.205595,21.255572 85.494778,22.176233 83.693275,22.627991 C 82.643374,22.868745 81.558558,22.771562 80.491149,22.806377 C 78.995029,22.829165 77.573918,22.301161 76.150269,21.912721 C 74.782289,21.47048 73.349426,21.259622 71.91266,21.260395 C 70.598034,21.205735 69.316108,21.498085 68.039206,21.767555 z" id="path2711"/>
    <path style="fill: rgb(255, 255, 255); fill-opacity: 1; fill-rule: evenodd; stroke: rgb(179, 179, 179); stroke-width: 1px; stroke-linecap: butt; stroke-linejoin: miter; stroke-opacity: 1;" d="M 86.370028,5.1329354 C 85.456909,5.1329354 84.717248,4.945572 83.99381,6.1513814 C 83.440468,7.0736785 84.372588,8.5801836 84.842459,9.2067197 C 85.353647,9.8883487 86.950467,10.030803 87.727866,10.225166 C 89.197143,10.592509 90.126964,10.734389 91.631652,10.734389 C 93.032047,10.734389 93.558245,10.784991 94.177599,9.5462017 C 94.672757,8.5558185 93.489776,7.5004048 92.819761,6.8303455 C 91.947818,5.9583466 91.049538,5.5814909 89.934353,5.3026764 C 88.604739,4.9702509 87.822357,4.5519653 86.370028,5.1329354 z" id="path2713"/>
  </g>
</svg>