<?xml version="1.0" encoding="UTF-8" standalone="no"?>
<!-- Created with Inkscape (http://www.inkscape.org/) -->
<svg xmlns:dc="http://purl.org/dc/elements/1.1/" xmlns:cc="http://creativecommons.org/ns#" xmlns:rdf="http://www.w3.org/1999/02/22-rdf-syntax-ns#" xmlns:svg="http://www.w3.org/2000/svg" xmlns="http://www.w3.org/2000/svg" xmlns:sodipodi="http://sodipodi.sourceforge.net/DTD/sodipodi-0.dtd" xmlns:inkscape="http://www.inkscape.org/namespaces/inkscape" width="128" height="128" id="svg2" sodipodi:version="0.32" inkscape:version="0.46" version="1.0" sodipodi:docname="lady.svg" inkscape:output_extension="org.inkscape.output.svg.inkscape" inkscape:export-xdpi="90" inkscape:export-ydpi="90">
  <sodipodi:namedview id="base" pagecolor="#ffffff" bordercolor="#666666" borderopacity="1.0" gridtolerance="10000" guidetolerance="10" objecttolerance="10" inkscape:pageopacity="0" inkscape:pageshadow="2" inkscape:zoom="1" inkscape:cx="-102.88123" inkscape:cy="64" inkscape:document-units="px" inkscape:current-layer="layer1" showgrid="false" inkscape:window-width="1026" inkscape:window-height="741" inkscape:window-x="600" inkscape:window-y="158" showguides="true" inkscape:guide-bbox="true"/>
  <defs id="defs4">
    <filter height="2.0159051" y="-0.50795257" width="1.4353683" x="-0.21768413" id="filter3533" inkscape:collect="always">
      <feGaussianBlur id="feGaussianBlur3535" stdDeviation="3.2924533" inkscape:collect="always"/>
    </filter>
  </defs>
  <metadata id="metadata7">
    <rdf:RDF>
      <cc:Work rdf:about="">
        <dc:format>image/svg+xml</dc:format>
        <dc:type rdf:resource="http://purl.org/dc/dcmitype/StillImage"/>
        <cc:license rdf:resource="http://creativecommons.org/licenses/by-sa/3.0/"/>
        <dc:title>Fedora WEBCOMIC 2.0</dc:title>
        <dc:date>May 2008</dc:date>
        <dc:creator>
          <cc:Agent>
            <dc:title>Nicu Buculei</dc:title>
          </cc:Agent>
        </dc:creator>
        <dc:rights>
          <cc:Agent>
            <dc:title>Nicu Buculei</dc:title>
          </cc:Agent>
        </dc:rights>
        <dc:subject>
          <rdf:Bag>
            <rdf:li>fedora</rdf:li>
            <rdf:li>webcomic</rdf:li>
            <rdf:li>nicubunu</rdf:li>
          </rdf:Bag>
        </dc:subject>
        <dc:language>en-US</dc:language>
      </cc:Work>
      <cc:License rdf:about="http://creativecommons.org/licenses/by-sa/3.0/">
        <cc:permits rdf:resource="http://creativecommons.org/ns#Reproduction"/>
        <cc:permits rdf:resource="http://creativecommons.org/ns#Distribution"/>
        <cc:requires rdf:resource="http://creativecommons.org/ns#Notice"/>
        <cc:requires rdf:resource="http://creativecommons.org/ns#Attribution"/>
        <cc:permits rdf:resource="http://creativecommons.org/ns#DerivativeWorks"/>
        <cc:requires rdf:resource="http://creativecommons.org/ns#ShareAlike"/>
      </cc:License>
    </rdf:RDF>
  </metadata>
  <g inkscape:label="Layer 1" inkscape:groupmode="layer" id="layer1">
    <g transform="translate(-237.488, -101.709)" id="g3765"/>
    <g id="g4184" transform="translate(-302.488, -113.709)"/>
    <g id="g4642" transform="matrix(0.862475, 0, 0, 0.862475, 216.684, -55.7363)">
      <path sodipodi:nodetypes="cccccccc" id="path2552" d="M 387.14096,155.60482 C 382.57965,152.74462 372.84223,153.32511 369.46329,157.72614 C 367.77731,161.54716 375.5184,164.82614 378.65568,165.85786 C 383.03698,165.98566 386.91972,166.27979 391.03005,167.62563 C 396.0362,165.50791 394.72477,166.70884 396.6869,165.85786 C 400.31562,164.24489 404.97793,162.11667 405.52574,157.72614 C 405.28544,153.92487 402.41894,152.69892 399.16178,152.06928 C 395.52438,153.19951 389.79026,152.6596 387.14096,155.60482 z" style="fill: rgb(0, 0, 0); fill-opacity: 0.777778; fill-rule: evenodd; stroke: none; stroke-width: 1px; stroke-linecap: butt; stroke-linejoin: miter; stroke-opacity: 1; filter: url(#filter3533);" transform="matrix(-1.15152, 0, 0, 0.775011, 258.054, 82.8764)"/>
      <path style="fill: rgb(255, 255, 255); fill-opacity: 1; fill-rule: evenodd; stroke: rgb(107, 85, 50); stroke-width: 1.15945px; stroke-linecap: butt; stroke-linejoin: miter; stroke-opacity: 1;" d="M -196.63922,203.03753 L -199.51422,200.66253 L -198.51422,206.28753 L -197.76422,206.16253 L -196.63922,203.03753 z" id="path2536"/>
      <path id="path2534" d="M -185.01422,203.78753 L -187.88922,201.41253 L -186.88922,207.03753 L -186.13922,206.91253 L -185.01422,203.78753 z" style="fill: rgb(255, 255, 255); fill-opacity: 1; fill-rule: evenodd; stroke: rgb(107, 85, 50); stroke-width: 1.15945px; stroke-linecap: butt; stroke-linejoin: miter; stroke-opacity: 1;"/>
      <path sodipodi:nodetypes="ccccccccccc" id="path2522" d="M -202.02587,172.48828 C -203.02039,174.1556 -203.23127,175.54539 -203.08653,177.43803 C -202.82473,181.3809 -201.44015,184.87777 -198.37421,187.27058 C -199.72069,191.11212 -198.4894,195.36439 -199.02067,197.94413 C -199.27364,199.20898 -199.26406,199.64527 -198.49033,200.419 C -196.8701,202.25484 -197.37097,204.08951 -193.54059,205.89908 C -192.68165,206.54328 -191.9496,206.09827 -191.9496,205.19197 C -191.16261,201.52732 -194.13632,199.7751 -194.07092,196.52991 C -192.73141,193.14591 -192.6567,189.5134 -192.6567,185.92331 C -192.3451,180.51779 -192.49816,175.04109 -194.9548,170.27857 C -197.13726,167.36289 -200.89609,170.16636 -202.02587,172.48828 z" style="fill: rgb(244, 227, 215); fill-opacity: 1; fill-rule: evenodd; stroke: rgb(82, 47, 22); stroke-width: 1.15945px; stroke-linecap: butt; stroke-linejoin: miter; stroke-opacity: 1;"/>
      <path sodipodi:nodetypes="ccccccc" id="path2528" d="M -191.88922,202.16253 C -190.90421,204.06545 -190.86392,206.058 -190.63922,210.16253 C -194.02054,210.17876 -195.40075,206.77184 -197.63922,204.78753 C -198.11451,204.31224 -198.57929,202.65224 -198.76422,201.91253 C -200.52479,199.20485 -200.07093,199.63192 -199.26422,198.78753 C -198.72789,198.65345 -199.74762,192.16253 -199.13922,192.16253 C -196.8741,192.66428 -193.36702,200.00626 -191.88922,202.16253 z" style="fill: rgb(255, 255, 255); fill-opacity: 1; fill-rule: evenodd; stroke: rgb(107, 85, 50); stroke-width: 1.15945px; stroke-linecap: butt; stroke-linejoin: miter; stroke-opacity: 1;"/>
      <path style="fill: rgb(244, 227, 215); fill-opacity: 1; fill-rule: evenodd; stroke: rgb(82, 47, 22); stroke-width: 1.15945px; stroke-linecap: butt; stroke-linejoin: miter; stroke-opacity: 1;" d="M -189.6515,173.37216 C -190.64602,175.03948 -190.94529,176.34088 -190.80055,178.23352 C -190.53875,182.17639 -187.65157,185.67326 -184.58563,188.06607 C -186.24362,190.50579 -186.26181,195.58776 -186.6463,198.82801 C -186.89927,200.09286 -186.88969,200.52915 -186.11596,201.30288 C -184.49573,203.13872 -184.37788,202.5869 -180.5475,204.39647 C -179.68856,205.04067 -177.10296,204.54649 -177.10296,203.64019 C -179.31597,200.60054 -181.76195,200.65898 -181.69655,197.41379 C -180.35704,194.02979 -179.13328,191.54633 -179.13328,187.95624 C -178.82168,182.55072 -182.77544,176.54369 -185.23208,171.78117 C -187.41454,168.86549 -188.52172,171.05024 -189.6515,173.37216 z" id="path2526" sodipodi:nodetypes="ccccccccccc"/>
      <path style="fill: rgb(255, 255, 255); fill-opacity: 1; fill-rule: evenodd; stroke: rgb(107, 85, 50); stroke-width: 1.15945px; stroke-linecap: butt; stroke-linejoin: miter; stroke-opacity: 1;" d="M -179.6421,200.954 C -177.79206,202.55812 -175.18141,204.33678 -175.19675,207.65864 C -178.26767,208.73426 -180.96022,205.30691 -183.90408,204.12453 C -184.50442,203.82223 -185.84126,204.64167 -186.2488,203.99725 C -188.76957,201.97814 -188.20469,201.11636 -187.70342,200.06161 C -187.23618,199.76613 -187.40858,192.95997 -186.83086,192.76921 C -185.37142,192.6214 -181.14596,191.11292 -181.79435,193.91281 C -182.2648,195.94428 -181.90775,199.435 -179.6421,200.954 z" id="path2532" sodipodi:nodetypes="ccccccsc"/>
      <path id="path2548" d="M -188.26165,135.36598 C -188.29431,135.37323 -188.31795,135.38841 -188.32928,135.41106 C -188.00582,142.89924 -180.03809,153.71812 -171.96352,153.67038 C -168.54398,151.98004 -165.9984,148.65516 -161.88708,148.28276 C -162.00026,148.15327 -162.09454,148.02765 -162.18013,147.89954 C -161.96681,148.15174 -161.72419,148.29123 -161.5264,148.19259 C -160.54678,147.70404 -158.23351,147.87162 -158.43809,148.37293 C -155.15046,148.48847 -148.08548,147.40568 -149.01538,145.93835 C -148.73496,145.65794 -147.63082,144.72106 -148.6547,144.72106 C -150.94103,144.72106 -154.41744,144.96464 -156.67979,144.65344 C -156.48364,143.56212 -155.68633,140.33626 -155.95843,140.70852 C -156.38136,141.28706 -157.83489,144.14836 -158.93403,143.54886 C -159.62877,143.16994 -161.93186,144.26899 -162.04487,144.72106 C -162.2446,144.82093 -162.39927,144.90531 -162.51826,144.99157 C -162.47422,144.76076 -162.49467,144.69514 -162.83386,144.9014 C -166.6008,145.89145 -169.64355,146.71947 -173.36114,147.94462 C -176.35468,143.60686 -180.16734,139.2274 -184.65487,136.62835 C -185.01606,136.77282 -187.77177,135.2572 -188.26165,135.36598 z" style="fill: rgb(244, 227, 215); fill-opacity: 1; fill-rule: evenodd; stroke: rgb(82, 47, 22); stroke-width: 1.15945px; stroke-linecap: butt; stroke-linejoin: miter; stroke-opacity: 1;"/>
      <path id="path2667" d="M -195.92606,158.87767 C -196.89241,157.3472 -199.57475,155.77 -200.97555,154.3692 C -202.0976,156.36015 -201.27248,155.33464 -202.23792,154.3692 C -202.24003,154.36709 -203.18311,155.94875 -204.40199,154.72988 C -204.8598,154.27207 -205.74757,155.90904 -206.20538,155.45123 C -208.17765,153.47896 -210.69278,159.35546 -210.89419,159.95971 C -210.91603,160.02522 -209.88528,159.72086 -209.27114,162.48445 C -208.90588,164.12815 -209.64622,163.60247 -209.27114,162.66479 C -208.88965,161.71105 -209.18565,165.30108 -208.18911,165.55021 C -207.98092,165.60226 -205.87159,169.23372 -205.30368,169.51767 C -204.64958,169.84472 -203.84908,169.33436 -203.13962,169.15699 C -202.91981,169.10204 -202.92977,168.65368 -202.05758,168.43564 C -200.49508,168.04501 -198.045,166.04611 -197.00809,165.0092 C -196.00909,164.0102 -195.80212,163.16053 -196.1064,161.94343 C -196.30949,161.13106 -196.43416,160.45205 -196.64741,159.59903 C -196.84248,158.81875 -197.12,158.57918 -195.92606,158.87767 z" style="fill: rgb(255, 255, 255); fill-opacity: 1; fill-rule: evenodd; stroke: rgb(107, 85, 50); stroke-width: 1.15945px; stroke-linecap: butt; stroke-linejoin: miter; stroke-opacity: 1;"/>
      <path sodipodi:nodetypes="cccccccccccc" id="path2512" d="M -195.40758,132.77361 C -197.30994,132.76032 -199.8162,133.46614 -201.54551,134.51644 C -208.23017,139.78826 -206.71342,140.48597 -203.90606,148.57581 C -203.02144,152.43099 -196.89306,156.39331 -197.34623,159.89208 C -200.34026,158.50778 -210.7898,160.33708 -207.40012,175.6492 L -207.53584,196.1553 C -193.30681,201.37741 -184.92044,196.68918 -174.89881,196.8624 C -171.07266,183.98945 -186.99419,161.41957 -186.52589,159.77937 C -185.55729,157.62704 -182.99018,153.56728 -182.21256,151.62942 C -179.27936,152.0053 -178.51739,150.09155 -178.45572,148.71106 C -181.66293,144.34581 -182.81509,140.35752 -185.8947,135.92954 C -188.9445,134.08682 -192.237,132.79574 -195.40758,132.77361 z" style="fill: rgb(173, 135, 104); fill-opacity: 1; fill-rule: evenodd; stroke: rgb(55, 41, 30); stroke-width: 1.15945px; stroke-linecap: butt; stroke-linejoin: miter; stroke-opacity: 1;"/>
      <path sodipodi:nodetypes="ccccccc" id="path2516" d="M -189.2093,125.66658 C -189.26781,128.23263 -188.93825,130.41077 -188.08136,132.86813 C -187.46393,135.03085 -182.31771,137.03545 -181.90661,142.3429 C -184.18825,143.02137 -187.06669,143.6384 -188.1365,146.85329 C -193.8918,142.52838 -198.90148,142.94881 -205.23661,147.09574 C -210.6532,134.01042 -195.5645,134.74387 -196.47278,125.62437 C -194.67054,125.31326 -191.2713,124.86876 -189.2093,125.66658 z" style="fill: rgb(244, 227, 215); fill-opacity: 1; fill-rule: evenodd; stroke: rgb(82, 47, 22); stroke-width: 1.15945px; stroke-linecap: butt; stroke-linejoin: miter; stroke-opacity: 1;"/>
      <path sodipodi:nodetypes="cssc" id="path3554" d="M -209.7499,94.127714 C -209.7499,94.127714 -203.11891,82.140943 -195.46778,81.630865 C -189.8636,81.257246 -179.4108,92.02947 -180.42055,90.557189 C -181.41683,89.104559 -208.62993,93.495748 -209.7499,94.127714 z" style="fill: rgb(185, 147, 114); fill-opacity: 1; fill-rule: evenodd; stroke: rgb(117, 85, 56); stroke-width: 1.15945px; stroke-linecap: butt; stroke-linejoin: miter; stroke-opacity: 1;"/>
      <path id="path3556" d="M -187.08945,86.742082 C -186.51877,86.15984 -189.09546,79.777802 -188.35182,83.495981 C -188.18729,84.318644 -188.36398,77.592924 -186.00741,77.003778 C -185.22282,76.807627 -185.17739,78.648563 -184.38436,78.807167 C -182.40465,79.203113 -184.04371,77.164092 -182.40063,78.807167 C -182.07692,79.130883 -181.56333,78.096127 -181.13826,78.266151 C -178.5336,79.308012 -174.19321,80.905108 -172.66233,82.053269 C -172.11554,82.46336 -173.02301,84.226599 -173.02301,84.938693 C -173.02301,85.175052 -172.98525,87.245344 -173.56402,87.824116 C -174.8943,89.15439 -172.4294,90.529201 -174.64606,90.529201 C -178.18124,90.529201 -179.69555,89.992599 -179.69555,91.971913 C -179.69555,92.58495 -180.95062,91.337076 -181.49894,91.611235 C -182.7544,92.238966 -183.72603,91.719806 -184.02369,90.529201 C -184.17867,89.909268 -184.89485,89.5526 -185.4664,89.266828 C -185.6297,89.185178 -186.44117,87.858294 -186.54843,87.643777 C -186.70519,87.330269 -186.90911,87.04265 -187.08945,86.742082 z" style="fill: rgb(255, 255, 255); fill-opacity: 1; fill-rule: evenodd; stroke: rgb(107, 85, 50); stroke-width: 1.15945px; stroke-linecap: butt; stroke-linejoin: miter; stroke-opacity: 1;"/>
      <path id="path3558" d="M -204.58233,84.758354 C -205.16358,83.256592 -206.18082,83.527136 -207.82843,83.856659 C -207.96712,83.884395 -207.00388,84.578015 -208.73012,84.578015 C -209.16776,84.578015 -209.57171,84.818464 -209.9925,84.938693 C -210.11503,84.9737 -209.64589,85.89213 -212.3369,86.381404 C -213.11481,86.522841 -213.89984,86.621854 -214.68131,86.742082 C -215.86158,86.923662 -214.45641,88.887907 -213.95996,89.086489 C -213.06694,89.443697 -214.19323,91.038824 -213.95996,91.971913 C -213.53011,93.691264 -212.69501,93.594963 -211.25487,93.594963 C -210.66679,93.594963 -208.3789,93.599688 -207.64809,93.234285 C -206.50371,92.662099 -205.50955,91.791574 -203.86097,91.791574 C -201.94854,91.791574 -201.61854,90.192133 -200.97555,88.90615 C -200.67526,88.305571 -201.93336,86.697971 -202.05758,86.201065 C -202.30828,85.198265 -203.61001,85.341743 -204.58233,84.758354 z" style="fill: rgb(255, 255, 255); fill-opacity: 1; fill-rule: evenodd; stroke: rgb(107, 85, 50); stroke-width: 1.15945px; stroke-linecap: butt; stroke-linejoin: miter; stroke-opacity: 1;"/>
      <path sodipodi:nodetypes="cc" id="path3564" d="M -213.59928,74.659371 C -200.76623,74.65712 -201.19271,78.508339 -198.63114,84.938693" style="fill: none; fill-rule: evenodd; stroke: rgb(65, 41, 6); stroke-width: 1.15945px; stroke-linecap: butt; stroke-linejoin: miter; stroke-opacity: 1;"/>
      <path sodipodi:nodetypes="csssss" id="path3546" d="M -205.03318,109.01395 C -209.18097,107.3909 -221.71453,106.39903 -219.7308,98.103438 C -217.74707,89.807845 -199.17216,83.135303 -189.43385,86.742082 C -179.69555,90.348862 -177.71182,91.070218 -174.46572,88.365133 C -171.21962,85.660049 -163.46504,87.643777 -163.82572,90.529201 C -164.1864,93.414624 -192.22911,112.26005 -205.03318,109.01395 z" style="fill: rgb(185, 147, 114); fill-opacity: 1; fill-rule: evenodd; stroke: rgb(117, 85, 56); stroke-width: 1.15945px; stroke-linecap: butt; stroke-linejoin: miter; stroke-opacity: 1;"/>
      <path sodipodi:nodetypes="ccccccc" id="path2481" d="M -190.23646,94.005956 C -186.71046,93.527336 -181.97817,95.66581 -180.56159,99.983428 C -180.06377,105.29115 -179.70128,110.66038 -179.79339,116.00292 C -181.42876,122.18038 -180.91408,129.14751 -188.65853,133.11207 C -199.68827,130.64858 -201.49054,121.24259 -202.96234,114.6319 C -201.60073,108.35472 -204.10421,103.1961 -200.00941,97.836024 C -197.19696,95.298712 -192.65927,93.354247 -190.23646,94.005956 z" style="fill: rgb(244, 227, 215); fill-rule: evenodd; stroke: rgb(82, 47, 22); stroke-width: 1.15945px; stroke-linecap: butt; stroke-linejoin: miter; stroke-opacity: 1;"/>
      <path sodipodi:nodetypes="ccc" id="path2493" d="M -185.19899,111.24354 C -185.65302,111.51057 -184.16393,114.52469 -183.42952,115.178 C -183.96904,115.52998 -184.13933,115.82149 -185.59408,116.00383" style="fill: none; fill-rule: evenodd; stroke: rgb(82, 47, 22); stroke-width: 1.15945px; stroke-linecap: butt; stroke-linejoin: miter; stroke-opacity: 1;"/>
      <path sodipodi:nodetypes="ccccccc" id="path2496" d="M -189.30086,91.995119 C -178.91871,89.551966 -174.37328,101.85709 -175.05673,110.34964 C -175.23386,114.87382 -175.25656,116.82617 -178.45745,119.80208 C -178.344,120.65816 -176.99684,124.0459 -176.70857,124.78986 C -178.46169,124.04823 -179.81601,123.12948 -180.37139,121.282 C -179.56662,113.78983 -179.65285,109.85856 -180.27486,104.53994 C -181.07612,97.185224 -192.76021,94.919972 -189.30086,91.995119 z" style="fill: rgb(85, 34, 0); fill-opacity: 1; fill-rule: evenodd; stroke: rgb(43, 17, 0); stroke-width: 1.15945px; stroke-linecap: butt; stroke-linejoin: miter; stroke-opacity: 1;"/>
      <path sodipodi:nodetypes="cccc" id="path2506" d="M -187.44503,109.5095 C -187.6608,106.32768 -191.05331,104.52192 -193.08519,105.79731 C -193.4316,107.70416 -193.16132,109.8776 -191.9441,111.79393 C -188.44084,113.6978 -187.70743,111.76404 -187.44503,109.5095 z" style="fill: rgb(255, 255, 255); fill-rule: evenodd; stroke: rgb(55, 41, 30); stroke-width: 1.15945px; stroke-linecap: butt; stroke-linejoin: miter; stroke-opacity: 1;"/>
      <path sodipodi:nodetypes="cccccccc" id="path2483" d="M -187.55135,93.669407 C -185.30277,97.338339 -186.72767,101.37407 -188.89027,104.74636 C -190.09543,106.29693 -191.24887,107.09357 -192.64223,108.43978 C -195.39434,111.62205 -198.97571,114.01919 -201.04869,117.7189 C -202.37882,121.39016 -200.15002,125.18788 -200.05884,129.09219 C -207.0933,123.53641 -209.09311,117.75312 -208.32143,112.30192 C -208.1778,104.64977 -209.25015,95.786493 -200.8558,92.361755 C -196.47616,89.798857 -191.20291,90.239475 -187.55135,93.669407 z" style="fill: rgb(85, 34, 0); fill-opacity: 1; fill-rule: evenodd; stroke: rgb(43, 17, 0); stroke-width: 1.15945px; stroke-linecap: butt; stroke-linejoin: miter; stroke-opacity: 1;"/>
      <path sodipodi:nodetypes="cssccc" id="path2500" d="M -183.07267,124.00623 C -183.79078,123.31249 -184.33918,121.74558 -185.57045,122.54296 C -186.34547,123.04486 -187.24375,123.736 -188.29337,122.59079 C -189.09655,121.71446 -192.53905,123.5434 -193.15705,124.09146 C -192.32713,124.9703 -188.71083,126.05384 -188.01628,126.13779 C -185.7264,126.27332 -184.7954,125.50985 -183.07267,124.00623 z" style="fill: rgb(170, 0, 0); fill-opacity: 1; fill-rule: evenodd; stroke: rgb(43, 0, 0); stroke-width: 1.15945px; stroke-linecap: butt; stroke-linejoin: miter; stroke-opacity: 1;"/>
      <path sodipodi:nodetypes="cccc" id="path2502" d="M -179.77613,106.69933 C -179.31622,109.46829 -180.06459,112.28028 -182.65352,112.51669 C -184.70798,111.26171 -184.60513,110.50098 -184.07267,108.32944 C -181.81098,106.30505 -180.85373,106.00153 -179.77613,106.69933 z" style="fill: rgb(255, 255, 255); fill-rule: evenodd; stroke: rgb(55, 41, 30); stroke-width: 1.15945px; stroke-linecap: butt; stroke-linejoin: miter; stroke-opacity: 1;"/>
      <path sodipodi:nodetypes="cscc" id="path2504" d="M -180.63667,108.52262 C -181.73491,107.48847 -182.51993,108.81575 -182.73977,109.22461 C -183.42724,110.50318 -182.78629,111.29235 -181.85855,111.6397 C -179.72835,111.88659 -179.69861,108.82398 -180.63667,108.52262 z" style="fill: rgb(0, 128, 0); fill-opacity: 1; fill-rule: evenodd; stroke: rgb(0, 62, 0); stroke-width: 1.15945px; stroke-linecap: butt; stroke-linejoin: miter; stroke-opacity: 1;"/>
      <path sodipodi:nodetypes="cssc" id="path2508" d="M -188.50214,111.56673 C -187.86579,112.35893 -187.59655,108.29909 -188.82974,108.27586 C -190.27351,108.24866 -190.89688,109.98185 -190.91628,110.14234 C -191.1356,111.95684 -189.80708,112.28845 -188.50214,111.56673 z" style="fill: rgb(0, 128, 0); fill-opacity: 1; fill-rule: evenodd; stroke: rgb(0, 62, 0); stroke-width: 1.15945px; stroke-linecap: butt; stroke-linejoin: miter; stroke-opacity: 1;"/>
      <path sodipodi:nodetypes="cc" id="path2542" d="M -190.85852,149.06127 C -192.80822,156.67127 -201.59386,151.52807 -199.29536,147.40868" style="fill: rgb(173, 135, 104); fill-opacity: 1; fill-rule: evenodd; stroke: rgb(55, 41, 30); stroke-width: 1.15945px; stroke-linecap: butt; stroke-linejoin: miter; stroke-opacity: 1;"/>
      <path sodipodi:nodetypes="cc" id="path2544" d="M -181.80178,151.81921 C -183.85775,151.86337 -185.64778,151.09527 -186.32462,148.84086" style="fill: rgb(173, 135, 104); fill-opacity: 1; fill-rule: evenodd; stroke: rgb(55, 41, 30); stroke-width: 1.15945px; stroke-linecap: butt; stroke-linejoin: miter; stroke-opacity: 1;"/>
      <path id="path3487" d="M -197.16589,138.88259 C -198.02494,138.97515 -198.5729,141.28993 -198.78894,141.18191 C -199.24675,140.953 -200.32182,140.53481 -200.32182,141.04666 C -200.32182,144.35465 -200.53039,141.42988 -202.35063,141.42988 C -203.69807,141.42988 -203.83628,143.24915 -203.88351,143.97716 C -203.27726,144.43186 -203.5224,144.22556 -203.11707,144.63089 C -202.88785,144.86012 -202.70991,145.19036 -202.50843,145.51005 C -197.40691,142.93616 -193.02962,143.17799 -188.1264,146.86259 C -187.05659,143.6477 -184.18634,143.03259 -181.9047,142.35411 C -181.99992,141.12482 -182.36333,140.07102 -182.85148,139.1531 C -183.35953,138.99197 -183.92046,138.85352 -184.24911,139.01784 C -184.61919,139.20288 -184.8472,139.35877 -184.99301,139.49123 C -182.33995,140.11969 -186.01671,140.42124 -184.99301,139.49123 C -185.1201,139.46113 -185.24124,139.43257 -185.39877,139.40106 C -186.8823,139.10436 -186.09256,141.52256 -186.27792,141.42988 C -187.18994,140.97387 -187.69809,140.84814 -187.69809,142.33157 C -187.69809,144.44654 -188.22374,141.94289 -188.32928,142.08361 C -189.13909,143.16337 -189.93644,142.00931 -191.39504,140.55072 C -191.66388,140.2819 -192.33489,141.41946 -192.40945,141.04666 C -192.58919,140.14794 -194.4856,138.65942 -195.33996,139.51377 C -196.7626,140.93642 -195.77799,139.19011 -197.00809,138.88259 C -197.06825,138.86755 -197.10862,138.87642 -197.16589,138.88259 z" style="fill: rgb(255, 255, 255); fill-opacity: 1; fill-rule: evenodd; stroke: rgb(107, 85, 50); stroke-width: 1.15945px; stroke-linecap: butt; stroke-linejoin: miter; stroke-opacity: 1;"/>
      <path id="path3530" d="M -198.40072,160.31003 C -198.40072,160.31003 -192.02477,163.24297 -191.25966,163.62553 C -190.49454,164.00809 -186.28642,161.84026 -186.28642,161.84026 L -185.01123,164.51816 C -185.01123,164.51816 -188.70928,166.8135 -189.85695,166.55846 C -191.00462,166.30343 -200.56854,162.35034 -200.56854,162.35034 L -198.40072,160.31003 z" style="fill: rgb(140, 104, 76); fill-rule: evenodd; stroke: rgb(61, 44, 28); stroke-width: 1.15945px; stroke-linecap: butt; stroke-linejoin: miter; stroke-opacity: 1;"/>
      <path sodipodi:nodetypes="ccccccccccc" id="path2546" d="M -202.67838,136.93953 C -207.86639,137.47988 -210.31507,145.2136 -212.4947,149.31971 C -210.46268,153.72426 -206.70653,159.51396 -202.39572,162.30411 C -202.30349,163.18765 -202.08372,164.46002 -202.21538,164.98666 C -203.1469,166.45347 -201.18867,168.19649 -199.1947,168.81886 C -196.90454,168.71511 -196.74131,166.38046 -195.38504,164.64852 C -195.40569,162.02826 -198.18507,162.09105 -200.11894,160.81632 C -200.12048,160.70717 -200.12441,160.59305 -200.14148,160.45564 C -201.64417,157.69792 -205.50823,153.84831 -206.5886,150.89767 C -204.41311,149.63515 -202.90419,147.92623 -201.71945,145.66784 C -201.18929,144.96096 -200.3383,144.20092 -200.14148,143.41361" style="fill: rgb(244, 227, 215); fill-opacity: 1; fill-rule: evenodd; stroke: rgb(82, 47, 22); stroke-width: 1.15945px; stroke-linecap: butt; stroke-linejoin: miter; stroke-opacity: 1;"/>
      <path transform="matrix(0.721356, 0, 0, 0.721356, -251.704, -32.2507)" d="M 76.36753,227.25639 A 2.2097087,2.2097087 0 1 1 71.948113,227.25639 A 2.2097087,2.2097087 0 1 1 76.36753,227.25639 z" sodipodi:ry="2.2097087" sodipodi:rx="2.2097087" sodipodi:cy="227.25639" sodipodi:cx="74.157822" id="path3494" style="fill: rgb(255, 255, 255); fill-opacity: 1; stroke: rgb(107, 85, 50); stroke-width: 1.60733; stroke-linejoin: round; stroke-miterlimit: 4; stroke-dasharray: none; stroke-dashoffset: 0pt; stroke-opacity: 1;" sodipodi:type="arc"/>
      <path sodipodi:type="arc" style="fill: rgb(255, 255, 255); fill-opacity: 1; stroke: rgb(107, 85, 50); stroke-width: 1.60733; stroke-linejoin: round; stroke-miterlimit: 4; stroke-dasharray: none; stroke-dashoffset: 0pt; stroke-opacity: 1;" id="path3496" sodipodi:cx="74.157822" sodipodi:cy="227.25639" sodipodi:rx="2.2097087" sodipodi:ry="2.2097087" d="M 76.36753,227.25639 A 2.2097087,2.2097087 0 1 1 71.948113,227.25639 A 2.2097087,2.2097087 0 1 1 76.36753,227.25639 z" transform="matrix(0.721356, 0, 0, 0.721356, -249.026, -30.593)"/>
      <path transform="matrix(0.721356, 0, 0, 0.721356, -246.093, -29.0627)" d="M 76.36753,227.25639 A 2.2097087,2.2097087 0 1 1 71.948113,227.25639 A 2.2097087,2.2097087 0 1 1 76.36753,227.25639 z" sodipodi:ry="2.2097087" sodipodi:rx="2.2097087" sodipodi:cy="227.25639" sodipodi:cx="74.157822" id="path3498" style="fill: rgb(255, 255, 255); fill-opacity: 1; stroke: rgb(107, 85, 50); stroke-width: 1.60733; stroke-linejoin: round; stroke-miterlimit: 4; stroke-dasharray: none; stroke-dashoffset: 0pt; stroke-opacity: 1;" sodipodi:type="arc"/>
      <path sodipodi:type="arc" style="fill: rgb(255, 255, 255); fill-opacity: 1; stroke: rgb(107, 85, 50); stroke-width: 1.60733; stroke-linejoin: round; stroke-miterlimit: 4; stroke-dasharray: none; stroke-dashoffset: 0pt; stroke-opacity: 1;" id="path3500" sodipodi:cx="74.157822" sodipodi:cy="227.25639" sodipodi:rx="2.2097087" sodipodi:ry="2.2097087" d="M 76.36753,227.25639 A 2.2097087,2.2097087 0 1 1 71.948113,227.25639 A 2.2097087,2.2097087 0 1 1 76.36753,227.25639 z" transform="matrix(0.721356, 0, 0, 0.721356, -243.032, -28.2976)"/>
      <path transform="matrix(0.721356, 0, 0, 0.721356, -239.844, -29.0627)" d="M 76.36753,227.25639 A 2.2097087,2.2097087 0 1 1 71.948113,227.25639 A 2.2097087,2.2097087 0 1 1 76.36753,227.25639 z" sodipodi:ry="2.2097087" sodipodi:rx="2.2097087" sodipodi:cy="227.25639" sodipodi:cx="74.157822" id="path3502" style="fill: rgb(255, 255, 255); fill-opacity: 1; stroke: rgb(107, 85, 50); stroke-width: 1.60733; stroke-linejoin: round; stroke-miterlimit: 4; stroke-dasharray: none; stroke-dashoffset: 0pt; stroke-opacity: 1;" sodipodi:type="arc"/>
      <path id="path3510" d="M -189.72943,150.23604 L -186.66898,153.04146" style="fill: none; fill-rule: evenodd; stroke: rgb(55, 41, 30); stroke-width: 1.15945px; stroke-linecap: butt; stroke-linejoin: miter; stroke-opacity: 1;"/>
      <path id="path3516" d="M -190.36702,153.04146 L -187.43409,155.3368" style="fill: none; fill-rule: evenodd; stroke: rgb(55, 41, 30); stroke-width: 1.15945px; stroke-linecap: butt; stroke-linejoin: miter; stroke-opacity: 1;"/>
      <path id="path3518" d="M -190.8771,156.35694 L -187.94417,158.39725" style="fill: none; fill-rule: evenodd; stroke: rgb(55, 41, 30); stroke-width: 1.15945px; stroke-linecap: butt; stroke-linejoin: miter; stroke-opacity: 1;"/>
      <path id="path3520" d="M -190.74958,160.18251 L -188.07168,161.58522" style="fill: none; fill-rule: evenodd; stroke: rgb(55, 41, 30); stroke-width: 1.15945px; stroke-linecap: butt; stroke-linejoin: miter; stroke-opacity: 1;"/>
      <path id="path3522" d="M -186.7965,150.87364 L -189.09184,152.78642" style="fill: none; fill-rule: evenodd; stroke: rgb(55, 41, 30); stroke-width: 1.15945px; stroke-linecap: butt; stroke-linejoin: miter; stroke-opacity: 1;"/>
      <path id="path3524" d="M -187.43409,153.55153 L -189.98447,155.3368" style="fill: none; fill-rule: evenodd; stroke: rgb(55, 41, 30); stroke-width: 1.15945px; stroke-linecap: butt; stroke-linejoin: miter; stroke-opacity: 1;"/>
      <path id="path3526" d="M -188.45424,156.22943 L -189.98447,158.39725" style="fill: none; fill-rule: evenodd; stroke: rgb(55, 41, 30); stroke-width: 1.15945px; stroke-linecap: butt; stroke-linejoin: miter; stroke-opacity: 1;"/>
      <path id="path3528" d="M -188.45424,159.67244 L -189.98447,162.22282" style="fill: none; fill-rule: evenodd; stroke: rgb(55, 41, 30); stroke-width: 1.15945px; stroke-linecap: butt; stroke-linejoin: miter; stroke-opacity: 1;"/>
      <path sodipodi:nodetypes="ccccccccc" id="path3552" d="M -209.63182,99.726489 L -204.58233,96.480387 L -197.36877,94.13598 L -186.00741,93.414624 L -175.00674,94.13598 L -175.54775,91.791574 L -189.43385,89.086489 L -206.92674,91.971913 L -209.63182,99.726489 z" style="fill: rgb(185, 147, 114); fill-opacity: 1; fill-rule: evenodd; stroke: none; stroke-width: 1px; stroke-linecap: butt; stroke-linejoin: miter; stroke-opacity: 1;"/>
      <path sodipodi:nodetypes="cc" id="path3548" d="M -209.45148,100.08717 C -200.04047,90.921878 -187.77772,93.733889 -176.08877,94.13598" style="fill: none; fill-rule: evenodd; stroke: rgb(117, 85, 56); stroke-width: 1.15945px; stroke-linecap: butt; stroke-linejoin: miter; stroke-opacity: 1;"/>
      <path id="path3560" d="M -185.28606,83.315642 C -185.0618,80.431877 -184.20402,81.613408 -184.20402,84.217337 C -184.20402,84.429971 -180.42988,79.476636 -179.87589,81.692591 C -179.57443,82.898424 -181.87904,84.998342 -179.87589,83.495981 C -179.10045,82.914402 -179.7503,85.441052 -179.51521,86.381404 C -179.48504,86.502102 -177.13965,83.794348 -178.61352,86.742082 C -178.66177,86.838607 -177.52211,85.336838 -177.1708,86.742082 C -177.06844,87.151531 -177.08411,87.17556 -176.99047,87.643777" style="fill: none; fill-rule: evenodd; stroke: rgb(117, 85, 56); stroke-width: 1.15945px; stroke-linecap: butt; stroke-linejoin: miter; stroke-opacity: 1;"/>
      <path id="path3566" d="M -210.89419,72.134625 L -208.36945,75.200388 L -211.25487,77.725134" style="fill: none; fill-rule: evenodd; stroke: rgb(65, 41, 6); stroke-width: 1.15945px; stroke-linecap: butt; stroke-linejoin: miter; stroke-opacity: 1;"/>
      <path id="path3568" d="M -206.20538,72.855981 L -204.04131,76.102083 L -208.18911,79.167845" style="fill: none; fill-rule: evenodd; stroke: rgb(65, 41, 6); stroke-width: 1.15945px; stroke-linecap: butt; stroke-linejoin: miter; stroke-opacity: 1;"/>
      <path id="path3570" d="M -200.79521,76.102083 L -200.25419,80.430218 L -205.48402,81.151574" style="fill: none; fill-rule: evenodd; stroke: rgb(65, 41, 6); stroke-width: 1.15945px; stroke-linecap: butt; stroke-linejoin: miter; stroke-opacity: 1;"/>
      <path id="path2656" d="M -160.75996,144.08988 C -161.44473,143.49486 -162.36668,142.42582 -163.64538,142.10615 C -164.98579,141.77105 -165.73265,142.70065 -165.98979,143.7292 C -166.47706,145.67828 -166.19118,144.53478 -166.35047,145.17191 C -166.49626,145.75509 -165.49093,146.39974 -164.90775,146.25394 C -164.26361,146.09291 -164.72741,147.5737 -164.72741,148.23767 C -164.72741,148.36967 -164.00388,147.51086 -164.72741,149.31971 C -164.9605,149.90242 -163.2047,149.29939 -162.92403,149.86072 C -162.88241,149.94396 -162.0584,148.81475 -161.66165,150.40174 C -161.36867,151.57368 -159.89075,149.26934 -159.85826,149.13937 C -159.65846,148.34018 -159.86268,147.13796 -160.0386,146.43428 C -160.28531,145.44747 -160.37393,145.05494 -160.75996,144.08988 z" style="fill: rgb(255, 255, 255); fill-opacity: 1; fill-rule: evenodd; stroke: rgb(107, 85, 50); stroke-width: 1.15945px; stroke-linecap: butt; stroke-linejoin: miter; stroke-opacity: 1;"/>
      <path sodipodi:nodetypes="csssccccscc" id="path2649" d="M -155.91335,140.68598 C -155.92241,140.68253 -155.94142,140.68526 -155.95843,140.70852 C -156.38136,141.28706 -157.83489,144.14836 -158.93403,143.54886 C -159.62877,143.16994 -161.93186,144.26899 -162.04487,144.72106 C -162.05614,144.7267 -162.05644,144.73807 -162.06741,144.74361 C -162.77768,145.84066 -162.76107,146.93773 -161.07555,148.03479 C -159.97814,147.75413 -158.26021,147.93704 -158.43809,148.37293 C -155.15046,148.48847 -148.08548,147.40568 -149.01538,145.93835 C -148.73496,145.65794 -147.63082,144.72106 -148.6547,144.72106 C -150.94103,144.72106 -154.41744,144.96464 -156.67979,144.65344 C -156.4959,143.63032 -155.77746,140.73765 -155.91335,140.68598 z" style="fill: rgb(255, 255, 255); fill-opacity: 1; fill-rule: evenodd; stroke: rgb(107, 85, 50); stroke-width: 1.15945px; stroke-linecap: butt; stroke-linejoin: miter; stroke-opacity: 1;"/>
      <path id="path2663" d="M -201.6969,162.12377 C -202.28443,161.7764 -203.35675,162.30411 -204.40199,162.30411 C -205.08739,162.30411 -205.17972,161.16571 -205.66436,160.68106 C -205.77654,160.56888 -204.51679,160.08264 -203.68063,160.50072 C -203.07234,160.80488 -202.782,159.46608 -202.23792,159.05801 C -202.05416,158.92019 -201.18411,158.61422 -200.79521,158.51699 C -199.84423,158.27925 -200.92984,156.44434 -199.89352,158.51699 C -199.33613,159.63176 -198.96424,158.58702 -199.3525,160.14005 C -199.55411,160.94649 -199.69503,161.75856 -200.43453,161.94343 C -201.69356,162.25819 -199.25316,162.12377 -201.6969,162.12377 z" style="fill: rgb(255, 255, 255); fill-opacity: 1; fill-rule: evenodd; stroke: rgb(107, 85, 50); stroke-width: 1.15945px; stroke-linecap: butt; stroke-linejoin: miter; stroke-opacity: 1;"/>
      <path id="path2658" d="M -200.23165,160.32038 L -203.0269,161.87581 C -202.82162,162.0239 -202.60371,162.16949 -202.39572,162.30411 C -202.30349,163.18765 -202.08372,164.46002 -202.21538,164.98666 C -203.1469,166.45347 -201.18867,168.19649 -199.1947,168.81886 C -196.90454,168.71511 -196.74131,166.38046 -195.38504,164.64852 C -195.40569,162.02826 -198.18507,162.09105 -200.11894,160.81632 C -200.12048,160.70717 -200.12441,160.59305 -200.14148,160.45564 C -200.16561,160.41135 -200.20632,160.36522 -200.23165,160.32038 z" style="fill: rgb(255, 255, 255); fill-opacity: 1; fill-rule: evenodd; stroke: rgb(107, 85, 50); stroke-width: 1.15945px; stroke-linecap: butt; stroke-linejoin: miter; stroke-opacity: 1;"/>
      <path id="path2672" d="M -155.53013,141.63276 C -157.83148,142.51617 -157.96779,145.70548 -157.38896,147.77064 C -156.91423,149.56732 -157.42186,152.58793 -156.38952,153.69327 C -154.12963,153.84178 -156.13296,150.61671 -155.77736,149.25264 C -155.81063,147.28816 -156.96368,144.53562 -155.25962,143.1431 C -155.08836,145.14699 -151.84001,145.8987 -153.19363,143.63417 C -153.83391,142.89038 -154.30226,141.43761 -155.53013,141.63276 z" style="fill: rgb(40, 23, 11); fill-opacity: 1; fill-rule: evenodd; stroke: none; stroke-width: 1px; stroke-linecap: butt; stroke-linejoin: miter; stroke-opacity: 1;"/>
      <path id="path2670" d="M -156.43182,156.17259 C -156.85718,155.41687 -157.03343,154.51924 -158.05487,154.00852 C -159.0128,153.52955 -160.33581,153.15559 -160.57962,153.10683 C -161.2517,152.97241 -158.90241,153.17885 -158.59589,152.56581 C -158.27217,151.91837 -157.0109,152.81978 -156.43182,152.38547 C -156.01813,152.0752 -155.63197,153.51842 -155.16945,153.28716 C -153.90139,152.65314 -155.47593,151.06002 -153.90708,151.84445 C -153.16288,152.21656 -152.24777,151.50166 -151.74301,151.1231 C -150.69282,150.33546 -151.96657,152.06801 -152.10369,152.20513 C -152.86043,152.96187 -153.41227,153.37958 -153.90708,154.3692 C -154.42297,155.40098 -152.38575,155.88243 -154.26775,156.35293 C -154.88041,156.50609 -155.87771,156.28341 -156.43182,156.17259 z" style="fill: rgb(255, 255, 255); fill-opacity: 1; fill-rule: evenodd; stroke: rgb(107, 85, 50); stroke-width: 1.15945px; stroke-linecap: butt; stroke-linejoin: miter; stroke-opacity: 1;"/>
      <path sodipodi:nodetypes="ccccc" id="path2665" d="M -153.36606,154.72988 L -156.97284,155.09055 C -159.42248,160.56805 -154.42447,188.10879 -151.17594,195.09464 L -151.22337,192.97332 C -150.27352,187.06328 -150.82561,162.88896 -153.36606,154.72988 z" style="fill: rgb(255, 255, 255); fill-opacity: 1; fill-rule: evenodd; stroke: rgb(107, 85, 50); stroke-width: 1.15945px; stroke-linecap: butt; stroke-linejoin: miter; stroke-opacity: 1;"/>
      <path style="fill: none; fill-rule: evenodd; stroke: rgb(55, 41, 30); stroke-width: 1.15945px; stroke-linecap: butt; stroke-linejoin: miter; stroke-opacity: 1;" d="M -187.43409,153.55153 L -189.98447,155.3368" id="path3660"/>
      <path style="fill: none; fill-rule: evenodd; stroke: rgb(55, 41, 30); stroke-width: 1.15945px; stroke-linecap: butt; stroke-linejoin: miter; stroke-opacity: 1;" d="M -190.49958,169.05751 L -187.82168,170.46022" id="path3662"/>
      <path style="fill: none; fill-rule: evenodd; stroke: rgb(55, 41, 30); stroke-width: 1.15945px; stroke-linecap: butt; stroke-linejoin: miter; stroke-opacity: 1;" d="M -188.20424,168.54744 L -189.73447,171.09782" id="path3664"/>
      <path id="path3666" d="M -188.87458,173.43251 L -186.19668,174.83522" style="fill: none; fill-rule: evenodd; stroke: rgb(55, 41, 30); stroke-width: 1.15945px; stroke-linecap: butt; stroke-linejoin: miter; stroke-opacity: 1;"/>
      <path id="path3668" d="M -186.57924,172.92244 L -188.10947,175.47282" style="fill: none; fill-rule: evenodd; stroke: rgb(55, 41, 30); stroke-width: 1.15945px; stroke-linecap: butt; stroke-linejoin: miter; stroke-opacity: 1;"/>
      <path style="fill: none; fill-rule: evenodd; stroke: rgb(55, 41, 30); stroke-width: 1.15945px; stroke-linecap: butt; stroke-linejoin: miter; stroke-opacity: 1;" d="M -186.87458,177.80751 L -184.19668,179.21022" id="path3670"/>
      <path style="fill: none; fill-rule: evenodd; stroke: rgb(55, 41, 30); stroke-width: 1.15945px; stroke-linecap: butt; stroke-linejoin: miter; stroke-opacity: 1;" d="M -184.57924,177.29744 L -186.10947,179.84782" id="path3672"/>
      <path id="path3674" d="M -182.87458,200.30751 L -180.19668,201.71022" style="fill: rgb(107, 85, 50); fill-opacity: 1; fill-rule: evenodd; stroke: rgb(107, 85, 50); stroke-width: 1.15945px; stroke-linecap: butt; stroke-linejoin: miter; stroke-opacity: 1;"/>
      <path id="path3676" d="M -180.57924,199.79744 L -182.10947,202.34782" style="fill: rgb(107, 85, 50); fill-opacity: 1; fill-rule: evenodd; stroke: rgb(107, 85, 50); stroke-width: 1.15945px; stroke-linecap: butt; stroke-linejoin: miter; stroke-opacity: 1;"/>
      <path style="fill: rgb(107, 85, 50); fill-opacity: 1; fill-rule: evenodd; stroke: rgb(107, 85, 50); stroke-width: 1.15945px; stroke-linecap: butt; stroke-linejoin: miter; stroke-opacity: 1;" d="M -195.12458,201.05751 L -192.44668,202.46022" id="path3678"/>
      <path style="fill: rgb(107, 85, 50); fill-opacity: 1; fill-rule: evenodd; stroke: rgb(107, 85, 50); stroke-width: 1.15945px; stroke-linecap: butt; stroke-linejoin: miter; stroke-opacity: 1;" d="M -192.82924,200.54744 L -194.35947,203.09782" id="path3680"/>
    </g>
  </g>
</svg>