<?xml version="1.0" encoding="UTF-8" standalone="no"?>
<!-- Created with Inkscape (http://www.inkscape.org/) -->
<svg xmlns:dc="http://purl.org/dc/elements/1.1/" xmlns:cc="http://creativecommons.org/ns#" xmlns:rdf="http://www.w3.org/1999/02/22-rdf-syntax-ns#" xmlns:svg="http://www.w3.org/2000/svg" xmlns="http://www.w3.org/2000/svg" xmlns:sodipodi="http://sodipodi.sourceforge.net/DTD/sodipodi-0.dtd" xmlns:inkscape="http://www.inkscape.org/namespaces/inkscape" width="128" height="128" id="svg2" sodipodi:version="0.32" inkscape:version="0.46" version="1.0" sodipodi:docname="pirate.svg" inkscape:output_extension="org.inkscape.output.svg.inkscape" inkscape:export-xdpi="90" inkscape:export-ydpi="90">
  <defs id="defs4">
    <filter height="1.6532674" y="-0.32663372" width="1.2502785" x="-0.12513924" id="filter3443" inkscape:collect="always">
      <feGaussianBlur id="feGaussianBlur3445" stdDeviation="1.9634296" inkscape:collect="always"/>
    </filter>
  </defs>
  <sodipodi:namedview id="base" pagecolor="#ffffff" bordercolor="#666666" borderopacity="1.0" gridtolerance="10000" guidetolerance="10" objecttolerance="10" inkscape:pageopacity="0" inkscape:pageshadow="2" inkscape:zoom="1" inkscape:cx="602.92496" inkscape:cy="64" inkscape:document-units="px" inkscape:current-layer="layer1" showgrid="false" inkscape:window-width="1397" inkscape:window-height="903" inkscape:window-x="256" inkscape:window-y="57" showguides="true" inkscape:guide-bbox="true"/>
  <metadata id="metadata7">
    <rdf:RDF>
      <cc:Work rdf:about="">
        <dc:format>image/svg+xml</dc:format>
        <dc:type rdf:resource="http://purl.org/dc/dcmitype/StillImage"/>
        <cc:license rdf:resource="http://creativecommons.org/licenses/by-sa/3.0/"/>
        <dc:title>Fedora WEBCOMIC 2.0</dc:title>
        <dc:date>May 2008</dc:date>
        <dc:creator>
          <cc:Agent>
            <dc:title>Nicu Buculei</dc:title>
          </cc:Agent>
        </dc:creator>
        <dc:rights>
          <cc:Agent>
            <dc:title>Nicu Buculei</dc:title>
          </cc:Agent>
        </dc:rights>
        <dc:subject>
          <rdf:Bag>
            <rdf:li>fedora</rdf:li>
            <rdf:li>webcomic</rdf:li>
            <rdf:li>nicubunu</rdf:li>
          </rdf:Bag>
        </dc:subject>
        <dc:language>en-US</dc:language>
      </cc:Work>
      <cc:License rdf:about="http://creativecommons.org/licenses/by-sa/3.0/">
        <cc:permits rdf:resource="http://creativecommons.org/ns#Reproduction"/>
        <cc:permits rdf:resource="http://creativecommons.org/ns#Distribution"/>
        <cc:requires rdf:resource="http://creativecommons.org/ns#Notice"/>
        <cc:requires rdf:resource="http://creativecommons.org/ns#Attribution"/>
        <cc:permits rdf:resource="http://creativecommons.org/ns#DerivativeWorks"/>
        <cc:requires rdf:resource="http://creativecommons.org/ns#ShareAlike"/>
      </cc:License>
    </rdf:RDF>
  </metadata>
  <g inkscape:label="Layer 1" inkscape:groupmode="layer" id="layer1">
    <g transform="translate(-237.488, -101.709)" id="g3765"/>
    <g id="g4184" transform="translate(-302.488, -113.709)"/>
    <g transform="translate(-437.461, -364.586)" id="g2996"/>
    <g id="g2998" transform="translate(-502.461, -376.586)"/>
    <g id="g3779" transform="translate(-272.881, -452.586)"/>
    <g id="g3109" transform="translate(-175.881, -517.586)"/>
    <g transform="translate(-332.117, -812.262)" id="g4449"/>
    <g id="g4451" transform="translate(-397.117, -824.262)"/>
    <g id="g4524" transform="translate(-357.208, -785.262)"/>
    <g id="g3922" transform="translate(-48.5377, -864.262)"/>
    <g transform="translate(-242.538, -901.262)" id="g4629"/>
    <g transform="translate(-428.095, -539.518)" id="g3869"/>
    <g id="g3871" transform="translate(-493.095, -551.518)"/>
    <g id="g3959" transform="translate(-328.516, -650.518)"/>
    <g id="g2979" inkscape:label="Layer 1" transform="translate(79.8541, -427.73)"/>
    <g id="g4951" transform="translate(540.029, -499.142)"/>
    <g transform="translate(-485.988, -406.094)" id="g4625"/>
    <g id="g4627" transform="translate(-550.988, -418.094)"/>
    <g id="g4690" transform="translate(-696.409, -397.094)"/>
    <g transform="translate(-320.238, -410.677)" id="g5403"/>
    <g id="g5405" transform="translate(-385.238, -422.677)"/>
    <g transform="matrix(1.27524, 0, 0, 1.27524, -318.051, -610.543)" id="g5523"/>
    <g transform="translate(-536.82, -1269.64)" id="g6346"/>
    <g id="g6377" transform="translate(-601.82, -1281.64)"/>
    <g id="g2803" transform="translate(-483.912, -1315.64)"/>
    <g transform="translate(-545.104, 252.412)" id="g7732"/>
    <g id="g7734" transform="translate(-610.104, 240.412)"/>
    <g id="g7797" transform="translate(-755.525, 261.412)"/>
    <g id="g3048" transform="translate(-665, 77)">
      <path id="path2884" d="M 720.31031,35.98546 C 714.84557,36.40784 713.48748,32.72558 708.81543,36.87497 C 707.40212,38.28828 707.09003,41.09222 707.48117,42.65676 C 710.35577,46.50778 713.47978,45.5364 718.08654,47.10429 C 720.36287,47.67338 722.34946,47.9938 725.20259,47.9938 C 728.1024,47.9938 727.819,44.733258 730.69585,43.294828 C 732.92694,42.179288 737.05411,47.22191 738.98995,45.77003 C 740.50231,44.63576 741.21635,42.6462 741.65847,40.87775 C 742.4423,37.74242 739.78184,37.27091 738.10044,36.43022 C 735.93944,35.34972 734.07366,37.70824 732.41922,38.12185 C 730.64594,38.56517 727.22361,34.20645 724.75784,34.20645 C 722.75849,34.20645 723.69842,35.98546 720.31031,35.98546 z" style="fill: rgb(0, 0, 0); fill-opacity: 0.728395; fill-rule: evenodd; stroke: none; stroke-width: 1px; stroke-linecap: butt; stroke-linejoin: miter; stroke-opacity: 1; filter: url(#filter3443);" sodipodi:nodetypes="ccccsssssssc"/>
      <path sodipodi:nodetypes="cccccccc" id="path7319" d="M 720.55987,32.3397 C 718.20438,35.42482 715.01642,36.17229 711.82459,36.64668 C 711.22443,37.36561 711.50166,36.93442 711.54426,37.81978 C 711.78155,38.58382 712.05493,39.33215 712.25136,40.11788 C 715.00349,40.37488 718.04372,42.02335 720.91779,41.09795 C 723.93649,41.13652 726.98764,40.07951 729.48709,38.26172 C 730.06458,36.55219 729.44472,34.23431 729.31031,32.3397 C 726.52633,33.21455 723.36166,33.07282 720.55987,32.3397 z" style="fill: rgb(43, 17, 0); fill-rule: evenodd; stroke: rgb(14, 3, 0); stroke-width: 1px; stroke-linecap: butt; stroke-linejoin: miter; stroke-opacity: 1;"/>
      <path sodipodi:nodetypes="ccc" id="path7321" d="M 712.25136,38.61527 C 715.50276,38.05905 718.75275,40.19266 722.13815,39.73934 C 725.28188,39.63534 726.91323,37.35062 729.22193,37.20106" style="fill: none; fill-rule: evenodd; stroke: rgb(14, 3, 0); stroke-width: 1px; stroke-linecap: butt; stroke-linejoin: miter; stroke-opacity: 1;"/>
      <path style="fill: rgb(255, 204, 170); fill-opacity: 1; fill-rule: evenodd; stroke: rgb(63, 45, 16); stroke-width: 1px; stroke-linecap: butt; stroke-linejoin: miter; stroke-opacity: 1;" d="M 708.92249,-11.34856 C 706.02139,-9.75955 704.87626,-8.69637 701.58378,-9.13924 C 700.13001,-9.93029 698.36415,-2.46787 702.20235,-4.39363 C 705.26945,-3.76875 709.18355,-2.48764 712.22057,-3.05698 C 713.88241,-5.552 718.40669,-5.63856 720.16627,-7.86803 C 721.0391,-8.62184 725.46798,-13.76652 726.08756,-14.68431 C 725.92791,-17.60746 724.40464,-19.50373 721.5222,-19.85042 C 716.65023,-21.44699 707.3717,-17.69774 708.92249,-11.34856 z" id="path7325" sodipodi:nodetypes="cccccccc"/>
      <path style="fill: rgb(236, 236, 236); fill-opacity: 1; fill-rule: evenodd; stroke: rgb(27, 42, 152); stroke-width: 1px; stroke-linecap: butt; stroke-linejoin: miter; stroke-opacity: 1;" d="M 719.98876,-22.27202 C 715.758,-22.91548 711.21273,-18.99327 708.14312,-17.3828 C 710.16119,-11.79533 713.93379,-10.0969 717.1162,-7.09023 C 719.90185,-9.41779 723.67413,-12.43205 723.548,-16.03577" id="path8473" sodipodi:nodetypes="cccc"/>
      <path id="path8463" d="M 731,-31.625 C 730.7188,-31.62879 730.43562,-31.61001 730.15625,-31.59375 C 728.48004,-31.4962 726.83741,-31.03389 725.21875,-30.5625 C 723.48056,-29.20688 722.79866,-25.24125 723.1875,-23.5 C 723.16719,-23.44456 723.14453,-23.39833 723.125,-23.34375 C 722.44912,-23.18597 721.92818,-23.04806 721.46875,-22.90625 C 721.84282,-21.4275 722.72914,-18.84741 724.375,-18.625 C 726.67401,-18.31432 738.34769,-22.02064 739.34375,-23.90625 C 738.28934,-24.02071 737.30106,-24.21109 736.59375,-24.84375 C 735.38217,-27.31611 734.50385,-30.26969 731.84375,-31.5625 C 731.56041,-31.59485 731.2812,-31.62121 731,-31.625 z" style="fill: rgb(255, 204, 170); fill-opacity: 1; fill-rule: evenodd; stroke: rgb(63, 45, 16); stroke-width: 1px; stroke-linecap: butt; stroke-linejoin: miter; stroke-opacity: 1;"/>
      <path id="path7327" d="M 739.34375,-23.90625 C 738.34769,-22.02064 726.67401,-18.31432 724.375,-18.625 C 722.72914,-18.84741 721.84282,-21.4275 721.46875,-22.90625 C 719.35794,-22.2547 719.22805,-21.75099 718.59375,-21.34375 C 712.18794,-17.231 719.68976,-2.40109 717.34375,-0.46875 C 720.18359,6.63806 723.62768,5.28536 726.90625,6.25 L 743.15625,2.875 C 744.37928,-5.35263 747.40708,-12.51583 745.28125,-19.90625 C 745.03541,-23.91814 741.9764,-23.62047 739.34375,-23.90625 z" style="fill: rgb(236, 236, 236); fill-opacity: 1; fill-rule: evenodd; stroke: rgb(27, 42, 152); stroke-width: 1px; stroke-linecap: butt; stroke-linejoin: miter; stroke-opacity: 1;"/>
      <path style="fill: rgb(0, 50, 92); fill-opacity: 1; fill-rule: evenodd; stroke: rgb(0, 25, 46); stroke-width: 1px; stroke-linecap: butt; stroke-linejoin: miter; stroke-opacity: 1;" d="M 746.3125,0.0625 C 737.42719,3.84708 723.00715,7.19893 717.56863,-0.28026 C 716.49594,2.88345 718.90719,7.63575 720.0625,11.59375 C 719.51629,12.57932 718.68729,13.90523 718.875,14.84375 C 719.81846,17.63881 720.94902,20.12488 720.25,22.96875 C 720.26593,25.7584 717.25278,30.79332 719.25,32.84375 C 732.61669,36.93267 727.81682,28.61918 728.75,20.46875 C 728.76931,17.92775 729.10288,15.46494 729.28125,12.96875 L 730,12.9375 C 729.86851,13.22356 729.8109,13.52326 729.875,13.84375 C 729.3881,17.35935 731.40886,21.04558 731.125,25.34375 C 738.89432,29.77906 740.92255,25.25626 739.875,20.59375 C 739.91877,17.71897 740.33104,14.90362 740.46875,12.0625 L 740.5,12.0625 L 746.3125,0.0625 z" id="path7329" sodipodi:nodetypes="ccccccccccccccc"/>
      <path sodipodi:nodetypes="ccccc" id="path8483" d="M 717.28125,-7.75 L 717.28125,-4.75 C 722.49531,0.05134 732.06115,-2.30721 739.09375,-4.125 L 737.53125,-5.4375 C 731.20619,-5.31792 721.66982,-3.3511 717.28125,-7.75 z" style="fill: rgb(27, 42, 152); fill-opacity: 1; fill-rule: evenodd; stroke: none; stroke-width: 1px; stroke-linecap: butt; stroke-linejoin: miter; stroke-opacity: 1;"/>
      <path sodipodi:nodetypes="ccccccccccccccc" id="path7331" d="M 737.88123,-17.52965 C 734.77926,-13.44763 735.03821,-3.70319 741.54544,-3.09247 C 742.0984,0.16875 741.91563,3.56589 740.42044,6.53253 C 739.32281,7.66333 737.73399,6.02575 736.92044,7.65753 C 737.24561,9.06939 738.60992,9.43075 739.92044,9.78253 C 738.98122,11.63907 737.17881,13.20188 739.04544,15.28253 C 740.25603,14.66138 741.08976,13.26494 741.42044,12.03253 C 741.55751,13.46914 740.34515,16.32301 743.04544,15.15753 C 744.35663,14.17478 743.71768,12.73809 743.79544,11.28253 C 744.84398,12.90278 745.15994,15.33861 746.54544,12.53253 C 746.68472,11.27436 746.07778,10.39963 745.42044,9.40753 C 745.2494,8.13937 745.70375,6.81012 745.92044,5.53253 C 747.51394,2.8384 750.00457,-0.44157 750.45966,-3.4978 C 748.64526,-5.88417 750.04293,-10.18802 748.51143,-12.57991 C 748.33454,-13.87005 746.80173,-21.38344 744.00623,-20.40465" style="fill: rgb(255, 204, 170); fill-opacity: 1; fill-rule: evenodd; stroke: rgb(63, 45, 16); stroke-width: 1px; stroke-linecap: butt; stroke-linejoin: miter; stroke-opacity: 1;"/>
      <path sodipodi:nodetypes="ccccccccc" id="path7333" d="M 725.95156,-68.86495 C 715.50089,-68.92616 711.36676,-62.0309 711.22732,-53.06228 C 711.22732,-51.18612 712.0945,-47.49366 712.55942,-45.63398 C 712.34301,-41.97222 711.43578,-39.20526 712.51653,-35.63093 C 713.77339,-30.5742 717.16997,-27.88254 722.06247,-26.7921 C 726.40561,-26.87738 733.0987,-27.298 736.35364,-30.33391 C 741.01419,-34.14745 739.93618,-42.03155 741.65067,-47.67319 C 742.26008,-53.06212 741.27056,-57.82811 739.74013,-62.85454 C 737.60887,-68.35487 731.16284,-69.63481 725.95156,-68.86495 z" style="fill: rgb(255, 204, 170); fill-opacity: 1; fill-rule: evenodd; stroke: rgb(63, 45, 16); stroke-width: 1px; stroke-linecap: butt; stroke-linejoin: miter; stroke-opacity: 1;"/>
      <path sodipodi:nodetypes="ccccccccc" id="path7335" d="M 713.7272,-68.53624 C 722.50977,-67.29343 729.60604,-73.34267 739.46868,-66.05429 C 742.43917,-62.02533 745.53913,-57.4678 743.24318,-51.27199 C 742.89325,-48.83482 741.65196,-43.61196 740.53499,-44.4547 C 741.77826,-49.49215 741.44108,-50.1369 737.61881,-51.89439 C 735.68781,-52.37714 735.21931,-51.78064 733.55296,-51.36406 C 736.27246,-60.27216 733.85244,-60.19181 727.71932,-62.14744 C 723.02274,-66.44862 716.17701,-63.54281 714.10752,-64.09198 C 713.7631,-64.62231 715.82701,-67.69631 713.7272,-68.53624 z" style="fill: rgb(160, 90, 44); fill-opacity: 1; fill-rule: evenodd; stroke: rgb(96, 59, 0); stroke-width: 1px; stroke-linecap: butt; stroke-linejoin: miter; stroke-opacity: 1;"/>
      <path sodipodi:nodetypes="cccc" id="path7337" d="M 719.95706,-51.23477 C 718.59113,-48.23629 720.08996,-47.80399 723.01511,-48.23738 C 723.91368,-47.84177 725.77952,-50.21044 725.34982,-51.66416 C 723.13182,-53.10095 721.0859,-52.84018 719.95706,-51.23477 z" style="fill: rgb(255, 255, 255); fill-rule: evenodd; stroke: rgb(51, 51, 51); stroke-width: 1px; stroke-linecap: butt; stroke-linejoin: miter; stroke-opacity: 1;"/>
      <path sodipodi:nodetypes="ccc" id="path7339" d="M 713.14012,-52.73477 C 710.7864,-52.2062 710.94067,-52.23434 711.399,-49.5606 C 714.73508,-46.75239 718.02517,-49.93658 713.14012,-52.73477 z" style="fill: rgb(255, 255, 255); fill-rule: evenodd; stroke: rgb(51, 51, 51); stroke-width: 1px; stroke-linecap: butt; stroke-linejoin: miter; stroke-opacity: 1;"/>
      <path sodipodi:nodetypes="ccc" id="path7341" d="M 716.024,-47.1856 C 715.39745,-43.57231 713.67377,-46.18525 713.78288,-42.09353 C 713.66423,-40.13093 717.84198,-39.90467 718.149,-42.0606" style="fill: rgb(255, 204, 170); fill-opacity: 1; fill-rule: evenodd; stroke: rgb(63, 45, 16); stroke-width: 1px; stroke-linecap: butt; stroke-linejoin: miter; stroke-opacity: 1;"/>
      <path sodipodi:nodetypes="cc" id="path7343" d="M 735.39899,-50.3106 C 741.26237,-52.64012 740.2292,-43.95643 735.89899,-44.8106" style="fill: rgb(255, 204, 170); fill-opacity: 1; fill-rule: evenodd; stroke: rgb(63, 45, 16); stroke-width: 1px; stroke-linecap: butt; stroke-linejoin: miter; stroke-opacity: 1;"/>
      <path sodipodi:nodetypes="cs" id="path7345" d="M 736.52399,-48.9356 C 737.37507,-50.42854 739.61648,-47.75581 736.52399,-46.3106" style="fill: rgb(255, 204, 170); fill-opacity: 1; fill-rule: evenodd; stroke: rgb(63, 45, 16); stroke-width: 1px; stroke-linecap: butt; stroke-linejoin: miter; stroke-opacity: 1;"/>
      <path sodipodi:nodetypes="cc" id="path7347" d="M 714.649,-35.0606 C 714.71523,-35.54331 718.8409,-34.76453 721.06169,-35.1375" style="fill: none; fill-rule: evenodd; stroke: rgb(63, 45, 16); stroke-width: 1px; stroke-linecap: butt; stroke-linejoin: miter; stroke-opacity: 1;"/>
      <path sodipodi:nodetypes="cssc" id="path7349" d="M 722.17044,-50.45705 C 722.55698,-50.8137 720.91843,-51.10422 721.04544,-49.08205 C 721.14388,-47.5147 722.78831,-48.01651 723.42044,-48.45705 C 724.69005,-49.34185 722.78282,-50.76975 722.17044,-50.45705 z" style="fill: rgb(0, 0, 0); fill-rule: evenodd; stroke: rgb(0, 0, 0); stroke-width: 1px; stroke-linecap: butt; stroke-linejoin: miter; stroke-opacity: 1;"/>
      <path sodipodi:nodetypes="cssc" id="path7351" d="M 713.43561,-50.67932 C 713.89294,-51.62803 711.63344,-51.61698 712.31061,-49.42932 C 712.77794,-47.91952 714.4697,-48.81105 714.56061,-48.92932 C 715.49095,-50.13968 714.50711,-52.03156 713.43561,-50.67932 z" style="fill: rgb(0, 0, 0); fill-rule: evenodd; stroke: rgb(0, 0, 0); stroke-width: 1px; stroke-linecap: butt; stroke-linejoin: miter; stroke-opacity: 1;"/>
      <path style="fill: none; fill-rule: evenodd; stroke: rgb(63, 45, 16); stroke-width: 1px; stroke-linecap: butt; stroke-linejoin: miter; stroke-opacity: 1;" d="M 723.5,-23.375 C 724.30199,-23.10398 725.4293,-23.4836 725.625,-22" id="path7359" sodipodi:nodetypes="cc"/>
      <path style="fill: none; fill-rule: evenodd; stroke: rgb(63, 45, 16); stroke-width: 1px; stroke-linecap: butt; stroke-linejoin: miter; stroke-opacity: 1;" d="M 728.5,-21.625 C 727.16519,-22.01061 728.07383,-22.78639 734.375,-24.5" id="path7361" sodipodi:nodetypes="cc"/>
      <path style="fill: rgb(255, 0, 0); fill-opacity: 1; fill-rule: evenodd; stroke: rgb(128, 0, 0); stroke-width: 1px; stroke-linecap: butt; stroke-linejoin: miter; stroke-opacity: 1;" d="M 746,-56.5 C 746.12254,-54.55453 746.85836,-52.57063 747.875,-50.875 C 749.83212,-49.81836 751.78584,-48.56889 754,-48 C 754.03966,-50.43092 751.90544,-52.57072 750.5,-54.625 C 749.19557,-56.00517 747.77988,-56.26033 746,-56.5 z" id="path7369" sodipodi:nodetypes="ccccc"/>
      <path style="fill: rgb(255, 0, 0); fill-opacity: 1; fill-rule: evenodd; stroke: rgb(128, 0, 0); stroke-width: 1px; stroke-linecap: butt; stroke-linejoin: miter; stroke-opacity: 1;" d="M 740.375,-56.25 C 741.16201,-53.71231 744.26719,-54.47075 746.625,-55 C 747.63519,-55.33673 748.25,-57.0852 748.25,-58 C 747.69215,-59.31063 746.34273,-60.15641 745.375,-61.25 C 744.68664,-61.93836 741.70118,-59.54571 741,-59.125" id="path7371" sodipodi:nodetypes="ccccc"/>
      <path style="fill: rgb(255, 0, 0); fill-opacity: 1; fill-rule: evenodd; stroke: rgb(128, 0, 0); stroke-width: 1px; stroke-linecap: butt; stroke-linejoin: miter; stroke-opacity: 1;" d="M 746.75,-59 C 749.11787,-61.41698 751.54952,-62.12264 754.75,-61.375 C 756.81341,-59.52594 757.96023,-57.18361 760.25,-55.5 C 757.50065,-54.48151 754.21049,-56.46235 751.5,-57.5 C 749.87838,-57.88512 748.34108,-58.52759 746.75,-59 z" id="path7375" sodipodi:nodetypes="ccccc"/>
      <path sodipodi:nodetypes="csccccc" id="path8449" d="M 711.75,-46 C 712.5295,-47.559 718.16991,-48.83982 717.75,-48.375 C 717.32273,-47.90204 715.625,-53.375 715.625,-53.375 C 716.26429,-57.27959 719.21161,-60.19502 722.125,-63.125 C 719.30245,-60.6099 716.11415,-58.60685 714.875,-53.875 L 711.125,-53.875 C 709.70103,-51.43137 710.17907,-48.7764 711.75,-46 z" style="fill: rgb(0, 0, 0); fill-rule: evenodd; stroke: rgb(0, 0, 0); stroke-width: 1px; stroke-linecap: butt; stroke-linejoin: miter; stroke-opacity: 1;"/>
      <path sodipodi:nodetypes="cccc" id="path8445" d="M 744.5,-52.875 C 734.58474,-59.39534 723.73365,-63.4825 710.5,-61.375 C 710.15034,-72.058 722.5125,-70.02917 731.875,-71 C 743.43935,-67.44052 745.77464,-61.71483 744.5,-52.875 z" style="fill: rgb(255, 0, 0); fill-opacity: 1; fill-rule: evenodd; stroke: rgb(128, 0, 0); stroke-width: 1px; stroke-linecap: butt; stroke-linejoin: miter; stroke-opacity: 1;"/>
      <path sodipodi:nodetypes="ccccccc" id="path8453" d="M 730.625,23.125 C 734.03888,24.84447 737.44738,24.46048 741.5,23.625 C 741.07758,26.12672 744.1933,27.56701 737.75,31.875 L 737,41.5 C 735.56293,42.76972 735.40597,42.15242 734.75,41.375 L 734.75,32.375 C 732.40324,30.1612 728.09918,28.07963 730.625,23.125 z" style="fill: rgb(160, 90, 44); fill-rule: evenodd; stroke: rgb(80, 45, 22); stroke-width: 1px; stroke-linecap: butt; stroke-linejoin: miter; stroke-opacity: 1;"/>
      <path sodipodi:nodetypes="ccc" id="path8455" d="M 703.25,-10.75 C 704.58811,-11.04406 705.73468,-3.61734 702.75,-2.125 C 698.39676,0.18917 689.93406,-11.16499 703.25,-10.75 z" style="fill: rgb(153, 153, 153); fill-rule: evenodd; stroke: rgb(102, 102, 102); stroke-width: 1px; stroke-linecap: butt; stroke-linejoin: miter; stroke-opacity: 1;"/>
      <path sodipodi:nodetypes="ccccccccc" id="path8457" d="M 684.84375,-7.5 C 683.97633,-5.78509 684.68682,-3.33403 686.6875,-2.53125 L 687.5625,-3.03125 C 686.22654,-4.90488 686.20188,-5.85458 686.78125,-7 C 688,-8.06426 689.84375,-6.73001 691.8125,-6.09375 L 698.375,-5.5 C 699.65059,-6.56984 698.84948,-7.46662 698.1875,-8.375 L 691.84375,-7.65625 C 689.44025,-9.12332 686.7618,-9.89834 684.84375,-7.5 z" style="fill: rgb(153, 153, 153); fill-opacity: 1; fill-rule: evenodd; stroke: rgb(102, 102, 102); stroke-width: 1px; stroke-linecap: butt; stroke-linejoin: miter; stroke-opacity: 1;"/>
      <path sodipodi:nodetypes="cccc" id="path8471" d="M 736.75,-19.625 C 733.55929,-16.73176 735.83426,-12.79744 735.75,-9.3125 C 741.60746,-8.32127 744.94186,-10.77056 749.125,-12.0625 C 748.46864,-15.63273 747.32468,-20.96226 744.125,-22.625" style="fill: rgb(236, 236, 236); fill-opacity: 1; fill-rule: evenodd; stroke: rgb(27, 42, 152); stroke-width: 1px; stroke-linecap: butt; stroke-linejoin: miter; stroke-opacity: 1;"/>
      <path sodipodi:nodetypes="ccccc" id="path8475" d="M 717.84375,-20.625 L 716.40625,-17.625 C 721.2896,-11.50083 727.78088,-12.49863 734.96875,-14.9375 L 735.34375,-18 C 728.32119,-14.06702 719.48183,-15.1108 717.84375,-20.625 z" style="fill: rgb(27, 42, 152); fill-opacity: 1; fill-rule: evenodd; stroke: none; stroke-width: 1px; stroke-linecap: butt; stroke-linejoin: miter; stroke-opacity: 1;"/>
      <path style="fill: rgb(27, 42, 152); fill-opacity: 1; fill-rule: evenodd; stroke: none; stroke-width: 1px; stroke-linecap: butt; stroke-linejoin: miter; stroke-opacity: 1;" d="M 715.90625,-14.4375 L 715.90625,-11.4375 C 721.12031,-6.63616 728.99865,-7.24471 736.03125,-9.0625 L 735.71875,-10.6875 C 729.39369,-10.56792 720.29482,-10.0386 715.90625,-14.4375 z" id="path8481" sodipodi:nodetypes="ccccc"/>
      <path style="fill: rgb(27, 42, 152); fill-opacity: 1; fill-rule: evenodd; stroke: none; stroke-width: 1px; stroke-linecap: butt; stroke-linejoin: miter; stroke-opacity: 1;" d="M 717.78125,-2.1875 L 718.03125,0.125 C 723.24531,4.92634 734.87365,1.88029 741.90625,0.0625 L 741.65625,-0.9375 C 735.33119,-0.81792 722.16982,2.2114 717.78125,-2.1875 z" id="path8487" sodipodi:nodetypes="ccccc"/>
      <path style="fill: rgb(27, 42, 152); fill-opacity: 1; fill-rule: evenodd; stroke: none; stroke-width: 1px; stroke-linecap: butt; stroke-linejoin: miter; stroke-opacity: 1;" d="M 735.33478,-14.05755 L 735.85609,-11.26272 C 743.23463,-10.46817 743.43026,-13.54364 748.31427,-14.40079 L 748.24773,-17.09833 C 744.25369,-13.87825 739.87116,-12.05324 735.33478,-14.05755 z" id="path8489" sodipodi:nodetypes="ccccc"/>
      <path sodipodi:nodetypes="ccccc" id="path8491" d="M 736.20978,-19.12005 L 734.91859,-16.45022 C 742.29713,-15.65567 743.55526,-17.91864 746.56427,-20.08829 L 745.18523,-21.97333 C 742.37869,-18.81575 740.74616,-17.11574 736.20978,-19.12005 z" style="fill: rgb(27, 42, 152); fill-opacity: 1; fill-rule: evenodd; stroke: none; stroke-width: 1px; stroke-linecap: butt; stroke-linejoin: miter; stroke-opacity: 1;"/>
      <path style="fill: rgb(27, 42, 152); fill-opacity: 1; fill-rule: evenodd; stroke: none; stroke-width: 1px; stroke-linecap: butt; stroke-linejoin: miter; stroke-opacity: 1;" d="M 712.7024,-19.98823 L 710.74923,-19.00579 C 712.33987,-13.21481 713.13566,-13.79628 715.71668,-11.13172 L 717.38307,-12.76825 C 713.85366,-15.08995 712.93594,-16.27267 712.7024,-19.98823 z" id="path8493" sodipodi:nodetypes="ccccc"/>
      <path sodipodi:nodetypes="ccccc" id="path8495" d="M 716.1399,-21.92573 L 714.49923,-21.56829 C 714.65997,-18.81372 716.17355,-18.21442 716.40418,-17.56922 L 718.07057,-19.20575 C 716.42844,-19.72209 715.7779,-20.24481 716.1399,-21.92573 z" style="fill: rgb(27, 42, 152); fill-opacity: 1; fill-rule: evenodd; stroke: none; stroke-width: 1px; stroke-linecap: butt; stroke-linejoin: miter; stroke-opacity: 1;"/>
    </g>
    <g id="g2837" transform="translate(133.068, -211.059)"/>
  </g>
</svg>