<?xml version="1.0" encoding="UTF-8" standalone="no"?>
<!-- Created with Inkscape (http://www.inkscape.org/) -->
<svg
   xmlns:dc="http://purl.org/dc/elements/1.1/"
   xmlns:cc="http://creativecommons.org/ns#"
   xmlns:rdf="http://www.w3.org/1999/02/22-rdf-syntax-ns#"
   xmlns:svg="http://www.w3.org/2000/svg"
   xmlns="http://www.w3.org/2000/svg"
   xmlns:sodipodi="http://sodipodi.sourceforge.net/DTD/sodipodi-0.dtd"
   xmlns:inkscape="http://www.inkscape.org/namespaces/inkscape"
   width="128"
   height="128"
   id="svg2"
   sodipodi:version="0.32"
   inkscape:version="0.46"
   version="1.0"
   sodipodi:docname="countdown-09.svg"
   inkscape:output_extension="org.inkscape.output.svg.inkscape">
  <defs
     id="defs4">
    <filter
       inkscape:collect="always"
       id="filter3443"
       x="-0.12513924"
       width="1.2502785"
       y="-0.32663372"
       height="1.6532674">
      <feGaussianBlur
         inkscape:collect="always"
         stdDeviation="1.9634296"
         id="feGaussianBlur3445" />
    </filter>
  </defs>
  <sodipodi:namedview
     id="base"
     pagecolor="#ffffff"
     bordercolor="#666666"
     borderopacity="1.0"
     gridtolerance="10000"
     guidetolerance="10"
     objecttolerance="10"
     inkscape:pageopacity="0.0"
     inkscape:pageshadow="2"
     inkscape:zoom="1"
     inkscape:cx="78.283491"
     inkscape:cy="70.928281"
     inkscape:document-units="px"
     inkscape:current-layer="layer1"
     showgrid="false"
     inkscape:window-width="1538"
     inkscape:window-height="961"
     inkscape:window-x="127"
     inkscape:window-y="31" />
  <metadata
     id="metadata7">
    <rdf:RDF>
      <cc:Work
         rdf:about="">
        <dc:format>image/svg+xml</dc:format>
        <dc:type
           rdf:resource="http://purl.org/dc/dcmitype/StillImage" />
      </cc:Work>
    </rdf:RDF>
  </metadata>
  <g
     inkscape:label="Layer 1"
     inkscape:groupmode="layer"
     id="layer1">
    <path
       style="fill:#999999;fill-opacity:1;fill-rule:evenodd;stroke:#4d4d4d;stroke-width:1px;stroke-linecap:butt;stroke-linejoin:miter;stroke-opacity:1"
       d="M 29.918678,61.635515 C 22.670833,17.618118 23.197594,23.917826 23.197594,23.917826 L 25.49569,16.139651 L 30.798991,22.326835 L 33.807765,60.574856 L 29.918678,61.635515 z"
       id="path2555"
       sodipodi:nodetypes="cccccc" />
    <path
       style="fill:#000000;fill-opacity:0.72839505;fill-rule:evenodd;stroke:none;stroke-width:1px;stroke-linecap:butt;stroke-linejoin:miter;stroke-opacity:1;filter:url(#filter3443)"
       d="M 65.83461,110.73332 C 63.96259,111.33873 59.72102,110.09443 56.93954,109.39906 C 54.58305,108.80994 52.21218,110.5684 51.15775,111.62283 C 49.74444,113.03614 49.43235,115.84008 49.82349,117.40462 C 50.65543,120.73239 55.20584,120.50883 57.3843,120.07314 C 59.39206,119.67159 61.62858,121.35659 63.61084,121.85215 C 65.88717,122.42124 67.87376,122.74166 70.72689,122.74166 C 73.6267,122.74166 75.41085,124.18009 78.2877,122.74166 C 80.51879,121.62612 82.57841,121.96977 84.51425,120.51789 C 86.02661,119.38362 86.74065,117.39406 87.18277,115.62561 C 87.9666,112.49028 85.30614,112.01877 83.62474,111.17808 C 81.46374,110.09758 77.71837,110.76447 76.06393,111.17808 C 74.29065,111.6214 72.74791,108.95431 70.28214,108.95431 C 68.28279,108.95431 69.22272,110.73332 65.83461,110.73332 z"
       id="path2651" />
    <path
       style="fill:#e6e6e6;fill-rule:evenodd;stroke:#333333;stroke-width:1px;stroke-linecap:butt;stroke-linejoin:miter;stroke-opacity:1"
       d="M 64.60174,108.84096 C 61.42592,109.46509 58.81277,110.06198 56.11646,112.02294 C 55.5163,112.74187 55.54353,113.43568 55.58613,114.32104 C 55.82342,115.08508 56.0968,115.83341 56.29323,116.61914 C 59.04536,116.87614 62.08559,118.52461 64.95966,117.59921 C 67.97836,117.63778 71.02951,116.58077 73.52896,114.76298 C 74.10645,113.05345 73.48659,110.73557 73.35218,108.84096 C 70.5682,109.71581 67.40353,109.57408 64.60174,108.84096 z"
       id="path2637"
       sodipodi:nodetypes="cccccccc" />
    <path
       style="fill:none;fill-rule:evenodd;stroke:#333333;stroke-width:1px;stroke-linecap:butt;stroke-linejoin:miter;stroke-opacity:1"
       d="M 56.29323,115.11653 C 59.54463,114.56031 62.79462,116.69392 66.18002,116.2406 C 69.32375,116.1366 70.9551,113.85188 73.2638,113.70232"
       id="path2639"
       sodipodi:nodetypes="ccc" />
    <path
       style="fill:#e6e6e6;fill-rule:evenodd;stroke:#333333;stroke-width:1px;stroke-linecap:butt;stroke-linejoin:miter;stroke-opacity:1"
       d="M 75.82706,109.37129 C 73.29651,110.72338 69.48773,111.41542 66.98822,113.52554 C 66.5613,114.4245 66.5786,115.46376 66.45789,116.44236 C 66.60202,117.73615 67.36333,118.55422 68.31405,119.35917 C 70.88069,120.35205 73.74276,119.5776 76.35739,119.09401 C 78.65203,119.01353 81.35792,118.48746 82.95619,116.73785 C 85.42602,114.42802 85.01186,112.23483 84.75428,109.01774 C 81.77869,109.24322 78.8105,109.37129 75.82706,109.37129 z"
       id="path2641"
       sodipodi:nodetypes="cccccccc" />
    <path
       style="fill:#999999;fill-opacity:1;fill-rule:evenodd;stroke:#4d4d4d;stroke-width:1px;stroke-linecap:butt;stroke-linejoin:miter;stroke-opacity:1"
       d="M 28.646295,63.677783 L 31.214255,73.695178 L 35.756537,72.971354 L 34.922336,62.608881 L 28.646295,63.677783 z"
       id="path2551"
       sodipodi:nodetypes="ccccc" />
    <path
       style="fill:#999999;fill-opacity:1;fill-rule:evenodd;stroke:#4d4d4d;stroke-width:1px;stroke-linecap:butt;stroke-linejoin:miter;stroke-opacity:1"
       d="M 39.431786,59.908906 C 27.365323,61.76981 24.556799,62.148558 24.556799,62.148558 L 27.361973,65.37536 L 38.353673,63.548126 L 39.431786,59.908906 z"
       id="path2548"
       sodipodi:nodetypes="ccccc" />
    <path
       style="fill:#e9d2af;fill-opacity:1;fill-rule:evenodd;stroke:#3f2d10;stroke-width:1px;stroke-linecap:butt;stroke-linejoin:miter;stroke-opacity:1"
       d="M 62.18963,68.932159 C 60.96834,68.233713 55.01476,63.222149 50.26879,67.000589 C 47.46671,66.880831 44.91931,68.447368 42.17466,67.751083 C 40.487774,67.076528 39.389764,66.676227 38.145188,65.37 C 37.984726,63.861403 35.206333,62.984589 33.894713,62.683507 C 33.05671,63.622904 35.384943,64.691218 35.548303,65.906138 C 33.302421,65.668881 32.885952,72.449417 35.075743,72.447723 C 37.881887,72.879544 40.57367,73.83848 43.43336,73.935242 C 47.58793,73.375626 52.89477,75.057669 56.65044,72.993515 C 57.83116,70.225539 63.40827,70.858818 62.18963,68.932159 z"
       id="path2647"
       sodipodi:nodetypes="cccccccccc" />
    <path
       style="fill:#1a1a1a;fill-opacity:1;fill-rule:evenodd;stroke:#000000;stroke-width:1px;stroke-linecap:butt;stroke-linejoin:miter;stroke-opacity:1"
       d="M 64.27743,53.054755 C 60.84402,54.874278 58.14929,57.336363 55.91257,60.446766 C 53.7352,62.445964 51.61206,64.165167 50.37642,66.913312 C 53.91506,68.856376 57.97705,69.355617 61.54887,71.090632 C 64.74467,67.104978 66.08053,62.022987 67.73731,57.26577"
       id="path2593"
       sodipodi:nodetypes="ccccc" />
    <path
       style="fill:#00325c;fill-opacity:1;fill-rule:evenodd;stroke:#00192e;stroke-width:1px;stroke-linecap:butt;stroke-linejoin:miter;stroke-opacity:1"
       d="M 75.66574,87.22098 C 75.52058,88.00001 74.77611,90.02284 75.04074,91.34598 C 75.24404,92.36247 75.54854,93.37716 75.79074,94.34598 C 76.30943,96.89129 75.34497,99.32827 75.16574,101.84598 C 75.68083,104.05473 75.02911,107.54408 76.54074,109.09598 C 79.17073,111.08375 83.20554,110.99081 84.66574,108.47098 C 84.41548,107.46995 84.60591,106.87304 84.16574,105.84598 C 82.87966,103.10684 83.48877,99.98187 83.91574,97.09598 C 83.97346,93.30505 84.68316,89.63994 84.54074,85.84598 C 82.37337,85.04511 77.03382,85.62489 75.66574,87.22098 z"
       id="path2633"
       sodipodi:nodetypes="cscccccccc" />
    <path
       id="path2635"
       d="M 64.54074,87.09598 C 64.39558,87.87501 63.65111,89.89784 63.91574,91.22098 C 64.8592,94.01605 64.98976,96.62711 64.29074,99.47098 C 64.30667,102.26064 63.41852,106.92055 65.41574,108.97098 C 68.26131,110.09799 71.12205,110.81625 73.54074,108.34598 C 72.29521,104.4942 72.19722,100.98258 72.79074,96.97098 C 72.81962,93.17051 73.55915,89.54122 73.41574,85.72098 C 71.24837,84.92011 65.90882,85.49989 64.54074,87.09598 z"
       style="fill:#00325c;fill-opacity:1;fill-rule:evenodd;stroke:#00192e;stroke-width:1px;stroke-linecap:butt;stroke-linejoin:miter;stroke-opacity:1"
       sodipodi:nodetypes="cccccccc" />
    <path
       style="fill:#1a1a1a;fill-opacity:1;fill-rule:evenodd;stroke:#000000;stroke-width:1px;stroke-linecap:butt;stroke-linejoin:miter;stroke-opacity:1"
       d="M 89.45034,90.37256 C 86.64523,86.9113 88.5774,81.72731 88.93518,77.76335 C 87.70705,72.8063 90.89693,67.51596 89.84419,62.56055 C 89.37842,59.45479 88.34775,56.6584 86.78721,53.95027 C 85.00294,51.5372 82.62,50.16424 79.59115,50.00942 C 75.7052,50.57859 71.78257,50.05412 67.92388,50.8933 C 65.07659,52.13218 63.11423,54.18434 62.79736,57.25725 C 62.65983,60.03118 62.84624,62.53082 61.55992,65.03542 C 61.17277,69.48681 59.696,74.00641 60.32249,78.47045 C 61.21696,83.66383 58.98821,85.79549 59.5636,90.97503 C 64.04548,88.40923 69.85434,92.27693 74.94317,91.70726 C 79.21131,90.18144 86.80237,93.60895 89.45034,90.37256 z"
       id="path2581"
       sodipodi:nodetypes="cccccccccccc" />
    <path
       style="fill:#e9d2af;fill-opacity:1;fill-rule:evenodd;stroke:#3f2d10;stroke-width:1px;stroke-linecap:butt;stroke-linejoin:miter;stroke-opacity:1"
       d="M 93.303046,75.77614 C 90.783596,77.919427 87.512726,79.799268 84.198753,80.031946 C 82.66563,79.66719 83.260081,77.464314 81.441786,77.599918 C 80.394933,78.601507 80.78228,79.958669 81.150344,81.264708 C 79.074639,81.407293 76.809801,80.657912 75.976746,83.326135 C 77.129708,84.048647 78.756107,84.05076 79.984228,83.70452 C 78.819891,84.55714 75.747499,84.975161 78.130184,86.699311 C 79.645331,87.323301 80.553019,86.039387 81.843525,85.361674 C 80.987613,87.091433 79.056174,88.608878 82.176074,88.364074 C 83.328428,87.840192 83.769615,86.871229 84.285871,85.798923 C 85.288088,85.003277 86.662687,84.713767 87.871326,84.246468 C 91.001427,84.237657 93.809853,83.091203 96.668785,81.918965 C 97.791256,79.139244 101.61124,79.013498 102.88316,76.474043 C 103.58536,75.559178 104.16532,74.73873 104.58632,73.71454 C 103.83835,70.884196 101.96281,69.335469 99.069851,69.579349 C 95.341135,70.059565 95.383094,73.775493 93.303046,75.77614 z"
       id="path2645"
       sodipodi:nodetypes="cccccccccccccccc" />
    <path
       style="fill:#1a1a1a;fill-opacity:1;fill-rule:evenodd;stroke:#000000;stroke-width:1px;stroke-linecap:butt;stroke-linejoin:miter;stroke-opacity:1"
       d="M 79.934024,60.549462 C 81.325731,62.679103 83.052472,64.368845 84.961136,66.00755 C 86.762256,67.775667 88.180278,69.822544 89.466612,71.974703 C 92.872968,69.470031 95.869633,65.676297 98.830441,62.416999 C 97.40613,60.851041 95.889514,59.382772 94.490595,57.785904 C 92.530781,55.752547 89.833583,55.471129 87.593235,54.033225 C 85.276174,52.993138 83.04985,53.162255 81.243789,55.077656"
       id="path2585"
       sodipodi:nodetypes="ccccccc" />
    <path
       style="fill:#e9d2af;fill-opacity:1;fill-rule:evenodd;stroke:#3f2d10;stroke-width:1px;stroke-linecap:butt;stroke-linejoin:miter;stroke-opacity:1"
       d="M 69.99343,7.636309 C 59.54276,7.575104 55.40863,14.470358 55.26918,23.438979 C 55.26918,25.315137 56.13637,29.007597 56.60129,30.867279 C 56.38488,34.52903 55.47765,37.296 56.5584,40.87033 C 57.81526,45.92706 61.21184,48.61872 66.10434,49.70916 C 70.44748,49.62388 76.28441,48.14888 79.53936,45.11297 C 84.19991,41.29943 85.60305,34.84471 87.31754,29.203066 C 87.92695,23.814144 85.31243,18.673149 83.782,13.646717 C 81.65074,8.146395 75.20471,6.866455 69.99343,7.636309 z"
       id="path2550"
       sodipodi:nodetypes="ccccccccc" />
    <path
       style="fill:#28170b;fill-rule:evenodd;stroke:#120a04;stroke-width:1px;stroke-linecap:butt;stroke-linejoin:miter;stroke-opacity:1"
       d="M 56.5584,14.707377 C 55.91376,4.844922 82.81326,1.588407 84.21766,9.386309 C 91.77407,9.966533 91.81218,29.323613 89.93518,35.98492 C 82.13932,35.9055 86.19293,26.873613 81.66068,24.606872 C 79.72968,24.12412 79.0844,25.604498 77.41805,26.021085 C 73.88856,23.752543 77.45816,16.772849 71.76119,14.353823 C 68.97945,15.478026 65.45361,17.213027 62.56881,14.353823 C 60.10307,14.353823 58.65821,15.5473 56.5584,14.707377 z"
       id="path2554"
       sodipodi:nodetypes="cccccccc" />
    <path
       style="fill:#28170b;fill-rule:evenodd;stroke:#120a04;stroke-width:1px;stroke-linecap:butt;stroke-linejoin:miter;stroke-opacity:1"
       d="M 88.8117,34.58632 C 87.23215,34.58632 89.95254,40.21031 90.22592,41.30384 C 90.6497,42.99896 93.71782,45.4883 94.82211,46.96069 C 95.76006,48.21129 99.79192,47.02338 100.83252,46.60714 C 102.58377,45.90663 104.623,46.86208 105.42871,47.6678 C 107.94289,50.18197 106.43946,46.5073 105.78227,45.19292 C 105.26611,44.1606 102.90776,42.77188 101.89318,42.01094 C 100.16846,40.7174 99.81718,39.22783 98.35765,37.7683 C 96.96472,36.37537 95.29517,36.35409 93.4079,36.35409 C 92.22893,36.35409 90.25344,34.87467 88.8117,34.58632 z"
       id="path2556" />
    <path
       style="fill:#e9d2af;fill-opacity:1;fill-rule:evenodd;stroke:#3f2d10;stroke-width:1px;stroke-linecap:butt;stroke-linejoin:miter;stroke-opacity:1"
       d="M 67.23528,52.98876 C 68.974,57.57325 77.5874,56.06198 80.64061,51.69954 C 79.42253,49.22212 78.55975,46.24674 75.89061,44.94954 C 73.62385,44.69074 71.42382,45.32102 69.26561,45.94954 C 67.52742,47.30515 66.84644,51.24751 67.23528,52.98876 z"
       id="path2619"
       sodipodi:nodetypes="ccccc" />
    <path
       style="fill:#28170b;fill-rule:evenodd;stroke:#120a04;stroke-width:1px;stroke-linecap:butt;stroke-linejoin:miter;stroke-opacity:1"
       d="M 55.37837,47.22191 C 56.03428,48.53373 57.36693,49.34691 59.03462,49.34691 C 61.66112,50.1042 64.20232,51.28266 66.81587,52.19066 C 70.24758,53.07252 72.74829,51.32093 75.28462,49.34691 C 79.55845,47.13716 83.98664,43.37577 84.87836,38.44066 C 85.12836,36.37311 84.31431,36.37816 83.12836,36.75316 C 81.15827,38.76358 78.69028,40.88807 76.00337,41.94066 C 72.59933,42.90766 69.90246,43.35593 68.94087,39.44066 C 67.81183,36.19783 64.16615,35.26676 61.15962,34.50316 C 54.76913,34.22708 53.37476,42.56383 55.37837,47.22191 z M 61.09712,38.44066 C 64.18084,37.1385 70.60653,45.06955 65.03462,44.75316 C 62.69373,43.97355 62.20689,42.45836 60.81587,44.40941 C 55.85501,45.91316 57.81105,39.68695 61.09712,38.44066 z"
       id="path2558"
       sodipodi:nodetypes="cccccccccccccc" />
    <path
       style="fill:#ffffff;fill-rule:evenodd;stroke:#333333;stroke-width:1px;stroke-linecap:butt;stroke-linejoin:miter;stroke-opacity:1"
       d="M 64.44087,23.940656 C 63.07494,26.939137 64.13183,28.697267 67.05698,28.263879 C 67.95555,28.65949 69.82767,26.467595 69.39797,25.013879 C 69.71955,21.10973 66.33508,21.024986 64.44087,23.940656 z"
       id="path2565"
       sodipodi:nodetypes="cccc" />
    <path
       style="fill:#ffffff;fill-rule:evenodd;stroke:#333333;stroke-width:1px;stroke-linecap:butt;stroke-linejoin:miter;stroke-opacity:1"
       d="M 58.44087,21.940656 C 56.08715,22.469234 54.98254,24.266923 55.44087,26.940656 C 58.15823,31.958579 63.32592,24.738852 58.44087,21.940656 z"
       id="path2567"
       sodipodi:nodetypes="ccc" />
    <path
       style="fill:#e9d2af;fill-opacity:1;fill-rule:evenodd;stroke:#3f2d10;stroke-width:1px;stroke-linecap:butt;stroke-linejoin:miter;stroke-opacity:1"
       d="M 61.94087,25.690656 C 61.52529,28.101226 59.1919,29.223402 57.94087,30.440656 C 57.30166,33.115467 57.68558,35.03447 60.69087,34.44066 C 62.79081,33.465004 63.63385,31.846591 63.94087,29.690656"
       id="path2569"
       sodipodi:nodetypes="cccc" />
    <path
       style="fill:#e9d2af;fill-opacity:1;fill-rule:evenodd;stroke:#3f2d10;stroke-width:1px;stroke-linecap:butt;stroke-linejoin:miter;stroke-opacity:1"
       d="M 79.44086,26.190656 C 85.30424,23.861138 84.27107,32.54483 79.94086,31.690656"
       id="path2571"
       sodipodi:nodetypes="cc" />
    <path
       style="fill:#e9d2af;fill-opacity:1;fill-rule:evenodd;stroke:#3f2d10;stroke-width:1px;stroke-linecap:butt;stroke-linejoin:miter;stroke-opacity:1"
       d="M 80.56586,27.565656 C 81.41694,26.072723 83.65835,28.745447 80.56586,30.190656"
       id="path2573"
       sodipodi:nodetypes="cs" />
    <path
       style="fill:none;fill-rule:evenodd;stroke:#3f2d10;stroke-width:1px;stroke-linecap:butt;stroke-linejoin:miter;stroke-opacity:1"
       d="M 59.44087,41.69066 C 60.40572,42.0998 63.13999,41.88198 64.81587,41.69066"
       id="path2575"
       sodipodi:nodetypes="cc" />
    <path
       style="fill:#000000;fill-rule:evenodd;stroke:#000000;stroke-width:1px;stroke-linecap:butt;stroke-linejoin:miter;stroke-opacity:1"
       d="M 65.70343,24.306773 C 66.08997,23.950124 63.82642,23.284604 63.95343,25.306773 C 64.05187,26.874122 65.9463,27.247312 66.57843,26.806773 C 67.84804,25.921967 66.31581,23.994069 65.70343,24.306773 z"
       id="path2577"
       sodipodi:nodetypes="cssc" />
    <path
       style="fill:#000000;fill-rule:evenodd;stroke:#000000;stroke-width:1px;stroke-linecap:butt;stroke-linejoin:miter;stroke-opacity:1"
       d="M 57.05698,24.276442 C 57.51432,23.327731 54.87982,24.088782 55.55698,26.276442 C 56.02432,27.786237 57.68168,26.857378 57.80698,26.776442 C 59.48733,25.691079 58.12849,22.924198 57.05698,24.276442 z"
       id="path2579"
       sodipodi:nodetypes="cssc" />
    <path
       style="fill:none;fill-rule:evenodd;stroke:#006ca9;stroke-width:1px;stroke-linecap:butt;stroke-linejoin:miter;stroke-opacity:1"
       d="M 71.29074,65.22098 C 70.12359,65.67936 69.93403,68.1024 69.91574,69.34598 C 70.35359,70.53699 70.8735,72.70239 70.29074,74.22098"
       id="path2627"
       sodipodi:nodetypes="ccc" />
    <path
       style="fill:none;fill-rule:evenodd;stroke:#333333;stroke-width:1px;stroke-linecap:butt;stroke-linejoin:miter;stroke-opacity:1"
       d="M 67.165,117.50302 C 70.29331,118.17388 73.68812,118.52091 76.11367,117.56108 C 79.02919,117.17517 81.62962,116.57057 84.31234,113.70232"
       id="path2643"
       sodipodi:nodetypes="ccc" />
    <g
       id="g3779"
       transform="translate(-101,-22)" />
    <path
       style="font-size:12px;font-style:normal;font-variant:normal;font-weight:normal;font-stretch:normal;fill:#ffffff;fill-opacity:1;stroke:none;stroke-width:1px;stroke-linecap:butt;stroke-linejoin:miter;stroke-opacity:1;font-family:Rufscript;-inkscape-font-specification:Rufscript"
       d="M 63.260273,67.10704 C 63.123344,67.080513 62.922226,67.125972 63.038005,66.927778 C 63.032799,65.869976 62.78525,64.772878 62.77369,63.713007 C 62.760422,63.192017 62.742347,62.666813 62.782799,62.159956 C 62.933949,61.914149 63.30003,61.967107 63.581739,61.966862 C 64.168902,62.012162 64.7685,62.113076 65.361312,62.266648 C 65.653847,62.497652 65.848602,62.838482 66.037215,63.150969 C 66.285086,63.584611 66.175058,64.062225 65.879222,64.307742 C 65.539392,64.667219 64.994572,64.735621 64.617809,65.043356 C 64.336031,65.208601 64.457009,65.64848 64.75905,65.86424 C 65.140349,66.194906 65.601605,66.43403 65.898636,66.864528 C 66.064173,67.106234 66.241568,67.393874 66.226384,67.662946 C 65.963608,67.770599 65.485793,67.6167 65.298298,67.270756 C 65.05795,67.005953 64.851698,66.677692 64.59235,66.448281 C 64.316439,66.297107 64.128465,65.636091 63.810149,65.959266 C 63.639347,66.194245 63.68795,66.555564 63.661383,66.860866 C 63.695703,67.029385 63.485116,66.99797 63.389781,67.060667 C 63.346612,67.076125 63.303442,67.091583 63.260273,67.10704 z M 63.659489,64.691008 C 64.256544,64.494561 64.891831,64.313788 65.328861,63.87276 C 65.534586,63.696038 65.512132,63.308971 65.238529,63.08545 C 64.822227,62.684593 64.274997,62.643971 63.792645,62.551656 C 63.347366,62.388398 63.552685,63.000457 63.558666,63.264329 C 63.628212,63.74416 63.624408,64.215537 63.659489,64.691008 z M 68.490817,68.146476 C 68.488561,67.415286 68.537024,66.685602 68.369987,65.928757 C 68.279305,65.400701 68.191185,64.872789 68.103822,64.344929 C 67.875178,64.063961 67.489636,64.027303 67.18815,63.906671 C 66.819205,63.800672 66.3162,63.610069 66.207928,63.161215 C 66.170526,62.824595 66.733074,63.135499 66.950729,63.106994 C 68.130388,63.336571 69.318259,63.52363 70.49489,63.93583 C 70.763743,64.024927 71.269828,64.249527 71.113104,64.59032 C 70.904678,64.794344 70.527772,64.66513 70.23208,64.61027 C 69.885304,64.532679 69.537768,64.442263 69.191482,64.379217 C 68.932395,64.676138 69.120857,65.178749 69.185465,65.585918 C 69.311288,66.440998 69.33218,67.289228 69.265378,68.105597 C 69.282666,68.440009 69.063701,68.701464 68.707227,68.431618 C 68.59836,68.377855 68.484496,68.270685 68.490817,68.146476 z M 72.271147,67.28262 C 72.054606,67.462589 72.304986,67.923917 72.359303,68.219095 C 72.455043,68.559345 72.631949,68.964802 72.469736,69.249761 C 72.22842,69.45692 71.680405,69.18422 71.68129,68.790695 C 71.521866,67.665133 71.488192,66.554808 71.426828,65.443404 C 71.426545,65.09036 71.37177,64.71284 71.452348,64.386316 C 71.813168,64.125854 72.347581,64.20916 72.817412,64.248101 C 73.271575,64.319774 73.752839,64.350642 74.190272,64.615583 C 74.357213,64.848735 74.746536,65.235399 74.63869,65.473123 C 73.936904,65.253655 73.213383,64.942249 72.515692,64.951846 C 72.14553,64.964195 72.245803,65.47392 72.237539,65.762429 C 72.199944,66.112248 72.377168,66.599694 72.802183,66.675608 C 73.278517,66.820677 73.765532,66.621428 74.229544,66.940988 C 74.628053,67.278844 74.246739,67.636198 73.899242,67.560379 C 73.366707,67.555308 72.814031,67.425372 72.271147,67.28262 z M 79.131144,71.896702 C 79.000001,71.452454 79.033286,71.012791 79.007345,70.577005 C 78.966784,69.165307 79.049611,67.780797 78.983983,66.364044 C 78.913305,66.281072 78.721566,66.631732 78.605422,66.70837 C 78.296386,67.025011 77.898848,67.266797 77.513912,67.46945 C 77.695419,67.682986 78.171219,67.992981 78.060794,68.232784 C 77.8168,68.527974 77.401196,68.295378 77.215071,67.929417 C 76.698593,67.286926 76.189142,66.638224 75.656336,66.008646 C 75.730679,67.260959 75.818307,68.517138 75.829464,69.757142 C 75.840956,70.098711 75.332954,70.182092 75.114988,69.87693 C 74.939792,69.537991 75.009531,69.186527 74.972685,68.847794 C 74.946807,67.71459 74.924743,66.581144 74.951852,65.460275 C 74.951077,65.110431 75.347531,65.098691 75.628838,65.230269 C 75.979295,65.423571 76.290874,65.754675 76.428861,66.133867 C 76.576779,66.368633 76.737627,66.923541 77.029965,66.830003 C 77.425807,66.52078 77.8343,66.22555 78.222213,65.907558 C 78.410666,65.691771 78.725556,65.566893 78.755223,65.228445 C 78.918691,65.029464 79.501619,65.11383 79.510753,65.500479 C 79.591777,66.240523 79.583599,66.966755 79.655302,67.705579 C 79.713506,68.836032 79.684308,69.951727 79.803294,71.092454 C 79.878902,71.403949 79.952381,71.786368 79.634619,71.898461 C 79.509674,71.970964 79.272564,72.118657 79.131144,71.896702 z"
       id="text2433" />
    <path
       style="fill:#999999;fill-rule:evenodd;stroke:#4d4d4d;stroke-width:1px;stroke-linecap:butt;stroke-linejoin:miter;stroke-opacity:1"
       d="M 71.048857,60.832703 C 79.340176,62.736521 90.862904,64.661658 97.856559,58.741029 C 109.49361,82.139527 103.72038,93.328651 88.02411,105.16932 C 69.848566,93.956456 65.148941,83.602665 71.048857,60.832703 z"
       id="path2546"
       sodipodi:nodetypes="cccc" />
    <path
       style="fill:#999999;fill-opacity:1;fill-rule:evenodd;stroke:#4d4d4d;stroke-width:1px;stroke-linecap:butt;stroke-linejoin:miter;stroke-opacity:1"
       d="M 35.398755,72.949224 C 32.647808,72.34659 30.717931,73.344935 29.918678,76.131205 C 30.967231,79.097708 34.694525,78.838392 37.166522,77.545418 C 38.44144,75.158283 37.884719,73.905887 35.398755,72.949224 z"
       id="path2553"
       sodipodi:nodetypes="cccc" />
    <path
       style="fill:none;fill-rule:evenodd;stroke:#4d4d4d;stroke-width:1px;stroke-linecap:butt;stroke-linejoin:miter;stroke-opacity:1"
       d="M 25.856384,16.669981 L 31.332891,55.801885"
       id="path2557"
       sodipodi:nodetypes="cc" />
    <path
       style="fill:#e9d2af;fill-opacity:1;fill-rule:evenodd;stroke:#3f2d10;stroke-width:1px;stroke-linecap:butt;stroke-linejoin:miter;stroke-opacity:1"
       d="M 27,66.25 C 27.150952,67.137548 27.249589,67.9313 28.457107,67.829505 C 27.504162,67.810178 26.63989,69.965714 27.963388,69.875 C 26.379327,71.620606 29.663031,72.300576 30.875,72.375 C 31.576466,72.375 32.370431,70.898079 32.5,70.75 C 32.653047,69.498596 31.655969,69.969106 30.463388,70.015165 C 29.843969,70.015165 32.041711,69.542867 31.75,68.5 C 31.628192,68.064537 31.350222,67.771447 30.698223,67.948223 C 32.410126,66.93776 32.381398,66.706012 31.375,65.875 C 29.937952,65.180538 28.333615,65.522992 27,66.25 z"
       id="path2559"
       sodipodi:nodetypes="ccccccsccc" />
    <path
       style="fill:#999999;fill-opacity:1;fill-rule:evenodd;stroke:#4d4d4d;stroke-width:1px;stroke-linecap:butt;stroke-linejoin:miter;stroke-opacity:1"
       d="M 54.351028,16.734235 C 56.923479,19.101863 62.266753,19.163072 65.664737,19.209109 C 74.302323,20.320602 82.796698,18.442334 91.297358,17.264565 C 91.841793,15.70592 90.966193,14.210751 89.706367,13.375478 C 83.182299,14.648407 76.584941,15.933938 69.907377,15.143245 C 70.988308,9.1596958 67.219847,6.3187072 63.911057,1.7474297 C 60.866388,4.6981922 57.635497,7.4616607 57.709785,13.552255 C 57.465053,14.04172 55.293302,13.05112 55.234912,13.021925 C 54.551732,14.037277 54.457812,15.479417 54.351028,16.734235 z"
       id="path2568"
       sodipodi:nodetypes="ccccccccc" />
    <path
       style="fill:none;fill-rule:evenodd;stroke:#4d4d4d;stroke-width:1px;stroke-linecap:butt;stroke-linejoin:miter;stroke-opacity:1"
       d="M 63.375,6.6249998 C 60.542713,7.0236766 60.9545,10.603252 61.5,12.75 C 62.911635,13.467862 63.836869,13.302882 64.375,11.875 C 64.597664,9.84951 65.603548,7.3991135 63.375,6.6249998 z"
       id="path2570"
       sodipodi:nodetypes="cccc" />
    <path
       style="fill:#ffff00;fill-opacity:1;fill-rule:evenodd;stroke:#ff8f00;stroke-width:1px;stroke-linecap:butt;stroke-linejoin:miter;stroke-opacity:1"
       d="M 7.9793633,8.8489681 C 5.2952596,10.553095 10.311118,12.57368 11.041863,14.442718 C 12.595005,15.621379 14.322493,18.511096 16.041863,18.286468 C 18.103921,16.495474 14.297019,15.613762 13.479363,14.067718 C 11.679363,12.618671 9.9153454,9.1851396 7.9793633,8.8489681 z"
       id="path2572" />
    <path
       style="fill:#ffff00;fill-opacity:1;fill-rule:evenodd;stroke:#ff8f00;stroke-width:1px;stroke-linecap:butt;stroke-linejoin:miter;stroke-opacity:1"
       d="M 4.9579167,25.595289 C 3.7329596,27.975859 7.6077019,27.426071 9.1759756,27.715318 C 11.096248,27.281662 15.448595,28.97592 15.051666,26.189039 C 13.702526,25.036067 10.375241,26.132261 8.2079167,25.689039 C 7.1958942,25.891775 5.3628378,24.646919 4.9579167,25.595289 z"
       id="path2574" />
    <path
       style="fill:#ffff00;fill-opacity:1;fill-rule:evenodd;stroke:#ff8f00;stroke-width:1px;stroke-linecap:butt;stroke-linejoin:miter;stroke-opacity:1"
       d="M 16.864167,35.021145 C 13.780059,36.363778 10.755843,38.322416 7.3016668,38.677395 C 6.4078799,41.919461 9.9181205,40.232748 11.582917,39.677395 C 13.867886,38.781131 15.986281,37.662336 18.176667,36.552395 C 17.728899,36.237228 17.640031,34.242744 16.864167,35.021145 z"
       id="path2576" />
    <path
       style="fill:#ffff00;fill-opacity:1;fill-rule:evenodd;stroke:#ff8f00;stroke-width:1px;stroke-linecap:butt;stroke-linejoin:miter;stroke-opacity:1"
       d="M 18.385613,45.272985 C 16.252659,46.743975 14.112267,48.277835 11.666863,49.085485 C 11.839992,52.291702 14.884228,49.81153 16.448113,48.960485 C 17.948313,47.881543 21.817773,46.157088 18.385613,45.272985 z"
       id="path2578" />
    <path
       style="fill:#ffff00;fill-opacity:1;fill-rule:evenodd;stroke:#ff8f00;stroke-width:1px;stroke-linecap:butt;stroke-linejoin:miter;stroke-opacity:1"
       d="M 42.1589,8.4712084 C 39.246812,9.7554394 37.518932,12.69355 35.0339,14.408708 C 35.92633,17.172866 37.548847,15.015934 38.734554,13.808538 C 40.22313,12.408442 41.467759,10.858621 43.37765,10.127458 C 42.935857,9.895539 42.994905,7.632734 42.1589,8.4712084 z"
       id="path2580" />
    <path
       style="fill:#ffff00;fill-opacity:1;fill-rule:evenodd;stroke:#ff8f00;stroke-width:1px;stroke-linecap:butt;stroke-linejoin:miter;stroke-opacity:1"
       d="M 46.054426,19.378378 C 43.644508,21.47519 40.46649,22.38998 37.335676,22.690878 C 36.828116,25.235767 38.88071,24.662189 40.554426,24.222128 C 43.162549,23.579493 45.80768,22.433741 47.773176,20.534628 C 47.251819,20.242691 46.610442,18.59167 46.054426,19.378378 z"
       id="path2582" />
    <path
       style="fill:#ffff00;fill-opacity:1;fill-rule:evenodd;stroke:#ff8f00;stroke-width:1px;stroke-linecap:butt;stroke-linejoin:miter;stroke-opacity:1"
       d="M 37.795543,31.893701 C 36.16633,33.94745 39.520646,33.943742 40.826793,34.393701 C 42.760708,34.763943 44.754249,34.747811 46.701793,34.487451 C 47.210958,31.396377 43.984836,33.147816 42.108043,32.549951 C 40.882959,32.830868 38.328248,30.933707 37.795543,31.893701 z"
       id="path2584" />
    <path
       style="fill:#ffff00;fill-opacity:1;fill-rule:evenodd;stroke:#ff8f00;stroke-width:1px;stroke-linecap:butt;stroke-linejoin:miter;stroke-opacity:1"
       d="M 37.585676,46.329966 C 35.666442,48.250981 39.69087,49.209345 41.110184,50.114892 C 42.775021,50.684393 45.715267,52.575031 45.429426,49.423716 C 42.695959,48.789476 40.112277,47.611625 37.866926,45.923716 L 37.585676,46.329966 z"
       id="path2586" />
    <path
       style="fill:#ffff00;fill-opacity:1;fill-rule:evenodd;stroke:#ff8f00;stroke-width:0.99999988px;stroke-linecap:butt;stroke-linejoin:miter;stroke-opacity:1"
       d="M 22.585812,2.2032644 C 20.200242,3.2270717 23.22803,7.2709343 23.705486,9.7324612 C 23.971436,13.084434 27.472674,12.150478 25.826625,9.4803382 C 24.735289,7.0778506 24.077527,4.3573405 23.05413,1.9084577 L 22.614122,2.185444 L 22.585812,2.2032644 z"
       id="path2588" />
    <path
       style="font-size:15.73004627px;font-style:normal;font-variant:normal;font-weight:normal;font-stretch:normal;fill:none;fill-opacity:1;stroke:#5e5e5e;stroke-width:1px;stroke-linecap:butt;stroke-linejoin:miter;stroke-opacity:1;font-family:Rufscript;-inkscape-font-specification:Rufscript"
       d="M 82.814672,67.849671 C 79.396098,68.03002 75.804046,69.620634 77.223292,71.773768 C 79.263468,73.545598 75.122981,78.057567 78.268061,76.933874 C 82.054792,76.206815 81.392527,74.243056 84.690973,75.904414 C 90.333258,75.498842 85.564738,72.706787 83.827875,72.609927 C 86.042611,71.784637 87.934155,68.64858 89.625974,70.701705 C 90.415298,72.139642 89.13026,76.900439 93.884851,74.521652 C 94.987429,72.782406 94.36469,70.977832 93.884851,69.387971 C 96.444543,69.773292 100.73092,67.311546 97.29972,66.732894 C 92.964952,66.401537 87.771376,68.721236 84.165609,67.650324 L 82.965239,67.827453 L 82.814672,67.849671 z M 81.989098,70.186381 C 85.233911,69.467931 80.233393,72.502877 81.388682,70.26527 L 81.989098,70.186381 z M 95.348366,79.50673 C 93.005948,80.233629 91.765658,83.726861 89.606884,81.943213 C 87.600926,81.401098 85.767469,82.174127 83.790348,81.724412 C 79.887741,81.856755 75.314226,83.659135 77.171695,86.153954 C 76.765005,87.696649 77.216535,92.280658 81.613839,89.918441 C 82.940995,88.627842 79.913256,87.304428 83.752822,87.256242 C 86.784952,85.881134 83.582225,90.864044 87.880686,89.444558 C 91.845987,87.907376 87.024208,83.854561 92.121127,86.003799 C 94.217385,85.49643 94.769821,84.80058 94.260112,86.858719 C 93.162238,88.616366 95.432317,91.163298 98.200344,88.809541 C 98.606263,85.804519 98.445501,82.351998 97.337246,79.551245 C 96.834737,79.29985 96.044777,79.349293 95.348366,79.50673 z M 82.439411,84.261222 C 85.210067,83.617644 85.950384,84.903228 83.039828,84.946924 C 81.134804,86.025097 80.413093,84.250233 82.439411,84.261222 z M 94.260112,84.040655 C 93.55444,84.042224 94.741262,83.432383 94.260112,84.040655 z"
       id="text2438" />
  </g>
</svg>
