<?xml version="1.0" encoding="UTF-8" standalone="no"?>
<!DOCTYPE svg PUBLIC "-//W3C//DTD SVG 20010904//EN"
"http://www.w3.org/TR/2001/REC-SVG-20010904/DTD/svg10.dtd">
<!-- Created with Inkscape (http://www.inkscape.org/) -->
<svg
   id="svg1"
   sodipodi:version="0.32"
   inkscape:version="0.39"
   width="320.00000pt"
   height="320.00000pt"
   sodipodi:docbase="/home/nicu/Desktop/faces"
   sodipodi:docname="drawn_face.svg"
   xmlns="http://www.w3.org/2000/svg"
   xmlns:inkscape="http://www.inkscape.org/namespaces/inkscape"
   xmlns:sodipodi="http://sodipodi.sourceforge.net/DTD/sodipodi-0.dtd"
   xmlns:xlink="http://www.w3.org/1999/xlink"
   xmlns:rdf="http://www.w3.org/1999/02/22-rdf-syntax-ns#"
   xmlns:cc="http://web.resource.org/cc/"
   xmlns:dc="http://purl.org/dc/elements/1.1/">
  <defs
     id="defs3">
    <linearGradient
       id="linearGradient861">
      <stop
         style="stop-color:#ffffff;stop-opacity:0.0000000;"
         offset="0.0000000"
         id="stop862" />
      <stop
         style="stop-color:#ffffff;stop-opacity:0.15000001;"
         offset="0.50000000"
         id="stop925" />
      <stop
         style="stop-color:#ffffff;stop-opacity:0.0000000;"
         offset="1.0000000"
         id="stop863" />
    </linearGradient>
    <linearGradient
       xlink:href="#linearGradient861"
       id="linearGradient864"
       x1="1.1666666"
       y1="0.031250000"
       x2="-0.069444448"
       y2="0.92968750" />
    <linearGradient
       xlink:href="#linearGradient861"
       id="linearGradient1075"
       x1="0.91025639"
       y1="0.10156250"
       x2="0.21794872"
       y2="0.93750000" />
    <linearGradient
       xlink:href="#linearGradient861"
       id="linearGradient1076"
       x1="1.0166667"
       y1="0.18750000"
       x2="-0.36666667"
       y2="0.90625000" />
    <linearGradient
       xlink:href="#linearGradient861"
       id="linearGradient1077"
       x1="0.93396229"
       y1="0.14062500"
       x2="0.16981132"
       y2="0.96093750" />
    <linearGradient
       xlink:href="#linearGradient861"
       id="linearGradient1078"
       x1="0.14473684"
       y1="0.093750000"
       x2="0.96052629"
       y2="1.0156250" />
    <linearGradient
       xlink:href="#linearGradient861"
       id="linearGradient1079"
       x1="0.40000001"
       y1="0.078125000"
       x2="0.89999998"
       y2="0.92968750" />
    <linearGradient
       xlink:href="#linearGradient861"
       id="linearGradient1080"
       x1="-2.8371402e-15"
       y1="0.093750000"
       x2="0.90625000"
       y2="0.88281250" />
    <linearGradient
       xlink:href="#linearGradient861"
       id="linearGradient1081"
       x1="0.16129032"
       y1="0.070312500"
       x2="0.61290324"
       y2="0.81250000" />
    <linearGradient
       xlink:href="#linearGradient861"
       id="linearGradient1082"
       x1="0.15217391"
       y1="0.046875000"
       x2="0.84347826"
       y2="0.84375000" />
  </defs>
  <sodipodi:namedview
     id="base"
     pagecolor="#ffffff"
     bordercolor="#666666"
     borderopacity="1.0"
     inkscape:pageopacity="0.0"
     inkscape:pageshadow="2"
     inkscape:zoom="1.0000000"
     inkscape:cx="163.65387"
     inkscape:cy="132.23721"
     inkscape:window-width="1006"
     inkscape:window-height="779"
     inkscape:window-x="-69"
     inkscape:window-y="32" />
  <path
     style="fill:#ad8370;fill-rule:evenodd;stroke:#000000;stroke-width:1.2500000;stroke-linejoin:round;"
     d="M 170.95671,216.29940 C 173.07681,232.15797 177.35420,253.25675 167.76007,267.69616 C 161.19315,277.04544 156.67891,287.24810 164.12467,301.42528 C 175.28516,314.61899 198.75177,327.50786 228.94113,329.21868 C 268.55436,329.48111 277.33092,318.13407 288.95244,303.35755 C 299.42475,285.81830 301.58081,271.37638 296.67859,262.44641 C 287.72296,253.61102 288.27103,243.05687 291.35395,230.41056 C 293.25635,223.19453 295.35881,218.11880 297.27746,211.90906 C 284.83804,219.75677 262.35352,227.82029 250.44059,227.61937 C 234.52098,228.71580 218.18518,228.85046 202.57938,225.17022 C 192.75798,221.98851 176.54065,220.08734 170.95671,216.29940 z "
     id="path921"
     sodipodi:nodetypes="ccccccccccc" />
  <path
     style="fill:#3c272c;fill-rule:evenodd;stroke:#000000;stroke-width:1.2500000;stroke-linejoin:round;"
     d="M 154.03837,164.09488 C 154.54252,173.69111 157.83768,183.63865 160.56114,192.81856 C 162.93565,201.14514 166.31573,209.23216 170.26912,216.70617 C 173.21169,222.54471 160.50745,233.23579 161.54211,246.89357 C 163.10263,262.53813 167.83633,271.75729 167.53640,287.57245 C 166.84761,297.12483 164.67697,314.17304 152.97354,319.98335 C 160.52205,310.35284 162.05970,303.30445 162.63374,294.88097 C 163.49565,283.25165 162.83127,273.76678 160.92642,262.62405 C 160.14020,256.42749 159.29831,252.36929 156.09282,246.30439 C 154.07967,255.89179 144.06111,266.59317 137.58709,276.13658 C 133.11685,283.41933 133.39897,291.23556 140.24171,297.84174 C 144.17798,301.89181 147.48242,308.85223 151.44158,311.78577 C 142.60315,308.19535 136.07960,299.98765 129.90617,295.02165 C 125.17306,300.30539 126.94033,305.05876 121.14847,313.42388 C 116.04384,319.98349 111.96572,327.29645 110.45830,335.15171 C 106.82815,342.23887 102.43110,344.51700 96.798270,350.79891 C 89.332870,356.54809 75.917939,359.54040 70.222579,355.01882 C 79.598054,349.54315 87.682546,338.71391 92.784695,329.42575 C 97.393829,321.60953 100.06511,313.44562 102.43297,304.76069 C 105.41922,298.12916 106.12577,289.44544 101.21602,286.64850 C 93.748705,287.21262 80.311880,294.92716 73.698559,301.16937 C 65.374735,309.91853 60.155667,317.52851 57.286227,326.92395 C 54.626637,333.35799 53.962452,338.05416 54.259497,353.99057 C 49.101779,346.27706 51.089919,328.62770 54.236816,320.95629 C 46.726678,327.86072 40.219332,344.52513 38.493338,362.30192 C 35.600658,347.69207 36.978036,331.14440 43.602277,321.02416 C 48.265292,314.39496 53.924492,303.75756 58.671773,296.45794 C 64.201099,287.52349 70.671407,278.81648 78.937319,272.12035 C 83.829229,268.35478 92.373456,264.36511 91.203650,259.14485 C 83.501519,264.36402 77.910382,259.98439 70.979856,261.79121 C 66.127162,263.68574 60.410560,266.19635 50.112254,276.55453 C 53.998453,267.73820 63.866561,259.14583 74.346679,255.65317 C 83.974985,253.25703 92.982433,248.89613 100.57607,242.35246 C 103.21553,239.57157 119.96829,228.32225 128.45670,218.64012 C 141.03941,202.91944 151.34419,168.81471 154.03837,164.09488 z "
     id="path958"
     sodipodi:nodetypes="ccccccccccccccccccccccccccccccccccc" />
  <path
     style="fill:#3c272c;fill-rule:evenodd;stroke:#000000;stroke-width:1.2500000;stroke-linejoin:miter;"
     d="M 323.45847,133.15560 C 319.03660,142.10847 311.77796,157.61803 311.46903,167.66432 C 311.97901,176.68927 305.96263,180.15012 301.89280,195.70258 C 297.40259,203.69890 299.23890,208.53830 295.18951,216.52921 C 291.14743,225.09653 287.72765,232.07603 287.23721,241.15729 C 286.21122,248.35256 288.33730,253.06328 286.93701,262.79911 C 290.75041,254.78244 293.14957,245.17170 294.97499,236.11213 C 298.58922,223.41106 298.75044,245.50793 298.13281,249.76765 C 297.49413,259.04688 284.93585,266.49142 281.50340,273.47156 C 279.82419,278.21758 274.25343,288.77021 283.56599,293.31350 C 280.17974,287.00172 284.56723,274.65363 290.66317,266.00003 C 294.74018,260.16906 297.20579,259.92683 298.33871,266.81824 C 299.58091,276.08100 296.07883,285.86616 289.06480,291.69239 C 282.33434,296.48117 271.34439,308.68028 260.87493,312.57409 C 273.51107,312.27392 297.19787,287.46855 293.39712,299.22283 C 291.58419,308.76035 290.36229,317.74202 281.04314,323.41594 C 271.95788,328.51340 261.80792,339.51258 253.17387,325.83878 C 248.93248,342.34360 279.93831,332.23158 278.13090,338.80736 C 275.52269,343.73306 269.52504,347.45794 262.83510,352.23844 C 271.83453,351.46331 293.21855,334.50026 292.77322,340.87120 C 292.41230,348.07412 285.81232,351.88483 276.92201,358.69294 C 269.97519,362.93212 262.06267,364.83646 256.11473,367.72841 C 268.98508,364.74310 283.31375,366.91277 289.84535,354.79096 C 290.06292,366.29971 284.10856,370.31483 279.30668,377.22416 C 275.50562,382.33802 269.80730,387.52471 260.72934,390.12354 C 278.75950,394.11425 283.65912,379.15722 292.29329,373.11851 C 301.49100,368.14522 306.99207,361.39621 313.12159,354.12484 C 321.04002,345.53391 326.95658,336.09725 333.82025,327.11269 C 339.44503,319.42388 342.85502,308.06373 347.21980,301.38881 C 351.51856,294.91084 351.92949,274.79499 351.06610,266.73209 C 350.09044,252.52427 339.62454,242.12653 334.16525,225.38498 C 331.10721,217.03204 333.02183,204.05900 331.54933,192.22087 C 331.96295,182.20970 327.87088,174.96787 326.87844,165.94008 C 325.99474,159.10089 324.73797,142.23772 323.45847,133.15560 z "
     id="path956"
     sodipodi:nodetypes="cccccccccccccccccccccccccccccccccc" />
  <path
     style="fill:url(#linearGradient1079);fill-opacity:0.099999972;fill-rule:evenodd;stroke:none;stroke-width:1.0000000pt;stroke-linecap:butt;stroke-linejoin:miter;stroke-opacity:1.0000000;"
     d="M 335.23406,234.91755 C 339.35740,241.10343 342.31474,247.08242 345.99129,253.81683 C 349.83214,261.24689 350.89777,266.10590 350.31475,274.85502 C 349.52946,281.91073 349.34452,290.10186 346.72360,300.09034 C 346.93514,283.42237 344.67086,272.17039 342.17722,263.62649 C 339.93195,254.04094 337.13686,244.57957 335.23406,234.91755 z "
     id="path1068"
     sodipodi:nodetypes="cccccc" />
  <path
     style="fill:#ad8370;fill-opacity:1.0000000;fill-rule:evenodd;stroke:#000000;stroke-width:1.2500000;stroke-linejoin:round;"
     d="M 275.68382,33.958040 C 285.59395,41.759200 293.33753,52.477490 300.34913,62.832710 C 305.56602,76.453470 310.40602,87.495360 311.00276,101.89516 C 312.25415,122.02498 312.54337,141.25635 309.39247,161.26993 C 308.00974,175.44641 305.39653,191.55447 299.37678,206.69801 C 296.90432,213.09863 292.07861,225.85989 283.26441,238.40190 C 277.77832,247.90290 267.02749,255.94950 256.12289,260.92578 C 245.05080,269.35696 222.89782,263.97362 205.40314,260.25999 C 195.29055,256.66837 186.91285,249.25782 177.98632,235.38040 C 171.36759,221.17306 164.91042,208.66694 160.60353,194.32509 C 156.27538,179.38335 154.23562,162.30547 154.34886,146.45328 C 155.46072,124.95013 155.91724,103.64008 160.52236,80.876720 C 166.03014,65.684180 171.21516,52.498920 183.05050,44.350430 C 196.89123,33.178960 213.00497,27.901140 229.78579,24.379960 C 251.62069,21.903420 263.75784,24.981080 275.68382,33.958040 z "
     id="path828"
     sodipodi:nodetypes="ccccccccccccccc" />
  <path
     style="fill:#9b725e;fill-rule:evenodd;stroke:#000000;stroke-width:1.2500000;stroke-linejoin:round;"
     d="M 305.56346,187.32439 C 310.18213,188.26629 312.28657,180.03298 312.27124,175.71654 C 312.10294,168.37516 311.39177,164.81745 314.87174,158.17296 C 316.36722,155.24069 319.50179,144.96648 318.88638,139.67877 C 318.50741,135.34678 313.03378,133.03912 311.84415,136.04166 C 311.38608,139.83984 310.03935,156.98536 309.83556,159.91079 C 309.38283,163.82665 306.57751,182.69480 305.56346,187.32439 z "
     id="path945"
     sodipodi:nodetypes="ccccccc" />
  <path
     style="fill:#9b725e;fill-rule:evenodd;stroke:#000000;stroke-width:1.2500000;stroke-linejoin:round;"
     d="M 155.11159,165.52508 C 155.43032,169.30896 156.34438,173.40849 156.64691,177.56468 C 156.97270,180.49667 159.23223,185.20791 156.99041,186.29766 C 154.15935,187.56872 152.44263,185.62297 151.47056,181.99199 C 149.70712,174.59373 147.88200,167.16080 145.64114,159.90773 C 144.32601,154.71704 143.07245,150.82865 144.39612,146.40333 C 145.76302,143.66222 154.39246,143.08740 154.22310,146.33254 C 155.33718,150.19022 154.81741,159.55957 155.11159,165.52508 z "
     id="path950"
     sodipodi:nodetypes="cccccccc" />
  <path
     style="fill:#3c272c;fill-rule:evenodd;stroke:#000000;stroke-width:1.2500000;stroke-linejoin:round;"
     d="M 260.10391,41.258850 C 273.11586,42.355230 287.30448,54.636590 292.28475,60.723280 C 299.44862,70.184030 301.65511,85.136410 302.19403,89.734660 C 302.27974,93.131430 309.97943,124.53262 309.96990,135.73764 C 310.67721,148.80710 306.14003,166.40129 307.58979,168.11580 C 310.63575,164.50058 318.25143,148.87456 323.13511,135.80872 C 329.86510,122.87307 323.11344,110.00347 322.50683,96.046340 C 321.89106,81.309130 319.54931,66.805110 311.60952,53.587240 C 303.98967,42.458010 293.58365,30.103400 285.85573,20.758720 C 282.04009,16.577840 260.01221,7.1810000 253.99286,8.2940800 C 245.99678,9.8079600 242.09231,10.542400 233.71815,6.3129900 C 223.45953,2.7885200 206.05199,6.8928200 190.33205,11.317570 C 178.21294,15.896420 166.53864,30.630370 158.01957,42.831410 C 151.89990,52.350850 147.46543,64.825230 141.28239,76.742640 C 135.19490,89.259560 133.65088,104.70814 132.40462,118.71911 C 131.52710,132.47767 130.06696,147.12545 128.28652,164.32317 C 126.91667,178.20712 125.44838,190.43349 114.65151,205.22179 C 106.52499,217.15094 94.901489,222.52559 83.187910,227.85553 C 72.005745,233.45896 61.598942,234.79966 56.549442,245.49756 C 65.508083,232.60427 87.585585,229.76041 100.92286,224.29886 C 106.77487,224.08481 103.15617,225.62189 99.941625,228.78874 C 93.942852,232.52583 82.997014,236.29732 71.077316,246.79092 C 77.707473,242.42780 94.365556,234.75915 99.850931,232.77088 C 109.21347,230.09076 119.26355,233.17728 91.203840,243.28606 C 105.14017,244.63000 122.42849,233.30148 131.99378,221.37249 C 141.14171,210.33519 145.29445,195.98975 148.67157,182.56087 C 154.26494,161.69994 153.77810,147.36175 154.99639,138.18149 C 157.42046,128.73344 161.86112,113.43788 166.09468,102.12943 C 169.76952,89.802860 173.03641,76.957790 179.30799,65.555520 C 187.44487,52.159180 205.46673,39.454270 212.30894,40.589570 C 223.64112,43.744920 231.85927,45.042170 244.26609,44.156080 C 249.85695,43.894720 255.87639,41.305350 260.10391,41.258850 z "
     id="path952"
     sodipodi:nodetypes="cccccccccccccccccccccccccccccccc" />
  <path
     style="fill:#ffffff;fill-rule:evenodd;stroke:#000000;stroke-width:1.2500000;stroke-linejoin:round;"
     d="M 187.02767,124.63493 C 190.45868,123.26425 196.76207,122.33012 199.92216,122.67007 C 203.21890,123.17627 208.87861,124.93190 210.18080,126.47272 C 211.32362,127.72270 211.78937,128.41948 210.64836,128.84285 C 209.82505,129.04351 202.44898,130.84026 196.02892,131.41606 C 191.76441,131.51278 183.28109,131.22575 179.19116,129.26926 C 180.51516,127.86325 184.44047,125.90265 187.02767,124.63493 z "
     id="path834"
     sodipodi:nodetypes="ccccccc" />
  <path
     style="fill:#ffffff;fill-rule:evenodd;stroke:#000000;stroke-width:1.2500000;stroke-linejoin:round;"
     d="M 256.65059,127.00403 C 259.98154,126.21622 263.86109,123.61052 267.41884,122.56746 C 271.70831,122.23786 276.29513,122.31159 279.77813,123.55346 C 283.45130,125.24575 288.15606,127.81355 289.85516,129.27664 C 287.90322,130.18601 280.37606,130.89137 275.01077,131.02758 C 268.25572,130.89255 262.94337,130.18038 257.39207,129.26662 C 256.80965,128.62219 256.21056,127.69036 256.65059,127.00403 z "
     id="path840"
     sodipodi:nodetypes="ccccccc" />
  <path
     style="fill:#542b1c;fill-rule:evenodd;stroke:#000000;stroke-width:1.2500000;stroke-linejoin:round;"
     d="M 189.26493,124.01522 C 188.95240,124.64955 189.33399,129.04411 190.93066,130.16137 C 192.58422,131.40543 197.54647,131.28173 199.65438,129.58408 C 201.49326,128.01855 201.98984,124.71783 200.45477,123.16556 C 199.43730,122.59494 197.83228,122.53959 196.33760,122.61763 C 194.63080,122.63506 189.90091,123.36500 189.26493,124.01522 z "
     id="path846"
     sodipodi:nodetypes="cccccc" />
  <path
     style="fill:#542b1c;fill-rule:evenodd;stroke:#000000;stroke-width:1.2500000;stroke-linejoin:round;"
     d="M 267.75197,129.22848 C 270.41994,131.60694 275.13111,131.28638 277.47890,129.34650 C 280.07565,127.87651 278.28286,123.45415 277.35326,122.48261 C 276.50404,121.92880 268.22347,122.29996 267.05809,123.43525 C 266.07221,124.15131 266.63219,127.84722 267.75197,129.22848 z "
     id="path851"
     sodipodi:nodetypes="ccccc" />
  <path
     style="fill:#000000;fill-opacity:1.0000000;fill-rule:evenodd;stroke-width:1.0000000pt;"
     d="M 198.54947,125.57639 C 198.54947,126.86903 197.32610,127.91814 195.81872,127.91814 C 194.31135,127.91814 193.08797,126.86903 193.08797,125.57639 C 193.08797,124.28374 194.31135,123.23464 195.81872,123.23464 C 197.32610,123.23464 198.54947,124.28374 198.54947,125.57639 z "
     id="path854" />
  <path
     style="fill:#000000;fill-opacity:1.0000000;fill-rule:evenodd;stroke-width:1.0000000pt;"
     d="M 275.40053,125.10804 C 275.40053,126.40068 274.17716,127.44979 272.66978,127.44979 C 271.16241,127.44979 269.93904,126.40068 269.93904,125.10804 C 269.93904,123.81539 271.16241,122.76629 272.66978,122.76629 C 274.17716,122.76629 275.40053,123.81539 275.40053,125.10804 z "
     id="path853" />
  <path
     style="fill:#ffffff;fill-opacity:0.75000000;fill-rule:evenodd;stroke-width:1.0000000pt;"
     d="M 273.84010,124.68166 C 273.84010,125.48041 273.17599,126.12868 272.35770,126.12868 C 271.53941,126.12868 270.87529,125.48041 270.87529,124.68166 C 270.87529,123.88291 271.53941,123.23464 272.35770,123.23464 C 273.17599,123.23464 273.84010,123.88291 273.84010,124.68166 z "
     id="path856" />
  <path
     style="fill:#ffffff;fill-opacity:0.75000000;fill-rule:evenodd;stroke-width:1.0000000pt;"
     d="M 197.53519,125.10804 C 197.53519,125.92671 196.87108,126.59115 196.05279,126.59115 C 195.23450,126.59115 194.57038,125.92671 194.57038,125.10804 C 194.57038,124.28936 195.23450,123.62493 196.05279,123.62493 C 196.87108,123.62493 197.53519,124.28936 197.53519,125.10804 z "
     id="path857" />
  <path
     style="fill:#ffffff;fill-opacity:0.49999997;fill-rule:evenodd;stroke-width:1.0000000pt;"
     d="M 272.93994,129.18493 C 272.93994,129.94720 272.17096,130.56585 271.22346,130.56585 C 270.27597,130.56585 269.50699,129.94720 269.50699,129.18493 C 269.50699,128.42265 270.27597,127.80400 271.22346,127.80400 C 272.17096,127.80400 272.93994,128.42265 272.93994,129.18493 z "
     id="path858" />
  <path
     style="fill:#a3474a;fill-rule:evenodd;stroke:#000000;stroke-width:1.2500000;stroke-linejoin:round;"
     d="M 208.12360,204.30202 C 213.97140,203.95874 223.49273,202.09209 226.66696,203.27988 C 229.60912,204.43218 234.91133,205.77705 238.68194,205.61363 C 246.15092,205.31179 252.11590,205.28877 259.58536,205.52332 C 260.55628,208.82542 254.17481,214.13015 249.27876,215.27520 C 243.73606,216.78188 235.23455,215.83746 230.86550,215.72536 C 226.17702,215.41585 221.34221,213.85987 218.54443,212.30117 C 216.09394,211.18650 207.77769,206.76349 208.12360,204.30202 z "
     id="path863"
     sodipodi:nodetypes="cccccccc" />
  <path
     style="fill:#a3474a;fill-rule:evenodd;stroke:#000000;stroke-width:1.2500000;stroke-linejoin:round;"
     d="M 207.82865,204.38609 C 209.16123,202.36823 217.80425,199.83921 220.76721,199.04037 C 223.70481,198.58141 227.78538,200.07073 229.86034,200.62460 C 232.45327,201.45769 236.11854,202.22549 237.83831,201.81878 C 240.16297,201.36415 244.38411,200.06028 247.39631,200.63918 C 250.25263,201.19449 257.01502,204.20308 259.66967,205.34331 C 247.68416,204.82807 240.39931,205.53168 238.43413,205.82773 C 235.62466,205.80427 228.13217,204.23325 225.29407,203.02687 C 221.70008,202.24646 212.37923,204.34061 207.82865,204.38609 z "
     id="path867"
     sodipodi:nodetypes="ccccccccc" />
  <path
     style="fill:none;fill-opacity:0.75000000;fill-rule:evenodd;stroke:#000000;stroke-width:1.2500000;stroke-linejoin:round;stroke-opacity:0.49999997;"
     d="M 222.31048,175.99736 C 220.96882,175.59907 219.86084,174.35749 221.49702,173.52476 C 223.02786,172.70957 224.76192,172.42113 226.40975,173.11149 C 227.64715,173.69334 229.88072,175.52485 227.23494,175.85092 C 228.69170,175.18997 233.17651,179.61534 235.87150,179.44226 C 240.41958,178.75418 243.28079,175.63064 244.68178,175.63064 C 241.71857,176.24863 240.98812,174.60190 241.97602,173.61353 C 242.64271,172.78954 244.72711,172.33341 245.85956,172.21541 C 246.66328,172.21541 248.37518,171.81552 248.37518,173.06897 C 248.37518,174.23617 247.52438,175.11515 246.94817,175.11515"
     id="path931"
     sodipodi:nodetypes="cccccccccc" />
  <path
     style="fill:none;fill-opacity:0.75000000;fill-rule:evenodd;stroke:#000000;stroke-width:1.2500000;stroke-opacity:0.49999997;"
     d="M 250.49379,156.09831 C 250.45920,158.16679 251.95584,160.17890 252.89827,162.06485 C 254.01973,164.18432 256.25171,165.82225 256.80674,168.23133 C 257.14830,169.89742 257.80088,173.25690 256.50970,175.00185 C 255.46028,176.58388 252.05516,180.20844 248.94904,180.61991"
     id="path939"
     sodipodi:nodetypes="ccccc" />
  <path
     style="fill:none;fill-opacity:0.75000000;fill-rule:evenodd;stroke:#000000;stroke-width:1.2500000;stroke-linejoin:round;stroke-opacity:0.24999996;"
     d="M 259.35046,175.29158 C 260.59775,183.05265 270.11716,189.34400 274.10631,192.96893"
     id="path891"
     sodipodi:nodetypes="cc" />
  <path
     style="fill:none;fill-opacity:0.75000000;fill-rule:evenodd;stroke:#000000;stroke-width:1.2500000;stroke-linejoin:round;stroke-opacity:0.24999996;"
     d="M 208.34432,168.68289 C 205.51386,176.63448 200.08629,186.15922 192.67621,193.18972"
     id="path886"
     sodipodi:nodetypes="cc" />
  <path
     style="fill:none;fill-opacity:0.75000000;fill-rule:evenodd;stroke:#000000;stroke-width:1.2500000;stroke-opacity:0.49999997;"
     d="M 221.14364,153.00735 C 220.97331,155.34999 221.69839,158.01480 220.13978,160.03825 C 218.29581,161.79212 216.22018,161.52568 215.25322,162.89339 C 214.03602,164.47348 212.53694,167.00788 212.61625,169.00332 C 212.55889,171.01598 212.94165,173.39788 214.11378,174.64195 C 215.44489,176.36982 216.95614,179.08610 219.64413,179.07117"
     id="path935"
     sodipodi:nodetypes="cccccc" />
  <path
     style="fill:none;fill-opacity:0.75000000;fill-rule:evenodd;stroke:#000000;stroke-width:1.2500000;stroke-linejoin:round;stroke-opacity:0.24999996;"
     d="M 175.24265,145.72154 C 181.19776,145.25095 187.53892,148.70951 192.18837,148.58373 C 196.01046,148.65018 203.94839,146.14764 208.66192,143.44177 C 211.78750,141.79315 216.34300,137.87673 218.46595,133.94716"
     id="path895"
     sodipodi:nodetypes="cccc" />
  <path
     style="fill:none;fill-opacity:0.75000000;fill-rule:evenodd;stroke:#000000;stroke-width:1.2500000;stroke-linejoin:round;stroke-opacity:0.24999996;"
     d="M 250.05244,134.24087 C 252.90752,139.32555 262.37135,145.51243 265.33668,147.12151 C 270.17306,149.86867 282.45610,150.73546 285.94902,150.63789"
     id="path899"
     sodipodi:nodetypes="ccc" />
  <path
     style="fill:none;fill-opacity:0.75000000;fill-rule:evenodd;stroke:#000000;stroke-width:1.2500000;stroke-linejoin:round;stroke-opacity:0.24999996;"
     d="M 213.72827,121.31722 C 210.00803,115.66750 201.94195,116.17161 196.32695,115.97995 C 190.21396,116.28669 180.00763,118.52665 176.97852,124.74724"
     id="path912"
     sodipodi:nodetypes="ccc" />
  <path
     style="fill:none;fill-opacity:0.75000000;fill-rule:evenodd;stroke:#000000;stroke-width:1.2500000;stroke-linejoin:round;stroke-opacity:0.24999996;"
     d="M 258.65887,120.33159 C 262.78570,117.79105 269.25642,115.62864 274.19535,116.02238 C 280.68023,116.27532 289.32022,119.66983 289.77443,124.30568"
     id="path904"
     sodipodi:nodetypes="ccc" />
  <path
     style="fill:#3c272c;fill-rule:evenodd;stroke:#000000;stroke-width:1.2500000;stroke-linejoin:round;"
     d="M 251.09572,103.99570 C 253.31245,100.91245 260.91577,101.02192 264.51879,100.13871 C 271.36496,98.545370 277.51169,97.786030 284.44914,98.533720 C 288.48936,98.852800 294.62900,105.18663 296.84795,107.41961 C 300.45659,110.70551 303.90226,118.36841 302.13286,120.12927 C 301.18531,118.86434 290.84686,108.67471 285.92769,107.18910 C 279.17073,105.81338 268.69432,107.14743 262.78313,108.51908 C 259.24251,109.64820 253.46595,112.75448 250.88982,110.79360 C 249.65442,109.42029 249.65442,106.19300 251.09572,103.99570 z "
     id="path916"
     sodipodi:nodetypes="ccccccccc" />
  <path
     style="fill:#3c272c;fill-rule:evenodd;stroke:#000000;stroke-width:1.2500000;stroke-linejoin:round;"
     d="M 163.54673,120.55238 C 162.51143,119.89424 167.23246,109.33874 172.36466,104.76217 C 178.34434,99.950670 183.85557,99.183070 189.63711,99.727270 C 196.60965,100.60205 204.43979,100.76238 210.91380,103.79604 C 217.02367,106.59245 216.29439,113.85979 211.85512,111.62172 C 202.82938,108.11522 195.45937,108.43628 186.08782,107.58800 C 181.70061,107.33171 174.20596,111.19552 170.86521,114.35268 C 168.84098,116.47504 166.51880,121.81307 163.54673,120.55238 z "
     id="path920"
     sodipodi:nodetypes="cccccccc" />
  <path
     style="fill:#000000;fill-opacity:0.099999972;fill-rule:evenodd;stroke:none;stroke-width:1.0000000pt;stroke-linecap:butt;stroke-linejoin:miter;stroke-opacity:1.0000000;"
     d="M 305.43064,151.61439 C 301.99813,159.22270 295.42544,163.63791 292.84822,171.77557 C 289.60569,179.79750 288.43036,189.00389 283.55726,196.01676 C 280.01547,200.94410 280.85289,206.19971 272.12486,204.47030 C 263.46207,202.17682 263.28528,218.31499 255.48804,226.39368 C 249.86256,233.18224 238.33518,232.74968 239.96579,224.44305 C 241.51807,220.73844 254.09909,222.37649 249.49961,218.18197 C 246.22924,216.14108 224.66431,215.19530 219.28411,216.57415 C 209.67352,219.46002 223.81427,219.91245 225.32962,224.20461 C 228.45398,231.63378 216.77591,228.62921 212.28582,229.21066 C 205.92373,230.66701 206.01575,214.87435 202.68589,207.27914 C 200.20050,200.53898 188.85114,204.33981 183.90714,200.05222 C 177.30139,193.72234 182.35711,184.70188 177.75216,176.70462 C 174.87027,171.10628 167.13417,170.05485 163.53749,169.38679 C 160.99650,168.24874 154.80836,151.05480 155.13246,157.29091 C 154.82143,166.74308 155.17191,173.01208 158.20724,184.78411 C 160.49378,192.47247 161.33135,196.76604 164.22860,204.65423 C 167.39427,211.80226 170.52571,219.75255 174.52842,227.86258 C 176.72658,233.09874 177.98812,235.04389 183.43308,241.93377 C 188.10742,248.05548 190.33562,251.07564 199.19873,257.29814 C 205.81166,261.00820 218.68595,263.15271 225.81207,264.52098 C 239.43667,266.49800 246.93674,264.78832 256.06617,260.48881 C 263.99038,257.06015 270.38288,251.97207 276.02521,247.15336 C 283.36017,240.70171 288.07238,228.94336 291.69066,222.62805 C 294.75587,214.35504 297.48867,213.79426 299.66336,205.18732 C 302.06985,197.35916 304.44121,190.03040 306.42194,181.28436 C 307.67307,170.40361 308.82488,163.43353 309.91614,153.76433 C 310.39687,152.21700 307.36784,148.74028 305.43064,151.61439 z "
     id="path860"
     sodipodi:nodetypes="cccccccccccccccccccccccccccc" />
  <path
     style="fill:#000000;fill-opacity:0.099999972;fill-rule:evenodd;stroke:none;stroke-width:1.0000000pt;stroke-linecap:butt;stroke-linejoin:miter;stroke-opacity:1.0000000;"
     d="M 190.70089,200.68995 C 189.70576,195.89812 193.04457,191.98567 197.12385,190.50350 C 201.49243,187.75595 205.41612,186.70144 209.84876,185.53410 C 214.68985,184.73598 217.00770,181.25077 223.19122,180.52999 C 229.22971,180.09820 231.18845,182.81430 235.63487,183.47025 C 239.71460,183.16774 242.33910,178.77078 247.77498,181.76817 C 251.39137,184.62540 254.37824,185.92757 258.56639,187.89285 C 262.77255,189.86875 268.33336,191.14803 271.87355,194.26048 C 275.16020,196.66235 281.05824,204.25876 272.06680,203.75080 C 268.11385,203.93979 264.70056,202.25232 261.41773,200.32215 C 255.96579,197.71344 249.74777,198.17056 244.10558,196.20625 C 240.33549,194.99771 237.18809,195.98382 232.48610,195.84413 C 228.22547,196.39490 223.94705,195.71498 219.71354,195.24684 C 214.13451,196.50385 211.51094,196.65386 205.69683,198.63989 C 201.84160,201.05550 191.11787,204.77375 190.70089,200.68995 z "
     id="path869"
     sodipodi:nodetypes="ccccccccccccccc" />
  <path
     style="fill:#ffffff;fill-opacity:0.099999972;fill-rule:evenodd;stroke:none;stroke-width:1.0000000pt;stroke-linecap:butt;stroke-linejoin:miter;stroke-opacity:1.0000000;"
     d="M 218.34858,212.37488 C 220.10089,213.91761 226.88957,216.11257 232.17620,216.29349 C 236.76070,216.52325 241.41576,216.63139 245.96792,216.05731 C 248.47419,216.03145 254.23385,211.80732 248.71501,211.56053 C 244.97281,211.43973 239.36291,211.64616 236.04338,209.38074 C 233.65174,207.56156 229.14382,208.94453 225.14126,209.37420 C 222.26022,209.61777 215.23221,209.72743 218.34858,212.37488 z "
     id="path875"
     sodipodi:nodetypes="ccccccc" />
  <path
     style="fill:#ffffff;fill-opacity:0.049999956;fill-rule:evenodd;stroke:none;stroke-width:1.0000000pt;stroke-linecap:butt;stroke-linejoin:miter;stroke-opacity:1.0000000;"
     d="M 266.25860,98.503020 C 258.44658,100.22320 249.16375,98.859680 245.79457,107.38812 C 242.64318,114.66536 229.10707,115.80903 222.45244,109.57210 C 215.84413,104.01730 209.04372,101.18261 199.48858,100.17225 C 188.89724,99.054420 194.90288,89.883240 204.12222,90.327990 C 213.98722,90.221820 223.13484,93.936610 233.14335,94.470690 C 243.32060,94.367010 253.20982,91.599500 262.82159,88.527160 C 267.84734,86.819550 272.93492,98.005130 266.25860,98.503020 z "
     id="path883"
     sodipodi:nodetypes="cccccccc" />
  <path
     style="fill:#ffffff;fill-opacity:0.049999956;fill-rule:evenodd;stroke:none;stroke-width:1.0000000pt;stroke-linecap:butt;stroke-linejoin:miter;stroke-opacity:1.0000000;"
     d="M 174.24160,143.89915 C 180.71470,146.18027 191.20642,148.61264 196.22723,147.67954 C 203.48093,145.43536 205.35430,144.60287 211.20167,141.41930 C 215.06180,137.88097 217.69874,138.74852 217.92092,134.64858 C 218.57966,129.62005 213.61759,134.42983 211.00878,135.78669 C 204.87565,138.12997 184.34248,138.64430 179.91588,138.55953 C 176.71183,138.73967 171.24648,142.08910 174.24160,143.89915 z "
     id="path896"
     sodipodi:nodetypes="ccccccc" />
  <path
     style="fill:#ffffff;fill-opacity:0.049999956;fill-rule:evenodd;stroke:none;stroke-width:1.0000000pt;stroke-linecap:butt;stroke-linejoin:miter;stroke-opacity:1.0000000;"
     d="M 249.78162,132.74066 C 251.92208,131.97535 260.34297,134.61229 264.41851,139.97337 C 268.92543,144.29684 275.83767,140.71302 280.86494,142.94723 C 285.40684,144.41777 277.66990,145.65332 275.18395,147.79876 C 269.72906,151.10770 265.36474,147.42815 259.79368,143.82018 C 255.47764,140.26586 247.88992,134.34774 249.78162,132.74066 z "
     id="path903"
     sodipodi:nodetypes="cccccc" />
  <path
     style="fill:#ffffff;fill-opacity:0.75000000;fill-rule:evenodd;stroke:#000000;stroke-width:1.2500000;stroke-linejoin:round;"
     d="M 201.87158,42.708350 C 201.83217,41.450400 201.27225,39.607211 198.58649,39.416411 C 186.21414,43.203121 174.14408,62.361752 169.73765,71.125652 C 167.10547,78.462302 163.69921,85.207673 161.23883,92.827953 C 159.91197,98.601820 158.21606,102.47121 155.47401,110.10944 C 150.69308,120.39552 147.11185,129.37252 143.83775,141.49010 C 149.38191,133.76864 150.17415,129.03482 154.02374,123.00333 C 158.46798,115.46050 162.04260,104.40185 164.17454,97.981870 C 165.91040,88.830460 170.95120,79.911659 173.72163,72.224019 C 178.28069,62.671259 182.42553,58.092490 189.24478,50.816760 C 193.85168,47.177710 196.67156,45.184480 201.87158,42.708350 z "
     id="path908"
     sodipodi:nodetypes="ccccccccccc" />
  <path
     style="fill:url(#linearGradient864);fill-opacity:0.099999972;fill-rule:evenodd;stroke:none;stroke-width:1.0000000pt;stroke-linecap:butt;stroke-linejoin:miter;stroke-opacity:1.0000000;"
     d="M 159.03140,58.685910 C 161.23312,57.823280 154.34712,80.020570 174.11146,56.282530 C 179.16561,49.157860 166.89938,68.935500 167.67652,73.434760 C 167.21169,79.061150 170.68546,82.298890 167.47716,89.702780 C 164.79157,93.812440 167.86334,99.731270 162.68463,101.17030 C 156.71658,101.87665 159.92539,95.147240 158.15196,91.063780 C 156.76966,88.839030 158.89056,83.978470 152.51089,82.574710 C 147.01796,80.835930 149.98991,75.375820 151.73332,71.559970 C 153.31854,66.772630 155.07722,59.475000 159.03140,58.685910 z "
     id="path923"
     sodipodi:nodetypes="ccccccccc" />
  <path
     style="fill:#3c272c;fill-rule:evenodd;stroke:#000000;stroke-width:1.2500000;stroke-linejoin:round;"
     d="M 262.51216,125.04076 C 265.41847,124.39405 267.53418,122.74901 270.73617,122.82242 C 274.43857,122.77481 279.64313,123.44658 282.59603,125.32170 C 285.33082,127.41013 286.70639,128.25420 289.71123,129.50296 C 290.92038,129.65347 290.15054,130.24859 289.66343,128.82153 C 286.80637,127.03793 286.72006,125.75365 283.17618,124.10581 C 279.95899,122.91369 278.66293,121.97422 274.95525,121.88542 C 271.91838,121.61057 265.74285,122.12757 262.51216,125.04076 z "
     id="path938"
     sodipodi:nodetypes="cccccccc" />
  <path
     style="fill:#3c272c;fill-rule:evenodd;stroke:#000000;stroke-width:1.2500000;stroke-linejoin:round;"
     d="M 204.86026,123.28655 C 201.40027,123.36378 197.49972,122.41199 194.05798,122.69205 C 191.61395,123.34390 188.89737,124.29760 186.50643,124.93555 C 184.39220,125.70181 182.92019,126.05864 181.84089,128.01603 C 180.62373,128.97830 179.41938,130.94025 177.72259,130.55615 C 176.98351,129.44166 178.97533,128.68619 179.81130,128.01816 C 181.10631,126.96144 182.05454,125.47445 184.27171,124.47521 C 186.72631,123.71882 191.30082,121.75290 193.65618,121.74530 C 195.77675,121.38531 197.15700,121.61057 199.08022,121.84985 C 201.83007,122.08027 204.31177,123.41807 204.86026,123.28655 z "
     id="path933"
     sodipodi:nodetypes="cccccccccc" />
  <path
     style="fill:#ffffff;fill-opacity:0.49999997;fill-rule:evenodd;stroke-width:1.0000000pt;"
     d="M 195.80061,129.28517 C 195.80061,130.04744 195.03163,130.66609 194.08414,130.66609 C 193.13665,130.66609 192.36767,130.04744 192.36767,129.28517 C 192.36767,128.52290 193.13665,127.90424 194.08414,127.90424 C 195.03163,127.90424 195.80061,128.52290 195.80061,129.28517 z "
     id="path872" />
  <path
     style="fill:none;fill-opacity:0.75000000;fill-rule:evenodd;stroke:#000000;stroke-width:1.2500000;stroke-linejoin:round;"
     d="M 103.32824,224.16561 C 114.46621,222.66488 123.19715,215.27195 129.16615,206.19124 C 136.99923,194.04372 145.19068,181.18266 147.43370,166.77103"
     id="path978"
     sodipodi:nodetypes="ccc" />
  <path
     style="fill:none;fill-opacity:0.75000000;fill-rule:evenodd;stroke:#000000;stroke-width:1.2500000;stroke-linejoin:round;"
     d="M 156.93555,120.97608 C 154.31019,130.28019 145.47409,140.42568 141.88282,148.83726 C 135.56466,163.45421 134.85153,178.24121 128.22069,194.17405 C 122.14459,207.09326 114.22159,213.76201 101.59729,217.77869"
     id="path973"
     sodipodi:nodetypes="cccc" />
  <path
     style="fill:none;fill-opacity:0.75000000;fill-rule:evenodd;stroke:#000000;stroke-width:1.2500000;stroke-linejoin:round;"
     d="M 92.468475,258.22045 C 101.52804,254.61342 112.91756,248.14885 119.37783,242.87256 C 129.97299,234.59493 136.16897,225.33482 142.01591,214.74034 C 145.56871,208.54945 148.34430,201.96630 151.42770,195.54167"
     id="path982"
     sodipodi:nodetypes="cccc" />
  <path
     style="fill:none;fill-opacity:0.75000000;fill-rule:evenodd;stroke:#000000;stroke-width:1.2500000;stroke-linejoin:round;"
     d="M 55.963786,319.02635 C 61.021296,315.13736 62.949160,309.55410 67.409890,303.52887 C 75.921928,292.83295 80.456119,279.19375 93.426058,272.52560 C 103.20041,268.58806 111.49691,263.07999 119.89481,257.21939 C 127.17341,252.33279 135.01519,246.97204 137.32992,237.94866 C 138.49753,231.38066 138.58511,225.85889 139.95594,219.93066"
     id="path984"
     sodipodi:nodetypes="cccccc" />
  <path
     style="fill:none;fill-opacity:0.75000000;fill-rule:evenodd;stroke:#000000;stroke-width:1.2500000;stroke-linejoin:round;"
     d="M 83.194262,344.57836 C 111.26340,331.95128 111.88835,305.44595 115.75324,284.72262 C 120.19422,265.06314 139.21982,258.15560 148.36475,243.15943 C 155.23730,230.24413 147.16946,212.32522 162.54095,205.58420"
     id="path993"
     sodipodi:nodetypes="cccc" />
  <path
     style="fill:none;fill-opacity:0.75000000;fill-rule:evenodd;stroke:#000000;stroke-width:1.2500000;stroke-linejoin:round;"
     d="M 156.50809,247.29401 C 155.79605,241.57176 155.57398,235.45860 158.66551,230.19352 C 162.17781,225.56244 168.24362,215.72369 168.63531,215.26806"
     id="path1000"
     sodipodi:nodetypes="ccc" />
  <path
     style="fill:none;fill-opacity:0.75000000;fill-rule:evenodd;stroke:#000000;stroke-width:1.2500000;stroke-linejoin:round;"
     d="M 129.88072,147.30499 C 136.73929,129.25332 141.14884,107.62993 146.67713,89.097080 C 151.46352,75.233700 158.16841,62.098200 167.52866,51.097380 C 180.86086,36.293340 195.24786,25.619400 213.94773,24.822100 C 222.53308,24.685500 240.79355,28.710120 242.05146,35.213520"
     id="path968"
     sodipodi:nodetypes="ccccc" />
  <path
     style="fill:none;fill-opacity:0.75000000;fill-rule:evenodd;stroke:#000000;stroke-width:1.2500000;stroke-linejoin:round;"
     d="M 242.84099,20.158190 C 241.33307,13.242270 213.99120,8.5411300 200.95804,14.600930 C 188.34966,21.416790 168.95088,37.847190 172.32812,46.334350"
     id="path965"
     sodipodi:nodetypes="ccc" />
  <path
     style="fill:none;fill-opacity:0.75000000;fill-rule:evenodd;stroke:#000000;stroke-width:1.2500000;stroke-linejoin:round;"
     d="M 246.04020,21.424240 C 247.83132,11.520450 263.32460,11.031900 270.96784,15.010440 C 280.83314,20.104230 298.32497,37.591110 301.22131,40.375970"
     id="path959"
     sodipodi:nodetypes="ccc" />
  <path
     style="fill:none;fill-opacity:0.75000000;fill-rule:evenodd;stroke:#000000;stroke-width:1.2500000;stroke-linejoin:round;"
     d="M 271.57176,39.963980 C 285.65725,34.906190 295.53770,42.671350 305.46219,57.642180 C 314.12421,74.298920 313.77793,88.186640 316.13459,104.02829 C 318.69702,114.37064 322.72582,131.13692 320.63900,142.45730"
     id="path949"
     sodipodi:nodetypes="cccc" />
  <path
     style="fill:none;fill-opacity:0.75000000;fill-rule:evenodd;stroke:#000000;stroke-width:1.2500000;stroke-linejoin:round;"
     d="M 315.63427,156.97031 C 316.25054,166.10874 318.70707,175.05088 320.64970,183.98831 C 322.73303,194.47582 324.87216,202.28872 332.51805,217.53345"
     id="path943"
     sodipodi:nodetypes="ccc" />
  <path
     style="fill:none;fill-opacity:0.75000000;fill-rule:evenodd;stroke:#000000;stroke-width:1.2500000;stroke-linejoin:round;"
     d="M 311.92807,173.86207 C 311.75752,188.56539 320.03785,199.03714 322.29742,211.43075 C 325.20978,225.44948 320.86953,238.29284 324.65128,253.84635 C 328.61791,268.37709 334.42987,274.52533 336.35408,289.85064 C 336.95754,301.47730 333.03984,319.00836 325.51746,337.01175"
     id="path911"
     sodipodi:nodetypes="ccccc" />
  <path
     style="fill:none;fill-opacity:0.75000000;fill-rule:evenodd;stroke:#000000;stroke-width:1.2500000;stroke-linejoin:round;"
     d="M 315.57116,192.71856 C 312.95007,201.34904 312.27164,210.76550 311.74353,218.67226 C 311.47114,225.84237 308.94997,233.27275 311.51629,240.19312 C 314.21637,246.86596 315.07971,254.23242 316.40366,261.13216 C 318.95718,275.36941 317.03494,287.44497 312.68470,304.65683 C 311.36031,311.86711 306.56964,326.00752 304.68568,334.80641 C 304.06579,338.67649 299.84448,346.08184 290.51553,354.21926"
     id="path900"
     sodipodi:nodetypes="ccccccc" />
  <path
     style="fill:none;fill-opacity:0.75000000;fill-rule:evenodd;stroke:#000000;stroke-width:1.2500000;stroke-linejoin:round;"
     d="M 294.18865,296.06596 C 301.39467,288.77303 305.89507,279.14344 308.27473,268.64693 C 310.22434,261.01319 313.20204,254.57358 311.53724,242.80253"
     id="path924"
     sodipodi:nodetypes="ccc" />
  <path
     style="fill:none;fill-opacity:0.75000000;fill-rule:evenodd;stroke:#000000;stroke-width:1.2500000;stroke-linejoin:round;"
     d="M 297.10331,231.95324 C 297.56863,223.58689 300.23721,216.91953 305.78365,208.48716 C 308.28682,204.86288 311.97937,202.15099 313.98708,198.16972"
     id="path937"
     sodipodi:nodetypes="ccc" />
  <path
     style="fill:none;fill-opacity:0.75000000;fill-rule:evenodd;stroke:#000000;stroke-width:1.2500000;stroke-linejoin:round;"
     d="M 288.04372,376.56319 C 300.71359,362.72987 304.20505,354.81036 311.70822,343.61243 C 316.27684,336.52668 318.29888,329.40461 320.98943,321.56656 C 323.58668,313.08881 327.36238,305.71943 327.60994,296.95984 C 327.58816,290.37107 327.81696,283.74852 325.82970,277.37187 C 323.85586,269.54030 321.16799,261.63402 324.28207,253.37694"
     id="path906"
     sodipodi:nodetypes="cccccc" />
  <path
     style="fill:none;fill-opacity:0.75000000;fill-rule:evenodd;stroke:#000000;stroke-width:1.2500000;stroke-linejoin:round;"
     d="M 276.63958,336.02835 C 287.63862,336.85388 288.30914,324.31269 296.86837,321.52350 C 306.85932,318.56842 309.74739,308.05784 313.76465,299.55135"
     id="path918"
     sodipodi:nodetypes="ccc" />
  <path
     style="fill:none;fill-opacity:0.75000000;fill-rule:evenodd;stroke:#000000;stroke-width:1.2500000;stroke-linejoin:round;"
     d="M 332.10626,236.07319 C 337.66637,245.70467 342.55944,254.21865 345.31581,266.60215 C 347.43971,278.49582 350.68635,288.14070 341.51451,312.83140"
     id="path929"
     sodipodi:nodetypes="ccc" />
  <path
     style="fill:none;fill-opacity:0.75000000;fill-rule:evenodd;stroke:#000000;stroke-width:0.49945493pt;"
     d="M 129.62630,294.29160 C 126.28944,289.86082 125.51709,286.08971 124.22579,282.62133 C 122.58112,277.62019 126.04546,266.19432 127.09138,265.12620"
     id="path1006"
     sodipodi:nodetypes="ccc" />
  <path
     style="fill:url(#linearGradient1075);fill-opacity:0.099999972;fill-rule:evenodd;stroke:none;stroke-width:1.0000000pt;stroke-linecap:butt;stroke-linejoin:miter;stroke-opacity:1.0000000;"
     d="M 143.36611,155.74871 C 142.11535,165.43495 149.16802,167.13689 148.72644,183.27323 C 147.46469,193.95998 142.15491,202.72023 138.38219,213.06125 C 134.55620,222.76156 124.88508,228.32919 120.84073,238.01320 C 113.01468,245.51935 107.22847,254.54359 111.21540,265.77409 C 111.16245,278.94714 100.08122,285.53701 89.163734,289.32683 C 77.178298,292.26098 67.210501,303.44011 58.054455,319.77040 C 63.155949,311.61924 61.831877,306.59409 49.266754,316.14084 C 53.490769,310.46906 67.251144,289.26780 71.628107,282.74982 C 79.164841,272.13923 99.009608,263.22304 93.595758,255.56416 C 85.355277,261.27685 82.274309,257.45903 70.525320,259.26695 C 80.392484,255.45717 95.747211,247.14254 104.66154,241.58394 C 112.23359,237.37808 121.01467,224.94816 97.465119,230.76694 C 104.24841,227.23016 122.57292,215.25972 91.581763,224.88975 C 105.12701,219.35727 116.56223,207.38868 121.81980,199.60142 C 127.84599,190.14074 130.85547,184.92379 135.83563,174.64010 C 138.18991,168.28131 141.87098,162.41831 143.36611,155.74871 z "
     id="path1010"
     sodipodi:nodetypes="ccccccccccccccccc" />
  <path
     style="fill:url(#linearGradient1076);fill-opacity:0.099999972;fill-rule:evenodd;stroke:none;stroke-width:1.0000000pt;stroke-linecap:butt;stroke-linejoin:miter;stroke-opacity:1.0000000;"
     d="M 143.00714,215.72227 C 139.03396,219.59081 139.96494,226.18026 142.87349,230.38475 C 145.70125,233.88177 143.50348,239.66582 145.23633,243.76163 C 147.42280,248.12819 143.11566,254.62000 129.69442,265.88421 C 141.79743,255.88164 144.30280,256.86853 142.40325,267.14913 C 146.13757,257.25047 152.78017,251.71429 154.53750,249.05204 C 156.74661,246.27607 154.56840,232.72945 155.07283,227.86765 C 155.64997,222.49831 155.68636,217.05919 155.00934,211.69718 C 151.80637,213.03494 152.46853,221.07922 148.58329,225.33030 C 143.23726,225.49354 144.73816,217.06288 143.00714,215.72227 z "
     id="path1021"
     sodipodi:nodetypes="cccccccccc" />
  <path
     style="fill:url(#linearGradient1077);fill-opacity:0.099999972;fill-rule:evenodd;stroke:none;stroke-width:1.0000000pt;stroke-linecap:butt;stroke-linejoin:miter;stroke-opacity:1.0000000;"
     d="M 81.606051,351.35783 C 86.374374,347.20191 86.519781,343.24551 92.013504,338.35441 C 97.144605,333.26266 95.286243,320.57738 102.50413,317.09427 C 103.17297,326.63597 105.50036,327.07141 109.74632,323.48996 C 107.80540,327.97584 104.09926,328.92508 104.26812,334.17428 C 104.02586,338.80311 101.45094,343.34572 96.141432,348.46165 C 92.819364,351.45810 87.937647,351.52419 81.606051,351.35783 z "
     id="path1042"
     sodipodi:nodetypes="ccccccc" />
  <path
     style="fill:url(#linearGradient1082);fill-opacity:0.099999972;fill-rule:evenodd;stroke:none;stroke-width:1.0000000pt;stroke-linecap:butt;stroke-linejoin:miter;stroke-opacity:1.0000000;"
     d="M 242.99074,22.304300 C 241.03870,15.317990 222.74559,9.5018400 209.68182,12.262280 C 222.60852,23.403720 207.12599,24.692120 190.53995,33.074720 C 200.18850,30.402890 207.66106,30.527480 206.98604,38.163550 C 216.18792,32.728260 220.24507,38.843870 228.42569,40.907060 C 223.98069,32.374920 228.72211,23.593770 242.99074,22.304300 z "
     id="path1050"
     sodipodi:nodetypes="cccccc" />
  <path
     style="fill:url(#linearGradient1081);fill-opacity:0.099999972;fill-rule:evenodd;stroke:none;stroke-width:1.0000000pt;stroke-linecap:butt;stroke-linejoin:miter;stroke-opacity:1.0000000;"
     d="M 293.30527,56.083980 C 290.42097,51.771230 286.14471,46.604590 283.23253,42.488600 C 288.33465,44.853330 304.08604,64.873750 306.68679,53.834550 C 312.43396,49.743460 312.54171,63.165460 315.90860,66.713510 C 319.55358,76.124170 320.37560,84.921590 321.68860,96.336630 C 323.12302,107.30744 325.10261,123.01181 324.24202,128.75256 C 321.94061,124.06216 321.76767,120.92881 321.22071,116.68981 C 320.86539,108.78512 319.39573,101.02086 317.49925,93.388870 C 316.12413,85.708360 315.70341,75.206660 311.78088,70.633430 C 306.18073,65.422780 304.38982,66.731270 307.10287,73.556830 C 308.05344,77.791610 307.78889,89.517030 308.45293,97.434510 C 306.15397,88.503110 302.32234,76.367150 300.60046,69.129180 C 299.31984,65.142970 295.84426,59.813620 293.30527,56.083980 z "
     id="path1055"
     sodipodi:nodetypes="ccccccccccccc" />
  <path
     style="fill:url(#linearGradient1080);fill-opacity:0.099999972;fill-rule:evenodd;stroke:none;stroke-width:1.0000000pt;stroke-linecap:butt;stroke-linejoin:miter;stroke-opacity:1.0000000;"
     d="M 325.25058,147.32576 C 323.97890,152.76724 321.09211,157.79966 319.06915,162.85727 C 316.90466,168.67786 315.14047,173.15205 314.97829,178.68726 C 315.34899,185.19394 316.76641,190.41611 318.35783,196.07019 C 320.65869,202.84723 324.49575,216.13959 326.59898,221.22719 C 325.83054,209.12681 331.74241,222.47064 332.62626,223.67471 C 329.52190,215.97670 331.00671,213.62927 333.66724,217.12275 C 333.54362,211.03455 333.37834,207.49684 333.50019,202.27112 C 332.81209,195.81969 331.79774,189.73652 330.14137,183.10768 C 327.31594,172.57906 325.76064,148.61649 325.25058,147.32576 z "
     id="path1060"
     sodipodi:nodetypes="cccccccccc" />
  <path
     style="fill:url(#linearGradient1078);fill-opacity:0.099999972;fill-rule:evenodd;stroke:none;stroke-width:1.0000000pt;stroke-linecap:butt;stroke-linejoin:miter;stroke-opacity:1.0000000;"
     d="M 285.14020,320.36024 C 283.16260,325.87866 277.96667,332.04407 267.58942,333.28909 C 281.51794,334.30056 282.53037,336.48562 274.53965,345.00203 C 284.17531,340.30365 290.97896,336.64939 294.06669,338.37100 C 299.57005,346.75758 278.94483,358.31756 272.17186,362.06885 C 280.76353,362.66005 285.92131,360.91572 289.93110,352.33910 C 291.07209,357.00941 292.38918,355.06822 290.20998,362.99307 C 289.05186,368.76345 284.88606,371.92165 277.53488,381.30352 C 293.15990,372.61848 301.09843,366.58276 313.39791,352.18314 C 309.02212,353.50062 301.94360,355.09710 305.86968,344.10831 C 309.48877,334.13163 314.00108,324.04854 312.09937,313.13901 C 312.13624,307.49131 309.74763,298.49146 308.89776,308.87529 C 305.74219,316.33464 301.91248,335.54573 290.73996,326.65505 C 287.37961,327.30587 286.02291,331.84092 285.14020,320.36024 z "
     id="path1074"
     sodipodi:nodetypes="cccccccccccccc" />
  <metadata
     id="metadata84">
    <rdf:RDF
       id="RDF85">
      <cc:Work
         rdf:about=""
         id="Work86">
        <dc:format
           id="format87">image/svg+xml</dc:format>
        <dc:type
           id="type89"
           rdf:resource="http://purl.org/dc/dcmitype/StillImage" />
      </cc:Work>
    </rdf:RDF>
  </metadata>
</svg>
