<?xml version="1.0" encoding="UTF-8" standalone="no"?>
<!-- Created with Inkscape (http://www.inkscape.org/) -->
<svg
   xmlns:dc="http://purl.org/dc/elements/1.1/"
   xmlns:cc="http://web.resource.org/cc/"
   xmlns:rdf="http://www.w3.org/1999/02/22-rdf-syntax-ns#"
   xmlns:svg="http://www.w3.org/2000/svg"
   xmlns="http://www.w3.org/2000/svg"
   xmlns:xlink="http://www.w3.org/1999/xlink"
   xmlns:sodipodi="http://sodipodi.sourceforge.net/DTD/sodipodi-0.dtd"
   xmlns:inkscape="http://www.inkscape.org/namespaces/inkscape"
   width="128"
   height="128"
   id="svg2"
   sodipodi:version="0.32"
   inkscape:version="0.45.1"
   version="1.0"
   sodipodi:docbase="/home/nicu/Desktop"
   sodipodi:docname="dface.svg"
   inkscape:output_extension="org.inkscape.output.svg.inkscape">
  <defs
     id="defs4">
    <linearGradient
       id="linearGradient2267">
      <stop
         style="stop-color:#6185a5;stop-opacity:1;"
         offset="0"
         id="stop2269" />
      <stop
         style="stop-color:#b8c8d6;stop-opacity:1;"
         offset="1"
         id="stop2271" />
    </linearGradient>
    <linearGradient
       id="linearGradient2255">
      <stop
         style="stop-color:#1f1d0e;stop-opacity:1;"
         offset="0"
         id="stop2257" />
      <stop
         style="stop-color:#3b371a;stop-opacity:1;"
         offset="1"
         id="stop2259" />
    </linearGradient>
    <linearGradient
       id="linearGradient2247">
      <stop
         style="stop-color:#eec5ad;stop-opacity:1;"
         offset="0"
         id="stop2249" />
      <stop
         style="stop-color:#f4d8c8;stop-opacity:1;"
         offset="1"
         id="stop2251" />
    </linearGradient>
    <filter
       inkscape:collect="always"
       x="-0.31514267"
       width="1.6302853"
       y="-0.077961561"
       height="1.1559231"
       id="filter8510">
      <feGaussianBlur
         inkscape:collect="always"
         stdDeviation="0.80621086"
         id="feGaussianBlur8512" />
    </filter>
    <filter
       inkscape:collect="always"
       x="-0.073902421"
       width="1.1478048"
       y="-0.58591273"
       height="2.1718255"
       id="filter8642">
      <feGaussianBlur
         inkscape:collect="always"
         stdDeviation="0.49601077"
         id="feGaussianBlur8644" />
    </filter>
    <filter
       inkscape:collect="always"
       x="-0.4276922"
       width="1.8553844"
       y="-0.086393735"
       height="1.1727875"
       id="filter8766">
      <feGaussianBlur
         inkscape:collect="always"
         stdDeviation="2.8518201"
         id="feGaussianBlur8768" />
    </filter>
    <filter
       inkscape:collect="always"
       x="-0.21128625"
       width="1.4225725"
       y="-0.10191042"
       height="1.2038208"
       id="filter8818">
      <feGaussianBlur
         inkscape:collect="always"
         stdDeviation="0.76253732"
         id="feGaussianBlur8820" />
    </filter>
    <filter
       inkscape:collect="always"
       x="-0.16736858"
       width="1.3347372"
       y="-0.4087947"
       height="1.8175894"
       id="filter8866">
      <feGaussianBlur
         inkscape:collect="always"
         stdDeviation="1.1126474"
         id="feGaussianBlur8868" />
    </filter>
    <filter
       inkscape:collect="always"
       x="-0.047629362"
       width="1.0952587"
       y="-0.14744201"
       height="1.294884"
       id="filter8890">
      <feGaussianBlur
         inkscape:collect="always"
         stdDeviation="0.33076397"
         id="feGaussianBlur8892" />
    </filter>
    <filter
       inkscape:collect="always"
       x="-0.15252756"
       width="1.3050551"
       y="-0.10588949"
       height="1.211779"
       id="filter8910">
      <feGaussianBlur
         inkscape:collect="always"
         stdDeviation="1.1590992"
         id="feGaussianBlur8912" />
    </filter>
    <filter
       inkscape:collect="always"
       x="-0.21880511"
       width="1.4376102"
       y="-0.21869492"
       height="1.4373898"
       id="filter8950">
      <feGaussianBlur
         inkscape:collect="always"
         stdDeviation="1.762167"
         id="feGaussianBlur8952" />
    </filter>
    <filter
       inkscape:collect="always"
       x="-0.42798913"
       width="1.8559783"
       y="-0.44744319"
       height="1.8948864"
       id="filter9036">
      <feGaussianBlur
         inkscape:collect="always"
         stdDeviation="0.48595469"
         id="feGaussianBlur9038" />
    </filter>
    <filter
       inkscape:collect="always"
       x="-0.29979196"
       width="1.5995839"
       y="-0.30020833"
       height="1.6004167"
       id="filter10055">
      <feGaussianBlur
         inkscape:collect="always"
         stdDeviation="3.4628494"
         id="feGaussianBlur10057" />
    </filter>
    <filter
       inkscape:collect="always"
       x="-0.28866038"
       width="1.5773208"
       y="-0.26257411"
       height="1.5251482"
       id="filter10083">
      <feGaussianBlur
         inkscape:collect="always"
         stdDeviation="1.1456521"
         id="feGaussianBlur10085" />
    </filter>
    <filter
       inkscape:collect="always"
       x="-0.25078242"
       width="1.5015648"
       y="-0.43725605"
       height="1.8745121"
       id="filter10099">
      <feGaussianBlur
         inkscape:collect="always"
         stdDeviation="2.130957"
         id="feGaussianBlur10101" />
    </filter>
    <filter
       inkscape:collect="always"
       id="filter3264">
      <feGaussianBlur
         inkscape:collect="always"
         stdDeviation="1.8602734"
         id="feGaussianBlur3266" />
    </filter>
    <linearGradient
       inkscape:collect="always"
       xlink:href="#linearGradient2247"
       id="linearGradient2253"
       x1="85.333336"
       y1="100.82539"
       x2="35.047619"
       y2="33.523811"
       gradientUnits="userSpaceOnUse" />
    <linearGradient
       inkscape:collect="always"
       xlink:href="#linearGradient2255"
       id="linearGradient2261"
       x1="54.444443"
       y1="70.078362"
       x2="45.30159"
       y2="65.211174"
       gradientUnits="userSpaceOnUse" />
    <linearGradient
       inkscape:collect="always"
       xlink:href="#linearGradient2267"
       id="linearGradient2273"
       x1="49.094997"
       y1="71.016228"
       x2="52.871536"
       y2="74.192955"
       gradientUnits="userSpaceOnUse" />
    <linearGradient
       inkscape:collect="always"
       xlink:href="#linearGradient2267"
       id="linearGradient2275"
       x1="75.986603"
       y1="65.042686"
       x2="80.643341"
       y2="68.147842"
       gradientUnits="userSpaceOnUse" />
    <filter
       inkscape:collect="always"
       x="-0.037342436"
       width="1.0746849"
       y="-0.11394231"
       height="1.2278846"
       id="filter3285">
      <feGaussianBlur
         inkscape:collect="always"
         stdDeviation="0.22115073"
         id="feGaussianBlur3287" />
    </filter>
    <filter
       inkscape:collect="always"
       x="-0.035142327"
       width="1.0702847"
       y="-0.14084821"
       height="1.2816964"
       id="filter4264">
      <feGaussianBlur
         inkscape:collect="always"
         stdDeviation="0.22080082"
         id="feGaussianBlur4266" />
    </filter>
    <linearGradient
       inkscape:collect="always"
       xlink:href="#linearGradient2255"
       id="linearGradient4274"
       gradientUnits="userSpaceOnUse"
       x1="75.318832"
       y1="7.8730154"
       x2="63.30159"
       y2="22.349207" />
    <linearGradient
       inkscape:collect="always"
       xlink:href="#linearGradient2255"
       id="linearGradient4276"
       gradientUnits="userSpaceOnUse"
       x1="30.666662"
       y1="18.53968"
       x2="61.968254"
       y2="25.015873" />
    <linearGradient
       inkscape:collect="always"
       xlink:href="#linearGradient2255"
       id="linearGradient4278"
       gradientUnits="userSpaceOnUse"
       x1="86.666664"
       y1="63.449436"
       x2="81.936508"
       y2="57.865612" />
    <filter
       inkscape:collect="always"
       x="-0.37469246"
       width="1.7493849"
       y="-0.35148142"
       height="1.7029628"
       id="filter5307">
      <feGaussianBlur
         inkscape:collect="always"
         stdDeviation="0.15937844"
         id="feGaussianBlur5309" />
    </filter>
    <filter
       inkscape:collect="always"
       id="filter6306">
      <feGaussianBlur
         inkscape:collect="always"
         stdDeviation="0.3871953"
         id="feGaussianBlur6308" />
    </filter>
    <filter
       inkscape:collect="always"
       id="filter7309">
      <feGaussianBlur
         inkscape:collect="always"
         stdDeviation="0.15057367"
         id="feGaussianBlur7311" />
    </filter>
  </defs>
  <sodipodi:namedview
     id="base"
     pagecolor="#ffffff"
     bordercolor="#666666"
     borderopacity="1.0"
     gridtolerance="10000"
     guidetolerance="10"
     objecttolerance="10"
     inkscape:pageopacity="0.0"
     inkscape:pageshadow="2"
     inkscape:zoom="4.5"
     inkscape:cx="64"
     inkscape:cy="64"
     inkscape:document-units="px"
     inkscape:current-layer="layer1"
     width="128px"
     height="128px"
     inkscape:window-width="1152"
     inkscape:window-height="791"
     inkscape:window-x="0"
     inkscape:window-y="24"
     showguides="true"
     inkscape:guide-bbox="true" />
  <metadata
     id="metadata7">
    <rdf:RDF>
      <cc:Work
         rdf:about="">
        <dc:format>image/svg+xml</dc:format>
        <dc:type
           rdf:resource="http://purl.org/dc/dcmitype/StillImage" />
      </cc:Work>
    </rdf:RDF>
  </metadata>
  <g
     inkscape:label="Layer 1"
     inkscape:groupmode="layer"
     id="layer1">
    <path
       style="fill:#000000;fill-opacity:0.81052631;fill-rule:evenodd;stroke:none;stroke-width:1px;stroke-linecap:butt;stroke-linejoin:miter;stroke-opacity:1;filter:url(#filter3264)"
       d="M 57.426091,3.5352183 C 56.427882,3.5910734 55.367759,3.9681627 54.769841,4.5039683 C 54.875624,4.9006503 55.072588,5.3015119 55.301091,5.7227183 L 55.207341,5.7539683 C 54.48976,5.0612057 53.669695,4.5334576 52.894841,3.7539683 C 45.860575,4.3527562 39.665023,7.7918503 33.551091,11.066468 C 27.917493,15.776534 24.393158,21.167193 22.363591,27.847718 C 22.283885,27.995303 22.193661,28.137849 22.113591,28.285218 L 22.113591,28.628968 C 21.832772,29.624255 21.581992,30.637577 21.363591,31.691468 C 20.148889,41.528288 22.135905,54.838952 21.051091,62.378968 C 19.890125,63.442442 20.013937,64.771164 20.457341,66.097718 C 19.56334,69.127087 18.198013,71.933599 16.144841,73.347718 L 15.644841,73.628968 C 17.277986,75.921914 20.584405,78.719324 23.394841,79.628968 C 23.294901,81.70753 23.66851,83.935338 23.801091,86.066468 L 23.801091,86.535218 C 22.615772,87.650553 21.686603,88.933749 20.113591,89.816468 C 21.108019,90.421098 22.765206,92.368324 23.957341,93.097718 C 21.28255,95.872294 18.036942,98.263984 15.051091,101.69147 L 12.613591,107.22272 C 17.130009,106.1106 18.991947,108.49059 20.582341,112.41022 C 20.628018,112.85726 20.750717,113.34825 20.894841,113.87897 C 28.568182,111.71006 34.297229,113.57659 36.394841,117.37897 L 36.426091,117.44147 C 38.282075,115.15129 41.908242,113.7156 44.957341,114.41022 C 44.607717,113.90379 44.828964,113.5334 44.863591,113.00397 C 45.253508,111.67872 46.204072,110.31191 46.519841,109.00397 C 47.658816,110.33165 48.789765,111.73206 49.863591,113.28522 C 52.1721,116.04217 54.620537,118.29944 58.082341,119.44147 C 62.772058,120.74124 67.928255,121.88857 72.832341,121.66022 C 75.306596,121.45354 78.483917,120.68261 80.582341,119.19147 C 83.746485,116.25931 86.082889,111.66316 88.738591,108.03522 C 91.513319,103.84229 93.585986,99.526884 95.269841,94.660218 C 95.500452,94.078728 95.728785,93.499307 95.926091,92.910218 C 96.407368,92.372492 96.897762,91.279377 97.332341,90.410218 C 98.255687,88.563518 98.551091,86.141402 98.551091,84.097718 C 98.551091,80.722479 98.618618,76.930326 97.801091,73.660218 C 96.744686,69.434614 97.801091,63.621121 97.801091,59.347718 C 97.801088,58.457921 97.801091,57.581265 97.801091,56.691468 C 97.801088,53.937892 98.449333,51.042443 97.582341,48.441468 C 96.824336,46.167454 97.463112,43.828011 96.363591,41.628968 C 95.604685,40.111159 95.093579,38.476608 94.551091,36.847718 C 93.724301,33.662373 92.796295,30.488708 91.707341,27.378968 C 88.897709,20.006496 83.833301,13.166615 77.519841,8.5352183 C 71.676037,5.4679446 65.0411,3.4404191 58.394841,3.5977183 C 58.097163,3.5467859 57.758827,3.5165999 57.426091,3.5352183 z M 56.363591,4.9414683 C 56.393818,4.9418676 56.427037,4.9410482 56.457341,4.9414683 L 56.426091,5.1914683 C 56.405315,5.1066179 56.382791,5.026971 56.363591,4.9414683 z M 50.926091,113.03522 L 53.051091,115.25397 C 52.266286,114.58972 51.563551,113.82664 50.926091,113.03522 z "
       id="path2203" />
    <path
       style="fill:url(#linearGradient2253);fill-opacity:1.0;fill-rule:evenodd;stroke:none;stroke-width:1px;stroke-linecap:butt;stroke-linejoin:miter;stroke-opacity:1"
       d="M 55.28774,4.9844716 L 28.593834,14.934018 L 20.585662,61.284347 L 19.614975,63.711067 L 20.100319,68.07916 L 29.218569,88.852643 L 38.30071,100.83986 L 45.823537,108.84803 L 54.547688,117.83893 C 59.775164,119.76468 65.002641,120.71826 70.230117,121.10898 L 79.081621,119.06433 L 84.675113,110.55878 C 88.451193,105.09685 92.215817,99.241839 94.531212,91.781085 C 96.129,86.519183 95.787106,81.579869 95.965374,76.317967 L 94.357913,60.799003 L 89.261804,33.377082 L 76.157522,13.235316 L 55.28774,4.9844716 z "
       id="path3589"
       sodipodi:nodetypes="cccccccccccccccccc" />
    <path
       style="fill:url(#linearGradient4276);fill-opacity:1.0;fill-rule:evenodd;stroke:none;stroke-width:1px;stroke-linecap:butt;stroke-linejoin:miter;stroke-opacity:1"
       d="M 55.058814,5.9689042 L 57.477475,12.508248 L 50.669392,4.2668832 C 47.040548,4.8106451 43.271941,5.650055 38.785105,7.9098052 L 29.28962,13.971389 C 25.853701,18.288354 23.452828,23.225096 20.839235,28.035456 L 20.182315,48.190967 L 20.540635,61.657835 C 19.127512,62.976864 19.280363,64.66851 19.405954,65.987537 C 19.485295,66.820822 19.29528,67.722216 19.137214,68.555498 L 15.016532,73.661561 L 19.853855,78.021124 L 22.541256,78.767624 L 22.541256,86.292348 L 19.495534,89.72625 L 23.496777,92.353931 L 17.435193,98.176635 L 13.792271,101.58068 L 12.09025,106.17912 L 16.449813,106.65688 C 18.060689,108.73822 19.311105,110.94796 19.883715,113.37538 L 25.198798,111.91224 L 31.977021,113.70384 L 35.291483,116.77942 C 37.643118,114.71741 39.88272,113.31752 43.144667,113.7337 L 45.055708,108.03044 L 38.068465,100.83418 L 33.917922,89.42765 L 32.542301,85.8918 C 31.421868,86.461076 30.160746,85.632873 29.335971,85.018675 L 27.913998,84.417351 C 27.342341,83.658836 27.703142,82.900321 27.856339,82.141806 L 25.437678,74.885822 L 19.794135,66.674317 C 18.789888,64.183295 20.211943,62.225083 21.197555,61.060634 C 24.942413,62.553986 25.002219,66.293977 26.900819,68.794379 C 27.324742,69.855519 27.79679,70.892349 28.90144,71.27276 L 31.260381,64.195936 C 31.741476,59.569083 30.305492,55.808695 29.31948,51.833889 L 26.900819,44.786925 L 28.84172,40.158623 L 40.487126,36.545561 L 56.014334,33.141519 L 63.777939,30.215237 C 63.043288,24.391111 60.443751,18.571253 58.432996,12.747128 L 65.71884,29.020837 L 55.058814,5.9689042 z "
       id="path2287"
       sodipodi:nodetypes="ccccccccscccccccccccccccccccccccccccccccccccccc" />
    <path
       style="fill:url(#linearGradient4278);fill-opacity:1.0;fill-rule:evenodd;stroke:none;stroke-width:1px;stroke-linecap:butt;stroke-linejoin:miter;stroke-opacity:1"
       d="M 85.03827,57.865613 L 81.395348,58.462813 L 75.542785,60.941194 L 71.899863,63.329996 L 73.273424,63.449436 L 78.200327,61.866855 L 83.78415,60.433574 L 89.218673,60.015534 L 89.039512,59.328753 L 85.03827,57.865613 z "
       id="path2285" />
    <path
       style="fill:url(#linearGradient2261);fill-opacity:1.0;fill-rule:evenodd;stroke:none;stroke-width:1px;stroke-linecap:butt;stroke-linejoin:miter;stroke-opacity:1"
       d="M 51.415892,65.211177 L 42.248867,66.136837 L 36.933784,70.078359 L 47.11605,68.107598 L 53.774833,67.510398 L 57.895515,66.943058 C 55.798813,65.569687 53.584574,65.792787 51.415892,65.211177 z "
       id="path3586" />
    <path
       style="fill:#d76962;fill-opacity:1;fill-rule:evenodd;stroke:none;stroke-width:1px;stroke-linecap:butt;stroke-linejoin:miter;stroke-opacity:1"
       d="M 50.233477,98.332241 L 55.441158,98.841686 L 64.611202,98.898291 L 66.875411,98.049206 L 69.762278,98.841686 L 72.705748,97.709576 L 77.573797,96.407659 L 85.838159,91.992453 L 83.630555,95.785002 L 78.536086,102.97386 L 73.951064,106.42678 L 70.498145,107.55889 L 64.554597,107.44568 L 56.629867,104.10597 L 50.742925,99.634157 L 50.063661,98.615266 L 50.233477,98.332241 z "
       id="path5533" />
    <path
       style="fill:#590000;fill-opacity:1;fill-rule:evenodd;stroke:none;stroke-width:1px;stroke-linecap:butt;stroke-linejoin:miter;stroke-opacity:1"
       d="M 51.365773,98.828051 L 55.729741,99.775803 L 68.327637,100.05166 L 77.891004,97.476916 L 84.971573,92.787184 L 79.998595,98.955584 L 73.477142,104.09771 L 65.936796,105.47704 L 58.948182,103.12871 L 51.365773,98.828051 z "
       id="path4560"
       sodipodi:nodetypes="cccccccccc" />
    <path
       style="fill:#ffffff;fill-rule:evenodd;stroke:none;stroke-width:1px;stroke-linecap:butt;stroke-linejoin:miter;stroke-opacity:1"
       d="M 82.171709,64.166076 L 77.065646,64.673696 L 74.109504,65.957677 C 73.173589,67.024615 72.386317,68.121281 72.019303,69.301999 L 74.109504,69.899199 L 78.051026,69.899199 L 81.484928,68.913819 L 84.94869,67.808998 L 87.098611,66.136837 L 85.934071,65.061876 L 82.171709,64.166076 z "
       id="path2281" />
    <path
       style="fill:#ffffff;fill-rule:evenodd;stroke:none;stroke-width:1px;stroke-linecap:butt;stroke-linejoin:miter;stroke-opacity:1"
       d="M 52.520713,69.391579 L 47.38479,70.078359 L 43.443268,72.646321 L 43.652288,73.333101 L 47.08619,75.005262 L 51.236732,75.423302 L 53.207493,74.736522 L 55.775454,73.333101 L 57.656635,70.76514 L 52.520713,69.391579 z "
       id="path2279" />
    <path
       style="fill:#ffffff;fill-rule:evenodd;stroke:none;stroke-width:1px;stroke-linecap:butt;stroke-linejoin:miter;stroke-opacity:1"
       d="M 80.917588,95.787833 L 76.617746,98.057195 L 70.108262,100.02796 L 60.582917,100.20712 L 56.641395,99.699495 L 56.790695,101.96886 L 58.044816,102.56606 L 61.568297,104.38752 L 63.031438,102.92438 L 63.986959,105.13402 L 64.942479,105.58192 L 65.92786,103.76046 L 67.152121,105.64164 L 69.809662,105.28332 L 70.675602,103.37228 L 72.586643,104.56668 L 74.467825,103.432 L 74.736565,101.67026 L 76.229565,102.41676 L 76.946206,101.90914 L 77.334386,100.20712 L 78.021166,100.92376 L 79.275287,99.908516 L 80.917588,97.878034 L 80.917588,95.787833 z "
       id="path5531" />
    <path
       style="fill:url(#linearGradient2275);fill-opacity:1;fill-rule:evenodd;stroke:none;stroke-width:1px;stroke-linecap:butt;stroke-linejoin:miter;stroke-opacity:1"
       d="M 81.813389,64.076496 L 77.722566,64.554256 L 75.841385,64.972296 L 75.483065,67.092358 L 76.020545,68.327566 L 77.632986,69.869339 L 80.437336,69.171611 L 81.849123,67.394741 L 82.111989,65.181317 L 81.813389,64.076496 z "
       id="path2265" />
    <path
       id="path3289"
       d="M 72.019303,69.301999 L 74.109504,69.899199 L 78.051026,69.899199 L 81.484928,68.913819 L 84.94869,67.808998 L 87.098611,66.136837 C 82.354023,67.330559 76.656655,69.94657 72.019303,69.301999 z "
       style="fill:#000000;fill-rule:evenodd;stroke:none;stroke-width:1px;stroke-linecap:butt;stroke-linejoin:miter;stroke-opacity:1;fill-opacity:0.22751322;filter:url(#filter4264)"
       sodipodi:nodetypes="ccccccc" />
    <path
       style="fill:url(#linearGradient2273);fill-opacity:1.0;fill-rule:evenodd;stroke:none;stroke-width:1px;stroke-linecap:butt;stroke-linejoin:miter;stroke-opacity:1"
       d="M 53.237353,69.451299 L 48.13129,69.869339 L 47.38479,72.825481 L 48.54933,75.094842 L 51.386032,75.333722 L 52.670013,74.945542 L 53.625533,73.094221 L 53.744973,70.376959 L 53.237353,69.451299 z "
       id="path6509" />
    <path
       style="fill:#e6e6e6;fill-rule:evenodd;stroke:none;stroke-width:1px;stroke-linecap:butt;stroke-linejoin:miter;stroke-opacity:1"
       d="M 29.062673,81.221015 L 30.583658,82.181638 L 30.343503,84.583193 L 29.382881,85.143556 L 27.701791,84.182934 L 27.701791,82.982157 C 28.056382,82.308453 28.555331,81.761062 29.062673,81.221015 z "
       id="path7495"
       sodipodi:nodetypes="ccccccc" />
    <path
       id="path2289"
       d="M 43.443268,72.646321 L 43.652288,73.333101 L 47.08619,75.005262 L 51.236732,75.423302 L 53.207493,74.736522 L 55.775454,73.333101 L 57.656635,70.76514 C 49.765218,76.620583 47.389248,73.331997 43.443268,72.646321 z "
       style="fill:#020000;fill-rule:evenodd;stroke:none;stroke-width:1px;stroke-linecap:butt;stroke-linejoin:miter;stroke-opacity:1;fill-opacity:0.16931216;filter:url(#filter3285)"
       sodipodi:nodetypes="cccccccc" />
    <path
       id="path4272"
       d="M 55.297694,3.759263 L 55.058814,5.9689042 L 58.432996,12.747128 L 62.434238,18.868431 L 65.71884,29.020837 L 84.65009,31.917258 L 89.009652,38.964222 L 90.472793,51.565149 C 91.721316,54.689166 92.337065,58.108361 94.683056,60.762034 L 95.578856,52.31165 L 95.071236,45.025806 L 89.756153,26.094555 L 82.470309,14.449149 L 72.288043,6.6855446 L 55.297694,3.759263 z "
       style="fill:url(#linearGradient4274);fill-opacity:1.0;fill-rule:evenodd;stroke:none;stroke-width:1px;stroke-linecap:butt;stroke-linejoin:miter;stroke-opacity:1"
       sodipodi:nodetypes="ccccccccccccccc" />
    <path
       style="fill:#000000;fill-opacity:1;stroke:none;stroke-width:1;stroke-miterlimit:4;stroke-dasharray:none;stroke-opacity:1"
       d="M 57.119155,3.3412227 C 55.928444,3.1374931 54.298194,3.5226157 53.50097,4.2370232 C 53.842821,5.5189591 55.045836,6.9432739 55.685874,8.4174255 C 54.854307,5.6646987 53.17462,5.0495013 51.624912,3.4905228 C 44.590646,4.0893108 38.389553,7.531609 32.275621,10.806227 C 25.597296,16.389754 21.856758,22.927221 20.092735,31.439498 C 18.878033,41.276319 20.878949,54.595579 19.794135,62.135595 C 18.633168,63.199067 18.75353,64.511683 19.196934,65.838237 C 18.302933,68.867603 16.920404,71.680102 14.867232,73.094221 L 14.359612,73.362961 C 15.992757,75.655907 19.31278,78.45518 22.123216,79.364824 C 22.016875,81.576524 22.468857,83.982481 22.571116,86.232628 C 21.362394,87.358716 20.432979,88.652388 18.838614,89.54709 C 19.833042,90.151719 21.498421,92.102298 22.690556,92.831692 C 20.015765,95.606272 16.778122,98.003896 13.792271,101.43138 L 11.34375,106.95548 C 15.860168,105.84336 17.72598,108.23149 19.316374,112.15112 C 19.362051,112.59816 19.470851,113.08354 19.614975,113.61426 C 27.288316,111.44535 33.014711,113.33536 35.112323,117.13774 L 35.142183,117.19747 C 36.998165,114.90729 40.633049,113.45712 43.682148,114.15174 C 43.332524,113.64531 43.557941,113.27775 43.592568,112.74832 C 43.982484,111.42307 44.9191,110.05502 45.234869,108.74708 C 46.373842,110.07476 47.505364,111.4639 48.57919,113.01706 C 50.887698,115.77401 53.358751,118.05606 56.820555,119.19809 C 61.510274,120.49786 66.667317,121.63608 71.571403,121.40773 C 74.045659,121.20105 77.206723,120.42049 79.305147,118.92935 C 82.469289,115.99719 84.80123,111.4195 87.456932,107.79156 C 90.23166,103.59863 92.31242,99.280939 93.996275,94.414273 C 95.967636,89.443463 96.715307,84.183785 96.355216,78.827344 C 96.357671,72.441508 95.291088,67.372568 94.892076,61.060634 L 95.190676,60.791894 C 95.665455,55.852065 96.412036,50.488884 95.369836,45.593146 C 94.079376,39.35412 92.55078,33.159061 90.442933,27.139656 C 87.6333,19.767184 82.572886,12.899522 76.259426,8.2681254 C 70.415618,5.2008518 63.765414,3.1839235 57.119155,3.3412227 z M 55.109287,4.6808007 C 58.536888,4.7260849 62.467478,4.9033171 65.71884,5.610584 C 64.827639,10.395983 65.44337,15.488068 65.5994,20.301712 L 66.43548,20.331572 C 65.832265,15.83716 66.332494,10.476321 66.91324,5.8793241 C 69.689823,6.5784655 72.379139,7.590897 74.975445,9.0444859 C 76.509244,10.147196 77.993811,11.403534 79.394727,12.747128 C 77.133231,17.268675 72.254363,22.152652 68.913861,25.676515 L 70.227702,25.139035 C 74.132952,21.736115 78.028337,18.458266 80.589128,13.941529 C 83.815514,17.282365 86.561083,21.155119 88.531892,25.228615 C 86.186289,26.53862 84.350213,27.547467 81.723808,28.483356 C 82.189932,28.375365 82.067424,28.755652 82.530029,28.632657 C 84.256975,28.143421 87.274488,27.118343 88.920072,26.034835 C 91.577547,32.506269 93.377725,39.450355 94.892076,46.250066 C 95.580913,50.529292 95.202959,55.313244 94.563616,59.746794 C 89.665874,53.71991 91.500425,44.920881 89.009652,37.799682 C 88.100808,35.587829 86.987775,33.511262 85.06813,32.006838 C 79.925499,29.929138 72.268956,29.450385 66.1966,28.035456 C 64.22943,24.218148 63.616748,19.27163 61.299557,15.643549 C 58.852651,12.204713 56.041336,8.8314194 55.109287,4.6808007 z M 50.878412,4.8640836 C 56.5795,12.349964 61.633316,19.345686 63.240458,29.229857 C 61.237443,28.716946 59.181365,27.850569 57.865655,26.273715 C 53.045478,21.494436 49.198292,16.249808 44.130048,11.731887 L 43.592568,11.911047 C 48.658694,16.446704 52.309914,22.228219 57.149015,26.990356 C 58.545436,28.335874 60.008164,29.482464 61.807178,30.006217 C 59.129241,31.388018 56.56186,32.364182 53.804693,33.022079 C 48.46253,27.260716 39.734415,22.10718 32.544362,19.196891 L 32.245761,19.614932 C 39.319381,22.211981 46.96401,27.320434 51.863792,33.410259 C 50.947874,33.572662 50.011924,33.727924 49.027091,33.828299 C 46.037736,34.610707 43.17866,35.100194 40.337826,35.858781 C 35.624495,34.119464 30.716433,32.429537 25.646698,32.454739 L 25.079358,32.813059 C 29.935544,32.792945 34.070969,34.71145 38.546225,36.366401 C 37.445007,36.716352 36.329271,37.118033 35.231763,37.620521 C 30.951962,38.674503 26.647031,38.813702 23.586357,42.816164 L 23.914817,42.875884 C 25.121725,41.868813 26.525107,41.120588 28.005639,40.546803 C 26.987737,42.04095 26.361033,44.078108 26.661938,45.264686 C 27.361254,47.813134 28.612401,51.60416 29.3792,54.133111 C 31.341273,60.281713 31.505733,64.907006 28.75214,70.70542 C 25.605265,68.971927 25.232339,61.206153 22.003776,60.762034 L 21.944056,60.791894 C 21.667651,50.830923 19.171994,40.847329 21.376715,30.842298 C 23.88349,23.087137 25.786701,16.345087 32.962402,11.851327 C 37.602489,8.1864172 44.843862,5.3004665 50.878412,4.8640836 z M 59.239216,14.688029 C 59.638756,15.234296 60.032382,15.745237 60.463477,16.24075 C 62.418123,19.982789 63.748436,26.031066 65.7487,29.737477 C 71.624766,30.518418 78.566193,31.117183 84.29177,32.723479 C 86.138221,33.787126 87.554053,36.297735 88.382592,38.456602 C 90.785997,45.819237 88.453128,54.700336 94.175435,60.612734 C 94.702505,67.001909 95.601762,73.330126 95.578856,79.753005 C 95.583149,85.082682 95.270748,90.217822 93.040755,95.160773 C 90.864991,99.756722 89.135964,104.22552 85.874351,108.14988 C 83.65946,111.43816 81.606791,114.41356 79.603747,117.82453 C 77.96034,119.42932 74.217564,120.22989 71.004063,120.66123 C 66.746001,120.65208 62.426537,120.10908 58.373276,118.83977 C 55.020272,117.48761 51.609263,115.41379 49.385411,112.47958 C 45.68428,107.92836 42.259888,104.21877 38.068465,100.08768 C 35.885204,95.997333 34.521313,89.929809 32.872822,85.605568 L 32.126321,85.814588 C 32.135024,85.834028 32.147502,85.85478 32.156181,85.874308 C 31.188808,85.940679 30.322441,85.841619 29.8271,85.038227 C 29.99056,84.996477 30.153297,84.917788 30.30486,84.799347 C 31.570955,83.244303 31.210168,81.585274 29.14032,80.887685 C 28.818467,80.912243 28.407077,81.064953 27.945919,81.574466 C 27.68831,80.761877 27.429287,80.194717 27.348719,79.245384 C 26.718899,76.605989 25.523236,74.447933 24.004397,72.25814 C 23.010098,70.43621 21.625923,68.943575 20.570495,67.152078 C 19.41375,65.080258 19.480033,62.126597 21.316995,61.538395 C 24.294896,62.20273 25.125946,70.381578 28.453539,71.30262 L 29.02088,71.57136 C 32.40473,65.342943 32.473279,58.630378 29.73752,51.893609 C 28.879248,49.403076 28.575959,47.130516 27.916059,44.577905 C 27.751992,43.33294 28.371752,41.483576 29.11046,40.188483 C 31.264349,39.476757 33.531646,38.995085 35.619943,38.516322 C 40.290825,36.207112 45.01767,35.550034 50.102051,34.45536 C 54.948156,33.22817 59.623777,33.023888 64.703599,30.394398 C 63.152354,25.39551 61.678377,19.930664 59.239216,14.688029 z M 83.81401,57.656592 C 82.932337,57.700951 82.074028,57.857179 81.365488,58.164213 C 79.053418,59.517549 76.431443,60.171835 74.079644,61.389094 C 71.158721,63.421079 72.081853,63.235338 71.690843,63.807756 C 75.338846,63.41973 78.681674,61.72439 82.261289,60.971054 C 84.807299,60.246021 88.483911,60.794702 89.606853,60.284274 C 89.396613,58.491018 86.459028,57.523517 83.81401,57.656592 z M 83.72443,58.223933 C 85.795623,58.214949 88.053714,58.871393 88.621472,59.776654 C 86.152867,60.037681 83.966347,60.007182 81.693948,60.403714 C 78.528004,61.219997 75.515151,63.001504 72.258183,63.389716 C 72.864699,62.532055 73.777473,62.257586 74.617125,61.657835 C 77.159803,60.993055 79.389436,59.533424 81.783529,58.462813 C 82.362099,58.292843 83.034032,58.226927 83.72443,58.223933 z M 80.260668,64.007801 C 75.687455,64.141426 72.76597,65.779519 71.631123,69.570739 C 73.00822,70.068171 75.13839,70.02141 76.796906,70.048499 C 77.929304,70.145176 79.005366,69.882257 80.081508,69.570739 C 82.657588,68.659923 85.601194,68.299039 87.486792,66.226417 C 85.830264,63.872671 82.861435,63.854814 80.260668,64.007801 z M 79.782907,64.434816 C 80.460904,64.41934 81.13645,64.439477 81.813389,64.464676 C 81.947317,67.092003 81.015187,69.380006 78.140607,69.600599 C 76.489168,68.695582 74.989733,67.354356 76.050405,65.121597 C 77.188229,64.656488 78.443421,64.429735 79.782907,64.434816 z M 82.082129,64.524396 C 84.261072,64.749436 86.788561,65.504416 86.680571,66.136837 C 85.477689,67.611892 81.783061,68.748575 81.037028,68.883959 C 82.241853,68.058541 82.764821,66.21 82.082129,64.524396 z M 78.976687,64.763276 C 78.660857,64.79015 78.300582,64.942029 77.901726,65.241037 C 77.855882,66.042885 77.565158,66.662273 78.678087,66.972918 C 79.337427,66.680766 79.93656,66.556576 80.230808,65.808377 C 79.930755,65.040862 79.503071,64.718487 78.976687,64.763276 z M 22.421816,64.942436 C 21.774234,65.00139 21.429389,65.508365 21.555876,66.465297 C 21.980279,68.297884 22.795942,69.701026 24.213417,70.9443 C 24.753032,71.651535 25.380498,72.674447 25.706418,73.512261 L 26.124458,73.273381 C 25.724259,72.571719 25.165389,71.201082 24.631457,70.58598 C 23.395422,69.261678 22.409626,68.355099 22.302376,66.375717 C 22.171964,65.949415 21.83401,65.949603 23.138456,65.629217 C 23.180669,65.413584 23.234829,65.112388 23.168316,65.032016 C 22.895152,64.951469 22.637677,64.922785 22.421816,64.942436 z M 49.594431,65.151457 C 44.75541,65.292703 41.415828,65.908314 37.590704,68.943679 L 36.635184,70.436679 C 40.118661,69.355256 43.725226,68.786736 47.32507,68.286758 C 49.455869,67.708534 51.681145,67.840934 53.864413,67.719418 C 55.47836,67.631698 56.993037,67.149306 58.582296,66.972918 C 56.75665,65.369393 52.324397,65.485207 49.594431,65.151457 z M 75.572645,65.330617 C 75.155592,67.220652 75.375754,69.121402 77.155226,69.720039 C 75.436895,69.599743 73.745836,69.748371 72.079023,69.272139 C 72.814774,67.324629 74.062598,66.077561 75.572645,65.330617 z M 49.027091,65.569497 C 51.560797,65.944106 54.118332,66.04311 56.641395,66.495157 C 56.881924,66.509294 57.019621,66.793757 57.208735,66.943058 C 56.27399,67.069225 55.247313,66.969887 54.312314,67.092358 C 51.732985,66.98598 49.315142,67.608145 46.787589,68.018018 C 43.441554,68.358673 41.483505,68.753641 38.307345,69.421439 C 41.174357,66.727899 45.031573,65.689985 49.027091,65.569497 z M 19.913575,67.659698 C 20.902471,69.452878 22.453083,71.002773 23.377337,72.825481 C 24.701582,75.046556 26.431921,76.85955 26.811238,79.543984 C 26.939066,80.589551 27.266281,81.37045 27.647319,82.350826 C 26.850214,84.213268 27.797496,84.743497 29.28962,85.097947 C 29.935624,85.86745 30.513029,86.875506 32.305481,86.232628 C 34.10382,90.444816 35.399605,96.470906 37.620564,100.38628 C 39.858724,102.9571 42.062727,105.1508 44.159908,107.49296 C 44.164897,107.49853 44.15492,107.51725 44.159908,107.52282 C 44.101316,109.2543 43.185073,111.41532 43.055087,113.19622 C 40.243695,113.12807 37.814852,113.80952 35.948403,115.73432 C 36.363496,109.0276 33.694089,102.64601 31.140941,96.564194 L 30.961781,96.832934 C 33.530075,102.84856 35.431553,109.20196 35.112323,115.8239 C 30.493839,111.85902 25.111843,110.00827 20.052968,113.24464 C 19.680424,110.68726 20.17178,108.9492 21.645456,106.77632 C 22.216394,105.25036 23.28737,103.63603 23.795377,102.0883 C 25.482993,97.921558 28.733046,94.381204 28.543119,89.60681 L 28.334099,89.69639 C 28.219751,94.434277 24.6626,98.292033 22.780136,102.44662 C 22.254195,103.98892 21.312082,105.77576 20.689935,107.28394 C 20.012298,108.54244 19.543923,109.52842 19.376094,110.62826 C 18.301241,107.21368 16.25729,104.51399 12.538151,106.14926 C 13.016406,104.31998 13.655614,102.56166 14.747792,100.98348 C 18.790873,97.013374 23.766877,93.769092 26.303618,88.531849 C 25.690773,88.634119 25.464168,89.368176 25.139078,89.87555 C 25.050397,88.106507 25.094604,84.489059 26.124458,82.559846 L 25.616838,82.529986 C 24.690084,84.824616 24.54165,88.826432 24.661317,90.56233 C 24.383453,90.932689 23.802374,91.514533 23.502776,91.864869 C 22.500978,91.411953 21.128941,90.339818 20.003155,89.63667 C 21.073351,88.879664 21.728106,87.791888 22.720416,86.859688 C 23.753789,84.096324 23.108386,81.436762 23.019016,78.588464 C 23.421754,77.063438 23.042644,76.058494 23.257897,74.497642 L 22.959296,74.467782 C 22.825168,75.862153 22.436835,77.212663 22.182936,78.588464 C 19.615994,77.665657 17.195924,75.639557 15.643592,73.333101 C 17.401634,71.759341 19.723352,69.665858 19.913575,67.659698 z M 69.272182,68.077738 C 68.23446,73.326769 68.116588,77.686546 70.615882,82.828586 L 70.824903,82.619566 C 69.659404,77.74267 68.254439,77.134423 69.600642,68.077738 L 69.272182,68.077738 z M 87.725672,68.824239 C 86.017323,70.562906 83.655668,71.477806 80.439828,72.07898 C 77.993939,72.209112 75.171294,72.150623 72.765804,71.72066 L 72.497063,71.92968 C 74.916116,72.308142 77.35332,72.887499 79.812767,72.735901 C 82.755386,72.109965 85.846912,71.166943 87.904832,68.824239 L 87.725672,68.824239 z M 51.266592,69.212419 C 50.952539,69.23155 50.644993,69.278552 50.340931,69.331859 C 46.987048,69.899404 43.533116,70.662482 41.323206,73.900441 C 41.392399,73.973084 41.50481,74.049632 41.621807,74.079601 C 40.096634,74.74657 38.521809,75.352113 36.844204,75.423302 L 36.366444,75.781622 C 38.77583,76.173977 40.300897,74.926455 42.159287,74.079601 L 42.099567,74.049741 C 42.42447,73.974756 42.813801,73.794034 43.323827,73.392821 C 43.334904,73.384241 43.342629,73.371544 43.353688,73.362961 C 44.963358,74.752458 47.102955,75.241268 49.206251,75.393442 C 50.474698,75.498855 51.667232,75.514533 52.879033,75.035122 C 54.928059,74.028298 56.818411,73.02725 57.686495,70.76514 L 57.805935,70.73528 C 56.148571,69.871677 54.147553,69.274765 52.222112,69.212419 C 51.901206,69.202028 51.580645,69.193287 51.266592,69.212419 z M 50.908272,69.779759 C 51.665424,69.763591 52.418686,69.813928 53.177633,69.899199 C 54.283355,71.897768 53.366211,73.451393 52.132532,74.945542 C 51.970025,74.993128 51.814491,75.023305 51.654772,75.064982 C 50.793115,75.176678 49.939231,75.161377 49.056951,75.005262 C 48.948749,74.977335 48.837475,74.944105 48.72849,74.915682 C 47.236349,73.681966 47.687809,71.83025 48.37017,70.227659 C 49.120334,69.984995 49.950891,69.815495 50.908272,69.779759 z M 53.774833,69.988779 C 54.900677,70.1561 56.015364,70.424332 57.029575,70.82486 L 57.149015,70.82486 C 56.164763,72.62174 54.838401,74.15666 52.849173,74.796242 C 54.163388,73.573405 54.208918,71.710413 53.774833,69.988779 z M 50.669392,70.138079 C 50.323271,70.121914 49.975862,70.235448 49.564571,70.406819 C 49.187075,70.85587 49.258249,71.704597 49.206251,72.25814 C 49.637792,72.991704 50.105227,72.794696 50.878412,72.676181 C 51.824902,72.206808 51.716495,71.467712 51.744352,70.58598 C 51.350175,70.288669 51.015512,70.154245 50.669392,70.138079 z M 47.74311,70.436679 C 46.985118,72.248622 46.76665,73.547963 48.34031,74.826102 C 46.748435,74.403305 45.117122,73.880971 43.652288,73.153941 C 44.961969,72.124584 46.17721,71.076831 47.74311,70.436679 z M 36.247004,72.526881 L 35.739383,72.855341 C 37.185653,74.020003 38.117804,74.877679 41.173906,73.751141 L 41.293346,73.661561 C 39.511495,73.677762 37.679251,73.791991 36.247004,72.526881 z M 60.075297,73.094221 C 59.042859,74.393431 57.962821,75.743294 56.103914,76.498263 C 53.210211,77.620151 50.578618,77.994718 47.50423,78.469024 L 47.59381,78.588464 C 50.936222,78.264908 53.504137,77.726878 56.880275,76.856583 C 58.480825,76.09974 59.330882,74.615134 60.314177,73.153941 L 60.075297,73.094221 z M 26.811238,73.870581 L 26.243898,74.169181 C 25.991484,76.224913 27.981308,77.332653 28.84172,78.319724 L 28.87158,77.483643 C 27.519728,76.634278 26.973966,75.348836 26.811238,73.870581 z M 43.921028,77.513503 C 41.798942,77.613117 39.870747,78.358059 38.307345,80.051605 L 37.650424,80.559225 C 40.237611,79.098421 42.79108,77.507806 45.891789,77.961404 L 46.100809,77.632943 C 45.359473,77.535567 44.62839,77.480299 43.921028,77.513503 z M 29.31948,81.514745 C 30.350909,82.310612 30.776777,83.045735 30.06598,84.321587 C 29.982342,84.73864 29.541762,84.624021 29.28962,84.769487 C 27.931532,84.225723 27.630572,84.180703 27.945919,82.709146 C 28.204174,82.028118 28.780555,81.547408 29.31948,81.514745 z M 74.408104,83.037606 L 74.228944,83.216766 C 75.662457,83.862362 76.847743,84.86073 77.035786,86.531228 C 77.086025,87.92554 76.673911,89.554076 75.930965,90.53247 C 75.963841,90.431873 75.979228,90.338868 75.930965,90.26373 C 75.155549,90.278963 74.477853,90.77303 73.810904,91.129671 C 72.381809,92.007368 71.911639,94.08832 69.421482,94.205252 C 67.843978,94.010223 66.399895,93.372164 65.121639,92.473371 C 64.682469,92.164572 63.568283,92.175267 63.031438,92.025471 C 62.556138,91.84092 61.606584,91.84906 62.344658,92.533092 C 62.940831,93.385596 63.958961,92.991921 64.852899,92.951132 C 66.439263,93.191943 67.905467,95.00304 69.570782,94.951753 C 71.770306,94.652081 72.359444,92.252196 73.900484,91.547711 C 74.489141,91.27861 75.142497,91.208678 75.751805,90.920651 C 75.76667,90.891121 75.790151,90.839674 75.811525,90.801211 C 77.443714,89.521618 77.657257,87.966267 77.453826,85.934028 C 76.942158,84.471433 76.151359,83.425748 74.408104,83.037606 z M 60.194737,83.694527 C 58.787781,85.260798 56.927276,86.577407 55.387274,88.382549 C 54.124986,89.462603 53.794509,91.471757 52.311692,93.100432 L 52.789453,92.891412 C 53.296889,92.887603 54.655141,90.701417 55.954614,89.00961 C 57.375365,87.441885 58.228831,85.949502 60.553057,83.784107 L 60.194737,83.694527 z M 61.030817,85.993748 C 59.247589,86.303747 57.326626,87.602888 57.149015,89.42765 C 57.369371,90.604698 58.593715,90.947465 59.597536,91.667151 L 59.657256,91.607431 C 58.970861,90.997667 58.173206,90.481486 57.955235,89.54709 C 58.018954,87.403559 59.814272,86.846151 61.000957,86.113188 L 61.030817,85.993748 z M 85.36673,87.606189 C 84.991207,87.610922 84.64398,87.659765 84.29177,87.725629 L 84.23205,87.964509 C 85.572843,87.842603 86.885504,88.224794 87.994412,89.09919 C 88.840099,90.124668 89.063968,90.72597 88.711052,92.204631 L 88.949932,92.294211 C 89.040051,90.878314 89.811337,89.327377 88.561752,88.412409 C 87.681672,87.873353 86.493302,87.591988 85.36673,87.606189 z M 91.308874,89.09919 L 91.099854,89.18877 C 91.399096,90.394853 90.650276,91.675487 90.114473,92.861552 C 89.088967,94.455067 88.437305,95.98422 87.665952,97.728734 L 88.054132,97.878034 C 88.904507,96.156929 89.833176,94.600859 90.890834,93.010852 C 91.201106,91.809862 91.801163,90.292921 91.308874,89.09919 z M 86.441691,89.60681 L 86.262531,89.81583 C 87.19236,89.929787 87.412974,90.723959 87.277772,91.786591 C 88.790502,90.058689 87.261878,89.761466 86.441691,89.60681 z M 85.725051,91.816451 C 81.454189,94.092039 77.87303,96.725314 72.377623,97.400274 C 71.402048,97.701626 71.634925,98.343812 69.720082,98.505095 C 68.331511,98.830278 67.494918,97.86052 66.73408,97.937754 C 61.219839,99.353645 56.176288,98.973109 50.281211,98.236355 C 49.835688,98.319064 49.852964,98.522141 49.863171,98.714115 C 54.892382,104.09405 60.410037,108.16999 68.465961,107.94086 C 77.938512,107.67356 81.256447,99.801077 86.083371,92.115051 C 85.996385,92.00463 86.118128,91.744587 85.725051,91.816451 z M 85.456311,92.413651 C 81.230419,99.026551 76.560564,107.40123 68.197221,107.34366 C 61.511264,107.29764 54.452808,102.80474 50.311071,98.803695 C 50.637991,98.884389 50.969759,98.967796 51.296452,99.042575 C 56.435719,101.64925 62.433086,106.45089 68.286801,106.02982 C 76.026825,105.0738 80.246016,99.504025 84.91883,92.921272 L 85.09799,92.622672 C 80.52115,95.665908 78.538253,97.864371 69.720082,99.580055 C 69.375526,99.599529 69.038644,99.622127 68.704841,99.639775 C 62.934346,100.17778 57.218663,99.884303 51.595052,98.654395 C 56.622292,99.170319 62.512683,100.21746 66.70422,98.654395 C 67.822084,98.484542 68.960327,99.25214 69.779802,99.162015 C 70.819447,99.19006 71.640846,98.273295 72.676224,98.057195 C 77.549781,97.218104 81.245952,94.968315 85.09799,92.622672 C 85.216667,92.550405 85.337266,92.486092 85.456311,92.413651 z M 84.56051,93.249732 C 83.449438,94.686846 82.295607,96.107183 81.066888,97.459994 C 81.040879,97.011683 80.988522,96.413332 80.917588,95.996853 C 82.225208,95.178556 83.449097,94.266388 84.56051,93.249732 z M 50.161771,94.593433 C 48.037724,95.795773 46.269953,97.545504 46.638289,100.1474 C 47.391013,102.06625 48.874022,103.40924 50.281211,104.89514 L 50.520091,104.7757 C 49.216091,103.28018 47.715731,101.83372 47.23549,99.848796 C 47.120636,97.814645 48.372041,95.722599 50.340931,94.832313 L 50.161771,94.593433 z M 52.819313,94.921893 C 51.288362,95.739851 48.895594,96.8096 48.66877,98.236355 C 48.370055,99.846684 49.463417,100.1811 49.982611,101.16264 L 50.251351,101.01334 C 49.879234,100.18565 49.422882,99.76578 49.236111,98.594675 C 49.796525,97.255952 51.501013,95.633054 53.088053,94.921893 L 52.819313,94.921893 z M 80.648848,96.176014 C 80.850283,96.585948 80.765626,97.262469 80.708568,97.848174 C 80.292718,98.294832 79.859424,98.739388 79.424587,99.162015 C 79.47817,98.427038 79.495283,97.712959 79.215567,96.952374 C 79.69548,96.694288 80.188234,96.457051 80.648848,96.176014 z M 78.916967,97.131534 C 79.125179,97.767118 79.283885,98.739962 79.006547,99.550195 C 78.632251,99.901082 78.262094,100.23755 77.871866,100.56544 C 77.737223,100.40183 77.530201,100.21743 77.513546,100.08768 C 77.434537,99.447496 77.371096,98.631233 77.274666,97.967614 C 77.832115,97.704378 78.377677,97.41389 78.916967,97.131534 z M 76.916346,98.146775 C 77.011761,98.822882 77.176645,99.649206 77.214946,100.32656 C 77.129427,100.6032 77.044044,100.92627 76.976066,101.28208 C 76.567131,101.59478 76.150087,101.89588 75.721945,102.17788 C 75.58969,102.03979 74.809624,101.49469 74.826145,101.1925 C 74.75903,100.59752 74.700521,99.634052 74.706705,98.982855 C 75.45632,98.711764 76.192306,98.466425 76.916346,98.146775 z M 74.318524,99.132155 C 74.367816,99.891555 74.4138,100.76827 74.527545,101.52096 C 74.532423,101.86847 74.487917,102.54107 74.467825,102.95424 C 73.679984,103.39106 72.848406,103.74662 71.989443,104.05906 C 71.927968,103.86731 70.909689,103.46067 70.854763,103.2827 C 70.668405,102.36995 70.596934,101.23668 70.496442,100.2967 C 71.791381,99.965799 73.071742,99.575316 74.318524,99.132155 z M 52.789453,99.371035 C 54.007802,99.617263 55.215431,99.800284 56.432375,99.968236 C 56.459788,100.43057 56.470849,101.11734 56.551815,101.52096 C 55.111436,100.73372 53.900575,100.02352 52.789453,99.371035 z M 56.701115,99.998096 C 57.019815,100.04062 57.337949,100.08019 57.656635,100.11754 C 57.619542,100.65759 57.500913,101.54316 57.746215,102.14802 C 57.422201,101.98187 57.10376,101.80956 56.790695,101.6404 C 56.741412,101.22221 56.68807,100.44274 56.701115,99.998096 z M 57.895515,100.1474 C 58.444237,100.20948 58.988991,100.27949 59.537816,100.32656 C 59.596646,101.26632 59.428302,102.34543 59.925997,103.16326 C 59.328256,102.90321 58.736404,102.6427 58.164256,102.35704 C 58.040875,101.79805 57.885255,100.68685 57.895515,100.1474 z M 59.955857,100.35642 C 60.844254,100.42654 61.72409,100.47343 62.613398,100.50572 C 62.630649,101.28871 62.707584,102.08915 62.702978,102.86466 C 62.640118,103.46915 62.013522,103.74247 61.807178,103.93962 C 61.291972,103.7587 60.787454,103.5537 60.284317,103.34242 C 59.980348,102.53373 59.709177,101.60069 59.955857,100.35642 z M 69.929102,100.38628 C 70.367436,100.89269 70.244868,102.43219 70.436722,103.31256 C 70.399591,103.6753 70.21803,104.20171 70.108262,104.6264 C 69.483313,104.77083 68.831912,104.88452 68.167361,104.95486 C 67.696486,104.98906 67.239471,104.97687 66.76394,104.95486 C 66.5447,104.48277 66.362045,104.02419 66.16674,103.5813 C 66.109063,102.60907 65.990357,101.54741 66.07716,100.53558 C 67.359818,100.51499 68.641122,100.4772 69.929102,100.38628 z M 63.150878,100.50572 C 63.981979,100.52899 64.826552,100.57363 65.65912,100.56544 C 65.721423,101.55351 65.900014,102.71167 65.7487,103.61116 C 65.672453,104.06442 65.434404,104.50341 65.241079,104.80556 C 64.795277,104.73625 64.341557,104.67286 63.897379,104.56668 C 63.711833,104.26155 63.132348,103.27687 63.091158,102.3869 C 63.098251,101.64849 63.105182,101.16483 63.150878,100.50572 z M 77.513546,100.50572 C 77.581792,100.50988 77.668858,100.57197 77.752426,100.65502 C 77.547561,100.82514 77.334952,100.99971 77.125366,101.16264 L 77.453826,100.53558 C 77.470661,100.51535 77.490797,100.50433 77.513546,100.50572 z M 75.005305,102.02858 C 75.092189,102.00434 75.352581,102.19381 75.572645,102.26746 C 75.242773,102.48079 74.929371,102.70161 74.587265,102.89452 L 74.975445,102.0883 C 74.975471,102.06516 74.987928,102.03342 75.005305,102.02858 z M 62.941858,103.25284 C 63.075429,103.67804 63.254487,104.22232 63.777939,104.53682 C 63.151392,104.38268 62.543162,104.18252 61.926618,103.96948 C 62.298266,103.86896 62.653418,103.7698 62.941858,103.25284 z M 70.914483,103.7306 C 71.122664,103.74349 71.677437,104.04186 71.899863,104.08892 C 71.38761,104.27193 70.857276,104.43415 70.317282,104.56668 L 70.824903,103.76046 C 70.835582,103.73949 70.876428,103.72824 70.914483,103.7306 z M 65.83828,104.23822 L 66.61464,104.95486 C 66.189242,104.93032 65.757083,104.89908 65.33066,104.83542 L 65.83828,104.23822 z M 76.349006,109.13526 C 74.240887,110.20096 72.876586,111.18067 70.496442,111.37476 C 68.369262,111.62478 65.988108,111.27111 63.837659,111.13588 C 63.453506,111.13078 63.559,111.25747 63.598779,111.46434 C 65.643386,111.97095 68.717639,112.68501 70.854763,112.33028 C 73.184456,111.98668 74.483002,110.47917 76.528166,109.2547 L 76.349006,109.13526 z "
       id="path3167"
       sodipodi:nodetypes="cccccccccccccccccccccccccccccccccccccccccccccccccccccccccccccccccccccccccccccccccccccccccccccccccccccccccccccccccccccccccccccccccccccccccccccccccccccccccccccccccccccccsccccccccccccccccccccssccccccccccccccccccccccccccccccccccccccccccsccccccscccccscccccscccccccccccccccccccccccccccccccccccccccccccccccccccccsccccscccccccccccccccccccccccccccccccccccccccccccccccscccccccccccscccccccccccccccccccccccccccsccccccccccccccccccccccccccccccccccccccccccccccscccccccccccccccccccccccccccccccccc" />
    <path
       style="fill:#ffffff;fill-opacity:0.51578944;fill-rule:evenodd;stroke:none;stroke-width:1px;stroke-linecap:butt;stroke-linejoin:miter;stroke-opacity:1;filter:url(#filter8510)"
       d="M 61.206349,68.571429 C 62.490789,69.734513 63.808028,71.167123 64.253968,73.396825 C 64.755006,75.902012 65.777778,78.490867 65.777778,81.015873 C 65.777778,82.823982 66.539683,84.613895 66.539683,86.603175 C 66.539683,88.82074 66.544477,90.685843 67.047619,92.698413 C 67.525849,94.611333 64.598609,91.981844 64,91.68254 C 62.33934,90.85221 62.131299,90.359376 62.47619,88.634921 C 62.746447,87.28364 62.906964,85.895952 63.238095,84.571429 C 63.536513,83.377757 63.238095,81.742675 63.238095,80.507937 C 63.238095,78.984127 63.238095,77.460317 63.238095,75.936508 C 63.238095,73.924528 62.604149,72.000975 61.460317,70.857143 C 60.717273,70.114098 60.954957,69.82839 61.206349,68.571429 z "
       id="path7497"
       transform="matrix(0.9555205,0,0,0.9555205,4.3266462,1.1017215)" />
    <path
       style="fill:#ffffff;fill-opacity:0.29473685;fill-rule:evenodd;stroke:none;stroke-width:1px;stroke-linecap:butt;stroke-linejoin:miter;stroke-opacity:1;filter:url(#filter10083)"
       d="M 38.857143,81.015873 C 37.489482,79.648212 42.460507,82.436603 44.190476,83.301587 C 45.725377,84.069038 46.836135,86.519142 47.238095,88.126984 C 47.512594,89.22498 45.475121,90.532281 44.698413,90.920635 C 43.524286,91.507698 41.772706,90.631117 41.142857,90.15873 C 39.947736,89.26239 39.025481,88.097466 38.095238,86.857143 C 37.485472,86.044121 37.84127,83.596778 37.84127,82.539683 C 37.84127,81.929219 38.518519,81.52381 38.857143,81.015873 z "
       id="path7499"
       transform="matrix(0.9555205,0,0,0.9555205,4.3266462,1.1017215)" />
    <path
       style="fill:#ffffff;fill-opacity:0.32631579;fill-rule:evenodd;stroke:none;stroke-width:1px;stroke-linecap:butt;stroke-linejoin:miter;stroke-opacity:1;filter:url(#filter10099)"
       d="M 53.587302,37.587302 C 53.587302,37.387211 47.327747,39.996254 46.47619,40.634921 C 45.255845,41.55018 43.61349,41.541072 42.15873,41.904762 C 41.481481,42.074074 40.804233,42.243386 40.126984,42.412698 C 39.79847,42.494827 39.449735,42.412698 39.111111,42.412698 C 37.264993,42.412698 34.573815,42.886502 33.777778,43.68254 C 32.33238,45.127937 36.322061,48.129285 37.079365,48.507937 C 38.787099,49.361804 40.315597,49.269841 42.412698,49.269841 C 45.370769,49.269841 47.677534,47.560561 49.777778,45.460317 C 51.955481,43.282614 53.303637,41.545307 53.84127,38.857143 C 53.925926,38.433862 53.671958,38.010582 53.587302,37.587302 z "
       id="path7501"
       transform="matrix(0.9555205,0,0,0.9555205,4.3266462,1.1017215)" />
    <path
       style="fill:#ffffff;fill-opacity:0.4157895;fill-rule:evenodd;stroke:none;stroke-width:1px;stroke-linecap:butt;stroke-linejoin:miter;stroke-opacity:1;filter:url(#filter10055)"
       d="M 27.428571,39.111111 C 27.672577,37.891083 29.788324,34.899543 30.730159,33.015873 C 31.641733,31.192725 32.385312,29.705567 33.269841,27.936508 C 34.714882,25.046427 37.193874,21.276079 40.126984,19.809524 C 43.688974,18.028529 46.423004,15.01072 50.031746,13.206349 C 51.610365,12.41704 54.76693,11.497408 55.111111,11.428571 C 55.573268,11.33614 51.825597,17.491664 51.809524,17.52381 C 50.275395,20.592068 48.005088,23.100935 46.47619,26.15873 C 45.427167,28.256777 43.54666,30.104134 41.904762,31.746032 C 40.418455,33.232339 38.981177,34.319673 37.333333,35.555556 C 36.058778,36.511472 34.691959,37.018454 33.269841,37.587302 C 31.193684,38.417764 29.606941,39.111111 27.428571,39.111111 z "
       id="path7503"
       transform="matrix(0.9555205,0,0,0.9555205,4.3266462,1.1017215)" />
    <path
       style="fill:#ffffff;fill-opacity:0.6157895;fill-rule:evenodd;stroke:none;stroke-width:1px;stroke-linecap:butt;stroke-linejoin:miter;stroke-opacity:1;filter:url(#filter8642)"
       d="M 49.481087,101.33333 C 51.408075,101.08221 53.325161,100.86014 56.776686,100.86014 C 58.656,100.86014 62.017309,99.809524 64,99.809524 C 67.401102,99.809524 64.513821,101.01787 62.99211,101.01787 C 60.958612,101.01787 58.123436,101.84127 55.873016,101.84127 C 54.209535,101.84127 51.295343,101.77318 49.481087,101.33333 z "
       id="path7505"
       sodipodi:nodetypes="cssssc"
       transform="matrix(0.9555205,0,0,0.9555205,4.3266462,1.1017215)" />
    <path
       style="fill:#000000;fill-opacity:0.16842107;fill-rule:evenodd;stroke:none;stroke-width:1px;stroke-linecap:butt;stroke-linejoin:miter;stroke-opacity:1;filter:url(#filter8766)"
       d="M 81.269841,29.460317 C 82.560462,33.257172 85.170454,36.427849 86.095238,40.126984 C 86.716953,42.613844 86.603175,45.706618 86.603175,48.253968 C 86.603175,50.116402 86.603175,51.978836 86.603175,53.84127 C 86.603175,55.549542 87.434689,56.77414 88.126984,58.15873 C 88.90454,59.713843 89.746956,61.083063 90.15873,62.730159 C 90.664815,64.754498 90.920635,66.708055 90.920635,68.825397 C 90.920635,70.760916 90.412698,72.435492 90.412698,74.412698 C 90.412698,77.165126 90.922172,79.753717 91.428571,82.285714 C 91.845149,84.368604 91.788428,86.370712 92.190476,88.380952 C 92.599189,90.424514 92.472975,92.558568 92.952381,94.47619 C 93.84729,98.055825 95.04132,95.12371 96,93.206349 C 96.966331,91.273687 97.269841,88.741993 97.269841,86.603175 C 97.269841,83.070817 97.36352,79.104872 96.507937,75.68254 C 95.40236,71.260232 96.507937,65.170743 96.507937,60.698413 C 96.507937,59.767196 96.507937,58.835979 96.507937,57.904762 C 96.507937,55.023007 97.161318,51.991891 96.253968,49.269841 C 95.460678,46.889972 96.134831,44.460138 94.984127,42.15873 C 93.395664,38.981805 92.917222,35.24885 90.920635,32.253968 C 89.656697,30.358061 88.536979,26.938862 88.126984,24.888889 C 87.766833,23.088134 86.35315,21.087252 85.587302,19.555556 C 85.055001,18.490955 83.258199,15.275122 83.809524,18.031746 C 84.127168,19.619969 83.853475,22.173404 83.555556,23.365079 C 83.161443,24.941528 82.648996,26.229413 82.285714,27.68254 C 82.084645,28.486816 82.035256,28.439764 81.269841,29.460317 z "
       id="path7509"
       transform="matrix(0.9555205,0,0,0.9555205,4.3266462,1.1017215)" />
    <path
       style="fill:#000000;fill-opacity:0.2157895;fill-rule:evenodd;stroke:none;stroke-width:1px;stroke-linecap:butt;stroke-linejoin:miter;stroke-opacity:1;filter:url(#filter8818)"
       d="M 67.897777,69.937506 C 67.718174,70.655917 67.547572,72.949198 67.547572,74.508934 C 67.547572,76.618442 67.863037,80.585771 68.729161,82.721364 C 69.665679,85.030527 68.646617,83.744762 70.691427,84.255964 C 72.560167,84.723149 74.003135,86.140098 75.008888,87.145851 C 76.828382,88.965345 76.135789,87.082029 75.770792,85.622041 C 75.398481,84.132797 73.515782,83.098237 72.811426,81.689525 C 72.047861,80.162394 72.137078,78.416109 71.2956,76.733152 C 70.504491,75.150935 69.92861,73.042971 69.517822,71.399819 C 69.230282,70.249659 69.227845,70.469533 67.897777,69.937506 z "
       id="path7511"
       sodipodi:nodetypes="cssssssssc"
       transform="matrix(0.9555205,0,0,0.9555205,4.3266462,1.1017215)" />
    <path
       style="fill:#000000;fill-opacity:0.1842105;fill-rule:evenodd;stroke:none;stroke-width:1px;stroke-linecap:butt;stroke-linejoin:miter;stroke-opacity:1;filter:url(#filter8910)"
       d="M 89.142857,97.015873 C 85.353842,103.02292 83.784528,106.22325 80.507937,110.73016 C 78.90972,112.86111 77.746042,115.51321 76.190476,117.5873 C 74.854747,119.36827 74.128247,121.10223 72.380952,122.4127 C 70.639567,123.71874 70.381457,123.1746 72.634921,123.1746 C 74.131377,123.1746 76.225352,122.06908 77.460317,121.14286 C 78.788054,120.14706 80.008804,119.35628 81.269841,118.09524 C 82.595131,116.76995 83.448838,115.7825 84.571429,114.28571 C 85.758182,112.70338 86.46862,110.895 86.857143,108.95238 C 87.235391,107.06114 87.484984,105.05127 87.873016,103.11111 C 87.912082,100.86434 89.692624,99.169769 89.142857,97.015873 z "
       id="path7513"
       sodipodi:nodetypes="ccssssssscc"
       transform="matrix(0.9555205,0,0,0.9555205,4.3266462,1.1017215)" />
    <path
       style="fill:#000000;fill-opacity:0.23157893;fill-rule:evenodd;stroke:none;stroke-width:1px;stroke-linecap:butt;stroke-linejoin:miter;stroke-opacity:1;filter:url(#filter8866)"
       d="M 72.022765,73.974241 C 72.947224,74.207513 75.916386,74.770886 77.61805,74.770886 C 79.488027,74.770886 81.674268,74.210485 83.301587,73.396825 C 84.717555,72.688842 86.615539,72.574692 87.303583,71.153834 C 88.387861,68.914724 88.22958,67.941386 86.349206,68.31746 C 84.912367,68.604828 83.594137,69.694995 82.285714,70.349206 C 80.654197,71.164965 77.973118,71.728147 76.270746,72.153741 C 74.570302,72.578851 73.779399,74.325568 72.022765,73.974241 z "
       id="path7517"
       sodipodi:nodetypes="cssssssc"
       transform="matrix(0.9555205,0,0,0.9555205,4.3266462,1.1017215)" />
    <path
       style="fill:#000000;fill-opacity:0.16315792;fill-rule:evenodd;stroke:none;stroke-width:1px;stroke-linecap:butt;stroke-linejoin:miter;stroke-opacity:1;filter:url(#filter8890)"
       d="M 41.904762,79.238095 C 40.310116,79.636757 44.027839,80.831384 45.671563,80.831384 C 47.463654,80.831384 49.854765,80.230026 51.486076,79.903764 C 53.350092,79.530961 53.114045,79.970701 54.675462,78.799638 C 56.982043,77.710879 57.660471,77.415447 58.182679,75.447345 C 55.896936,75.904493 51.829968,77.460317 49.269841,77.460317 C 47.930112,77.460317 46.57134,77.627006 45.206349,77.968254 C 43.770013,78.327338 43.596221,79.238095 41.904762,79.238095 z "
       id="path7519"
       sodipodi:nodetypes="cssccssc"
       transform="matrix(0.9555205,0,0,0.9555205,4.3266462,1.1017215)" />
    <path
       style="fill:#ffffff;fill-opacity:0.4157895;fill-rule:evenodd;stroke:none;stroke-width:1px;stroke-linecap:butt;stroke-linejoin:miter;stroke-opacity:1;filter:url(#filter8950)"
       d="M 32.761905,115.04762 C 26.914726,110.7961 19.768199,108.67555 13.460317,105.14286 C 17.162734,102.47616 19.811396,98.495356 23.365079,95.746032 C 25.241495,95.276928 21.354087,103.48433 22.349207,105.14286 C 26.470946,108.07861 29.703862,111.0784 32.761905,115.04762 z "
       id="path8920"
       sodipodi:nodetypes="ccccc"
       transform="matrix(0.9555205,0,0,0.9555205,4.3266462,1.1017215)" />
    <path
       sodipodi:type="arc"
       style="fill:#ffffff;fill-opacity:0.96842107;stroke:none;stroke-width:1;stroke-miterlimit:4;stroke-dasharray:none;stroke-opacity:1;filter:url(#filter9036)"
       id="path8954"
       sodipodi:cx="47.688354"
       sodipodi:cy="74.68383"
       sodipodi:rx="1.3625244"
       sodipodi:ry="1.3032842"
       d="M 49.050879 74.68383 A 1.3625244 1.3032842 0 1 1  46.32583,74.68383 A 1.3625244 1.3032842 0 1 1  49.050879 74.68383 z"
       transform="matrix(0.9555205,0,0,0.9555205,3.6473836,-3.03828e-2)" />
    <path
       transform="matrix(0.9555205,0,0,0.9555205,32.289624,-5.5776941)"
       d="M 49.050879 74.68383 A 1.3625244 1.3032842 0 1 1  46.32583,74.68383 A 1.3625244 1.3032842 0 1 1  49.050879 74.68383 z"
       sodipodi:ry="1.3032842"
       sodipodi:rx="1.3625244"
       sodipodi:cy="74.68383"
       sodipodi:cx="47.688354"
       id="path9040"
       style="fill:#ffffff;fill-opacity:0.9631578;stroke:none;stroke-width:1;stroke-miterlimit:4;stroke-dasharray:none;stroke-opacity:1;filter:url(#filter9036)"
       sodipodi:type="arc" />
    <path
       sodipodi:type="arc"
       style="fill:#ffffff;fill-opacity:1;stroke:none;stroke-width:5;stroke-linejoin:round;stroke-miterlimit:4;stroke-dasharray:none;stroke-opacity:1;filter:url(#filter5307)"
       id="path4280"
       sodipodi:cx="28.85372"
       sodipodi:cy="82.663254"
       sodipodi:rx="0.51042962"
       sodipodi:ry="0.54413724"
       d="M 29.364149 82.663254 A 0.51042962 0.54413724 0 1 1  28.34329,82.663254 A 0.51042962 0.54413724 0 1 1  29.364149 82.663254 z"
       transform="matrix(1.5923431,0,0,1.3595378,-17.061659,-29.631635)" />
    <path
       id="path5311"
       d="M 51.122366,99.443352 C 58.46863,103.56922 60.704456,106.36461 69.4773,106.20819 C 77.076551,104.49588 81.977272,98.600406 85.838159,91.992453 C 82.251379,97.760059 77.10226,106.18289 69.575585,106.76184 C 60.891735,107.4298 57.407331,103.57658 51.122366,99.443352 z "
       style="fill:#ffffff;fill-opacity:0.67195767;fill-rule:evenodd;stroke:none;stroke-width:1px;stroke-linecap:butt;stroke-linejoin:miter;stroke-opacity:1;filter:url(#filter6306)"
       sodipodi:nodetypes="cccsc" />
    <path
       style="fill:#ffffff;fill-rule:evenodd;stroke:none;stroke-width:1px;stroke-linecap:butt;stroke-linejoin:miter;stroke-opacity:1;filter:url(#filter7309);fill-opacity:0.41798943"
       d="M 53.393768,99.078376 C 58.584829,99.536986 63.388978,99.690972 66.935666,99.078376 L 70.030956,99.465287 L 72.255697,98.304553 C 73.609887,98.138614 76.318266,99.129483 84.830316,92.694338 C 84.988595,93.327455 73.325085,99.660173 70.030956,99.755469 C 61.876544,99.991366 53.343424,99.279751 53.393768,99.078376 z "
       id="path6310"
       sodipodi:nodetypes="cccccsc" />
  </g>
</svg>
