<?xml version="1.0" encoding="UTF-8" standalone="no"?>
<!DOCTYPE svg PUBLIC "-//W3C//DTD SVG 20010904//EN"
"http://www.w3.org/TR/2001/REC-SVG-20010904/DTD/svg10.dtd">
<!-- Created with Inkscape (http://www.inkscape.org/) -->
<svg
   id="svg1"
   sodipodi:version="0.32"
   inkscape:version="0.39"
   width="400.00000pt"
   height="400.00000pt"
   sodipodi:docbase="/home/nicu/Desktop/faces"
   sodipodi:docname="nb_faces_oac_01.svg"
   inkscape:export-filename="/home/nicu/Desktop/faces/oan3.png"
   inkscape:export-xdpi="23.040001"
   inkscape:export-ydpi="23.040001"
   xmlns="http://www.w3.org/2000/svg"
   xmlns:cc="http://web.resource.org/cc/"
   xmlns:inkscape="http://www.inkscape.org/namespaces/inkscape"
   xmlns:sodipodi="http://sodipodi.sourceforge.net/DTD/sodipodi-0.dtd"
   xmlns:rdf="http://www.w3.org/1999/02/22-rdf-syntax-ns#"
   xmlns:dc="http://purl.org/dc/elements/1.1/"
   xmlns:xlink="http://www.w3.org/1999/xlink">
  <defs
     id="defs3">
    <linearGradient
       id="linearGradient4124">
      <stop
         style="stop-color:#000;stop-opacity:1;"
         offset="0"
         id="stop4125" />
      <stop
         style="stop-color:#fff;stop-opacity:1;"
         offset="1"
         id="stop4126" />
    </linearGradient>
  </defs>
  <sodipodi:namedview
     id="base"
     pagecolor="#ffffff"
     bordercolor="#666666"
     borderopacity="1.0"
     inkscape:pageopacity="0.0"
     inkscape:pageshadow="2"
     inkscape:zoom="1.0000000"
     inkscape:cx="205.26126"
     inkscape:cy="160.33484"
     inkscape:window-width="1039"
     inkscape:window-height="763"
     inkscape:window-x="58"
     inkscape:window-y="32" />
  <metadata
     id="metadata4">
    <rdf:RDF
       id="RDF5">
      <cc:Work
         rdf:about=""
         id="Work6">
        <dc:format
           id="format7">image/svg+xml</dc:format>
        <dc:type
           id="type9"
           rdf:resource="http://purl.org/dc/dcmitype/StillImage" />
      </cc:Work>
    </rdf:RDF>
  </metadata>
  <path
     style="fill:#bb8c7b;fill-opacity:1.0000000;fill-rule:evenodd;stroke:#000000;stroke-width:1.0000000pt;stroke-linecap:butt;stroke-linejoin:miter;stroke-opacity:1.0000000;"
     d="M 321.85027,300.98224 C 307.76569,313.92590 298.11892,338.03192 294.92214,350.28252 C 293.45023,365.23711 298.10919,398.04776 286.94919,406.75937 C 272.37532,419.37452 210.93628,411.79008 202.67224,397.62354 C 193.39511,382.26116 193.09414,368.52399 195.05652,354.98807 C 198.63324,337.45154 199.36919,294.79174 195.23701,283.41581 C 212.92019,295.06600 301.12244,310.40019 321.85027,300.98224 z "
     id="path2180"
     sodipodi:nodetypes="ccccccc" />
  <path
     style="fill:#b89168;fill-opacity:1.0000000;fill-rule:evenodd;stroke:#000000;stroke-width:1.0000000pt;stroke-linecap:butt;stroke-linejoin:miter;stroke-opacity:1.0000000;"
     d="M 362.83197,195.04077 C 375.62083,209.25836 387.68569,259.06134 387.68569,267.38858 C 387.68569,278.79857 376.74981,341.66971 373.32697,348.51540 C 370.74989,354.88177 358.83424,381.67056 358.83424,390.95693 C 358.83424,397.19537 354.80039,436.63673 368.27163,453.79291 C 362.85823,453.79291 355.43836,449.14612 353.22474,444.71889 C 353.22474,448.30259 353.23964,456.77517 352.76597,463.32569 C 340.68002,448.16852 334.26945,419.06552 333.32213,404.35951 C 331.71875,418.27809 325.40995,427.14043 319.72601,433.92007 C 319.72601,423.62168 308.55773,413.87428 304.76844,403.76674 C 300.97915,393.72555 293.61272,352.35172 296.51660,349.44784 C 296.51660,337.80121 302.73375,315.47812 302.73375,303.37473 C 302.73375,296.94846 348.93848,266.52331 350.30833,253.88785 C 351.24644,243.49495 359.82027,211.65998 362.83197,195.04077 z "
     id="path2179"
     sodipodi:nodetypes="cccccccccccccc" />
  <path
     style="fill:#c29b72;fill-opacity:1.0000000;fill-rule:evenodd;stroke:#000000;stroke-width:1.0000000pt;stroke-linecap:butt;stroke-linejoin:miter;stroke-opacity:1.0000000;"
     d="M 382.41586,121.73682 C 382.41586,123.00764 379.72320,186.19921 381.03827,196.77566 C 382.45925,210.03494 394.89484,256.92951 394.89484,268.15119 C 394.89484,277.83274 402.87757,323.15930 409.71233,335.88149 C 414.92261,345.61117 416.15888,375.84103 416.15888,380.05995 C 416.63254,389.93422 433.90911,414.30041 435.29889,423.46974 C 436.86139,429.46801 435.59499,442.05447 432.93058,444.71889 C 430.56228,433.96498 418.86221,425.49468 412.88792,422.50753 C 414.75494,429.27827 421.02623,458.24385 408.01730,466.04250 C 408.49096,451.73868 403.42074,440.00516 398.68413,434.23879 C 400.57878,441.74847 395.58012,460.87380 383.62235,468.68485 C 383.13502,459.22529 376.93951,452.11967 374.30406,448.12386 C 367.19914,438.32648 355.05377,424.92003 353.15913,404.74384 C 350.52671,386.00693 373.81201,324.72022 376.48765,319.36895 C 378.83598,312.32394 382.92997,283.91720 381.03532,263.41342 C 379.88605,254.48363 362.58769,207.69047 363.06135,190.58427 C 363.06135,183.37102 381.42966,124.20233 382.41586,121.73682 z "
     id="path2178"
     sodipodi:nodetypes="ccccccccccccccccc" />
  <path
     style="fill:#b89168;fill-opacity:1.0000000;fill-rule:evenodd;stroke:#000000;stroke-width:1.0000000pt;stroke-linecap:butt;stroke-linejoin:miter;stroke-opacity:1.0000000;"
     d="M 136.11181,279.19086 C 134.21717,295.69605 148.42701,326.75384 148.42701,349.29275 C 148.50894,360.43274 161.03208,415.52767 160.74221,431.70984 C 160.74221,439.60420 161.68953,466.53182 152.21630,481.91795 C 172.58374,473.67397 205.26638,438.03446 205.26638,424.13126 C 204.85471,391.73630 185.54541,343.39436 171.16276,321.82039 C 165.41366,310.32219 142.74307,296.87968 136.11181,279.19086 z "
     id="path2184"
     sodipodi:nodetypes="ccccccc" />
  <path
     style="fill:#000000;fill-opacity:0.062745102;fill-rule:evenodd;stroke:none;stroke-width:1.0000000pt;stroke-linecap:butt;stroke-linejoin:miter;stroke-opacity:1.0000000;"
     d="M 196.69001,285.08283 C 203.69482,292.08026 211.18834,295.70478 219.90951,304.95075 C 230.28366,309.15596 239.55141,315.39822 249.72732,318.46490 C 258.66253,321.88891 278.60523,322.24830 284.37510,320.88442 C 272.54123,336.93554 266.15682,349.13592 251.30811,361.54004 C 241.33945,369.23280 227.32120,387.04476 215.76400,392.40469 C 212.68070,385.78321 208.20606,372.13408 206.31874,364.26888 C 203.00514,349.10472 202.83220,336.38101 201.15605,324.37174 C 204.75701,310.37882 195.61756,295.69964 196.69001,285.08283 z "
     id="path4105"
     sodipodi:nodetypes="ccccccccc" />
  <path
     style="fill:#c29b72;fill-opacity:1.0000000;fill-rule:evenodd;stroke:#000000;stroke-width:1.0000000pt;stroke-linecap:butt;stroke-linejoin:miter;stroke-opacity:1.0000000;"
     d="M 158.67658,55.231920 C 138.78280,66.089727 121.73099,129.73626 118.41536,140.49098 C 113.96448,153.18201 116.69482,211.00484 114.80017,231.01835 C 114.32651,267.45815 124.51116,297.65802 126.40581,305.67899 C 129.07022,316.69174 138.64330,340.20129 144.90667,358.67719 C 151.29532,375.52277 162.56091,383.07715 169.35926,393.49004 C 174.35596,401.22505 192.30654,437.90649 190.41190,459.59110 C 189.85311,465.66358 187.56993,478.12926 187.56993,482.32685 C 193.78328,480.15047 202.25343,467.89467 206.51638,455.80181 C 209.83201,473.00710 202.72709,487.75024 202.72709,492.74740 C 228.99223,484.00774 231.62044,458.26253 233.04142,446.32858 C 233.58551,433.50957 216.67088,393.84140 210.30568,375.42705 C 199.93979,354.64061 202.25343,317.30566 202.25343,310.53543 C 200.94108,298.32887 190.88556,267.09021 186.62260,256.53802 C 184.25430,248.48577 170.99178,199.95154 167.67615,185.48881 C 164.83418,173.83958 152.51898,135.18954 152.51898,126.75480 C 152.51898,118.90618 160.70386,65.576705 158.67658,55.231920 z "
     id="path2183"
     sodipodi:nodetypes="ccccccccccccccccc" />
  <path
     style="fill:#000000;fill-opacity:0.12549020;fill-rule:evenodd;stroke:none;stroke-width:1.0000000pt;stroke-linecap:butt;stroke-linejoin:miter;stroke-opacity:1.0000000;"
     d="M 137.83548,97.387787 C 137.36182,120.12354 169.09713,219.59243 175.72839,232.85495 C 182.35965,246.11747 194.20119,283.06307 200.83245,302.95684 C 202.01660,306.27247 200.57317,329.16229 203.35593,349.64815 C 208.31507,370.13401 215.32403,388.75999 226.88383,423.26684 C 221.19989,416.63559 201.77977,412.84630 190.41189,375.42704 C 179.04402,338.00779 189.46457,326.63992 179.04402,293.95728 C 168.62347,261.27464 160.57123,252.27507 152.51898,238.06523 C 139.25646,219.59244 118.41536,199.69865 121.73099,160.38476 C 124.57296,136.22802 132.62520,108.28200 137.83548,97.387787 z "
     id="path4142"
     sodipodi:nodetypes="cccccccccc" />
  <path
     style="fill:#000000;fill-opacity:0.12549020;fill-rule:evenodd;stroke:none;stroke-width:1.0000000pt;stroke-linecap:butt;stroke-linejoin:miter;stroke-opacity:1.0000000;"
     d="M 319.06250,424.68750 C 314.37500,414.68750 323.43750,379.37500 324.37500,365.00000 C 325.93750,355.93750 319.37500,338.12500 324.68750,326.25000 C 331.87500,313.43750 348.75000,284.37500 345.00000,271.56250 C 340.31250,274.37500 318.75000,289.68750 301.87500,310.62500 C 301.87500,313.75000 297.18750,341.25000 297.50000,349.37500 C 295.31250,359.68750 301.87500,398.75000 304.68750,402.18750 C 307.50000,406.87500 316.87500,424.68750 319.06250,424.68750 z "
     id="path4151"
     sodipodi:nodetypes="cccccccc" />
  <path
     style="fill:#bb8c7b;fill-opacity:1.0000000;fill-rule:evenodd;stroke:#000000;stroke-width:1.0000000pt;stroke-linecap:butt;stroke-linejoin:miter;stroke-opacity:1.0000000;"
     d="M 174.95219,223.63164 C 177.83647,234.05712 181.15282,257.69778 186.95361,271.37560 C 192.80950,285.07293 209.29223,295.09475 216.24225,301.11754 C 225.90343,309.99345 247.03844,318.38934 262.86698,321.52797 C 277.60674,324.15611 296.42641,319.31498 306.73725,311.88410 C 315.05418,304.82020 333.21039,297.46402 342.29422,283.30080 C 350.77023,268.09894 355.41568,259.46831 356.93836,225.76388 C 368.00631,225.29870 367.73155,198.46560 371.30510,181.95547 C 374.68543,173.03506 386.09806,141.68013 367.51995,152.28487 C 367.67896,145.96061 368.02469,126.18209 366.99238,115.76188 C 363.44620,96.865349 352.15266,78.341708 342.94632,58.758740 C 335.88603,46.109034 320.66287,35.071790 307.30406,26.677337 C 290.36204,17.948873 273.83769,16.670117 256.26372,14.405858 C 239.71022,13.373314 228.05730,14.748301 212.67220,19.349124 C 194.75176,25.871366 177.35715,37.504539 166.49339,53.126399 C 158.97929,69.011480 151.66105,85.164217 148.51151,101.89608 C 146.08288,121.72044 152.02587,143.82873 157.08883,163.78817 C 151.28863,146.42264 132.10905,142.67625 132.81410,166.58292 C 133.62075,183.54282 141.79862,202.97370 147.56284,217.19417 C 152.08009,228.02462 171.51706,241.93603 174.95219,223.63164 z "
     id="path919"
     sodipodi:nodetypes="cccccccccccccccccccc" />
  <path
     style="fill:#c29b72;fill-opacity:1.0000000;fill-rule:evenodd;stroke:#000000;stroke-width:1.0000000pt;stroke-linecap:butt;stroke-linejoin:miter;stroke-opacity:1.0000000;"
     d="M 310.53946,56.207142 C 314.82241,69.847490 319.12384,84.452170 323.17171,97.573151 C 327.09625,107.40995 330.20016,124.30520 333.85709,134.20221 C 337.94839,144.48792 347.18310,160.38776 350.30128,171.16683 C 350.75131,167.07685 353.92061,166.78183 356.10816,164.18278 C 357.41183,168.65481 362.59512,180.54552 364.42148,183.14936 C 364.94238,170.87279 367.86127,154.16250 375.60778,143.94859 C 381.33131,135.65833 385.95124,124.54505 384.22992,114.08954 C 380.94212,99.089292 376.65211,83.299141 369.85994,70.174127 C 362.55838,58.451224 351.52746,49.045638 342.10410,38.181251 C 336.03817,29.579093 311.68466,13.902246 294.19182,9.8831725 C 294.52068,14.793535 306.76394,45.249925 310.53946,56.207142 z "
     id="path2175"
     sodipodi:nodetypes="cccccccccccc" />
  <path
     style="fill:#ae875e;fill-opacity:1.0000000;fill-rule:evenodd;stroke:#000000;stroke-width:1.0000000pt;stroke-linecap:butt;stroke-linejoin:miter;stroke-opacity:1.0000000;"
     d="M 248.41391,170.74473 C 244.54094,166.18773 231.24959,162.97490 225.64176,162.83339 C 220.28392,162.39864 210.55391,167.96007 209.21987,172.80917 C 211.91164,170.79296 220.56956,166.88202 225.85443,166.85243 C 229.96330,166.55878 241.44750,169.66945 248.41391,170.74473 z "
     id="path4087"
     sodipodi:nodetypes="ccccc" />
  <path
     style="fill:#b89168;fill-opacity:1.0000000;fill-rule:evenodd;stroke:#000000;stroke-width:1.0000000pt;stroke-linecap:butt;stroke-linejoin:round;stroke-opacity:1.0000000;"
     d="M 304.12907,28.811828 C 305.30158,29.984336 310.97654,55.346038 313.18625,64.986398 C 316.27985,74.183178 321.85738,99.424665 321.85738,108.44863 C 321.85738,118.61812 321.67754,138.83596 315.94795,146.77526 C 310.20271,153.96409 305.13115,162.45631 300.32104,165.99184 C 295.30510,169.96932 285.62277,171.90303 279.60743,171.90303 C 279.70470,169.25138 282.48093,166.35703 282.48093,161.96196 C 275.72994,165.49750 264.58666,165.02298 266.35443,160.36015 C 261.49307,164.43210 256.96536,167.35729 256.96536,161.41173 C 256.96536,158.78592 253.80479,155.34919 253.81937,154.45071 C 249.62850,160.85129 231.98997,166.54734 227.63826,168.31510 C 226.34618,166.53046 225.78866,164.38379 226.11827,160.51865 C 220.37303,167.73274 209.75100,170.28060 200.02828,173.72670 C 200.02828,170.45817 199.87560,163.95158 200.30428,160.41605 C 196.51285,164.20747 193.18081,179.16861 193.62275,189.02346 C 183.90003,180.63972 179.48412,157.37541 179.48412,152.51875 C 175.09838,159.62349 174.09997,177.07233 172.02876,187.09850 C 168.42138,174.35403 153.85850,161.03650 152.53267,153.07074 C 151.20685,141.80131 146.22430,124.96010 150.83594,119.21486 C 157.90701,111.32837 233.09815,52.921525 240.34102,49.300092 C 248.79146,44.827126 303.41113,16.729413 304.12907,28.811828 z "
     id="path2177"
     sodipodi:nodetypes="ccccccccccccccccccccc" />
  <path
     style="fill:#c29b72;fill-opacity:1.0000000;fill-rule:evenodd;stroke:#000000;stroke-width:1.0000000pt;stroke-linecap:butt;stroke-linejoin:miter;stroke-opacity:1.0000000;"
     d="M 302.58314,30.249451 C 287.68844,35.586378 250.05756,52.451321 225.19177,65.739706 C 202.89562,78.020587 187.56718,98.584443 171.99453,118.02311 C 167.51278,123.87118 156.23336,149.25708 152.55151,155.17994 C 151.47480,153.76106 146.39094,149.69412 143.16927,149.44976 C 141.29675,141.17082 138.92783,106.61276 142.65203,90.091989 C 146.98806,68.008982 166.66110,40.025266 179.00337,26.037536 C 193.97880,11.173962 218.34132,3.1425996 239.80318,1.9069567 C 257.15887,2.4425206 272.97038,2.5638233 289.40392,8.7537550 C 299.20762,12.270472 308.22659,23.911512 302.58314,30.249451 z "
     id="path2176"
     sodipodi:nodetypes="cccccccccc" />
  <path
     style="fill:#000000;fill-opacity:0.12549020;fill-rule:evenodd;stroke:none;stroke-width:1.0000000pt;stroke-linecap:butt;stroke-linejoin:miter;stroke-opacity:1.0000000;"
     d="M 310.62500,172.18750 C 310.62500,172.18750 341.87500,172.18750 345.31250,179.06250 C 345.93750,183.12500 345.31250,186.25000 344.37500,189.37500 C 335.93750,185.93750 319.37500,170.62500 310.62500,172.18750 z "
     id="path4094"
     sodipodi:nodetypes="cccc" />
  <path
     style="fill:#ffffff;fill-opacity:1.0000000;fill-rule:evenodd;stroke:#000000;stroke-width:1.0000000pt;stroke-linecap:butt;stroke-linejoin:miter;stroke-opacity:1.0000000;"
     d="M 294.82755,184.96749 C 297.27597,180.61474 302.67068,172.19331 315.04107,171.92981 C 327.41145,172.75450 334.95688,180.29993 336.60626,181.94932 C 333.90290,188.49554 309.94913,196.67058 294.82755,184.96749 z "
     id="path4071"
     sodipodi:nodetypes="cccc" />
  <path
     style="fill:#000000;fill-opacity:0.12549020;fill-rule:evenodd;stroke:none;stroke-width:1.0000000pt;stroke-linecap:butt;stroke-linejoin:miter;stroke-opacity:1.0000000;"
     d="M 239.37500,177.18750 C 235.62500,175.00000 214.68750,175.93750 205.93750,185.93750 C 209.68750,190.62500 211.56250,191.56250 213.43750,193.43750 C 217.81250,190.00000 231.87500,179.68750 239.37500,177.18750 z "
     id="path4095"
     sodipodi:nodetypes="cccc" />
  <path
     style="fill:#ffffff;fill-opacity:1.0000000;fill-rule:evenodd;stroke:#000000;stroke-width:1.0000000pt;stroke-linecap:butt;stroke-linejoin:miter;stroke-opacity:1.0000000;"
     d="M 214.00769,186.20452 C 216.45611,179.40334 240.53814,168.40175 251.67149,185.79218 C 247.02611,195.56529 226.31474,203.46828 214.00769,186.20452 z "
     id="path4072"
     sodipodi:nodetypes="ccc" />
  <path
     style="fill:#1c3239;fill-opacity:1.0000000;fill-rule:evenodd;stroke:#000000;stroke-width:1.0000000pt;stroke-linecap:butt;stroke-linejoin:miter;stroke-opacity:1.0000000;"
     d="M 308.22931,173.54354 C 305.78089,177.62424 304.96475,187.68999 315.30253,188.50613 C 327.81670,187.68999 324.82418,178.71244 324.55213,174.63173 C 321.55962,172.45535 315.57458,170.55102 308.22931,173.54354 z "
     id="path4073"
     sodipodi:nodetypes="cccc" />
  <path
     style="fill:#1c3239;fill-opacity:1.0000000;fill-rule:evenodd;stroke:#000000;stroke-width:1.0000000pt;stroke-linecap:butt;stroke-linejoin:miter;stroke-opacity:1.0000000;"
     d="M 239.40140,178.16834 C 242.12187,182.52109 241.30573,193.13093 232.32818,193.67502 C 223.07858,193.67502 220.08606,186.87384 222.26244,179.80062 C 224.71086,177.89629 234.50456,174.90377 239.40140,178.16834 z "
     id="path4074"
     sodipodi:nodetypes="cccc" />
  <path
     style="fill:#000000;fill-opacity:1.0000000;fill-rule:evenodd;stroke:none;stroke-width:1.0000000pt;stroke-linecap:butt;stroke-linejoin:miter;stroke-opacity:1.0000000;"
     d="M 231.78409,179.80062 C 227.15929,179.52857 223.62268,187.96203 231.51204,188.23408 C 236.68094,187.96203 237.76912,179.80062 231.78409,179.80062 z "
     id="path4075"
     sodipodi:nodetypes="ccc" />
  <path
     style="fill:#000000;fill-opacity:1.0000000;fill-rule:evenodd;stroke:none;stroke-width:1.0000000pt;stroke-linecap:butt;stroke-linejoin:miter;stroke-opacity:1.0000000;"
     d="M 316.55426,175.85916 C 311.92946,175.58711 308.39285,184.02057 316.28221,184.29262 C 321.45111,184.02057 322.53929,175.85916 316.55426,175.85916 z "
     id="path4076"
     sodipodi:nodetypes="ccc" />
  <path
     style="fill:#ae875e;fill-opacity:1.0000000;fill-rule:evenodd;stroke:#000000;stroke-width:1.0000000pt;stroke-linecap:butt;stroke-linejoin:miter;stroke-opacity:1.0000000;"
     d="M 307.16337,166.89305 C 311.39220,162.66421 324.89985,160.53686 330.50076,160.84936 C 335.87621,160.84936 345.12455,167.17950 346.06205,172.12060 C 343.54216,169.89330 335.22890,165.29495 329.96374,164.83803 C 325.89208,164.21303 314.19392,166.38471 307.16337,166.89305 z "
     id="path4077"
     sodipodi:nodetypes="ccccc" />
  <path
     style="fill:#93423b;fill-opacity:0.71505374;fill-rule:evenodd;stroke:#000000;stroke-width:1.0000000pt;stroke-linecap:butt;stroke-linejoin:miter;stroke-opacity:1.0000000;"
     d="M 244.79567,266.70859 C 248.47853,267.75253 259.32636,268.52261 263.47637,267.35161 C 266.65440,265.98792 271.72302,265.26413 274.85106,266.93736 C 277.96954,268.46161 283.47016,267.77225 286.96258,265.96739 C 290.62067,264.24106 293.86935,264.80076 297.28916,266.04397 C 301.67849,267.08367 306.42458,268.88790 310.70281,266.42279 C 312.36843,265.24971 314.10054,267.05693 311.97023,268.25032 C 309.57581,270.52668 293.76450,286.22322 274.18043,286.17210 C 252.79867,284.97055 240.64357,271.17102 240.26281,268.81527 C 239.90662,267.69545 242.90753,266.15148 244.79567,266.70859 z "
     id="path4078"
     sodipodi:nodetypes="cccccccccc" />
  <path
     style="fill:none;fill-opacity:0.75000000;fill-rule:evenodd;stroke:#000000;stroke-width:1.0000000pt;stroke-linecap:butt;stroke-linejoin:miter;stroke-opacity:1.0000000;"
     d="M 248.10691,174.90377 C 254.35691,175.70323 270.12452,187.97135 266.06202,202.10848"
     id="path4080"
     sodipodi:nodetypes="cc" />
  <path
     style="fill:none;fill-opacity:0.75000000;fill-rule:evenodd;stroke:#000000;stroke-width:1.0000000pt;stroke-linecap:butt;stroke-linejoin:miter;stroke-opacity:1.0000000;"
     d="M 301.42813,174.08763 C 288.30313,178.27973 283.80164,203.28061 286.19350,217.34311"
     id="path4081"
     sodipodi:nodetypes="cc" />
  <path
     style="fill:none;fill-opacity:0.75000000;fill-rule:evenodd;stroke:#000000;stroke-width:1.0000000pt;stroke-linecap:butt;stroke-linejoin:miter;stroke-opacity:0.12549020;"
     d="M 298.70766,221.42382 C 299.33266,226.90900 318.53777,240.40407 316.66277,250.80490"
     id="path4082"
     sodipodi:nodetypes="cc" />
  <path
     style="fill:none;fill-opacity:0.75000000;fill-rule:evenodd;stroke:#000000;stroke-width:1.0000000pt;stroke-linecap:butt;stroke-linejoin:miter;stroke-opacity:0.12549020;"
     d="M 255.45218,223.96427 C 247.95218,227.32809 228.31857,257.08019 227.83182,264.89269"
     id="path4083"
     sodipodi:nodetypes="cc" />
  <path
     style="fill:none;fill-opacity:0.75000000;fill-rule:evenodd;stroke:#000000;stroke-width:1.0000000pt;stroke-linecap:butt;stroke-linejoin:round;stroke-opacity:0.50196081;"
     d="M 261.70926,229.04114 C 262.44273,225.60222 257.81312,224.72544 256.08469,227.45565 C 254.26287,229.87172 252.90152,232.55617 252.04236,235.43411 C 251.42828,237.94683 252.18224,240.67375 254.15173,242.38962 C 256.11383,244.18822 259.63295,246.31531 262.19388,246.49494 C 261.43604,243.38384 264.09085,241.21133 265.65574,243.18401 C 266.69042,244.90442 266.35029,246.72761 265.53792,248.55749 C 268.95795,249.57762 272.56664,252.11100 276.71950,251.83583 C 280.34658,251.96552 288.01490,248.74456 290.34177,246.54177 C 289.43869,243.97108 290.29736,242.09887 292.33424,240.51029 C 295.01881,238.81526 296.23081,242.14922 295.21586,244.69044 C 298.62744,244.73928 301.28454,243.22944 303.10862,240.64268 C 304.65423,237.86232 302.87249,234.45475 301.73746,232.01430 C 301.11711,230.42490 298.00930,225.88374 295.80850,227.80726"
     id="path4084"
     sodipodi:nodetypes="cccccccccccccc" />
  <path
     style="fill:#000000;fill-opacity:1.0000000;fill-rule:evenodd;stroke:none;stroke-width:1.0000000pt;stroke-linecap:butt;stroke-linejoin:miter;stroke-opacity:1.0000000;"
     d="M 213.55694,185.78566 C 213.55694,185.78566 212.35410,185.33910 211.87588,183.17983 C 211.60384,181.22673 224.48759,174.31091 238.04117,175.99196 C 226.02928,175.40511 216.15073,183.15069 213.55694,185.78566 z "
     id="path4085"
     sodipodi:nodetypes="cccc" />
  <path
     style="fill:#000000;fill-opacity:1.0000000;fill-rule:evenodd;stroke:none;stroke-width:1.0000000pt;stroke-linecap:butt;stroke-linejoin:miter;stroke-opacity:1.0000000;"
     d="M 314.21434,172.18330 C 320.19336,169.91540 333.75043,173.46056 339.23412,179.80917 C 339.35732,181.82815 337.51031,182.31492 337.06630,181.97700 C 335.17906,179.37117 325.32204,171.79661 314.21434,172.18330 z "
     id="path4086"
     sodipodi:nodetypes="cccc" />
  <path
     style="fill:none;fill-opacity:0.75000000;fill-rule:evenodd;stroke:#000000;stroke-width:1.0000000pt;stroke-linecap:butt;stroke-linejoin:miter;stroke-opacity:0.12549020;"
     d="M 299.37500,198.12500 C 302.81250,202.18750 323.12500,204.06250 330.62500,198.43750"
     id="path4091"
     sodipodi:nodetypes="cc" />
  <path
     style="fill:none;fill-opacity:0.75000000;fill-rule:evenodd;stroke:#000000;stroke-width:1.0000000pt;stroke-linecap:butt;stroke-linejoin:miter;stroke-opacity:0.12549020;"
     d="M 221.56250,206.56250 C 224.06250,208.75000 247.81250,205.00000 249.68750,199.68750"
     id="path4092"
     sodipodi:nodetypes="cc" />
  <path
     style="fill:#ffe9ff;fill-opacity:0.12365586;fill-rule:evenodd;stroke:none;stroke-width:1.0000000pt;stroke-linecap:butt;stroke-linejoin:miter;stroke-opacity:1.0000000;"
     d="M 248.59223,271.51612 C 262.07145,275.05165 292.78640,273.06292 298.31068,271.73709 C 287.26213,278.36622 266.04892,283.44855 248.59223,271.51612 z "
     id="path4096"
     sodipodi:nodetypes="ccc" />
  <path
     style="fill:none;fill-opacity:0.75000000;fill-rule:evenodd;stroke:#000000;stroke-width:1.0000000pt;stroke-linecap:butt;stroke-linejoin:miter;stroke-opacity:1.0000000;"
     d="M 245.67623,269.27077 C 252.73086,275.44152 298.55765,274.09772 302.20987,269.67830"
     id="path4079"
     sodipodi:nodetypes="cc" />
  <path
     style="fill:none;fill-opacity:0.75000000;fill-rule:evenodd;stroke:#000000;stroke-width:1.0000000pt;stroke-linecap:butt;stroke-linejoin:miter;stroke-opacity:0.50196081;"
     d="M 145.61980,160.14680 C 139.87456,158.15806 137.00193,166.55496 139.43262,177.82447 C 142.30524,185.55845 150.92310,213.62175 154.67961,214.28467"
     id="path4097"
     sodipodi:nodetypes="ccc" />
  <path
     style="fill:none;fill-opacity:0.75000000;fill-rule:evenodd;stroke:#000000;stroke-width:1.0000000pt;stroke-linecap:butt;stroke-linejoin:miter;stroke-opacity:0.50196081;"
     d="M 159.54097,181.80194 C 159.54097,181.80194 156.44737,174.50991 152.69087,179.15030 C 149.15534,185.55846 159.98291,206.99263 163.73942,208.53942"
     id="path4098"
     sodipodi:nodetypes="ccc" />
  <path
     style="fill:none;fill-opacity:0.75000000;fill-rule:evenodd;stroke:#000000;stroke-width:1.0000000pt;stroke-linecap:butt;stroke-linejoin:miter;stroke-opacity:0.25098041;"
     d="M 311.22183,263.04702 C 315.48000,262.13629 317.75095,269.90211 314.48639,271.48048"
     id="path4103"
     sodipodi:nodetypes="cc" />
  <path
     style="fill:none;fill-opacity:0.75000000;fill-rule:evenodd;stroke:#000000;stroke-width:1.0000000pt;stroke-linecap:butt;stroke-linejoin:miter;stroke-opacity:0.25098041;"
     d="M 240.48960,264.95135 C 237.49708,262.52646 235.18638,271.75253 239.12936,272.02457"
     id="path4104"
     sodipodi:nodetypes="cc" />
  <path
     style="fill:#ffffff;fill-opacity:0.062745102;fill-rule:evenodd;stroke:none;stroke-width:1.0000000pt;stroke-linecap:butt;stroke-linejoin:miter;stroke-opacity:1.0000000;"
     d="M 274.37826,212.36689 C 275.17842,215.26940 276.29382,220.30322 275.64603,221.60257 C 268.40356,220.55165 265.82735,229.68876 269.40458,233.09735 C 275.07532,236.93929 282.20889,237.24012 285.93516,230.69360 C 287.30694,225.72573 283.13705,213.67480 284.06547,208.39870 C 283.84317,200.53876 286.68871,192.24437 286.93734,183.85927 C 287.75967,179.45672 275.06282,175.41142 272.27070,182.90395 C 270.15984,191.03669 273.71353,208.12669 274.37826,212.36689 z "
     id="path4106"
     sodipodi:nodetypes="cccccccc" />
  <path
     style="fill:#ffffff;fill-opacity:0.062745102;fill-rule:evenodd;stroke:none;stroke-width:1.0000000pt;stroke-linecap:butt;stroke-linejoin:miter;stroke-opacity:1.0000000;"
     d="M 319.56203,211.04514 C 325.12889,209.99201 342.39095,204.98111 340.04659,211.97148 C 338.43507,217.53057 327.75579,229.57061 320.12656,229.48076 C 311.25042,228.99563 294.70074,213.45515 298.70768,205.91714 C 300.88405,202.10848 311.47311,210.79514 319.56203,211.04514 z "
     id="path4107"
     sodipodi:nodetypes="ccccc" />
  <path
     style="fill:#ffffff;fill-opacity:0.062745102;fill-rule:evenodd;stroke:none;stroke-width:1.0000000pt;stroke-linecap:butt;stroke-linejoin:miter;stroke-opacity:1.0000000;"
     d="M 250.82738,205.10098 C 247.22358,205.41192 226.33314,214.36330 217.79057,210.27282 C 211.51990,207.01667 207.18350,208.85645 207.43324,217.72766 C 207.55674,223.76011 213.11169,232.30866 222.10278,232.19708 C 231.77178,232.22282 244.14595,228.42217 250.08741,220.66549 C 253.69136,215.79094 255.95524,206.38557 250.82738,205.10098 z "
     id="path4108"
     sodipodi:nodetypes="cccccc" />
  <path
     style="fill:#ffffff;fill-opacity:0.25098041;fill-rule:evenodd;stroke:none;stroke-width:1.0000000pt;stroke-linecap:butt;stroke-linejoin:miter;stroke-opacity:1.0000000;"
     d="M 231.34947,177.66138 C 222.39503,178.21402 221.33250,186.23514 231.07742,186.09484 C 239.33892,185.20427 240.83944,177.66138 231.34947,177.66138 z "
     id="path4131"
     sodipodi:nodetypes="ccc" />
  <path
     style="fill:#ffffff;fill-opacity:0.25098041;fill-rule:evenodd;stroke:none;stroke-width:1.0000000pt;stroke-linecap:butt;stroke-linejoin:miter;stroke-opacity:1.0000000;"
     d="M 317.12960,173.04051 C 308.22251,171.96763 305.72947,179.66517 315.33962,181.28631 C 323.62616,181.90173 326.46367,174.75363 317.12960,173.04051 z "
     id="path4132"
     sodipodi:nodetypes="ccc" />
  <path
     style="fill:none;fill-opacity:0.75000000;fill-rule:evenodd;stroke:#000000;stroke-width:1.0000000pt;stroke-linecap:butt;stroke-linejoin:miter;stroke-opacity:1.0000000;"
     d="M 200.35879,159.91110 C 200.35879,144.28027 230.67311,77.020346 242.98831,71.336409"
     id="path4134"
     sodipodi:nodetypes="cc" />
  <path
     style="fill:none;fill-opacity:0.75000000;fill-rule:evenodd;stroke:#000000;stroke-width:1.0000000pt;stroke-linecap:butt;stroke-linejoin:miter;stroke-opacity:1.0000000;"
     d="M 225.69967,160.85842 C 234.69924,151.38519 277.56560,94.545818 268.09237,57.126565"
     id="path4135"
     sodipodi:nodetypes="cc" />
  <path
     style="fill:none;fill-opacity:0.75000000;fill-rule:evenodd;stroke:#000000;stroke-width:1.0000000pt;stroke-linecap:butt;stroke-linejoin:miter;stroke-opacity:1.0000000;"
     d="M 253.40886,155.41131 C 261.46110,149.72737 277.56560,123.43917 280.40756,112.54495"
     id="path4136"
     sodipodi:nodetypes="cc" />
  <path
     style="fill:none;fill-opacity:0.75000000;fill-rule:evenodd;stroke:#000000;stroke-width:1.0000000pt;stroke-linecap:butt;stroke-linejoin:miter;stroke-opacity:1.0000000;"
     d="M 265.48723,161.09525 C 265.48723,161.09525 276.61828,152.80617 280.40757,146.64857"
     id="path4137"
     sodipodi:nodetypes="cc" />
  <path
     style="fill:none;fill-opacity:0.75000000;fill-rule:evenodd;stroke:#000000;stroke-width:1.0000000pt;stroke-linecap:butt;stroke-linejoin:miter;stroke-opacity:1.0000000;"
     d="M 282.30221,162.27940 C 302.19599,128.64944 309.77458,84.598929 303.61698,64.705149"
     id="path4138"
     sodipodi:nodetypes="cc" />
  <path
     style="fill:none;fill-opacity:0.75000000;fill-rule:evenodd;stroke:#000000;stroke-width:1.0000000pt;stroke-linecap:butt;stroke-linejoin:miter;stroke-opacity:1.0000000;"
     d="M 179.51768,153.04300 C 179.51768,144.04343 182.83331,130.07042 185.20162,125.33381"
     id="path4139"
     sodipodi:nodetypes="cc" />
  <path
     style="fill:#000000;fill-opacity:0.062745102;fill-rule:evenodd;stroke:none;stroke-width:1.0000000pt;stroke-linecap:butt;stroke-linejoin:miter;stroke-opacity:1.0000000;"
     d="M 171.93910,184.06783 C 165.37660,173.13033 153.03194,161.32517 153.02211,153.44391 C 161.76229,133.06265 177.15920,105.81546 193.72752,92.651173 C 169.67085,133.86188 177.99264,146.12180 171.93910,184.06783 z "
     id="path4140"
     sodipodi:nodetypes="cccc" />
  <path
     style="fill:#000000;fill-opacity:0.12549020;fill-rule:evenodd;stroke:none;stroke-width:1.0000000pt;stroke-linecap:butt;stroke-linejoin:miter;stroke-opacity:1.0000000;"
     d="M 151.09800,114.91326 C 162.46587,104.96637 185.20162,74.178377 195.14851,61.389519 C 178.57036,71.810070 142.09842,94.545814 151.09800,114.91326 z "
     id="path4141"
     sodipodi:nodetypes="ccc" />
  <path
     style="fill:none;fill-opacity:0.75000000;fill-rule:evenodd;stroke:#000000;stroke-width:1.0000000pt;stroke-linecap:butt;stroke-linejoin:miter;stroke-opacity:1.0000000;"
     d="M 144.18494,225.23248 C 144.18494,225.23248 165.94871,275.83323 165.94871,298.14109 C 165.94871,320.44895 162.14004,335.68358 170.30145,359.62372 C 178.46287,383.56386 179.55105,396.07803 179.55105,396.07803"
     id="path4143"
     sodipodi:nodetypes="cccc" />
  <path
     style="fill:none;fill-opacity:0.75000000;fill-rule:evenodd;stroke:#000000;stroke-width:1.0000000pt;stroke-linecap:butt;stroke-linejoin:miter;stroke-opacity:1.0000000;"
     d="M 206.21166,458.64885 C 206.21166,458.64885 209.47623,429.81186 203.49119,412.94494"
     id="path4144"
     sodipodi:nodetypes="cc" />
  <path
     style="fill:none;fill-opacity:0.75000000;fill-rule:evenodd;stroke:#000000;stroke-width:1.0000000pt;stroke-linecap:butt;stroke-linejoin:miter;stroke-opacity:1.0000000;"
     d="M 315.57458,35.887731 C 316.66277,42.960954 356.38164,99.002651 376.51312,105.53178"
     id="path4145"
     sodipodi:nodetypes="cc" />
  <path
     style="fill:none;fill-opacity:0.75000000;fill-rule:evenodd;stroke:#000000;stroke-width:1.0000000pt;stroke-linecap:butt;stroke-linejoin:miter;stroke-opacity:1.0000000;"
     d="M 329.17693,80.503447 C 341.14701,106.61996 366.71942,132.73648 374.33674,137.63333"
     id="path4146"
     sodipodi:nodetypes="cc" />
  <path
     style="fill:none;fill-opacity:0.75000000;fill-rule:evenodd;stroke:#000000;stroke-width:1.0000000pt;stroke-linecap:butt;stroke-linejoin:miter;stroke-opacity:1.0000000;"
     d="M 163.77232,84.312106 C 174.11011,73.430224 238.31322,25.549943 268.23839,29.358602"
     id="path4147"
     sodipodi:nodetypes="cc" />
  <path
     style="fill:#000000;fill-opacity:0.12549020;fill-rule:evenodd;stroke:none;stroke-width:1.0000000pt;stroke-linecap:butt;stroke-linejoin:miter;stroke-opacity:1.0000000;"
     d="M 382.49815,460.28113 C 382.18565,456.84363 354.51776,421.73136 354.74935,410.76857 C 350.60595,398.86828 358.33754,366.23376 363.99895,355.81506 C 363.09787,381.95887 366.54345,391.40973 368.76736,397.48984 C 375.05377,415.13244 393.35779,450.85860 382.49815,460.28113 z "
     id="path4148"
     sodipodi:nodetypes="ccccc" />
  <path
     style="fill:none;fill-opacity:0.75000000;fill-rule:evenodd;stroke:#000000;stroke-width:1.0000000pt;stroke-linecap:butt;stroke-linejoin:miter;stroke-opacity:1.0000000;"
     d="M 399.68750,435.00000 C 399.68750,435.00000 395.00000,426.25000 391.25000,422.18750 C 387.50000,418.12500 387.50000,418.12500 387.50000,418.12500"
     id="path4149" />
  <path
     style="fill:none;fill-opacity:0.75000000;fill-rule:evenodd;stroke:#000000;stroke-width:1.0000000pt;stroke-linecap:butt;stroke-linejoin:miter;stroke-opacity:1.0000000;"
     d="M 413.12500,422.81250 C 413.12500,422.81250 390.70277,400.65477 392.76450,384.57326"
     id="path4150"
     sodipodi:nodetypes="cc" />
  <path
     style="fill:none;fill-opacity:0.75000000;fill-rule:evenodd;stroke:#000000;stroke-width:1.0000000pt;stroke-linecap:butt;stroke-linejoin:miter;stroke-opacity:1.0000000;"
     d="M 353.38071,444.74560 C 353.38071,444.74560 349.25725,425.77768 350.90664,418.76779"
     id="path4153"
     sodipodi:nodetypes="cc" />
  <path
     style="fill:none;fill-opacity:0.75000000;fill-rule:evenodd;stroke:#000000;stroke-width:1.0000000pt;stroke-linecap:butt;stroke-linejoin:miter;stroke-opacity:1.0000000;"
     d="M 333.23706,404.74802 C 334.88644,397.73813 328.63994,378.35787 330.70167,372.58502"
     id="path4154"
     sodipodi:nodetypes="cc" />
  <path
     style="fill:#300000;fill-opacity:0.047058824;fill-rule:evenodd;stroke:none;stroke-width:1.0000000pt;stroke-linecap:butt;stroke-linejoin:miter;stroke-opacity:1.0000000;"
     d="M 253.74514,223.75124 C 246.83678,229.87569 234.99082,248.67825 227.94483,258.41437 C 221.12443,262.00406 198.50943,259.49128 196.35563,251.59398 C 195.27872,244.41462 197.07356,231.13280 207.48364,234.00454 C 218.97062,236.87628 249.07855,230.93061 253.74514,223.75124 z "
     id="path4157"
     sodipodi:nodetypes="ccccc" />
  <path
     style="fill:#300000;fill-opacity:0.047058824;fill-rule:evenodd;stroke:none;stroke-width:1.0000000pt;stroke-linecap:butt;stroke-linejoin:miter;stroke-opacity:1.0000000;"
     d="M 303.05858,227.09476 C 306.53546,232.25510 316.65397,242.95960 315.93745,250.29432 C 319.88610,252.08916 343.17363,250.51708 339.58395,244.77359 C 337.07118,239.38906 330.92331,242.06004 326.97466,240.62417 C 316.20562,236.31655 309.54200,229.80971 303.05858,227.09476 z "
     id="path4158"
     sodipodi:nodetypes="ccccc" />
  <path
     style="fill:#300000;fill-opacity:0.047058824;fill-rule:evenodd;stroke:none;stroke-width:1.0000000pt;stroke-linecap:butt;stroke-linejoin:miter;stroke-opacity:1.0000000;"
     d="M 227.20491,306.69489 C 222.17935,307.77179 196.35563,288.92668 196.35563,282.10628 C 196.71460,274.56794 221.48341,276.00382 223.63721,277.79866 C 227.22690,280.67041 232.23046,305.61798 227.20491,306.69489 z "
     id="path4159"
     sodipodi:nodetypes="cccc" />
  <path
     style="fill:#ffffff;fill-opacity:0.094117649;fill-rule:evenodd;stroke:none;stroke-width:1.0000000pt;stroke-linecap:butt;stroke-linejoin:miter;stroke-opacity:1.0000000;"
     d="M 168.12500,392.18750 C 168.12500,392.18750 196.56250,445.31250 190.31250,450.93750 C 184.06250,456.56250 167.18750,474.37500 170.31250,469.68750 C 179.78322,450.27793 175.62500,406.87500 168.12500,392.18750 z "
     id="path4160"
     sodipodi:nodetypes="cccc" />
  <path
     style="fill:#ffffff;fill-opacity:0.094117649;fill-rule:evenodd;stroke:none;stroke-width:1.0000000pt;stroke-linecap:butt;stroke-linejoin:miter;stroke-opacity:1.0000000;"
     d="M 187.57954,434.76598 C 184.53359,424.10517 172.85747,397.70696 168.03472,391.36124 C 164.98876,386.28466 152.55115,373.59322 148.74372,367.24750 C 148.23606,364.70921 140.57215,343.61346 131.92005,320.52040 C 125.93598,306.48984 120.57488,281.93019 116.37828,254.79303 C 140.24315,275.70767 140.71568,308.49998 148.56399,326.99243 C 155.69034,342.63410 190.62549,413.19053 187.57954,434.76598 z "
     id="path4161"
     sodipodi:nodetypes="ccccccc" />
  <path
     style="fill:#ffffff;fill-opacity:0.21505377;fill-rule:evenodd;stroke:none;stroke-width:1.0000000pt;stroke-linecap:butt;stroke-linejoin:miter;stroke-opacity:1.0000000;"
     d="M 434.37500,436.25000 C 440.93750,422.81250 417.81250,393.43750 416.25000,382.50000 C 415.00000,376.25000 414.68750,349.37500 408.75000,335.00000 C 406.25000,327.81250 394.06250,278.12500 394.68750,274.06250 C 394.37500,287.50000 395.00000,345.93750 399.06250,363.43750 C 404.06250,381.87500 428.12500,413.75000 434.37500,436.25000 z "
     id="path4162"
     sodipodi:nodetypes="cccccc" />
</svg>
