<?xml version="1.0" encoding="UTF-8" standalone="no"?>
<!-- Created with Inkscape (http://www.inkscape.org/) -->
<svg
   xmlns:dc="http://purl.org/dc/elements/1.1/"
   xmlns:cc="http://web.resource.org/cc/"
   xmlns:rdf="http://www.w3.org/1999/02/22-rdf-syntax-ns#"
   xmlns:svg="http://www.w3.org/2000/svg"
   xmlns="http://www.w3.org/2000/svg"
   xmlns:sodipodi="http://sodipodi.sourceforge.net/DTD/sodipodi-0.dtd"
   xmlns:inkscape="http://www.inkscape.org/namespaces/inkscape"
   width="128"
   height="128"
   id="svg2"
   sodipodi:version="0.32"
   inkscape:version="0.45pre1"
   version="1.0"
   sodipodi:docbase="/home/nicu/Desktop"
   sodipodi:docname="nb_faces_iod_01.svg"
   inkscape:output_extension="org.inkscape.output.svg.inkscape"
   inkscape:export-filename="/home/nicu/Desktop/nb_faces_iod_01.png"
   inkscape:export-xdpi="90"
   inkscape:export-ydpi="90"
   sodipodi:modified="TRUE">
  <defs
     id="defs4">
    <filter
       inkscape:collect="always"
       id="filter5480">
      <feGaussianBlur
         inkscape:collect="always"
         stdDeviation="2.009319"
         id="feGaussianBlur5482" />
    </filter>
    <filter
       inkscape:collect="always"
       id="filter7548">
      <feGaussianBlur
         inkscape:collect="always"
         stdDeviation="1.3025194"
         id="feGaussianBlur7550" />
    </filter>
    <filter
       inkscape:collect="always"
       x="-0.19165498"
       width="1.38331"
       y="-0.06130568"
       height="1.1226114"
       id="filter8657">
      <feGaussianBlur
         inkscape:collect="always"
         stdDeviation="1.1789095"
         id="feGaussianBlur8659" />
    </filter>
    <filter
       inkscape:collect="always"
       id="filter8707">
      <feGaussianBlur
         inkscape:collect="always"
         stdDeviation="0.8417159"
         id="feGaussianBlur8709" />
    </filter>
    <filter
       inkscape:collect="always"
       x="-0.23271147"
       width="1.4654229"
       y="-0.1265369"
       height="1.2530738"
       id="filter8773">
      <feGaussianBlur
         inkscape:collect="always"
         stdDeviation="1.1783265"
         id="feGaussianBlur8775" />
    </filter>
    <filter
       inkscape:collect="always"
       x="-0.045060642"
       width="1.0901213"
       y="-0.25312987"
       height="1.5062597"
       id="filter8894">
      <feGaussianBlur
         inkscape:collect="always"
         stdDeviation="0.87408908"
         id="feGaussianBlur8896" />
    </filter>
    <filter
       inkscape:collect="always"
       x="-0.33352825"
       width="1.6670565"
       y="-0.085897715"
       height="1.1717954"
       id="filter8928">
      <feGaussianBlur
         inkscape:collect="always"
         stdDeviation="0.85486169"
         id="feGaussianBlur8930" />
    </filter>
    <filter
       inkscape:collect="always"
       x="-0.16166451"
       width="1.323329"
       y="-0.10280246"
       height="1.2056049"
       id="filter8954">
      <feGaussianBlur
         inkscape:collect="always"
         stdDeviation="0.63049154"
         id="feGaussianBlur8956" />
    </filter>
    <filter
       inkscape:collect="always"
       x="-0.18002623"
       width="1.3600525"
       y="-0.084218857"
       height="1.1684377"
       id="filter9048">
      <feGaussianBlur
         inkscape:collect="always"
         stdDeviation="1.6941617"
         id="feGaussianBlur9050" />
    </filter>
  </defs>
  <sodipodi:namedview
     id="base"
     pagecolor="#ffffff"
     bordercolor="#666666"
     borderopacity="1.0"
     gridtolerance="10000"
     guidetolerance="10"
     objecttolerance="10"
     inkscape:pageopacity="0.0"
     inkscape:pageshadow="2"
     inkscape:zoom="1"
     inkscape:cx="68.875702"
     inkscape:cy="94.454383"
     inkscape:document-units="px"
     inkscape:current-layer="layer1"
     width="128px"
     height="128px"
     inkscape:window-width="1042"
     inkscape:window-height="771"
     inkscape:window-x="73"
     inkscape:window-y="37" />
  <metadata
     id="metadata7">
    <rdf:RDF>
      <cc:Work
         rdf:about="">
        <dc:format>image/svg+xml</dc:format>
        <dc:type
           rdf:resource="http://purl.org/dc/dcmitype/StillImage" />
      </cc:Work>
    </rdf:RDF>
  </metadata>
  <g
     inkscape:label="Layer 1"
     inkscape:groupmode="layer"
     id="layer1">
    <path
       style="opacity:1;fill:#f9ddd1;fill-opacity:1;stroke:none;stroke-width:3;stroke-linecap:round;stroke-linejoin:bevel;stroke-miterlimit:4;stroke-dasharray:none;stroke-dashoffset:0;stroke-opacity:1"
       d="M 79.125 16.5 C 79.573949 18.556185 79.916012 20.67982 80.625 22.65625 C 81.084243 25.471467 82.683528 28.630539 82.5 31.25 C 82.770215 31.520782 83.02164 31.771705 83.40625 32.125 C 81.802394 33.953681 78.681237 33.514036 76.46875 34.40625 C 74.222374 34.882342 72.062265 35.858407 70.03125 34.78125 C 67.966459 33.632826 65.896853 32.51309 63.6875 31.65625 C 60.882706 30.563666 57.400684 31.72155 55.59375 29.28125 C 54.040387 27.312568 53.603648 23.529841 51.90625 21.625 C 51.012928 20.526476 49.508007 18.281255 48.375 16.9375 C 48.989583 20.218241 52.521447 23.399088 53.78125 26.40625 C 55.700823 29.281547 54.694154 32.896762 52.15625 35 C 49.3214 38.350706 47.537805 42.525844 47.15625 46.90625 C 46.385764 50.659692 46.04866 55.110011 42.71875 57.59375 C 40.436512 59.839739 36.596164 59.475695 35.78125 56.03125 C 35.402163 55.114889 35.02476 54.175823 34.65625 53.25 C 34.143469 53.143709 33.445881 52.787191 33.125 52.96875 C 33.261792 52.245212 32.396734 51.577703 32 51.0625 C 31.263824 52.949197 30.99614 55.479689 30.90625 57.25 C 30.800939 59.620851 31.90953 61.946447 31.90625 64.3125 C 32.067183 66.621616 32.443466 70.002843 33.46875 72.09375 C 33.737936 72.47768 34.034708 72.806134 34.375 73.0625 C 34.352877 72.264059 34.672004 71.428369 35.34375 70.96875 C 36.115856 70.449493 37.122255 70.267072 38 70.625 C 38.432258 70.825418 38.677466 71.26426 38.75 71.71875 C 38.864305 72.331015 38.794468 72.998898 38.53125 73.5625 C 38.488682 73.645778 38.42871 73.706348 38.375 73.78125 C 38.640786 73.736592 38.903296 73.699255 39.09375 73.6875 C 39.13955 73.267146 39.941624 73.260561 40.28125 73 C 40.967095 72.693477 38.979918 74.23805 38.53125 74.46875 C 38.224039 74.598282 37.893585 74.684839 37.5625 74.75 C 38.330384 77.994964 39.796407 82.610708 40 85.84375 C 40.429294 89.475991 42.268143 92.178475 44.71875 94.875 C 47.11874 98.012154 50.538444 101.02699 52.625 104.40625 C 54.617906 107.29846 57.134545 108.84996 59.71875 111.15625 C 62.900364 113.09268 66.960253 114.34737 70.5625 112.8125 C 71.086899 112.84594 72.864972 111.97097 73.53125 111.65625 C 76.073169 109.24396 77.847413 106.78899 81.0625 105.09375 C 87.429856 101.80465 93.68949 96.390313 94.9375 88.90625 C 95.75134 85.431924 96.86162 82.013272 96.90625 78.40625 C 97.607657 76.402348 97.658054 69.619289 98.875 67.28125 C 98.310953 66.356347 97.95393 64.737391 98.1875 64 C 98.021598 62.634636 98.544511 61.59306 99.25 60.625 C 99.748492 57.818768 100.68263 55.078285 101.0625 52.25 C 101.21073 48.131379 100.67982 43.372744 100.9375 39.25 C 100.21178 38.497329 96.169827 38.674219 94.28125 37.25 C 91.579559 36.237025 88.159097 36.072854 86.4375 33.40625 C 84.206683 31.063062 83.618404 27.868506 83.28125 24.78125 C 82.784816 22.010312 80.927215 19.188771 79.125 16.5 z M 38 81.21875 C 37.274383 87.208298 34.297269 92.357597 31.15625 93.84375 C 28.280389 95.861045 24.791776 99.223621 22.40625 101.84375 C 20.286696 104.55227 20.67948 106.9106 23.03125 109.40625 C 25.379275 112.18046 28.635437 114.02449 31.75 115.8125 C 35.656544 117.96413 39.392465 120.47956 43.71875 121.75 C 47.040069 122.7963 50.581675 124.67306 54.03125 124.96875 C 61.779406 124.90767 69.548244 124.86257 77.28125 123.84375 C 80.607959 123.87019 82.107413 119.41541 79.9375 117.15625 C 78.241734 115.67561 77.291391 112.90177 76.9375 110.5 C 74.671258 113.19421 70.594026 113.51923 67.28125 114.375 C 63.831557 114.8765 60.167851 113.60783 57.46875 111.46875 C 54.565773 109.01511 53.455748 107.72062 50.6875 104.1875 C 48.219789 100.71147 43.819832 96.991484 41.4375 93.4375 C 38.930058 90.245018 38.822787 85.403593 38 81.21875 z "
       id="path3403" />
    <path
       style="opacity:1;fill:#2b2b1f;fill-opacity:1;stroke:none;stroke-width:3;stroke-linecap:round;stroke-linejoin:bevel;stroke-miterlimit:4;stroke-dasharray:none;stroke-dashoffset:0;stroke-opacity:1"
       d="M 63.9375,6.75 C 62.106931,6.8476 60.250084,6.9285041 58.5625,7.4901845 C 56.514374,8.4137828 52.928141,13.441079 50.555138,14.014073 C 47.613414,14.036577 50.692819,14.446301 48.78125,16.125 C 48.632273,16.270944 48.467215,16.441429 48.3125,16.59375 C 49.861172,17.976321 52.441366,20.241534 53.331481,21.985927 C 54.408293,24.015718 55.099072,26.862483 56.875,28.53125 C 58.899047,31.133753 63.532516,30.638482 66.5,31.858473 C 69.560189,33.015473 71.902985,32.866723 75.341296,32.795973 C 76.946887,32.920118 78.528289,33.90307 79.78125,32.875 C 80.27804,32.479808 80.994209,31.468304 81.449769,30.877454 C 80.260433,25.256218 79.144233,19.222099 76.916066,13.932592 C 75.664434,11.049635 72.546633,8.4125944 69.411158,7.4589345 C 67.774406,6.5381561 65.768069,6.6524 63.9375,6.75 z M 80.542869,9.1439806 C 79.302524,9.3063646 78.022824,10.713394 77.125,11.09375 C 77.205765,11.221595 77.300257,11.338347 77.375,11.46875 C 79.500803,12.026273 78.934944,14.60564 80.059125,16.35546 C 82.259803,20.408103 82.849978,24.289408 83.512322,28.793519 C 84.641516,31.841042 88.749279,35.024435 92.15625,35.699769 C 95.145971,36.491159 97.842596,37.829535 100.96384,38.014723 C 103.23001,39.771357 101.04653,42.946023 101.79778,45.5 C 102.19273,48.960884 101.68274,52.724485 100.5625,56.0625 C 100.19967,57.249725 99.779938,59.20821 99.742638,60.394631 C 100.64862,59.332571 102.36972,57.606426 102.73102,56.252454 C 104.9585,49.970159 105.69265,42.962319 105.18079,36.372546 C 104.97244,32.741212 103.02738,29.059427 100.28125,26.5 C 97.819458,24.451874 97.241453,21.314432 97.235927,18.15625 C 97.405975,18.687987 96.684823,18.103448 96.75,18.0625 C 95.828451,15.371513 93.183873,14.001047 90.697316,12.958934 C 88.033264,11.425049 85.118357,9.6576318 81.875,9.625 C 81.722427,9.5923485 80.767594,9.11456 80.542869,9.1439806 z M 47.5,16.990184 C 46.043105,18.388871 44.02767,19.528452 42.302684,20.045323 C 40.401943,22.33783 36.877195,23.315929 36.105369,26.471204 C 35.290384,29.433932 34.455083,32.352655 33.550231,35.298427 C 32.78315,39.763997 32.297619,44.546585 34.143981,48.829677 C 35.456577,52.066544 36.427027,55.658814 38.838842,58.295973 C 39.475774,58.920346 40.988338,58.060775 41.59375,57.875 C 43.820081,55.866661 45.226321,53.15835 45.702223,50.286158 C 46.475837,46.50105 46.341419,42.8695 48.536158,39.545973 C 49.71107,36.665807 53.417317,34.265554 53.795973,31.091296 C 54.095256,27.314213 51.534619,24.468329 49.125,22.03125 C 48.077757,21.062191 46.780015,18.137384 47.5,16.990184 z "
       id="path3409"
       sodipodi:nodetypes="cccccccccccccccccccccccccccccccccccccccccccc" />
    <path
       style="opacity:1;fill:#f1f177;fill-opacity:1;stroke:none;stroke-width:3;stroke-linecap:round;stroke-linejoin:bevel;stroke-miterlimit:4;stroke-dasharray:none;stroke-dashoffset:0;stroke-opacity:1"
       d="M 49.0625 10.84375 C 48.565878 10.894711 47.924003 11.140878 47.28125 11.21875 C 45.946461 11.481859 44.801358 12.481591 44.5 13.6875 C 44.003449 14.9312 44.659878 15.605582 46.3125 15.375 C 47.243417 15.335824 48.100113 14.977704 48.9375 14.59375 C 49.646182 13.555586 50.381982 12.535348 51.5625 12 C 50.931143 11.728809 50.256518 11.474022 50 11.65625 C 49.93034 10.948049 49.559122 10.792789 49.0625 10.84375 z M 98.375 18.15625 C 98.289456 18.495025 97.969426 18.749769 97.40625 19 C 97.385313 19.109167 97.400855 19.154232 97.375 19.28125 C 97.376476 19.957635 97.507746 20.576512 97.6875 21.1875 C 97.78874 21.260857 97.996104 21.674769 98.34375 22.59375 C 98.618995 24.102842 100.16161 23.092807 101.5625 24.03125 C 102.50741 23.327126 101.71289 21.812495 101.78125 20.78125 C 101.7123 19.30087 100.91535 20.853444 99.78125 19.6875 C 98.724435 19.141331 98.804067 18.416077 98.375 18.15625 z "
       id="path3405" />
    <path
       style="opacity:1;fill:#ffffff;fill-opacity:1;stroke:none;stroke-width:3;stroke-linecap:round;stroke-linejoin:bevel;stroke-miterlimit:4;stroke-dasharray:none;stroke-dashoffset:0;stroke-opacity:1"
       d="M 63.40625 63.0625 C 63.849801 64.323536 63.676454 65.770053 63.09375 66.9375 C 63.475792 66.862609 63.867141 66.777586 64.25 66.6875 C 65.335949 66.514388 66.653786 65.620659 67.6875 65.125 C 67.206343 64.835598 66.58331 64.33672 65.75 63.75 C 65.051752 63.462663 64.251504 63.231867 63.40625 63.0625 z M 55.8125 63.15625 C 54.888702 63.416504 54.02335 63.802636 53.3125 64.34375 C 54.032633 65.25482 54.824986 65.911097 55.6875 66.375 C 55.66149 65.461789 55.640251 63.91436 55.8125 63.15625 z M 85.625 65.96875 C 85.115107 65.964897 84.602049 65.987212 84.09375 66.03125 C 83.39529 66.139539 82.693122 66.269035 82 66.40625 C 82.11629 67.473794 83.358178 68.889732 84.3125 69.34375 C 84.363948 69.375965 84.417712 69.376916 84.46875 69.40625 C 84.550664 68.272579 85.237784 66.833126 85.71875 65.96875 C 85.687543 65.96842 85.656205 65.968986 85.625 65.96875 z "
       id="path3381" />
    <path
       style="opacity:1;fill:#bdbdbd;fill-opacity:1;stroke:none;stroke-width:3;stroke-linecap:round;stroke-linejoin:bevel;stroke-miterlimit:4;stroke-dasharray:none;stroke-dashoffset:0;stroke-opacity:1"
       d="M 59.6875 62.65625 C 58.68023 62.6659 57.568874 62.768141 56.5 63 C 56.287608 63.824881 56.245377 65.767322 56.25 66.65625 C 58.027098 67.423046 60.036342 67.404567 62.09375 67.09375 C 62.963493 65.87406 62.96431 64.309109 62.65625 62.90625 C 61.628888 62.742566 60.591585 62.674774 59.6875 62.65625 z M 86.34375 65.96875 C 85.961293 66.80579 85.409254 68.540382 85.34375 69.8125 C 85.84218 69.98416 86.360317 70.11404 86.9375 70.28125 C 88.947161 70.075948 91.078901 71.045149 92.9375 70.28125 C 93.151015 70.015987 93.425449 69.481878 92.75 68.90625 C 91.97306 68.131755 90.791019 67.580808 89.8125 67.0625 C 88.876456 66.70451 88.176178 66.028921 87.15625 66 C 86.885903 65.995278 86.614404 65.974883 86.34375 65.96875 z "
       id="path3385" />
    <path
       style="opacity:1;fill:#f9f9f9;fill-opacity:1;stroke:none;stroke-width:3;stroke-linecap:round;stroke-linejoin:bevel;stroke-miterlimit:4;stroke-dasharray:none;stroke-dashoffset:0;stroke-opacity:1"
       d="M 35.75,71 C 35.799887,71.06556 36.00754,71.117642 36.09375,71.09375 C 36.514579,71.160969 36.951656,71.007273 37.34375,71.21875 C 37.782884,71.510045 37.965171,72.09144 37.96875,72.59375 C 38.001683,73.038605 37.903952,73.484698 37.6875,73.875 C 36.723845,73.949576 35.872722,73.841585 35.125,73.5 C 35.15137,72.823742 35.311067,71.723051 35.5,71.375 C 35.511501,71.227183 35.72224,71.121394 35.75,71 z "
       id="path3365" />
    <path
       style="opacity:1;fill:#ffffff;fill-opacity:1;stroke:none;stroke-width:3;stroke-linecap:round;stroke-linejoin:bevel;stroke-miterlimit:4;stroke-dasharray:none;stroke-dashoffset:0;stroke-opacity:1"
       d="M 53.46875 88.53125 C 54.128524 88.957818 54.773515 89.533926 55.34375 89.96875 C 55.493509 90.125397 55.633642 90.28012 55.78125 90.4375 C 55.900744 89.822296 56.042755 89.1717 56.09375 88.78125 C 55.216746 88.697673 54.271644 88.634646 53.46875 88.53125 z M 56.625 88.84375 C 56.56866 89.548333 56.445459 90.532639 56.40625 91.09375 C 56.767557 91.485366 57.137288 91.864383 57.5 92.25 C 56.891234 91.385062 56.938675 90.157516 57.28125 88.9375 C 57.175082 88.921456 57.076034 88.888372 56.96875 88.875 C 56.883868 88.864767 56.723178 88.854214 56.625 88.84375 z M 57.625 89 C 57.756001 90.215461 57.635127 93.070319 59.34375 92.28125 C 59.448932 91.644975 59.834558 90.218802 59.96875 89.625 C 59.209897 89.367249 58.429272 89.144126 57.625 89 z M 60.375 89.75 C 60.15507 90.646325 59.827155 92.596741 59.875 92.625 C 59.91804 93.044081 60.118924 93.328377 60.40625 93.5625 L 60.5 93.5625 C 60.500361 93.57974 60.499104 93.606912 60.5 93.625 C 60.953385 93.956198 61.585739 94.180557 62.1875 94.46875 C 62.22071 93.286845 62.574828 91.619461 62.75 90.71875 C 61.955514 90.382384 61.18232 90.040439 60.375 89.75 z M 86.28125 90.78125 L 86.34375 90.875 C 86.362785 90.848753 86.387528 90.807045 86.40625 90.78125 C 86.373953 90.782454 86.316528 90.778495 86.28125 90.78125 z M 86.34375 90.875 C 85.388755 91.398571 84.464867 91.840126 83.53125 92.21875 C 83.584027 92.509392 83.61631 93.155577 83.625 93.375 C 84.476457 92.705831 85.152294 92.184156 85.71875 91.75 C 85.926853 91.46317 86.161951 91.125681 86.34375 90.875 z M 63.21875 90.90625 C 63.015096 92.071469 62.669481 94.323455 62.875 95.28125 C 63.461295 96.168966 64.416955 95.922794 65.53125 95.71875 C 65.592412 94.655211 65.839671 92.899679 65.90625 91.9375 C 65.865239 91.924933 65.822243 91.918838 65.78125 91.90625 C 64.906738 91.601336 64.060076 91.262016 63.21875 90.90625 z M 66.375 92.09375 C 66.31028 93.228529 66.040665 95.316016 66.0625 96.15625 C 67.542008 96.787618 70.181443 97.286849 70.21875 95.34375 C 70.208939 95.067121 70.246328 93.628157 70.25 93.09375 C 68.945275 92.822485 67.653773 92.481041 66.375 92.09375 z M 83.21875 92.34375 C 82.78362 92.512539 82.342907 92.676284 81.90625 92.8125 C 81.973092 93.248574 82.231153 93.80738 82.3125 94.09375 C 82.237889 94.117561 82.169596 94.123671 82 94.1875 C 82.048456 94.064114 81.677546 93.177943 81.625 92.875 C 80.723525 93.141331 79.808175 93.345127 78.875 93.46875 C 78.953618 94.183762 79.115578 94.864117 79.0625 95.4375 C 79.933215 95.185409 81.806764 94.379752 82.3125 94.125 C 82.326657 94.180472 82.350383 94.260152 82.34375 94.28125 C 81.144368 95.149211 80.428065 95.565709 79 95.78125 C 78.871889 96.229217 78.528911 96.598835 77.84375 96.8125 C 77.404397 96.807959 76.892869 96.826788 76.375 96.84375 C 76.427262 97.06552 76.504676 97.30601 76.5625 97.53125 C 78.555088 96.8484 80.338745 96.035814 81.75 94.875 C 81.999124 94.647753 82.680991 94.132093 83.28125 93.65625 C 83.27372 93.316784 83.225648 92.764029 83.21875 92.34375 z M 57.8125 92.59375 C 58.576222 93.413338 59.358734 94.241623 60.1875 95 C 60.137916 94.577663 60.109526 94.14512 60.09375 93.75 C 59.956891 93.634772 59.825968 93.499433 59.71875 93.375 C 58.864908 93.255926 58.234738 92.992274 57.8125 92.59375 z M 70.65625 93.1875 C 70.666914 93.854982 70.698923 95.357704 70.6875 95.625 C 70.616231 96.189762 70.519756 96.528338 70.34375 96.75 C 71.372223 97.07585 73.342663 96.966565 74.3125 97.0625 C 74.35135 96.608257 74.342089 94.453814 74.3125 93.5625 C 73.073145 93.566015 71.861244 93.41836 70.65625 93.1875 z M 78.375 93.53125 C 77.206868 93.65248 75.995143 93.671047 74.71875 93.5625 C 74.880214 94.651363 75.091904 95.624725 74.90625 96.40625 C 75.937099 96.282012 77.320207 96.24953 78.3125 96.25 C 78.348455 96.42119 78.441141 94.851352 78.375 93.53125 z M 60.5625 94.125 C 60.647619 94.606998 60.811225 95.138099 60.875 95.59375 C 61.262411 95.922908 61.644845 96.256904 62.0625 96.5625 C 62.640687 96.960505 63.255069 97.289881 63.875 97.59375 C 63.944116 97.139422 64.065101 96.552316 64.09375 96.15625 C 63.308908 96.062911 62.577033 95.795678 62.21875 95.25 C 62.204421 95.188037 62.196159 95.103363 62.1875 95.03125 C 61.683386 94.764504 61.089073 94.475871 60.5625 94.125 z M 65.5 96.125 C 65.24794 96.153466 64.985823 96.189279 64.71875 96.1875 C 64.670676 96.657364 64.458749 97.385026 64.40625 97.875 C 65.185818 98.217023 66.015784 98.456707 66.84375 98.65625 C 66.945 98.147137 67.077956 97.663387 67.1875 97.15625 C 66.522767 97.096843 65.919364 96.909789 65.5 96.25 C 65.499135 96.22041 65.500005 96.157938 65.5 96.125 z M 76 96.84375 C 75.550924 96.864852 75.12477 96.889091 74.71875 96.9375 C 74.534162 97.229804 74.249762 97.493958 73.8125 97.6875 C 73.420776 97.642559 72.721458 97.54636 72.0625 97.46875 C 72.06452 97.862698 72.078882 98.380313 72.09375 98.84375 C 73.44271 98.493615 74.749069 98.143327 75.96875 97.75 C 75.983087 97.447028 75.992789 97.150195 76 96.84375 z M 69.65625 97.09375 C 69.342927 97.144059 68.942277 97.166426 68.40625 97.1875 C 68.150039 97.192835 67.901817 97.189311 67.65625 97.1875 C 67.590225 97.722575 67.625103 98.313636 67.5625 98.84375 C 68.738654 99.065436 69.955897 99.148251 71.1875 99.09375 C 71.252888 99.076951 71.309822 99.04801 71.375 99.03125 C 71.3776 98.561471 71.350106 98.094761 71.34375 97.625 L 71.78125 97.4375 C 70.995468 97.339081 70.23172 97.257665 69.65625 97.09375 z "
       id="path3351" />
    <path
       style="opacity:1;fill:#e4a9b5;fill-opacity:1;stroke:none;stroke-width:3;stroke-linecap:round;stroke-linejoin:bevel;stroke-miterlimit:4;stroke-dasharray:none;stroke-dashoffset:0;stroke-opacity:1"
       d="M 55.09375 87.21875 C 54.341806 87.222717 53.611518 87.245639 52.90625 87.25 C 53.013666 87.527159 53.089252 87.810386 53.1875 88.09375 C 54.359883 88.225437 56.767876 88.228638 57.6875 88.34375 C 60.844859 88.633422 63.548069 90.390326 66.5 91.40625 C 69.398973 92.51131 72.67869 92.684813 75.75 92.8125 C 79.335665 93.525802 82.328065 92.236409 85.5 90.90625 C 84.542698 91.084957 83.261416 91.375119 82.21875 91.3125 C 79.138525 90.993436 78.08434 91.057339 75 90.78125 C 70.76106 90.664916 66.353389 89.515709 62.375 88.15625 C 60.192337 87.309379 57.575124 87.20566 55.09375 87.21875 z M 53.53125 89.125 C 53.969292 90.466862 54.41634 91.807623 55.09375 93.0625 C 57.646338 99.125212 61.979432 100.9734 67.65625 102.21875 C 71.320824 102.74782 75.394979 102.41549 78.40625 100.09375 C 80.495127 98.636071 83.049392 95.357989 84.96875 92.75 C 84.219939 93.320511 83.406079 93.95414 82.90625 94.40625 C 79.48299 97.377505 74.611184 99.128774 70.15625 99.8125 C 66.947585 99.427991 63.804861 98.59144 61.0625 96.84375 C 58.84838 95.476461 57.467952 93.331347 55.8125 91.40625 L 55.625 91.40625 C 55.624877 91.369053 55.650821 91.272764 55.65625 91.21875 C 55.320914 90.835956 54.961408 90.479557 54.59375 90.125 C 54.156703 89.787427 53.85778 89.435162 53.53125 89.125 z "
       id="path3353" />
    <path
       style="fill:#ffffff;fill-rule:evenodd;stroke:none;stroke-width:1px;stroke-linecap:butt;stroke-linejoin:miter;stroke-opacity:1;filter:url(#filter5480);fill-opacity:0.46961325"
       d="M 81 32.46875 C 79.976753 32.470355 78.983992 32.527439 78.09375 32.75 C 76.744427 33.08733 75.617777 33.413945 74.40625 33.65625 C 73.308787 33.875743 73.473176 34.144635 72.125 33.875 C 71.18492 34.224324 69.18653 33.734133 68 33.4375 C 67.851904 33.400477 67.715154 33.4375 67.5625 33.4375 C 65.574955 33.437501 63.981597 32.426476 61.8125 32.96875 C 60.395226 33.323068 59.897524 33.784902 59.53125 35.25 C 59.196074 36.590699 58.971575 37.79255 59.3125 39.15625 C 59.808237 41.1392 61.023443 42.492192 62.5 43.96875 C 64.010601 45.479349 67.188498 45.453292 69.15625 45.78125 C 71.296814 46.138013 74.39361 45.977528 76.46875 45.5625 C 80.280723 44.800104 84.254761 44.749048 88.15625 43.96875 C 92.037273 43.192545 92.0625 42.278954 92.0625 38.9375 C 92.062502 35.376675 91.540152 35.402583 87.9375 33.4375 C 86.569106 32.691104 85.674198 32.5 84.03125 32.5 C 83.060993 32.5 82.023247 32.467145 81 32.46875 z M 74.46875 62.6875 C 74.454981 62.558028 73.599489 66.039541 73.28125 67.3125 C 72.911071 68.79321 72.476604 70.249835 72.125 71.65625 C 71.784681 73.017539 71.65625 74.556496 71.65625 76.03125 C 71.656254 77.829187 71.144398 78.605602 69.84375 79.90625 C 69.00288 80.747122 72.818006 82.4375 73.71875 82.4375 C 75.216893 82.437501 76.1977 80.7296 76.71875 79.6875 C 77.145033 78.834941 76.71875 76.522346 76.71875 75.5625 C 76.718753 73.606002 76.46875 71.678446 76.46875 69.625 C 76.468747 67.793159 76.46875 65.956843 76.46875 64.125 C 76.468747 62.524159 75.474887 62.541295 74.40625 62.96875 C 74.443012 62.784942 74.470717 62.705996 74.46875 62.6875 z M 52.90625 69.15625 C 51.265804 69.156253 52.174046 70.691842 52.65625 71.65625 C 53.28844 72.920633 53.372122 74.244245 54.03125 75.5625 C 54.588555 76.677109 55.796564 77.592507 56.09375 78.78125 C 56.496576 80.392546 58.435196 79.548027 59.53125 79 C 61.054312 78.238464 61.196859 77.380473 62.96875 76.9375 C 64.909658 76.452275 65.491028 76.924194 66.40625 75.09375 C 66.998055 73.91015 67.081006 72.376218 67.3125 71.21875 C 67.44617 70.550405 67.640037 69.862314 67.78125 69.15625 C 66.972835 69.317936 63.935212 69.375 62.28125 69.375 C 60.740099 69.375003 59.266396 69.625 57.6875 69.625 C 56.162482 69.625002 54.588146 69.15625 52.90625 69.15625 z M 82.625 70.96875 C 82.361093 70.970623 82.218751 71.104254 82.21875 71.4375 C 81.837116 71.666481 81.062498 71.679945 81.0625 72.125 C 81.0625 73.243931 80.793487 74.705206 81.0625 75.78125 C 81.386352 77.076659 81.316328 79.452164 83.125 79 C 84.250311 78.718672 84.300269 76.937502 85.40625 76.9375 C 86.780132 76.9375 88.157371 76.937502 89.53125 76.9375 C 90.402885 76.9375 92.336442 76.882305 92.96875 76.25 C 93.654219 75.564531 94.464177 74.307927 93.4375 73.28125 C 92.711938 72.555688 92.241522 72.593751 90.6875 72.59375 C 89.148138 72.59375 87.495197 72.694114 86.09375 72.34375 C 85.123857 72.101277 83.416722 70.96313 82.625 70.96875 z "
       id="path4402" />
    <path
       style="opacity:1;fill:#000000;fill-opacity:1;stroke:none;stroke-width:3;stroke-linecap:round;stroke-linejoin:bevel;stroke-miterlimit:4;stroke-dasharray:none;stroke-dashoffset:0;stroke-opacity:1"
       d="M 65.8125,5.75 C 62.357463,5.8091094 58.749675,6.6958765 56.125,9 C 54.689843,10.477359 54.235722,11.444884 52.65625,11.75 C 51.581962,10.251635 48.067991,8.8821834 46.75,9.5 C 45.071704,10.322321 43.666067,11.235622 43.1875,13.125 C 42.982212,14.072449 44.340601,16.586678 45.53125,17.5 C 42.376027,18.196664 40.204624,20.713563 37.6875,22.53125 C 34.889889,24.303491 34.454073,27.770686 33.78125,30.71875 C 32.27374,35.127892 31.577592,39.812064 31.875,44.46875 C 32.269054,46.442466 32.827184,48.380338 33.5,50.28125 C 32.874563,49.723052 32.225352,49.425679 31.8125,49.84375 C 30.275478,50.314181 29.132405,53.213121 29.25,54.6875 C 29.439173,57.475407 29.896335,59.943786 30.28125,62.71875 C 30.360197,65.047545 30.417159,67.409242 31.125,69.65625 C 31.421961,71.16719 32.148996,72.59773 33.375,73.5625 C 34.159719,74.410948 35.273195,74.833782 36.40625,74.875 C 35.877365,75.49849 36.563062,76.369187 37,77.6875 C 37.214675,78.190486 37.372803,78.731523 37.53125,79.28125 C 36.842734,85.094222 34.161127,90.622308 32.34375,92.40625 C 29.586964,94.83333 26.359914,97.559232 23.4375,99.78125 C 20.517103,101.43707 19.000382,103.81648 19.75,107.03125 C 21.013768,111.23465 25.126974,113.48039 28.53125,115.78125 C 32.558182,117.78764 36.203261,120.54784 40.46875,122.0625 C 43.966123,123.61138 47.512905,125.27704 51.25,125.75 C 59.555306,125.70345 68.170486,125.725 76.46875,124.875 C 79.029515,124.13044 82.303103,122.6273 82.4375,119.5625 C 82.987585,116.23069 77.805695,114.6075 77.65625,111.375 C 77.650524,110.63924 77.731664,109.94692 77.75,109.4375 C 79.303919,107.39528 80.723306,105.98339 83.15625,104.59375 C 89.50372,101.59331 91.367901,98.483966 93.9375,94.65625 C 96.234444,92.153802 96.251616,88.772247 97.09375,85.6875 C 98.16939,82.632703 97.574577,79.601264 98.03125,76.4375 C 97.937715,75.614762 99.678664,70.415086 99.90625,67.9375 C 100.114,67.843419 100.33323,67.590547 100.53125,67.15625 C 100.41985,65.111698 100.11049,63.130601 100.03125,61.15625 C 100.08752,61.004565 100.14161,60.868021 100.21875,60.71875 C 102.24351,58.325568 104.26536,55.818091 104.6875,52.5625 C 105.80813,48.122603 106.10178,43.530816 105.96875,38.96875 C 105.78588,34.736223 104.67816,30.569353 101.84375,27.15625 C 101.1831,26.488289 100.53068,25.769116 99.90625,25.03125 C 100.18958,25.091226 100.50415,25.127526 100.8125,25.09375 C 102.005,24.886959 103.72758,24.479692 103.75,22.96875 C 103.26909,21.258564 102.6988,21.223223 102.5625,19.46875 C 102.52183,18.343526 101.52634,17.873093 100.15625,17.96875 C 99.393034,18.305694 98.856551,18.045285 98.40625,17.84375 C 98.373281,17.392353 98.050672,16.844635 97.59375,16.09375 C 96.016881,13.163872 92.110262,13.278291 89.75,11.1875 C 87.243998,9.1469944 84.046937,8.5373762 80.90625,8.375 C 79.19601,7.7256066 77.043119,8.519764 76.09375,9.65625 C 74.088294,7.371752 70.140841,6.3787125 67.28125,5.78125 C 66.796524,5.7575673 66.306077,5.7415558 65.8125,5.75 z M 63.9375,6.75 C 65.768069,6.6524 67.581998,6.9229716 69.21875,7.84375 C 72.354225,8.7974099 75.087211,11.338247 76.53125,14.125 C 78.759417,19.414507 79.779414,25.160014 80.96875,30.78125 C 80.51319,31.3721 80.27804,32.479808 79.78125,32.875 C 78.528289,33.90307 77.043091,32.342895 75.4375,32.21875 C 71.999189,32.2895 69.560189,32.43825 66.5,31.28125 C 63.532516,30.061259 58.899047,31.133753 56.875,28.53125 C 55.099072,26.862483 54.889312,23.342291 53.8125,21.3125 C 52.922385,19.568107 49.861172,17.976321 48.3125,16.59375 C 48.467215,16.441429 48.632273,16.270944 48.78125,16.125 C 50.692819,14.446301 47.902026,14.710004 50.84375,14.6875 C 53.216753,14.114506 56.514374,8.7985983 58.5625,7.875 C 60.250084,7.3133196 62.106931,6.8476 63.9375,6.75 z M 81.3125,9.625 C 81.537225,9.5955794 81.722427,9.5923485 81.875,9.625 C 85.118357,9.6576318 87.648448,11.809865 90.3125,13.34375 C 92.799057,14.385863 95.828451,15.371513 96.75,18.0625 C 96.684823,18.103448 96.636344,18.110764 96.5625,18.15625 C 96.568026,21.314432 97.819458,24.451874 100.28125,26.5 C 103.02738,29.059427 104.0104,32.837416 104.21875,36.46875 C 104.73061,43.058523 104.47748,49.873955 102.25,56.15625 C 101.8887,57.510222 100.93723,58.56294 100.03125,59.625 C 100.06855,58.438579 100.19967,57.249725 100.5625,56.0625 C 101.68274,52.724485 102.76995,48.960884 102.375,45.5 C 101.62375,42.946023 103.42242,39.194134 101.15625,37.4375 C 98.035004,37.252312 95.145971,36.01014 92.15625,35.21875 C 88.749279,34.543416 85.026332,31.360023 83.897138,28.3125 C 83.234794,23.808389 82.837026,19.469123 80.636348,15.41648 C 79.512167,13.66666 79.500803,12.026273 77.375,11.46875 C 77.300257,11.338347 77.205765,11.221595 77.125,11.09375 C 78.022824,10.713394 80.072155,9.787384 81.3125,9.625 z M 49.0625,10.84375 C 49.559122,10.792789 49.93034,10.948049 50,11.65625 C 50.256518,11.474022 50.931143,11.728809 51.5625,12 C 50.381982,12.535348 49.646182,13.555586 48.9375,14.59375 C 48.100113,14.977704 47.243417,15.335824 46.3125,15.375 C 44.659878,15.605582 44.003449,14.9312 44.5,13.6875 C 44.801358,12.481591 45.946461,11.481859 47.28125,11.21875 C 47.924003,11.140878 48.565878,10.894711 49.0625,10.84375 z M 79.125,16.5 C 80.927215,19.188771 80.952973,22.239292 81.449407,25.01023 C 81.786561,28.097486 84.206683,31.063062 86.4375,33.40625 C 88.159097,36.072854 91.579559,36.237025 94.28125,37.25 C 96.169827,38.674219 100.21178,38.497329 100.9375,39.25 C 100.67982,43.372744 101.21073,48.131379 101.0625,52.25 C 100.68263,55.078285 99.748492,57.818768 99.25,60.625 C 98.544511,61.59306 98.021598,62.634636 98.1875,64 C 97.95393,64.737391 98.310953,66.356347 98.875,67.28125 C 97.658054,69.619289 97.607657,76.402348 96.90625,78.40625 C 96.86162,82.013272 95.75134,85.431924 94.9375,88.90625 C 93.68949,96.390313 87.429856,101.80465 81.0625,105.09375 C 77.847413,106.78899 76.073169,109.24396 73.53125,111.65625 C 72.864972,111.97097 71.086899,112.84594 70.5625,112.8125 C 66.960253,114.34737 62.900364,113.09268 59.71875,111.15625 C 57.134545,108.84996 54.617906,107.29846 52.625,104.40625 C 50.538444,101.02699 47.11874,98.012154 44.71875,94.875 C 42.268143,92.178475 40.429294,89.475991 40,85.84375 C 39.796407,82.610708 38.330384,77.994964 37.5625,74.75 C 37.893585,74.684839 38.224039,74.598282 38.53125,74.46875 C 38.979918,74.23805 40.967095,72.693477 40.28125,73 C 39.941624,73.260561 39.13955,73.267146 39.09375,73.6875 C 38.903296,73.699255 38.640786,73.736592 38.375,73.78125 C 38.42871,73.706348 38.488682,73.645778 38.53125,73.5625 C 38.794468,72.998898 38.864305,72.331015 38.75,71.71875 C 38.677466,71.26426 38.432258,70.825418 38,70.625 C 37.122255,70.267072 36.115856,70.449493 35.34375,70.96875 C 34.672004,71.428369 34.352877,72.264059 34.375,73.0625 C 34.034708,72.806134 33.737936,72.47768 33.46875,72.09375 C 32.443466,70.002843 32.067183,66.621616 31.90625,64.3125 C 31.90953,61.946447 30.800939,59.620851 30.90625,57.25 C 30.99614,55.479689 31.263824,52.949197 32,51.0625 C 32.396734,51.577703 33.261792,52.245212 33.125,52.96875 C 33.445881,52.787191 34.143469,53.143709 34.65625,53.25 C 35.02476,54.175823 35.402163,55.114889 35.78125,56.03125 C 36.596164,59.475695 40.436512,59.839739 42.71875,57.59375 C 46.04866,55.110011 46.385764,50.659692 47.15625,46.90625 C 47.537805,42.525844 49.3214,38.350706 52.15625,35 C 54.694154,32.896762 55.700823,29.281547 53.78125,26.40625 C 52.521447,23.399088 48.989583,20.218241 48.375,16.9375 C 49.508007,18.281255 51.012928,20.526476 51.90625,21.625 C 53.603648,23.529841 54.040387,27.312568 55.59375,29.28125 C 57.400684,31.72155 60.882706,30.563666 63.6875,31.65625 C 65.896853,32.51309 67.966459,33.632826 70.03125,34.78125 C 72.062265,35.858407 74.222374,34.882342 76.46875,34.40625 C 78.681237,33.514036 81.802394,33.953681 83.40625,32.125 C 83.02164,31.771705 82.770215,31.520782 82.5,31.25 C 82.683528,28.630539 81.084243,25.471467 80.625,22.65625 C 79.916012,20.67982 79.573949,18.556185 79.125,16.5 z M 48.1875,16.71875 C 48.223885,16.759996 48.275128,16.800145 48.3125,16.84375 C 48.11853,16.884609 47.977978,16.942579 47.84375,17.03125 C 47.95579,16.921973 48.078082,16.82634 48.1875,16.71875 z M 47.5,17.375 C 46.780015,18.5222 48.077757,21.062191 49.125,22.03125 C 51.534619,24.468329 53.518033,27.410417 53.21875,31.1875 C 52.840094,34.361758 49.518662,36.088584 48.34375,38.96875 C 46.149011,42.292277 45.898614,46.308642 45.125,50.09375 C 44.649098,52.965942 43.820081,55.866661 41.59375,57.875 C 40.988338,58.060775 39.668182,58.343123 39.03125,57.71875 C 36.619435,55.081591 35.937596,51.393117 34.625,48.15625 C 32.778638,43.873158 33.264169,39.09057 34.03125,34.625 C 34.936102,31.679228 36.060015,29.337728 36.875,26.375 C 37.646826,23.219725 40.786759,23.011257 42.6875,20.71875 C 44.412486,20.201879 46.043105,18.773687 47.5,17.375 z M 98.375,18.15625 C 98.804067,18.416077 98.724435,19.141331 99.78125,19.6875 C 100.91535,20.853444 101.7123,19.30087 101.78125,20.78125 C 101.71289,21.812495 102.50741,23.327126 101.5625,24.03125 C 100.16161,23.092807 98.618995,24.102842 98.34375,22.59375 C 97.996104,21.674769 97.78874,21.260857 97.6875,21.1875 C 97.507746,20.576512 97.376476,19.957635 97.375,19.28125 C 97.400855,19.154232 97.385313,19.109167 97.40625,19 C 97.969426,18.749769 98.289456,18.495025 98.375,18.15625 z M 45.09375,56.75 C 44.893055,58.879622 45.34713,60.799626 46.96875,62.3125 C 47.605114,62.856134 49.669483,62.60799 50.4375,62.90625 L 50.21875,62.75 C 49.455405,62.467961 47.926208,62.457233 47.28125,61.9375 C 46.038902,60.537693 45.192829,58.884675 45.34375,56.8125 L 45.09375,56.75 z M 57.09375,58.3125 C 56.089812,58.463447 54.822028,59.190877 53.90625,59.28125 C 53.563814,59.538323 51.851907,59.840859 52.125,59.96875 C 53.677188,59.771786 56.34755,60.12628 57.90625,60.09375 C 61.578986,60.000669 65.447022,59.226952 68.53125,61.75 C 69.942094,62.042568 69.269617,63.150879 70.4375,62.40625 C 70.561672,61.262177 71.666562,60.214553 69.59375,59.9375 C 68.76211,59.685678 67.302491,58.925553 66.4375,58.90625 C 63.234776,59.000632 60.703679,58.313253 57.5,58.3125 C 57.368694,58.307458 57.23717,58.290936 57.09375,58.3125 z M 36.34375,58.78125 C 35.413194,59.842528 33.986391,63.406875 33.6875,64.75 C 33.435826,66.002108 34.438952,69.154377 34.90625,70.28125 L 35.71875,69.59375 C 35.274716,68.49752 34.980595,65.181324 35.25,63.96875 C 35.573843,62.655538 36.318631,60.450918 37.28125,59.4375 L 36.34375,58.78125 z M 89.78125,61.59375 C 88.292591,61.593122 86.269996,61.688158 84.78125,61.6875 L 81.1875,63.46875 C 82.66761,63.468132 85.926233,63.156874 87.40625,63.15625 C 88.733176,63.154433 90.61058,63.588566 91.9375,63.59375 C 93.154555,63.428142 93.859251,63.693088 94.78125,64.375 L 96.71875,64.03125 C 94.764083,62.773992 92.373569,61.710437 89.78125,61.59375 z M 60.125,61.96875 C 58.078554,62.2098 56.056759,62.569056 54.0625,63.09375 C 52.188713,64.349862 52.677884,65.086667 54.09375,66.125 C 54.987133,66.656585 55.932566,67.096112 56.875,67.53125 C 57.912155,67.966198 59.021063,67.995571 60.125,68.03125 C 61.189744,68.002673 62.194403,67.702382 63.21875,67.4375 C 65.00088,67.001962 66.654737,66.279173 68.25,65.375 C 68.312707,65.379702 68.349168,65.359858 68.40625,65.34375 C 68.401075,65.321936 68.411747,65.302604 68.40625,65.28125 L 68.375,65.28125 C 68.065711,64.094243 67.291478,63.608693 66.25,63.09375 C 64.287259,62.343767 62.243846,61.875072 60.125,61.96875 z M 59.6875,62.65625 C 60.591585,62.674774 61.628888,62.742566 62.65625,62.90625 C 62.96431,64.309109 62.963493,65.87406 62.09375,67.09375 C 60.036342,67.404567 58.027098,67.423046 56.25,66.65625 C 56.245377,65.767322 56.287608,63.824881 56.5,63 C 57.568874,62.768141 58.68023,62.6659 59.6875,62.65625 z M 79.9375,62.875 C 79.498364,63.077744 79.024312,63.262963 78.75,64.125 C 77.219304,67.15359 77.310089,69.716653 77.53125,72.0625 L 78.0625,71.15625 C 78.042991,68.825112 79.306453,65.120591 79.9375,62.875 z M 63.40625,63.0625 C 64.251504,63.231867 65.051752,63.462663 65.75,63.75 C 66.58331,64.33672 67.206343,64.835598 67.6875,65.125 C 66.653786,65.620659 65.335949,66.514388 64.25,66.6875 C 63.867141,66.777586 63.475792,66.862609 63.09375,66.9375 C 63.676454,65.770053 63.849801,64.323536 63.40625,63.0625 z M 55.8125,63.15625 C 55.640251,63.91436 55.66149,65.461789 55.6875,66.375 C 54.824986,65.911097 54.032633,65.25482 53.3125,64.34375 C 54.02335,63.802636 54.888702,63.416504 55.8125,63.15625 z M 61,63.5 C 60.816114,63.51566 60.621387,63.515588 60.4375,63.53125 L 59.8125,64 C 58.701124,64.43884 59.016744,64.846228 58.90625,66 L 60.5625,65.75 C 60.658704,65.107977 61.497476,63.533028 60.46875,64.34375 L 60.84375,63.6875 C 60.769662,63.706985 60.724688,63.73114 60.65625,63.75 L 61,63.5 z M 85.8125,65.25 C 85.582855,65.239853 85.348974,65.263201 85.09375,65.28125 C 84.094484,65.429159 83.107734,65.572735 82.125,65.8125 L 81.3125,66.4375 L 81.09375,66.5 C 81.639351,67.478879 82.268807,69.004714 83.3125,69.5 C 84.177051,70.04722 85.048221,70.344859 86.03125,70.65625 C 86.993049,70.810207 87.929597,71.121663 88.90625,71.125 C 89.960959,71.191335 91.153135,71.291823 92.1875,71 C 93.709912,70.183487 94.419164,70.035691 93.125,68.40625 C 92.333488,67.625076 91.389043,67.164393 90.40625,66.625 C 89.462421,66.253029 88.907731,65.476676 87.875,65.4375 C 87.108403,65.42273 86.501435,65.280442 85.8125,65.25 z M 85.625,65.96875 C 85.656205,65.968986 85.687543,65.96842 85.71875,65.96875 C 85.237784,66.833126 84.550664,68.272579 84.46875,69.40625 C 84.417712,69.376916 84.363948,69.375965 84.3125,69.34375 C 83.358178,68.889732 82.11629,67.473794 82,66.40625 C 82.693122,66.269035 83.39529,66.139539 84.09375,66.03125 C 84.602049,65.987212 85.115107,65.964897 85.625,65.96875 z M 86.34375,65.96875 C 86.614404,65.974883 86.885903,65.995278 87.15625,66 C 88.176178,66.028921 88.876456,66.70451 89.8125,67.0625 C 90.791019,67.580808 91.97306,68.131755 92.75,68.90625 C 93.425449,69.481878 93.151015,70.015987 92.9375,70.28125 C 91.078901,71.045149 88.947161,70.075948 86.9375,70.28125 C 86.360317,70.11404 85.84218,69.98416 85.34375,69.8125 C 85.409254,68.540382 85.961293,66.80579 86.34375,65.96875 z M 88.65625,67.375 L 87.65625,68.28125 C 87.513535,69.290763 87.813469,69.24651 88.4375,69.65625 L 89.75,69.25 C 90.460414,68.673619 89.979914,67.444514 88.65625,67.375 z M 67.25,68.15625 C 66.296392,68.514465 65.063841,68.979817 64.03125,69 C 61.685471,69.278482 59.514021,69.339251 57.1875,69.03125 L 56.9375,69.25 C 59.01832,69.900328 61.124832,69.968607 63.28125,69.59375 C 64.313373,69.569326 66.319518,68.684997 67.28125,68.34375 L 67.25,68.15625 z M 35.75,71 C 35.799887,71.06556 36.00754,71.117642 36.09375,71.09375 C 36.514579,71.160969 36.951656,71.007273 37.34375,71.21875 C 37.782884,71.510045 37.965171,72.09144 37.96875,72.59375 C 38.001683,73.038605 37.903952,73.484698 37.6875,73.875 C 36.723845,73.949576 35.872722,73.841585 35.125,73.5 C 35.15137,72.823742 35.311067,71.723051 35.5,71.375 C 35.511501,71.227183 35.72224,71.121394 35.75,71 z M 81.75,71.09375 L 81.71875,71.25 C 82.68048,71.591249 84.686626,72.506827 85.71875,72.53125 C 87.875166,72.90611 89.98168,72.837827 92.0625,72.1875 L 91.8125,71.96875 C 89.485977,72.276754 87.314529,72.215983 84.96875,71.9375 C 83.936164,71.91732 82.703608,71.451965 81.75,71.09375 z M 63.96875,76.6875 C 62.966164,76.714616 61.998649,76.963021 61.03125,77.3125 C 59.421162,78.136325 54.644346,82.083515 54.625,82.1875 C 53.012404,82.923635 50.853566,83.93021 49.09375,84.09375 L 48.25,84.59375 C 49.112716,84.461706 49.99092,84.345091 50.84375,84.15625 C 51.602562,85.090678 52.293314,86.732314 52.3125,87.90625 C 52.680536,89.953001 53.393045,91.820932 54.5,93.59375 C 55.578228,95.386283 56.717097,97.147549 58.0625,98.75 C 60.591169,100.68089 63.505373,102.26526 66.625,102.96875 C 71.288503,103.4686 75.925714,102.83192 79.59375,99.625 C 82.047142,97.554522 83.952169,96.05267 85.59375,93.25 C 86.139705,91.945835 86.647713,90.908403 87.125,89.875 C 83.366793,90.928161 79.542477,90.443846 75.6875,90.09375 C 71.496275,89.969455 67.256081,89.240439 63.3125,87.875 C 59.862482,86.639878 56.391312,86.658702 52.78125,86.96875 C 52.356577,85.925572 51.817789,84.947013 51.0625,84.09375 C 51.856072,83.904129 52.62166,83.661276 53.34375,83.25 C 58.258453,80.369922 60.469406,76.833512 64.875,77.09375 L 64.96875,76.75 C 64.621353,76.70387 64.302945,76.678461 63.96875,76.6875 z M 68,76.84375 C 65.997812,76.94226 64.394193,78.156285 63.09375,79.59375 C 62.334282,81.270819 62.7615,82.091519 63.90625,83.34375 C 65.097342,84.058618 66.279094,84.156014 67.59375,84.0625 C 69.019842,84.115893 69.659018,84.847419 70.40625,85.90625 C 71.645948,86.77673 72.944538,86.528627 74.34375,86.28125 C 75.51154,85.986157 76.572835,85.912817 77.75,85.65625 C 80.264083,84.583567 80.950142,83.707365 79.9375,81.4375 C 79.435348,80.712536 79.010378,79.945503 78.5625,79.1875 C 78.246218,79.371307 78.598945,79.850772 78.15625,79.625 C 78.60387,80.380332 78.627911,81.349688 79.09375,82.09375 C 79.748945,83.56682 79.408873,85.033309 79.25,84.40625 C 78.065865,84.655657 76.10156,84.917981 74.9375,85.25 C 73.609369,85.504773 72.555986,86.547426 71.34375,85.78125 C 70.565701,84.695579 70.552601,82.799547 69.09375,82.6875 C 67.819141,82.793882 65.995738,83.712918 64.8125,83.09375 C 63.719065,81.916767 63.117205,81.155752 63.90625,79.59375 C 64.834199,78.614847 66.689159,77.87264 68,76.84375 z M 80.84375,79.125 L 80.34375,79.4375 C 81.543025,81.947697 82.353342,84.635002 84.40625,86.65625 C 86.256601,88.646017 89.066281,89.863188 89.6875,92.625 L 90.46875,92.46875 C 89.580815,89.606815 87.831413,87.941949 85.90625,85.75 C 84.16316,83.576733 82.706358,81.204519 80.84375,79.125 z M 38,81.21875 C 38.822787,85.403593 38.930058,90.245018 41.4375,93.4375 C 43.819832,96.991484 48.219789,100.71147 50.6875,104.1875 C 53.455748,107.72062 54.565773,109.01511 57.46875,111.46875 C 60.167851,113.60783 63.831557,114.8765 67.28125,114.375 C 70.594026,113.51923 74.671258,113.19421 76.9375,110.5 C 77.291391,112.90177 78.241734,115.67561 79.9375,117.15625 C 82.107413,119.41541 80.607959,123.87019 77.28125,123.84375 C 69.548244,124.86257 61.779406,124.90767 54.03125,124.96875 C 50.581675,124.67306 47.040069,122.7963 43.71875,121.75 C 39.392465,120.47956 35.656544,117.96413 31.75,115.8125 C 28.635437,114.02449 25.379275,112.18046 23.03125,109.40625 C 20.67948,106.9106 20.286696,104.55227 22.40625,101.84375 C 24.791776,99.223621 28.280389,95.861045 31.15625,93.84375 C 34.297269,92.357597 37.274383,87.208298 38,81.21875 z M 55.09375,87.21875 C 57.575124,87.20566 60.192337,87.309379 62.375,88.15625 C 66.353389,89.515709 70.76106,90.664916 75,90.78125 C 78.08434,91.057339 79.138525,90.993436 82.21875,91.3125 C 83.261416,91.375119 84.542698,91.084957 85.5,90.90625 C 82.328065,92.236409 79.335665,93.525802 75.75,92.8125 C 72.67869,92.684813 69.398973,92.51131 66.5,91.40625 C 63.548069,90.390326 60.844859,88.633422 57.6875,88.34375 C 56.767876,88.228638 54.359883,88.225437 53.1875,88.09375 C 53.089252,87.810386 53.013666,87.527159 52.90625,87.25 C 53.611518,87.245639 54.341806,87.222717 55.09375,87.21875 z M 53.46875,88.53125 C 54.271644,88.634646 55.216746,88.697673 56.09375,88.78125 C 56.042755,89.1717 55.900744,89.822296 55.78125,90.4375 C 55.633642,90.28012 55.493509,90.125397 55.34375,89.96875 C 54.773515,89.533926 54.128524,88.957818 53.46875,88.53125 z M 56.625,88.84375 C 56.723178,88.854214 56.883868,88.864767 56.96875,88.875 C 57.076034,88.888372 57.175082,88.921456 57.28125,88.9375 C 56.889736,90.331804 56.898222,91.730821 57.8125,92.59375 C 58.234738,92.992274 58.864908,93.255926 59.71875,93.375 C 59.825968,93.499433 59.956891,93.634772 60.09375,93.75 C 60.109526,94.14512 60.137916,94.577663 60.1875,95 C 59.358734,94.241623 58.576222,93.413338 57.8125,92.59375 C 57.346858,92.094046 56.873005,91.59966 56.40625,91.09375 C 56.445459,90.532639 56.56866,89.548333 56.625,88.84375 z M 57.625,89 C 58.429272,89.144126 59.209897,89.367249 59.96875,89.625 C 59.834558,90.218802 59.448932,91.644975 59.34375,92.28125 C 57.635127,93.070319 57.756001,90.215461 57.625,89 z M 53.53125,89.125 C 53.85778,89.435162 54.156703,89.787427 54.59375,90.125 C 54.961408,90.479557 55.320914,90.835956 55.65625,91.21875 C 55.650821,91.272764 55.624877,91.369053 55.625,91.40625 L 55.8125,91.40625 C 57.467952,93.331347 58.84838,95.476461 61.0625,96.84375 C 63.804861,98.59144 66.947585,99.427991 70.15625,99.8125 C 74.611184,99.128774 79.48299,97.377505 82.90625,94.40625 C 83.406079,93.95414 84.219939,93.320511 84.96875,92.75 C 83.049392,95.357989 80.495127,98.636071 78.40625,100.09375 C 75.394979,102.41549 71.320824,102.74782 67.65625,102.21875 C 61.979432,100.9734 57.646338,99.125212 55.09375,93.0625 C 54.41634,91.807623 53.969292,90.466862 53.53125,89.125 z M 60.375,89.75 C 61.18232,90.040439 61.955514,90.382384 62.75,90.71875 C 62.574828,91.619461 62.22071,93.286845 62.1875,94.46875 C 61.585739,94.180557 60.953385,93.956198 60.5,93.625 C 60.499104,93.606912 60.500361,93.57974 60.5,93.5625 L 60.40625,93.5625 C 60.118924,93.328377 59.91804,93.044081 59.875,92.625 C 59.827155,92.596741 60.15507,90.646325 60.375,89.75 z M 86.28125,90.78125 C 86.316528,90.778495 86.373953,90.782454 86.40625,90.78125 C 86.387528,90.807045 86.362785,90.848753 86.34375,90.875 C 86.161951,91.125681 85.926853,91.46317 85.71875,91.75 C 85.152294,92.184156 84.476457,92.705831 83.625,93.375 C 83.61631,93.155577 83.584027,92.509392 83.53125,92.21875 C 84.464867,91.840126 85.388755,91.398571 86.34375,90.875 L 86.28125,90.78125 z M 63.21875,90.90625 C 64.060076,91.262016 64.906738,91.601336 65.78125,91.90625 C 65.822243,91.918838 65.865239,91.924933 65.90625,91.9375 C 65.839671,92.899679 65.592412,94.655211 65.53125,95.71875 C 64.416955,95.922794 63.461295,96.168966 62.875,95.28125 C 62.669481,94.323455 63.015096,92.071469 63.21875,90.90625 z M 66.375,92.09375 C 67.653773,92.481041 68.945275,92.822485 70.25,93.09375 C 70.246328,93.628157 70.208939,95.067121 70.21875,95.34375 C 70.181443,97.286849 67.542008,96.787618 66.0625,96.15625 C 66.040665,95.316016 66.31028,93.228529 66.375,92.09375 z M 83.21875,92.34375 C 83.225648,92.764029 83.27372,93.316784 83.28125,93.65625 C 82.680991,94.132093 81.999124,94.647753 81.75,94.875 C 80.338745,96.035814 78.555088,96.8484 76.5625,97.53125 C 76.504676,97.30601 76.427262,97.06552 76.375,96.84375 C 76.892869,96.826788 77.404397,96.807959 77.84375,96.8125 C 78.528911,96.598835 78.871889,96.229217 79,95.78125 C 80.428065,95.565709 81.144368,95.149211 82.34375,94.28125 C 82.350383,94.260152 82.326657,94.180472 82.3125,94.125 C 81.806764,94.379752 79.933215,95.185409 79.0625,95.4375 C 79.115578,94.864117 78.953618,94.183762 78.875,93.46875 C 79.808175,93.345127 80.723525,93.141331 81.625,92.875 C 81.677546,93.177943 82.048456,94.064114 82,94.1875 C 82.169596,94.123671 82.237889,94.117561 82.3125,94.09375 C 82.231153,93.80738 81.973092,93.248574 81.90625,92.8125 C 82.342907,92.676284 82.78362,92.512539 83.21875,92.34375 z M 82.3125,94.09375 C 82.315819,94.105435 82.309789,94.114378 82.3125,94.125 C 82.459004,94.051202 82.463006,94.045718 82.3125,94.09375 z M 70.65625,93.1875 C 71.861244,93.41836 73.073145,93.566015 74.3125,93.5625 C 74.342089,94.453814 74.35135,96.608257 74.3125,97.0625 C 73.342663,96.966565 71.372223,97.07585 70.34375,96.75 C 70.519756,96.528338 70.616231,96.189762 70.6875,95.625 C 70.698923,95.357704 70.666914,93.854982 70.65625,93.1875 z M 78.375,93.53125 C 78.441141,94.851352 78.348455,96.42119 78.3125,96.25 C 77.320207,96.24953 75.937099,96.282012 74.90625,96.40625 C 75.091904,95.624725 74.880214,94.651363 74.71875,93.5625 C 75.995143,93.671047 77.206868,93.65248 78.375,93.53125 z M 60.5625,94.125 C 61.089073,94.475871 61.683386,94.764504 62.1875,95.03125 C 62.196159,95.103363 62.204421,95.188037 62.21875,95.25 C 62.577033,95.795678 63.308908,96.062911 64.09375,96.15625 C 64.065101,96.552316 63.944116,97.139422 63.875,97.59375 C 63.255069,97.289881 62.640687,96.960505 62.0625,96.5625 C 61.644845,96.256904 61.262411,95.922908 60.875,95.59375 C 60.811225,95.138099 60.647619,94.606998 60.5625,94.125 z M 65.5,96.125 C 65.500005,96.157938 65.499135,96.22041 65.5,96.25 C 65.919364,96.909789 66.522767,97.096843 67.1875,97.15625 C 67.077956,97.663387 66.945,98.147137 66.84375,98.65625 C 66.015784,98.456707 65.185818,98.217023 64.40625,97.875 C 64.458749,97.385026 64.670676,96.657364 64.71875,96.1875 C 64.985823,96.189279 65.24794,96.153466 65.5,96.125 z M 76,96.84375 C 75.992789,97.150195 75.983087,97.447028 75.96875,97.75 C 74.749069,98.143327 73.44271,98.493615 72.09375,98.84375 C 72.078882,98.380313 72.06452,97.862698 72.0625,97.46875 C 72.721458,97.54636 73.420776,97.642559 73.8125,97.6875 C 74.249762,97.493958 74.534162,97.229804 74.71875,96.9375 C 75.12477,96.889091 75.550924,96.864852 76,96.84375 z M 69.65625,97.09375 C 70.23172,97.257665 70.995468,97.339081 71.78125,97.4375 L 71.34375,97.625 C 71.350106,98.094761 71.3776,98.561471 71.375,99.03125 C 71.309822,99.04801 71.252888,99.076951 71.1875,99.09375 C 69.955897,99.148251 68.738654,99.065436 67.5625,98.84375 C 67.625103,98.313636 67.590225,97.722575 67.65625,97.1875 C 67.901817,97.189311 68.150039,97.192835 68.40625,97.1875 C 68.942277,97.166426 69.342927,97.144059 69.65625,97.09375 z "
       id="path2196"
       sodipodi:nodetypes="ccccccccccccccccccccccccccccccccccccccccccccccccccccccccccccccccccccccccccccccccccccccccccccccccccccccccccccccccccsscscccccccccccccccccccccccsscccccccccccccccccccccccccccccccccccccccccccccccccscccccccccccsccccccccccccccccccccccccccccccccccccccccccccccccccsccccscccccccccccccccccccccccccccccccccccccccccccccccccccccccccccccccccccccccccccccccccccccccccccccccccccccccccccccccscscccsccccccccccccccccccccccscccccssccccccsccccccccccccccccccccccccccscccccccccccccccccccccccccccccccccccccccccsc" />
    <path
       style="fill:#000000;fill-opacity:0.11049727;fill-rule:evenodd;stroke:none;stroke-width:1px;stroke-linecap:butt;stroke-linejoin:miter;stroke-opacity:1;filter:url(#filter7548)"
       d="M 39.384617,85.638641 C 39.895913,90.190654 42.195752,94.615839 41.15427,99.267745 C 40.91127,102.26517 40.796029,105.2783 40.588807,108.28201 C 40.42033,111.94026 40.667684,115.7088 41.980074,119.15457 C 43.081486,121.05211 43.88231,123.57071 46.340098,124.09248 C 49.26867,124.85524 52.300087,125.30741 55.309968,125.479 C 58.443814,125.01468 61.538039,124.19992 64.540829,123.23087 C 66.507463,121.96867 67.589104,119.7543 69.499054,118.41947 C 70.916481,117.38778 74.547823,114.61118 71.63882,113.33267 C 69.439713,113.0937 67.440777,114.65532 65.210955,114.29601 C 63.194026,114.04905 61.248506,113.23689 59.521823,112.20437 C 57.472649,110.3402 55.693454,108.20074 53.647611,106.32758 C 51.766056,104.56152 50.107247,102.57275 48.758307,100.37337 C 46.86485,97.89643 44.639853,95.689987 42.819966,93.154472 C 41.425635,91.65073 39.737443,90.026127 39.839914,87.797862 C 39.73673,87.06987 39.649883,86.329836 39.384617,85.638641 z "
       id="path6453" />
    <path
       style="fill:#000000;fill-rule:evenodd;stroke:none;stroke-width:1px;stroke-linecap:butt;stroke-linejoin:miter;stroke-opacity:1;fill-opacity:0.09944751;filter:url(#filter8657)"
       d="M 39.842576,58.847943 C 39.842576,59.786342 39.842576,62.253342 39.842576,63.88551 C 39.842576,65.564699 39.842576,67.243888 39.842576,68.923077 C 39.842576,70.04065 40.01801,70.998693 40.300537,72.128801 C 40.674354,73.624069 41.542773,75.234392 42.132379,76.708408 C 42.704775,78.139398 44.028997,79.520947 45.109123,80.601073 C 46.311522,81.803472 47.962355,83.225324 49.001789,84.264758 C 50.015722,85.278691 50.339053,85.379878 48.772809,86.554562 C 47.78214,87.297563 47.107954,89.426311 46.483005,90.676208 C 45.750499,92.141221 46.025045,94.026896 46.025045,95.713775 C 46.025045,98.399975 46.449054,97.195042 45.338104,95.713775 C 44.394184,94.455214 42.975414,93.708423 41.903399,92.27907 C 41.098051,91.205272 40.835124,89.684559 40.300537,88.615385 C 39.505185,87.02468 39.7387,85.201908 38.926655,83.577818 C 38.372992,82.470491 38.010733,80.01011 38.010733,78.769231 C 38.010733,77.358964 37.552773,76.519852 37.552773,75.105546 C 37.552773,73.953193 38.461013,73.304427 38.697674,72.357782 C 39.007571,71.118194 38.615581,69.709411 38.926655,68.465116 C 39.343042,66.799568 39.613596,64.911347 39.613596,63.198569 C 39.613596,61.715213 39.551328,60.304181 39.842576,58.847943 z "
       id="path7554" />
    <path
       style="fill:#ffffff;fill-rule:evenodd;stroke:none;stroke-width:1px;stroke-linecap:butt;stroke-linejoin:miter;stroke-opacity:1;fill-opacity:0.09944751;filter:url(#filter8707)"
       d="M 73.731664,9.6171735 C 73.825196,11.558268 75.105546,14.893876 75.105546,17.631485 C 75.105546,19.310674 75.105546,20.989863 75.105546,22.669052 C 75.105546,24.641938 72.575092,26.653604 71.44186,28.16458 C 69.763162,30.402844 74.061172,30.912343 75.334526,30.912343 C 76.864494,30.912343 78.814819,30.179814 79.914132,29.080501 C 80.896373,28.098261 80.601073,26.285185 80.601073,24.958855 C 80.601073,23.345897 79.725357,21.654084 78.769231,20.379249 C 77.616217,18.841897 78.006561,15.26416 78.54025,14.19678 C 78.551999,14.173283 79.82813,17.974418 79.914132,18.318426 C 80.424049,20.358094 81.357836,22.808695 82.203936,24.500894 C 82.857848,25.80872 83.69263,26.962594 85.18068,27.706619 C 89.051599,29.642078 88.825592,27.293697 87.012522,24.271914 C 85.907672,22.430497 86.307665,20.196735 85.18068,18.318426 C 84.115458,16.543055 82.539118,14.948996 81.288014,13.280859 C 80.486247,12.211835 79.068869,11.477279 77.853309,10.991055 C 76.420994,10.418129 75.505301,9.971901 73.731664,9.6171735 z "
       id="path8661" />
    <path
       style="fill:#060000;fill-rule:evenodd;stroke:none;stroke-width:1px;stroke-linecap:butt;stroke-linejoin:miter;stroke-opacity:1;fill-opacity:0.09944751;filter:url(#filter8773)"
       d="M 84.951699,85.40966 C 85.42124,86.357858 86.442572,87.465483 85.63864,89.073345 C 84.872509,90.605609 82.783029,89.733324 85.63864,90.447227 C 87.181896,90.833041 85.001785,94.239722 84.722719,94.797853 C 84.145908,95.951475 84.80825,98.348396 84.493739,99.60644 C 84.088757,101.22637 83.973117,102.39637 83.348837,103.95707 C 83.143366,104.47074 85.867405,102.29712 87.928444,100.75134 C 88.924651,100.00419 89.813512,99.56652 90.676208,98.919499 C 91.727883,98.130742 92.582956,97.241731 93.194991,96.629696 C 94.338535,95.486152 91.514976,94.263359 90.905188,94.110912 C 90.308665,93.961782 89.350923,91.002382 89.073345,90.447227 C 88.508495,89.317526 87.704643,87.93535 87.012522,87.012522 C 86.76266,86.679372 86.31937,86.146082 86.096601,85.867621"
       id="path8711" />
    <path
       style="fill:#060000;fill-rule:evenodd;stroke:none;stroke-width:1px;stroke-linecap:butt;stroke-linejoin:miter;stroke-opacity:1;fill-opacity:0.20994475;filter:url(#filter8894)"
       d="M 68.15625 65.6875 C 68.457257 66.482387 65.470228 66.74926 64.34375 67.3125 C 63.319597 67.824579 62.014096 67.973038 60.90625 68.25 C 59.646258 68.564996 57.693479 68.226195 56.5625 68 C 55.6247 67.81244 54.886655 67.052702 54.03125 66.625 C 52.868675 66.043716 55.868675 68.574963 57.03125 69.15625 C 58.113007 69.697133 59.193549 69.625 60.4375 69.625 C 62.108147 69.625002 63.915833 69.771041 65.5 69.375 C 66.80459 69.048855 67.746035 68.018598 68.6875 67.3125 C 69.155772 66.961295 68.538057 66.241013 68.15625 65.6875 z M 81.28125 67.5 C 80.382268 67.61032 80.805931 69.111867 81.28125 70.0625 C 82.04511 71.590219 82.321896 71.283603 83.8125 71.65625 C 84.577704 71.847551 86.20875 71.64594 87.25 71.90625 C 88.265682 72.160171 90.882012 72.269771 91.125 72.59375 C 91.600395 72.403592 92.862051 72.268303 92.5 71.90625 C 91.557928 70.964178 90.926278 70.968748 89.3125 70.96875 C 87.893815 70.96875 85.989274 70.479012 84.71875 69.84375 C 83.651164 69.309957 82.799011 67.824753 81.75 67.5625 C 81.563283 67.515821 81.409676 67.48424 81.28125 67.5 z "
       id="path8777" />
    <path
       style="fill:#060000;fill-rule:evenodd;stroke:none;stroke-width:1px;stroke-linecap:butt;stroke-linejoin:miter;stroke-opacity:1;fill-opacity:0.1436464;filter:url(#filter8928)"
       d="M 71.44186,64.11449 C 71.306815,64.425445 71.670841,66.667006 71.670841,68.236136 C 71.670841,69.854481 71.44186,71.597499 71.44186,73.273703 C 71.44186,74.634807 71.470852,76.134481 71.21288,77.166369 C 70.892054,78.449672 71.052514,79.868655 70.754919,81.059034 C 70.45485,82.25931 70.209469,83.914799 69.838998,82.432916 C 69.474939,80.976679 68.669495,79.63595 68.007156,78.31127 C 67.466588,77.230136 67.549195,76.19177 67.549195,74.876565 C 67.549195,73.287432 68.394107,72.04184 68.923077,70.9839 C 69.412691,70.004672 69.825397,68.762101 70.067979,67.549195 C 70.399571,65.891235 69.956423,65.302841 71.44186,64.11449 z "
       id="path8898" />
    <path
       style="fill:#060000;fill-rule:evenodd;stroke:none;stroke-width:1px;stroke-linecap:butt;stroke-linejoin:miter;stroke-opacity:1;fill-opacity:0.1436464;filter:url(#filter8954)"
       d="M 33.431127,53.352415 C 33.570852,52.653788 31.954088,54.097182 31.599284,55.871199 C 31.326637,57.234437 31.379535,58.408444 32.057245,59.763864 C 32.694074,61.037522 33.517148,60.31481 34.805009,59.992844 C 35.951373,59.706253 35.49195,62.143292 35.49195,62.969589 C 35.49195,64.906007 35.736798,64.78953 37.552773,63.427549 C 38.506106,62.712549 38.282152,60.620557 38.010733,59.534884 C 37.635429,58.033664 36.454898,56.697168 35.49195,55.413238 C 34.756628,54.432808 34.553094,54.474382 33.431127,53.352415 z "
       id="path8932" />
    <path
       style="fill:#060000;fill-rule:evenodd;stroke:none;stroke-width:1px;stroke-linecap:butt;stroke-linejoin:miter;stroke-opacity:1;fill-opacity:0.45303866;filter:url(#filter9048)"
       d="M 47.398927,17.860465 C 46.477299,16.631628 49.087204,20.491927 49.45975,21.982111 C 50.008857,24.178541 52.207115,25.873979 53.123435,27.706619 C 54.115715,29.69118 52.120362,33.866886 51.749553,35.72093 C 51.555241,36.692488 48.987707,38.721143 48.314848,39.842576 C 46.640103,42.633818 46.633775,47.332018 46.025045,50.375671 C 45.572064,52.640576 43.109828,54.603243 42.132379,56.55814 C 41.145473,58.531953 39.638524,57.956949 38.468694,56.78712 C 36.744762,55.063188 36.48345,51.822888 35.949911,49.68873 C 35.463633,47.743618 35.753593,46.155697 35.26297,44.193202 C 34.604178,41.558034 34.576029,39.233236 34.576029,36.407871 C 34.576029,33.482994 34.621017,31.676958 36.178891,29.080501 C 37.460305,26.94481 39.574923,25.325835 41.216458,23.355993 C 41.598092,22.898032 41.979726,22.440072 42.36136,21.982111 C 43.803287,20.251799 45.816941,19.837947 47.398927,17.860465 z "
       id="path8958" />
  </g>
</svg>
