<?xml version="1.0" encoding="UTF-8" standalone="no"?>
<!-- Created with Inkscape (http://www.inkscape.org/) -->
<svg xmlns:dc="http://purl.org/dc/elements/1.1/" xmlns:cc="http://creativecommons.org/ns#" xmlns:rdf="http://www.w3.org/1999/02/22-rdf-syntax-ns#" xmlns:svg="http://www.w3.org/2000/svg" xmlns="http://www.w3.org/2000/svg" xmlns:xlink="http://www.w3.org/1999/xlink" xmlns:sodipodi="http://sodipodi.sourceforge.net/DTD/sodipodi-0.dtd" xmlns:inkscape="http://www.inkscape.org/namespaces/inkscape" width="128" height="128" id="svg2" sodipodi:version="0.32" inkscape:version="0.45+devel" version="1.0" sodipodi:docname="city_outline.svg" inkscape:output_extension="org.inkscape.output.svg.inkscape">
  <defs id="defs4">
    <filter height="1.42432" y="-0.21216" width="1.2179726" x="-0.1089863" id="filter2892" inkscape:collect="always">
      <feGaussianBlur id="feGaussianBlur2894" stdDeviation="0.72146876" inkscape:collect="always"/>
    </filter>
    <radialGradient r="8.2519293" fy="222.04396" fx="14.207293" cy="222.04396" cx="14.207293" gradientTransform="scale(1.39523, 0.716728)" gradientUnits="userSpaceOnUse" id="radialGradient1968" xlink:href="#linearGradient2057" inkscape:collect="always"/>
    <linearGradient inkscape:collect="always" id="linearGradient2057">
      <stop style="stop-color: rgb(0, 0, 0); stop-opacity: 1;" offset="0" id="stop2059"/>
      <stop style="stop-color: rgb(0, 0, 0); stop-opacity: 0;" offset="1" id="stop2061"/>
    </linearGradient>
  </defs>
  <sodipodi:namedview id="base" pagecolor="#ffffff" bordercolor="#666666" borderopacity="1.0" gridtolerance="10000" guidetolerance="10" objecttolerance="10" inkscape:pageopacity="0.0" inkscape:pageshadow="2" inkscape:zoom="1" inkscape:cx="64" inkscape:cy="64" inkscape:document-units="px" inkscape:current-layer="layer1" showgrid="false" width="744.09px" inkscape:window-width="1248" inkscape:window-height="975" inkscape:window-x="425" inkscape:window-y="24" showguides="true" inkscape:guide-bbox="true"/>
  <metadata id="metadata7">
    <rdf:RDF>
      <cc:Work rdf:about="">
        <dc:format>image/svg+xml</dc:format>
        <dc:type rdf:resource="http://purl.org/dc/dcmitype/StillImage"/>
      </cc:Work>
    </rdf:RDF>
  </metadata>
  <g inkscape:label="Layer 1" inkscape:groupmode="layer" id="layer1">
    <path style="fill: rgb(92, 39, 0); fill-opacity: 1; stroke: none; stroke-width: 1.27185; stroke-linecap: round; stroke-miterlimit: 4; stroke-opacity: 1;" d="M 51.5625 16.5 L 45.9375 28.6875 L 46 29.1875 L 43.78125 29.375 L 43.46875 30.59375 L 41.15625 30.75 L 40.5 29.375 L 36.53125 29.46875 L 33.375 30.53125 L 33.78125 32.03125 L 31.96875 33.59375 L 31.625 32.40625 L 29.65625 33.8125 L 29.78125 34.90625 L 27.71875 36.84375 L 27.15625 35.8125 L 24.75 37.78125 L 24.78125 39.0625 L 22.84375 40.75 L 22.5625 39.5625 L 19.75 41.75 L 19.875 43.0625 L 18.03125 44.65625 L 17.53125 43.6875 L 14.5 46.09375 L 14.65625 47.125 L 13.03125 48.78125 L 12.375 48.03125 L 8.59375 51 L 8.5625 71.125 L 12.875 97.71875 L 46.46875 114.75 L 89.71875 112.0625 L 99.71875 104.4375 L 99.8125 103.09375 L 102.53125 100.875 L 106 98.09375 L 109.1875 95.53125 L 110.53125 96.0625 L 110.59375 96.09375 L 110.625 96.09375 L 117.15625 91.125 L 117.25 71 L 116.5625 68.25 L 116.4375 67.6875 L 116.125 66.34375 L 116.25 64.96875 L 115.875 62.65625 L 115.53125 62.4375 L 115.28125 60.75 L 115.1875 59.15625 L 115.09375 57.71875 L 114.40625 55.15625 L 114.59375 53.78125 L 114.125 51.3125 L 113.28125 48.1875 L 113.4375 47 L 112.875 43.84375 L 109.65625 42 L 108.5625 43.3125 L 107.09375 42.34375 L 107.25 40.9375 L 103.90625 39.21875 L 102.65625 40.125 L 101.25 39.65625 L 101.375 38.21875 L 98.84375 36.78125 L 98.90625 33.96875 L 93.09375 23.375 L 88.71875 31.875 L 85.875 30.375 L 85.09375 31.09375 L 83.1875 30.3125 L 83.28125 29.125 L 79.375 26.5 L 73.9375 27.15625 L 73.8125 28.375 L 71 28.625 L 70.25 27.25 L 65.78125 27.84375 L 65.65625 29.125 L 63.15625 29.40625 L 62.5625 28 L 58.28125 28.375 L 58.09375 29.84375 L 58 29.84375 L 57.75 26.875 L 51.5625 16.5 z M 51.6875 17.1875 L 57.15625 27.3125 L 53.6875 31.21875 L 51.6875 17.1875 z M 51.34375 17.875 L 52.71875 31.46875 L 46.53125 28.6875 L 51.34375 17.875 z M 52.75 19.875 L 52.5625 19.96875 L 53.65625 21.78125 L 53.1875 22.15625 L 53.28125 22.25 L 53.71875 21.90625 L 54.1875 22.6875 L 54.15625 22.5625 L 53.78125 21.875 L 54 21.71875 L 53.9375 21.5625 L 53.71875 21.71875 L 52.75 19.875 z M 51.125 20.3125 L 49.71875 23.96875 L 49.34375 23.84375 L 49.34375 23.9375 L 49.6875 24.0625 L 49.84375 24.125 L 51.3125 24.6875 L 51.28125 24.53125 L 49.875 24.03125 L 51.28125 20.375 L 51.125 20.3125 z M 52.84375 23.6875 L 53.625 29.0625 L 53.5 29.21875 L 53.625 29.25 L 55.15625 27.59375 L 55.28125 27.84375 L 55.375 27.78125 L 55.25 27.5 L 55.875 26.8125 L 55.6875 26.71875 L 55.15625 27.3125 L 54.5625 26.09375 C 54.7668 25.871657 54.9375 25.65625 54.9375 25.65625 L 54.875 25.59375 C 54.875 25.59375 54.667163 25.794978 54.5 25.96875 L 54.25 25.4375 L 54.1875 25.53125 L 54.4375 26.0625 C 54.134399 26.375624 53.771429 26.725056 53.46875 27 L 52.96875 23.6875 L 52.84375 23.6875 z M 93.21875 24.25 L 98.25 34.0625 L 94.53125 38.09375 L 93.21875 24.25 z M 92.84375 24.375 L 93.84375 38.5625 L 87.65625 35.65625 L 92.84375 24.375 z M 48.6875 24.59375 L 47.75 26.78125 L 48.875 27.21875 L 48.90625 27.125 L 47.9375 26.78125 L 48.84375 24.75 L 48.6875 24.59375 z M 51.1875 25.1875 L 51.375 29.4375 L 48.46875 28.21875 L 48.84375 27.34375 L 48.71875 27.21875 L 48.28125 28.125 L 47.15625 27.65625 L 47.15625 27.75 L 48.25 28.21875 L 47.78125 29.15625 L 47.96875 29.28125 L 48.40625 28.28125 L 51.375 29.5625 L 51.40625 30.25 L 51.53125 30.21875 L 51.5 29.625 L 51.8125 29.75 L 51.8125 29.625 L 51.5 29.5 L 51.3125 25.1875 L 51.1875 25.1875 z M 54.5 26.15625 L 55.09375 27.40625 L 53.75 28.9375 L 53.5 27.125 C 53.820661 26.839967 54.208792 26.469694 54.5 26.15625 z M 92.25 26.21875 L 88.125 35.5625 L 92.375 37.53125 L 92.46875 37.375 L 91.4375 36.90625 L 92.375 33.65625 L 93.09375 33.90625 L 93.125 33.78125 L 92.4375 33.5 L 92.6875 32.625 L 92.46875 32.65625 L 92.25 33.4375 L 90.71875 32.84375 L 91.96875 29.75 L 91.84375 29.6875 L 90.5625 32.78125 L 89.625 32.4375 L 92.3125 26.28125 L 92.25 26.21875 z M 79.21875 26.78125 L 82.9375 29.21875 L 81.875 29.78125 L 78.6875 28 L 75.125 28.28125 L 74.46875 27.375 L 79.21875 26.78125 z M 94.0625 27.65625 L 93.96875 27.6875 C 93.984807 27.865778 93.984555 28.041146 94 28.21875 L 93.84375 28.3125 L 93.90625 28.4375 L 94.03125 28.375 C 94.222181 30.591393 94.34674 32.773752 94.5625 35 L 94.78125 34.96875 C 94.684286 33.893842 94.555544 32.802865 94.4375 31.71875 L 94.53125 31.75 L 95.9375 30.875 L 97.0625 33.1875 L 94.65625 35.4375 L 94.8125 35.5 L 97.125 33.3125 L 97.4375 33.96875 L 97.625 33.9375 L 97.25 33.21875 L 97.40625 33.0625 L 97.28125 33 L 97.1875 33.09375 L 95.96875 30.84375 L 96.3125 30.625 L 96.1875 30.5 L 94.4375 31.65625 C 94.316117 30.541345 94.222452 29.421832 94.125 28.3125 L 94.96875 27.875 L 94.9375 27.75 L 94.125 28.1875 C 94.109763 28.010917 94.076411 27.832453 94.0625 27.65625 z M 69.8125 27.6875 L 70.4375 28.71875 L 67 29.03125 L 66.34375 28.1875 L 69.8125 27.6875 z M 74.375 27.8125 L 74.84375 28.5625 L 74.71875 29.25 L 74.25 28.625 L 74.375 27.8125 z M 57.4375 27.90625 L 57.3125 51.8125 L 53.6875 55.03125 L 53.625 32.21875 L 57.4375 27.90625 z M 62.21875 28.34375 L 62.8125 29.625 L 59.625 29.71875 L 58.75 28.625 L 62.21875 28.34375 z M 66.0625 28.4375 L 66.6875 29.21875 L 66.65625 30.375 L 65.96875 29.5 L 66.0625 28.4375 z M 78.5625 28.4375 L 78.4375 37.40625 L 73.375 35.5 L 70.21875 35.9375 L 66.90625 42.15625 L 67.09375 47.4375 L 57.90625 47.96875 L 57.96875 31.5625 L 59.46875 31.46875 L 59.6875 30.0625 L 62.71875 29.84375 L 62.6875 31.375 L 67.15625 31.15625 L 67.125 29.5625 L 70.46875 29.3125 L 70.34375 30.5 L 75.3125 30.1875 L 75.46875 28.6875 L 78.5625 28.4375 z M 74 28.75 L 74.65625 29.75 L 71.125 29.96875 L 71.0625 28.84375 L 74 28.75 z M 78.9375 28.75 L 81.53125 30.1875 L 81.46875 31.21875 L 85.03125 33 L 85.09375 31.78125 L 87.625 33 L 87.5 34.25 L 86.75 35.75 L 86.875 40.5625 L 78.9375 37.59375 L 78.9375 28.75 z M 58.625 28.90625 L 59.0625 29.71875 L 59.03125 30.5625 L 58.46875 29.84375 L 58.625 28.90625 z M 46.6875 29.34375 L 52.875 32.09375 L 53.1875 55.34375 L 46.75 52.96875 L 46.6875 29.34375 z M 46 29.5 L 46 30.59375 L 45.09375 30.65625 L 44.25 29.625 L 46 29.5 z M 83 29.59375 L 82.9375 30.1875 L 82.15625 30.625 L 82.09375 30.0625 L 83 29.59375 z M 63.1875 29.6875 L 65.8125 29.6875 L 66.5625 30.71875 L 63.25 30.9375 L 63.1875 29.6875 z M 36.625 29.75 L 39.96875 29.75 L 40.53125 30.96875 L 37.0625 30.75 L 36.75 30.90625 L 36.625 30.9375 L 36.625 30.96875 L 34.59375 31.96875 L 33.84375 30.65625 L 36.625 29.75 z M 44.03125 29.8125 L 44.6875 30.75 L 44.46875 31.90625 L 43.75 30.84375 L 44.03125 29.8125 z M 58 30.0625 L 58.25 30.0625 L 58.84375 30.96875 L 57.96875 31.0625 L 58 30.0625 z M 83.0625 30.53125 L 84.75 31.40625 L 84.75 32.375 L 82.1875 31.0625 L 83.0625 30.53125 z M 85.90625 30.65625 L 88.625 32.09375 L 88.53125 32.25 L 87.75 32.65625 L 85.21875 31.46875 L 85.90625 30.65625 z M 43.4375 30.90625 L 44.3125 32.28125 L 41.21875 32.28125 L 41.21875 31.15625 L 43.4375 30.90625 z M 46 30.96875 L 46.09375 48.59375 L 37.125 49.125 L 37.0625 31.09375 L 37.15625 31.03125 L 40.71875 31.21875 L 40.5 32.75 L 44.9375 32.6875 L 45.125 31.03125 L 46 30.96875 z M 36.625 31.3125 L 36.6875 49.40625 L 35.84375 50.21875 L 29.84375 39.71875 L 29.40625 39.84375 L 23.84375 52.1875 L 24 61.78125 L 14.40625 71.15625 L 14.1875 69.75 L 13.84375 69.5 L 13.59375 67.8125 L 13.5 66.21875 L 13.40625 64.78125 L 12.71875 62.21875 L 12.90625 60.84375 L 12.4375 58.375 L 11.59375 55.25 L 11.75 54.0625 L 11.34375 51.375 L 12.375 50.34375 L 12.5 51.875 L 15.625 49.1875 L 15.5625 47.65625 L 17.46875 46.21875 L 17.75 47.875 L 20.625 45.0625 L 20.59375 43.53125 L 22.5625 42 L 22.625 43.1875 L 25.375 41.0625 L 25.21875 39.71875 L 27.15625 38.1875 L 27.5 40.03125 L 30.46875 37.40625 L 30.28125 35.8125 L 31.84375 34.46875 L 32.21875 36.25 L 35 33.65625 L 34.75 32.375 L 36.625 31.3125 z M 34.1875 32.0625 L 34.5 33.5 L 32.375 35.5 L 32.0625 33.84375 L 34.1875 32.0625 z M 89.5625 32.5625 L 90.5 32.9375 L 90.15625 33.75 L 90.34375 33.8125 L 90.65625 33 L 92.21875 33.59375 L 91.3125 36.84375 L 88.28125 35.5 L 89.5625 32.5625 z M 88.25 32.78125 L 87.90625 33.53125 L 87.90625 32.84375 L 88.25 32.78125 z M 31.4375 32.9375 L 31.65625 34.1875 L 30.25 35.40625 L 30.1875 33.8125 L 31.4375 32.9375 z M 47.90625 33.4375 L 47.90625 37.03125 L 51.15625 38.375 L 51.15625 34.78125 L 47.90625 33.4375 z M 48.0625 33.65625 L 51 34.90625 L 50.96875 38.15625 L 48.03125 36.90625 L 48.0625 33.65625 z M 48.125 33.75 L 48.125 36.90625 L 50.9375 38.0625 L 50.9375 34.9375 L 48.125 33.75 z M 48.25 33.9375 L 50.84375 35.03125 L 50.78125 37.875 L 48.25 36.78125 L 48.25 33.9375 z M 56.5 34.84375 L 54.375 37.25 L 54.375 40.84375 L 56.5 38.4375 L 56.5 34.84375 z M 98.34375 34.96875 L 98.15625 58.8125 L 94.28125 62.90625 L 94.34375 39.25 L 98.34375 34.96875 z M 56.40625 35.15625 L 56.375 38.4375 L 54.46875 40.59375 L 54.46875 37.28125 L 56.34375 35.25 L 56.40625 35.15625 z M 56.34375 35.25 L 54.53125 37.3125 L 54.53125 40.46875 L 56.34375 38.375 L 56.34375 35.25 z M 29.8125 35.28125 L 30.09375 37.375 L 27.8125 39.21875 L 27.34375 37.71875 L 27.59375 37.3125 L 29.8125 35.28125 z M 56.28125 35.46875 L 56.25 38.375 L 54.59375 40.21875 L 54.59375 37.375 L 56.28125 35.46875 z M 73.34375 35.9375 L 83.90625 39.8125 L 86.875 40.875 L 86.875 41.75 L 85.75 42 C 81.061889 40.253771 75.932915 38.324292 71.09375 36.21875 L 73.34375 35.9375 z M 83.90625 39.8125 L 83.375 40.0625 L 82.34375 39.65625 L 82.34375 39.71875 L 83.28125 40.125 L 82.71875 40.375 L 82.8125 40.46875 L 83.40625 40.1875 L 86.125 41.3125 L 86.21875 41.21875 L 83.5 40.125 L 83.96875 39.90625 L 83.90625 39.8125 z M 87.40625 36 L 93.78125 39.15625 L 93.84375 62.8125 L 92.28125 62.125 L 92.21875 58.9375 L 88.96875 57.65625 L 89.03125 60.71875 L 87.46875 60.0625 L 87.40625 36 z M 72.71875 36.15625 L 72.625 36.28125 L 77.5625 38.3125 L 76.96875 38.53125 L 77.09375 38.59375 L 77.71875 38.375 L 81.25 39.84375 L 81.375 39.75 L 77.90625 38.3125 L 78.71875 38.03125 L 78.65625 37.9375 L 77.75 38.25 L 72.71875 36.15625 z M 70.625 36.3125 C 75.538122 38.261689 80.256229 40.618198 85.28125 42.25 L 82.5 47.78125 L 67.53125 41.90625 L 70.625 36.3125 z M 26.8125 36.53125 L 27.0625 37.9375 L 25.3125 39.3125 L 25.1875 38.90625 L 25.15625 37.90625 L 26.8125 36.53125 z M 98.84375 37.0625 L 100.96875 38.375 L 99.875 39 L 98.8125 38.5 L 98.84375 37.0625 z M 71.5 37.5 L 70.84375 38.75 L 70.5 38.59375 L 70.4375 38.65625 L 70.78125 38.8125 L 69.4375 41.3125 L 68.9375 41.09375 L 68.90625 41.21875 L 69.375 41.40625 L 69.15625 41.84375 L 69.1875 41.9375 L 69.46875 41.4375 L 78.90625 45.4375 L 79 45.3125 L 69.53125 41.34375 L 70.90625 38.875 L 72.59375 39.65625 L 72.0625 40.71875 L 72.1875 40.8125 L 72.71875 39.71875 L 73.84375 40.25 L 73.875 40.125 L 72.78125 39.625 L 73.28125 38.59375 L 80.34375 41.65625 L 78.8125 44.375 L 81.09375 45.15625 L 80.5 46.25 L 80.59375 46.28125 L 81.21875 45.1875 L 82.34375 45.5625 L 82.46875 45.46875 L 81.28125 45.0625 L 82.15625 43.46875 L 82.0625 43.375 L 81.15625 45.03125 L 79.03125 44.3125 L 80.40625 41.71875 L 81.53125 42.1875 L 81.5625 42.09375 L 80.46875 41.625 L 80.78125 41.03125 L 80.71875 40.96875 L 80.375 41.5625 L 73.3125 38.5 L 73.46875 38.21875 L 73.375 38.15625 L 73.21875 38.46875 L 72.8125 38.28125 L 72.75 38.375 L 73.15625 38.5625 L 72.65625 39.5625 L 70.9375 38.78125 L 71.625 37.5625 L 71.5 37.5 z M 96.78125 37.8125 C 96.625577 37.823729 96.451805 37.933276 96.25 38.03125 C 95.475539 38.700239 95.318963 39.522013 95.15625 40.46875 C 95.366333 41.686884 95.799177 41.431042 96.25 41.1875 C 96.996251 40.534446 97.15046 39.698967 97.3125 38.78125 C 97.234638 38.009724 97.040704 37.793785 96.78125 37.8125 z M 96.59375 38.15625 C 96.853407 38.217777 96.92657 38.782448 96.9375 39.0625 C 96.856162 39.737421 96.656781 40.346716 96.25 40.78125 C 95.439366 41.497415 95.517496 40.607226 95.5625 40.125 C 95.511592 39.402726 95.917979 38.757107 96.28125 38.3125 C 96.415995 38.189668 96.507198 38.135741 96.59375 38.15625 z M 98.8125 38.875 L 99.53125 39.25 L 99.53125 40.6875 L 102.8125 42.1875 L 102.84375 41 L 105.46875 42.25 L 105.34375 43.75 L 109.34375 45.46875 L 109.34375 44.21875 L 110.25 44.59375 L 110.1875 63.3125 L 98.71875 57.3125 L 98.8125 38.875 z M 100.9375 38.875 L 100.875 39.5625 L 99.96875 40.0625 L 99.96875 39.3125 L 100 39.34375 L 100.9375 38.875 z M 24.9375 39.34375 L 24.875 41.03125 L 22.96875 42.4375 L 22.78125 41.1875 L 24.9375 39.34375 z M 104.03125 39.5625 L 106.84375 41.03125 L 105.84375 42.03125 L 102.8125 40.625 L 104.03125 39.5625 z M 101 39.9375 L 102.59375 40.71875 L 102.5625 41.46875 L 99.96875 40.40625 L 101 39.9375 z M 89 40.09375 L 89 53.21875 L 92.25 54.40625 L 92.25 41.25 L 89 40.09375 z M 22.3125 40.1875 L 22.53125 41.4375 L 20.53125 43.28125 L 20.3125 42.59375 L 20.34375 41.78125 L 22.3125 40.1875 z M 89.15625 40.3125 L 92.09375 41.375 L 92.0625 54.1875 L 89.125 53.09375 L 89.15625 40.3125 z M 89.21875 40.375 L 89.21875 53.09375 L 92.03125 54.09375 L 92.03125 41.4375 L 89.21875 40.375 z M 29.46875 40.53125 L 31.0625 55.125 L 24.46875 51.78125 L 29.46875 40.53125 z M 47.90625 40.53125 L 47.90625 44.125 L 51.15625 45.46875 L 51.15625 41.875 L 47.90625 40.53125 z M 29.78125 40.5625 L 35.71875 50.6875 L 31.4375 55.125 L 29.78125 40.5625 z M 89.34375 40.5625 L 91.9375 41.53125 L 91.875 53.90625 L 89.34375 52.96875 L 89.34375 40.5625 z M 97.375 40.71875 L 95.25 43.125 L 95.25 54.4375 L 97.375 52.03125 L 97.375 40.71875 z M 48.0625 40.75 L 51 42 L 50.96875 45.25 L 48.03125 44 L 48.0625 40.75 z M 48.125 40.84375 L 48.125 44 L 50.9375 45.15625 L 50.9375 42.03125 L 48.125 40.84375 z M 48.25 41.03125 L 50.84375 42.125 L 50.78125 44.96875 L 48.25 43.875 L 48.25 41.03125 z M 97.28125 41.03125 L 97.25 51.96875 L 97.25 52.03125 L 95.34375 54.1875 L 95.375 43.15625 L 97.28125 41.03125 z M 97.25 51.96875 L 97.25 41.125 L 95.40625 43.1875 L 95.40625 54.0625 L 97.25 51.96875 z M 97.1875 41.3125 L 97.15625 51.96875 L 95.5 53.8125 L 95.5 43.21875 L 97.1875 41.3125 z M 106.8125 41.5625 L 106.625 42.40625 L 105.9375 43.3125 L 106 42.28125 L 106.8125 41.5625 z M 86.875 42 L 86.875 43.625 C 86.68029 43.305362 86.369977 43.44538 86 43.625 C 85.225541 44.293991 85.068963 45.147013 84.90625 46.09375 C 85.116335 47.311885 85.549177 47.024792 86 46.78125 C 86.514332 46.331153 86.757992 45.807387 86.90625 45.21875 L 86.90625 48.28125 L 82.65625 53.9375 L 82.65625 48.4375 L 82.71875 48.46875 L 85.65625 42.5 L 86.875 42 z M 109.6875 42.375 L 112.5 44.03125 L 112.96875 46.6875 L 111.0625 46.96875 L 110.78125 44.5625 L 108.96875 43.65625 L 109.6875 42.375 z M 67.53125 42.40625 L 82.15625 48.25 L 82.1875 54.28125 L 67.375 48.25 L 67.53125 42.40625 z M 107.0625 42.65625 L 108.8125 43.75 L 108.84375 44.8125 L 106.09375 43.6875 L 107.0625 42.65625 z M 30.8125 43.1875 L 32.625 47.9375 L 31.15625 48.90625 L 31.15625 49.03125 L 32.65625 48.03125 L 33.1875 49.375 L 32.21875 50.1875 L 32.28125 50.21875 L 33.21875 49.46875 L 33.78125 50.9375 L 32.09375 52.53125 L 32.09375 52.625 L 33.84375 51.0625 L 34.0625 51.65625 L 34.1875 51.625 L 33.9375 50.96875 L 35 50 L 34.875 49.90625 L 33.875 50.84375 L 33.34375 49.40625 L 33.71875 49.09375 L 33.625 49 L 33.28125 49.28125 L 32.78125 47.96875 L 33.03125 47.78125 L 33 47.71875 L 32.75 47.875 L 30.9375 43.1875 L 30.8125 43.1875 z M 20.09375 43.25 L 20.1875 45 L 18.0625 47 L 17.9375 45.53125 L 18.0625 45.40625 L 18.03125 45.03125 L 20.09375 43.25 z M 29.6875 43.4375 L 29.5625 43.53125 L 29.53125 46.625 L 29.6875 46.6875 L 29.6875 43.4375 z M 56.625 43.59375 L 54.5 46 L 54.5 49.59375 L 56.625 47.1875 L 56.625 43.59375 z M 86.34375 43.75 C 86.603407 43.811528 86.67657 44.407448 86.6875 44.6875 C 86.606164 45.362418 86.406781 45.940466 86 46.375 C 85.189368 47.091167 85.267496 46.232226 85.3125 45.75 C 85.261594 45.027724 85.667979 44.350857 86.03125 43.90625 C 86.165995 43.783418 86.257198 43.729491 86.34375 43.75 z M 56.53125 43.90625 L 56.5 47.1875 L 54.59375 49.34375 L 54.59375 46.03125 L 56.46875 44 L 56.53125 43.90625 z M 56.46875 44 L 54.65625 46.0625 L 54.65625 49.21875 L 56.46875 47.125 L 56.46875 44 z M 68.5 43.96875 L 68.5 47.5625 L 71.75 48.90625 L 71.75 45.3125 L 68.5 43.96875 z M 17.40625 44.15625 L 17.625 45.40625 L 15.1875 47.375 L 14.96875 46.5625 L 15 46.125 L 17.40625 44.15625 z M 68.65625 44.1875 L 71.59375 45.4375 L 71.5625 48.6875 L 68.625 47.4375 L 68.65625 44.1875 z M 56.40625 44.21875 L 56.375 47.125 L 54.71875 48.96875 L 54.71875 46.125 L 56.40625 44.21875 z M 68.71875 44.28125 L 68.71875 47.4375 L 71.53125 48.59375 L 71.53125 45.46875 L 68.71875 44.28125 z M 68.84375 44.46875 L 71.4375 45.5625 L 71.375 48.40625 L 68.84375 47.3125 L 68.84375 44.46875 z M 29.125 44.8125 L 27.625 48.71875 L 27.78125 48.6875 L 29.21875 44.8125 L 29.125 44.8125 z M 110.625 46.21875 L 110.75 47.0625 L 110.75 49.5625 L 111.34375 52.34375 L 111.59375 52.09375 L 111.8125 53.90625 L 111.875 55.6875 L 111.9375 56.09375 L 112.34375 58.3125 L 112.625 58.34375 L 112.8125 59.3125 L 112.6875 61.0625 L 112.96875 63.53125 L 113.28125 63.21875 L 113.65625 64.71875 L 113.5 66.15625 L 113.5 66.1875 L 113.9375 69.3125 L 114.25 68.71875 L 114.65625 70.21875 L 114.78125 70.78125 L 113.90625 71.46875 L 114.125 72.84375 L 113.84375 73.0625 L 110.71875 63.59375 L 110.6875 63.5625 L 110.625 46.21875 z M 27.53125 46.5625 L 26.53125 48.90625 L 26.1875 48.78125 L 26.1875 48.90625 L 26.5 49.03125 L 25.875 50.53125 L 25.59375 50.40625 L 25.5625 50.5 L 25.8125 50.625 L 25.5 51.40625 L 25.59375 51.5625 L 25.96875 50.6875 L 29.84375 52.59375 L 29.90625 53.34375 L 30.125 53.40625 L 30.0625 52.71875 L 30.53125 52.9375 L 30.59375 52.84375 L 30.0625 52.59375 L 29.875 50.40625 L 29.90625 50.40625 L 29.96875 50.25 L 29.875 50.21875 L 29.8125 49.59375 L 29.59375 49.65625 L 29.625 50.125 L 26.6875 48.96875 L 27.65625 46.625 L 27.53125 46.5625 z M 112.84375 47.09375 L 112.78125 48.03125 L 112.875 48.5625 L 111.125 48.9375 L 111.0625 47.34375 L 112.84375 47.09375 z M 14.78125 47.34375 L 15.09375 49.03125 L 12.90625 50.96875 L 12.90625 49.4375 L 14.78125 47.34375 z M 77.3125 47.625 L 77.3125 51.21875 L 80.5625 52.5625 L 80.5625 48.96875 L 77.3125 47.625 z M 67.125 47.75 L 67.125 48.625 L 67.125 48.9375 L 62.75 54.09375 L 61.1875 53.46875 L 58.375 53.4375 L 63.8125 47.9375 L 67.125 47.75 z M 77.46875 47.84375 L 80.40625 49.09375 L 80.375 52.34375 L 77.4375 51.09375 L 77.46875 47.84375 z M 77.53125 47.9375 L 77.53125 51.09375 L 80.34375 52.25 L 80.34375 49.125 L 77.53125 47.9375 z M 47.71875 47.96875 L 47.71875 51.5625 L 50.96875 52.90625 L 50.96875 49.3125 L 47.71875 47.96875 z M 63.375 47.96875 L 55.25 56.09375 L 53.90625 57.4375 L 53.875 56.375 L 55.25 56.09375 L 53.96875 55.625 L 57.875 51.96875 L 57.90625 48.28125 L 63.375 47.96875 z M 77.65625 48.125 L 80.25 49.21875 L 80.1875 52.0625 L 77.65625 50.96875 L 77.65625 48.125 z M 47.875 48.1875 L 50.8125 49.4375 L 50.78125 52.6875 L 47.84375 51.4375 L 47.875 48.1875 z M 47.9375 48.28125 L 47.9375 51.4375 L 50.75 52.59375 L 50.75 49.46875 L 47.9375 48.28125 z M 48.0625 48.46875 L 50.65625 49.5625 L 50.59375 52.40625 L 48.0625 51.3125 L 48.0625 48.46875 z M 12.21875 48.71875 L 12.40625 49.78125 L 10.84375 51.09375 L 10.875 51.28125 L 11.125 53.75 L 9.375 54.03125 L 8.90625 51.15625 L 12.21875 48.71875 z M 67.53125 48.78125 L 82.1875 54.625 L 82.21875 59.40625 L 75.625 56.75 L 75.625 53.40625 L 72.375 52.3125 L 72.375 55.46875 L 67.5 53.5 L 67.53125 48.78125 z M 86.90625 48.78125 L 86.9375 53.28125 L 82.65625 59.125 L 82.65625 54.6875 L 86.90625 48.78125 z M 112.9375 48.9375 L 113.65625 51.15625 L 111.5 51.5625 L 111.15625 49.5 L 111.15625 49.21875 L 112.9375 48.9375 z M 46.09375 49 L 46.125 52.71875 L 38.75 50 L 36.28125 50.3125 L 37.0625 49.5625 L 46.09375 49 z M 26.625 49.09375 L 29.65625 50.3125 L 29.84375 52.46875 L 26 50.59375 L 26.625 49.09375 z M 67.125 49.46875 L 67.125 53.75 L 72.375 55.84375 L 72.375 55.90625 L 73.46875 56.28125 L 82.59375 59.90625 L 86.9375 53.875 L 86.96875 60.40625 L 93.9375 63.5 L 91.5625 64.3125 L 85.90625 69.5625 L 85.875 64.375 L 86.46875 63.84375 L 63.0625 54.21875 L 67.125 49.46875 z M 38.8125 50.4375 L 53.78125 56.03125 L 50.6875 56.53125 C 46.074454 54.756788 41.245251 52.76307 36.59375 50.8125 L 38.8125 50.4375 z M 38.625 50.625 L 38.46875 50.75 L 41.53125 51.96875 L 40.59375 52.25 L 40.6875 52.34375 L 41.71875 52.0625 L 49.375 55.125 L 48.84375 55.1875 L 48.9375 55.25 L 49.53125 55.1875 L 50.9375 55.75 L 50.96875 55.59375 L 49.875 55.15625 L 50.75 55.0625 L 50.6875 54.96875 L 49.71875 55.09375 L 41.96875 51.96875 L 42.1875 51.90625 L 42.15625 51.8125 L 41.8125 51.90625 L 38.625 50.625 z M 35.90625 51.09375 C 40.733275 52.995471 45.464345 55.107401 50.375 56.78125 L 47.8125 62.28125 L 47.8125 62.3125 L 35.875 57.28125 L 35.90625 51.09375 z M 35.53125 51.53125 L 35.34375 75.28125 L 34.625 76.09375 L 34.625 72.96875 L 32.5 75.375 L 32.5 78.46875 L 31.65625 79.40625 L 31.28125 55.8125 L 35.53125 51.53125 z M 113.625 51.59375 L 114.0625 53.28125 L 112.25 53.625 L 111.90625 51.84375 L 113.625 51.59375 z M 24.40625 52.40625 L 30.71875 55.5625 L 31.09375 79.40625 L 30.75 79.25 L 30.71875 74.53125 L 30.96875 74.28125 L 24.5 68 L 24.40625 52.40625 z M 36.5 52.40625 L 36.53125 52.46875 L 38.0625 53.125 L 37.53125 55.75 L 36.53125 55.34375 L 36.5 55.46875 L 37.5 55.84375 L 37.28125 56.90625 L 37.34375 56.9375 L 37.5625 55.875 L 39.125 56.5 L 38.84375 57.4375 L 38.9375 57.53125 L 39.25 56.5625 L 39.8125 56.78125 L 39.90625 56.71875 L 39.28125 56.46875 L 40.09375 54 L 46.71875 56.8125 L 45.75 58.875 C 44.859811 58.49064 43.945658 58.134396 43.03125 57.8125 L 43.03125 57.9375 C 43.897799 58.241064 44.799999 58.601557 45.6875 58.96875 L 45.15625 60.125 L 45.25 60.15625 L 45.78125 59 C 46.294737 59.213433 46.780969 59.432942 47.28125 59.65625 L 46.65625 61 L 46.78125 61.03125 L 47.375 59.71875 C 47.716295 59.871782 48.077189 60.002023 48.40625 60.15625 L 48.46875 60.09375 C 48.112709 59.937958 47.76144 59.782993 47.40625 59.625 L 48.375 57.5625 L 49.375 57.96875 L 49.4375 57.84375 L 48.4375 57.4375 L 48.53125 57.21875 L 48.4375 57.125 L 48.3125 57.375 L 46.84375 56.75 L 47.1875 56.03125 L 47.09375 56 L 46.75 56.71875 L 40.125 53.9375 L 40.28125 53.40625 L 40.15625 53.3125 L 39.96875 53.875 L 38.15625 53.09375 L 38.25 52.625 L 38.15625 52.5625 L 38.0625 53.0625 L 36.5 52.40625 z M 8.84375 52.53125 L 9.125 54.5 L 9.15625 56 L 9.65625 59.40625 L 9.90625 59.15625 L 10.125 60.96875 L 10.1875 62.75 L 10.25 63.15625 L 10.65625 65.375 L 10.9375 65.40625 L 11.125 66.375 L 11 68.125 L 11.28125 70.59375 L 11.59375 70.28125 L 11.96875 71.78125 L 11.8125 73.21875 L 11.8125 73.25 L 12.25 76.375 L 12.5625 75.78125 L 12.96875 77.78125 L 13.0625 96.375 L 9 71.15625 L 8.8125 54.96875 L 8.84375 52.53125 z M 72.53125 52.53125 L 75.46875 53.5625 L 75.4375 56.6875 L 75.40625 56.6875 L 75.40625 53.59375 L 72.59375 52.625 L 72.59375 55.53125 L 72.5 55.5 L 72.53125 52.53125 z M 72.71875 52.78125 L 75.3125 53.6875 L 75.25 56.53125 L 73.4375 55.875 L 72.71875 55.59375 L 72.71875 52.78125 z M 38.125 53.15625 L 39.96875 53.9375 L 39.15625 56.40625 L 37.59375 55.78125 L 38.125 53.15625 z M 113.96875 53.5625 L 113.90625 55.40625 L 112.3125 55.78125 L 112.25 53.875 L 113.96875 53.5625 z M 58.0625 53.78125 L 55.34375 59.15625 L 55.5625 59.25 L 55.5625 64.71875 L 62.03125 67.28125 L 53.46875 77.25 L 90.9375 88.75 L 88.75 90.375 L 84.78125 90.625 L 84.125 92.09375 L 82.25 92.21875 L 84.6875 88.96875 L 74.28125 86.4375 L 74.28125 85.5 L 64.65625 81.9375 L 58.71875 79.75 L 53.4375 79.78125 L 49.28125 85.15625 L 49.34375 92.875 L 47.46875 92.90625 L 44.90625 91.6875 L 43.8125 93 L 42.9375 92.4375 L 49.0625 86.75 L 49.09375 80.125 L 49.46875 79.78125 L 47.75 78.0625 L 57.125 66.96875 L 53.875 65.59375 L 53.75 62.5625 L 54.0625 62.25 L 53.9375 57.9375 L 58.0625 53.78125 z M 58.90625 53.84375 L 60.9375 54 L 81.09375 62.28125 L 81.125 62.28125 L 84.15625 63.53125 L 76.78125 61.40625 L 58.90625 53.84375 z M 81.09375 62.28125 L 78.6875 61.65625 L 63.375 55.34375 L 63.78125 55.40625 L 63.84375 55.3125 L 63.0625 55.21875 L 60.8125 54.28125 L 60.71875 54.3125 L 62.8125 55.1875 L 62.125 55.09375 L 62.21875 55.15625 L 63.09375 55.3125 L 78.125 61.5 L 75.78125 60.90625 L 75.875 61 L 81 62.34375 L 81.09375 62.28125 z M 11.15625 54.15625 L 11.09375 55.09375 L 11.1875 55.625 L 9.4375 56 L 9.375 54.40625 L 11.15625 54.15625 z M 58.21875 54.15625 L 75.84375 61.6875 L 69.5625 63.875 L 55.9375 58.84375 L 58.21875 54.15625 z M 59.375 55.28125 L 59.15625 55.75 L 58.4375 55.4375 L 58.3125 55.5 L 59.125 55.84375 L 57.71875 59 L 57.8125 59.03125 L 59.28125 55.9375 L 64.03125 58 L 63.375 59.40625 L 60.125 58.03125 L 60 58.125 L 63.3125 59.53125 L 62.71875 60.78125 L 62.8125 60.90625 L 63.46875 59.59375 L 69.1875 61.96875 L 68.6875 63 L 68.8125 62.96875 L 69.28125 62.03125 L 69.90625 62.28125 L 69.875 62.15625 L 69.34375 61.9375 L 70 60.59375 L 71.1875 61.125 L 71.15625 60.96875 L 70.0625 60.5 L 70.5 59.59375 L 70.40625 59.5625 L 69.96875 60.4375 L 64.25 57.96875 L 64.5625 57.34375 L 64.375 57.28125 L 64.09375 57.90625 L 59.34375 55.8125 L 59.5625 55.34375 L 59.375 55.28125 z M 114 55.8125 L 114.34375 57.4375 L 112.78125 57.78125 L 112.65625 58.0625 L 112.34375 56.03125 L 114 55.8125 z M 27.6875 55.90625 C 27.54507 55.910917 27.401004 55.914442 27.28125 55.9375 C 26.442974 56.098902 26.112241 56.686861 25.5625 57.34375 C 25.349518 58.316167 25.395839 58.991234 25.3125 59.8125 L 29.25 60.96875 C 29.332187 59.788722 29.241553 58.652521 29 57.5 C 28.739711 56.595256 28.23174 56.212015 27.6875 55.90625 z M 11.25 56 L 11.96875 58.21875 L 9.8125 58.625 L 9.46875 56.5625 L 9.46875 56.28125 L 11.25 56 z M 27.25 56.09375 C 27.350314 56.083786 27.454385 56.092483 27.5625 56.125 C 27.852269 55.991292 28.714061 56.785769 28.8125 57.53125 C 28.869255 57.961066 29.130516 60.06632 29.15625 60.78125 L 25.59375 59.71875 C 25.633584 59.109319 25.682795 57.594025 25.78125 57.46875 C 26.035773 57.144893 26.547807 56.163496 27.25 56.09375 z M 27.3125 56.1875 C 26.619549 56.320921 26.360687 56.831991 25.90625 57.375 C 25.730195 58.178837 25.787641 58.977361 25.71875 59.65625 L 28.96875 60.625 C 29.036688 59.649547 28.949677 58.421467 28.75 57.46875 C 28.534836 56.720855 28.074888 56.440258 27.625 56.1875 C 27.507262 56.191358 27.411493 56.16844 27.3125 56.1875 z M 27.3125 56.34375 C 27.395422 56.335513 27.473128 56.34812 27.5625 56.375 C 27.802035 56.264468 28.512378 56.915007 28.59375 57.53125 C 28.640666 57.886554 28.853728 59.877763 28.875 60.46875 L 25.90625 59.5625 C 25.939179 59.058721 25.981114 57.603556 26.0625 57.5 C 26.2729 57.232287 26.732039 56.401404 27.3125 56.34375 z M 53.53125 56.40625 L 53.78125 62.21875 L 48.21875 68.1875 L 48.15625 62.78125 L 51 57 L 53.53125 56.40625 z M 41.625 56.53125 L 41 58.1875 L 41.15625 58.25 L 41.78125 56.5625 L 41.625 56.53125 z M 46.78125 56.875 L 48.25 57.5 L 47.3125 59.59375 C 46.811738 59.370977 46.315239 59.155181 45.8125 58.9375 L 46.78125 56.875 z M 51.9375 57.4375 C 51.781828 57.448729 51.608055 57.527026 51.40625 57.625 C 50.631789 58.293992 50.475213 59.147013 50.3125 60.09375 C 50.522583 61.311882 50.955427 61.024792 51.40625 60.78125 C 52.152501 60.128199 52.30671 59.323967 52.46875 58.40625 C 52.390888 57.634725 52.196954 57.418785 51.9375 57.4375 z M 98.71875 57.6875 L 102.84375 59.875 L 100.5625 62.96875 L 107.71875 67.09375 L 109.09375 72.125 L 107.71875 77.53125 L 107.65625 77.59375 L 107.125 76.53125 L 104.65625 78.40625 L 104.625 79.6875 L 102.625 81.3125 L 102.40625 80.09375 L 99.5 82.1875 L 99.59375 83.5 L 97.6875 85.03125 L 97.21875 84.03125 L 94.09375 86.3125 L 94.21875 87.375 L 92.4375 89.125 L 91.71875 88.1875 L 91.1875 88.5625 L 54.03125 77.1875 L 62.375 67.40625 L 64.8125 68.375 L 60.5 72.59375 L 61.71875 72.28125 L 61.71875 77.46875 L 73.9375 81.28125 L 79.9375 75.5625 L 79.75 82.625 L 92.625 86.3125 L 105 75.21875 L 105.03125 68.4375 L 105.21875 68.28125 L 98.15625 62.0625 L 94.78125 63.21875 L 98.71875 59.03125 L 98.71875 57.6875 z M 51.75 57.75 C 52.020618 57.792169 52.082593 58.401613 52.09375 58.6875 C 52.012412 59.362419 51.813031 59.940466 51.40625 60.375 C 50.595616 61.091168 50.673746 60.232226 50.71875 59.75 C 50.667842 59.027725 51.074229 58.350857 51.4375 57.90625 C 51.504872 57.844834 51.570318 57.80311 51.625 57.78125 C 51.672847 57.762123 51.71134 57.743976 51.75 57.75 z M 114.65625 57.8125 L 114.8125 58.90625 L 113.375 59.25 L 113 58 L 114.65625 57.8125 z M 89.125 57.875 L 92.0625 59.0625 L 92.09375 62.0625 L 92.0625 62.03125 L 92 59.09375 L 89.1875 57.96875 L 89.25 60.84375 L 89.15625 60.78125 L 89.125 57.875 z M 64.21875 58.0625 L 69.90625 60.5625 L 69.25 61.875 L 63.53125 59.46875 L 64.21875 58.0625 z M 35.875 58.09375 L 47.46875 62.75 L 47.65625 68.4375 L 35.84375 63.875 L 35.875 58.09375 z M 89.3125 58.15625 L 91.90625 59.1875 L 91.90625 61.96875 L 89.375 60.875 L 89.3125 58.15625 z M 11.9375 58.65625 L 12.375 60.34375 L 10.5625 60.6875 L 10.21875 58.90625 L 11.9375 58.65625 z M 33.84375 59.25 C 33.771998 59.262065 33.701113 59.308862 33.625 59.34375 C 33.545324 59.46496 33.473242 59.566455 33.40625 59.6875 C 32.93731 60.534811 32.745031 61.393292 32.4375 62.5 C 32.318355 63.64669 32.359121 64.298043 32.3125 65.1875 L 34.53125 63.125 C 34.577228 61.877724 34.510128 60.798624 34.375 59.84375 C 34.265793 59.324924 34.059007 59.213806 33.84375 59.25 z M 114.84375 59.3125 L 114.9375 60.625 L 113.09375 60.9375 L 113.34375 59.5 L 114.84375 59.3125 z M 33.90625 59.4375 C 34.065939 59.474105 34.219024 59.688474 34.25 60.0625 C 34.264699 60.239992 34.304386 60.87874 34.34375 61.4375 C 34.38941 62.08564 34.461019 62.65862 34.46875 63.03125 L 32.46875 64.875 C 32.491032 64.232974 32.538673 62.674584 32.59375 62.46875 C 32.606313 62.421798 32.641539 62.309565 32.65625 62.25 C 32.557763 63.197893 32.569788 63.952242 32.53125 64.6875 L 34.375 63 C 34.394002 62.484476 34.368258 61.947388 34.34375 61.4375 C 34.319242 60.927612 34.274601 60.425917 34.21875 60.03125 C 34.098385 59.45941 33.876672 59.540893 33.625 59.65625 C 33.559137 59.756445 33.492878 59.837441 33.4375 59.9375 C 33.243678 60.28771 33.11508 60.623783 33 61 C 33.119975 60.579606 33.236183 60.153949 33.40625 59.875 C 33.462367 59.782954 33.502019 59.712197 33.5625 59.65625 C 33.603024 59.563548 33.681866 59.500759 33.75 59.46875 C 33.8011 59.444744 33.85302 59.425298 33.90625 59.4375 z M 56.1875 59.46875 L 69.09375 64.1875 L 65.21875 67.96875 L 56.03125 64.59375 L 56.1875 59.46875 z M 33.84375 59.71875 C 33.982686 59.741753 34.130644 59.909565 34.15625 60.21875 C 34.182494 60.535666 34.3006 62.363919 34.3125 62.9375 L 32.65625 64.4375 C 32.67467 63.906779 32.704472 62.420148 32.75 62.25 C 32.8677 61.810127 33.112784 60.595109 33.4375 60.0625 C 33.483889 59.986414 33.512504 59.952497 33.5625 59.90625 C 33.595999 59.829618 33.662119 59.778948 33.71875 59.75 C 33.761223 59.728289 33.797438 59.711082 33.84375 59.71875 z M 103.09375 60 L 110.21875 63.78125 L 113.40625 73.34375 L 113.53125 73.3125 L 112.03125 74.5 L 111.71875 73.3125 L 109.71875 74.625 L 109.78125 75.71875 L 108.1875 77.125 L 109.53125 72.09375 L 108.03125 66.75 L 100.96875 62.875 L 103.09375 60 z M 12.28125 60.625 L 12.21875 62.46875 L 10.625 62.84375 L 10.5625 60.9375 L 12.28125 60.625 z M 39.71875 60.65625 L 39.71875 64.25 L 42.96875 65.59375 L 42.96875 62 L 39.71875 60.65625 z M 58.625 60.75 L 58.625 64.34375 L 61.875 65.6875 L 61.875 62.09375 L 58.625 60.75 z M 39.875 60.875 L 42.8125 62.125 L 42.78125 65.375 L 39.84375 64.125 L 39.875 60.875 z M 114.84375 60.9375 L 115.0625 62.625 L 113.5625 62.875 L 113.15625 62.90625 L 113.03125 61.25 L 114.84375 60.9375 z M 39.9375 60.96875 L 39.9375 64.125 L 42.75 65.28125 L 42.75 62.15625 L 39.9375 60.96875 z M 58.78125 60.96875 L 61.71875 62.21875 L 61.6875 65.46875 L 58.75 64.21875 L 58.78125 60.96875 z M 58.84375 61.0625 L 58.84375 64.21875 L 61.65625 65.375 L 61.65625 62.25 L 58.84375 61.0625 z M 40.0625 61.15625 L 42.65625 62.25 L 42.59375 65.09375 L 40.0625 64 L 40.0625 61.15625 z M 58.96875 61.25 L 61.5625 62.34375 L 61.5 65.1875 L 58.96875 64.09375 L 58.96875 61.25 z M 76.84375 61.84375 L 85.15625 64.0625 L 73.65625 75.09375 L 69.3125 69.96875 L 76.84375 61.84375 z M 75.6875 62.125 L 68.75 69.90625 L 62 71.8125 L 69.75 64.3125 L 75.6875 62.125 z M 24 62.34375 L 24 67.53125 L 18.1875 69.5625 L 14.53125 73.78125 L 14.4375 73.40625 L 14.5625 72.03125 L 14.5 71.625 L 24 62.34375 z M 77.34375 62.53125 L 77.25 62.625 L 78.46875 63 C 77.873233 63.484424 77.373615 64.023758 76.875 64.59375 L 76.25 64.15625 L 76.125 64.25 L 76.78125 64.6875 C 76.316702 65.221074 75.854387 65.777981 75.34375 66.28125 L 74.71875 65.65625 L 74.59375 65.75 L 75.25 66.375 C 75.080795 66.537911 74.90211 66.691493 74.71875 66.84375 L 74.8125 66.9375 C 74.995722 66.791951 75.171376 66.631833 75.34375 66.46875 L 76.53125 67.625 L 73.09375 70.75 L 71.75 69.15625 L 71.5 69.21875 L 72.96875 70.875 L 72.03125 71.71875 L 72.0625 71.75 L 73 70.90625 L 74.25 72.34375 L 74.40625 72.3125 L 73.125 70.78125 L 76.59375 67.6875 L 77.8125 68.84375 L 77.84375 68.71875 L 76.6875 67.59375 L 78.59375 65.90625 L 80.5 67.21875 L 79.625 68.0625 L 79.6875 68.0625 L 80.625 67.21875 L 80.75 67.1875 L 80.6875 67.15625 L 83.46875 64.625 L 83.5625 64.65625 L 83.75 64.59375 L 83.5625 64.53125 L 83.6875 64.40625 L 83.5 64.34375 L 83.375 64.46875 L 81.03125 63.71875 L 81.25 63.53125 L 81.125 63.46875 L 80.90625 63.6875 L 78.65625 62.9375 C 78.758795 62.852897 78.862093 62.765589 78.96875 62.6875 L 78.90625 62.65625 C 78.784344 62.741306 78.677487 62.846605 78.5625 62.9375 L 77.34375 62.53125 z M 97.9375 62.53125 L 104.4375 68.34375 L 92.59375 78.875 L 92.5625 78.90625 L 86.78125 73 L 97.9375 62.53125 z M 12.3125 62.875 L 12.65625 64.5 L 11.09375 64.84375 L 10.96875 65.125 L 10.65625 63.09375 L 12.3125 62.875 z M 115.5 62.90625 L 115.71875 64.3125 L 114.09375 64.65625 L 113.65625 63.1875 L 115.5 62.90625 z M 53.4375 63.03125 L 53.46875 67.5 L 52.375 68.71875 L 52.375 65.46875 L 50.25 67.875 L 50.25 71.09375 L 48.25 73.3125 L 48.21875 69 L 53.4375 63.03125 z M 78.53125 63.03125 L 80.78125 63.78125 L 78.59375 65.75 L 77 64.65625 C 77.494034 64.082534 77.975838 63.508644 78.53125 63.03125 z M 96.78125 63.125 L 86.15625 72.875 L 80.75 74.96875 L 91.84375 64.84375 L 96.78125 63.125 z M 72.84375 63.46875 L 70.84375 65.71875 L 69.03125 65.9375 L 65.8125 69.15625 L 64.6875 69.4375 L 64.6875 69.53125 L 65.65625 69.28125 L 64.8125 70.125 L 64.96875 70.21875 L 65.9375 69.21875 L 68.5 68.59375 L 70.9375 65.78125 L 72.40625 65.59375 L 72.375 65.53125 L 71.03125 65.6875 L 72.9375 63.5 L 72.84375 63.46875 z M 98.03125 63.6875 L 97.46875 64.25 L 97.1875 64 L 97.21875 64.21875 L 97.34375 64.34375 L 94.46875 67.125 L 94.28125 66.9375 L 94.1875 66.96875 L 94.40625 67.1875 L 92.96875 68.5625 L 93.125 68.65625 L 94.53125 67.3125 L 95.53125 68.3125 L 92.375 71.34375 L 92.53125 71.46875 L 95.65625 68.4375 L 97.90625 70.6875 L 97.9375 70.59375 L 95.71875 68.375 L 97.46875 66.65625 L 97.40625 66.5 L 95.59375 68.25 L 94.59375 67.25 L 97.5 64.46875 L 100.21875 66.9375 L 98.78125 68.375 L 98.9375 68.46875 L 100.34375 67.0625 L 102.4375 68.96875 L 99.53125 71.75 L 99.65625 71.8125 L 102.65625 69 L 100.4375 66.96875 L 101.34375 66.09375 L 101.25 65.90625 L 100.3125 66.84375 L 97.59375 64.375 L 98.21875 63.78125 L 98.03125 63.6875 z M 80.9375 63.8125 L 83.28125 64.5625 L 80.625 67.09375 L 78.6875 65.8125 L 80.9375 63.8125 z M 27.6875 64.15625 C 27.54507 64.160921 27.401004 64.164442 27.28125 64.1875 C 26.442974 64.348902 26.112241 64.936861 25.5625 65.59375 C 25.349518 66.566171 25.395839 67.241234 25.3125 68.0625 L 29.25 69.21875 C 29.332187 68.038726 29.241553 66.902521 29 65.75 C 28.739711 64.845256 28.23174 64.462015 27.6875 64.15625 z M 27.25 64.34375 C 27.350314 64.333786 27.454385 64.342483 27.5625 64.375 C 27.852269 64.241292 28.714061 65.035769 28.8125 65.78125 C 28.869255 66.21107 29.130516 68.31632 29.15625 69.03125 L 25.59375 67.96875 C 25.633584 67.359319 25.682795 65.844025 25.78125 65.71875 C 26.035773 65.394893 26.547807 64.413496 27.25 64.34375 z M 27.3125 64.4375 C 26.619549 64.570925 26.360687 65.081991 25.90625 65.625 C 25.730195 66.428841 25.787641 67.227361 25.71875 67.90625 L 28.96875 68.875 C 29.036688 67.899547 28.949677 66.671467 28.75 65.71875 C 28.534836 64.970855 28.074888 64.690258 27.625 64.4375 C 27.507262 64.441362 27.411493 64.41844 27.3125 64.4375 z M 35.84375 64.46875 L 47.65625 69.15625 L 47.8125 73.59375 L 35.8125 69.09375 L 35.84375 64.46875 z M 27.3125 64.59375 C 27.395422 64.585516 27.473128 64.59812 27.5625 64.625 C 27.802035 64.514472 28.512378 65.165007 28.59375 65.78125 C 28.640666 66.13655 28.853728 68.127763 28.875 68.71875 L 25.90625 67.8125 C 25.939179 67.308721 25.981114 65.853556 26.0625 65.75 C 26.2729 65.482287 26.732039 64.651404 27.3125 64.59375 z M 115.78125 64.71875 L 115.8125 64.90625 L 115.71875 65.9375 L 113.875 66.375 L 114.09375 64.96875 L 115.78125 64.71875 z M 76.875 64.78125 L 78.5 65.84375 L 76.625 67.53125 L 75.46875 66.375 C 75.965271 65.890466 76.411969 65.320934 76.875 64.78125 z M 85.4375 64.78125 L 85.53125 69.8125 L 74.15625 80.21875 L 73.90625 75.34375 L 85.4375 64.78125 z M 12.96875 64.875 L 13.125 65.96875 L 11.6875 66.3125 L 11.3125 65.0625 L 12.96875 64.875 z M 93.8125 65.03125 L 91.53125 67.28125 L 90 67.46875 L 90.59375 66.90625 L 90.4375 66.8125 L 89.71875 67.5 L 89.0625 67.59375 L 89.6875 67.53125 L 88.21875 68.96875 L 87.09375 69.3125 L 87.0625 69.375 L 88.0625 69.125 L 85.125 72 L 83.90625 72.4375 L 83.875 72.5625 L 85 72.15625 L 84.25 72.875 L 84.28125 72.9375 L 85.1875 72.09375 L 86.75 71.5 L 86.75 71.4375 L 85.3125 71.9375 L 88.34375 69.0625 L 89.59375 68.75 L 89.53125 68.59375 L 88.5 68.90625 L 89.96875 67.5 L 91.40625 67.375 L 91 67.78125 L 91.15625 67.875 L 91.71875 67.34375 L 92.15625 67.3125 L 92.15625 67.1875 L 91.84375 67.21875 L 93.96875 65.1875 L 93.8125 65.03125 z M 52.28125 65.78125 L 52.25 68.84375 L 52.21875 68.90625 L 52.21875 65.875 L 50.40625 67.9375 L 50.40625 70.90625 L 50.34375 70.96875 L 50.34375 67.90625 L 52.21875 65.875 L 52.28125 65.78125 z M 70.75 65.8125 L 68.375 68.46875 L 66.09375 69.0625 L 69.09375 66.03125 L 70.75 65.8125 z M 53.90625 65.84375 L 56.65625 67.03125 L 47.53125 77.84375 L 42.71875 73 L 35.96875 75.84375 L 30.75 80.96875 L 30.75 79.75 L 31.40625 80.125 L 32.5 78.96875 L 32.625 78.84375 L 35.78125 75.46875 L 35.8125 69.5625 L 47.96875 74.40625 L 53.96875 67.65625 L 53.90625 65.84375 z M 52.15625 66.09375 L 52.125 69 L 50.46875 70.84375 L 50.46875 68 L 52.15625 66.09375 z M 13.15625 66.375 L 13.25 67.6875 L 11.40625 68 L 11.65625 66.5625 L 13.15625 66.375 z M 115.71875 66.375 L 115.96875 67.6875 L 114.25 68 L 113.875 66.625 L 115.71875 66.375 z M 13.15625 68 L 13.375 69.6875 L 11.875 69.9375 L 11.46875 69.96875 L 11.34375 68.3125 L 13.15625 68 z M 23.46875 68.09375 L 19.40625 72.84375 L 14.84375 74.4375 L 14.65625 74.28125 L 18.28125 70.03125 L 23.46875 68.09375 z M 24.03125 68.09375 L 30.125 74.3125 L 25.5 79 L 19.75 73.09375 L 24.03125 68.09375 z M 116.03125 68.1875 L 116.9375 71.125 L 114.71875 72.96875 L 114.375 71.5625 L 115.34375 70.625 L 114.625 68.375 L 116.03125 68.1875 z M 104.34375 69.0625 L 104.375 74.96875 L 92.96875 85.1875 L 92.8125 79.4375 L 104.34375 69.0625 z M 20.84375 69.125 L 20.125 70.09375 L 18.96875 70.53125 L 19.15625 70.28125 L 18.96875 70.25 L 18.6875 70.625 L 17.5 71.09375 L 17.46875 71.21875 L 18.5625 70.84375 L 17.1875 72.75 L 16.125 73 L 16.1875 73.1875 L 17.03125 72.96875 L 16.8125 73.28125 L 16.90625 73.28125 L 17.1875 72.9375 L 18.3125 72.625 L 18.28125 72.46875 L 17.34375 72.6875 L 18.8125 70.75 L 20 70.3125 L 18.59375 72.21875 L 18.8125 72.28125 L 20.25 70.21875 L 21.5 69.75 L 21.40625 69.625 L 20.375 70 L 20.96875 69.15625 L 20.84375 69.125 z M 24.6875 69.25 L 24 69.9375 L 23.40625 69.34375 L 23.3125 69.4375 L 23.90625 70.0625 L 22.71875 71.28125 L 22.875 71.40625 L 24 70.15625 L 26.21875 72.4375 L 26.375 72.3125 L 24.125 70.0625 L 24.75 69.34375 L 24.6875 69.25 z M 13.8125 69.96875 L 14.03125 71.375 L 12.40625 71.71875 L 11.96875 70.25 L 13.8125 69.96875 z M 103.75 70.09375 L 101.625 72.5 L 101.625 76.09375 L 103.75 73.6875 L 103.75 70.09375 z M 96.40625 70.1875 L 92.46875 73.90625 L 90.875 72.4375 L 90.71875 72.5 L 92.34375 74.03125 L 91.84375 74.5 L 91.9375 74.625 L 92.46875 74.125 L 93.65625 75.25 L 91.65625 77.125 L 91.8125 77.1875 L 93.78125 75.375 L 94.71875 76.25 L 94.875 76.15625 L 93.90625 75.25 L 96.375 72.9375 L 96.28125 72.8125 L 93.78125 75.15625 L 92.5625 74.03125 L 96.53125 70.3125 L 96.40625 70.1875 z M 68.875 70.34375 L 73.4375 75.65625 L 73.59375 80.53125 L 68.9375 79.125 L 68.9375 76.09375 L 65.6875 75 L 65.6875 78.125 L 62.28125 77.09375 L 62.46875 72.0625 L 68.875 70.34375 z M 103.65625 70.40625 L 103.625 73.6875 L 101.71875 75.84375 L 101.71875 72.53125 L 103.59375 70.5 L 103.65625 70.40625 z M 103.59375 70.5 L 101.78125 72.5625 L 101.78125 75.71875 L 103.59375 73.625 L 103.59375 70.5 z M 103.53125 70.71875 L 103.5 73.625 L 101.84375 75.46875 L 101.84375 72.625 L 103.53125 70.71875 z M 68.1875 71.03125 C 67.716953 71.033288 67.696403 71.421686 67.65625 71.875 C 68.01311 72.861017 68.395176 73.009318 68.8125 73.1875 C 69.472825 73.31298 69.51374 72.873906 69.5625 72.375 C 69.288433 71.443045 68.939252 71.295167 68.4375 71.0625 C 68.351706 71.045481 68.254721 71.030959 68.1875 71.03125 z M 68.5 71.25 C 68.97452 71.327294 69.190014 72.016945 69.25 72.28125 C 69.251656 72.676977 69.100363 72.921378 68.75 72.90625 C 68.033531 72.774536 68.014182 72.261477 68 71.96875 C 67.861446 71.440203 68.19401 71.274837 68.5 71.25 z M 14.09375 71.78125 L 14.125 71.96875 L 14.03125 73 L 12.1875 73.4375 L 12.40625 72.03125 L 14.09375 71.78125 z M 116.4375 72 L 116.59375 90.875 L 110.59375 95.46875 L 110.59375 83.46875 L 99.375 92.5 L 99.40625 104.125 L 89.625 111.46875 L 89.5625 91.90625 L 92.03125 90.0625 L 91.875 92.03125 L 95.09375 89.46875 L 95.09375 87.9375 L 97.0625 86.5625 L 97.28125 88.21875 L 100.25 85.53125 L 100.28125 84 L 102.3125 82.53125 L 102.34375 83.71875 L 105.15625 81.71875 L 105.0625 80.375 L 107.03125 78.90625 L 107.3125 80.75 L 110.375 78.25 L 110.25 76.65625 L 111.875 75.375 L 112.1875 77.15625 L 115.0625 74.6875 L 114.84375 73.375 L 116.4375 72 z M 24.96875 72.375 L 24.9375 72.46875 L 26.59375 74.09375 L 25.21875 75.40625 L 22.4375 72.40625 L 22.3125 72.46875 L 25.1875 75.5 L 26.65625 74.15625 L 27.75 75.21875 L 25.46875 77.5 L 20.9375 72.875 L 20.78125 72.96875 L 25.46875 77.625 L 27.8125 75.28125 L 28.375 75.8125 L 28.46875 75.75 L 27.90625 75.1875 L 28.65625 74.4375 L 28.5625 74.375 L 27.8125 75.125 L 26.75 74.09375 L 27.0625 73.78125 L 26.96875 73.71875 L 26.65625 74 L 24.96875 72.375 z M 114.3125 73.0625 L 114.5625 74.46875 L 112.375 76.40625 L 112.125 74.75 L 114.3125 73.0625 z M 34.53125 73.28125 L 34.5 76.21875 L 34.46875 76.25 L 34.46875 73.375 L 32.65625 75.4375 L 32.65625 78.28125 L 32.59375 78.34375 L 32.59375 75.40625 L 34.46875 73.375 L 34.53125 73.28125 z M 14.03125 73.4375 L 14.28125 74.75 L 12.5625 75.0625 L 12.1875 73.6875 L 14.03125 73.4375 z M 86.25 73.4375 L 92.09375 79.34375 L 92.15625 85.6875 L 87.125 84.21875 L 87.125 81.09375 L 83.875 80 L 83.875 83.25 L 80.25 82.1875 L 80.375 75.65625 L 86.25 73.4375 z M 34.40625 73.59375 L 34.375 76.375 L 32.71875 78.21875 L 32.71875 75.5 L 34.40625 73.59375 z M 19.25 73.625 L 24.90625 79.34375 L 24.96875 83.375 L 24.375 83.125 L 24.40625 81.78125 L 21.125 80.0625 L 20.34375 80.78125 L 18.4375 80 L 18.53125 78.8125 L 17.84375 78.40625 L 20.6875 79.375 L 20.6875 75.78125 L 17.4375 74.6875 L 17.4375 78.1875 L 15.1875 76.90625 L 14.8125 74.78125 L 19.25 73.625 z M 42.75 73.8125 L 48.65625 79.75 C 45.403302 82.693564 42.159197 85.841267 38.90625 88.59375 L 37.75 89.625 L 37.1875 89.5625 L 36.53125 89.375 C 36.527341 89.366948 36.534738 89.352102 36.53125 89.34375 C 36.523278 89.32466 36.50592 89.301791 36.5 89.28125 L 36.625 87.90625 L 36.4375 87.8125 L 33.21875 86 L 33.1875 86.03125 L 33.15625 86.03125 L 31.40625 84.21875 L 42.75 73.8125 z M 111.53125 73.8125 L 111.6875 75.09375 L 110.25 76.25 L 110.25 74.65625 L 111.53125 73.8125 z M 41.71875 74.0625 L 31 83.78125 L 29.71875 84.34375 L 28.53125 83.65625 L 36.28125 76.25 L 41.71875 74.0625 z M 42.59375 74.65625 L 37.84375 78.96875 L 37.625 78.75 L 37.5 78.78125 L 37.75 79.0625 L 36.8125 79.90625 L 36.9375 79.96875 L 37.84375 79.125 L 40.40625 81.78125 L 38.03125 83.90625 L 36.15625 82 L 36.03125 82.03125 L 37.9375 84 L 35.8125 85.9375 L 33.15625 83.34375 L 33.0625 83.4375 L 35.71875 86.03125 L 35.21875 86.46875 L 35.28125 86.625 L 35.8125 86.125 L 37.5625 87.8125 L 46.5 79.875 L 46.40625 79.8125 L 37.5625 87.625 L 35.9375 86.03125 L 38.03125 84.09375 L 39.21875 85.3125 L 39.34375 85.25 L 38.125 84 L 40.46875 81.84375 L 41.46875 82.875 L 46.34375 78.53125 L 46.71875 78.9375 L 46.84375 78.875 L 46.4375 78.46875 L 46.59375 78.3125 L 46.53125 78.21875 L 46.34375 78.375 L 42.59375 74.65625 z M 42.59375 74.78125 L 46.25 78.46875 L 41.5 82.625 L 40.59375 81.71875 L 41.96875 80.4375 L 41.9375 80.375 L 40.53125 81.65625 L 37.9375 79.0625 L 42.59375 74.78125 z M 17.59375 74.90625 L 20.53125 75.9375 L 20.5 79.1875 L 17.5625 78.15625 L 17.59375 74.90625 z M 17.65625 75 L 17.65625 78.15625 L 20.46875 79.09375 L 20.46875 75.96875 L 17.65625 75 z M 30.15625 75.125 L 30.25 81 L 27.9375 83.40625 L 27.34375 83.0625 L 26.0625 83.84375 L 25.59375 83.65625 L 25.65625 79.78125 L 30.15625 75.125 z M 17.78125 75.15625 L 20.375 76.0625 L 20.3125 78.90625 L 17.78125 78 L 17.78125 75.15625 z M 65.84375 75.21875 L 68.78125 76.25 L 68.75 79.0625 L 68.71875 79.0625 L 68.71875 76.28125 L 65.90625 75.3125 L 65.90625 78.1875 L 65.8125 78.15625 L 65.84375 75.21875 z M 14.34375 75.25 L 14.9375 77.0625 L 18.1875 78.90625 L 17.125 79.46875 L 13.375 77.5 L 12.9375 75.4375 L 14.34375 75.25 z M 66.03125 75.46875 L 68.625 76.375 L 68.5625 79 L 66.03125 78.21875 L 66.03125 75.46875 z M 38.5625 75.90625 L 37.9375 76.5 L 36.3125 76.90625 L 36.5 76.75 L 36.4375 76.625 L 36.0625 77 L 35.53125 77.125 L 35.375 77.21875 L 35.96875 77.09375 L 32.25 80.65625 L 32 80.65625 L 31.875 80.8125 L 32.09375 80.8125 L 29.6875 83.15625 L 29.875 83.21875 L 32.34375 80.8125 L 34 80.84375 L 34 80.71875 L 32.46875 80.65625 L 36.21875 77.03125 L 37.78125 76.6875 L 36.21875 78.21875 L 36.34375 78.3125 L 38.0625 76.625 L 38.46875 76.53125 L 38.5 76.375 L 38.25 76.4375 L 38.75 75.9375 L 38.5625 75.90625 z M 109.8125 76.09375 L 110 78.21875 L 107.65625 79.96875 L 107.28125 78.4375 L 107.5625 78.0625 L 109.8125 76.09375 z M 96.625 76.46875 L 94.5 78.875 L 94.5 82.46875 L 96.625 80.0625 L 96.625 76.46875 z M 96.53125 76.78125 L 96.5 80.0625 L 94.59375 82.21875 L 94.59375 78.90625 L 96.46875 76.875 L 96.53125 76.78125 z M 96.46875 76.875 L 94.65625 78.9375 L 94.65625 82.09375 L 96.46875 80 L 96.46875 76.875 z M 96.40625 77.09375 L 96.375 80 L 94.71875 81.84375 L 94.71875 79 L 96.40625 77.09375 z M 106.78125 77.25 L 106.96875 78.65625 L 105.15625 79.96875 L 105.0625 79.5625 L 105.0625 78.5625 L 106.78125 77.25 z M 13.5 78.0625 L 16.78125 79.875 L 16.71875 80.90625 L 20.28125 82.6875 L 20.34375 81.46875 L 22.875 82.6875 L 22.75 84.125 L 25.71875 86.0625 L 25.875 84.3125 L 28.6875 85.75 L 28.5 86.96875 L 32.0625 88.8125 L 32.1875 87.5625 L 34.78125 88.9375 L 34.78125 90.375 L 38.0625 91.875 L 38.09375 90.6875 L 40.71875 91.9375 L 40.59375 93.4375 L 44.59375 95.15625 L 44.59375 93.90625 L 46.40625 94.6875 L 46.40625 114.03125 L 13.46875 97.59375 L 13.5 78.0625 z M 18.25 79.28125 L 18.1875 79.875 L 17.40625 80.3125 L 17.34375 79.75 L 18.25 79.28125 z M 104.78125 79.96875 L 104.65625 81.65625 L 102.6875 83 L 102.5625 81.71875 L 104.78125 79.96875 z M 18.3125 80.21875 L 20 81.09375 L 20 82.0625 L 17.4375 80.75 L 18.3125 80.21875 z M 84.03125 80.21875 L 86.96875 81.25 L 86.9375 84.15625 L 86.90625 84.15625 L 86.90625 81.28125 L 84.09375 80.3125 L 84.09375 83.3125 L 84 83.28125 L 84.03125 80.21875 z M 58.625 80.28125 L 72.3125 85.0625 C 72.03145 85.107313 69.409325 84.87435 68.65625 84.9375 L 54.78125 80.4375 L 58.625 80.28125 z M 21.15625 80.34375 L 23.96875 81.84375 L 23 82.34375 L 20.46875 81.15625 L 21.15625 80.34375 z M 53.84375 80.46875 L 67.9375 85.4375 C 67.105467 86.676191 65.9855 88.322544 65 89.84375 L 50.28125 85.21875 L 53.84375 80.46875 z M 84.21875 80.46875 L 86.8125 81.375 L 86.75 84.09375 L 84.875 83.53125 L 84.21875 83.3125 L 84.21875 80.46875 z M 48.5 80.6875 L 48.6875 86.34375 L 42.6875 92.25 L 42.34375 92.03125 L 42.5 90.625 L 39.375 89 L 48.5 80.6875 z M 57.53125 80.71875 L 57.40625 80.8125 L 59.96875 81.875 L 61 81.3125 L 60.875 81.1875 L 59.9375 81.75 L 57.53125 80.71875 z M 102.125 80.71875 L 102.3125 81.96875 L 100.21875 83.75 L 100.03125 83.0625 L 100.09375 82.25 L 102.125 80.71875 z M 54.3125 81.0625 L 52.8125 83.21875 L 52.3125 83.03125 L 52.25 83.09375 L 52.75 83.3125 L 51.8125 84.65625 L 51.375 84.5 L 51.28125 84.53125 L 51.78125 84.71875 L 51.625 84.9375 L 51.78125 85 L 51.9375 84.78125 L 53.1875 85.25 L 53 85.53125 L 53.125 85.5625 L 53.3125 85.28125 L 56.71875 86.53125 L 56.78125 86.46875 L 53.34375 85.21875 L 54.21875 83.90625 L 54.90625 84.1875 L 54.3125 85.03125 L 54.5 85.03125 L 55.0625 84.25 L 60.40625 86.40625 L 59.4375 87.78125 L 59.53125 87.84375 L 60.53125 86.46875 L 61.5 86.84375 L 61.5625 86.71875 L 60.625 86.34375 L 61.9375 84.53125 L 64.5625 85.40625 L 63.84375 86.59375 L 63 86.34375 L 63 86.5 L 63.75 86.71875 L 63.03125 87.875 L 63.15625 87.96875 L 63.90625 86.75 L 64.875 87.03125 L 63.78125 88.71875 L 63.90625 88.8125 L 65 87.09375 L 66.3125 87.46875 L 66.4375 87.34375 L 65.09375 86.9375 L 65.875 85.71875 L 64.78125 85.375 L 64.875 85.1875 L 64.75 85.125 L 64.625 85.3125 L 61.8125 84.40625 L 60.5 86.28125 L 55.125 84.15625 L 56.3125 82.5 L 56.1875 82.40625 L 54.96875 84.09375 L 54.28125 83.8125 L 55.59375 81.84375 L 55.46875 81.78125 L 54.15625 83.78125 L 52.9375 83.28125 L 54.40625 81.15625 L 54.3125 81.0625 z M 61.78125 81.65625 L 60.96875 82.1875 L 60.96875 82.3125 L 61.78125 81.875 L 62.96875 82.40625 L 63.5625 82.0625 L 63.46875 82 L 62.90625 82.28125 L 61.78125 81.65625 z M 24.03125 82.1875 L 24.09375 83.09375 L 23.15625 83.59375 L 23.125 82.625 L 23.15625 82.65625 L 24.03125 82.1875 z M 63.875 82.96875 L 63.84375 83.09375 L 68.65625 84.71875 L 68.78125 84.65625 L 63.875 82.96875 z M 27.34375 83.3125 L 30.15625 84.875 L 29.0625 85.5 L 26.03125 84.03125 L 27.34375 83.3125 z M 52.90625 83.34375 L 54.09375 83.84375 L 53.21875 85.1875 L 51.96875 84.71875 L 52.90625 83.34375 z M 24.3125 83.375 L 25.65625 83.96875 L 25.53125 85.40625 L 23.25 83.9375 L 24.3125 83.375 z M 99.78125 83.6875 L 99.8125 85.4375 L 97.625 87.375 L 97.5625 85.90625 L 97.6875 85.78125 L 97.65625 85.40625 L 99.78125 83.6875 z M 45.875 83.84375 L 43.75 86.25 L 43.75 89.84375 L 45.875 87.4375 L 45.875 83.84375 z M 110.34375 84 L 110.34375 95.65625 L 110.3125 95.6875 L 109.1875 95.25 L 109.1875 84.96875 L 110.34375 84 z M 45.78125 84.15625 L 45.75 87.4375 L 43.84375 89.59375 L 43.84375 86.28125 L 45.71875 84.25 L 45.78125 84.15625 z M 45.71875 84.25 L 43.90625 86.3125 L 43.90625 89.46875 L 45.71875 87.375 L 45.71875 84.25 z M 45.65625 84.46875 L 45.625 87.375 L 43.96875 89.21875 L 43.96875 86.375 L 45.65625 84.46875 z M 97.0625 84.5 L 97.25 85.75 L 94.75 87.625 L 94.5625 86.8125 L 94.59375 86.375 L 97.0625 84.5 z M 30.875 84.59375 L 32.625 86.5 L 32.09375 86.96875 L 30.4375 86.4375 L 30.59375 84.9375 L 30.375 84.8125 L 30.875 84.59375 z M 68.40625 85.25 C 69.974325 85.579411 72.128938 85.539082 73.75 85.9375 L 73.71875 91.46875 L 70.09375 91.8125 L 69.5625 93.09375 L 67.1875 93.40625 L 67 91.96875 L 65.71875 92.03125 L 65.59375 90.5625 C 66.496198 88.743475 67.610975 86.454643 68.40625 85.25 z M 108.8125 85.25 L 108.84375 86.0625 L 107.71875 86.96875 L 107.71875 86.15625 L 108.8125 85.25 z M 30.15625 85.34375 L 30 86.28125 L 29.03125 86.78125 L 29 86.78125 L 29.0625 85.75 L 29.15625 85.84375 L 30.15625 85.34375 z M 64.71875 85.4375 L 65.71875 85.78125 L 64.96875 86.90625 L 63.96875 86.625 L 64.71875 85.4375 z M 49.78125 85.6875 L 65.03125 90.625 L 65.03125 92.0625 L 62.71875 92.15625 L 62.125 93.625 L 59.625 93.6875 L 59.5 92.40625 L 55.03125 92.40625 L 54.28125 93.875 L 51.46875 94 L 51.34375 92.8125 L 49.96875 92.84375 L 49.78125 85.6875 z M 108.84375 86.21875 L 108.875 88.53125 L 107.71875 89.5 L 107.71875 87.15625 L 108.84375 86.21875 z M 107.59375 86.25 L 107.59375 87.09375 L 106 88.40625 L 106 87.5625 L 107.59375 86.25 z M 33.46875 86.375 L 36.21875 88.0625 L 35.125 88.6875 L 32.1875 87.28125 L 33.46875 86.375 z M 30.28125 86.5625 L 31.90625 87.3125 L 31.84375 88.21875 L 29.40625 87 L 30.28125 86.5625 z M 74.28125 86.625 L 84.125 89.03125 L 81.8125 92.25 L 81.5 91.0625 L 77.53125 91.21875 L 76.59375 92.6875 L 74.53125 92.78125 L 74.46875 91.40625 L 74.34375 91.40625 L 74.28125 86.625 z M 69.78125 86.65625 C 69.625577 86.66748 69.420555 86.777026 69.21875 86.875 C 68.444293 87.543987 68.287713 88.365763 68.125 89.3125 C 68.335087 90.530631 68.767927 90.274792 69.21875 90.03125 C 69.965005 89.378194 70.11921 88.542717 70.28125 87.625 C 70.203391 86.853472 70.040705 86.637534 69.78125 86.65625 z M 69.59375 87 C 69.853408 87.061526 69.89532 87.657448 69.90625 87.9375 C 69.824916 88.612418 69.625531 89.190466 69.21875 89.625 C 68.40812 90.341163 68.486246 89.482226 68.53125 89 C 68.480346 88.277727 68.886729 87.600857 69.25 87.15625 C 69.384746 87.033417 69.507197 86.979491 69.59375 87 z M 107.59375 87.25 L 107.59375 89.59375 L 106 90.9375 L 106 88.59375 L 107.59375 87.25 z M 94.34375 87.59375 L 94.59375 89.28125 L 92.3125 91.125 L 92.40625 89.71875 L 94.34375 87.59375 z M 105.875 87.65625 L 105.875 88.5 L 104.375 89.75 L 104.375 88.90625 L 105.875 87.65625 z M 36.1875 88.5625 L 36.125 89.25 L 35.21875 89.75 L 35.21875 89 L 35.25 89.03125 L 36.1875 88.5625 z M 105.875 88.6875 L 105.875 91.03125 L 104.375 92.28125 L 104.375 89.9375 L 105.875 88.6875 z M 108.875 88.6875 L 108.90625 90.71875 L 107.71875 91.71875 L 107.71875 89.625 L 108.875 88.6875 z M 91.71875 88.875 L 92.1875 89.4375 L 89.0625 91.78125 L 84.75 92.25 L 85.3125 90.9375 L 88.84375 90.6875 L 91.71875 88.875 z M 104.28125 88.96875 L 104.28125 89.84375 L 102.5625 91.28125 L 102.5625 90.40625 L 104.28125 88.96875 z M 39.28125 89.25 L 42.09375 90.71875 L 41.09375 91.71875 L 38.0625 90.3125 L 38.125 90.25 L 39.28125 89.25 z M 36.21875 89.65625 L 36.46875 89.75 L 37.84375 90.40625 L 37.8125 91.15625 L 35.21875 90.09375 L 36.21875 89.65625 z M 107.59375 89.75 L 107.59375 91.8125 L 106 93.15625 L 106 91.0625 L 107.59375 89.75 z M 104.28125 90 L 104.28125 92.375 L 102.5625 93.78125 L 102.5625 91.4375 L 104.28125 90 z M 102.4375 90.5 L 102.4375 91.375 L 100.84375 92.6875 L 100.84375 91.8125 L 102.4375 90.5 z M 108.90625 90.875 L 108.9375 92.9375 L 107.71875 93.9375 L 107.71875 91.84375 L 108.90625 90.875 z M 105.875 91.15625 L 105.875 93.25 L 104.375 94.5 L 104.375 92.40625 L 105.875 91.15625 z M 42.0625 91.25 L 41.875 92.09375 L 41.1875 93 L 41.25 91.96875 L 42.0625 91.25 z M 81.03125 91.375 L 80.1875 92.53125 L 77.25 92.75 L 77.96875 91.5625 L 81.03125 91.375 z M 81.25 91.53125 L 81.53125 92.53125 L 80.8125 93.6875 L 80.59375 92.5625 L 81.25 91.53125 z M 102.4375 91.53125 L 102.4375 93.90625 L 100.84375 95.21875 L 100.84375 92.875 L 102.4375 91.53125 z M 74.0625 91.8125 L 73.25 93.125 L 69.8125 93.3125 L 70.4375 92 L 74.0625 91.8125 z M 100.71875 91.90625 L 100.71875 92.8125 L 99.84375 93.53125 L 99.84375 92.625 L 100.71875 91.90625 z M 107.59375 91.96875 L 107.59375 94.0625 L 106 95.375 L 106 93.28125 L 107.59375 91.96875 z M 44.9375 92.0625 L 47.25 93.21875 L 50.8125 93.09375 L 50.15625 94.09375 L 46.625 94.34375 L 44.21875 93.34375 L 44.9375 92.0625 z M 66.53125 92.28125 L 65.65625 93.53125 L 62.46875 93.8125 L 63.0625 92.46875 L 66.53125 92.28125 z M 89.125 92.3125 L 89.21875 111.71875 L 89.25 111.75 L 46.84375 114.1875 L 46.78125 94.6875 L 49.8125 94.53125 L 49.96875 96 L 54.9375 95.6875 L 54.8125 94.5 L 58.15625 94.3125 L 58.125 95.90625 L 62.59375 95.53125 L 62.5625 94.03125 L 65.59375 93.84375 L 65.8125 95.21875 L 70.0625 94.9375 L 69.875 93.59375 L 73.09375 93.46875 L 73.21875 94.96875 L 76.90625 94.5625 L 76.9375 93.0625 L 80.15625 92.90625 L 80.34375 94.53125 L 84.78125 94 L 84.5625 92.5 L 89.125 92.3125 z M 42.3125 92.34375 L 44.0625 93.4375 L 44.09375 94.5 L 41.34375 93.375 L 42.3125 92.34375 z M 74.125 92.34375 L 74.375 93.15625 L 73.75 94 L 73.6875 93.03125 L 74.125 92.34375 z M 84.0625 92.5 L 84.0625 93.625 L 80.96875 94.03125 L 81.84375 92.5625 L 84.0625 92.5 z M 104.28125 92.5 L 104.28125 94.59375 L 102.5625 96 L 102.5625 93.9375 L 104.28125 92.5 z M 66.65625 92.53125 L 66.8125 93.46875 L 66.25 94.25 L 66.21875 93.40625 L 66.65625 92.53125 z M 55.46875 92.78125 L 58.9375 92.84375 L 58.28125 93.78125 L 54.84375 93.90625 L 55.46875 92.78125 z M 76.5 92.96875 L 76.46875 94.21875 L 73.875 94.4375 L 74.53125 93.125 L 76.5 92.96875 z M 100.71875 92.96875 L 100.71875 95.3125 L 99.8125 96.09375 L 99.84375 93.71875 L 100.71875 92.96875 z M 59.21875 93.0625 L 59.3125 94.09375 L 58.625 95.0625 L 58.59375 93.90625 L 59.21875 93.0625 z M 108.9375 93.09375 L 108.96875 95.3125 L 107.71875 96.3125 L 107.71875 94.125 L 108.9375 93.09375 z M 105.875 93.375 L 105.875 95.46875 L 104.375 96.71875 L 104.375 94.625 L 105.875 93.375 z M 69.3125 93.4375 L 69.40625 94.5625 L 66.5 94.78125 L 67.03125 93.65625 L 69.3125 93.4375 z M 50.90625 93.53125 L 51.03125 94.3125 L 50.5625 95 L 50.4375 94.3125 L 50.90625 93.53125 z M 62.09375 93.9375 L 62.03125 95.1875 L 58.6875 95.40625 L 59.46875 94.28125 L 62.09375 93.9375 z M 102.4375 94.03125 L 102.4375 96.125 L 100.84375 97.4375 L 100.84375 95.34375 L 102.4375 94.03125 z M 54.21875 94.125 L 54.15625 95.25 L 50.625 95.5 L 51.28125 94.40625 L 54.21875 94.125 z M 107.59375 94.21875 L 107.59375 96.4375 L 106 97.71875 L 106 95.5625 L 107.59375 94.21875 z M 104.28125 94.71875 L 104.28125 96.8125 L 102.5625 98.25 L 102.5625 96.15625 L 104.28125 94.71875 z M 100.71875 95.46875 L 100.71875 97.53125 L 99.78125 98.34375 L 99.78125 96.21875 L 100.71875 95.46875 z M 105.875 95.65625 L 105.875 97.8125 L 104.375 99 L 104.375 96.90625 L 105.875 95.65625 z M 102.4375 96.25 L 102.4375 98.34375 L 100.84375 99.6875 L 100.84375 97.59375 L 102.4375 96.25 z M 104.28125 97 L 104.25 99.125 L 102.53125 100.5 L 102.5625 98.40625 L 104.28125 97 z M 100.71875 97.6875 L 100.71875 99.78125 L 99.75 100.59375 L 99.75 98.46875 L 100.71875 97.6875 z M 102.4375 98.53125 L 102.40625 100.59375 L 100.8125 101.875 L 100.8125 99.84375 L 102.4375 98.53125 z M 100.6875 99.9375 L 100.6875 101.96875 L 99.6875 102.78125 L 99.71875 100.75 L 100.6875 99.9375 z " id="path2308"/>
  </g>
</svg>