<?xml version="1.0" encoding="UTF-8" standalone="no"?>
<!-- Created with Inkscape (http://www.inkscape.org/) -->
<svg xmlns:dc="http://purl.org/dc/elements/1.1/" xmlns:cc="http://creativecommons.org/ns#" xmlns:rdf="http://www.w3.org/1999/02/22-rdf-syntax-ns#" xmlns:svg="http://www.w3.org/2000/svg" xmlns="http://www.w3.org/2000/svg" xmlns:xlink="http://www.w3.org/1999/xlink" xmlns:sodipodi="http://sodipodi.sourceforge.net/DTD/sodipodi-0.dtd" xmlns:inkscape="http://www.inkscape.org/namespaces/inkscape" width="128" height="128" id="svg2" sodipodi:version="0.32" inkscape:version="0.45+devel" version="1.0" sodipodi:docname="statue_outline.svg" inkscape:output_extension="org.inkscape.output.svg.inkscape">
  <defs id="defs4">
    <radialGradient r="8.2519293" fy="222.04396" fx="14.207293" cy="222.04396" cx="14.207293" gradientTransform="scale(1.39523, 0.716728)" gradientUnits="userSpaceOnUse" id="radialGradient1968" xlink:href="#linearGradient2057" inkscape:collect="always"/>
    <linearGradient inkscape:collect="always" id="linearGradient2057">
      <stop style="stop-color: rgb(0, 0, 0); stop-opacity: 1;" offset="0" id="stop2059"/>
      <stop style="stop-color: rgb(0, 0, 0); stop-opacity: 0;" offset="1" id="stop2061"/>
    </linearGradient>
  </defs>
  <sodipodi:namedview id="base" pagecolor="#ffffff" bordercolor="#666666" borderopacity="1.0" gridtolerance="10000" guidetolerance="10" objecttolerance="10" inkscape:pageopacity="0.0" inkscape:pageshadow="2" inkscape:zoom="1" inkscape:cx="64" inkscape:cy="86.5" inkscape:document-units="px" inkscape:current-layer="layer1" showgrid="false" width="744.09px" inkscape:window-width="1248" inkscape:window-height="975" inkscape:window-x="426" inkscape:window-y="24" showguides="true" inkscape:guide-bbox="true"/>
  <metadata id="metadata7">
    <rdf:RDF>
      <cc:Work rdf:about="">
        <dc:format>image/svg+xml</dc:format>
        <dc:type rdf:resource="http://purl.org/dc/dcmitype/StillImage"/>
      </cc:Work>
    </rdf:RDF>
  </metadata>
  <g inkscape:label="Layer 1" inkscape:groupmode="layer" id="layer1">
    <path style="fill: rgb(92, 39, 0); fill-opacity: 1; fill-rule: evenodd; stroke: none; stroke-width: 1px; stroke-linecap: butt; stroke-linejoin: miter; stroke-opacity: 1;" d="M 29.0625,6.8125 L 29.15625,15.375 L 37.3125,33.78125 C 34.198804,35.350913 33.990392,36.864231 33.96875,38.4375 C 35.078565,38.79255 36.059792,38.981906 36.96875,39.125 C 35.639452,41.083318 36.496777,43.397723 37.90625,45.8125 C 39.590526,45.860035 41.313221,44.086783 41.90625,43.59375 L 50.40625,45.3125 C 53.168465,47.042978 55.847934,49.675758 56.5,53.9375 C 56.82255,54.495013 56.054859,55.951995 56,56.59375 L 56.6875,56.78125 L 56.71875,58.8125 C 56.288138,60.769608 56.427567,62.812049 56.375,64.84375 L 42.96875,70.1875 L 42.3125,96.4375 C 40.200931,97.59138 37.89665,98.637028 35.75,99.5625 L 35.65625,101.875 L 57.75,122.09375 L 92.5,108.125 L 92.625,105.5625 L 85.28125,98.875 L 84.40625,74.25 L 75.59375,66.46875 C 75.94041,63.605089 77.149359,61.018581 78.15625,58.375 C 79.286537,51.922486 78.649606,45.645845 77.09375,39.4375 C 75.079254,41.354357 72.765897,43.148722 70.28125,44.03125 C 71.600048,40.569523 71.078976,37.290397 66.59375,36.34375 C 66.550896,36.063945 65.464455,35.921639 65.4375,35.625 C 65.339619,35.185174 67.544429,34.378131 67.4375,33.9375 C 67.263546,33.22069 65.799299,32.746118 65.625,32.03125 C 65.783502,31.413769 67.247589,31.508407 67.1875,31 C 67.049776,29.834651 66.541777,28.918456 66,28.09375 C 67.713087,24.222186 67.812829,20.064601 65.40625,16.65625 C 65.837871,19.407539 65.023566,21.761344 63.46875,24.46875 C 61.524218,22.744494 59.246798,23.477335 57.1875,25.9375 C 55.003567,23.433181 53.857009,19.38533 51.71875,16.8125 C 53.536525,21.141856 50.32573,26.519357 55.8125,30.0625 L 55.3125,33.65625 L 55.71875,34.1875 C 55.811542,35.199241 55.935185,36.202065 56.09375,37.1875 C 53.655585,38.066487 51.837373,37.015425 49.34375,40.15625 C 47.745139,39.858199 46.085192,37.642048 44.90625,36 C 45.677924,34.437377 45.702291,32.84069 45.75,32.5 C 46.055799,32.130939 43.106115,31.469501 41.53125,32.59375 L 36.1875,12.625 L 29.0625,6.8125 z M 30.125,8.625 L 35.53125,13.09375 L 41.40625,33.84375 C 40.837896,35.501206 40.260366,35.9019 38.5,35.0625 L 29.875,15.34375 L 29.78125,8.71875 L 39.5625,33.375 L 30.125,8.625 z M 65.8125,18.28125 C 67.118652,21.246069 67.15658,23.847385 65.4375,27.21875 C 65.292059,26.988635 65.13751,26.75446 65.03125,26.53125 C 64.714915,25.945835 64.407688,25.440239 64.0625,25.03125 C 64.575063,23.44039 65.913046,21.341452 65.8125,18.28125 z M 52.75,19.65625 C 55.301645,22.857006 55.427507,28.204467 60.40625,28.25 C 60.354093,29.116938 60.798309,30.050469 58.34375,30.40625 C 53.954432,30.579137 52.087648,22.864755 52.75,19.65625 z M 60.4375,24.21875 C 60.591724,24.201294 60.750904,24.207495 60.90625,24.21875 C 63.559035,24.648553 65.846823,28.010368 66.40625,30.9375 L 58.375,31.90625 L 55.8125,33.375 C 55.78828,32.474592 56.27879,31.33287 56.46875,30.46875 C 56.865725,30.687131 57.272581,30.923857 57.75,31.125 C 60.157288,30.903361 61.592182,30.087781 61.3125,28.15625 C 59.735511,28.033811 58.552277,27.315756 57.5625,26.3125 C 58.332086,25.151608 59.357934,24.340945 60.4375,24.21875 z M 64.75,31.625 C 64.604035,32.197414 66.167805,33.341752 66.3125,34.1875 C 66.393387,34.660292 65.002451,35.029253 65,35.15625 C 65.162895,36.02883 65.591912,36.982623 65.78125,37.59375 L 62,38.59375 L 56.5,35.71875 C 56.425732,35.296056 56.359495,34.860918 56.3125,34.4375 C 56.813562,33.323492 57.614118,32.453809 59.25,32.3125 L 64.75,31.625 z M 43.65625,32.46875 C 44.768958,32.384858 45.597248,32.748813 44.90625,33.5625 C 43.646231,41.089527 36.605021,38.456664 34.96875,37.96875 C 34.4323,36.17985 36.440404,35.173959 37.5,34.25 L 38,35.34375 C 41.535387,36.72249 41.264043,34.885763 41.90625,33.9375 L 41.6875,33.0625 C 42.301219,32.719532 43.018675,32.516818 43.65625,32.46875 z M 56.59375,36.21875 C 59.040488,37.083624 60.983559,40.431234 66.0625,37.875 C 66.450969,39.349548 66.198108,41.071311 63.09375,42 C 61.387973,43.107902 58.804922,41.4203 57.25,38.875 C 57.014193,38.003293 56.771965,37.124083 56.59375,36.21875 z M 44.5625,36.59375 C 46.496824,39.901454 50.199612,41.209514 53.53125,42.40625 C 53.685227,43.566139 55.079523,45.239761 51.8125,45.03125 L 42.46875,43.09375 C 43.876225,41.581352 43.394623,40.926222 43.4375,40.03125 C 43.001912,42.414313 40.43882,44.057246 38.375,45.25 C 36.273721,43.8886 36.661817,40.6114 37.46875,39.25 L 37.375,39.1875 C 41.40752,39.710239 43.493797,38.288013 44.5625,36.59375 z M 66.5625,36.71875 C 68.971542,36.810277 71.531347,38.315034 69.59375,44 C 67.594404,44.65219 65.484511,44.80892 63.375,45.21875 C 63.560303,48.350207 64.004728,51.542877 64.25,54.71875 C 62.180321,56.103279 58.893058,57.035518 56.5625,56.28125 L 57.40625,53.78125 C 55.651043,50.929706 54.668993,47.639805 51.625,45.59375 L 52.59375,45.75 C 56.440358,44.917569 54.183425,43.604206 54.21875,41.875 C 52.792536,41.462575 51.309322,41.083397 49.90625,40.53125 C 52.49623,37.955502 53.854301,38.394609 56.1875,37.78125 C 56.247841,38.160563 56.321254,38.55555 56.375,38.9375 C 58.689143,41.912219 61.235767,43.881506 64.65625,41.78125 C 67.00738,40.554218 66.827379,38.412466 66.5625,36.71875 z M 76.78125,40.25 C 78.741621,45.986239 78.938256,52.326262 77.71875,58.0625 C 76.664741,61.008823 74.627329,64.433317 75.09375,68.03125 C 72.661636,64.443272 67.697792,64.097165 64.59375,62.34375 C 65.617297,57.402334 64.50391,50.601873 63.96875,45.5625 C 65.66972,45.10789 67.906802,44.975425 69.90625,44.375 C 72.297249,43.65699 74.874626,42.068126 76.78125,40.25 z M 73.03125,45.125 L 69.71875,46.1875 L 70.28125,50.59375 L 70.59375,50.59375 L 70.09375,46.40625 L 73.125,45.34375 L 73.03125,45.125 z M 61.21875,45.34375 C 59.754665,47.194642 60.192646,49.055355 56.59375,50.90625 L 57.0625,50.84375 C 60.643523,50.075665 59.924926,47.320022 61.375,45.4375 L 61.21875,45.34375 z M 74.8125,48.65625 L 74.4375,48.6875 L 74.71875,51.09375 L 77.96875,50.4375 L 77.78125,50.15625 L 75.03125,50.78125 L 74.8125,48.65625 z M 69.75,51.28125 L 65.6875,52 L 65.875,54.21875 L 66.1875,54.15625 L 65.90625,52.09375 L 69.71875,51.5 L 69.75,51.28125 z M 77.75,52.09375 L 74.6875,52.96875 L 75.03125,56.21875 L 75.46875,56.125 L 75.09375,53.1875 L 77.78125,52.375 L 77.75,52.09375 z M 64.3125,55.34375 C 64.47651,57.744612 64.509634,60.153694 64.21875,62.46875 C 65.068929,62.898541 66.419747,63.410805 67.28125,63.75 C 64.957724,64.583533 65.135201,66.969566 64.25,68.625 C 69.376523,68.286793 73.35624,69.235426 73.3125,72.84375 C 73.389475,74.793336 70.764905,74.516182 69.75,74.71875 L 63.53125,70.3125 L 63.15625,70.40625 C 64.208145,66.599763 63.494864,62.976807 62.1875,59.40625 L 62.09375,59.59375 C 63.266595,63.422451 63.541159,67.101325 62.53125,70.6875 L 60.125,71.15625 L 61.28125,78.21875 C 62.127849,79.210373 59.289404,81.917562 57.5,79.96875 L 53.875,72.65625 C 59.082928,68.174334 56.086306,63.700664 57.1875,59.21875 L 57.1875,59.15625 L 57.1875,59.125 L 57.28125,56.8125 C 59.349893,57.575622 62.339114,56.023993 64.3125,55.34375 z M 71.78125,56.03125 L 69.03125,56.5 L 69.125,56.71875 L 71.375,56.28125 L 71.90625,61.1875 L 72.34375,61.21875 L 71.78125,56.03125 z M 68.25,64.15625 C 70.728963,65.116329 73.195905,66.172225 75.5,68.53125 C 75.482293,68.096451 75.474069,67.670259 75.5,67.25 L 83.40625,74.09375 L 59.0625,83.8125 L 43.84375,70.21875 L 56.3125,65.3125 C 56.290712,65.709851 56.266221,66.484245 56.21875,66.875 C 53.001786,68.169812 50.847201,69.242034 50.53125,72.875 C 50.977805,75.106376 53.212513,76.702042 55.8125,78.25 L 55.875,78.15625 L 57,80.71875 C 58.274921,81.682851 60.59263,82.194342 62.375,79.34375 C 65.930276,79.074316 69.314532,78.98201 71.875,77.9375 C 76.288616,76.177384 79.489112,73.238948 76.0625,69.03125 C 74.254817,67.703282 70.24081,67.3345 65.53125,66.6875 C 65.850229,65.540283 66.816421,64.345612 68.25,64.15625 z M 66,66.875 C 70.738972,67.526509 74.241878,68.321301 75.71875,69.40625 C 79.263547,72.668453 74.614886,76.293716 71.6875,77.53125 C 69.372488,78.475635 65.246477,78.281017 61.9375,78.5 L 60.90625,71.59375 L 63.25,70.71875 L 69.4375,75.46875 C 72.614508,75.039814 74.440506,74.089517 74.4375,72.4375 C 70.818589,67.152633 67.106453,67.991374 64.4375,68.40625 C 64.617367,67.96531 65.87229,67.361577 66,66.875 z M 56.125,67.46875 C 55.814268,69.321988 55.113033,71.061779 53.34375,72.5625 L 55.53125,77.4375 C 53.241587,75.953667 51.379231,73.895363 51.125,72.625 C 51.330285,69.887803 54.138777,68.389881 56.125,67.46875 z M 43.5,70.46875 L 58.28125,84.875 L 58.25,111.84375 L 56.125,108.5625 L 55.65625,104.34375 L 53.40625,101.46875 L 56.4375,94.8125 L 53.34375,100.375 L 52.46875,97.3125 L 52.34375,97.375 L 52.875,101.21875 L 52.78125,101.40625 L 55.28125,104.4375 L 55.3125,108.09375 L 52.6875,106.625 L 48.78125,100.90625 L 48.625,100.9375 L 52.0625,106.59375 L 52.09375,106.625 L 52.125,106.6875 L 55.65625,108.75 L 57.40625,112.65625 L 43.40625,100.5 L 45.71875,98.78125 L 47.9375,97.625 L 47.78125,97.5625 L 45.71875,98.28125 L 45.65625,95 L 45.78125,94.875 L 45.78125,94.84375 L 47.15625,93.125 L 45.6875,94.40625 L 44.71875,89.625 L 44.59375,89.59375 L 45.28125,94.75 L 45.1875,94.84375 L 45.25,98.46875 L 43.15625,99.59375 L 43.5,70.46875 z M 47.15625,93.125 L 47.3125,92.96875 L 47.3125,92.90625 L 47.15625,93.125 z M 84,74.53125 L 84.65625,103.40625 L 79.84375,101.34375 L 80.71875,97.46875 L 83.125,95.40625 L 80.40625,92.625 L 80.21875,92.5 L 82.4375,95.46875 L 80.375,96.9375 L 77.09375,95.96875 L 77.34375,94.34375 L 75.25,92.03125 L 76.9375,94.5625 L 76.53125,95.625 L 72.65625,93.03125 L 72.71875,93.25 L 76.6875,96.28125 L 80.1875,97.28125 L 79.46875,100.78125 L 77.3125,101.625 L 77.3125,101.75 L 79.40625,101.59375 L 84.28125,104.53125 L 59.5625,113.5625 L 60.59375,111.34375 L 68.625,108.96875 L 68.6875,108.84375 L 65.28125,109.65625 L 66.03125,107.03125 L 65.96875,106.84375 L 64.9375,109.6875 L 60.5,110.84375 L 59.96875,108.03125 L 63,105.625 L 65.03125,103.6875 L 67.1875,104.71875 L 67.25,104.625 C 68.219158,105.16057 69.5,106.0625 69.5,106.0625 L 69.625,105.84375 C 69.625001,105.84375 68.361558,104.61722 67.5,104.15625 L 68.46875,102.34375 L 71.21875,103.25 L 71.3125,103.21875 L 68.3125,101.90625 L 66.875,104.09375 L 65.375,103.28125 L 65.5625,100 L 67.96875,99 L 65.25,99.6875 L 65.0625,103.03125 L 62.65625,104.8125 L 60.59375,99.8125 L 62.28125,96.15625 L 60.84375,93.125 L 61.84375,96.21875 L 60.1875,99.875 L 62.46875,105.40625 L 59.34375,107.96875 L 60.21875,111.25 L 58.90625,113.125 L 59.03125,84.8125 L 84,74.53125 z M 42.3125,97.125 L 42.21875,100.6875 L 58.5625,114.6875 L 85.46875,104.8125 L 85.40625,99.5 L 91.21875,105.59375 L 58.03125,118.46875 L 37.03125,99.71875 L 42.3125,97.125 z M 36.375,99.78125 L 57.8125,119.09375 L 58.0625,121.3125 L 36.3125,101.96875 L 36.375,99.78125 z M 91.9375,105.96875 L 91.8125,107.6875 L 58.40625,121.0625 L 58.3125,119.15625 L 91.9375,105.96875 z" id="path2309" sodipodi:nodetypes="ccccccccccccccccccccccccccccscscccccccccccccccccccccccccscccccccccccccccccsccccccccccccccccccccccccccccccccccccccccccccccccsccccccccccccccccccccccccccccccccccccccccccccccccccccccccccccccccccccccccccccccccccccccccccccccccccccccccccccccccccccccccccccccccccccccccccccccccccccccccccccccccccccccccccccccccccccccccccccccccccccccccccccccccccccccccc"/>
  </g>
</svg>