<?xml version="1.0" encoding="UTF-8" standalone="no"?>
<!-- Created with Inkscape (http://www.inkscape.org/) -->
<svg xmlns:dc="http://purl.org/dc/elements/1.1/" xmlns:cc="http://creativecommons.org/ns#" xmlns:rdf="http://www.w3.org/1999/02/22-rdf-syntax-ns#" xmlns:svg="http://www.w3.org/2000/svg" xmlns="http://www.w3.org/2000/svg" xmlns:xlink="http://www.w3.org/1999/xlink" xmlns:sodipodi="http://sodipodi.sourceforge.net/DTD/sodipodi-0.dtd" xmlns:inkscape="http://www.inkscape.org/namespaces/inkscape" width="128" height="128" id="svg2" sodipodi:version="0.32" inkscape:version="0.45+devel" sodipodi:docname="candy.svg" inkscape:output_extension="org.inkscape.output.svg.inkscape" version="1.0" inkscape:export-filename="/home/nicu/Desktop/pacman/pacman.png" inkscape:export-xdpi="90" inkscape:export-ydpi="90">
  <defs id="defs4">
    <inkscape:perspective sodipodi:type="inkscape:persp3d" inkscape:vp_x="-50 : 600 : 1" inkscape:vp_y="0 : 1000 : 0" inkscape:vp_z="700 : 600 : 1" inkscape:persp3d-origin="300 : 400 : 1" id="perspective2457"/>
    <linearGradient id="linearGradient4072">
      <stop style="stop-color: rgb(0, 0, 0); stop-opacity: 1;" offset="0" id="stop4074"/>
      <stop style="stop-color: rgb(0, 0, 0); stop-opacity: 0;" offset="1" id="stop4076"/>
    </linearGradient>
    <linearGradient id="linearGradient2315">
      <stop style="stop-color: rgb(0, 0, 0); stop-opacity: 0;" offset="0" id="stop2317"/>
      <stop style="stop-color: rgb(0, 0, 0); stop-opacity: 0.571956;" offset="1" id="stop2319"/>
    </linearGradient>
    <filter inkscape:collect="always" id="filter3730" x="-0.34801543" width="1.6960309" y="-0.34084839" height="1.6816968">
      <feGaussianBlur inkscape:collect="always" stdDeviation="5.4650567" id="feGaussianBlur3732"/>
    </filter>
    <filter inkscape:collect="always" id="filter4065" x="-0.51975077" width="2.0395014" y="-0.45338511" height="1.9067702">
      <feGaussianBlur inkscape:collect="always" stdDeviation="4.1511594" id="feGaussianBlur4067"/>
    </filter>
    <filter inkscape:collect="always" id="filter4112" x="-0.070020586" width="1.1400412" y="-0.34009999" height="1.6802">
      <feGaussianBlur inkscape:collect="always" stdDeviation="3.9678331" id="feGaussianBlur4114"/>
    </filter>
    <radialGradient inkscape:collect="always" xlink:href="#linearGradient4072" id="radialGradient3497" gradientUnits="userSpaceOnUse" gradientTransform="matrix(1.40285, 1.64387e-06, -1.45208e-07, 0.205882, -89.8449, 403.113)" cx="210.88904" cy="506.35242" fx="210.88904" fy="506.35242" r="68"/>
    <radialGradient inkscape:collect="always" xlink:href="#linearGradient2315" id="radialGradient3499" gradientUnits="userSpaceOnUse" gradientTransform="matrix(0.715805, 1.41284, -1.35385, 0.685918, 735.836, -155.772)" cx="216.99271" cy="497.9592" fx="216.99271" fy="497.9592" r="65"/>
    <radialGradient inkscape:collect="always" xlink:href="#linearGradient2315" id="radialGradient3501" gradientUnits="userSpaceOnUse" gradientTransform="matrix(0.387095, 1.51613, -1.42341, 0.363422, 726.515, -93.1066)" cx="233.49998" cy="409.86218" fx="233.49998" fy="409.86218" r="15.5"/>
    <radialGradient inkscape:collect="always" xlink:href="#linearGradient2315" id="radialGradient3503" gradientUnits="userSpaceOnUse" gradientTransform="matrix(0.387095, 1.51613, -1.42341, 0.363422, 726.515, -93.1066)" cx="233.49998" cy="409.86218" fx="233.49998" fy="409.86218" r="15.5"/>
  </defs>
  <sodipodi:namedview id="base" pagecolor="#ffffff" bordercolor="#666666" borderopacity="1.0" gridtolerance="10000" guidetolerance="10" objecttolerance="10" inkscape:pageopacity="0.0" inkscape:pageshadow="2" inkscape:zoom="0.721875" inkscape:cx="68.294372" inkscape:cy="-20.632199" inkscape:document-units="px" inkscape:current-layer="layer1" showgrid="false" inkscape:window-width="937" inkscape:window-height="717" inkscape:window-x="674" inkscape:window-y="205" showguides="true" inkscape:guide-bbox="true" height="640px" width="128px">
    <inkscape:grid type="xygrid" id="grid3194" originx="0px" originy="0px" spacingx="0px" spacingy="0px"/>
  </sodipodi:namedview>
  <metadata id="metadata7">
    <rdf:RDF>
      <cc:Work rdf:about="">
        <dc:format>image/svg+xml</dc:format>
        <dc:type rdf:resource="http://purl.org/dc/dcmitype/StillImage"/>
        <dc:title/>
        <dc:date/>
        <dc:creator>
          <cc:Agent>
            <dc:title/>
          </cc:Agent>
        </dc:creator>
        <dc:rights>
          <cc:Agent>
            <dc:title/>
          </cc:Agent>
        </dc:rights>
        <dc:publisher>
          <cc:Agent>
            <dc:title/>
          </cc:Agent>
        </dc:publisher>
        <dc:identifier/>
        <dc:source/>
        <dc:relation/>
        <dc:language/>
        <dc:subject>
          <rdf:Bag/>
        </dc:subject>
        <dc:coverage/>
        <dc:description/>
        <dc:contributor>
          <cc:Agent>
            <dc:title/>
          </cc:Agent>
        </dc:contributor>
        <cc:license rdf:resource=""/>
      </cc:Work>
    </rdf:RDF>
  </metadata>
  <g inkscape:label="Layer 1" inkscape:groupmode="layer" id="layer1" transform="translate(-233.42, -11.7345)">
    <g transform="matrix(0.712866, 0, 0, 0.712866, 148.431, -234.501)" id="g3469">
      <path transform="matrix(1.05882, 0, 0, 0.857143, -9.11765, 72.4803)" style="fill: url(&quot;#radialGradient3497&quot;) rgb(0, 0, 0); fill-opacity: 1; stroke: none; stroke-width: 4; stroke-linecap: round; stroke-miterlimit: 4; stroke-opacity: 1; filter: url(&quot;#filter4112&quot;);" d="M 274,507.36218 C 274,515.09018 243.536,521.36218 206,521.36218 C 168.464,521.36218 138,515.09018 138,507.36218 C 138,499.63418 168.464,493.36218 206,493.36218 C 243.536,493.36218 274,499.63418 274,507.36218 z" id="path3471"/>
      <path transform="translate(-31, -85)" style="fill: rgb(255, 128, 178); fill-opacity: 1; stroke: none; stroke-width: 4; stroke-linecap: round; stroke-miterlimit: 4; stroke-opacity: 1;" d="M 305,531.36218 C 305,536.20505 304.46949,568.92477 303.46346,573.46635 C 300.98926,585.92556 292.98013,593.09887 280.95284,595.82909 C 275.3627,596.87193 269.00413,574.00521 262.10328,573.87777 C 255.20242,573.75033 247.75928,596.36218 240,596.36218 C 232.20434,596.36218 224.7278,573.73753 217.7997,573.84256 C 210.87161,573.9476 204.49197,596.78232 198.89011,595.70106 C 186.20634,593.59612 179.57446,584.91986 176.44715,573.05649 C 175.49911,568.64103 175,536.05954 175,531.36218 C 175,495.48218 204.12,466.36218 240,466.36218 C 275.88,466.36218 305,495.48218 305,531.36218 z" id="path3473" sodipodi:nodetypes="cccsssccssc"/>
      <path style="fill: rgb(255, 0, 102); fill-opacity: 1; stroke: none; stroke-width: 4; stroke-linecap: round; stroke-miterlimit: 4; stroke-opacity: 1;" d="M 463.28125,507.03125 C 452.47818,518.59704 458.65952,530.80317 463.15625,544 C 465.13537,530.91551 460.3706,520.12049 478.09375,514.375 C 477.53214,513.95749 476.956,513.54885 476.375,513.15625 C 475.82079,512.78173 475.25841,512.41332 474.6875,512.0625 C 474.62343,512.02313 474.56428,511.97657 474.5,511.9375 C 473.97882,511.62072 473.44063,511.32778 472.90625,511.03125 C 472.30292,510.69656 471.68192,510.37075 471.0625,510.0625 C 470.89521,509.97925 470.73092,509.89378 470.5625,509.8125 C 470.10666,509.59275 469.65147,509.39261 469.1875,509.1875 C 468.55283,508.90653 467.89909,508.62784 467.25,508.375 C 466.60091,508.12216 465.94392,507.8801 465.28125,507.65625 C 464.67164,507.45032 464.05793,507.27446 463.4375,507.09375 C 463.3967,507.08187 463.3519,507.07866 463.3125,507.0625 C 463.30007,507.05892 463.29368,507.03482 463.28125,507.03125 z M 431.1875,509.46875 C 430.5899,509.74343 429.98946,510.01638 429.40625,510.3125 C 428.82304,510.60862 428.25704,510.92789 427.6875,511.25 C 427.11796,511.5721 426.55437,511.905 426,512.25 C 425.52734,512.54521 425.05481,512.84468 424.59375,513.15625 C 424.50872,513.21344 424.42838,513.28602 424.34375,513.34375 C 423.86359,513.67132 423.39947,514.00049 422.9375,514.34375 C 422.88867,514.37998 422.82994,514.40108 422.78125,514.4375 C 422.3686,514.74663 421.9685,515.08204 421.5625,515.40625 C 421.41796,515.52167 421.2681,515.63288 421.125,515.75 C 421.09606,515.77377 421.06013,515.78866 421.03125,515.8125 C 420.59197,516.17381 420.17535,516.56037 419.75,516.9375 C 419.38218,517.26429 419.01346,517.59932 418.65625,517.9375 C 418.57527,518.01291 418.48576,518.0799 418.40625,518.15625 C 418.37437,518.18686 418.3443,518.2193 418.3125,518.25 C 424.80182,533.51923 448.87407,542.20395 461.28125,545.3125 C 452.29381,535.62098 427.99192,525.51935 431.1875,509.46875 z M 464.875,544.0625 C 479.66351,546.45656 481.22605,542.74075 496.75,555.875 C 496.77691,554.0645 496.8125,552.21695 496.8125,551.5625 C 496.8125,550.76976 496.78953,549.97006 496.75,549.1875 C 496.72703,548.73482 496.69214,548.29293 496.65625,547.84375 C 496.61955,547.38322 496.58136,546.92536 496.53125,546.46875 C 496.5279,546.43822 496.52976,546.40657 496.53125,546.375 C 496.52897,546.35466 496.53355,546.33283 496.53125,546.3125 C 496.46251,545.70493 496.37331,545.1003 496.28125,544.5 C 496.24278,544.24844 496.19876,544.00022 496.15625,543.75 C 496.13447,543.62199 496.08533,543.50266 496.0625,543.375 C 495.93459,542.65968 495.81654,541.95398 495.65625,541.25 C 485.18654,537.93156 474.70037,539.53129 464.875,544.0625 z M 404.46875,546.40625 C 405.94678,539.62608 405.40023,540.12329 404.46875,546.40625 z M 404.46875,546.40625 C 404.37432,547.2553 404.30452,548.11047 404.25,548.96875 C 404.19548,549.82703 404.15625,550.68839 404.15625,551.5625 C 404.15625,552.75644 404.22366,556.7194 404.3125,561.15625 C 419.33445,567.75859 446.46754,554.31911 459.5625,547.1875 C 445.22942,547.06522 418.27742,552.29711 404.46875,546.40625 z M 464.5,546.5625 C 469.74277,557.20358 473.0428,566.32266 464.5625,582.40625 C 464.60258,582.38112 464.64729,582.36721 464.6875,582.34375 C 464.74096,582.31236 464.78919,582.27626 464.84375,582.25 C 464.89441,582.22295 464.94942,582.2118 465,582.1875 C 465.11037,582.13513 465.20207,582.07027 465.3125,582.03125 C 465.34406,582.01976 465.37472,582.01034 465.40625,582 C 465.44694,581.98703 465.49062,581.97983 465.53125,581.96875 C 465.54089,581.96605 465.55286,581.97134 465.5625,581.96875 C 465.6762,581.93825 465.79295,581.92085 465.90625,581.90625 C 466.01957,581.89164 466.13708,581.87292 466.25,581.875 C 466.40373,581.87784 466.56578,581.90402 466.71875,581.9375 C 466.7515,581.94486 466.77978,581.96005 466.8125,581.96875 C 466.99242,582.01569 467.1649,582.07049 467.34375,582.15625 C 467.36372,582.16583 467.38629,582.17746 467.40625,582.1875 C 467.43871,582.20359 467.46757,582.23271 467.5,582.25 C 467.53987,582.27154 467.58518,582.28918 467.625,582.3125 C 467.72216,582.36872 467.8094,582.43355 467.90625,582.5 C 467.9591,582.53672 468.00975,582.55409 468.0625,582.59375 C 468.22146,582.71129 468.37317,582.82619 468.53125,582.96875 C 468.68108,583.10452 468.81973,583.24998 468.96875,583.40625 C 469.19692,583.64364 469.4301,583.90796 469.65625,584.1875 C 469.73159,584.28081 469.79987,584.3713 469.875,584.46875 C 470.1732,584.85398 470.45564,585.24692 470.75,585.6875 C 471.04138,586.12342 471.30583,586.58925 471.59375,587.0625 C 471.63325,587.12914 471.67932,587.1828 471.71875,587.25 C 471.98588,587.69323 472.23593,588.16491 472.5,588.625 C 472.55999,588.73045 472.62746,588.83214 472.6875,588.9375 C 472.8928,589.29775 473.1091,589.63838 473.3125,590 C 473.8051,590.87612 474.30038,591.74113 474.78125,592.5625 C 475.22821,593.32595 475.65712,594.04347 476.09375,594.6875 C 476.16665,594.79502 476.23989,594.89694 476.3125,595 C 476.40583,595.13256 476.5009,595.28169 476.59375,595.40625 C 476.68982,595.53469 476.8107,595.66214 476.90625,595.78125 C 477.13767,596.06975 477.36539,596.33637 477.59375,596.5625 C 477.82211,596.78863 478.05599,596.97204 478.28125,597.125 C 478.3722,597.18608 478.47207,597.2647 478.5625,597.3125 C 478.68722,597.37772 478.81375,597.43034 478.9375,597.46875 C 479.1908,597.54733 479.43844,597.57771 479.6875,597.53125 C 480.33461,597.38436 480.94849,597.21449 481.5625,597.03125 C 481.61744,597.01486 481.66408,596.98544 481.71875,596.96875 C 482.25565,596.80487 482.77103,596.63012 483.28125,596.4375 C 483.58344,596.32375 483.89469,596.21756 484.1875,596.09375 C 484.45102,595.98232 484.71293,595.86964 484.96875,595.75 C 485.03262,595.71993 485.09287,595.68684 485.15625,595.65625 C 485.16902,595.65009 485.17476,595.63121 485.1875,595.625 C 485.53747,595.45446 485.88362,595.27953 486.21875,595.09375 C 486.25956,595.07129 486.30153,595.05118 486.34375,595.03125 C 486.40463,594.99721 486.47088,594.97207 486.53125,594.9375 C 486.63775,594.87609 486.73884,594.81308 486.84375,594.75 C 487.67008,594.25318 488.46144,593.6948 489.1875,593.09375 C 489.23916,593.05115 489.2926,593.01189 489.34375,592.96875 C 489.41162,592.91132 489.46429,592.83962 489.53125,592.78125 C 489.88866,592.46969 490.23131,592.15091 490.5625,591.8125 C 490.95574,591.41069 491.33186,591.00251 491.6875,590.5625 C 485.96763,570.01034 482.26128,555.57631 464.5,546.5625 z M 491.6875,590.5625 C 492.02893,590.11239 492.29836,589.74949 492.46875,589.5 C 492.97993,588.75152 492.70871,588.97755 491.6875,590.5625 z M 461.59375,547.5625 C 450.12038,571.58717 431.95694,574.9316 405.09375,580.75 C 405.12038,580.94383 405.15979,581.15218 405.1875,581.28125 C 406.15188,584.93962 407.57861,588.16848 409.625,590.78125 C 413.43106,594.07707 417.78584,596.87297 421.1875,597.4375 C 421.34403,597.46771 421.49827,597.45774 421.65625,597.4375 C 421.74999,597.42549 421.84324,597.40364 421.9375,597.375 C 421.99909,597.35634 422.06316,597.33792 422.125,597.3125 C 422.1848,597.2875 422.25248,597.24989 422.3125,597.21875 C 422.40938,597.16828 422.52752,597.12811 422.625,597.0625 C 422.65402,597.04285 422.68968,597.02095 422.71875,597 C 422.84779,596.90713 422.96367,596.77329 423.09375,596.65625 C 423.22383,596.53921 423.36889,596.42042 423.5,596.28125 C 423.52837,596.25113 423.56533,596.21859 423.59375,596.1875 C 423.81662,595.94085 424.05523,595.64491 424.28125,595.34375 C 424.54726,594.9894 424.824,594.60213 425.09375,594.1875 C 425.0984,594.18036 425.0891,594.16341 425.09375,594.15625 C 425.10581,594.14756 425.11295,594.13369 425.125,594.125 C 425.37771,593.73515 425.65028,593.30318 425.90625,592.875 C 426.0187,592.68683 426.1369,592.47488 426.25,592.28125 C 426.68571,591.53414 427.11768,590.75672 427.5625,589.96875 C 427.89166,589.38703 428.22836,588.82327 428.5625,588.25 C 428.80471,587.83302 429.03649,587.43219 429.28125,587.03125 C 429.55334,586.58553 429.81855,586.16292 430.09375,585.75 C 430.27099,585.48443 430.44649,585.24746 430.625,585 C 430.75071,584.82534 430.87366,584.63284 431,584.46875 C 431.0086,584.45762 431.02265,584.44858 431.03125,584.4375 C 431.33272,584.04798 431.63249,583.69157 431.9375,583.375 C 432.01229,583.29716 432.08126,583.2291 432.15625,583.15625 C 432.23162,583.08307 432.29941,583.00535 432.375,582.9375 C 432.44714,582.87265 432.52142,582.8098 432.59375,582.75 C 432.67279,582.68466 432.76448,582.62148 432.84375,582.5625 C 432.99495,582.44981 433.12925,582.3694 433.28125,582.28125 C 433.39824,582.21274 433.50752,582.14663 433.625,582.09375 C 433.71839,582.05167 433.81257,582.03172 433.90625,582 C 433.9496,581.98528 433.98784,581.94992 434.03125,581.9375 C 434.23806,581.87924 434.44804,581.84691 434.65625,581.84375 C 436.49562,581.81587 438.40436,584.04687 440.34375,586.84375 C 453.60835,574.55597 457.59035,558.82085 461.59375,547.5625 z" transform="matrix(1.40279, 0, 0, 1.40279, -422.941, -327.369)" id="path3511" sodipodi:nodetypes="cccsssssssssssccssssssssssssscccccssssssssscccccsscccccsssssssssssssssssssssssssssssssssssssssssssssssssssscccsccccccsssssssssssssssssssssssssssssssscc"/>
      <path sodipodi:nodetypes="cccsssccssc" id="path3475" d="M 305,531.36218 C 305,536.20505 304.46949,568.92477 303.46346,573.46635 C 300.98926,585.92556 292.98013,593.09887 280.95284,595.82909 C 275.3627,596.87193 269.00413,574.00521 262.10328,573.87777 C 255.20242,573.75033 247.75928,596.36218 240,596.36218 C 232.20434,596.36218 224.7278,573.73753 217.7997,573.84256 C 210.87161,573.9476 204.49197,596.78232 198.89011,595.70106 C 186.20634,593.59612 179.57446,584.91986 176.44715,573.05649 C 175.49911,568.64103 175,536.05954 175,531.36218 C 175,495.48218 204.12,466.36218 240,466.36218 C 275.88,466.36218 305,495.48218 305,531.36218 z" style="fill: url(&quot;#radialGradient3499&quot;) rgb(0, 0, 0); fill-opacity: 1; stroke: none; stroke-width: 4; stroke-linecap: round; stroke-miterlimit: 4; stroke-opacity: 1;" transform="translate(-31, -85)"/>
      <g id="g3477" transform="translate(5, 10)">
        <path transform="translate(4, 7)" d="M 255,417.86218 A 15.5,15.5 0 1 1 224,417.86218 A 15.5,15.5 0 1 1 255,417.86218 z" sodipodi:ry="15.5" sodipodi:rx="15.5" sodipodi:cy="417.86218" sodipodi:cx="239.5" id="path3479" style="opacity: 1; fill: rgb(255, 255, 255); fill-opacity: 1; stroke: none; stroke-width: 4; stroke-linecap: round; stroke-miterlimit: 4; stroke-dasharray: none; stroke-opacity: 1;" sodipodi:type="arc"/>
        <path sodipodi:type="arc" style="opacity: 1; fill: url(&quot;#radialGradient3501&quot;) rgb(0, 0, 0); fill-opacity: 1; stroke: none; stroke-width: 4; stroke-linecap: round; stroke-miterlimit: 4; stroke-dasharray: none; stroke-opacity: 1;" id="path3481" sodipodi:cx="239.5" sodipodi:cy="417.86218" sodipodi:rx="15.5" sodipodi:ry="15.5" d="M 255,417.86218 A 15.5,15.5 0 1 1 224,417.86218 A 15.5,15.5 0 1 1 255,417.86218 z" transform="translate(4, 7)"/>
        <path transform="matrix(0.612903, 0, 0, 0.612903, 101.71, 169.753)" d="M 255,417.86218 A 15.5,15.5 0 1 1 224,417.86218 A 15.5,15.5 0 1 1 255,417.86218 z" sodipodi:ry="15.5" sodipodi:rx="15.5" sodipodi:cy="417.86218" sodipodi:cx="239.5" id="path3483" style="opacity: 1; fill: rgb(0, 0, 0); fill-opacity: 1; stroke: none; stroke-width: 4; stroke-linecap: round; stroke-miterlimit: 4; stroke-dasharray: none; stroke-opacity: 1;" sodipodi:type="arc"/>
      </g>
      <g id="g3485" transform="translate(-35, 10)">
        <path sodipodi:type="arc" style="opacity: 1; fill: rgb(255, 255, 255); fill-opacity: 1; stroke: none; stroke-width: 4; stroke-linecap: round; stroke-miterlimit: 4; stroke-dasharray: none; stroke-opacity: 1;" id="path3487" sodipodi:cx="239.5" sodipodi:cy="417.86218" sodipodi:rx="15.5" sodipodi:ry="15.5" d="M 255,417.86218 A 15.5,15.5 0 1 1 224,417.86218 A 15.5,15.5 0 1 1 255,417.86218 z" transform="translate(4, 7)"/>
        <path transform="translate(4, 7)" d="M 255,417.86218 A 15.5,15.5 0 1 1 224,417.86218 A 15.5,15.5 0 1 1 255,417.86218 z" sodipodi:ry="15.5" sodipodi:rx="15.5" sodipodi:cy="417.86218" sodipodi:cx="239.5" id="path3489" style="opacity: 1; fill: url(&quot;#radialGradient3503&quot;) rgb(0, 0, 0); fill-opacity: 1; stroke: none; stroke-width: 4; stroke-linecap: round; stroke-miterlimit: 4; stroke-dasharray: none; stroke-opacity: 1;" sodipodi:type="arc"/>
        <path sodipodi:type="arc" style="opacity: 1; fill: rgb(0, 0, 0); fill-opacity: 1; stroke: none; stroke-width: 4; stroke-linecap: round; stroke-miterlimit: 4; stroke-dasharray: none; stroke-opacity: 1;" id="path3491" sodipodi:cx="239.5" sodipodi:cy="417.86218" sodipodi:rx="15.5" sodipodi:ry="15.5" d="M 255,417.86218 A 15.5,15.5 0 1 1 224,417.86218 A 15.5,15.5 0 1 1 255,417.86218 z" transform="matrix(0.612903, 0, 0, 0.612903, 101.71, 169.753)"/>
      </g>
      <path style="fill: rgb(255, 255, 255); fill-opacity: 0.627451; stroke: none; stroke-width: 4; stroke-linecap: round; stroke-miterlimit: 4; stroke-opacity: 1; filter: url(&quot;#filter3730&quot;);" d="M 180.00895,413.25201 C 169.98339,423.52178 159.6027,429.66602 156.83776,426.96684 C 154.07283,424.26764 159.9655,413.74212 169.99105,403.47235 C 180.01661,393.20258 190.3973,387.05834 193.16224,389.75752 C 195.92717,392.45672 190.0345,402.98224 180.00895,413.25201 z" id="path3493"/>
      <path transform="matrix(0.771259, 0.636521, -0.636521, 0.771259, 379.118, -54.4713)" style="fill: rgb(255, 255, 255); fill-opacity: 0.434389; stroke: none; stroke-width: 4; stroke-linecap: round; stroke-miterlimit: 4; stroke-opacity: 1; filter: url(&quot;#filter4065&quot;);" d="M 262,501.86218 C 262,509.31418 259.536,515.36218 256.5,515.36218 C 253.464,515.36218 251,509.31418 251,501.86218 C 251,494.41018 253.464,488.36218 256.5,488.36218 C 259.536,488.36218 262,494.41018 262,501.86218 z" id="path3495"/>
    </g>
  </g>
</svg>